<svg viewBox="0 0 1546 440" fill="none" xmlns="http://www.w3.org/2000/svg">
    <g filter="url(#filter0_dd_2941_1201)">
        <rect x="7" y="6.89453" width="1532" height="425" rx="48" fill="url(#paint0_linear_2941_1201)"/>
        <rect x="5" y="4.89453" width="1536" height="429" rx="50" stroke="white" stroke-width="4"/>
    </g>
    <mask id="mask0_2941_1201" style="mask-type:alpha" maskUnits="userSpaceOnUse" x="7" y="6" width="1532" height="426">
        <rect x="7" y="6.89453" width="1532" height="425" rx="48" fill="url(#paint1_linear_2941_1201)"/>
    </mask>
    <g mask="url(#mask0_2941_1201)">
        <ellipse cx="538.617" cy="550.414" rx="538.617" ry="550.414" transform="matrix(-0.866025 0.5 -0.467145 -0.884181 1817.16 93.3555)" fill="url(#paint2_linear_2941_1201)"/>
        <ellipse cx="452.545" cy="435.871" rx="452.545" ry="435.871" transform="matrix(-0.968624 -0.24853 0.269471 -0.963009 1702.09 1079.54)" fill="url(#paint3_linear_2941_1201)"/>
        <g opacity="0.5">
            <ellipse cx="1390.71" cy="14.8945" rx="4.17723" ry="4" fill="white"/>
            <ellipse cx="1390.71" cy="46.8945" rx="4.17723" ry="4" fill="white"/>
            <ellipse cx="1390.71" cy="78.8945" rx="4.17723" ry="4" fill="white"/>
            <ellipse cx="1390.71" cy="110.895" rx="4.17723" ry="4" fill="white"/>
            <ellipse cx="1424.13" cy="14.8945" rx="4.17723" ry="4" fill="white"/>
            <ellipse cx="1424.13" cy="46.8945" rx="4.17723" ry="4" fill="white"/>
            <ellipse cx="1424.13" cy="78.8945" rx="4.17723" ry="4" fill="white"/>
            <ellipse cx="1424.13" cy="110.895" rx="4.17723" ry="4" fill="white"/>
            <ellipse cx="1457.54" cy="14.8945" rx="4.17723" ry="4" fill="white"/>
            <ellipse cx="1457.54" cy="46.8945" rx="4.17723" ry="4" fill="white"/>
            <ellipse cx="1457.54" cy="78.8945" rx="4.17723" ry="4" fill="white"/>
            <ellipse cx="1457.54" cy="110.895" rx="4.17723" ry="4" fill="white"/>
            <ellipse cx="1490.96" cy="14.8945" rx="4.17723" ry="4" fill="white"/>
            <ellipse cx="1490.96" cy="46.8945" rx="4.17723" ry="4" fill="white"/>
            <ellipse cx="1490.96" cy="78.8945" rx="4.17723" ry="4" fill="white"/>
            <ellipse cx="1490.96" cy="110.895" rx="4.17723" ry="4" fill="white"/>
            <ellipse cx="1524.38" cy="14.8945" rx="4.17723" ry="4" fill="white"/>
            <ellipse cx="1524.38" cy="46.8945" rx="4.17723" ry="4" fill="white"/>
            <ellipse cx="1524.38" cy="78.8945" rx="4.17723" ry="4" fill="white"/>
            <ellipse cx="1524.38" cy="110.895" rx="4.17723" ry="4" fill="white"/>
        </g>
        <path fill-rule="evenodd" clip-rule="evenodd" d="M706.686 82.8945L706.686 96.8945H721.306V82.8945H735.926V68.8945H721.306V54.8945H706.686L706.686 68.8945H692.065V82.8945H706.686Z" fill="#AC79FF"/>
        <path fill-rule="evenodd" clip-rule="evenodd" d="M1433.89 350V370H1454.77V350H1475.66V330H1454.77V310H1433.89V330H1413V350H1433.89Z" fill="#AC79FF"/>
        <path d="M853 357.5C853 368.27 843.822 377 832.5 377C821.178 377 812 368.27 812 357.5C812 346.73 821.178 338 832.5 338C843.822 338 853 346.73 853 357.5ZM822.758 357.5C822.758 362.618 827.12 366.766 832.5 366.766C837.88 366.766 842.242 362.618 842.242 357.5C842.242 352.382 837.88 348.234 832.5 348.234C827.12 348.234 822.758 352.382 822.758 357.5Z" fill="#AC79FF"/>
        <path d="M162.678 16.5C162.678 39.4198 143.274 58 119.339 58C95.4034 58 76 39.4198 76 16.5C76 -6.41982 95.4034 -25 119.339 -25C143.274 -25 162.678 -6.41982 162.678 16.5ZM98.744 16.5C98.744 27.3916 107.965 36.221 119.339 36.221C130.713 36.221 139.934 27.3916 139.934 16.5C139.934 5.60841 130.713 -3.22097 119.339 -3.22097C107.965 -3.22097 98.744 5.60841 98.744 16.5Z" fill="#AC79FF"/>
    </g>
    <defs>
        <filter id="filter0_dd_2941_1201" x="0" y="0.894531" width="1546" height="439" filterUnits="userSpaceOnUse" color-interpolation-filters="sRGB">
            <feFlood flood-opacity="0" result="BackgroundImageFix"/>
            <feColorMatrix in="SourceAlpha" type="matrix" values="0 0 0 0 0 0 0 0 0 0 0 0 0 0 0 0 0 0 127 0" result="hardAlpha"/>
            <feOffset dy="1"/>
            <feGaussianBlur stdDeviation="1"/>
            <feColorMatrix type="matrix" values="0 0 0 0 0 0 0 0 0 0 0 0 0 0 0 0 0 0 0.06 0"/>
            <feBlend mode="normal" in2="BackgroundImageFix" result="effect1_dropShadow_2941_1201"/>
            <feColorMatrix in="SourceAlpha" type="matrix" values="0 0 0 0 0 0 0 0 0 0 0 0 0 0 0 0 0 0 127 0" result="hardAlpha"/>
            <feOffset dy="1"/>
            <feGaussianBlur stdDeviation="1.5"/>
            <feColorMatrix type="matrix" values="0 0 0 0 0 0 0 0 0 0 0 0 0 0 0 0 0 0 0.1 0"/>
            <feBlend mode="normal" in2="effect1_dropShadow_2941_1201" result="effect2_dropShadow_2941_1201"/>
            <feBlend mode="normal" in="SourceGraphic" in2="effect2_dropShadow_2941_1201" result="shape"/>
        </filter>
        <linearGradient id="paint0_linear_2941_1201" x1="7" y1="94.0004" x2="1539" y2="94.0004" gradientUnits="userSpaceOnUse">
            <stop stop-color="#6366F1"/>
            <stop offset="1" stop-color="#9756FF"/>
            <stop offset="1" stop-color="#8B5CF6"/>
        </linearGradient>
        <linearGradient id="paint1_linear_2941_1201" x1="7" y1="94.0004" x2="1539" y2="94.0004" gradientUnits="userSpaceOnUse">
            <stop stop-color="#6366F1"/>
            <stop offset="1" stop-color="#9756FF"/>
            <stop offset="1" stop-color="#8B5CF6"/>
        </linearGradient>
        <linearGradient id="paint2_linear_2941_1201" x1="0" y1="225.62" x2="1077.23" y2="225.62" gradientUnits="userSpaceOnUse">
            <stop stop-color="#6366F1"/>
            <stop offset="1" stop-color="#9756FF"/>
            <stop offset="1" stop-color="#8B5CF6"/>
        </linearGradient>
        <linearGradient id="paint3_linear_2941_1201" x1="0" y1="178.668" x2="905.089" y2="178.668" gradientUnits="userSpaceOnUse">
            <stop stop-color="#6366F1"/>
            <stop offset="1" stop-color="#9756FF"/>
            <stop offset="1" stop-color="#8B5CF6"/>
        </linearGradient>
    </defs>
</svg>