<svg viewBox="0 0 639 540" fill="none" >
    <g filter="url(#filter0_d_3013_2632)">
        <rect x="376" y="34" width="368" height="333" rx="24" transform="rotate(90 376 34)" fill="white"/>
    </g>
    <rect x="79" y="123" width="20" height="20" rx="10" fill="#A5EB9E"/>
    <rect x="214" y="143" width="101" height="20" rx="10" transform="rotate(-180 214 143)" fill="#6B7280"/>
    <rect x="79" y="359" width="58" height="20" rx="10" transform="rotate(-90 79 359)" fill="#7962FF"/>
    <rect x="117" y="359" width="89" height="20" rx="10" transform="rotate(-90 117 359)" fill="#926BFF"/>
    <rect x="156" y="359" width="58" height="20" rx="10" transform="rotate(-90 156 359)" fill="#7962FF"/>
    <rect x="310" y="359" width="77" height="20" rx="10" transform="rotate(-90 310 359)" fill="#7962FF"/>
    <rect x="194" y="359" width="77" height="20" rx="10" transform="rotate(-90 194 359)" fill="#926BFF"/>
    <rect x="233" y="359" width="105" height="20" rx="10" transform="rotate(-90 233 359)" fill="#7962FF"/>
    <rect x="271" y="359" width="89" height="20" rx="10" transform="rotate(-90 271 359)" fill="#926BFF"/>
    <path d="M90.0345 184.325C88.8136 184.317 87.6352 184.112 86.4993 183.71C85.3711 183.308 84.3589 182.655 83.4625 181.751C82.5661 180.847 81.8552 179.65 81.3298 178.158C80.812 176.667 80.5532 174.835 80.5532 172.664C80.5609 170.67 80.7889 168.889 81.237 167.321C81.693 165.744 82.342 164.407 83.1843 163.31C84.0343 162.213 85.0505 161.378 86.2327 160.807C87.415 160.227 88.7402 159.937 90.2084 159.937C91.7925 159.937 93.1911 160.246 94.4043 160.865C95.6175 161.475 96.5911 162.306 97.3252 163.357C98.067 164.408 98.5152 165.586 98.6698 166.892H93.7205C93.5273 166.065 93.1216 165.416 92.5034 164.945C91.8852 164.473 91.1202 164.238 90.2084 164.238C88.663 164.238 87.4884 164.91 86.6848 166.254C85.8889 167.599 85.4832 169.426 85.4677 171.737H85.63C85.9855 171.034 86.4645 170.435 87.0673 169.94C87.6777 169.438 88.3693 169.055 89.142 168.793C89.9225 168.522 90.7455 168.387 91.6109 168.387C93.0173 168.387 94.2691 168.719 95.3664 169.384C96.4636 170.041 97.3291 170.945 97.9627 172.096C98.5964 173.247 98.9132 174.565 98.9132 176.049C98.9132 177.656 98.5384 179.085 97.7889 180.337C97.047 181.589 96.0077 182.57 94.6709 183.281C93.3418 183.985 91.7964 184.332 90.0345 184.325ZM90.0114 180.384C90.7841 180.384 91.4757 180.198 92.0861 179.827C92.6966 179.456 93.1757 178.954 93.5234 178.32C93.8711 177.687 94.045 176.976 94.045 176.188C94.045 175.4 93.8711 174.692 93.5234 174.067C93.1834 173.441 92.712 172.942 92.1093 172.571C91.5066 172.2 90.8189 172.015 90.0461 172.015C89.4666 172.015 88.9295 172.123 88.435 172.34C87.9482 172.556 87.5193 172.857 87.1484 173.244C86.7852 173.63 86.4993 174.078 86.2907 174.588C86.082 175.09 85.9777 175.627 85.9777 176.199C85.9777 176.964 86.1516 177.664 86.4993 178.297C86.8548 178.931 87.3339 179.437 87.9366 179.816C88.547 180.194 89.2386 180.384 90.0114 180.384ZM103.41 184L113.251 164.527V164.365H101.788V160.262H118.444V164.423L108.592 184H103.41ZM130.154 159.937C131.374 159.937 132.549 160.142 133.677 160.552C134.813 160.961 135.825 161.614 136.714 162.51C137.61 163.407 138.317 164.597 138.835 166.08C139.361 167.556 139.627 169.368 139.635 171.517C139.635 173.533 139.407 175.334 138.951 176.918C138.503 178.494 137.858 179.835 137.015 180.94C136.173 182.045 135.157 182.887 133.967 183.467C132.777 184.039 131.448 184.325 129.98 184.325C128.396 184.325 126.997 184.019 125.784 183.409C124.571 182.791 123.593 181.952 122.851 180.894C122.117 179.827 121.673 178.63 121.518 177.3H126.468C126.661 178.166 127.067 178.838 127.685 179.317C128.303 179.789 129.068 180.024 129.98 180.024C131.525 180.024 132.7 179.352 133.503 178.008C134.307 176.655 134.713 174.805 134.72 172.455H134.558C134.203 173.151 133.724 173.75 133.121 174.252C132.518 174.747 131.827 175.129 131.046 175.4C130.273 175.67 129.45 175.805 128.577 175.805C127.179 175.805 125.931 175.477 124.833 174.82C123.736 174.163 122.871 173.259 122.237 172.108C121.603 170.956 121.287 169.643 121.287 168.167C121.279 166.575 121.646 165.157 122.388 163.913C123.129 162.669 124.165 161.695 125.494 160.992C126.831 160.281 128.384 159.93 130.154 159.937ZM130.188 163.878C129.408 163.878 128.712 164.064 128.102 164.435C127.499 164.805 127.02 165.304 126.665 165.93C126.317 166.556 126.147 167.255 126.155 168.028C126.155 168.808 126.325 169.511 126.665 170.137C127.012 170.755 127.484 171.25 128.079 171.621C128.682 171.984 129.369 172.166 130.142 172.166C130.722 172.166 131.259 172.057 131.753 171.841C132.248 171.625 132.677 171.327 133.04 170.949C133.411 170.562 133.7 170.118 133.909 169.616C134.118 169.113 134.222 168.58 134.222 168.016C134.214 167.267 134.037 166.579 133.689 165.953C133.341 165.327 132.862 164.825 132.252 164.446C131.641 164.067 130.953 163.878 130.188 163.878Z" fill="#343434"/>
    <rect x="79" y="194.48" width="68" height="27.6571" rx="3.88571" fill="#17C813" fill-opacity="0.15"/>
    <path d="M93.008 211.587V203.771H94.984V211.587H93.008ZM90.0882 208.667V206.691H97.9038V208.667H90.0882ZM104.323 213.463C103.543 213.463 102.847 213.32 102.237 213.033C101.629 212.746 101.147 212.35 100.79 211.846C100.434 211.342 100.248 210.764 100.233 210.113H102.551C102.577 210.551 102.761 210.906 103.103 211.178C103.445 211.45 103.852 211.587 104.323 211.587C104.698 211.587 105.029 211.504 105.316 211.338C105.607 211.169 105.833 210.935 105.995 210.637C106.161 210.335 106.244 209.99 106.244 209.6C106.244 209.202 106.159 208.853 105.99 208.551C105.824 208.249 105.594 208.014 105.3 207.844C105.006 207.675 104.669 207.589 104.29 207.585C103.959 207.585 103.637 207.653 103.324 207.789C103.015 207.925 102.774 208.111 102.601 208.347L100.476 207.966L101.011 202.005H107.922V203.959H102.982L102.689 206.79H102.755C102.954 206.51 103.254 206.279 103.655 206.095C104.056 205.911 104.505 205.819 105.002 205.819C105.683 205.819 106.29 205.979 106.823 206.299C107.357 206.619 107.778 207.059 108.087 207.618C108.396 208.174 108.549 208.814 108.545 209.539C108.549 210.3 108.372 210.978 108.015 211.57C107.662 212.159 107.167 212.622 106.531 212.961C105.898 213.296 105.162 213.463 104.323 213.463ZM111.244 213.452C110.88 213.452 110.567 213.323 110.306 213.066C110.048 212.804 109.92 212.492 109.92 212.127C109.92 211.767 110.048 211.458 110.306 211.2C110.567 210.943 110.88 210.814 111.244 210.814C111.598 210.814 111.907 210.943 112.172 211.2C112.437 211.458 112.569 211.767 112.569 212.127C112.569 212.37 112.507 212.593 112.381 212.795C112.26 212.994 112.1 213.154 111.901 213.275C111.703 213.393 111.484 213.452 111.244 213.452ZM118.36 213.463C117.779 213.459 117.218 213.362 116.677 213.171C116.14 212.979 115.658 212.668 115.231 212.238C114.804 211.807 114.465 211.237 114.215 210.527C113.969 209.817 113.845 208.945 113.845 207.911C113.849 206.961 113.958 206.113 114.171 205.366C114.388 204.615 114.697 203.979 115.098 203.456C115.503 202.934 115.987 202.536 116.55 202.264C117.113 201.988 117.744 201.85 118.443 201.85C119.198 201.85 119.864 201.997 120.441 202.292C121.019 202.582 121.483 202.978 121.832 203.478C122.185 203.979 122.399 204.54 122.472 205.162H120.116C120.024 204.768 119.83 204.459 119.536 204.235C119.242 204.01 118.877 203.898 118.443 203.898C117.707 203.898 117.148 204.218 116.765 204.858C116.386 205.499 116.193 206.369 116.186 207.469H116.263C116.432 207.134 116.66 206.849 116.947 206.613C117.238 206.374 117.567 206.192 117.935 206.067C118.307 205.938 118.699 205.874 119.111 205.874C119.781 205.874 120.377 206.032 120.899 206.349C121.422 206.661 121.834 207.092 122.136 207.64C122.437 208.188 122.588 208.816 122.588 209.522C122.588 210.288 122.41 210.968 122.053 211.564C121.7 212.161 121.205 212.628 120.568 212.966C119.935 213.301 119.199 213.467 118.36 213.463ZM118.349 211.587C118.717 211.587 119.047 211.498 119.337 211.322C119.628 211.145 119.856 210.906 120.022 210.604C120.187 210.302 120.27 209.964 120.27 209.588C120.27 209.213 120.187 208.876 120.022 208.578C119.86 208.28 119.635 208.043 119.348 207.866C119.061 207.69 118.734 207.601 118.366 207.601C118.09 207.601 117.834 207.653 117.599 207.756C117.367 207.859 117.163 208.003 116.986 208.187C116.813 208.37 116.677 208.584 116.578 208.827C116.478 209.066 116.429 209.322 116.429 209.594C116.429 209.958 116.511 210.291 116.677 210.593C116.846 210.895 117.074 211.136 117.361 211.316C117.652 211.496 117.981 211.587 118.349 211.587ZM130.47 211.189V210.593C130.47 210.14 130.566 209.725 130.757 209.346C130.952 208.963 131.234 208.658 131.602 208.429C131.973 208.198 132.426 208.082 132.959 208.082C133.5 208.082 133.955 208.196 134.323 208.424C134.694 208.652 134.974 208.957 135.162 209.34C135.353 209.719 135.449 210.137 135.449 210.593V211.189C135.449 211.642 135.353 212.059 135.162 212.442C134.97 212.821 134.689 213.125 134.317 213.353C133.946 213.585 133.493 213.7 132.959 213.7C132.418 213.7 131.964 213.585 131.596 213.353C131.228 213.125 130.948 212.821 130.757 212.442C130.566 212.059 130.47 211.642 130.47 211.189ZM132.076 210.593V211.189C132.076 211.45 132.139 211.697 132.264 211.929C132.393 212.161 132.625 212.276 132.959 212.276C133.294 212.276 133.522 212.162 133.644 211.934C133.769 211.706 133.831 211.458 133.831 211.189V210.593C133.831 210.324 133.773 210.074 133.655 209.842C133.537 209.611 133.305 209.495 132.959 209.495C132.628 209.495 132.398 209.611 132.269 209.842C132.141 210.074 132.076 210.324 132.076 210.593ZM124.669 204.72V204.124C124.669 203.668 124.767 203.25 124.962 202.871C125.157 202.489 125.438 202.183 125.806 201.955C126.178 201.727 126.627 201.613 127.153 201.613C127.697 201.613 128.154 201.727 128.522 201.955C128.89 202.183 129.169 202.489 129.361 202.871C129.552 203.25 129.648 203.668 129.648 204.124V204.72C129.648 205.177 129.55 205.594 129.355 205.973C129.164 206.352 128.882 206.656 128.511 206.884C128.143 207.108 127.69 207.221 127.153 207.221C126.616 207.221 126.161 207.107 125.79 206.878C125.422 206.647 125.142 206.343 124.951 205.968C124.763 205.589 124.669 205.173 124.669 204.72ZM126.286 204.124V204.72C126.286 204.989 126.349 205.237 126.474 205.465C126.603 205.694 126.829 205.808 127.153 205.808C127.491 205.808 127.721 205.694 127.843 205.465C127.968 205.237 128.031 204.989 128.031 204.72V204.124C128.031 203.856 127.972 203.605 127.854 203.374C127.736 203.142 127.502 203.026 127.153 203.026C126.825 203.026 126.599 203.144 126.474 203.379C126.349 203.615 126.286 203.863 126.286 204.124ZM125.398 213.309L133.169 202.005H134.615L126.844 213.309H125.398Z" fill="#17C813"/>
    <path d="M96.5568 78.2727C96.5568 80.1761 96.196 81.7955 95.4744 83.1307C94.7585 84.4659 93.7813 85.4858 92.5426 86.1903C91.3097 86.8892 89.9233 87.2386 88.3835 87.2386C86.8324 87.2386 85.4403 86.8864 84.2074 86.1818C82.9744 85.4773 82 84.4574 81.2841 83.1222C80.5682 81.7869 80.2102 80.1705 80.2102 78.2727C80.2102 76.3693 80.5682 74.75 81.2841 73.4148C82 72.0795 82.9744 71.0625 84.2074 70.3636C85.4403 69.6591 86.8324 69.3068 88.3835 69.3068C89.9233 69.3068 91.3097 69.6591 92.5426 70.3636C93.7813 71.0625 94.7585 72.0795 95.4744 73.4148C96.196 74.75 96.5568 76.3693 96.5568 78.2727ZM92.8153 78.2727C92.8153 77.0398 92.6307 76 92.2614 75.1534C91.8977 74.3068 91.3835 73.6648 90.7188 73.2273C90.054 72.7898 89.2756 72.571 88.3835 72.571C87.4915 72.571 86.7131 72.7898 86.0483 73.2273C85.3835 73.6648 84.8665 74.3068 84.4972 75.1534C84.1335 76 83.9517 77.0398 83.9517 78.2727C83.9517 79.5057 84.1335 80.5455 84.4972 81.392C84.8665 82.2386 85.3835 82.8807 86.0483 83.3182C86.7131 83.7557 87.4915 83.9744 88.3835 83.9744C89.2756 83.9744 90.054 83.7557 90.7188 83.3182C91.3835 82.8807 91.8977 82.2386 92.2614 81.392C92.6307 80.5455 92.8153 79.5057 92.8153 78.2727ZM102.853 79.4318V87H99.2223V73.9091H102.683V76.2188H102.836C103.126 75.4574 103.612 74.8551 104.293 74.4119C104.975 73.9631 105.802 73.7386 106.773 73.7386C107.683 73.7386 108.475 73.9375 109.151 74.3352C109.827 74.733 110.353 75.3011 110.728 76.0398C111.103 76.7727 111.29 77.6477 111.29 78.6648V87H107.66V79.3125C107.665 78.5114 107.461 77.8864 107.046 77.4375C106.631 76.983 106.06 76.7557 105.333 76.7557C104.844 76.7557 104.413 76.8608 104.038 77.071C103.668 77.2812 103.379 77.5881 103.168 77.9915C102.964 78.3892 102.859 78.8693 102.853 79.4318ZM117.783 69.5455V87H114.152V69.5455H117.783ZM120.691 87V73.9091H124.322V87H120.691ZM122.515 72.2216C121.975 72.2216 121.512 72.0426 121.126 71.6847C120.745 71.321 120.555 70.8864 120.555 70.3807C120.555 69.8807 120.745 69.4517 121.126 69.0938C121.512 68.7301 121.975 68.5483 122.515 68.5483C123.055 68.5483 123.515 68.7301 123.896 69.0938C124.282 69.4517 124.475 69.8807 124.475 70.3807C124.475 70.8864 124.282 71.321 123.896 71.6847C123.515 72.0426 123.055 72.2216 122.515 72.2216ZM130.861 79.4318V87H127.23V73.9091H130.69V76.2188H130.844C131.134 75.4574 131.619 74.8551 132.301 74.4119C132.983 73.9631 133.81 73.7386 134.781 73.7386C135.69 73.7386 136.483 73.9375 137.159 74.3352C137.835 74.733 138.361 75.3011 138.736 76.0398C139.111 76.7727 139.298 77.6477 139.298 78.6648V87H135.668V79.3125C135.673 78.5114 135.469 77.8864 135.054 77.4375C134.639 76.983 134.068 76.7557 133.341 76.7557C132.852 76.7557 132.42 76.8608 132.045 77.071C131.676 77.2812 131.386 77.5881 131.176 77.9915C130.972 78.3892 130.866 78.8693 130.861 79.4318ZM148.126 87.2557C146.779 87.2557 145.62 86.983 144.648 86.4375C143.683 85.8864 142.938 85.108 142.415 84.1023C141.893 83.0909 141.631 81.8949 141.631 80.5142C141.631 79.1676 141.893 77.9858 142.415 76.9688C142.938 75.9517 143.674 75.1591 144.623 74.5909C145.577 74.0227 146.697 73.7386 147.981 73.7386C148.844 73.7386 149.648 73.8778 150.393 74.1562C151.143 74.429 151.796 74.8409 152.353 75.392C152.915 75.9432 153.353 76.6364 153.665 77.4716C153.978 78.3011 154.134 79.2727 154.134 80.3864V81.3835H143.08V79.1335H150.717C150.717 78.6108 150.603 78.1477 150.376 77.7443C150.148 77.3409 149.833 77.0256 149.43 76.7983C149.032 76.5653 148.569 76.4489 148.04 76.4489C147.489 76.4489 147.001 76.5767 146.575 76.8324C146.154 77.0824 145.825 77.4205 145.586 77.8466C145.347 78.267 145.225 78.7358 145.219 79.2528V81.392C145.219 82.0398 145.339 82.5994 145.577 83.071C145.822 83.5426 146.165 83.9062 146.609 84.1619C147.052 84.4176 147.577 84.5455 148.185 84.5455C148.589 84.5455 148.958 84.4886 149.293 84.375C149.629 84.2614 149.915 84.0909 150.154 83.8636C150.393 83.6364 150.575 83.358 150.7 83.0284L154.058 83.25C153.887 84.0568 153.538 84.7614 153.009 85.3636C152.487 85.9602 151.81 86.4261 150.981 86.7614C150.157 87.0909 149.205 87.2557 148.126 87.2557ZM165.28 69.5455L169.499 82.8068H169.661L173.888 69.5455H177.979L171.962 87H167.206L161.18 69.5455H165.28ZM184.501 87.2557C183.154 87.2557 181.995 86.983 181.023 86.4375C180.058 85.8864 179.313 85.108 178.79 84.1023C178.268 83.0909 178.006 81.8949 178.006 80.5142C178.006 79.1676 178.268 77.9858 178.79 76.9688C179.313 75.9517 180.049 75.1591 180.998 74.5909C181.952 74.0227 183.072 73.7386 184.356 73.7386C185.219 73.7386 186.023 73.8778 186.768 74.1562C187.518 74.429 188.171 74.8409 188.728 75.392C189.29 75.9432 189.728 76.6364 190.04 77.4716C190.353 78.3011 190.509 79.2727 190.509 80.3864V81.3835H179.455V79.1335H187.092C187.092 78.6108 186.978 78.1477 186.751 77.7443C186.523 77.3409 186.208 77.0256 185.805 76.7983C185.407 76.5653 184.944 76.4489 184.415 76.4489C183.864 76.4489 183.376 76.5767 182.95 76.8324C182.529 77.0824 182.2 77.4205 181.961 77.8466C181.722 78.267 181.6 78.7358 181.594 79.2528V81.392C181.594 82.0398 181.714 82.5994 181.952 83.071C182.197 83.5426 182.54 83.9062 182.984 84.1619C183.427 84.4176 183.952 84.5455 184.56 84.5455C184.964 84.5455 185.333 84.4886 185.668 84.375C186.004 84.2614 186.29 84.0909 186.529 83.8636C186.768 83.6364 186.95 83.358 187.075 83.0284L190.433 83.25C190.262 84.0568 189.913 84.7614 189.384 85.3636C188.862 85.9602 188.185 86.4261 187.356 86.7614C186.532 87.0909 185.58 87.2557 184.501 87.2557ZM192.879 87V73.9091H196.398V76.1932H196.535C196.773 75.3807 197.174 74.767 197.737 74.3523C198.299 73.9318 198.947 73.7216 199.68 73.7216C199.862 73.7216 200.058 73.733 200.268 73.7557C200.478 73.7784 200.663 73.8097 200.822 73.8494V77.071C200.651 77.0199 200.415 76.9744 200.114 76.9347C199.813 76.8949 199.538 76.875 199.288 76.875C198.754 76.875 198.276 76.9915 197.856 77.2244C197.441 77.4517 197.112 77.7699 196.867 78.179C196.629 78.5881 196.509 79.0597 196.509 79.5938V87H192.879ZM205.989 83.233L205.997 78.8778H206.526L210.719 73.9091H214.886L209.253 80.4886H208.392L205.989 83.233ZM202.699 87V69.5455H206.33V87H202.699ZM210.881 87L207.028 81.2983L209.449 78.733L215.134 87H210.881ZM222.043 87.2557C220.719 87.2557 219.575 86.9744 218.609 86.4119C217.648 85.8437 216.907 85.054 216.384 84.0426C215.862 83.0256 215.6 81.8466 215.6 80.5057C215.6 79.1534 215.862 77.9716 216.384 76.9602C216.907 75.9432 217.648 75.1534 218.609 74.5909C219.575 74.0227 220.719 73.7386 222.043 73.7386C223.367 73.7386 224.509 74.0227 225.469 74.5909C226.435 75.1534 227.18 75.9432 227.702 76.9602C228.225 77.9716 228.487 79.1534 228.487 80.5057C228.487 81.8466 228.225 83.0256 227.702 84.0426C227.18 85.054 226.435 85.8437 225.469 86.4119C224.509 86.9744 223.367 87.2557 222.043 87.2557ZM222.06 84.4432C222.663 84.4432 223.165 84.2727 223.569 83.9318C223.972 83.5852 224.276 83.1136 224.481 82.517C224.691 81.9205 224.796 81.2415 224.796 80.4801C224.796 79.7188 224.691 79.0398 224.481 78.4432C224.276 77.8466 223.972 77.375 223.569 77.0284C223.165 76.6818 222.663 76.5085 222.06 76.5085C221.452 76.5085 220.941 76.6818 220.526 77.0284C220.117 77.375 219.808 77.8466 219.597 78.4432C219.393 79.0398 219.29 79.7188 219.29 80.4801C219.29 81.2415 219.393 81.9205 219.597 82.517C219.808 83.1136 220.117 83.5852 220.526 83.9318C220.941 84.2727 221.452 84.4432 222.06 84.4432ZM230.847 91.9091V73.9091H234.427V76.108H234.589C234.748 75.7557 234.978 75.3977 235.279 75.0341C235.586 74.6648 235.984 74.358 236.472 74.1136C236.967 73.8636 237.58 73.7386 238.313 73.7386C239.268 73.7386 240.148 73.9886 240.955 74.4886C241.762 74.983 242.407 75.7301 242.89 76.7301C243.373 77.7244 243.614 78.9716 243.614 80.4716C243.614 81.9318 243.379 83.1648 242.907 84.1705C242.441 85.1705 241.805 85.929 240.998 86.446C240.197 86.9574 239.299 87.2131 238.305 87.2131C237.6 87.2131 237.001 87.0966 236.506 86.8636C236.018 86.6307 235.617 86.3381 235.305 85.9858C234.992 85.6278 234.754 85.267 234.589 84.9034H234.478V91.9091H230.847ZM234.401 80.4545C234.401 81.233 234.509 81.9119 234.725 82.4915C234.941 83.071 235.254 83.5227 235.663 83.8466C236.072 84.1648 236.569 84.3239 237.154 84.3239C237.745 84.3239 238.245 84.1619 238.654 83.8381C239.063 83.5085 239.373 83.054 239.583 82.4744C239.799 81.8892 239.907 81.2159 239.907 80.4545C239.907 79.6989 239.802 79.0341 239.592 78.4602C239.381 77.8864 239.072 77.4375 238.663 77.1136C238.254 76.7898 237.751 76.6278 237.154 76.6278C236.563 76.6278 236.063 76.7841 235.654 77.0966C235.251 77.4091 234.941 77.8523 234.725 78.4261C234.509 79 234.401 79.6761 234.401 80.4545ZM252.001 87.2557C250.654 87.2557 249.495 86.983 248.523 86.4375C247.558 85.8864 246.813 85.108 246.29 84.1023C245.768 83.0909 245.506 81.8949 245.506 80.5142C245.506 79.1676 245.768 77.9858 246.29 76.9688C246.813 75.9517 247.549 75.1591 248.498 74.5909C249.452 74.0227 250.572 73.7386 251.856 73.7386C252.719 73.7386 253.523 73.8778 254.268 74.1562C255.018 74.429 255.671 74.8409 256.228 75.392C256.79 75.9432 257.228 76.6364 257.54 77.4716C257.853 78.3011 258.009 79.2727 258.009 80.3864V81.3835H246.955V79.1335H254.592C254.592 78.6108 254.478 78.1477 254.251 77.7443C254.023 77.3409 253.708 77.0256 253.305 76.7983C252.907 76.5653 252.444 76.4489 251.915 76.4489C251.364 76.4489 250.876 76.5767 250.45 76.8324C250.029 77.0824 249.7 77.4205 249.461 77.8466C249.222 78.267 249.1 78.7358 249.094 79.2528V81.392C249.094 82.0398 249.214 82.5994 249.452 83.071C249.697 83.5426 250.04 83.9062 250.484 84.1619C250.927 84.4176 251.452 84.5455 252.06 84.5455C252.464 84.5455 252.833 84.4886 253.168 84.375C253.504 84.2614 253.79 84.0909 254.029 83.8636C254.268 83.6364 254.45 83.358 254.575 83.0284L257.933 83.25C257.762 84.0568 257.413 84.7614 256.884 85.3636C256.362 85.9602 255.685 86.4261 254.856 86.7614C254.032 87.0909 253.08 87.2557 252.001 87.2557ZM264.009 79.4318V87H260.379V73.9091H263.839V76.2188H263.992C264.282 75.4574 264.768 74.8551 265.45 74.4119C266.131 73.9631 266.958 73.7386 267.93 73.7386C268.839 73.7386 269.631 73.9375 270.308 74.3352C270.984 74.733 271.509 75.3011 271.884 76.0398C272.259 76.7727 272.447 77.6477 272.447 78.6648V87H268.816V79.3125C268.822 78.5114 268.617 77.8864 268.202 77.4375C267.788 76.983 267.217 76.7557 266.489 76.7557C266.001 76.7557 265.569 76.8608 265.194 77.071C264.825 77.2812 264.535 77.5881 264.325 77.9915C264.12 78.3892 264.015 78.8693 264.009 79.4318Z" fill="#343434"/>
    <g filter="url(#filter1_d_3013_2632)">
        <rect x="596" y="120" width="368" height="333" rx="24" transform="rotate(90 596 120)" fill="white"/>
        <rect x="295" y="343" width="253" height="34" rx="6.43028" fill="#F3F4F6"/>
        <path d="M311.304 363.914V356.12H312.48V359.842H312.575L315.844 356.12H317.325L314.181 359.629L317.336 363.914H315.92L313.401 360.432L312.48 361.49V363.914H311.304ZM320.363 364.032C319.815 364.032 319.336 363.906 318.928 363.655C318.519 363.404 318.202 363.053 317.976 362.601C317.751 362.149 317.638 361.622 317.638 361.018C317.638 360.411 317.751 359.881 317.976 359.427C318.202 358.973 318.519 358.62 318.928 358.369C319.336 358.118 319.815 357.992 320.363 357.992C320.911 357.992 321.389 358.118 321.798 358.369C322.206 358.62 322.523 358.973 322.749 359.427C322.975 359.881 323.088 360.411 323.088 361.018C323.088 361.622 322.975 362.149 322.749 362.601C322.523 363.053 322.206 363.404 321.798 363.655C321.389 363.906 320.911 364.032 320.363 364.032ZM320.367 363.077C320.722 363.077 321.016 362.983 321.249 362.795C321.483 362.607 321.655 362.357 321.767 362.045C321.881 361.733 321.938 361.39 321.938 361.014C321.938 360.641 321.881 360.299 321.767 359.986C321.655 359.672 321.483 359.419 321.249 359.229C321.016 359.039 320.722 358.944 320.367 358.944C320.009 358.944 319.712 359.039 319.476 359.229C319.243 359.419 319.069 359.672 318.955 359.986C318.843 360.299 318.787 360.641 318.787 361.014C318.787 361.39 318.843 361.733 318.955 362.045C319.069 362.357 319.243 362.607 319.476 362.795C319.712 362.983 320.009 363.077 320.367 363.077ZM324.358 363.914V358.068H325.458V358.997H325.519C325.625 358.682 325.813 358.435 326.082 358.255C326.353 358.072 326.66 357.981 327.003 357.981C327.074 357.981 327.158 357.983 327.254 357.988C327.353 357.994 327.43 358 327.486 358.007V359.096C327.441 359.083 327.359 359.069 327.243 359.054C327.126 359.036 327.009 359.027 326.893 359.027C326.624 359.027 326.384 359.085 326.173 359.199C325.965 359.31 325.8 359.466 325.678 359.667C325.557 359.865 325.496 360.091 325.496 360.344V363.914H324.358ZM331.545 358.068V358.982H328.352V358.068H331.545ZM329.208 356.668H330.346V362.198C330.346 362.418 330.379 362.585 330.445 362.696C330.511 362.805 330.596 362.88 330.7 362.921C330.807 362.959 330.922 362.978 331.047 362.978C331.138 362.978 331.218 362.971 331.286 362.959C331.355 362.946 331.408 362.936 331.446 362.928L331.652 363.868C331.586 363.894 331.492 363.919 331.37 363.945C331.248 363.972 331.096 363.988 330.913 363.99C330.614 363.995 330.335 363.942 330.076 363.83C329.817 363.719 329.608 363.546 329.448 363.313C329.288 363.079 329.208 362.786 329.208 362.434V356.668ZM332.804 363.914V358.068H333.942V363.914H332.804ZM333.379 357.166C333.181 357.166 333.011 357.1 332.869 356.968C332.729 356.834 332.659 356.674 332.659 356.489C332.659 356.301 332.729 356.141 332.869 356.009C333.011 355.875 333.181 355.808 333.379 355.808C333.576 355.808 333.745 355.875 333.885 356.009C334.027 356.141 334.098 356.301 334.098 356.489C334.098 356.674 334.027 356.834 333.885 356.968C333.745 357.1 333.576 357.166 333.379 357.166ZM336.611 360.443V363.914H335.473V358.068H336.565V359.02H336.637C336.772 358.71 336.982 358.462 337.269 358.274C337.558 358.086 337.922 357.992 338.361 357.992C338.76 357.992 339.109 358.076 339.408 358.243C339.707 358.408 339.939 358.654 340.104 358.982C340.269 359.309 340.352 359.714 340.352 360.196V363.914H339.214V360.333C339.214 359.909 339.103 359.578 338.883 359.339C338.662 359.098 338.359 358.978 337.973 358.978C337.709 358.978 337.475 359.035 337.269 359.149C337.066 359.263 336.905 359.431 336.786 359.652C336.669 359.87 336.611 360.134 336.611 360.443ZM344.329 366.228C343.865 366.228 343.465 366.167 343.13 366.045C342.798 365.924 342.526 365.762 342.316 365.562C342.105 365.362 341.948 365.142 341.844 364.904L342.822 364.5C342.89 364.612 342.982 364.73 343.096 364.854C343.212 364.981 343.37 365.089 343.568 365.178C343.768 365.266 344.026 365.311 344.34 365.311C344.772 365.311 345.128 365.205 345.41 364.995C345.691 364.787 345.832 364.454 345.832 363.998V362.848H345.76C345.691 362.973 345.592 363.111 345.463 363.263C345.336 363.416 345.161 363.547 344.938 363.659C344.714 363.771 344.424 363.827 344.066 363.827C343.604 363.827 343.188 363.719 342.818 363.503C342.45 363.285 342.158 362.964 341.943 362.54C341.729 362.114 341.623 361.59 341.623 360.968C341.623 360.347 341.728 359.814 341.939 359.37C342.152 358.926 342.444 358.586 342.814 358.35C343.185 358.111 343.604 357.992 344.074 357.992C344.437 357.992 344.73 358.053 344.953 358.175C345.176 358.294 345.35 358.434 345.474 358.594C345.601 358.753 345.699 358.894 345.767 359.016H345.851V358.068H346.966V364.043C346.966 364.546 346.85 364.958 346.616 365.28C346.383 365.603 346.067 365.841 345.668 365.996C345.273 366.151 344.826 366.228 344.329 366.228ZM344.317 362.883C344.645 362.883 344.921 362.807 345.147 362.654C345.375 362.5 345.548 362.279 345.665 361.992C345.784 361.703 345.844 361.357 345.844 360.953C345.844 360.56 345.785 360.214 345.668 359.914C345.552 359.615 345.38 359.381 345.155 359.214C344.929 359.044 344.65 358.959 344.317 358.959C343.975 358.959 343.689 359.048 343.461 359.225C343.233 359.4 343.06 359.639 342.943 359.941C342.829 360.243 342.772 360.58 342.772 360.953C342.772 361.336 342.831 361.672 342.947 361.962C343.064 362.251 343.237 362.477 343.465 362.639C343.696 362.802 343.98 362.883 344.317 362.883ZM352.873 359.496L351.841 359.678C351.798 359.546 351.73 359.421 351.636 359.301C351.545 359.182 351.42 359.085 351.263 359.008C351.106 358.932 350.909 358.894 350.673 358.894C350.351 358.894 350.082 358.967 349.866 359.111C349.651 359.253 349.543 359.437 349.543 359.663C349.543 359.858 349.615 360.016 349.76 360.135C349.904 360.254 350.138 360.352 350.46 360.428L351.389 360.641C351.926 360.765 352.327 360.957 352.591 361.216C352.855 361.475 352.987 361.811 352.987 362.224C352.987 362.574 352.886 362.886 352.683 363.161C352.482 363.432 352.202 363.645 351.841 363.8C351.484 363.955 351.069 364.032 350.597 364.032C349.942 364.032 349.408 363.892 348.995 363.613C348.581 363.332 348.327 362.932 348.234 362.415L349.333 362.247C349.402 362.534 349.543 362.751 349.756 362.898C349.969 363.043 350.247 363.115 350.589 363.115C350.962 363.115 351.26 363.037 351.484 362.883C351.707 362.725 351.819 362.534 351.819 362.308C351.819 362.125 351.75 361.972 351.613 361.848C351.479 361.723 351.272 361.629 350.993 361.566L350.003 361.349C349.458 361.225 349.054 361.027 348.793 360.755C348.534 360.484 348.405 360.14 348.405 359.724C348.405 359.379 348.501 359.077 348.694 358.818C348.887 358.559 349.153 358.358 349.493 358.213C349.833 358.066 350.223 357.992 350.662 357.992C351.293 357.992 351.791 358.129 352.154 358.403C352.516 358.675 352.756 359.039 352.873 359.496ZM359.537 364.032C358.971 364.032 358.484 363.904 358.075 363.648C357.669 363.389 357.357 363.032 357.139 362.578C356.921 362.124 356.812 361.604 356.812 361.018C356.812 360.424 356.923 359.9 357.147 359.446C357.37 358.989 357.685 358.633 358.091 358.377C358.497 358.12 358.975 357.992 359.525 357.992C359.969 357.992 360.365 358.075 360.713 358.24C361.06 358.402 361.341 358.63 361.554 358.925C361.77 359.219 361.898 359.563 361.938 359.956H360.831C360.77 359.682 360.63 359.446 360.412 359.248C360.196 359.05 359.907 358.951 359.544 358.951C359.227 358.951 358.949 359.035 358.711 359.202C358.475 359.367 358.291 359.603 358.159 359.91C358.027 360.215 357.961 360.575 357.961 360.991C357.961 361.417 358.026 361.785 358.155 362.095C358.285 362.404 358.467 362.644 358.703 362.814C358.942 362.984 359.222 363.069 359.544 363.069C359.76 363.069 359.955 363.03 360.13 362.951C360.308 362.87 360.457 362.755 360.576 362.605C360.698 362.455 360.783 362.275 360.831 362.064H361.938C361.898 362.442 361.775 362.78 361.569 363.077C361.364 363.374 361.088 363.607 360.743 363.777C360.401 363.947 359.999 364.032 359.537 364.032ZM365.618 364.032C365.069 364.032 364.591 363.906 364.183 363.655C363.774 363.404 363.457 363.053 363.231 362.601C363.005 362.149 362.893 361.622 362.893 361.018C362.893 360.411 363.005 359.881 363.231 359.427C363.457 358.973 363.774 358.62 364.183 358.369C364.591 358.118 365.069 357.992 365.618 357.992C366.166 357.992 366.644 358.118 367.052 358.369C367.461 358.62 367.778 358.973 368.004 359.427C368.23 359.881 368.342 360.411 368.342 361.018C368.342 361.622 368.23 362.149 368.004 362.601C367.778 363.053 367.461 363.404 367.052 363.655C366.644 363.906 366.166 364.032 365.618 364.032ZM365.621 363.077C365.977 363.077 366.271 362.983 366.504 362.795C366.738 362.607 366.91 362.357 367.022 362.045C367.136 361.733 367.193 361.39 367.193 361.014C367.193 360.641 367.136 360.299 367.022 359.986C366.91 359.672 366.738 359.419 366.504 359.229C366.271 359.039 365.977 358.944 365.621 358.944C365.264 358.944 364.967 359.039 364.731 359.229C364.497 359.419 364.324 359.672 364.209 359.986C364.098 360.299 364.042 360.641 364.042 361.014C364.042 361.39 364.098 361.733 364.209 362.045C364.324 362.357 364.497 362.607 364.731 362.795C364.967 362.983 365.264 363.077 365.621 363.077ZM371.801 364.028C371.329 364.028 370.908 363.908 370.537 363.667C370.17 363.423 369.88 363.077 369.67 362.628C369.462 362.176 369.358 361.634 369.358 361.003C369.358 360.371 369.463 359.83 369.674 359.381C369.887 358.932 370.178 358.588 370.549 358.35C370.919 358.111 371.339 357.992 371.809 357.992C372.171 357.992 372.463 358.053 372.684 358.175C372.907 358.294 373.08 358.434 373.202 358.594C373.326 358.753 373.422 358.894 373.491 359.016H373.559V356.12H374.697V363.914H373.586V363.004H373.491C373.422 363.129 373.323 363.271 373.194 363.431C373.067 363.591 372.892 363.73 372.669 363.849C372.445 363.969 372.156 364.028 371.801 364.028ZM372.052 363.058C372.379 363.058 372.656 362.971 372.882 362.799C373.11 362.624 373.283 362.382 373.399 362.072C373.519 361.763 373.578 361.402 373.578 360.991C373.578 360.585 373.52 360.23 373.403 359.926C373.287 359.621 373.115 359.384 372.889 359.214C372.664 359.044 372.385 358.959 372.052 358.959C371.71 358.959 371.424 359.048 371.196 359.225C370.968 359.403 370.795 359.645 370.678 359.952C370.564 360.259 370.507 360.606 370.507 360.991C370.507 361.382 370.565 361.733 370.682 362.045C370.799 362.357 370.971 362.605 371.2 362.788C371.431 362.968 371.715 363.058 372.052 363.058ZM378.841 364.032C378.265 364.032 377.769 363.909 377.353 363.663C376.939 363.414 376.619 363.065 376.394 362.616C376.17 362.165 376.059 361.636 376.059 361.029C376.059 360.43 376.17 359.903 376.394 359.446C376.619 358.989 376.934 358.633 377.337 358.377C377.743 358.12 378.218 357.992 378.761 357.992C379.091 357.992 379.41 358.047 379.72 358.156C380.029 358.265 380.307 358.436 380.553 358.67C380.799 358.903 380.994 359.206 381.136 359.579C381.278 359.95 381.349 360.4 381.349 360.93V361.334H376.702V360.481H380.234C380.234 360.182 380.173 359.917 380.051 359.686C379.929 359.452 379.758 359.268 379.537 359.134C379.319 359 379.063 358.932 378.768 358.932C378.449 358.932 378.17 359.011 377.931 359.168C377.695 359.323 377.513 359.526 377.383 359.777C377.256 360.026 377.193 360.296 377.193 360.588V361.254C377.193 361.645 377.261 361.977 377.398 362.251C377.538 362.525 377.732 362.734 377.981 362.879C378.229 363.021 378.52 363.092 378.852 363.092C379.068 363.092 379.264 363.062 379.442 363.001C379.62 362.937 379.773 362.843 379.903 362.719C380.032 362.595 380.131 362.441 380.199 362.259L381.276 362.453C381.19 362.77 381.035 363.048 380.812 363.286C380.591 363.522 380.314 363.706 379.979 363.838C379.646 363.967 379.267 364.032 378.841 364.032Z" fill="#343434"/>
        <path d="M496.525 363.914V356.12H501.412V357.132H497.701V359.507H501.157V360.515H497.701V362.902H501.457V363.914H496.525ZM509.273 356.12V363.914H508.193L504.231 358.198H504.158V363.914H502.982V356.12H504.071L508.037 361.844H508.109V356.12H509.273ZM510.605 357.132V356.12H516.637V357.132H514.205V363.914H513.033V357.132H510.605ZM517.97 363.914V356.12H522.856V357.132H519.146V359.507H522.601V360.515H519.146V362.902H522.902V363.914H517.97ZM524.427 363.914V356.12H527.205C527.809 356.12 528.31 356.224 528.709 356.432C529.11 356.64 529.409 356.928 529.607 357.296C529.805 357.661 529.904 358.084 529.904 358.563C529.904 359.04 529.803 359.46 529.603 359.823C529.405 360.183 529.106 360.463 528.705 360.664C528.307 360.864 527.805 360.965 527.202 360.965H525.097V359.952H527.095C527.476 359.952 527.785 359.898 528.024 359.789C528.265 359.679 528.441 359.521 528.553 359.313C528.664 359.105 528.72 358.855 528.72 358.563C528.72 358.269 528.663 358.014 528.549 357.798C528.437 357.582 528.261 357.418 528.02 357.303C527.781 357.187 527.468 357.128 527.08 357.128H525.603V363.914H524.427ZM528.275 360.398L530.201 363.914H528.861L526.973 360.398H528.275Z" fill="#10B981"/>
        <rect x="295" y="389" width="253" height="35" rx="6.43028" fill="#6B7280"/>
        <rect x="501" y="251.91" width="46.5924" height="13.6368" rx="6.43028" fill="#E5E7EB"/>
        <rect x="521.455" y="231.455" width="26.1372" height="13.6368" rx="6.43028" fill="#A5EB9E"/>
        <rect x="521.455" y="211" width="26.1372" height="13.6368" rx="6.43028" fill="#E5E7EB"/>
    </g>
    <rect x="400" y="228" width="101" height="20" rx="10" transform="rotate(-180 400 228)" fill="#6B7280"/>
    <rect x="454" y="259" width="155" height="20" rx="10" transform="rotate(-180 454 259)" fill="#E5E7EB"/>
    <rect x="422" y="288" width="123" height="20" rx="10" transform="rotate(-180 422 288)" fill="#E5E7EB"/>
    <path d="M303.67 155.545L307.889 168.807H308.051L312.278 155.545H316.369L310.352 173H305.597L299.571 155.545H303.67ZM322.891 173.256C321.545 173.256 320.386 172.983 319.414 172.438C318.448 171.886 317.704 171.108 317.181 170.102C316.658 169.091 316.397 167.895 316.397 166.514C316.397 165.168 316.658 163.986 317.181 162.969C317.704 161.952 318.44 161.159 319.388 160.591C320.343 160.023 321.462 159.739 322.746 159.739C323.61 159.739 324.414 159.878 325.158 160.156C325.908 160.429 326.562 160.841 327.119 161.392C327.681 161.943 328.119 162.636 328.431 163.472C328.744 164.301 328.9 165.273 328.9 166.386V167.384H317.846V165.134H325.482C325.482 164.611 325.369 164.148 325.141 163.744C324.914 163.341 324.599 163.026 324.195 162.798C323.798 162.565 323.335 162.449 322.806 162.449C322.255 162.449 321.766 162.577 321.34 162.832C320.92 163.082 320.59 163.42 320.352 163.847C320.113 164.267 319.991 164.736 319.985 165.253V167.392C319.985 168.04 320.104 168.599 320.343 169.071C320.587 169.543 320.931 169.906 321.374 170.162C321.817 170.418 322.343 170.545 322.951 170.545C323.354 170.545 323.724 170.489 324.059 170.375C324.394 170.261 324.681 170.091 324.92 169.864C325.158 169.636 325.34 169.358 325.465 169.028L328.823 169.25C328.653 170.057 328.303 170.761 327.775 171.364C327.252 171.96 326.576 172.426 325.746 172.761C324.923 173.091 323.971 173.256 322.891 173.256ZM331.269 173V159.909H334.9V173H331.269ZM333.093 158.222C332.553 158.222 332.09 158.043 331.704 157.685C331.323 157.321 331.133 156.886 331.133 156.381C331.133 155.881 331.323 155.452 331.704 155.094C332.09 154.73 332.553 154.548 333.093 154.548C333.633 154.548 334.093 154.73 334.474 155.094C334.86 155.452 335.053 155.881 335.053 156.381C335.053 156.886 334.86 157.321 334.474 157.685C334.093 158.043 333.633 158.222 333.093 158.222ZM341.439 155.545V173H337.808V155.545H341.439ZM344.347 173V159.909H347.978V173H344.347ZM346.171 158.222C345.631 158.222 345.168 158.043 344.782 157.685C344.401 157.321 344.211 156.886 344.211 156.381C344.211 155.881 344.401 155.452 344.782 155.094C345.168 154.73 345.631 154.548 346.171 154.548C346.711 154.548 347.171 154.73 347.552 155.094C347.938 155.452 348.131 155.881 348.131 156.381C348.131 156.886 347.938 157.321 347.552 157.685C347.171 158.043 346.711 158.222 346.171 158.222ZM356.784 178.182C355.608 178.182 354.599 178.02 353.759 177.696C352.923 177.378 352.259 176.943 351.764 176.392C351.27 175.841 350.949 175.222 350.801 174.534L354.159 174.082C354.261 174.344 354.423 174.588 354.645 174.815C354.866 175.043 355.159 175.224 355.523 175.361C355.892 175.503 356.341 175.574 356.869 175.574C357.659 175.574 358.31 175.381 358.821 174.994C359.338 174.614 359.597 173.974 359.597 173.077V170.682H359.443C359.284 171.045 359.045 171.389 358.727 171.713C358.409 172.037 358 172.301 357.5 172.506C357 172.71 356.403 172.812 355.71 172.812C354.727 172.812 353.832 172.585 353.026 172.131C352.224 171.67 351.585 170.969 351.108 170.026C350.636 169.077 350.401 167.878 350.401 166.429C350.401 164.946 350.642 163.707 351.125 162.713C351.608 161.719 352.25 160.974 353.051 160.48C353.858 159.986 354.741 159.739 355.702 159.739C356.435 159.739 357.048 159.864 357.543 160.114C358.037 160.358 358.435 160.665 358.736 161.034C359.043 161.398 359.278 161.756 359.443 162.108H359.58V159.909H363.185V173.128C363.185 174.241 362.912 175.173 362.366 175.923C361.821 176.673 361.065 177.236 360.099 177.611C359.139 177.991 358.034 178.182 356.784 178.182ZM356.861 170.085C357.446 170.085 357.94 169.94 358.344 169.651C358.753 169.355 359.065 168.935 359.281 168.389C359.503 167.838 359.614 167.179 359.614 166.412C359.614 165.645 359.506 164.98 359.29 164.418C359.074 163.849 358.761 163.409 358.352 163.097C357.943 162.784 357.446 162.628 356.861 162.628C356.264 162.628 355.761 162.79 355.352 163.114C354.943 163.432 354.634 163.875 354.423 164.443C354.213 165.011 354.108 165.668 354.108 166.412C354.108 167.168 354.213 167.821 354.423 168.372C354.639 168.918 354.949 169.341 355.352 169.642C355.761 169.937 356.264 170.085 356.861 170.085ZM371.697 173V155.545H378.685C379.969 155.545 381.04 155.736 381.898 156.116C382.756 156.497 383.401 157.026 383.833 157.702C384.265 158.372 384.481 159.145 384.481 160.02C384.481 160.702 384.344 161.301 384.072 161.818C383.799 162.33 383.424 162.75 382.947 163.08C382.475 163.403 381.935 163.634 381.327 163.77V163.94C381.992 163.969 382.614 164.156 383.194 164.503C383.779 164.849 384.254 165.335 384.617 165.96C384.981 166.58 385.163 167.318 385.163 168.176C385.163 169.102 384.933 169.929 384.472 170.656C384.018 171.378 383.344 171.949 382.452 172.369C381.56 172.79 380.461 173 379.154 173H371.697ZM375.387 169.983H378.396C379.424 169.983 380.174 169.787 380.646 169.395C381.117 168.997 381.353 168.469 381.353 167.81C381.353 167.327 381.237 166.901 381.004 166.531C380.771 166.162 380.438 165.872 380.006 165.662C379.58 165.452 379.072 165.347 378.481 165.347H375.387V169.983ZM375.387 162.849H378.123C378.629 162.849 379.077 162.761 379.469 162.585C379.867 162.403 380.18 162.148 380.407 161.818C380.64 161.489 380.756 161.094 380.756 160.634C380.756 160.003 380.532 159.494 380.083 159.108C379.64 158.722 379.009 158.528 378.191 158.528H375.387V162.849ZM393.462 173.256C392.115 173.256 390.956 172.983 389.984 172.438C389.018 171.886 388.274 171.108 387.751 170.102C387.229 169.091 386.967 167.895 386.967 166.514C386.967 165.168 387.229 163.986 387.751 162.969C388.274 161.952 389.01 161.159 389.959 160.591C390.913 160.023 392.033 159.739 393.317 159.739C394.18 159.739 394.984 159.878 395.729 160.156C396.479 160.429 397.132 160.841 397.689 161.392C398.251 161.943 398.689 162.636 399.001 163.472C399.314 164.301 399.47 165.273 399.47 166.386V167.384H388.416V165.134H396.053C396.053 164.611 395.939 164.148 395.712 163.744C395.484 163.341 395.169 163.026 394.766 162.798C394.368 162.565 393.905 162.449 393.376 162.449C392.825 162.449 392.337 162.577 391.911 162.832C391.49 163.082 391.161 163.42 390.922 163.847C390.683 164.267 390.561 164.736 390.555 165.253V167.392C390.555 168.04 390.675 168.599 390.913 169.071C391.158 169.543 391.501 169.906 391.945 170.162C392.388 170.418 392.913 170.545 393.521 170.545C393.925 170.545 394.294 170.489 394.629 170.375C394.964 170.261 395.251 170.091 395.49 169.864C395.729 169.636 395.911 169.358 396.036 169.028L399.393 169.25C399.223 170.057 398.874 170.761 398.345 171.364C397.822 171.96 397.146 172.426 396.317 172.761C395.493 173.091 394.541 173.256 393.462 173.256ZM408.803 159.909V162.636H400.919V159.909H408.803ZM402.709 156.773H406.339V168.977C406.339 169.312 406.391 169.574 406.493 169.761C406.595 169.943 406.737 170.071 406.919 170.145C407.107 170.219 407.322 170.256 407.567 170.256C407.737 170.256 407.908 170.241 408.078 170.213C408.249 170.179 408.379 170.153 408.47 170.136L409.041 172.838C408.859 172.895 408.604 172.96 408.274 173.034C407.945 173.114 407.544 173.162 407.072 173.179C406.197 173.213 405.43 173.097 404.771 172.83C404.118 172.562 403.609 172.148 403.246 171.585C402.882 171.023 402.703 170.312 402.709 169.455V156.773ZM414.901 173.247C414.065 173.247 413.321 173.102 412.668 172.812C412.014 172.517 411.497 172.082 411.116 171.509C410.741 170.929 410.554 170.207 410.554 169.344C410.554 168.616 410.688 168.006 410.955 167.511C411.222 167.017 411.585 166.619 412.045 166.318C412.506 166.017 413.028 165.79 413.614 165.636C414.205 165.483 414.824 165.375 415.472 165.312C416.233 165.233 416.847 165.159 417.312 165.091C417.778 165.017 418.116 164.909 418.327 164.767C418.537 164.625 418.642 164.415 418.642 164.136V164.085C418.642 163.545 418.472 163.128 418.131 162.832C417.795 162.537 417.318 162.389 416.699 162.389C416.045 162.389 415.526 162.534 415.139 162.824C414.753 163.108 414.497 163.466 414.372 163.898L411.014 163.625C411.185 162.83 411.52 162.142 412.02 161.562C412.52 160.977 413.165 160.528 413.955 160.216C414.75 159.898 415.67 159.739 416.716 159.739C417.443 159.739 418.139 159.824 418.804 159.994C419.474 160.165 420.068 160.429 420.585 160.787C421.108 161.145 421.52 161.605 421.821 162.168C422.122 162.724 422.273 163.392 422.273 164.17V173H418.83V171.185H418.727C418.517 171.594 418.236 171.955 417.884 172.267C417.531 172.574 417.108 172.815 416.614 172.991C416.119 173.162 415.548 173.247 414.901 173.247ZM415.94 170.741C416.474 170.741 416.946 170.636 417.355 170.426C417.764 170.21 418.085 169.92 418.318 169.557C418.551 169.193 418.668 168.781 418.668 168.321V166.932C418.554 167.006 418.398 167.074 418.199 167.136C418.006 167.193 417.787 167.247 417.543 167.298C417.298 167.344 417.054 167.386 416.81 167.426C416.565 167.46 416.344 167.491 416.145 167.52C415.719 167.582 415.347 167.682 415.028 167.818C414.71 167.955 414.463 168.139 414.287 168.372C414.111 168.599 414.023 168.884 414.023 169.224C414.023 169.719 414.202 170.097 414.56 170.358C414.923 170.614 415.384 170.741 415.94 170.741ZM428.72 155.545V173H425.089V155.545H428.72ZM437.594 173.256C436.248 173.256 435.089 172.983 434.117 172.438C433.151 171.886 432.407 171.108 431.884 170.102C431.362 169.091 431.1 167.895 431.1 166.514C431.1 165.168 431.362 163.986 431.884 162.969C432.407 161.952 433.143 161.159 434.092 160.591C435.046 160.023 436.165 159.739 437.45 159.739C438.313 159.739 439.117 159.878 439.862 160.156C440.612 160.429 441.265 160.841 441.822 161.392C442.384 161.943 442.822 162.636 443.134 163.472C443.447 164.301 443.603 165.273 443.603 166.386V167.384H432.549V165.134H440.185C440.185 164.611 440.072 164.148 439.844 163.744C439.617 163.341 439.302 163.026 438.898 162.798C438.501 162.565 438.038 162.449 437.509 162.449C436.958 162.449 436.469 162.577 436.043 162.832C435.623 163.082 435.293 163.42 435.055 163.847C434.816 164.267 434.694 164.736 434.688 165.253V167.392C434.688 168.04 434.808 168.599 435.046 169.071C435.29 169.543 435.634 169.906 436.077 170.162C436.521 170.418 437.046 170.545 437.654 170.545C438.058 170.545 438.427 170.489 438.762 170.375C439.097 170.261 439.384 170.091 439.623 169.864C439.862 169.636 440.043 169.358 440.168 169.028L443.526 169.25C443.356 170.057 443.006 170.761 442.478 171.364C441.955 171.96 441.279 172.426 440.45 172.761C439.626 173.091 438.674 173.256 437.594 173.256ZM449.603 165.432V173H445.972V159.909H449.433V162.219H449.586C449.876 161.457 450.362 160.855 451.043 160.412C451.725 159.963 452.552 159.739 453.523 159.739C454.433 159.739 455.225 159.938 455.901 160.335C456.577 160.733 457.103 161.301 457.478 162.04C457.853 162.773 458.04 163.648 458.04 164.665V173H454.41V165.312C454.415 164.511 454.211 163.886 453.796 163.438C453.381 162.983 452.81 162.756 452.083 162.756C451.594 162.756 451.163 162.861 450.788 163.071C450.418 163.281 450.129 163.588 449.918 163.991C449.714 164.389 449.609 164.869 449.603 165.432Z" fill="#343434"/>
    <defs>
        <filter id="filter0_d_3013_2632" x="0.440338" y="0.400267" width="418.119" height="453.119" filterUnits="userSpaceOnUse" color-interpolation-filters="sRGB">
            <feFlood flood-opacity="0" result="BackgroundImageFix"/>
            <feColorMatrix in="SourceAlpha" type="matrix" values="0 0 0 0 0 0 0 0 0 0 0 0 0 0 0 0 0 0 127 0" result="hardAlpha"/>
            <feOffset dy="8.95993"/>
            <feGaussianBlur stdDeviation="21.2798"/>
            <feComposite in2="hardAlpha" operator="out"/>
            <feColorMatrix type="matrix" values="0 0 0 0 0 0 0 0 0 0 0 0 0 0 0 0 0 0 0.08 0"/>
            <feBlend mode="normal" in2="BackgroundImageFix" result="effect1_dropShadow_3013_2632"/>
            <feBlend mode="normal" in="SourceGraphic" in2="effect1_dropShadow_3013_2632" result="shape"/>
        </filter>
        <filter id="filter1_d_3013_2632" x="220.44" y="86.4003" width="418.119" height="453.119" filterUnits="userSpaceOnUse" color-interpolation-filters="sRGB">
            <feFlood flood-opacity="0" result="BackgroundImageFix"/>
            <feColorMatrix in="SourceAlpha" type="matrix" values="0 0 0 0 0 0 0 0 0 0 0 0 0 0 0 0 0 0 127 0" result="hardAlpha"/>
            <feOffset dy="8.95993"/>
            <feGaussianBlur stdDeviation="21.2798"/>
            <feComposite in2="hardAlpha" operator="out"/>
            <feColorMatrix type="matrix" values="0 0 0 0 0 0 0 0 0 0 0 0 0 0 0 0 0 0 0.08 0"/>
            <feBlend mode="normal" in2="BackgroundImageFix" result="effect1_dropShadow_3013_2632"/>
            <feBlend mode="normal" in="SourceGraphic" in2="effect1_dropShadow_3013_2632" result="shape"/>
        </filter>
    </defs>
</svg>