<svg viewBox="0 0 448 198" fill="none" xmlns="http://www.w3.org/2000/svg">
<g clip-path="url(#clip0_2429_48262)">
<rect width="448" height="198" rx="8" fill="#E5E7EB"/>
<g filter="url(#filter0_dd_2429_48262)">
<rect x="28" y="48" width="224.344" height="125" rx="6.95639" fill="url(#paint0_linear_2429_48262)"/>
<path d="M69.4688 66.3213C69.4179 66.1564 69.3477 66.0088 69.2581 65.8785C69.1705 65.7461 69.0647 65.6331 68.9404 65.5394C68.8183 65.4458 68.6778 65.3755 68.5189 65.3287C68.3601 65.2798 68.187 65.2554 67.9997 65.2554C67.6637 65.2554 67.3644 65.3399 67.1017 65.5089C66.8391 65.6779 66.6324 65.9263 66.4817 66.2542C66.333 66.5799 66.2587 66.977 66.2587 67.4453C66.2587 67.9178 66.333 68.3179 66.4817 68.6457C66.6303 68.9735 66.837 69.223 67.1017 69.394C67.3664 69.563 67.6739 69.6475 68.0241 69.6475C68.3418 69.6475 68.6167 69.5864 68.8488 69.4643C69.083 69.3421 69.2632 69.169 69.3894 68.945C69.5157 68.719 69.5788 68.4543 69.5788 68.1509L69.8354 68.1906H68.1371V67.3048H70.6753V68.0562C70.6753 68.5917 70.5613 69.055 70.3332 69.4459C70.1052 69.8369 69.7916 70.1383 69.3925 70.35C68.9934 70.5598 68.5352 70.6646 68.018 70.6646C67.4418 70.6646 66.9358 70.5353 66.5 70.2767C66.0663 70.0161 65.7273 69.6465 65.4829 69.168C65.2406 68.6874 65.1195 68.1173 65.1195 67.4576C65.1195 66.9526 65.1907 66.5016 65.3333 66.1045C65.4778 65.7074 65.6794 65.3704 65.938 65.0935C66.1966 64.8145 66.5 64.6028 66.8482 64.4582C67.1964 64.3116 67.5751 64.2383 67.9844 64.2383C68.3306 64.2383 68.6533 64.2892 68.9527 64.391C69.252 64.4908 69.5177 64.6333 69.7498 64.8186C69.984 65.0039 70.1764 65.2238 70.3271 65.4783C70.4778 65.7329 70.5765 66.0139 70.6234 66.3213H69.4688ZM73.7686 70.6707C73.3104 70.6707 72.9134 70.5699 72.5774 70.3684C72.2414 70.1668 71.9808 69.8847 71.7955 69.5223C71.6122 69.1599 71.5206 68.7363 71.5206 68.2517C71.5206 67.7671 71.6122 67.3425 71.7955 66.978C71.9808 66.6135 72.2414 66.3305 72.5774 66.1289C72.9134 65.9273 73.3104 65.8265 73.7686 65.8265C74.2267 65.8265 74.6238 65.9273 74.9598 66.1289C75.2958 66.3305 75.5554 66.6135 75.7386 66.978C75.9239 67.3425 76.0166 67.7671 76.0166 68.2517C76.0166 68.7363 75.9239 69.1599 75.7386 69.5223C75.5554 69.8847 75.2958 70.1668 74.9598 70.3684C74.6238 70.5699 74.2267 70.6707 73.7686 70.6707ZM73.7747 69.785C74.0231 69.785 74.2308 69.7168 74.3978 69.5803C74.5648 69.4419 74.689 69.2566 74.7704 69.0244C74.8539 68.7923 74.8956 68.5337 74.8956 68.2486C74.8956 67.9615 74.8539 67.7019 74.7704 67.4698C74.689 67.2356 74.5648 67.0493 74.3978 66.9108C74.2308 66.7724 74.0231 66.7031 73.7747 66.7031C73.5202 66.7031 73.3084 66.7724 73.1394 66.9108C72.9724 67.0493 72.8472 67.2356 72.7637 67.4698C72.6823 67.7019 72.6415 67.9615 72.6415 68.2486C72.6415 68.5337 72.6823 68.7923 72.7637 69.0244C72.8472 69.2566 72.9724 69.4419 73.1394 69.5803C73.3084 69.7168 73.5202 69.785 73.7747 69.785ZM79.0014 70.6707C78.5433 70.6707 78.1462 70.5699 77.8103 70.3684C77.4743 70.1668 77.2136 69.8847 77.0283 69.5223C76.8451 69.1599 76.7534 68.7363 76.7534 68.2517C76.7534 67.7671 76.8451 67.3425 77.0283 66.978C77.2136 66.6135 77.4743 66.3305 77.8103 66.1289C78.1462 65.9273 78.5433 65.8265 79.0014 65.8265C79.4596 65.8265 79.8567 65.9273 80.1926 66.1289C80.5286 66.3305 80.7882 66.6135 80.9715 66.978C81.1568 67.3425 81.2494 67.7671 81.2494 68.2517C81.2494 68.7363 81.1568 69.1599 80.9715 69.5223C80.7882 69.8847 80.5286 70.1668 80.1926 70.3684C79.8567 70.5699 79.4596 70.6707 79.0014 70.6707ZM79.0076 69.785C79.256 69.785 79.4637 69.7168 79.6306 69.5803C79.7976 69.4419 79.9218 69.2566 80.0033 69.0244C80.0868 68.7923 80.1285 68.5337 80.1285 68.2486C80.1285 67.9615 80.0868 67.7019 80.0033 67.4698C79.9218 67.2356 79.7976 67.0493 79.6306 66.9108C79.4637 66.7724 79.256 66.7031 79.0076 66.7031C78.753 66.7031 78.5413 66.7724 78.3723 66.9108C78.2053 67.0493 78.0801 67.2356 77.9966 67.4698C77.9151 67.7019 77.8744 67.9615 77.8744 68.2486C77.8744 68.5337 77.9151 68.7923 77.9966 69.0244C78.0801 69.2566 78.2053 69.4419 78.3723 69.5803C78.5413 69.7168 78.753 69.785 79.0076 69.785ZM84.2282 72.4361C83.8311 72.4361 83.4901 72.3822 83.205 72.2743C82.9199 72.1684 82.6908 72.0258 82.5178 71.8467C82.3447 71.6675 82.2245 71.4689 82.1573 71.2511L83.1531 71.0098C83.1979 71.1014 83.263 71.192 83.3485 71.2816C83.4341 71.3732 83.5491 71.4486 83.6937 71.5076C83.8403 71.5687 84.0246 71.5993 84.2465 71.5993C84.5601 71.5993 84.8197 71.5229 85.0254 71.3702C85.231 71.2195 85.3339 70.9711 85.3339 70.6249V69.7361H85.2789C85.2219 69.8501 85.1384 69.9672 85.0284 70.0874C84.9205 70.2075 84.777 70.3083 84.5978 70.3897C84.4206 70.4712 84.1976 70.5119 83.9289 70.5119C83.5685 70.5119 83.2416 70.4274 82.9484 70.2584C82.6572 70.0874 82.4251 69.8328 82.252 69.4948C82.081 69.1548 81.9955 68.7292 81.9955 68.2181C81.9955 67.7029 82.081 67.2682 82.252 66.9139C82.4251 66.5576 82.6583 66.2878 82.9515 66.1045C83.2447 65.9192 83.5715 65.8265 83.9319 65.8265C84.2068 65.8265 84.4328 65.8734 84.61 65.967C84.7892 66.0587 84.9317 66.1696 85.0376 66.3C85.1435 66.4282 85.2239 66.5494 85.2789 66.6634H85.34V65.8876H86.4304V70.6555C86.4304 71.0566 86.3347 71.3885 86.1433 71.6512C85.9519 71.9138 85.6902 72.1103 85.3583 72.2407C85.0264 72.371 84.6497 72.4361 84.2282 72.4361ZM84.2374 69.6445C84.4715 69.6445 84.6711 69.5875 84.836 69.4734C85.0009 69.3594 85.1262 69.1955 85.2117 68.9817C85.2972 68.7679 85.34 68.5113 85.34 68.212C85.34 67.9167 85.2972 67.6581 85.2117 67.4362C85.1282 67.2142 85.004 67.0422 84.8391 66.92C84.6762 66.7958 84.4756 66.7337 84.2374 66.7337C83.991 66.7337 83.7853 66.7978 83.6204 66.9261C83.4554 67.0544 83.3312 67.2305 83.2477 67.4545C83.1643 67.6765 83.1225 67.929 83.1225 68.212C83.1225 68.4991 83.1643 68.7506 83.2477 68.9664C83.3333 69.1802 83.4585 69.3472 83.6234 69.4673C83.7904 69.5854 83.995 69.6445 84.2374 69.6445ZM88.6692 64.3238V70.5791H87.5635V64.3238H88.6692ZM91.8831 70.6707C91.4128 70.6707 91.0065 70.573 90.6645 70.3775C90.3244 70.18 90.0627 69.901 89.8795 69.5406C89.6962 69.1782 89.6046 68.7516 89.6046 68.2609C89.6046 67.7783 89.6962 67.3547 89.8795 66.9902C90.0648 66.6237 90.3234 66.3387 90.6553 66.135C90.9872 65.9294 91.3771 65.8265 91.8251 65.8265C92.1142 65.8265 92.3871 65.8734 92.6437 65.967C92.9023 66.0587 93.1303 66.2012 93.3278 66.3947C93.5274 66.5881 93.6842 66.8345 93.7982 67.1338C93.9122 67.4311 93.9693 67.7854 93.9693 68.1967V68.5357H90.1238V67.7905H92.9094C92.9074 67.5787 92.8615 67.3904 92.7719 67.2254C92.6824 67.0585 92.5571 66.9271 92.3963 66.8314C92.2374 66.7357 92.0521 66.6879 91.8404 66.6879C91.6144 66.6879 91.4158 66.7428 91.2448 66.8528C91.0737 66.9607 90.9404 67.1033 90.8447 67.2804C90.751 67.4555 90.7031 67.648 90.7011 67.8577V68.5083C90.7011 68.7811 90.751 69.0153 90.8508 69.2108C90.9505 69.4042 91.09 69.5528 91.2692 69.6567C91.4484 69.7585 91.6581 69.8094 91.8984 69.8094C92.0593 69.8094 92.2049 69.787 92.3352 69.7422C92.4655 69.6954 92.5785 69.6272 92.6742 69.5376C92.7699 69.448 92.8422 69.337 92.8911 69.2046L93.9234 69.3207C93.8583 69.5936 93.7341 69.8318 93.5508 70.0354C93.3696 70.237 93.1375 70.3938 92.8544 70.5058C92.5714 70.6158 92.2476 70.6707 91.8831 70.6707ZM100.486 66.0434C100.458 65.7767 100.338 65.569 100.126 65.4203C99.9163 65.2717 99.6435 65.1973 99.3075 65.1973C99.0713 65.1973 98.8687 65.233 98.6997 65.3043C98.5307 65.3755 98.4014 65.4722 98.3118 65.5944C98.2222 65.7166 98.1764 65.8561 98.1743 66.0129C98.1743 66.1432 98.2038 66.2562 98.2629 66.3519C98.324 66.4476 98.4064 66.529 98.5103 66.5962C98.6141 66.6614 98.7292 66.7164 98.8554 66.7612C98.9817 66.806 99.1089 66.8436 99.2372 66.8742L99.8237 67.0208C100.06 67.0758 100.287 67.1501 100.505 67.2438C100.725 67.3374 100.921 67.4555 101.094 67.5981C101.269 67.7406 101.408 67.9127 101.51 68.1142C101.611 68.3158 101.662 68.552 101.662 68.8229C101.662 69.1894 101.569 69.5121 101.381 69.7911C101.194 70.068 100.923 70.2849 100.569 70.4417C100.217 70.5964 99.7901 70.6738 99.2892 70.6738C98.8025 70.6738 98.38 70.5984 98.0216 70.4478C97.6653 70.2971 97.3863 70.0772 97.1847 69.788C96.9852 69.4989 96.8772 69.1466 96.8609 68.7312H97.9758C97.9921 68.9491 98.0593 69.1303 98.1774 69.2749C98.2955 69.4195 98.4492 69.5274 98.6386 69.5987C98.83 69.6699 99.0438 69.7056 99.28 69.7056C99.5264 69.7056 99.7422 69.6689 99.9275 69.5956C100.115 69.5203 100.261 69.4164 100.367 69.2841C100.473 69.1497 100.527 68.9929 100.529 68.8137C100.527 68.6508 100.479 68.5164 100.386 68.4105C100.292 68.3026 100.161 68.213 99.9917 68.1417C99.8247 68.0684 99.6292 68.0033 99.4052 67.9463L98.6936 67.763C98.1784 67.6306 97.7711 67.4301 97.4718 67.1613C97.1745 66.8905 97.0259 66.5311 97.0259 66.0831C97.0259 65.7146 97.1257 65.3918 97.3252 65.1149C97.5268 64.838 97.8007 64.6231 98.1468 64.4704C98.493 64.3157 98.885 64.2383 99.3227 64.2383C99.7666 64.2383 100.156 64.3157 100.49 64.4704C100.825 64.6231 101.089 64.8359 101.281 65.1088C101.472 65.3796 101.571 65.6911 101.577 66.0434H100.486ZM103.729 67.8302V70.5791H102.624V64.3238H103.705V66.6848H103.76C103.87 66.4201 104.04 66.2114 104.27 66.0587C104.502 65.9039 104.797 65.8265 105.156 65.8265C105.482 65.8265 105.766 65.8948 106.008 66.0312C106.25 66.1676 106.438 66.3672 106.57 66.6298C106.704 66.8925 106.772 67.2132 106.772 67.592V70.5791H105.666V67.763C105.666 67.4474 105.584 67.202 105.422 67.0269C105.261 66.8497 105.035 66.7612 104.743 66.7612C104.548 66.7612 104.373 66.8039 104.218 66.8895C104.065 66.9729 103.945 67.0941 103.858 67.2529C103.772 67.4117 103.729 67.6042 103.729 67.8302ZM109.976 70.6707C109.505 70.6707 109.099 70.573 108.757 70.3775C108.417 70.18 108.155 69.901 107.972 69.5406C107.789 69.1782 107.697 68.7516 107.697 68.2609C107.697 67.7783 107.789 67.3547 107.972 66.9902C108.157 66.6237 108.416 66.3387 108.748 66.135C109.08 65.9294 109.47 65.8265 109.918 65.8265C110.207 65.8265 110.48 65.8734 110.736 65.967C110.995 66.0587 111.223 66.2012 111.42 66.3947C111.62 66.5881 111.777 66.8345 111.891 67.1338C112.005 67.4311 112.062 67.7854 112.062 68.1967V68.5357H108.216V67.7905H111.002C111 67.5787 110.954 67.3904 110.864 67.2254C110.775 67.0585 110.65 66.9271 110.489 66.8314C110.33 66.7357 110.145 66.6879 109.933 66.6879C109.707 66.6879 109.508 66.7428 109.337 66.8528C109.166 66.9607 109.033 67.1033 108.937 67.2804C108.843 67.4555 108.796 67.648 108.794 67.8577V68.5083C108.794 68.7811 108.843 69.0153 108.943 69.2108C109.043 69.4042 109.182 69.5528 109.362 69.6567C109.541 69.7585 109.751 69.8094 109.991 69.8094C110.152 69.8094 110.297 69.787 110.428 69.7422C110.558 69.6954 110.671 69.6272 110.767 69.5376C110.862 69.448 110.935 69.337 110.983 69.2046L112.016 69.3207C111.951 69.5936 111.826 69.8318 111.643 70.0354C111.462 70.237 111.23 70.3938 110.947 70.5058C110.664 70.6158 110.34 70.6707 109.976 70.6707ZM115.074 70.6707C114.604 70.6707 114.197 70.573 113.855 70.3775C113.515 70.18 113.254 69.901 113.07 69.5406C112.887 69.1782 112.795 68.7516 112.795 68.2609C112.795 67.7783 112.887 67.3547 113.07 66.9902C113.256 66.6237 113.514 66.3387 113.846 66.135C114.178 65.9294 114.568 65.8265 115.016 65.8265C115.305 65.8265 115.578 65.8734 115.835 65.967C116.093 66.0587 116.321 66.2012 116.519 66.3947C116.718 66.5881 116.875 66.8345 116.989 67.1338C117.103 67.4311 117.16 67.7854 117.16 68.1967V68.5357H113.315V67.7905H116.1C116.098 67.5787 116.052 67.3904 115.963 67.2254C115.873 67.0585 115.748 66.9271 115.587 66.8314C115.428 66.7357 115.243 66.6879 115.031 66.6879C114.805 66.6879 114.607 66.7428 114.436 66.8528C114.265 66.9607 114.131 67.1033 114.036 67.2804C113.942 67.4555 113.894 67.648 113.892 67.8577V68.5083C113.892 68.7811 113.942 69.0153 114.042 69.2108C114.141 69.4042 114.281 69.5528 114.46 69.6567C114.639 69.7585 114.849 69.8094 115.089 69.8094C115.25 69.8094 115.396 69.787 115.526 69.7422C115.656 69.6954 115.769 69.6272 115.865 69.5376C115.961 69.448 116.033 69.337 116.082 69.2046L117.114 69.3207C117.049 69.5936 116.925 69.8318 116.742 70.0354C116.56 70.237 116.328 70.3938 116.045 70.5058C115.762 70.6158 115.438 70.6707 115.074 70.6707ZM120.438 65.8876V66.7428H117.741V65.8876H120.438ZM118.407 64.7636H119.513V69.168C119.513 69.3166 119.535 69.4307 119.58 69.5101C119.627 69.5875 119.688 69.6404 119.763 69.6689C119.839 69.6974 119.922 69.7117 120.014 69.7117C120.083 69.7117 120.146 69.7066 120.203 69.6964C120.262 69.6862 120.307 69.6771 120.337 69.6689L120.524 70.5333C120.465 70.5536 120.38 70.576 120.27 70.6005C120.162 70.6249 120.03 70.6392 119.873 70.6432C119.596 70.6514 119.347 70.6096 119.125 70.518C118.903 70.4243 118.727 70.2798 118.596 70.0843C118.468 69.8888 118.405 69.6445 118.407 69.3513V64.7636ZM125.004 67.1277L123.996 67.2377C123.967 67.1358 123.917 67.0401 123.846 66.9505C123.777 66.8609 123.683 66.7887 123.565 66.7337C123.447 66.6787 123.302 66.6512 123.131 66.6512C122.901 66.6512 122.708 66.7011 122.551 66.8009C122.396 66.9007 122.32 67.03 122.322 67.1888C122.32 67.3252 122.37 67.4362 122.472 67.5217C122.575 67.6072 122.747 67.6775 122.985 67.7325L123.785 67.9035C124.229 67.9992 124.559 68.1509 124.775 68.3586C124.992 68.5663 125.102 68.8381 125.104 69.1741C125.102 69.4694 125.016 69.73 124.845 69.956C124.676 70.18 124.441 70.3551 124.139 70.4814C123.838 70.6076 123.492 70.6707 123.101 70.6707C122.527 70.6707 122.064 70.5506 121.714 70.3103C121.364 70.068 121.155 69.731 121.088 69.2993L122.166 69.1955C122.215 69.4073 122.319 69.5671 122.478 69.675C122.637 69.7829 122.843 69.8369 123.098 69.8369C123.36 69.8369 123.571 69.7829 123.73 69.675C123.891 69.5671 123.971 69.4337 123.971 69.2749C123.971 69.1405 123.919 69.0295 123.816 68.942C123.714 68.8544 123.555 68.7872 123.339 68.7404L122.539 68.5724C122.089 68.4787 121.756 68.3209 121.54 68.099C121.324 67.875 121.217 67.592 121.219 67.2499C121.217 66.9607 121.296 66.7103 121.455 66.4985C121.615 66.2847 121.838 66.1198 122.123 66.0037C122.411 65.8856 122.741 65.8265 123.116 65.8265C123.666 65.8265 124.099 65.9436 124.414 66.1778C124.732 66.412 124.928 66.7286 125.004 67.1277Z" fill="#4B5563"/>
<rect x="39.647" y="85.7358" width="49.8143" height="11.1097" fill="white" stroke="#D1D5DB" stroke-width="0.358376"/>
<rect x="39.647" y="96.4868" width="49.8143" height="11.1097" fill="white" stroke="#D1D5DB" stroke-width="0.358376"/>
<rect x="39.647" y="107.239" width="49.8143" height="11.1097" fill="white" stroke="#D1D5DB" stroke-width="0.358376"/>
<rect x="39.647" y="117.99" width="49.8143" height="11.1097" fill="white" stroke="#D1D5DB" stroke-width="0.358376"/>
<rect x="39.647" y="128.741" width="49.8143" height="11.1097" fill="white" stroke="#D1D5DB" stroke-width="0.358376"/>
<rect x="39.647" y="139.492" width="49.8143" height="11.1097" fill="white" stroke="#D1D5DB" stroke-width="0.358376"/>
<rect x="39.647" y="150.244" width="49.8143" height="11.1097" fill="white" stroke="#D1D5DB" stroke-width="0.358376"/>
<rect x="139.993" y="85.7358" width="49.8143" height="11.1097" fill="white" stroke="#D1D5DB" stroke-width="0.358376"/>
<rect x="139.993" y="96.4868" width="49.8143" height="11.1097" fill="white" stroke="#D1D5DB" stroke-width="0.358376"/>
<rect x="139.993" y="107.239" width="49.8143" height="11.1097" fill="white" stroke="#D1D5DB" stroke-width="0.358376"/>
<rect x="139.993" y="117.99" width="49.8143" height="11.1097" fill="white" stroke="#D1D5DB" stroke-width="0.358376"/>
<rect x="139.993" y="128.741" width="49.8143" height="11.1097" fill="white" stroke="#D1D5DB" stroke-width="0.358376"/>
<rect x="139.993" y="139.492" width="49.8143" height="11.1097" fill="white" stroke="#D1D5DB" stroke-width="0.358376"/>
<rect x="139.993" y="150.244" width="49.8143" height="11.1097" fill="white" stroke="#D1D5DB" stroke-width="0.358376"/>
<rect x="89.104" y="85.7358" width="51.2478" height="11.1097" fill="white" stroke="#D1D5DB" stroke-width="0.358376"/>
<rect x="89.104" y="96.4868" width="51.2478" height="11.1097" fill="white" stroke="#D1D5DB" stroke-width="0.358376"/>
<rect x="89.104" y="107.239" width="51.2478" height="11.1097" fill="white" stroke="#D1D5DB" stroke-width="0.358376"/>
<rect x="89.104" y="117.99" width="51.2478" height="11.1097" fill="white" stroke="#D1D5DB" stroke-width="0.358376"/>
<rect x="89.104" y="128.741" width="51.2478" height="11.1097" fill="white" stroke="#D1D5DB" stroke-width="0.358376"/>
<rect x="89.104" y="139.492" width="51.2478" height="11.1097" fill="white" stroke="#D1D5DB" stroke-width="0.358376"/>
<rect x="89.104" y="150.244" width="51.2478" height="11.1097" fill="white" stroke="#D1D5DB" stroke-width="0.358376"/>
<rect x="189.448" y="85.7358" width="51.2478" height="11.1097" fill="white" stroke="#D1D5DB" stroke-width="0.358376"/>
<rect x="189.448" y="96.4868" width="51.2478" height="11.1097" fill="white" stroke="#D1D5DB" stroke-width="0.358376"/>
<rect x="189.448" y="107.239" width="51.2478" height="11.1097" fill="white" stroke="#D1D5DB" stroke-width="0.358376"/>
<rect x="189.448" y="117.99" width="51.2478" height="11.1097" fill="white" stroke="#D1D5DB" stroke-width="0.358376"/>
<rect x="189.448" y="128.741" width="51.2478" height="11.1097" fill="white" stroke="#D1D5DB" stroke-width="0.358376"/>
<rect x="189.448" y="139.492" width="51.2478" height="11.1097" fill="white" stroke="#D1D5DB" stroke-width="0.358376"/>
<rect x="189.448" y="150.244" width="51.2478" height="11.1097" fill="white" stroke="#D1D5DB" stroke-width="0.358376"/>
<rect x="45.918" y="89.8564" width="30.1036" height="2.86701" rx="1.4335" fill="#4B5563"/>
<rect x="45.918" y="100.608" width="22.9361" height="2.86701" rx="1.4335" fill="#D1D5DB"/>
<rect x="45.918" y="111.359" width="22.9361" height="2.86701" rx="1.4335" fill="#D1D5DB"/>
<rect x="45.918" y="122.11" width="22.9361" height="2.86701" rx="1.4335" fill="#D1D5DB"/>
<rect x="45.918" y="132.861" width="22.9361" height="2.86701" rx="1.4335" fill="#D1D5DB"/>
<rect x="45.918" y="143.613" width="22.9361" height="2.86701" rx="1.4335" fill="#D1D5DB"/>
<rect x="45.918" y="154.364" width="22.9361" height="2.86701" rx="1.4335" fill="#D1D5DB"/>
<rect x="146.98" y="89.8564" width="30.1036" height="2.86701" rx="1.4335" fill="#4B5563"/>
<rect x="146.98" y="100.608" width="22.9361" height="2.86701" rx="1.4335" fill="#D1D5DB"/>
<rect x="146.98" y="111.359" width="22.9361" height="2.86701" rx="1.4335" fill="#D1D5DB"/>
<rect x="146.98" y="122.11" width="22.9361" height="2.86701" rx="1.4335" fill="#D1D5DB"/>
<rect x="146.98" y="132.861" width="22.9361" height="2.86701" rx="1.4335" fill="#D1D5DB"/>
<rect x="146.98" y="143.613" width="22.9361" height="2.86701" rx="1.4335" fill="#D1D5DB"/>
<rect x="146.98" y="154.364" width="22.9361" height="2.86701" rx="1.4335" fill="#D1D5DB"/>
<rect x="95.375" y="89.8564" width="30.1036" height="2.86701" rx="1.4335" fill="#4B5563"/>
<rect x="95.375" y="100.608" width="22.9361" height="2.86701" rx="1.4335" fill="#D1D5DB"/>
<rect x="95.375" y="111.359" width="22.9361" height="2.86701" rx="1.4335" fill="#D1D5DB"/>
<rect x="95.375" y="122.11" width="22.9361" height="2.86701" rx="1.4335" fill="#D1D5DB"/>
<rect x="95.375" y="132.861" width="22.9361" height="2.86701" rx="1.4335" fill="#D1D5DB"/>
<rect x="95.375" y="143.613" width="22.9361" height="2.86701" rx="1.4335" fill="#D1D5DB"/>
<rect x="95.375" y="154.364" width="22.9361" height="2.86701" rx="1.4335" fill="#D1D5DB"/>
<rect x="195.719" y="89.8564" width="30.1036" height="2.86701" rx="1.4335" fill="#4B5563"/>
<rect x="195.719" y="100.608" width="22.9361" height="2.86701" rx="1.4335" fill="#D1D5DB"/>
<rect x="195.719" y="111.359" width="22.9361" height="2.86701" rx="1.4335" fill="#D1D5DB"/>
<rect x="195.719" y="122.11" width="22.9361" height="2.86701" rx="1.4335" fill="#D1D5DB"/>
<rect x="195.719" y="132.861" width="22.9361" height="2.86701" rx="1.4335" fill="#D1D5DB"/>
<rect x="195.719" y="143.613" width="22.9361" height="2.86701" rx="1.4335" fill="#D1D5DB"/>
<rect x="195.719" y="154.364" width="22.9361" height="2.86701" rx="1.4335" fill="#D1D5DB"/>
<path d="M45.9697 60.0818C45.9697 59.7939 46.2031 59.5605 46.491 59.5605L53.7891 59.5605L57.438 63.0232L57.438 75.286C57.438 75.5739 57.2046 75.8072 56.9167 75.8072H46.491C46.2031 75.8072 45.9697 75.5739 45.9697 75.286V60.0818Z" fill="#10B981"/>
<path d="M54.5717 63.0232C54.1398 63.0232 53.7898 62.6731 53.7898 62.2413L53.7897 59.5605L57.4387 63.0232L54.5717 63.0232Z" fill="#6EE7B7"/>
<rect x="28.7168" y="48.7168" width="222.91" height="123.566" rx="6.23963" stroke="white" stroke-width="1.4335"/>
</g>
<g filter="url(#filter1_dd_2429_48262)">
<path d="M267.026 25.8558C267.026 23.6879 268.784 21.9304 270.952 21.9304H375.969L416.974 61.1523V231.286C416.974 233.454 415.216 235.212 413.048 235.212H270.952C268.784 235.212 267.026 233.454 267.026 231.286V25.8558Z" fill="url(#paint1_linear_2429_48262)" stroke="white" stroke-width="2.05219"/>
<path d="M379.681 60.7139C377.858 60.7139 376.38 59.236 376.38 57.4129L376.38 20.904L417.999 60.7139L379.681 60.7139Z" fill="#F3F4F6"/>
<rect x="288.8" y="76.2402" width="110.2" height="6.08" rx="3.04" fill="#E5E7EB"/>
<rect x="337.44" y="184.16" width="61.56" height="6.08" rx="3.04" fill="#E5E7EB"/>
<rect x="288.8" y="88.4004" width="69.92" height="6.08" rx="3.04" fill="#E5E7EB"/>
<rect x="288.8" y="160.6" width="20.52" height="6.08" transform="rotate(-90 288.8 160.6)" fill="#D1D5DB"/>
<rect x="317.68" y="160.6" width="13.68" height="6.08" transform="rotate(-90 317.68 160.6)" fill="#D1D5DB"/>
<rect x="346.56" y="160.6" width="31.92" height="6.08" transform="rotate(-90 346.56 160.6)" fill="#D1D5DB"/>
<rect x="303.24" y="160.6" width="25.84" height="6.08" transform="rotate(-90 303.24 160.6)" fill="#6B7280"/>
<rect x="332.119" y="160.6" width="22.04" height="6.08" transform="rotate(-90 332.119 160.6)" fill="#6B7280"/>
<rect x="360.999" y="160.6" width="20.52" height="6.08" transform="rotate(-90 360.999 160.6)" fill="#6B7280"/>
<rect x="337.44" y="196.319" width="61.56" height="6.08" rx="3.04" fill="#E5E7EB"/>
<rect x="288.8" y="100.56" width="48.64" height="10.64" rx="5.32" fill="#8B5CF6"/>
<rect x="300.199" y="103.6" width="25.84" height="4.56" rx="2.28" fill="#C4B5FD"/>
<circle cx="307.041" cy="199.359" r="18.24" fill="#D1D5DB"/>
<path d="M325.281 199.359C325.281 202.967 324.211 206.493 322.207 209.493C320.203 212.492 317.354 214.83 314.021 216.211C310.688 217.591 307.021 217.952 303.482 217.249C299.944 216.545 296.694 214.808 294.143 212.257C291.592 209.706 289.855 206.456 289.151 202.918C288.447 199.379 288.809 195.712 290.189 192.379C291.57 189.046 293.908 186.197 296.907 184.193C299.907 182.189 303.433 181.119 307.041 181.119V199.359H325.281Z" fill="#4B5563"/>
<path d="M304.002 45.9934C304.002 46.2183 303.913 46.434 303.754 46.5931L295.637 54.7096C295.478 54.8687 295.262 54.958 295.037 54.958L291.93 54.958C291.462 54.958 291.082 54.5783 291.082 54.1099L291.082 51.0027C291.082 50.7777 291.171 50.562 291.33 50.4029L299.447 42.2864C299.606 42.1274 299.822 42.038 300.047 42.038L303.154 42.038C303.622 42.038 304.002 42.4177 304.002 42.8861L304.002 45.9934Z" fill="#4B5563"/>
<path d="M312.491 45.9934C312.491 46.2183 312.402 46.434 312.243 46.5931L304.126 54.7096C303.967 54.8687 303.752 54.958 303.527 54.958L300.419 54.958C299.951 54.958 299.571 54.5783 299.571 54.1099L299.571 51.0027C299.571 50.7777 299.661 50.562 299.82 50.4029L307.936 42.2864C308.095 42.1274 308.311 42.038 308.536 42.038L311.643 42.038C312.111 42.038 312.491 42.4177 312.491 42.8861L312.491 45.9934Z" fill="#4B5563"/>
<path d="M312.44 54.0073C312.44 54.4757 312.061 54.8555 311.592 54.8555L308.507 54.8555C307.752 54.8555 307.373 53.9419 307.907 53.4076L310.993 50.3225C311.527 49.7882 312.44 50.1666 312.44 50.9222L312.44 54.0073Z" fill="#7A2CFF"/>
</g>
</g>
<defs>
<filter id="filter0_dd_2429_48262" x="25.1015" y="47.4203" width="230.141" height="130.797" filterUnits="userSpaceOnUse" color-interpolation-filters="sRGB">
<feFlood flood-opacity="0" result="BackgroundImageFix"/>
<feColorMatrix in="SourceAlpha" type="matrix" values="0 0 0 0 0 0 0 0 0 0 0 0 0 0 0 0 0 0 127 0" result="hardAlpha"/>
<feMorphology radius="0.579699" operator="erode" in="SourceAlpha" result="effect1_dropShadow_2429_48262"/>
<feOffset dy="1.1594"/>
<feGaussianBlur stdDeviation="1.1594"/>
<feColorMatrix type="matrix" values="0 0 0 0 0 0 0 0 0 0 0 0 0 0 0 0 0 0 0.06 0"/>
<feBlend mode="normal" in2="BackgroundImageFix" result="effect1_dropShadow_2429_48262"/>
<feColorMatrix in="SourceAlpha" type="matrix" values="0 0 0 0 0 0 0 0 0 0 0 0 0 0 0 0 0 0 127 0" result="hardAlpha"/>
<feMorphology radius="0.579699" operator="erode" in="SourceAlpha" result="effect2_dropShadow_2429_48262"/>
<feOffset dy="2.3188"/>
<feGaussianBlur stdDeviation="1.7391"/>
<feColorMatrix type="matrix" values="0 0 0 0 0 0 0 0 0 0 0 0 0 0 0 0 0 0 0.1 0"/>
<feBlend mode="normal" in2="effect1_dropShadow_2429_48262" result="effect2_dropShadow_2429_48262"/>
<feBlend mode="normal" in="SourceGraphic" in2="effect2_dropShadow_2429_48262" result="shape"/>
</filter>
<filter id="filter1_dd_2429_48262" x="252.443" y="18.6447" width="179.115" height="242.448" filterUnits="userSpaceOnUse" color-interpolation-filters="sRGB">
<feFlood flood-opacity="0" result="BackgroundImageFix"/>
<feColorMatrix in="SourceAlpha" type="matrix" values="0 0 0 0 0 0 0 0 0 0 0 0 0 0 0 0 0 0 127 0" result="hardAlpha"/>
<feMorphology radius="2.25955" operator="erode" in="SourceAlpha" result="effect1_dropShadow_2429_48262"/>
<feOffset dy="4.5191"/>
<feGaussianBlur stdDeviation="3.38933"/>
<feColorMatrix type="matrix" values="0 0 0 0 0 0 0 0 0 0 0 0 0 0 0 0 0 0 0.05 0"/>
<feBlend mode="normal" in2="BackgroundImageFix" result="effect1_dropShadow_2429_48262"/>
<feColorMatrix in="SourceAlpha" type="matrix" values="0 0 0 0 0 0 0 0 0 0 0 0 0 0 0 0 0 0 127 0" result="hardAlpha"/>
<feMorphology radius="3.38933" operator="erode" in="SourceAlpha" result="effect2_dropShadow_2429_48262"/>
<feOffset dy="11.2978"/>
<feGaussianBlur stdDeviation="8.47332"/>
<feColorMatrix type="matrix" values="0 0 0 0 0 0 0 0 0 0 0 0 0 0 0 0 0 0 0.1 0"/>
<feBlend mode="normal" in2="effect1_dropShadow_2429_48262" result="effect2_dropShadow_2429_48262"/>
<feBlend mode="normal" in="SourceGraphic" in2="effect2_dropShadow_2429_48262" result="shape"/>
</filter>
<linearGradient id="paint0_linear_2429_48262" x1="140.172" y1="48" x2="140.172" y2="173" gradientUnits="userSpaceOnUse">
<stop offset="0.380208" stop-color="white"/>
<stop offset="1" stop-color="#F3F4F6"/>
</linearGradient>
<linearGradient id="paint1_linear_2429_48262" x1="342" y1="20.9043" x2="342" y2="236.238" gradientUnits="userSpaceOnUse">
<stop offset="0.380208" stop-color="white"/>
<stop offset="1" stop-color="#F3F4F6"/>
</linearGradient>
<clipPath id="clip0_2429_48262">
<rect width="448" height="198" rx="8" fill="white"/>
</clipPath>
</defs>
</svg>
