<svg viewBox="0 0 448 198" fill="none" xmlns="http://www.w3.org/2000/svg">
<g clip-path="url(#clip0_2429_48186)">
<rect width="448" height="198" rx="8" fill="#E5E7EB"/>
<g filter="url(#filter0_dd_2429_48186)">
<path d="M218.014 42.6221H473.467V215.85C473.467 218.525 471.298 220.693 468.624 220.693H222.856C220.182 220.693 218.014 218.525 218.014 215.85V42.6221Z" fill="white"/>
<path d="M218.014 41.6994H217.091V42.6221V215.85C217.091 219.034 219.672 221.615 222.856 221.615H468.624C471.808 221.615 474.389 219.034 474.389 215.85V42.6221V41.6994H473.467H218.014Z" stroke="white" stroke-width="1.84532"/>
</g>
<g filter="url(#filter1_d_2429_48186)">
<rect x="301.295" y="83.8184" width="92.8667" height="11.3509" rx="5.67543" fill="#E5E7EB"/>
</g>
<path d="M335.878 71.6211C335.83 71.4518 335.761 71.3023 335.673 71.1724C335.585 71.0402 335.477 70.9289 335.349 70.8384C335.224 70.7457 335.08 70.675 334.918 70.6263C334.758 70.5776 334.581 70.5532 334.386 70.5532C334.022 70.5532 333.702 70.6436 333.426 70.8245C333.152 71.0054 332.939 71.2686 332.786 71.6142C332.633 71.9574 332.556 72.3771 332.556 72.8734C332.556 73.3697 332.632 73.7917 332.782 74.1396C332.933 74.4874 333.146 74.753 333.422 74.9362C333.698 75.1171 334.024 75.2075 334.4 75.2075C334.741 75.2075 335.032 75.1472 335.273 75.0266C335.516 74.9037 335.702 74.7309 335.83 74.5083C335.959 74.2857 336.024 74.0225 336.024 73.7187L336.33 73.7639H334.494V72.6299H337.475V73.5274C337.475 74.1535 337.343 74.6915 337.078 75.1414C336.814 75.589 336.45 75.9345 335.986 76.178C335.522 76.4192 334.991 76.5398 334.393 76.5398C333.725 76.5398 333.138 76.3925 332.633 76.098C332.127 75.8012 331.733 75.3803 331.45 74.8353C331.169 74.288 331.029 73.6387 331.029 72.8873C331.029 72.3099 331.113 71.795 331.28 71.3428C331.449 70.8883 331.685 70.5033 331.989 70.188C332.293 69.8726 332.647 69.6326 333.05 69.4679C333.454 69.3032 333.891 69.2209 334.362 69.2209C334.765 69.2209 335.141 69.2801 335.489 69.3983C335.836 69.5143 336.145 69.6789 336.414 69.8923C336.685 70.1056 336.907 70.3596 337.078 70.6541C337.25 70.9463 337.36 71.2686 337.409 71.6211H335.878ZM340.993 76.5467C340.452 76.5467 339.985 76.4319 339.591 76.2024C339.199 75.9705 338.896 75.6481 338.683 75.2353C338.469 74.8202 338.363 74.339 338.363 73.7917C338.363 73.2398 338.469 72.7574 338.683 72.3447C338.896 71.9296 339.199 71.6072 339.591 71.3776C339.985 71.1457 340.452 71.0298 340.993 71.0298C341.533 71.0298 341.999 71.1457 342.391 71.3776C342.785 71.6072 343.089 71.9296 343.302 72.3447C343.516 72.7574 343.622 73.2398 343.622 73.7917C343.622 74.339 343.516 74.8202 343.302 75.2353C343.089 75.6481 342.785 75.9705 342.391 76.2024C341.999 76.4319 341.533 76.5467 340.993 76.5467ZM340.999 75.3988C341.245 75.3988 341.451 75.3292 341.615 75.1901C341.78 75.0486 341.904 74.8562 341.987 74.6127C342.073 74.3692 342.116 74.092 342.116 73.7813C342.116 73.4705 342.073 73.1934 341.987 72.9499C341.904 72.7064 341.78 72.5139 341.615 72.3725C341.451 72.231 341.245 72.1603 340.999 72.1603C340.751 72.1603 340.543 72.231 340.373 72.3725C340.206 72.5139 340.08 72.7064 339.994 72.9499C339.911 73.1934 339.869 73.4705 339.869 73.7813C339.869 74.092 339.911 74.3692 339.994 74.6127C340.08 74.8562 340.206 75.0486 340.373 75.1901C340.543 75.3292 340.751 75.3988 340.999 75.3988ZM347 76.5467C346.46 76.5467 345.992 76.4319 345.598 76.2024C345.206 75.9705 344.904 75.6481 344.69 75.2353C344.477 74.8202 344.37 74.339 344.37 73.7917C344.37 73.2398 344.477 72.7574 344.69 72.3447C344.904 71.9296 345.206 71.6072 345.598 71.3776C345.992 71.1457 346.46 71.0298 347 71.0298C347.54 71.0298 348.006 71.1457 348.398 71.3776C348.793 71.6072 349.096 71.9296 349.31 72.3447C349.523 72.7574 349.63 73.2398 349.63 73.7917C349.63 74.339 349.523 74.8202 349.31 75.2353C349.096 75.6481 348.793 75.9705 348.398 76.2024C348.006 76.4319 347.54 76.5467 347 76.5467ZM347.007 75.3988C347.253 75.3988 347.458 75.3292 347.623 75.1901C347.787 75.0486 347.911 74.8562 347.995 74.6127C348.081 74.3692 348.124 74.092 348.124 73.7813C348.124 73.4705 348.081 73.1934 347.995 72.9499C347.911 72.7064 347.787 72.5139 347.623 72.3725C347.458 72.231 347.253 72.1603 347.007 72.1603C346.759 72.1603 346.55 72.231 346.381 72.3725C346.214 72.5139 346.087 72.7064 346.002 72.9499C345.918 73.1934 345.876 73.4705 345.876 73.7813C345.876 74.092 345.918 74.3692 346.002 74.6127C346.087 74.8562 346.214 75.0486 346.381 75.1901C346.55 75.3292 346.759 75.3988 347.007 75.3988ZM353 78.5573C352.52 78.5573 352.109 78.4912 351.766 78.3591C351.425 78.2292 351.153 78.0518 350.952 77.8268C350.75 77.6019 350.619 77.3491 350.559 77.0685L351.929 76.8842C351.971 76.9908 352.037 77.0906 352.127 77.1833C352.218 77.2761 352.337 77.3503 352.486 77.4059C352.636 77.4639 352.82 77.4929 353.035 77.4929C353.358 77.4929 353.623 77.4141 353.832 77.2564C354.043 77.101 354.148 76.8401 354.148 76.4737V75.4962H354.086C354.021 75.6446 353.923 75.7849 353.794 75.9171C353.664 76.0493 353.497 76.1571 353.293 76.2406C353.089 76.3241 352.845 76.3659 352.562 76.3659C352.161 76.3659 351.796 76.2731 351.466 76.0876C351.139 75.8997 350.879 75.6133 350.684 75.2284C350.491 74.8411 350.395 74.3518 350.395 73.7604C350.395 73.1552 350.494 72.6496 350.691 72.2438C350.888 71.8379 351.15 71.5342 351.477 71.3324C351.806 71.1306 352.167 71.0298 352.559 71.0298C352.858 71.0298 353.108 71.0808 353.31 71.1828C353.512 71.2825 353.674 71.4078 353.797 71.5585C353.922 71.7069 354.019 71.853 354.086 71.9968H354.141V71.0993H355.613V76.4946C355.613 76.9491 355.502 77.3294 355.279 77.6355C355.056 77.9416 354.748 78.1712 354.354 78.3243C353.962 78.4797 353.511 78.5573 353 78.5573ZM353.032 75.2527C353.271 75.2527 353.472 75.1936 353.637 75.0753C353.804 74.9547 353.932 74.7831 354.02 74.5605C354.11 74.3355 354.155 74.0665 354.155 73.7535C354.155 73.4404 354.111 73.1691 354.023 72.9395C353.935 72.7076 353.807 72.5279 353.641 72.4003C353.474 72.2728 353.271 72.209 353.032 72.209C352.788 72.209 352.583 72.2751 352.416 72.4073C352.249 72.5371 352.123 72.718 352.037 72.9499C351.951 73.1818 351.908 73.4497 351.908 73.7535C351.908 74.0619 351.951 74.3286 352.037 74.5535C352.125 74.7762 352.251 74.9489 352.416 75.0718C352.583 75.1924 352.788 75.2527 353.032 75.2527ZM358.274 69.3183V76.4424H356.792V69.3183H358.274ZM361.896 76.5467C361.346 76.5467 360.873 76.4354 360.477 76.2128C360.082 75.9879 359.779 75.6701 359.565 75.2597C359.352 74.8469 359.245 74.3587 359.245 73.7952C359.245 73.2456 359.352 72.7632 359.565 72.3481C359.779 71.933 360.079 71.6095 360.466 71.3776C360.856 71.1457 361.313 71.0298 361.837 71.0298C362.189 71.0298 362.517 71.0866 362.821 71.2002C363.127 71.3115 363.394 71.4797 363.621 71.7046C363.851 71.9296 364.029 72.2125 364.157 72.5534C364.285 72.8919 364.348 73.2885 364.348 73.743V74.15H359.837V73.2317H362.953C362.953 73.0183 362.907 72.8293 362.814 72.6647C362.722 72.5 362.593 72.3713 362.428 72.2786C362.266 72.1835 362.077 72.1359 361.861 72.1359C361.636 72.1359 361.437 72.1881 361.263 72.2925C361.091 72.3945 360.957 72.5325 360.859 72.7064C360.762 72.878 360.712 73.0694 360.71 73.2804V74.1535C360.71 74.4179 360.758 74.6463 360.856 74.8388C360.956 75.0313 361.096 75.1797 361.277 75.284C361.458 75.3884 361.672 75.4406 361.92 75.4406C362.085 75.4406 362.236 75.4174 362.373 75.371C362.509 75.3246 362.626 75.255 362.724 75.1623C362.821 75.0695 362.895 74.9559 362.946 74.8214L364.317 74.9118C364.247 75.2411 364.105 75.5287 363.889 75.7745C363.676 76.018 363.4 76.2082 363.061 76.345C362.725 76.4795 362.337 76.5467 361.896 76.5467Z" fill="#1F2937"/>
<g filter="url(#filter2_d_2429_48186)">
<mask id="path-6-outside-1_2429_48186" maskUnits="userSpaceOnUse" x="216" y="23.9512" width="262" height="18" fill="black">
<rect fill="white" x="216" y="23.9512" width="262" height="18"/>
<path d="M218 27.4435C218 26.6193 218.668 25.9512 219.492 25.9512H474.508C475.332 25.9512 476 26.6193 476 27.4435V41.3298H218V27.4435Z"/>
</mask>
<path d="M218 27.4435C218 26.6193 218.668 25.9512 219.492 25.9512H474.508C475.332 25.9512 476 26.6193 476 27.4435V41.3298H218V27.4435Z" fill="#F9FAFB"/>
<path d="M216.155 27.4435C216.155 25.6002 217.649 24.1058 219.492 24.1058H474.508C476.351 24.1058 477.845 25.6002 477.845 27.4435L474.155 27.7965H219.845L216.155 27.4435ZM476 41.3298H218H476ZM216.155 41.3298V27.4435C216.155 25.6002 217.649 24.1058 219.492 24.1058L219.845 27.7965V41.3298H216.155ZM474.508 24.1058C476.351 24.1058 477.845 25.6002 477.845 27.4435V41.3298H474.155V27.7965L474.508 24.1058Z" fill="white" mask="url(#path-6-outside-1_2429_48186)"/>
</g>
<circle cx="225.934" cy="34.2556" r="1.79079" fill="#EF4444"/>
<circle cx="231.903" cy="34.2556" r="1.79079" fill="#F59E0B"/>
<circle cx="237.873" cy="34.2556" r="1.79079" fill="#10B981"/>
<rect x="285.984" y="31.3115" width="129.542" height="7.33253" rx="1.46651" fill="#E5E7EB"/>
<g filter="url(#filter3_dd_2429_48186)">
<rect x="79" y="63" width="254.174" height="62.2361" rx="4.40912" fill="white"/>
<rect x="96.8076" y="93.9961" width="112.771" height="6.5948" rx="2.91937" fill="#E5E7EB"/>
<rect x="96.8076" y="105.206" width="75.1807" height="6.5948" rx="2.91937" fill="#E5E7EB"/>
<path d="M98.0668 86.4502H96.6542L98.8066 80.2151H100.505L102.655 86.4502H101.242L99.6804 81.6399H99.6317L98.0668 86.4502ZM97.9785 83.9994H101.315V85.0284H97.9785V83.9994ZM104.886 86.5263C104.531 86.5263 104.21 86.435 103.921 86.2523C103.635 86.0676 103.408 85.7966 103.239 85.4394C103.073 85.0802 102.99 84.6397 102.99 84.1181C102.99 83.5823 103.076 83.1368 103.249 82.7816C103.421 82.4244 103.65 82.1575 103.937 81.9809C104.225 81.8023 104.54 81.713 104.883 81.713C105.145 81.713 105.363 81.7576 105.538 81.847C105.715 81.9342 105.857 82.0438 105.964 82.1758C106.074 82.3057 106.157 82.4335 106.214 82.5594H106.253V80.2151H107.547V86.4502H106.269V85.7013H106.214C106.153 85.8312 106.067 85.96 105.955 86.0879C105.845 86.2137 105.702 86.3183 105.526 86.4015C105.351 86.4847 105.138 86.5263 104.886 86.5263ZM105.297 85.4942C105.506 85.4942 105.683 85.4374 105.827 85.3237C105.973 85.2081 106.085 85.0467 106.162 84.8397C106.241 84.6326 106.281 84.3901 106.281 84.112C106.281 83.834 106.242 83.5925 106.165 83.3875C106.088 83.1825 105.976 83.0241 105.83 82.9125C105.684 82.8009 105.506 82.7451 105.297 82.7451C105.084 82.7451 104.905 82.8029 104.759 82.9186C104.612 83.0343 104.502 83.1946 104.427 83.3996C104.352 83.6046 104.314 83.8421 104.314 84.112C104.314 84.384 104.352 84.6245 104.427 84.8336C104.504 85.0406 104.614 85.203 104.759 85.3207C104.905 85.4364 105.084 85.4942 105.297 85.4942ZM112.973 81.7739L111.338 86.4502H109.877L108.242 81.7739H109.612L110.583 85.1198H110.632L111.6 81.7739H112.973ZM115.617 86.5415C115.136 86.5415 114.722 86.4441 114.375 86.2493C114.03 86.0524 113.764 85.7743 113.578 85.4151C113.391 85.0538 113.298 84.6266 113.298 84.1334C113.298 83.6523 113.391 83.2302 113.578 82.8669C113.764 82.5035 114.027 82.2204 114.366 82.0174C114.707 81.8145 115.107 81.713 115.566 81.713C115.874 81.713 116.161 81.7627 116.427 81.8622C116.695 81.9596 116.929 82.1067 117.127 82.3036C117.328 82.5005 117.485 82.7481 117.596 83.0465C117.708 83.3428 117.764 83.6899 117.764 84.0877V84.4439H113.815V83.6401H116.543C116.543 83.4534 116.502 83.288 116.421 83.1439C116.34 82.9998 116.227 82.8871 116.083 82.806C115.941 82.7227 115.776 82.6811 115.587 82.6811C115.39 82.6811 115.216 82.7268 115.063 82.8181C114.913 82.9074 114.795 83.0282 114.71 83.1804C114.625 83.3306 114.581 83.4981 114.579 83.6828V84.4469C114.579 84.6783 114.622 84.8782 114.707 85.0467C114.794 85.2152 114.917 85.3451 115.076 85.4364C115.234 85.5277 115.422 85.5734 115.639 85.5734C115.783 85.5734 115.915 85.5531 116.035 85.5125C116.154 85.4719 116.257 85.411 116.342 85.3298C116.427 85.2486 116.492 85.1492 116.537 85.0315L117.736 85.1106C117.675 85.3988 117.551 85.6505 117.362 85.8657C117.175 86.0788 116.934 86.2452 116.637 86.365C116.343 86.4827 116.003 86.5415 115.617 86.5415ZM118.61 86.4502V81.7739H119.868V82.5898H119.916C120.001 82.2996 120.145 82.0804 120.345 81.9322C120.546 81.782 120.778 81.7069 121.04 81.7069C121.105 81.7069 121.175 81.711 121.25 81.7191C121.325 81.7272 121.391 81.7384 121.448 81.7526V82.9034C121.387 82.8851 121.302 82.8689 121.195 82.8547C121.087 82.8405 120.989 82.8334 120.9 82.8334C120.709 82.8334 120.538 82.875 120.388 82.9582C120.24 83.0394 120.122 83.153 120.035 83.2992C119.95 83.4453 119.907 83.6138 119.907 83.8045V86.4502H118.61ZM124.84 81.7739V82.7481H122.024V81.7739H124.84ZM122.663 80.6535H123.96V85.0132C123.96 85.133 123.978 85.2263 124.015 85.2933C124.051 85.3582 124.102 85.4039 124.167 85.4303C124.234 85.4567 124.311 85.4699 124.398 85.4699C124.459 85.4699 124.52 85.4648 124.581 85.4547C124.642 85.4425 124.689 85.4333 124.721 85.4273L124.925 86.3924C124.86 86.4126 124.769 86.436 124.651 86.4624C124.533 86.4908 124.39 86.508 124.222 86.5141C123.909 86.5263 123.635 86.4847 123.4 86.3893C123.166 86.2939 122.985 86.1457 122.855 85.9448C122.725 85.7439 122.661 85.4902 122.663 85.1837V80.6535ZM127.766 86.5415C127.285 86.5415 126.871 86.4441 126.523 86.2493C126.178 86.0524 125.913 85.7743 125.726 85.4151C125.539 85.0538 125.446 84.6266 125.446 84.1334C125.446 83.6523 125.539 83.2302 125.726 82.8669C125.913 82.5035 126.175 82.2204 126.514 82.0174C126.855 81.8145 127.255 81.713 127.714 81.713C128.022 81.713 128.31 81.7627 128.575 81.8622C128.843 81.9596 129.077 82.1067 129.276 82.3036C129.477 82.5005 129.633 82.7481 129.745 83.0465C129.856 83.3428 129.912 83.6899 129.912 84.0877V84.4439H125.963V83.6401H128.691C128.691 83.4534 128.651 83.288 128.569 83.1439C128.488 82.9998 128.376 82.8871 128.231 82.806C128.089 82.7227 127.924 82.6811 127.735 82.6811C127.538 82.6811 127.364 82.7268 127.212 82.8181C127.061 82.9074 126.944 83.0282 126.858 83.1804C126.773 83.3306 126.73 83.4981 126.727 83.6828V84.4469C126.727 84.6783 126.77 84.8782 126.855 85.0467C126.943 85.2152 127.065 85.3451 127.224 85.4364C127.382 85.5277 127.57 85.5734 127.787 85.5734C127.931 85.5734 128.063 85.5531 128.183 85.5125C128.302 85.4719 128.405 85.411 128.49 85.3298C128.575 85.2486 128.64 85.1492 128.685 85.0315L129.885 85.1106C129.824 85.3988 129.699 85.6505 129.51 85.8657C129.323 86.0788 129.082 86.2452 128.786 86.365C128.491 86.4827 128.151 86.5415 127.766 86.5415ZM132.055 83.7467V86.4502H130.758V81.7739H131.994V82.5989H132.049C132.153 82.327 132.326 82.1118 132.57 81.9535C132.813 81.7932 133.109 81.713 133.456 81.713C133.781 81.713 134.064 81.784 134.305 81.9261C134.547 82.0682 134.734 82.2711 134.868 82.535C135.002 82.7968 135.069 83.1094 135.069 83.4727V86.4502H133.772V83.7041C133.774 83.4179 133.701 83.1946 133.553 83.0343C133.405 82.8719 133.201 82.7907 132.941 82.7907C132.767 82.7907 132.612 82.8283 132.478 82.9034C132.347 82.9785 132.243 83.0881 132.168 83.2322C132.095 83.3743 132.057 83.5458 132.055 83.7467ZM138.579 81.7739V82.7481H135.763V81.7739H138.579ZM136.402 80.6535H137.699V85.0132C137.699 85.133 137.717 85.2263 137.754 85.2933C137.79 85.3582 137.841 85.4039 137.906 85.4303C137.973 85.4567 138.05 85.4699 138.137 85.4699C138.198 85.4699 138.259 85.4648 138.32 85.4547C138.381 85.4425 138.428 85.4333 138.46 85.4273L138.664 86.3924C138.599 86.4126 138.508 86.436 138.39 86.4624C138.272 86.4908 138.129 86.508 137.961 86.5141C137.648 86.5263 137.374 86.4847 137.139 86.3893C136.905 86.2939 136.724 86.1457 136.594 85.9448C136.464 85.7439 136.4 85.4902 136.402 85.1837V80.6535ZM139.424 86.4502V81.7739H140.721V86.4502H139.424ZM140.075 81.1711C139.882 81.1711 139.717 81.1071 139.579 80.9793C139.443 80.8494 139.375 80.6941 139.375 80.5135C139.375 80.3349 139.443 80.1816 139.579 80.0538C139.717 79.9239 139.882 79.8589 140.075 79.8589C140.268 79.8589 140.432 79.9239 140.568 80.0538C140.706 80.1816 140.775 80.3349 140.775 80.5135C140.775 80.6941 140.706 80.8494 140.568 80.9793C140.432 81.1071 140.268 81.1711 140.075 81.1711ZM143.891 86.5415C143.41 86.5415 142.996 86.4441 142.649 86.2493C142.304 86.0524 142.038 85.7743 141.851 85.4151C141.664 85.0538 141.571 84.6266 141.571 84.1334C141.571 83.6523 141.664 83.2302 141.851 82.8669C142.038 82.5035 142.3 82.2204 142.639 82.0174C142.98 81.8145 143.38 81.713 143.839 81.713C144.147 81.713 144.435 81.7627 144.701 81.8622C144.968 81.9596 145.202 82.1067 145.401 82.3036C145.602 82.5005 145.758 82.7481 145.87 83.0465C145.981 83.3428 146.037 83.6899 146.037 84.0877V84.4439H142.088V83.6401H144.816C144.816 83.4534 144.776 83.288 144.694 83.1439C144.613 82.9998 144.501 82.8871 144.356 82.806C144.214 82.7227 144.049 82.6811 143.86 82.6811C143.663 82.6811 143.489 82.7268 143.337 82.8181C143.186 82.9074 143.069 83.0282 142.983 83.1804C142.898 83.3306 142.855 83.4981 142.853 83.6828V84.4469C142.853 84.6783 142.895 84.8782 142.98 85.0467C143.068 85.2152 143.19 85.3451 143.349 85.4364C143.507 85.5277 143.695 85.5734 143.912 85.5734C144.056 85.5734 144.188 85.5531 144.308 85.5125C144.428 85.4719 144.53 85.411 144.615 85.3298C144.701 85.2486 144.765 85.1492 144.81 85.0315L146.01 85.1106C145.949 85.3988 145.824 85.6505 145.635 85.8657C145.448 86.0788 145.207 86.2452 144.911 86.365C144.616 86.4827 144.276 86.5415 143.891 86.5415Z" fill="#1F2937"/>
<g filter="url(#filter4_dd_2429_48186)">
<rect x="273.629" y="67.4092" width="54.0117" height="53.4178" rx="2.59739" fill="white"/>
</g>
<mask id="mask0_2429_48186" style="mask-type:alpha" maskUnits="userSpaceOnUse" x="277" y="70" width="48" height="48">
<rect x="277.135" y="70.876" width="47.0001" height="46.4833" rx="2.59739" fill="white"/>
</mask>
<g mask="url(#mask0_2429_48186)">
<path d="M310.121 97.9953C311.17 96.6219 313.238 96.6219 314.287 97.9953L326.138 113.507C327.456 115.232 326.226 117.72 324.055 117.72H300.353C298.181 117.72 296.951 115.232 298.269 113.507L310.121 97.9953Z" fill="#C4B5FD"/>
<path d="M287.61 92.1594C289.184 90.0993 292.286 90.0993 293.86 92.1594L313.474 117.83H275.951C272.694 117.83 270.849 114.098 272.826 111.51L287.61 92.1594Z" fill="#8B5CF6"/>
<ellipse cx="305.837" cy="84.4937" rx="6.15212" ry="6.08447" fill="#C4B5FD"/>
</g>
<rect x="78.0108" y="62.0108" width="256.152" height="64.2145" rx="5.39834" stroke="white" stroke-width="1.97844"/>
</g>
<g filter="url(#filter5_dd_2429_48186)">
<rect x="79" y="135.875" width="254.174" height="60.4329" rx="5.09423" fill="#F9FAFB"/>
<rect x="99.377" y="151.871" width="151.971" height="8.88719" rx="3.93416" fill="#E5E7EB"/>
<rect x="99.377" y="168.399" width="101.314" height="8.88719" rx="3.93416" fill="#E5E7EB"/>
<g filter="url(#filter6_dd_2429_48186)">
<rect x="271.852" y="140.969" width="54.9003" height="50.0793" rx="3.00098" fill="#E5E7EB"/>
<rect x="272.296" y="141.413" width="54.0116" height="49.1906" rx="2.55663" stroke="white" stroke-width="0.888719"/>
</g>
<mask id="mask1_2429_48186" style="mask-type:alpha" maskUnits="userSpaceOnUse" x="275" y="144" width="49" height="44">
<rect x="275.414" y="144.219" width="47.7733" height="43.5782" rx="3.00098" fill="white"/>
</mask>
<g mask="url(#mask1_2429_48186)">
<path d="M309.673 168.761C310.393 167.892 311.727 167.892 312.447 168.761L326.053 185.186C327.025 186.36 326.19 188.135 324.666 188.135H297.454C295.93 188.135 295.095 186.36 296.067 185.186L309.673 168.761Z" fill="#D1D5DB"/>
<path d="M287.853 162.01C288.573 161.141 289.906 161.141 290.626 162.01L309.909 185.288C310.881 186.461 310.046 188.237 308.522 188.237H269.957C268.433 188.237 267.598 186.461 268.57 185.288L287.853 162.01Z" fill="#9CA3AF"/>
<ellipse cx="304.59" cy="156.984" rx="6.25333" ry="5.70421" fill="#9CA3AF"/>
</g>
<rect x="78.1113" y="134.986" width="255.951" height="62.2104" rx="5.98295" stroke="white" stroke-width="1.77744"/>
</g>
<g filter="url(#filter7_dd_2429_48186)">
<path d="M64.5363 205.252C67.6967 209.512 72.3915 208.407 74.4892 203.347C76.7173 197.974 76.3659 192.314 74.0231 188.122C71.7687 183.415 64.8849 183.099 65.8057 188.865C63.6102 193.468 62.1935 201.059 64.5363 205.252Z" fill="#7857FF"/>
</g>
<g filter="url(#filter8_dd_2429_48186)">
<path d="M63.9203 204.365C66.2631 208.558 69.9422 208.225 72.1377 203.622C74.3332 199.019 74.2138 191.889 71.871 187.696C69.5281 183.503 65.8491 183.836 63.6536 188.439C61.458 193.042 61.5775 200.173 63.9203 204.365Z" fill="#8370FF"/>
</g>
<path d="M66.3016 188.453L71.3884 191.066C71.621 191.187 71.8276 191.474 71.9631 191.864C72.0985 192.255 72.1518 192.717 72.1113 193.15L71.2111 202.607C71.1693 203.039 71.0371 203.406 70.8434 203.627C70.6497 203.849 70.4103 203.906 70.1774 203.788L65.0907 201.175C64.858 201.054 64.6514 200.767 64.5159 200.377C64.3804 199.987 64.3271 199.524 64.3676 199.091L65.2678 189.635C65.3097 189.202 65.4419 188.836 65.6356 188.614C65.8293 188.393 66.0687 188.335 66.3016 188.453ZM70.274 191.976C70.1043 191.889 69.9413 192.076 69.9112 192.391L69.7806 193.761C69.7505 194.076 69.8646 194.405 70.0341 194.493L70.8075 194.89C70.9769 194.977 71.1401 194.791 71.1702 194.475L71.3009 193.105C71.3151 192.953 71.2964 192.791 71.2489 192.654C71.2014 192.517 71.129 192.416 71.0473 192.373L70.274 191.976ZM70.9809 196.499L70.3788 196.19C70.4035 196.574 70.3982 196.958 70.3629 197.328C70.1614 199.443 69.0454 200.67 67.8706 200.066C66.6961 199.463 65.9065 197.258 66.1077 195.142C66.1431 194.772 66.2078 194.419 66.2999 194.095L65.6715 193.772L65.16 199.146C65.1334 199.425 65.2343 199.714 65.3841 199.791L70.1497 202.239C70.2996 202.316 70.4429 202.152 70.4695 201.874L70.9809 196.499ZM68.4844 193.621C67.7253 193.231 67.0045 194.023 66.8744 195.391C66.7443 196.757 67.254 198.182 68.0131 198.572C68.7722 198.962 69.4931 198.169 69.6232 196.803C69.7531 195.435 69.2432 194.01 68.4844 193.621Z" fill="white"/>
<g filter="url(#filter9_dd_2429_48186)">
<path d="M37.0754 79.5036C40.5192 83.5053 45.1735 82.0364 46.9698 76.8263C48.8777 71.2925 48.1731 65.6754 45.556 61.6769C42.996 57.1593 36.0513 57.3817 37.3354 63.0606C35.4124 67.8233 34.4583 75.5051 37.0754 79.5036Z" fill="#7857FF"/>
</g>
<g filter="url(#filter10_dd_2429_48186)">
<path d="M36.3999 78.669C39.017 82.6675 42.6974 82.048 44.6204 77.2853C46.5434 72.5225 45.9807 65.4201 43.3637 61.4216C40.7466 57.4231 37.0661 58.0426 35.1431 62.8053C33.2201 67.568 33.7828 74.6704 36.3999 78.669Z" fill="#8370FF"/>
</g>
<path d="M38.1338 64.0488L43.7579 72.2081L38.1338 73.8737L38.1338 64.0488Z" fill="white"/>
<path opacity="0.4" d="M39.01 130.824L39.01 123.416C38.4275 123.096 37.9248 122.918 37.3567 122.829C36.6267 122.711 35.9505 122.809 35.3674 123.117C34.7843 123.424 34.3057 123.936 33.9595 124.621C33.2763 125.949 33.1346 127.866 33.5642 129.969L39.01 130.824Z" fill="#7857FF"/>
<path d="M41.7508 133.841L39.1601 131.257L33.6562 130.392C34.2768 133.047 35.5538 135.394 37.356 137.192C37.9389 137.775 38.548 138.252 39.1611 138.606C40.3687 139.306 41.547 139.503 42.5329 139.17C43.5187 138.837 44.2633 137.99 44.6634 136.747L41.7508 133.841Z" fill="#7857FF"/>
<path opacity="0.1" d="M42.7129 127.109L39.4043 131.09L44.7574 136.43C45.4614 133.787 44.6684 130.171 42.7129 127.109Z" fill="#7857FF"/>
<path opacity="0.62" d="M39.3105 130.54L42.4686 126.741C41.5 125.312 40.4892 124.304 39.3105 123.59L39.3105 130.54Z" fill="#7857FF"/>
<g filter="url(#filter11_dd_2429_48186)">
<path d="M67.7301 43.4046C73.497 45.7134 78.1261 41.4344 77.7758 34.7874C77.4038 27.7273 74.0155 22.0924 69.1923 19.3077C64.1953 15.9315 56.3819 20.1973 60.4591 25.5627C60.4591 31.8019 62.9069 40.62 67.7301 43.4046Z" fill="#7857FF"/>
</g>
<g filter="url(#filter12_dd_2429_48186)">
<path d="M66.574 42.9009C71.3972 45.6856 75.3072 42.8852 75.3072 36.6459C75.3072 30.4067 71.3972 23.0914 66.574 20.3068C61.7508 17.5221 57.8408 20.3225 57.8408 26.5617C57.8408 32.8009 61.7508 40.1162 66.574 42.9009Z" fill="#8370FF"/>
</g>
<path d="M68.8208 31.6218L67.8596 28.7414L66.2292 29.3036L65.4797 27.5108C65.14 26.6982 65.0415 26.0982 65.7249 25.8629L66.5959 25.5621L65.5464 23.0514C65.3817 23.0693 64.8327 23.1707 64.2301 23.3785C62.9728 23.8117 62.6599 25.4168 63.6643 27.819L64.5298 29.8892L63.1081 30.3794L64.2817 33.1868L65.7033 32.6967L68.7141 39.8991L70.4139 39.3132L67.403 32.1108L68.8208 31.6218Z" fill="white"/>
</g>
<defs>
<filter id="filter0_dd_2429_48186" x="199.56" y="36.4706" width="292.359" height="214.978" filterUnits="userSpaceOnUse" color-interpolation-filters="sRGB">
<feFlood flood-opacity="0" result="BackgroundImageFix"/>
<feColorMatrix in="SourceAlpha" type="matrix" values="0 0 0 0 0 0 0 0 0 0 0 0 0 0 0 0 0 0 127 0" result="hardAlpha"/>
<feMorphology radius="3.07554" operator="erode" in="SourceAlpha" result="effect1_dropShadow_2429_48186"/>
<feOffset dy="6.15108"/>
<feGaussianBlur stdDeviation="4.92086"/>
<feColorMatrix type="matrix" values="0 0 0 0 0 0 0 0 0 0 0 0 0 0 0 0 0 0 0.04 0"/>
<feBlend mode="normal" in2="BackgroundImageFix" result="effect1_dropShadow_2429_48186"/>
<feColorMatrix in="SourceAlpha" type="matrix" values="0 0 0 0 0 0 0 0 0 0 0 0 0 0 0 0 0 0 127 0" result="hardAlpha"/>
<feMorphology radius="3.07554" operator="erode" in="SourceAlpha" result="effect2_dropShadow_2429_48186"/>
<feOffset dy="12.3022"/>
<feGaussianBlur stdDeviation="9.84173"/>
<feColorMatrix type="matrix" values="0 0 0 0 0 0 0 0 0 0 0 0 0 0 0 0 0 0 0.1 0"/>
<feBlend mode="normal" in2="effect1_dropShadow_2429_48186" result="effect2_dropShadow_2429_48186"/>
<feBlend mode="normal" in="SourceGraphic" in2="effect2_dropShadow_2429_48186" result="shape"/>
</filter>
<filter id="filter1_d_2429_48186" x="300.065" y="83.2033" width="95.3266" height="13.811" filterUnits="userSpaceOnUse" color-interpolation-filters="sRGB">
<feFlood flood-opacity="0" result="BackgroundImageFix"/>
<feColorMatrix in="SourceAlpha" type="matrix" values="0 0 0 0 0 0 0 0 0 0 0 0 0 0 0 0 0 0 127 0" result="hardAlpha"/>
<feOffset dy="0.615108"/>
<feGaussianBlur stdDeviation="0.615108"/>
<feColorMatrix type="matrix" values="0 0 0 0 0 0 0 0 0 0 0 0 0 0 0 0 0 0 0.05 0"/>
<feBlend mode="normal" in2="BackgroundImageFix" result="effect1_dropShadow_2429_48186"/>
<feBlend mode="normal" in="SourceGraphic" in2="effect1_dropShadow_2429_48186" result="shape"/>
</filter>
<filter id="filter2_d_2429_48186" x="214.688" y="23.3722" width="264.624" height="20.1576" filterUnits="userSpaceOnUse" color-interpolation-filters="sRGB">
<feFlood flood-opacity="0" result="BackgroundImageFix"/>
<feColorMatrix in="SourceAlpha" type="matrix" values="0 0 0 0 0 0 0 0 0 0 0 0 0 0 0 0 0 0 127 0" result="hardAlpha"/>
<feOffset dy="0.733253"/>
<feGaussianBlur stdDeviation="0.733253"/>
<feColorMatrix type="matrix" values="0 0 0 0 0 0 0 0 0 0 0 0 0 0 0 0 0 0 0.05 0"/>
<feBlend mode="normal" in2="BackgroundImageFix" result="effect1_dropShadow_2429_48186"/>
<feBlend mode="normal" in="SourceGraphic" in2="effect1_dropShadow_2429_48186" result="shape"/>
</filter>
<filter id="filter3_dd_2429_48186" x="65.9987" y="61.0215" width="280.176" height="88.239" filterUnits="userSpaceOnUse" color-interpolation-filters="sRGB">
<feFlood flood-opacity="0" result="BackgroundImageFix"/>
<feColorMatrix in="SourceAlpha" type="matrix" values="0 0 0 0 0 0 0 0 0 0 0 0 0 0 0 0 0 0 127 0" result="hardAlpha"/>
<feMorphology radius="2.7557" operator="erode" in="SourceAlpha" result="effect1_dropShadow_2429_48186"/>
<feOffset dy="5.5114"/>
<feGaussianBlur stdDeviation="2.7557"/>
<feColorMatrix type="matrix" values="0 0 0 0 0 0 0 0 0 0 0 0 0 0 0 0 0 0 0.04 0"/>
<feBlend mode="normal" in2="BackgroundImageFix" result="effect1_dropShadow_2429_48186"/>
<feColorMatrix in="SourceAlpha" type="matrix" values="0 0 0 0 0 0 0 0 0 0 0 0 0 0 0 0 0 0 127 0" result="hardAlpha"/>
<feMorphology radius="2.7557" operator="erode" in="SourceAlpha" result="effect2_dropShadow_2429_48186"/>
<feOffset dy="11.0228"/>
<feGaussianBlur stdDeviation="6.88925"/>
<feColorMatrix type="matrix" values="0 0 0 0 0.654902 0 0 0 0 0.545098 0 0 0 0 0.980392 0 0 0 0.1 0"/>
<feBlend mode="normal" in2="effect1_dropShadow_2429_48186" result="effect2_dropShadow_2429_48186"/>
<feBlend mode="normal" in="SourceGraphic" in2="effect2_dropShadow_2429_48186" result="shape"/>
</filter>
<filter id="filter4_dd_2429_48186" x="271.421" y="66.9676" width="58.4275" height="57.8337" filterUnits="userSpaceOnUse" color-interpolation-filters="sRGB">
<feFlood flood-opacity="0" result="BackgroundImageFix"/>
<feColorMatrix in="SourceAlpha" type="matrix" values="0 0 0 0 0 0 0 0 0 0 0 0 0 0 0 0 0 0 127 0" result="hardAlpha"/>
<feMorphology radius="0.441575" operator="erode" in="SourceAlpha" result="effect1_dropShadow_2429_48186"/>
<feOffset dy="0.883151"/>
<feGaussianBlur stdDeviation="0.883151"/>
<feColorMatrix type="matrix" values="0 0 0 0 0 0 0 0 0 0 0 0 0 0 0 0 0 0 0.06 0"/>
<feBlend mode="normal" in2="BackgroundImageFix" result="effect1_dropShadow_2429_48186"/>
<feColorMatrix in="SourceAlpha" type="matrix" values="0 0 0 0 0 0 0 0 0 0 0 0 0 0 0 0 0 0 127 0" result="hardAlpha"/>
<feMorphology radius="0.441575" operator="erode" in="SourceAlpha" result="effect2_dropShadow_2429_48186"/>
<feOffset dy="1.7663"/>
<feGaussianBlur stdDeviation="1.32473"/>
<feColorMatrix type="matrix" values="0 0 0 0 0 0 0 0 0 0 0 0 0 0 0 0 0 0 0.1 0"/>
<feBlend mode="normal" in2="effect1_dropShadow_2429_48186" result="effect2_dropShadow_2429_48186"/>
<feBlend mode="normal" in="SourceGraphic" in2="effect2_dropShadow_2429_48186" result="shape"/>
</filter>
<filter id="filter5_dd_2429_48186" x="74.9808" y="132.603" width="262.212" height="68.4711" filterUnits="userSpaceOnUse" color-interpolation-filters="sRGB">
<feFlood flood-opacity="0" result="BackgroundImageFix"/>
<feColorMatrix in="SourceAlpha" type="matrix" values="0 0 0 0 0 0 0 0 0 0 0 0 0 0 0 0 0 0 127 0" result="hardAlpha"/>
<feOffset dy="0.747298"/>
<feGaussianBlur stdDeviation="0.747298"/>
<feColorMatrix type="matrix" values="0 0 0 0 0 0 0 0 0 0 0 0 0 0 0 0 0 0 0.06 0"/>
<feBlend mode="normal" in2="BackgroundImageFix" result="effect1_dropShadow_2429_48186"/>
<feColorMatrix in="SourceAlpha" type="matrix" values="0 0 0 0 0 0 0 0 0 0 0 0 0 0 0 0 0 0 127 0" result="hardAlpha"/>
<feOffset dy="0.747298"/>
<feGaussianBlur stdDeviation="1.12095"/>
<feColorMatrix type="matrix" values="0 0 0 0 0 0 0 0 0 0 0 0 0 0 0 0 0 0 0.1 0"/>
<feBlend mode="normal" in2="effect1_dropShadow_2429_48186" result="effect2_dropShadow_2429_48186"/>
<feBlend mode="normal" in="SourceGraphic" in2="effect2_dropShadow_2429_48186" result="shape"/>
</filter>
<filter id="filter6_dd_2429_48186" x="269.301" y="140.459" width="60.0023" height="55.181" filterUnits="userSpaceOnUse" color-interpolation-filters="sRGB">
<feFlood flood-opacity="0" result="BackgroundImageFix"/>
<feColorMatrix in="SourceAlpha" type="matrix" values="0 0 0 0 0 0 0 0 0 0 0 0 0 0 0 0 0 0 127 0" result="hardAlpha"/>
<feMorphology radius="0.51019" operator="erode" in="SourceAlpha" result="effect1_dropShadow_2429_48186"/>
<feOffset dy="1.02038"/>
<feGaussianBlur stdDeviation="1.02038"/>
<feColorMatrix type="matrix" values="0 0 0 0 0 0 0 0 0 0 0 0 0 0 0 0 0 0 0.06 0"/>
<feBlend mode="normal" in2="BackgroundImageFix" result="effect1_dropShadow_2429_48186"/>
<feColorMatrix in="SourceAlpha" type="matrix" values="0 0 0 0 0 0 0 0 0 0 0 0 0 0 0 0 0 0 127 0" result="hardAlpha"/>
<feMorphology radius="0.51019" operator="erode" in="SourceAlpha" result="effect2_dropShadow_2429_48186"/>
<feOffset dy="2.04076"/>
<feGaussianBlur stdDeviation="1.53057"/>
<feColorMatrix type="matrix" values="0 0 0 0 0 0 0 0 0 0 0 0 0 0 0 0 0 0 0.1 0"/>
<feBlend mode="normal" in2="effect1_dropShadow_2429_48186" result="effect2_dropShadow_2429_48186"/>
<feBlend mode="normal" in="SourceGraphic" in2="effect2_dropShadow_2429_48186" result="shape"/>
</filter>
<filter id="filter7_dd_2429_48186" x="59.6762" y="183.956" width="19.9592" height="30.6242" filterUnits="userSpaceOnUse" color-interpolation-filters="sRGB">
<feFlood flood-opacity="0" result="BackgroundImageFix"/>
<feColorMatrix in="SourceAlpha" type="matrix" values="0 0 0 0 0 0 0 0 0 0 0 0 0 0 0 0 0 0 127 0" result="hardAlpha"/>
<feMorphology radius="0.608657" operator="erode" in="SourceAlpha" result="effect1_dropShadow_2429_48186"/>
<feOffset dy="1.21731"/>
<feGaussianBlur stdDeviation="0.912985"/>
<feColorMatrix type="matrix" values="0 0 0 0 0 0 0 0 0 0 0 0 0 0 0 0 0 0 0.05 0"/>
<feBlend mode="normal" in2="BackgroundImageFix" result="effect1_dropShadow_2429_48186"/>
<feColorMatrix in="SourceAlpha" type="matrix" values="0 0 0 0 0 0 0 0 0 0 0 0 0 0 0 0 0 0 127 0" result="hardAlpha"/>
<feMorphology radius="0.912985" operator="erode" in="SourceAlpha" result="effect2_dropShadow_2429_48186"/>
<feOffset dy="3.04328"/>
<feGaussianBlur stdDeviation="2.28246"/>
<feColorMatrix type="matrix" values="0 0 0 0 0 0 0 0 0 0 0 0 0 0 0 0 0 0 0.1 0"/>
<feBlend mode="normal" in2="effect1_dropShadow_2429_48186" result="effect2_dropShadow_2429_48186"/>
<feBlend mode="normal" in="SourceGraphic" in2="effect2_dropShadow_2429_48186" result="shape"/>
</filter>
<filter id="filter8_dd_2429_48186" x="58.4301" y="184.148" width="18.9308" height="29.8517" filterUnits="userSpaceOnUse" color-interpolation-filters="sRGB">
<feFlood flood-opacity="0" result="BackgroundImageFix"/>
<feColorMatrix in="SourceAlpha" type="matrix" values="0 0 0 0 0 0 0 0 0 0 0 0 0 0 0 0 0 0 127 0" result="hardAlpha"/>
<feMorphology radius="0.608657" operator="erode" in="SourceAlpha" result="effect1_dropShadow_2429_48186"/>
<feOffset dy="1.21731"/>
<feGaussianBlur stdDeviation="0.912985"/>
<feColorMatrix type="matrix" values="0 0 0 0 0 0 0 0 0 0 0 0 0 0 0 0 0 0 0.05 0"/>
<feBlend mode="normal" in2="BackgroundImageFix" result="effect1_dropShadow_2429_48186"/>
<feColorMatrix in="SourceAlpha" type="matrix" values="0 0 0 0 0 0 0 0 0 0 0 0 0 0 0 0 0 0 127 0" result="hardAlpha"/>
<feMorphology radius="0.912985" operator="erode" in="SourceAlpha" result="effect2_dropShadow_2429_48186"/>
<feOffset dy="3.04328"/>
<feGaussianBlur stdDeviation="2.28246"/>
<feColorMatrix type="matrix" values="0 0 0 0 0 0 0 0 0 0 0 0 0 0 0 0 0 0 0.1 0"/>
<feBlend mode="normal" in2="effect1_dropShadow_2429_48186" result="effect2_dropShadow_2429_48186"/>
<feBlend mode="normal" in="SourceGraphic" in2="effect2_dropShadow_2429_48186" result="shape"/>
</filter>
<filter id="filter9_dd_2429_48186" x="31.8217" y="57.9128" width="19.882" height="30.5744" filterUnits="userSpaceOnUse" color-interpolation-filters="sRGB">
<feFlood flood-opacity="0" result="BackgroundImageFix"/>
<feColorMatrix in="SourceAlpha" type="matrix" values="0 0 0 0 0 0 0 0 0 0 0 0 0 0 0 0 0 0 127 0" result="hardAlpha"/>
<feMorphology radius="0.608657" operator="erode" in="SourceAlpha" result="effect1_dropShadow_2429_48186"/>
<feOffset dy="1.21731"/>
<feGaussianBlur stdDeviation="0.912985"/>
<feColorMatrix type="matrix" values="0 0 0 0 0 0 0 0 0 0 0 0 0 0 0 0 0 0 0.05 0"/>
<feBlend mode="normal" in2="BackgroundImageFix" result="effect1_dropShadow_2429_48186"/>
<feColorMatrix in="SourceAlpha" type="matrix" values="0 0 0 0 0 0 0 0 0 0 0 0 0 0 0 0 0 0 127 0" result="hardAlpha"/>
<feMorphology radius="0.912985" operator="erode" in="SourceAlpha" result="effect2_dropShadow_2429_48186"/>
<feOffset dy="3.04328"/>
<feGaussianBlur stdDeviation="2.28246"/>
<feColorMatrix type="matrix" values="0 0 0 0 0 0 0 0 0 0 0 0 0 0 0 0 0 0 0.1 0"/>
<feBlend mode="normal" in2="effect1_dropShadow_2429_48186" result="effect2_dropShadow_2429_48186"/>
<feBlend mode="normal" in="SourceGraphic" in2="effect2_dropShadow_2429_48186" result="shape"/>
</filter>
<filter id="filter10_dd_2429_48186" x="30.349" y="58.1765" width="19.0656" height="29.8244" filterUnits="userSpaceOnUse" color-interpolation-filters="sRGB">
<feFlood flood-opacity="0" result="BackgroundImageFix"/>
<feColorMatrix in="SourceAlpha" type="matrix" values="0 0 0 0 0 0 0 0 0 0 0 0 0 0 0 0 0 0 127 0" result="hardAlpha"/>
<feMorphology radius="0.608657" operator="erode" in="SourceAlpha" result="effect1_dropShadow_2429_48186"/>
<feOffset dy="1.21731"/>
<feGaussianBlur stdDeviation="0.912985"/>
<feColorMatrix type="matrix" values="0 0 0 0 0 0 0 0 0 0 0 0 0 0 0 0 0 0 0.05 0"/>
<feBlend mode="normal" in2="BackgroundImageFix" result="effect1_dropShadow_2429_48186"/>
<feColorMatrix in="SourceAlpha" type="matrix" values="0 0 0 0 0 0 0 0 0 0 0 0 0 0 0 0 0 0 127 0" result="hardAlpha"/>
<feMorphology radius="0.912985" operator="erode" in="SourceAlpha" result="effect2_dropShadow_2429_48186"/>
<feOffset dy="3.04328"/>
<feGaussianBlur stdDeviation="2.28246"/>
<feColorMatrix type="matrix" values="0 0 0 0 0 0 0 0 0 0 0 0 0 0 0 0 0 0 0.1 0"/>
<feBlend mode="normal" in2="effect1_dropShadow_2429_48186" result="effect2_dropShadow_2429_48186"/>
<feBlend mode="normal" in="SourceGraphic" in2="effect2_dropShadow_2429_48186" result="shape"/>
</filter>
<filter id="filter11_dd_2429_48186" x="55.6693" y="17.4978" width="25.7775" height="33.2336" filterUnits="userSpaceOnUse" color-interpolation-filters="sRGB">
<feFlood flood-opacity="0" result="BackgroundImageFix"/>
<feColorMatrix in="SourceAlpha" type="matrix" values="0 0 0 0 0 0 0 0 0 0 0 0 0 0 0 0 0 0 127 0" result="hardAlpha"/>
<feMorphology radius="0.608657" operator="erode" in="SourceAlpha" result="effect1_dropShadow_2429_48186"/>
<feOffset dy="1.21731"/>
<feGaussianBlur stdDeviation="0.912985"/>
<feColorMatrix type="matrix" values="0 0 0 0 0 0 0 0 0 0 0 0 0 0 0 0 0 0 0.05 0"/>
<feBlend mode="normal" in2="BackgroundImageFix" result="effect1_dropShadow_2429_48186"/>
<feColorMatrix in="SourceAlpha" type="matrix" values="0 0 0 0 0 0 0 0 0 0 0 0 0 0 0 0 0 0 127 0" result="hardAlpha"/>
<feMorphology radius="0.912985" operator="erode" in="SourceAlpha" result="effect2_dropShadow_2429_48186"/>
<feOffset dy="3.04328"/>
<feGaussianBlur stdDeviation="2.28246"/>
<feColorMatrix type="matrix" values="0 0 0 0 0 0 0 0 0 0 0 0 0 0 0 0 0 0 0.1 0"/>
<feBlend mode="normal" in2="effect1_dropShadow_2429_48186" result="effect2_dropShadow_2429_48186"/>
<feBlend mode="normal" in="SourceGraphic" in2="effect2_dropShadow_2429_48186" result="shape"/>
</filter>
<filter id="filter12_dd_2429_48186" x="54.1889" y="18.6208" width="24.7707" height="32.0529" filterUnits="userSpaceOnUse" color-interpolation-filters="sRGB">
<feFlood flood-opacity="0" result="BackgroundImageFix"/>
<feColorMatrix in="SourceAlpha" type="matrix" values="0 0 0 0 0 0 0 0 0 0 0 0 0 0 0 0 0 0 127 0" result="hardAlpha"/>
<feMorphology radius="0.608657" operator="erode" in="SourceAlpha" result="effect1_dropShadow_2429_48186"/>
<feOffset dy="1.21731"/>
<feGaussianBlur stdDeviation="0.912985"/>
<feColorMatrix type="matrix" values="0 0 0 0 0 0 0 0 0 0 0 0 0 0 0 0 0 0 0.05 0"/>
<feBlend mode="normal" in2="BackgroundImageFix" result="effect1_dropShadow_2429_48186"/>
<feColorMatrix in="SourceAlpha" type="matrix" values="0 0 0 0 0 0 0 0 0 0 0 0 0 0 0 0 0 0 127 0" result="hardAlpha"/>
<feMorphology radius="0.912985" operator="erode" in="SourceAlpha" result="effect2_dropShadow_2429_48186"/>
<feOffset dy="3.04328"/>
<feGaussianBlur stdDeviation="2.28246"/>
<feColorMatrix type="matrix" values="0 0 0 0 0 0 0 0 0 0 0 0 0 0 0 0 0 0 0.1 0"/>
<feBlend mode="normal" in2="effect1_dropShadow_2429_48186" result="effect2_dropShadow_2429_48186"/>
<feBlend mode="normal" in="SourceGraphic" in2="effect2_dropShadow_2429_48186" result="shape"/>
</filter>
<clipPath id="clip0_2429_48186">
<rect width="448" height="198" rx="8" fill="white"/>
</clipPath>
</defs>
</svg>
