<svg viewBox="0 0 692 264" fill="none" xmlns="http://www.w3.org/2000/svg">
<g clip-path="url(#clip0_2429_48058)">
<rect width="692" height="264" rx="8" fill="#E5E7EB"/>
<g filter="url(#filter0_dd_2429_48058)">
<path d="M82 61H529V343.127C529 347.475 525.475 351 521.127 351H89.8729C85.5248 351 82 347.475 82 343.127V61Z" fill="url(#paint0_linear_2429_48058)"/>
<path d="M82 59.5H80.5V61V343.127C80.5 348.304 84.6964 352.5 89.8729 352.5H521.127C526.304 352.5 530.5 348.304 530.5 343.127V61V59.5H529H82Z" stroke="white" stroke-width="3"/>
</g>
<path d="M283.863 131.312L283.433 132.275H277.684L278.047 131.312H283.863ZM283.024 133.127L282.534 134.116H277.684L278.047 133.127H283.024ZM285.006 128.972L284.23 130.621C284.139 130.57 284.02 130.502 283.872 130.417C283.727 130.329 283.554 130.251 283.352 130.182C283.153 130.114 282.927 130.08 282.675 130.08C282.311 130.08 281.998 130.17 281.737 130.349C281.476 130.525 281.274 130.806 281.132 131.192C280.993 131.579 280.923 132.086 280.923 132.714C280.923 133.347 280.993 133.856 281.132 134.239C281.274 134.62 281.476 134.895 281.737 135.066C281.998 135.236 282.311 135.322 282.675 135.322C282.925 135.322 283.148 135.289 283.344 135.224C283.542 135.158 283.713 135.084 283.855 135.002C284 134.917 284.113 134.846 284.196 134.789L284.976 136.442C284.663 136.689 284.311 136.876 283.919 137.001C283.53 137.123 283.115 137.184 282.675 137.184C281.916 137.184 281.244 137.009 280.659 136.66C280.077 136.31 279.621 135.803 279.291 135.138C278.961 134.471 278.797 133.662 278.797 132.714C278.797 131.768 278.961 130.959 279.291 130.289C279.621 129.618 280.077 129.106 280.659 128.751C281.244 128.395 281.916 128.218 282.675 128.218C283.132 128.218 283.554 128.283 283.94 128.414C284.329 128.545 284.684 128.731 285.006 128.972ZM290.322 128.337V137.064H288.216V130.306H288.165L286.214 131.499V129.675L288.366 128.337H290.322ZM292.251 137.064V135.547L295.434 132.76C295.673 132.545 295.876 132.347 296.044 132.168C296.211 131.986 296.339 131.805 296.427 131.623C296.515 131.438 296.559 131.238 296.559 131.022C296.559 130.78 296.507 130.574 296.401 130.404C296.296 130.231 296.151 130.097 295.967 130.003C295.782 129.91 295.57 129.863 295.332 129.863C295.09 129.863 294.879 129.912 294.697 130.012C294.515 130.108 294.373 130.249 294.271 130.434C294.171 130.618 294.122 130.843 294.122 131.107H292.123C292.123 130.513 292.257 130.001 292.524 129.569C292.791 129.137 293.166 128.805 293.649 128.572C294.134 128.336 294.698 128.218 295.34 128.218C296.002 128.218 296.578 128.329 297.066 128.55C297.555 128.772 297.933 129.081 298.2 129.479C298.47 129.874 298.605 130.333 298.605 130.856C298.605 131.188 298.538 131.518 298.404 131.844C298.271 132.171 298.031 132.532 297.684 132.927C297.34 133.322 296.852 133.795 296.218 134.346L295.174 135.309V135.364H298.711V137.064H292.251ZM302.047 135.871L302.008 136.344C301.974 136.736 301.905 137.118 301.8 137.491C301.697 137.866 301.588 138.202 301.471 138.501C301.355 138.799 301.263 139.03 301.194 139.195H299.882C299.927 139.03 299.988 138.799 300.065 138.501C300.145 138.202 300.219 137.866 300.287 137.491C300.355 137.116 300.393 136.735 300.402 136.349L300.41 135.871H302.047ZM306.728 128.218C307.205 128.218 307.661 128.296 308.096 128.452C308.53 128.606 308.918 128.851 309.259 129.189C309.6 129.525 309.868 129.966 310.064 130.515C310.26 131.063 310.358 131.732 310.358 132.522C310.361 133.249 310.276 133.901 310.103 134.478C309.93 135.052 309.681 135.54 309.357 135.944C309.036 136.347 308.65 136.655 308.198 136.868C307.746 137.079 307.242 137.184 306.685 137.184C306.072 137.184 305.53 137.066 305.062 136.83C304.596 136.591 304.222 136.27 303.941 135.867C303.662 135.464 303.496 135.012 303.442 134.512H305.518C305.583 134.802 305.721 135.02 305.931 135.168C306.141 135.313 306.393 135.385 306.685 135.385C307.219 135.385 307.618 135.154 307.883 134.691C308.147 134.228 308.279 133.599 308.279 132.803H308.228C308.106 133.064 307.932 133.289 307.708 133.476C307.486 133.664 307.229 133.807 306.937 133.907C306.644 134.006 306.336 134.056 306.012 134.056C305.489 134.056 305.028 133.937 304.627 133.698C304.229 133.459 303.917 133.131 303.689 132.714C303.465 132.296 303.351 131.819 303.349 131.282C303.346 130.68 303.486 130.148 303.77 129.688C304.055 129.225 304.451 128.864 304.959 128.606C305.468 128.344 306.057 128.215 306.728 128.218ZM306.741 129.837C306.479 129.837 306.246 129.898 306.042 130.02C305.84 130.143 305.681 130.307 305.564 130.515C305.448 130.722 305.391 130.955 305.394 131.214C305.397 131.472 305.455 131.705 305.569 131.912C305.685 132.12 305.843 132.285 306.042 132.407C306.243 132.529 306.474 132.59 306.732 132.59C306.925 132.59 307.104 132.555 307.269 132.483C307.434 132.412 307.577 132.314 307.699 132.189C307.822 132.062 307.917 131.914 307.985 131.746C308.056 131.579 308.09 131.4 308.087 131.209C308.084 130.956 308.025 130.726 307.908 130.519C307.792 130.312 307.631 130.147 307.427 130.025C307.225 129.9 306.996 129.837 306.741 129.837ZM314.802 128.218C315.279 128.218 315.735 128.296 316.17 128.452C316.605 128.606 316.992 128.851 317.333 129.189C317.674 129.525 317.943 129.966 318.139 130.515C318.335 131.063 318.433 131.732 318.433 132.522C318.436 133.249 318.35 133.901 318.177 134.478C318.004 135.052 317.755 135.54 317.431 135.944C317.11 136.347 316.724 136.655 316.272 136.868C315.82 137.079 315.316 137.184 314.759 137.184C314.146 137.184 313.605 137.066 313.136 136.83C312.67 136.591 312.296 136.27 312.015 135.867C311.737 135.464 311.57 135.012 311.517 134.512H313.592C313.657 134.802 313.795 135.02 314.005 135.168C314.215 135.313 314.467 135.385 314.759 135.385C315.294 135.385 315.693 135.154 315.957 134.691C316.221 134.228 316.353 133.599 316.353 132.803H316.302C316.18 133.064 316.007 133.289 315.782 133.476C315.561 133.664 315.303 133.807 315.011 133.907C314.718 134.006 314.41 134.056 314.086 134.056C313.563 134.056 313.102 133.937 312.701 133.698C312.303 133.459 311.991 133.131 311.764 132.714C311.539 132.296 311.426 131.819 311.423 131.282C311.42 130.68 311.561 130.148 311.845 129.688C312.129 129.225 312.525 128.864 313.034 128.606C313.542 128.344 314.132 128.215 314.802 128.218ZM314.815 129.837C314.553 129.837 314.32 129.898 314.116 130.02C313.914 130.143 313.755 130.307 313.639 130.515C313.522 130.722 313.465 130.955 313.468 131.214C313.471 131.472 313.529 131.705 313.643 131.912C313.759 132.12 313.917 132.285 314.116 132.407C314.318 132.529 314.548 132.59 314.806 132.59C314.999 132.59 315.178 132.555 315.343 132.483C315.508 132.412 315.651 132.314 315.774 132.189C315.896 132.062 315.991 131.914 316.059 131.746C316.13 131.579 316.164 131.4 316.161 131.209C316.159 130.956 316.099 130.726 315.982 130.519C315.866 130.312 315.705 130.147 315.501 130.025C315.299 129.9 315.07 129.837 314.815 129.837Z" fill="#4B5563"/>
<rect x="135" y="100" width="100.059" height="117.569" rx="7.14961" fill="#E5E7EB"/>
<rect x="275.082" y="160.035" width="186.36" height="10.0059" rx="4.42678" fill="#E5E7EB"/>
<rect x="275.082" y="180.047" width="115.068" height="10.0059" rx="4.42678" fill="#E5E7EB"/>
<rect x="275.082" y="200.059" width="80.0471" height="17.5103" rx="8.75515" fill="#8B5CF6"/>
<rect x="293.843" y="205.062" width="42.525" height="7.50442" rx="3.75221" fill="#C4B5FD"/>
<rect x="275.082" y="100" width="66.289" height="10.0059" rx="4.42678" fill="#4B5563"/>
<rect x="135" y="262.596" width="66.289" height="10.0059" rx="4.42678" fill="#4B5563"/>
<g filter="url(#filter1_dd_2429_48058)">
<rect x="154" y="130" width="61.7746" height="61" rx="3.37675" fill="#E5E7EB"/>
<rect x="154.5" y="130.5" width="60.7746" height="60" rx="2.87675" stroke="white"/>
</g>
<mask id="mask0_2429_48058" style="mask-type:alpha" maskUnits="userSpaceOnUse" x="158" y="133" width="54" height="55">
<rect x="158.01" y="133.959" width="53.7552" height="53.0811" rx="3.37675" fill="white"/>
</mask>
<g mask="url(#mask0_2429_48058)">
<path d="M196.51 163.916C197.321 162.856 198.917 162.856 199.728 163.916L215.246 184.194C216.266 185.528 215.315 187.452 213.637 187.452H182.602C180.923 187.452 179.972 185.528 180.993 184.194L196.51 163.916Z" fill="#D1D5DB"/>
<path d="M171.958 155.694C172.769 154.635 174.365 154.635 175.176 155.694L197.08 184.32C198.1 185.653 197.15 187.577 195.471 187.577H151.662C149.983 187.577 149.033 185.653 150.053 184.32L171.958 155.694Z" fill="#9CA3AF"/>
<ellipse cx="190.838" cy="149.51" rx="7.03633" ry="6.94811" fill="#9CA3AF"/>
</g>
<rect x="164.15" y="137.457" width="42" height="42" stroke="black"/>
<g filter="url(#filter2_d_2429_48058)">
<mask id="path-19-outside-1_2429_48058" maskUnits="userSpaceOnUse" x="79" y="33" width="453" height="29" fill="black">
<rect fill="white" x="79" y="33" width="453" height="29"/>
<path d="M82 38.4261C82 37.0862 83.0862 36 84.4261 36H526.574C527.914 36 529 37.0862 529 38.4261V62H82V38.4261Z"/>
</mask>
<path d="M82 38.4261C82 37.0862 83.0862 36 84.4261 36H526.574C527.914 36 529 37.0862 529 38.4261V62H82V38.4261Z" fill="#F9FAFB"/>
<path d="M79 38.4261C79 35.4294 81.4294 33 84.4261 33H526.574C529.571 33 532 35.4294 532 38.4261L526 39H85L79 38.4261ZM529 62H82H529ZM79 62V38.4261C79 35.4294 81.4294 33 84.4261 33L85 39V62H79ZM526.574 33C529.571 33 532 35.4294 532 38.4261V62H526V39L526.574 33Z" fill="white" mask="url(#path-19-outside-1_2429_48058)"/>
</g>
<circle cx="94.8762" cy="47.7961" r="2.91135" fill="#EF4444"/>
<circle cx="104.581" cy="47.7961" r="2.91135" fill="#F59E0B"/>
<circle cx="114.285" cy="47.7961" r="2.91135" fill="#10B981"/>
<rect x="203" y="43.0098" width="210.601" height="11.9207" rx="2.38414" fill="#E5E7EB"/>
<g filter="url(#filter3_dd_2429_48058)">
<rect x="421" y="98" width="193.944" height="189.351" rx="3.33101" fill="url(#paint1_linear_2429_48058)" stroke="white" stroke-width="2"/>
<rect x="441.432" y="207.983" width="154.612" height="22.9621" rx="4.33101" fill="#E5E7EB"/>
<path d="M458.559 216.857L460.02 221.132H460.079L461.54 216.857H462.397L460.507 222.106H459.592L457.703 216.857H458.559ZM464.395 222.186C464.007 222.186 463.673 222.103 463.393 221.937C463.115 221.77 462.899 221.535 462.747 221.232C462.597 220.928 462.522 220.572 462.522 220.163C462.522 219.76 462.597 219.405 462.747 219.097C462.899 218.789 463.111 218.549 463.383 218.377C463.656 218.204 463.976 218.118 464.342 218.118C464.564 218.118 464.779 218.155 464.988 218.228C465.196 218.302 465.383 218.417 465.549 218.574C465.715 218.731 465.845 218.936 465.941 219.187C466.037 219.436 466.085 219.74 466.085 220.097V220.369H462.955V219.794H465.334C465.334 219.593 465.293 219.414 465.211 219.259C465.128 219.101 465.013 218.977 464.864 218.887C464.718 218.796 464.545 218.751 464.347 218.751C464.131 218.751 463.943 218.804 463.783 218.91C463.624 219.014 463.501 219.151 463.414 219.32C463.328 219.488 463.285 219.67 463.285 219.866V220.315C463.285 220.578 463.332 220.802 463.424 220.986C463.518 221.171 463.649 221.312 463.816 221.409C463.984 221.505 464.179 221.553 464.403 221.553C464.548 221.553 464.681 221.532 464.8 221.491C464.92 221.449 465.023 221.385 465.111 221.302C465.198 221.218 465.264 221.114 465.31 220.991L466.036 221.122C465.978 221.336 465.874 221.523 465.723 221.683C465.575 221.842 465.387 221.966 465.162 222.055C464.938 222.142 464.682 222.186 464.395 222.186ZM466.935 222.106V218.169H467.701V222.106H466.935ZM467.322 217.562C467.189 217.562 467.074 217.517 466.979 217.428C466.885 217.338 466.838 217.23 466.838 217.105C466.838 216.979 466.885 216.871 466.979 216.782C467.074 216.692 467.189 216.647 467.322 216.647C467.455 216.647 467.569 216.692 467.663 216.782C467.759 216.871 467.807 216.979 467.807 217.105C467.807 217.23 467.759 217.338 467.663 217.428C467.569 217.517 467.455 217.562 467.322 217.562ZM469.499 216.857V222.106H468.733V216.857H469.499ZM470.53 222.106V218.169H471.297V222.106H470.53ZM470.917 217.562C470.784 217.562 470.669 217.517 470.574 217.428C470.48 217.338 470.433 217.23 470.433 217.105C470.433 216.979 470.48 216.871 470.574 216.782C470.669 216.692 470.784 216.647 470.917 216.647C471.05 216.647 471.164 216.692 471.258 216.782C471.354 216.871 471.402 216.979 471.402 217.105C471.402 217.23 471.354 217.338 471.258 217.428C471.164 217.517 471.05 217.562 470.917 217.562ZM473.978 223.665C473.666 223.665 473.397 223.624 473.171 223.542C472.947 223.46 472.764 223.351 472.622 223.216C472.481 223.081 472.375 222.934 472.305 222.773L472.963 222.501C473.009 222.576 473.071 222.656 473.148 222.74C473.226 222.825 473.332 222.898 473.466 222.957C473.601 223.017 473.774 223.047 473.986 223.047C474.277 223.047 474.517 222.976 474.706 222.834C474.896 222.694 474.991 222.47 474.991 222.163V221.389H474.942C474.896 221.472 474.829 221.566 474.742 221.668C474.657 221.771 474.539 221.86 474.389 221.935C474.238 222.01 474.042 222.047 473.802 222.047C473.491 222.047 473.21 221.975 472.961 221.83C472.713 221.683 472.516 221.466 472.371 221.181C472.228 220.894 472.156 220.541 472.156 220.122C472.156 219.704 472.227 219.345 472.369 219.046C472.512 218.747 472.709 218.518 472.958 218.359C473.208 218.198 473.491 218.118 473.807 218.118C474.051 218.118 474.248 218.159 474.399 218.241C474.549 218.321 474.666 218.415 474.75 218.523C474.835 218.631 474.901 218.725 474.947 218.807H475.004V218.169H475.755V222.194C475.755 222.532 475.676 222.81 475.519 223.027C475.362 223.244 475.149 223.404 474.881 223.509C474.614 223.613 474.313 223.665 473.978 223.665ZM473.971 221.412C474.191 221.412 474.377 221.361 474.53 221.258C474.683 221.154 474.8 221.005 474.878 220.812C474.958 220.617 474.999 220.384 474.999 220.112C474.999 219.847 474.959 219.614 474.881 219.412C474.802 219.211 474.687 219.054 474.535 218.941C474.383 218.826 474.195 218.769 473.971 218.769C473.74 218.769 473.548 218.829 473.394 218.948C473.24 219.066 473.124 219.227 473.045 219.43C472.968 219.634 472.93 219.861 472.93 220.112C472.93 220.37 472.969 220.597 473.048 220.791C473.127 220.986 473.243 221.138 473.397 221.248C473.552 221.357 473.743 221.412 473.971 221.412ZM478.755 222.106V216.857H480.677C481.05 216.857 481.358 216.918 481.602 217.041C481.847 217.163 482.03 217.328 482.151 217.536C482.272 217.743 482.333 217.976 482.333 218.236C482.333 218.455 482.293 218.639 482.212 218.789C482.132 218.938 482.025 219.058 481.89 219.148C481.756 219.237 481.609 219.302 481.449 219.343V219.394C481.623 219.403 481.793 219.459 481.959 219.564C482.126 219.666 482.265 219.812 482.374 220.002C482.483 220.192 482.538 220.422 482.538 220.694C482.538 220.962 482.475 221.203 482.348 221.417C482.224 221.629 482.03 221.797 481.769 221.922C481.508 222.045 481.173 222.106 480.767 222.106H478.755ZM479.547 221.427H480.69C481.069 221.427 481.341 221.354 481.505 221.207C481.669 221.06 481.751 220.876 481.751 220.656C481.751 220.49 481.709 220.338 481.625 220.199C481.542 220.061 481.422 219.951 481.267 219.869C481.113 219.787 480.93 219.746 480.718 219.746H479.547V221.427ZM479.547 219.128H480.608C480.786 219.128 480.945 219.094 481.087 219.025C481.231 218.957 481.344 218.861 481.428 218.738C481.514 218.613 481.556 218.467 481.556 218.297C481.556 218.08 481.48 217.898 481.328 217.751C481.176 217.604 480.943 217.531 480.628 217.531H479.547V219.128ZM485.113 222.186C484.725 222.186 484.391 222.103 484.111 221.937C483.832 221.77 483.617 221.535 483.465 221.232C483.314 220.928 483.239 220.572 483.239 220.163C483.239 219.76 483.314 219.405 483.465 219.097C483.617 218.789 483.829 218.549 484.1 218.377C484.374 218.204 484.693 218.118 485.059 218.118C485.281 218.118 485.497 218.155 485.705 218.228C485.914 218.302 486.101 218.417 486.266 218.574C486.432 218.731 486.563 218.936 486.659 219.187C486.754 219.436 486.802 219.74 486.802 220.097V220.369H483.672V219.794H486.051C486.051 219.593 486.01 219.414 485.928 219.259C485.846 219.101 485.731 218.977 485.582 218.887C485.435 218.796 485.262 218.751 485.064 218.751C484.849 218.751 484.661 218.804 484.5 218.91C484.341 219.014 484.218 219.151 484.131 219.32C484.046 219.488 484.003 219.67 484.003 219.866V220.315C484.003 220.578 484.049 220.802 484.141 220.986C484.235 221.171 484.366 221.312 484.534 221.409C484.701 221.505 484.897 221.553 485.121 221.553C485.266 221.553 485.398 221.532 485.518 221.491C485.638 221.449 485.741 221.385 485.828 221.302C485.915 221.218 485.982 221.114 486.028 220.991L486.753 221.122C486.695 221.336 486.591 221.523 486.441 221.683C486.292 221.842 486.105 221.966 485.879 222.055C485.655 222.142 485.4 222.186 485.113 222.186ZM489.49 218.169V218.784H487.34V218.169H489.49ZM487.917 217.226H488.683V220.95C488.683 221.099 488.705 221.211 488.75 221.286C488.794 221.36 488.851 221.41 488.921 221.437C488.993 221.463 489.071 221.476 489.155 221.476C489.216 221.476 489.27 221.472 489.316 221.463C489.362 221.455 489.398 221.448 489.424 221.443L489.562 222.076C489.518 222.093 489.455 222.11 489.373 222.127C489.29 222.146 489.188 222.156 489.065 222.158C488.863 222.161 488.675 222.125 488.501 222.05C488.327 221.975 488.186 221.859 488.078 221.701C487.97 221.544 487.917 221.347 487.917 221.109V217.226ZM491.484 222.194C491.235 222.194 491.009 222.147 490.807 222.055C490.606 221.961 490.446 221.825 490.328 221.648C490.212 221.47 490.154 221.252 490.154 220.994C490.154 220.772 490.196 220.589 490.282 220.445C490.367 220.302 490.483 220.188 490.628 220.104C490.773 220.021 490.936 219.958 491.115 219.915C491.294 219.872 491.477 219.84 491.663 219.817C491.899 219.79 492.091 219.768 492.238 219.751C492.385 219.732 492.491 219.702 492.558 219.661C492.625 219.62 492.658 219.553 492.658 219.461V219.443C492.658 219.219 492.595 219.046 492.468 218.923C492.344 218.8 492.157 218.738 491.91 218.738C491.652 218.738 491.448 218.795 491.3 218.91C491.153 219.023 491.051 219.148 490.994 219.287L490.274 219.123C490.36 218.883 490.484 218.69 490.648 218.543C490.814 218.395 491.005 218.287 491.22 218.22C491.435 218.152 491.662 218.118 491.899 218.118C492.057 218.118 492.223 218.137 492.399 218.174C492.577 218.21 492.743 218.277 492.896 218.374C493.052 218.472 493.179 218.611 493.278 218.792C493.378 218.971 493.427 219.205 493.427 219.492V222.106H492.679V221.568H492.648C492.598 221.667 492.524 221.765 492.425 221.86C492.326 221.956 492.198 222.036 492.043 222.099C491.887 222.162 491.701 222.194 491.484 222.194ZM491.651 221.578C491.863 221.578 492.044 221.537 492.194 221.453C492.346 221.369 492.462 221.26 492.54 221.125C492.62 220.988 492.661 220.842 492.661 220.686V220.179C492.633 220.206 492.58 220.232 492.502 220.256C492.425 220.278 492.337 220.298 492.238 220.315C492.139 220.33 492.042 220.345 491.948 220.358C491.854 220.37 491.775 220.38 491.712 220.389C491.564 220.408 491.428 220.439 491.305 220.484C491.183 220.528 491.086 220.592 491.012 220.676C490.941 220.758 490.905 220.867 490.905 221.004C490.905 221.194 490.975 221.337 491.115 221.435C491.255 221.531 491.434 221.578 491.651 221.578ZM495.214 216.857V222.106H494.448V216.857H495.214ZM497.942 222.186C497.554 222.186 497.22 222.103 496.94 221.937C496.662 221.77 496.446 221.535 496.294 221.232C496.144 220.928 496.069 220.572 496.069 220.163C496.069 219.76 496.144 219.405 496.294 219.097C496.446 218.789 496.658 218.549 496.93 218.377C497.203 218.204 497.523 218.118 497.889 218.118C498.111 218.118 498.326 218.155 498.535 218.228C498.743 218.302 498.93 218.417 499.096 218.574C499.262 218.731 499.392 218.936 499.488 219.187C499.584 219.436 499.632 219.74 499.632 220.097V220.369H496.502V219.794H498.881C498.881 219.593 498.84 219.414 498.758 219.259C498.676 219.101 498.56 218.977 498.411 218.887C498.265 218.796 498.092 218.751 497.894 218.751C497.678 218.751 497.49 218.804 497.33 218.91C497.171 219.014 497.048 219.151 496.961 219.32C496.875 219.488 496.832 219.67 496.832 219.866V220.315C496.832 220.578 496.879 220.802 496.971 220.986C497.065 221.171 497.196 221.312 497.363 221.409C497.531 221.505 497.726 221.553 497.95 221.553C498.095 221.553 498.228 221.532 498.347 221.491C498.467 221.449 498.57 221.385 498.658 221.302C498.745 221.218 498.811 221.114 498.857 220.991L499.583 221.122C499.525 221.336 499.421 221.523 499.27 221.683C499.122 221.842 498.934 221.966 498.709 222.055C498.485 222.142 498.229 222.186 497.942 222.186ZM501.248 219.769V222.106H500.482V218.169H501.218V218.81H501.266C501.357 218.602 501.499 218.434 501.692 218.308C501.887 218.181 502.132 218.118 502.428 218.118C502.696 218.118 502.931 218.174 503.133 218.287C503.334 218.398 503.491 218.564 503.602 218.784C503.713 219.005 503.768 219.277 503.768 219.602V222.106H503.002V219.694C503.002 219.409 502.927 219.186 502.779 219.025C502.63 218.863 502.426 218.782 502.166 218.782C501.988 218.782 501.83 218.82 501.692 218.897C501.555 218.974 501.447 219.087 501.366 219.236C501.288 219.382 501.248 219.56 501.248 219.769Z" fill="#1F2937"/>
<path d="M559.474 222.106V216.857H562.765V217.539H560.266V219.138H562.594V219.817H560.266V221.425H562.796V222.106H559.474ZM568.061 216.857V222.106H567.333L564.664 218.256H564.615V222.106H563.823V216.857H564.557L567.228 220.712H567.276V216.857H568.061ZM568.957 217.539V216.857H573.02V217.539H571.382V222.106H570.593V217.539H568.957ZM573.918 222.106V216.857H577.209V217.539H574.71V219.138H577.037V219.817H574.71V221.425H577.24V222.106H573.918ZM578.267 222.106V216.857H580.138C580.545 216.857 580.883 216.927 581.151 217.067C581.421 217.207 581.623 217.401 581.756 217.649C581.889 217.895 581.956 218.179 581.956 218.502C581.956 218.824 581.888 219.106 581.753 219.351C581.62 219.594 581.418 219.782 581.148 219.917C580.88 220.052 580.543 220.12 580.136 220.12H578.718V219.438H580.064C580.32 219.438 580.529 219.401 580.69 219.328C580.852 219.254 580.971 219.148 581.046 219.007C581.121 218.867 581.159 218.699 581.159 218.502C581.159 218.304 581.12 218.132 581.043 217.987C580.968 217.842 580.849 217.731 580.687 217.654C580.526 217.575 580.315 217.536 580.054 217.536H579.059V222.106H578.267ZM580.859 219.738L582.156 222.106H581.253L579.982 219.738H580.859Z" fill="#10B981"/>
<rect x="441.432" y="239.365" width="154.612" height="22.9621" rx="4.33101" fill="#4B5563"/>
<rect x="481.999" y="247.02" width="97.9718" height="8.41945" rx="4.20972" fill="#9CA3AF"/>
<path d="M459.972 253.635C459.674 253.635 457.888 253.635 457.59 253.635C457.293 253.635 456.995 253.334 456.995 253.033C456.995 252.733 457.293 252.432 457.59 252.432C457.888 252.432 459.674 252.432 459.972 252.432C460.269 252.432 460.567 252.733 460.567 253.033C460.567 253.334 460.269 253.635 459.972 253.635Z" fill="white"/>
<path fill-rule="evenodd" clip-rule="evenodd" d="M465.925 249.425C465.925 248.097 464.859 247.02 463.543 247.02H457.59C456.275 247.02 455.209 248.097 455.209 249.425V253.033C455.209 254.362 456.275 255.439 457.59 255.439H463.543C464.859 255.439 465.925 254.362 465.925 253.033V249.425ZM464.734 250.628H456.4V252.793C456.4 253.473 456.4 253.813 456.611 254.025C456.822 254.236 457.163 254.236 457.843 254.236H463.29C463.971 254.236 464.311 254.236 464.523 254.025C464.734 253.813 464.734 253.473 464.734 252.793V250.628ZM459.972 253.635H457.59C457.293 253.635 456.995 253.334 456.995 253.033C456.995 252.733 457.293 252.432 457.59 252.432H459.972C460.269 252.432 460.567 252.733 460.567 253.033C460.567 253.334 460.269 253.635 459.972 253.635ZM464.734 249.425H456.4C456.4 248.976 456.4 248.751 456.496 248.583C456.56 248.474 456.651 248.382 456.761 248.319C456.928 248.222 457.153 248.222 457.602 248.222H463.531C463.981 248.222 464.205 248.222 464.373 248.319C464.483 248.382 464.574 248.474 464.637 248.583C464.734 248.751 464.734 248.976 464.734 249.425Z" fill="white"/>
<rect x="444.493" y="119.196" width="97.9718" height="11.4811" rx="4.33101" fill="#4B5563"/>
<rect x="444.493" y="139.862" width="97.9718" height="9.18485" rx="4.33101" fill="#E5E7EB"/>
<rect x="444.493" y="153.641" width="97.9718" height="9.18485" rx="4.33101" fill="#E5E7EB"/>
<rect x="444.493" y="167.417" width="35.2086" height="9.18485" rx="4.33101" fill="#E5E7EB"/>
<rect x="560.835" y="167.417" width="31.3816" height="9.18485" rx="4.33101" fill="#E5E7EB"/>
<rect x="574.612" y="153.641" width="17.6043" height="9.18485" rx="4.33101" fill="#10B981"/>
<rect x="574.612" y="139.862" width="17.6043" height="9.18485" rx="4.33101" fill="#E5E7EB"/>
</g>
</g>
<defs>
<filter id="filter0_dd_2429_48058" x="52" y="51" width="507" height="350" filterUnits="userSpaceOnUse" color-interpolation-filters="sRGB">
<feFlood flood-opacity="0" result="BackgroundImageFix"/>
<feColorMatrix in="SourceAlpha" type="matrix" values="0 0 0 0 0 0 0 0 0 0 0 0 0 0 0 0 0 0 127 0" result="hardAlpha"/>
<feMorphology radius="5" operator="erode" in="SourceAlpha" result="effect1_dropShadow_2429_48058"/>
<feOffset dy="10"/>
<feGaussianBlur stdDeviation="8"/>
<feColorMatrix type="matrix" values="0 0 0 0 0 0 0 0 0 0 0 0 0 0 0 0 0 0 0.04 0"/>
<feBlend mode="normal" in2="BackgroundImageFix" result="effect1_dropShadow_2429_48058"/>
<feColorMatrix in="SourceAlpha" type="matrix" values="0 0 0 0 0 0 0 0 0 0 0 0 0 0 0 0 0 0 127 0" result="hardAlpha"/>
<feMorphology radius="5" operator="erode" in="SourceAlpha" result="effect2_dropShadow_2429_48058"/>
<feOffset dy="20"/>
<feGaussianBlur stdDeviation="16"/>
<feColorMatrix type="matrix" values="0 0 0 0 0 0 0 0 0 0 0 0 0 0 0 0 0 0 0.1 0"/>
<feBlend mode="normal" in2="effect1_dropShadow_2429_48058" result="effect2_dropShadow_2429_48058"/>
<feBlend mode="normal" in="SourceGraphic" in2="effect2_dropShadow_2429_48058" result="shape"/>
</filter>
<filter id="filter1_dd_2429_48058" x="151.13" y="129.426" width="67.5151" height="66.7407" filterUnits="userSpaceOnUse" color-interpolation-filters="sRGB">
<feFlood flood-opacity="0" result="BackgroundImageFix"/>
<feColorMatrix in="SourceAlpha" type="matrix" values="0 0 0 0 0 0 0 0 0 0 0 0 0 0 0 0 0 0 127 0" result="hardAlpha"/>
<feMorphology radius="0.574073" operator="erode" in="SourceAlpha" result="effect1_dropShadow_2429_48058"/>
<feOffset dy="1.14815"/>
<feGaussianBlur stdDeviation="1.14815"/>
<feColorMatrix type="matrix" values="0 0 0 0 0 0 0 0 0 0 0 0 0 0 0 0 0 0 0.06 0"/>
<feBlend mode="normal" in2="BackgroundImageFix" result="effect1_dropShadow_2429_48058"/>
<feColorMatrix in="SourceAlpha" type="matrix" values="0 0 0 0 0 0 0 0 0 0 0 0 0 0 0 0 0 0 127 0" result="hardAlpha"/>
<feMorphology radius="0.574073" operator="erode" in="SourceAlpha" result="effect2_dropShadow_2429_48058"/>
<feOffset dy="2.29629"/>
<feGaussianBlur stdDeviation="1.72222"/>
<feColorMatrix type="matrix" values="0 0 0 0 0 0 0 0 0 0 0 0 0 0 0 0 0 0 0.1 0"/>
<feBlend mode="normal" in2="effect1_dropShadow_2429_48058" result="effect2_dropShadow_2429_48058"/>
<feBlend mode="normal" in="SourceGraphic" in2="effect2_dropShadow_2429_48058" result="shape"/>
</filter>
<filter id="filter2_d_2429_48058" x="76.6159" y="31.8079" width="457.768" height="33.7683" filterUnits="userSpaceOnUse" color-interpolation-filters="sRGB">
<feFlood flood-opacity="0" result="BackgroundImageFix"/>
<feColorMatrix in="SourceAlpha" type="matrix" values="0 0 0 0 0 0 0 0 0 0 0 0 0 0 0 0 0 0 127 0" result="hardAlpha"/>
<feOffset dy="1.19207"/>
<feGaussianBlur stdDeviation="1.19207"/>
<feColorMatrix type="matrix" values="0 0 0 0 0 0 0 0 0 0 0 0 0 0 0 0 0 0 0.05 0"/>
<feBlend mode="normal" in2="BackgroundImageFix" result="effect1_dropShadow_2429_48058"/>
<feBlend mode="normal" in="SourceGraphic" in2="effect1_dropShadow_2429_48058" result="shape"/>
</filter>
<filter id="filter3_dd_2429_48058" x="403.846" y="97" width="228.251" height="223.659" filterUnits="userSpaceOnUse" color-interpolation-filters="sRGB">
<feFlood flood-opacity="0" result="BackgroundImageFix"/>
<feColorMatrix in="SourceAlpha" type="matrix" values="0 0 0 0 0 0 0 0 0 0 0 0 0 0 0 0 0 0 127 0" result="hardAlpha"/>
<feMorphology radius="4.03846" operator="erode" in="SourceAlpha" result="effect1_dropShadow_2429_48058"/>
<feOffset dy="8.07692"/>
<feGaussianBlur stdDeviation="4.03846"/>
<feColorMatrix type="matrix" values="0 0 0 0 0 0 0 0 0 0 0 0 0 0 0 0 0 0 0.04 0"/>
<feBlend mode="normal" in2="BackgroundImageFix" result="effect1_dropShadow_2429_48058"/>
<feColorMatrix in="SourceAlpha" type="matrix" values="0 0 0 0 0 0 0 0 0 0 0 0 0 0 0 0 0 0 127 0" result="hardAlpha"/>
<feMorphology radius="4.03846" operator="erode" in="SourceAlpha" result="effect2_dropShadow_2429_48058"/>
<feOffset dy="16.1538"/>
<feGaussianBlur stdDeviation="10.0962"/>
<feColorMatrix type="matrix" values="0 0 0 0 0 0 0 0 0 0 0 0 0 0 0 0 0 0 0.1 0"/>
<feBlend mode="normal" in2="effect1_dropShadow_2429_48058" result="effect2_dropShadow_2429_48058"/>
<feBlend mode="normal" in="SourceGraphic" in2="effect2_dropShadow_2429_48058" result="shape"/>
</filter>
<linearGradient id="paint0_linear_2429_48058" x1="305.5" y1="61" x2="305.5" y2="351" gradientUnits="userSpaceOnUse">
<stop offset="0.380208" stop-color="white"/>
<stop offset="1" stop-color="#F3F4F6"/>
</linearGradient>
<linearGradient id="paint1_linear_2429_48058" x1="517.972" y1="97" x2="517.972" y2="288.351" gradientUnits="userSpaceOnUse">
<stop offset="0.380208" stop-color="white"/>
<stop offset="1" stop-color="#F3F4F6"/>
</linearGradient>
<clipPath id="clip0_2429_48058">
<rect width="692" height="264" rx="8" fill="white"/>
</clipPath>
</defs>
</svg>
