<svg viewBox="0 0 535 400" fill="none" xmlns="http://www.w3.org/2000/svg">
<g filter="url(#filter0_dd_2267_21643)">
<path d="M30 30.3984H445.298V312.02C445.298 316.368 441.773 319.893 437.425 319.893H37.8729C33.5248 319.893 30 316.368 30 312.02V30.3984Z" fill="url(#paint0_linear_2267_21643)"/>
<path d="M30 28.8984H28.5V30.3984V312.02C28.5 317.197 32.6964 321.393 37.8729 321.393H437.425C442.601 321.393 446.798 317.197 446.798 312.02V30.3984V28.8984H445.298H30Z" stroke="white" stroke-width="3"/>
</g>
<path d="M231.864 100.312L231.434 101.275H225.685L226.047 100.312H231.864ZM231.024 102.127L230.534 103.116H225.685L226.047 102.127H231.024ZM233.006 97.9721L232.23 99.6213C232.14 99.5701 232.02 99.502 231.872 99.4167C231.728 99.3287 231.554 99.2505 231.353 99.1824C231.154 99.1142 230.928 99.0801 230.675 99.0801C230.311 99.0801 229.999 99.1696 229.738 99.3485C229.476 99.5247 229.274 99.8059 229.132 100.192C228.993 100.579 228.924 101.086 228.924 101.714C228.924 102.347 228.993 102.856 229.132 103.239C229.274 103.62 229.476 103.895 229.738 104.066C229.999 104.236 230.311 104.322 230.675 104.322C230.925 104.322 231.148 104.289 231.344 104.224C231.543 104.158 231.713 104.084 231.855 104.002C232 103.917 232.114 103.846 232.196 103.789L232.976 105.442C232.664 105.689 232.311 105.876 231.919 106.001C231.53 106.123 231.115 106.184 230.675 106.184C229.917 106.184 229.245 106.009 228.659 105.66C228.077 105.31 227.621 104.803 227.292 104.138C226.962 103.471 226.797 102.662 226.797 101.714C226.797 100.768 226.962 99.9593 227.292 99.2889C227.621 98.6184 228.077 98.1056 228.659 97.7505C229.245 97.3954 229.917 97.2179 230.675 97.2179C231.132 97.2179 231.554 97.2832 231.941 97.4139C232.33 97.5446 232.685 97.7306 233.006 97.9721ZM238.322 97.3372V106.064H236.217V99.3059H236.166L234.214 100.499V98.6752L236.366 97.3372H238.322ZM240.251 106.064V104.547L243.435 101.76C243.673 101.545 243.876 101.347 244.044 101.168C244.212 100.986 244.339 100.805 244.428 100.623C244.516 100.438 244.56 100.238 244.56 100.022C244.56 99.7804 244.507 99.5744 244.402 99.4039C244.297 99.2306 244.152 99.0971 243.967 99.0034C243.783 98.9096 243.571 98.8627 243.332 98.8627C243.091 98.8627 242.879 98.9125 242.697 99.0119C242.516 99.1085 242.374 99.2491 242.271 99.4338C242.172 99.6184 242.122 99.8429 242.122 100.107H240.124C240.124 99.5133 240.257 99.0005 240.524 98.5687C240.791 98.1369 241.166 97.8045 241.649 97.5716C242.135 97.3358 242.699 97.2179 243.341 97.2179C244.003 97.2179 244.578 97.3287 245.067 97.5502C245.555 97.7718 245.933 98.0815 246.2 98.4792C246.47 98.8741 246.605 99.3329 246.605 99.8556C246.605 100.188 246.538 100.518 246.405 100.844C246.271 101.171 246.031 101.532 245.685 101.927C245.341 102.322 244.852 102.795 244.219 103.346L243.175 104.309V104.364H246.712V106.064H240.251ZM250.047 104.871L250.009 105.344C249.975 105.736 249.905 106.118 249.8 106.491C249.698 106.866 249.588 107.202 249.472 107.501C249.355 107.799 249.263 108.03 249.195 108.195H247.882C247.928 108.03 247.989 107.799 248.066 107.501C248.145 107.202 248.219 106.866 248.287 106.491C248.355 106.116 248.394 105.735 248.402 105.349L248.411 104.871H250.047ZM254.728 97.2179C255.206 97.2179 255.662 97.296 256.096 97.4522C256.531 97.6056 256.919 97.8514 257.26 98.1895C257.6 98.5247 257.869 98.9664 258.065 99.5147C258.261 100.063 258.359 100.732 258.359 101.522C258.362 102.249 258.277 102.901 258.103 103.478C257.93 104.052 257.681 104.54 257.358 104.944C257.037 105.347 256.65 105.655 256.198 105.868C255.747 106.079 255.242 106.184 254.686 106.184C254.072 106.184 253.531 106.066 253.062 105.83C252.596 105.591 252.223 105.27 251.941 104.867C251.663 104.464 251.497 104.012 251.443 103.512H253.518C253.583 103.802 253.721 104.02 253.931 104.168C254.142 104.313 254.393 104.385 254.686 104.385C255.22 104.385 255.619 104.154 255.883 103.691C256.147 103.228 256.279 102.599 256.279 101.803H256.228C256.106 102.064 255.933 102.289 255.708 102.476C255.487 102.664 255.23 102.807 254.937 102.907C254.644 103.006 254.336 103.056 254.012 103.056C253.49 103.056 253.028 102.937 252.627 102.698C252.23 102.459 251.917 102.131 251.69 101.714C251.466 101.296 251.352 100.819 251.349 100.282C251.346 99.6795 251.487 99.1483 251.771 98.688C252.055 98.225 252.451 97.8642 252.96 97.6056C253.468 97.3443 254.058 97.215 254.728 97.2179ZM254.741 98.8372C254.48 98.8372 254.247 98.8983 254.042 99.0204C253.841 99.1426 253.681 99.3074 253.565 99.5147C253.448 99.7221 253.392 99.9551 253.394 100.214C253.397 100.472 253.456 100.705 253.569 100.912C253.686 101.12 253.843 101.285 254.042 101.407C254.244 101.529 254.474 101.59 254.733 101.59C254.926 101.59 255.105 101.555 255.269 101.483C255.434 101.412 255.578 101.314 255.7 101.189C255.822 101.062 255.917 100.914 255.985 100.746C256.056 100.579 256.091 100.4 256.088 100.209C256.085 99.9565 256.025 99.7264 255.909 99.519C255.792 99.3116 255.632 99.1468 255.427 99.0247C255.225 98.8997 254.997 98.8372 254.741 98.8372ZM262.803 97.2179C263.28 97.2179 263.736 97.296 264.17 97.4522C264.605 97.6056 264.993 97.8514 265.334 98.1895C265.675 98.5247 265.943 98.9664 266.139 99.5147C266.335 100.063 266.433 100.732 266.433 101.522C266.436 102.249 266.351 102.901 266.178 103.478C266.004 104.052 265.756 104.54 265.432 104.944C265.111 105.347 264.724 105.655 264.273 105.868C263.821 106.079 263.317 106.184 262.76 106.184C262.146 106.184 261.605 106.066 261.136 105.83C260.67 105.591 260.297 105.27 260.016 104.867C259.737 104.464 259.571 104.012 259.517 103.512H261.592C261.658 103.802 261.795 104.02 262.006 104.168C262.216 104.313 262.467 104.385 262.76 104.385C263.294 104.385 263.693 104.154 263.957 103.691C264.222 103.228 264.354 102.599 264.354 101.803H264.303C264.18 102.064 264.007 102.289 263.783 102.476C263.561 102.664 263.304 102.807 263.011 102.907C262.719 103.006 262.41 103.056 262.087 103.056C261.564 103.056 261.102 102.937 260.702 102.698C260.304 102.459 259.991 102.131 259.764 101.714C259.54 101.296 259.426 100.819 259.423 100.282C259.42 99.6795 259.561 99.1483 259.845 98.688C260.129 98.225 260.526 97.8642 261.034 97.6056C261.543 97.3443 262.132 97.215 262.803 97.2179ZM262.815 98.8372C262.554 98.8372 262.321 98.8983 262.116 99.0204C261.915 99.1426 261.756 99.3074 261.639 99.5147C261.523 99.7221 261.466 99.9551 261.469 100.214C261.472 100.472 261.53 100.705 261.643 100.912C261.76 101.12 261.918 101.285 262.116 101.407C262.318 101.529 262.548 101.59 262.807 101.59C263 101.59 263.179 101.555 263.344 101.483C263.508 101.412 263.652 101.314 263.774 101.189C263.896 101.062 263.991 100.914 264.06 100.746C264.131 100.579 264.165 100.4 264.162 100.209C264.159 99.9565 264.099 99.7264 263.983 99.519C263.866 99.3116 263.706 99.1468 263.501 99.0247C263.3 98.8997 263.071 98.8372 262.815 98.8372Z" fill="#4B5563"/>
<rect x="83" y="69" width="100.059" height="117.569" rx="7.14961" fill="#E5E7EB"/>
<rect x="223.083" y="129.035" width="186.36" height="10.0059" rx="4.42678" fill="#E5E7EB"/>
<rect x="83" y="251.607" width="186.36" height="10.0059" rx="4.42678" fill="#E5E7EB"/>
<rect x="223.083" y="149.047" width="115.068" height="10.0059" rx="4.42678" fill="#E5E7EB"/>
<rect x="83" y="271.619" width="115.068" height="10.0059" rx="4.42678" fill="#E5E7EB"/>
<rect x="223.083" y="169.059" width="80.0471" height="17.5103" rx="8.75515" fill="#7A2CFF"/>
<rect x="241.843" y="174.062" width="42.525" height="7.50442" rx="3.75221" fill="#B4A4F0"/>
<rect x="223.083" y="69" width="66.289" height="10.0059" rx="4.42678" fill="#6B7280"/>
<rect x="83" y="231.595" width="66.289" height="10.0059" rx="4.42678" fill="#6B7280"/>
<g filter="url(#filter1_dd_2267_21643)">
<rect x="102" y="99" width="61.7746" height="61" rx="3.37675" fill="#E5E7EB"/>
<rect x="102.5" y="99.5" width="60.7746" height="60" rx="2.87675" stroke="white"/>
</g>
<mask id="mask0_2267_21643" style="mask-type:alpha" maskUnits="userSpaceOnUse" x="106" y="102" width="54" height="55">
<rect x="106.01" y="102.959" width="53.7552" height="53.0811" rx="3.37675" fill="white"/>
</mask>
<g mask="url(#mask0_2267_21643)">
<path d="M144.51 132.917C145.321 131.857 146.917 131.857 147.728 132.917L163.246 153.195C164.266 154.528 163.315 156.452 161.637 156.452H130.602C128.923 156.452 127.972 154.528 128.993 153.195L144.51 132.917Z" fill="#D1D5DB"/>
<path d="M119.958 124.694C120.769 123.635 122.365 123.635 123.176 124.694L145.08 153.32C146.1 154.653 145.15 156.577 143.471 156.577H99.6619C97.9833 156.577 97.0328 154.653 98.0529 153.32L119.958 124.694Z" fill="#9CA3AF"/>
<ellipse cx="138.838" cy="118.51" rx="7.03633" ry="6.94811" fill="#9CA3AF"/>
</g>
<rect x="112.15" y="106.457" width="42" height="42" stroke="black"/>
<g filter="url(#filter2_d_2267_21643)">
<mask id="path-20-outside-1_2267_21643" maskUnits="userSpaceOnUse" x="27" y="2" width="422" height="29" fill="black">
<rect fill="white" x="27" y="2" width="422" height="29"/>
<path d="M30 7.42612C30 6.08621 31.0862 5 32.4261 5H442.871C444.211 5 445.298 6.08621 445.298 7.42612V30.96H30V7.42612Z"/>
</mask>
<path d="M30 7.42612C30 6.08621 31.0862 5 32.4261 5H442.871C444.211 5 445.298 6.08621 445.298 7.42612V30.96H30V7.42612Z" fill="#F9FAFB"/>
<path d="M27 7.42612C27 4.42936 29.4294 2 32.4261 2H442.871C445.868 2 448.298 4.42936 448.298 7.42612L442.298 8H33L27 7.42612ZM445.298 30.96H30H445.298ZM27 30.96V7.42612C27 4.42936 29.4294 2 32.4261 2L33 8V30.96H27ZM442.871 2C445.868 2 448.298 4.42936 448.298 7.42612V30.96H442.298V8L442.871 2Z" fill="white" mask="url(#path-20-outside-1_2267_21643)"/>
</g>
<circle cx="42.8762" cy="16.7961" r="2.91135" fill="#EF4444"/>
<circle cx="52.5808" cy="16.7961" r="2.91135" fill="#F59E0B"/>
<circle cx="62.2854" cy="16.7961" r="2.91135" fill="#10B981"/>
<rect x="140.502" y="12.0098" width="210.601" height="11.9207" rx="2.38414" fill="#E5E7EB"/>
<g filter="url(#filter3_dd_2267_21643)">
<rect x="323" y="177" width="193.944" height="189.351" rx="3.33101" fill="url(#paint1_linear_2267_21643)" stroke="white" stroke-width="2"/>
<rect x="343.431" y="286.983" width="154.612" height="22.9621" rx="4.33101" fill="#E5E7EB"/>
<path d="M359.434 301.106V295.857H360.226V298.364H360.29L362.492 295.857H363.489L361.372 298.22L363.497 301.106H362.543L360.846 298.761L360.226 299.474V301.106H359.434ZM365.535 301.186C365.166 301.186 364.844 301.101 364.569 300.932C364.294 300.763 364.08 300.526 363.928 300.222C363.776 299.918 363.7 299.562 363.7 299.156C363.7 298.747 363.776 298.39 363.928 298.084C364.08 297.778 364.294 297.541 364.569 297.372C364.844 297.202 365.166 297.118 365.535 297.118C365.904 297.118 366.226 297.202 366.502 297.372C366.777 297.541 366.99 297.778 367.142 298.084C367.295 298.39 367.371 298.747 367.371 299.156C367.371 299.562 367.295 299.918 367.142 300.222C366.99 300.526 366.777 300.763 366.502 300.932C366.226 301.101 365.904 301.186 365.535 301.186ZM365.538 300.543C365.777 300.543 365.975 300.479 366.132 300.353C366.29 300.226 366.406 300.058 366.481 299.848C366.558 299.638 366.596 299.406 366.596 299.153C366.596 298.902 366.558 298.671 366.481 298.461C366.406 298.249 366.29 298.079 366.132 297.951C365.975 297.823 365.777 297.759 365.538 297.759C365.297 297.759 365.097 297.823 364.938 297.951C364.781 298.079 364.664 298.249 364.587 298.461C364.512 298.671 364.474 298.902 364.474 299.153C364.474 299.406 364.512 299.638 364.587 299.848C364.664 300.058 364.781 300.226 364.938 300.353C365.097 300.479 365.297 300.543 365.538 300.543ZM368.226 301.106V297.169H368.967V297.795H369.008C369.08 297.583 369.206 297.416 369.387 297.295C369.57 297.172 369.777 297.11 370.008 297.11C370.055 297.11 370.112 297.112 370.177 297.115C370.243 297.119 370.296 297.123 370.333 297.128V297.861C370.302 297.853 370.248 297.843 370.169 297.833C370.09 297.821 370.012 297.815 369.933 297.815C369.752 297.815 369.591 297.854 369.449 297.93C369.309 298.006 369.198 298.111 369.116 298.246C369.034 298.379 368.993 298.531 368.993 298.702V301.106H368.226ZM373.067 297.169V297.784H370.916V297.169H373.067ZM371.493 296.226H372.259V299.95C372.259 300.099 372.282 300.211 372.326 300.286C372.371 300.36 372.428 300.41 372.498 300.437C372.57 300.463 372.647 300.476 372.731 300.476C372.793 300.476 372.846 300.472 372.893 300.463C372.939 300.455 372.975 300.448 373 300.443L373.139 301.076C373.094 301.093 373.031 301.11 372.949 301.127C372.867 301.146 372.764 301.156 372.641 301.158C372.44 301.161 372.252 301.125 372.077 301.05C371.903 300.975 371.762 300.859 371.655 300.701C371.547 300.544 371.493 300.347 371.493 300.109V296.226ZM373.915 301.106V297.169H374.681V301.106H373.915ZM374.302 296.562C374.169 296.562 374.054 296.517 373.958 296.428C373.864 296.338 373.817 296.23 373.817 296.105C373.817 295.979 373.864 295.871 373.958 295.782C374.054 295.692 374.169 295.647 374.302 295.647C374.435 295.647 374.549 295.692 374.643 295.782C374.738 295.871 374.786 295.979 374.786 296.105C374.786 296.23 374.738 296.338 374.643 296.428C374.549 296.517 374.435 296.562 374.302 296.562ZM376.479 298.769V301.106H375.712V297.169H376.448V297.81H376.497C376.587 297.602 376.729 297.434 376.922 297.308C377.117 297.181 377.362 297.118 377.658 297.118C377.926 297.118 378.161 297.174 378.363 297.287C378.564 297.398 378.721 297.564 378.832 297.784C378.943 298.005 378.998 298.277 378.998 298.602V301.106H378.232V298.694C378.232 298.409 378.158 298.186 378.009 298.025C377.86 297.863 377.656 297.782 377.396 297.782C377.219 297.782 377.061 297.82 376.922 297.897C376.785 297.974 376.677 298.087 376.597 298.236C376.518 298.382 376.479 298.56 376.479 298.769ZM381.677 302.665C381.364 302.665 381.095 302.624 380.87 302.542C380.646 302.46 380.463 302.351 380.321 302.216C380.179 302.081 380.073 301.934 380.003 301.773L380.662 301.501C380.708 301.576 380.77 301.656 380.847 301.74C380.925 301.825 381.031 301.898 381.165 301.957C381.3 302.017 381.473 302.047 381.685 302.047C381.975 302.047 382.215 301.976 382.405 301.834C382.595 301.694 382.69 301.47 382.69 301.163V300.389H382.641C382.595 300.472 382.528 300.566 382.441 300.668C382.356 300.771 382.238 300.86 382.087 300.935C381.937 301.01 381.741 301.047 381.5 301.047C381.189 301.047 380.909 300.975 380.66 300.83C380.412 300.683 380.215 300.466 380.07 300.181C379.926 299.894 379.855 299.541 379.855 299.122C379.855 298.704 379.926 298.345 380.067 298.046C380.211 297.747 380.407 297.518 380.657 297.359C380.906 297.198 381.189 297.118 381.505 297.118C381.75 297.118 381.947 297.159 382.098 297.241C382.248 297.321 382.365 297.415 382.449 297.523C382.534 297.631 382.6 297.725 382.646 297.807H382.703V297.169H383.454V301.194C383.454 301.532 383.375 301.81 383.218 302.027C383.061 302.244 382.848 302.404 382.579 302.509C382.313 302.613 382.012 302.665 381.677 302.665ZM381.669 300.412C381.89 300.412 382.076 300.361 382.228 300.258C382.382 300.154 382.498 300.005 382.577 299.812C382.657 299.617 382.697 299.384 382.697 299.112C382.697 298.847 382.658 298.614 382.579 298.412C382.501 298.211 382.386 298.054 382.233 297.941C382.081 297.826 381.893 297.769 381.669 297.769C381.439 297.769 381.247 297.829 381.093 297.948C380.939 298.066 380.823 298.227 380.744 298.43C380.667 298.634 380.629 298.861 380.629 299.112C380.629 299.37 380.668 299.597 380.747 299.791C380.825 299.986 380.941 300.138 381.095 300.248C381.251 300.357 381.442 300.412 381.669 300.412ZM387.432 298.13L386.737 298.253C386.708 298.165 386.662 298.08 386.599 298C386.537 297.919 386.454 297.854 386.348 297.802C386.242 297.751 386.109 297.725 385.95 297.725C385.733 297.725 385.552 297.774 385.407 297.872C385.262 297.967 385.189 298.091 385.189 298.243C385.189 298.375 385.238 298.481 385.335 298.561C385.432 298.641 385.59 298.707 385.807 298.758L386.432 298.902C386.794 298.986 387.064 299.115 387.242 299.289C387.42 299.463 387.509 299.69 387.509 299.968C387.509 300.204 387.44 300.414 387.304 300.599C387.169 300.782 386.98 300.925 386.737 301.03C386.496 301.134 386.217 301.186 385.899 301.186C385.458 301.186 385.098 301.092 384.82 300.904C384.541 300.714 384.37 300.445 384.307 300.096L385.048 299.984C385.094 300.177 385.189 300.323 385.332 300.422C385.476 300.519 385.663 300.568 385.894 300.568C386.145 300.568 386.346 300.516 386.496 300.412C386.647 300.306 386.722 300.177 386.722 300.025C386.722 299.902 386.676 299.798 386.583 299.715C386.493 299.631 386.354 299.568 386.166 299.525L385.499 299.379C385.132 299.295 384.86 299.162 384.684 298.979C384.51 298.796 384.423 298.564 384.423 298.284C384.423 298.052 384.487 297.848 384.617 297.674C384.747 297.5 384.927 297.364 385.156 297.267C385.385 297.167 385.647 297.118 385.943 297.118C386.368 297.118 386.703 297.21 386.947 297.395C387.192 297.578 387.353 297.823 387.432 298.13ZM391.92 301.186C391.539 301.186 391.211 301.1 390.936 300.927C390.663 300.753 390.452 300.513 390.305 300.207C390.158 299.901 390.085 299.551 390.085 299.156C390.085 298.756 390.16 298.403 390.31 298.097C390.461 297.789 390.673 297.549 390.946 297.377C391.22 297.204 391.542 297.118 391.913 297.118C392.212 297.118 392.478 297.173 392.712 297.285C392.946 297.394 393.135 297.548 393.279 297.746C393.424 297.944 393.51 298.176 393.538 298.441H392.792C392.751 298.256 392.657 298.097 392.51 297.964C392.365 297.831 392.17 297.764 391.925 297.764C391.712 297.764 391.525 297.82 391.364 297.933C391.205 298.044 391.081 298.203 390.992 298.41C390.903 298.615 390.859 298.858 390.859 299.138C390.859 299.425 390.903 299.673 390.99 299.881C391.077 300.09 391.2 300.251 391.359 300.366C391.52 300.48 391.708 300.537 391.925 300.537C392.071 300.537 392.202 300.511 392.32 300.458C392.44 300.403 392.54 300.325 392.62 300.225C392.702 300.124 392.759 300.003 392.792 299.861H393.538C393.51 300.115 393.428 300.343 393.289 300.543C393.151 300.742 392.965 300.9 392.733 301.014C392.502 301.129 392.231 301.186 391.92 301.186ZM396.016 301.186C395.647 301.186 395.325 301.101 395.049 300.932C394.774 300.763 394.561 300.526 394.409 300.222C394.257 299.918 394.18 299.562 394.18 299.156C394.18 298.747 394.257 298.39 394.409 298.084C394.561 297.778 394.774 297.541 395.049 297.372C395.325 297.202 395.647 297.118 396.016 297.118C396.385 297.118 396.707 297.202 396.982 297.372C397.257 297.541 397.471 297.778 397.623 298.084C397.775 298.39 397.851 298.747 397.851 299.156C397.851 299.562 397.775 299.918 397.623 300.222C397.471 300.526 397.257 300.763 396.982 300.932C396.707 301.101 396.385 301.186 396.016 301.186ZM396.018 300.543C396.258 300.543 396.456 300.479 396.613 300.353C396.77 300.226 396.887 300.058 396.962 299.848C397.039 299.638 397.077 299.406 397.077 299.153C397.077 298.902 397.039 298.671 396.962 298.461C396.887 298.249 396.77 298.079 396.613 297.951C396.456 297.823 396.258 297.759 396.018 297.759C395.777 297.759 395.578 297.823 395.419 297.951C395.261 298.079 395.144 298.249 395.067 298.461C394.992 298.671 394.955 298.902 394.955 299.153C394.955 299.406 394.992 299.638 395.067 299.848C395.144 300.058 395.261 300.226 395.419 300.353C395.578 300.479 395.777 300.543 396.018 300.543ZM400.181 301.183C399.863 301.183 399.579 301.102 399.33 300.94C399.082 300.776 398.887 300.543 398.745 300.24C398.605 299.936 398.535 299.571 398.535 299.145C398.535 298.72 398.606 298.356 398.748 298.054C398.891 297.751 399.088 297.519 399.337 297.359C399.587 297.198 399.87 297.118 400.186 297.118C400.43 297.118 400.627 297.159 400.775 297.241C400.926 297.321 401.042 297.415 401.124 297.523C401.208 297.631 401.273 297.725 401.319 297.807H401.365V295.857H402.131V301.106H401.383V300.494H401.319C401.273 300.578 401.206 300.673 401.119 300.781C401.033 300.889 400.915 300.983 400.765 301.063C400.615 301.143 400.42 301.183 400.181 301.183ZM400.35 300.53C400.57 300.53 400.757 300.472 400.909 300.355C401.062 300.237 401.179 300.074 401.257 299.866C401.338 299.657 401.378 299.415 401.378 299.138C401.378 298.864 401.338 298.625 401.26 298.42C401.181 298.215 401.066 298.055 400.914 297.941C400.762 297.826 400.574 297.769 400.35 297.769C400.119 297.769 399.927 297.829 399.773 297.948C399.619 298.068 399.503 298.231 399.424 298.438C399.348 298.645 399.309 298.878 399.309 299.138C399.309 299.401 399.348 299.638 399.427 299.848C399.506 300.058 399.622 300.225 399.776 300.348C399.931 300.469 400.123 300.53 400.35 300.53ZM404.922 301.186C404.534 301.186 404.2 301.103 403.92 300.937C403.641 300.77 403.426 300.535 403.274 300.232C403.124 299.928 403.048 299.572 403.048 299.163C403.048 298.76 403.124 298.405 403.274 298.097C403.426 297.789 403.638 297.549 403.91 297.377C404.183 297.204 404.503 297.118 404.868 297.118C405.09 297.118 405.306 297.155 405.514 297.228C405.723 297.302 405.91 297.417 406.076 297.574C406.241 297.731 406.372 297.936 406.468 298.187C406.564 298.436 406.611 298.74 406.611 299.097V299.369H403.482V298.794H405.86C405.86 298.593 405.819 298.414 405.737 298.259C405.655 298.101 405.54 297.977 405.391 297.887C405.244 297.796 405.072 297.751 404.873 297.751C404.658 297.751 404.47 297.804 404.31 297.91C404.151 298.014 404.028 298.151 403.94 298.32C403.855 298.488 403.812 298.67 403.812 298.866V299.315C403.812 299.578 403.858 299.802 403.951 299.986C404.045 300.171 404.175 300.312 404.343 300.409C404.51 300.505 404.706 300.553 404.93 300.553C405.075 300.553 405.208 300.532 405.327 300.491C405.447 300.449 405.55 300.385 405.637 300.302C405.724 300.218 405.791 300.114 405.837 299.991L406.563 300.122C406.505 300.336 406.4 300.523 406.25 300.683C406.101 300.842 405.914 300.966 405.689 301.055C405.465 301.142 405.209 301.186 404.922 301.186Z" fill="#6B7280"/>
<path d="M461.474 301.106V295.857H464.765V296.539H462.266V298.138H464.593V298.817H462.266V300.425H464.796V301.106H461.474ZM470.06 295.857V301.106H469.332L466.664 297.256H466.615V301.106H465.823V295.857H466.556L469.227 299.712H469.276V295.857H470.06ZM470.957 296.539V295.857H475.02V296.539H473.382V301.106H472.592V296.539H470.957ZM475.917 301.106V295.857H479.209V296.539H476.709V298.138H479.037V298.817H476.709V300.425H479.239V301.106H475.917ZM480.267 301.106V295.857H482.138C482.545 295.857 482.882 295.927 483.15 296.067C483.42 296.207 483.622 296.401 483.755 296.649C483.889 296.895 483.955 297.179 483.955 297.502C483.955 297.824 483.888 298.106 483.753 298.351C483.62 298.594 483.418 298.782 483.148 298.917C482.88 299.052 482.542 299.12 482.135 299.12H480.718V298.438H482.064C482.32 298.438 482.528 298.401 482.689 298.328C482.851 298.254 482.97 298.148 483.045 298.007C483.121 297.867 483.158 297.699 483.158 297.502C483.158 297.304 483.12 297.132 483.043 296.987C482.968 296.842 482.849 296.731 482.686 296.654C482.526 296.575 482.315 296.536 482.053 296.536H481.059V301.106H480.267ZM482.858 298.738L484.155 301.106H483.253L481.982 298.738H482.858Z" fill="#10B981"/>
<rect x="343.431" y="318.365" width="154.612" height="22.9621" rx="4.33101" fill="#6B7280"/>
<rect x="383.998" y="326.019" width="97.9718" height="8.41945" rx="4.20972" fill="#9CA3AF"/>
<path d="M361.971 332.634C361.673 332.634 359.887 332.634 359.59 332.634C359.292 332.634 358.994 332.334 358.994 332.033C358.994 331.732 359.292 331.432 359.59 331.432C359.887 331.432 361.673 331.432 361.971 331.432C362.269 331.432 362.566 331.732 362.566 332.033C362.566 332.334 362.269 332.634 361.971 332.634Z" fill="white"/>
<path fill-rule="evenodd" clip-rule="evenodd" d="M367.924 328.425C367.924 327.096 366.858 326.019 365.543 326.019H359.59C358.275 326.019 357.208 327.096 357.208 328.425V332.033C357.208 333.361 358.275 334.438 359.59 334.438H365.543C366.858 334.438 367.924 333.361 367.924 332.033V328.425ZM366.734 329.627H358.399V331.792C358.399 332.473 358.399 332.813 358.611 333.024C358.822 333.236 359.162 333.236 359.843 333.236H365.29C365.97 333.236 366.311 333.236 366.522 333.024C366.734 332.813 366.734 332.473 366.734 331.792V329.627ZM361.971 332.634H359.59C359.292 332.634 358.994 332.334 358.994 332.033C358.994 331.732 359.292 331.432 359.59 331.432H361.971C362.269 331.432 362.566 331.732 362.566 332.033C362.566 332.334 362.269 332.634 361.971 332.634ZM366.734 328.425H358.399C358.399 327.975 358.399 327.75 358.496 327.583C358.559 327.473 358.65 327.382 358.76 327.318C358.928 327.222 359.152 327.222 359.602 327.222H365.531C365.98 327.222 366.205 327.222 366.372 327.318C366.482 327.382 366.574 327.473 366.637 327.583C366.734 327.75 366.734 327.975 366.734 328.425Z" fill="white"/>
<rect x="346.493" y="198.196" width="97.9718" height="11.4811" rx="4.33101" fill="#6B7280"/>
<rect x="346.493" y="218.862" width="97.9718" height="9.18485" rx="4.33101" fill="#E5E7EB"/>
<rect x="346.493" y="232.64" width="97.9718" height="9.18485" rx="4.33101" fill="#E5E7EB"/>
<rect x="346.493" y="246.417" width="35.2086" height="9.18485" rx="4.33101" fill="#E5E7EB"/>
<rect x="462.834" y="246.417" width="31.3816" height="9.18485" rx="4.33101" fill="#E5E7EB"/>
<rect x="476.612" y="232.64" width="17.6043" height="9.18485" rx="4.33101" fill="#10B981"/>
<rect x="476.612" y="218.862" width="17.6043" height="9.18485" rx="4.33101" fill="#E5E7EB"/>
</g>
<defs>
<filter id="filter0_dd_2267_21643" x="0" y="20.3984" width="475.297" height="349.495" filterUnits="userSpaceOnUse" color-interpolation-filters="sRGB">
<feFlood flood-opacity="0" result="BackgroundImageFix"/>
<feColorMatrix in="SourceAlpha" type="matrix" values="0 0 0 0 0 0 0 0 0 0 0 0 0 0 0 0 0 0 127 0" result="hardAlpha"/>
<feMorphology radius="5" operator="erode" in="SourceAlpha" result="effect1_dropShadow_2267_21643"/>
<feOffset dy="10"/>
<feGaussianBlur stdDeviation="8"/>
<feColorMatrix type="matrix" values="0 0 0 0 0 0 0 0 0 0 0 0 0 0 0 0 0 0 0.04 0"/>
<feBlend mode="normal" in2="BackgroundImageFix" result="effect1_dropShadow_2267_21643"/>
<feColorMatrix in="SourceAlpha" type="matrix" values="0 0 0 0 0 0 0 0 0 0 0 0 0 0 0 0 0 0 127 0" result="hardAlpha"/>
<feMorphology radius="5" operator="erode" in="SourceAlpha" result="effect2_dropShadow_2267_21643"/>
<feOffset dy="20"/>
<feGaussianBlur stdDeviation="16"/>
<feColorMatrix type="matrix" values="0 0 0 0 0 0 0 0 0 0 0 0 0 0 0 0 0 0 0.1 0"/>
<feBlend mode="normal" in2="effect1_dropShadow_2267_21643" result="effect2_dropShadow_2267_21643"/>
<feBlend mode="normal" in="SourceGraphic" in2="effect2_dropShadow_2267_21643" result="shape"/>
</filter>
<filter id="filter1_dd_2267_21643" x="99.1296" y="98.4259" width="67.5151" height="66.7407" filterUnits="userSpaceOnUse" color-interpolation-filters="sRGB">
<feFlood flood-opacity="0" result="BackgroundImageFix"/>
<feColorMatrix in="SourceAlpha" type="matrix" values="0 0 0 0 0 0 0 0 0 0 0 0 0 0 0 0 0 0 127 0" result="hardAlpha"/>
<feMorphology radius="0.574073" operator="erode" in="SourceAlpha" result="effect1_dropShadow_2267_21643"/>
<feOffset dy="1.14815"/>
<feGaussianBlur stdDeviation="1.14815"/>
<feColorMatrix type="matrix" values="0 0 0 0 0 0 0 0 0 0 0 0 0 0 0 0 0 0 0.06 0"/>
<feBlend mode="normal" in2="BackgroundImageFix" result="effect1_dropShadow_2267_21643"/>
<feColorMatrix in="SourceAlpha" type="matrix" values="0 0 0 0 0 0 0 0 0 0 0 0 0 0 0 0 0 0 127 0" result="hardAlpha"/>
<feMorphology radius="0.574073" operator="erode" in="SourceAlpha" result="effect2_dropShadow_2267_21643"/>
<feOffset dy="2.29629"/>
<feGaussianBlur stdDeviation="1.72222"/>
<feColorMatrix type="matrix" values="0 0 0 0 0 0 0 0 0 0 0 0 0 0 0 0 0 0 0.1 0"/>
<feBlend mode="normal" in2="effect1_dropShadow_2267_21643" result="effect2_dropShadow_2267_21643"/>
<feBlend mode="normal" in="SourceGraphic" in2="effect2_dropShadow_2267_21643" result="shape"/>
</filter>
<filter id="filter2_d_2267_21643" x="24.6159" y="0.807928" width="426.066" height="33.7282" filterUnits="userSpaceOnUse" color-interpolation-filters="sRGB">
<feFlood flood-opacity="0" result="BackgroundImageFix"/>
<feColorMatrix in="SourceAlpha" type="matrix" values="0 0 0 0 0 0 0 0 0 0 0 0 0 0 0 0 0 0 127 0" result="hardAlpha"/>
<feOffset dy="1.19207"/>
<feGaussianBlur stdDeviation="1.19207"/>
<feColorMatrix type="matrix" values="0 0 0 0 0 0 0 0 0 0 0 0 0 0 0 0 0 0 0.05 0"/>
<feBlend mode="normal" in2="BackgroundImageFix" result="effect1_dropShadow_2267_21643"/>
<feBlend mode="normal" in="SourceGraphic" in2="effect1_dropShadow_2267_21643" result="shape"/>
</filter>
<filter id="filter3_dd_2267_21643" x="305.846" y="176" width="228.251" height="223.659" filterUnits="userSpaceOnUse" color-interpolation-filters="sRGB">
<feFlood flood-opacity="0" result="BackgroundImageFix"/>
<feColorMatrix in="SourceAlpha" type="matrix" values="0 0 0 0 0 0 0 0 0 0 0 0 0 0 0 0 0 0 127 0" result="hardAlpha"/>
<feMorphology radius="4.03846" operator="erode" in="SourceAlpha" result="effect1_dropShadow_2267_21643"/>
<feOffset dy="8.07692"/>
<feGaussianBlur stdDeviation="4.03846"/>
<feColorMatrix type="matrix" values="0 0 0 0 0 0 0 0 0 0 0 0 0 0 0 0 0 0 0.04 0"/>
<feBlend mode="normal" in2="BackgroundImageFix" result="effect1_dropShadow_2267_21643"/>
<feColorMatrix in="SourceAlpha" type="matrix" values="0 0 0 0 0 0 0 0 0 0 0 0 0 0 0 0 0 0 127 0" result="hardAlpha"/>
<feMorphology radius="4.03846" operator="erode" in="SourceAlpha" result="effect2_dropShadow_2267_21643"/>
<feOffset dy="16.1538"/>
<feGaussianBlur stdDeviation="10.0962"/>
<feColorMatrix type="matrix" values="0 0 0 0 0 0 0 0 0 0 0 0 0 0 0 0 0 0 0.1 0"/>
<feBlend mode="normal" in2="effect1_dropShadow_2267_21643" result="effect2_dropShadow_2267_21643"/>
<feBlend mode="normal" in="SourceGraphic" in2="effect2_dropShadow_2267_21643" result="shape"/>
</filter>
<linearGradient id="paint0_linear_2267_21643" x1="237.649" y1="30.3984" x2="237.649" y2="319.893" gradientUnits="userSpaceOnUse">
<stop stop-color="white"/>
<stop offset="0.0001" stop-color="#F9FAFB"/>
<stop offset="1" stop-color="#F3F4F6"/>
</linearGradient>
<linearGradient id="paint1_linear_2267_21643" x1="419.972" y1="176" x2="419.972" y2="367.351" gradientUnits="userSpaceOnUse">
<stop stop-color="white"/>
<stop offset="0.0001" stop-color="#F9FAFB"/>
<stop offset="1" stop-color="#F3F4F6"/>
</linearGradient>
</defs>
</svg>
