<svg viewBox="0 0 508 382" fill="none" xmlns="http://www.w3.org/2000/svg">
<g filter="url(#filter0_dd_2267_21696)">
<path d="M62 30.3984H477.298V312.02C477.298 316.368 473.773 319.893 469.425 319.893H69.8729C65.5248 319.893 62 316.368 62 312.02V30.3984Z" fill="url(#paint0_linear_2267_21696)"/>
<path d="M62 28.8984H60.5V30.3984V312.02C60.5 317.197 64.6964 321.393 69.8729 321.393H469.425C474.601 321.393 478.798 317.197 478.798 312.02V30.3984V28.8984H477.298H62Z" stroke="white" stroke-width="3"/>
</g>
<g filter="url(#filter1_d_2267_21696)">
<rect x="197.393" y="97.3711" width="150.976" height="18.4535" rx="9.22673" fill="#E5E7EB"/>
</g>
<path d="M253.616 77.1619C253.537 76.8867 253.426 76.6435 253.282 76.4324C253.139 76.2175 252.964 76.0365 252.756 75.8895C252.553 75.7387 252.319 75.6237 252.055 75.5445C251.795 75.4654 251.507 75.4258 251.19 75.4258C250.598 75.4258 250.078 75.5728 249.629 75.8669C249.184 76.161 248.837 76.5889 248.589 77.1506C248.34 77.7086 248.215 78.391 248.215 79.1978C248.215 80.0046 248.338 80.6908 248.583 81.2563C248.828 81.8218 249.175 82.2535 249.623 82.5513C250.072 82.8454 250.602 82.9924 251.213 82.9924C251.767 82.9924 252.24 82.8944 252.632 82.6983C253.028 82.4985 253.33 82.2177 253.537 81.8557C253.748 81.4938 253.854 81.0659 253.854 80.572L254.351 80.6455H251.365V78.8019H256.212V80.261C256.212 81.2789 255.997 82.1536 255.567 82.885C255.137 83.6126 254.545 84.1743 253.791 84.5702C253.037 84.9623 252.174 85.1583 251.201 85.1583C250.115 85.1583 249.162 84.9189 248.34 84.4401C247.518 83.9576 246.877 83.2733 246.417 82.3873C245.961 81.4976 245.733 80.4419 245.733 79.2204C245.733 78.2816 245.868 77.4447 246.14 76.7095C246.415 75.9706 246.8 75.3447 247.294 74.832C247.787 74.3193 248.362 73.929 249.018 73.6614C249.674 73.3937 250.385 73.2599 251.15 73.2599C251.806 73.2599 252.417 73.356 252.983 73.5483C253.548 73.7368 254.05 74.0044 254.487 74.3513C254.928 74.6982 255.288 75.111 255.567 75.5898C255.846 76.0648 256.025 76.5889 256.104 77.1619H253.616ZM261.931 85.1697C261.052 85.1697 260.292 84.983 259.652 84.6098C259.014 84.2328 258.522 83.7087 258.176 83.0377C257.829 82.3628 257.655 81.5805 257.655 80.6908C257.655 79.7935 257.829 79.0093 258.176 78.3382C258.522 77.6633 259.014 77.1393 259.652 76.7661C260.292 76.389 261.052 76.2005 261.931 76.2005C262.809 76.2005 263.567 76.389 264.204 76.7661C264.845 77.1393 265.339 77.6633 265.686 78.3382C266.032 79.0093 266.206 79.7935 266.206 80.6908C266.206 81.5805 266.032 82.3628 265.686 83.0377C265.339 83.7087 264.845 84.2328 264.204 84.6098C263.567 84.983 262.809 85.1697 261.931 85.1697ZM261.942 83.3034C262.342 83.3034 262.675 83.1903 262.943 82.9641C263.211 82.7342 263.412 82.4212 263.548 82.0254C263.687 81.6295 263.757 81.179 263.757 80.6738C263.757 80.1686 263.687 79.7181 263.548 79.3222C263.412 78.9263 263.211 78.6134 262.943 78.3834C262.675 78.1535 262.342 78.0385 261.942 78.0385C261.538 78.0385 261.199 78.1535 260.924 78.3834C260.652 78.6134 260.447 78.9263 260.308 79.3222C260.172 79.7181 260.104 80.1686 260.104 80.6738C260.104 81.179 260.172 81.6295 260.308 82.0254C260.447 82.4212 260.652 82.7342 260.924 82.9641C261.199 83.1903 261.538 83.3034 261.942 83.3034ZM271.697 85.1697C270.819 85.1697 270.059 84.983 269.418 84.6098C268.781 84.2328 268.289 83.7087 267.942 83.0377C267.595 82.3628 267.422 81.5805 267.422 80.6908C267.422 79.7935 267.595 79.0093 267.942 78.3382C268.289 77.6633 268.781 77.1393 269.418 76.7661C270.059 76.389 270.819 76.2005 271.697 76.2005C272.575 76.2005 273.333 76.389 273.97 76.7661C274.611 77.1393 275.105 77.6633 275.452 78.3382C275.799 79.0093 275.972 79.7935 275.972 80.6908C275.972 81.5805 275.799 82.3628 275.452 83.0377C275.105 83.7087 274.611 84.2328 273.97 84.6098C273.333 84.983 272.575 85.1697 271.697 85.1697ZM271.708 83.3034C272.108 83.3034 272.442 83.1903 272.709 82.9641C272.977 82.7342 273.179 82.4212 273.314 82.0254C273.454 81.6295 273.524 81.179 273.524 80.6738C273.524 80.1686 273.454 79.7181 273.314 79.3222C273.179 78.9263 272.977 78.6134 272.709 78.3834C272.442 78.1535 272.108 78.0385 271.708 78.0385C271.305 78.0385 270.966 78.1535 270.69 78.3834C270.419 78.6134 270.214 78.9263 270.074 79.3222C269.938 79.7181 269.87 80.1686 269.87 80.6738C269.87 81.179 269.938 81.6295 270.074 82.0254C270.214 82.4212 270.419 82.7342 270.69 82.9641C270.966 83.1903 271.305 83.3034 271.708 83.3034ZM281.452 88.4383C280.672 88.4383 280.003 88.3309 279.445 88.116C278.89 87.9049 278.449 87.6165 278.121 87.2508C277.793 86.8851 277.58 86.4741 277.482 86.0179L279.71 85.7182C279.778 85.8916 279.886 86.0537 280.033 86.2046C280.18 86.3554 280.374 86.476 280.615 86.5665C280.86 86.6607 281.158 86.7079 281.509 86.7079C282.033 86.7079 282.465 86.5797 282.804 86.3233C283.147 86.0707 283.318 85.6466 283.318 85.0509V83.4618H283.217C283.111 83.7031 282.953 83.9312 282.742 84.1461C282.53 84.361 282.259 84.5363 281.927 84.672C281.596 84.8077 281.2 84.8756 280.74 84.8756C280.087 84.8756 279.494 84.7248 278.958 84.4232C278.427 84.1178 278.003 83.6522 277.686 83.0263C277.373 82.3967 277.217 81.6012 277.217 80.6399C277.217 79.6559 277.377 78.834 277.697 78.1742C278.018 77.5144 278.444 77.0205 278.975 76.6925C279.511 76.3645 280.097 76.2005 280.734 76.2005C281.22 76.2005 281.628 76.2835 281.956 76.4494C282.284 76.6115 282.547 76.8151 282.747 77.0601C282.951 77.3014 283.107 77.5389 283.217 77.7727H283.307V76.3136H285.699V85.0848C285.699 85.8238 285.518 86.4421 285.156 86.9397C284.794 87.4374 284.293 87.8106 283.652 88.0595C283.015 88.312 282.282 88.4383 281.452 88.4383ZM281.503 83.0659C281.891 83.0659 282.219 82.9698 282.487 82.7775C282.759 82.5815 282.966 82.3025 283.109 81.9405C283.256 81.5748 283.33 81.1375 283.33 80.6285C283.33 80.1196 283.258 79.6785 283.115 79.3052C282.972 78.9282 282.764 78.636 282.493 78.4287C282.221 78.2213 281.891 78.1176 281.503 78.1176C281.107 78.1176 280.774 78.2251 280.502 78.44C280.231 78.6511 280.025 78.9452 279.886 79.3222C279.746 79.6992 279.677 80.1347 279.677 80.6285C279.677 81.13 279.746 81.5635 279.886 81.9292C280.029 82.2912 280.234 82.572 280.502 82.7719C280.774 82.9679 281.107 83.0659 281.503 83.0659ZM290.025 73.4182V85H287.616V73.4182H290.025ZM295.914 85.1697C295.02 85.1697 294.251 84.9887 293.607 84.6268C292.966 84.2611 292.472 83.7446 292.125 83.0772C291.778 82.4062 291.605 81.6125 291.605 80.6964C291.605 79.8029 291.778 79.0187 292.125 78.3439C292.472 77.669 292.96 77.1431 293.59 76.7661C294.223 76.389 294.966 76.2005 295.818 76.2005C296.391 76.2005 296.924 76.2929 297.418 76.4776C297.916 76.6586 298.349 76.9319 298.719 77.2976C299.092 77.6633 299.382 78.1233 299.59 78.6775C299.797 79.2279 299.901 79.8726 299.901 80.6116V81.2732H292.566V79.7803H297.633C297.633 79.4334 297.558 79.1262 297.407 78.8585C297.256 78.5908 297.047 78.3816 296.779 78.2308C296.515 78.0762 296.208 77.9989 295.857 77.9989C295.492 77.9989 295.167 78.0837 294.885 78.2534C294.606 78.4193 294.387 78.6436 294.229 78.9263C294.07 79.2053 293.989 79.5164 293.986 79.8594V81.2789C293.986 81.7087 294.065 82.08 294.223 82.393C294.385 82.7059 294.613 82.9472 294.907 83.1168C295.201 83.2865 295.55 83.3713 295.954 83.3713C296.221 83.3713 296.466 83.3336 296.689 83.2582C296.911 83.1828 297.102 83.0697 297.26 82.9189C297.418 82.7681 297.539 82.5834 297.622 82.3647L299.85 82.5117C299.737 83.0471 299.505 83.5146 299.154 83.9142C298.808 84.3101 298.359 84.6192 297.808 84.8417C297.262 85.0603 296.63 85.1697 295.914 85.1697Z" fill="#4B5563"/>
<g filter="url(#filter2_d_2267_21696)">
<mask id="path-5-outside-1_2267_21696" maskUnits="userSpaceOnUse" x="59" y="2" width="422" height="29" fill="black">
<rect fill="white" x="59" y="2" width="422" height="29"/>
<path d="M62 7.42612C62 6.08621 63.0862 5 64.4261 5H474.871C476.211 5 477.298 6.08621 477.298 7.42612V30.96H62V7.42612Z"/>
</mask>
<path d="M62 7.42612C62 6.08621 63.0862 5 64.4261 5H474.871C476.211 5 477.298 6.08621 477.298 7.42612V30.96H62V7.42612Z" fill="#F9FAFB"/>
<path d="M59 7.42612C59 4.42936 61.4294 2 64.4261 2H474.871C477.868 2 480.298 4.42936 480.298 7.42612L474.298 8H65L59 7.42612ZM477.298 30.96H62H477.298ZM59 30.96V7.42612C59 4.42936 61.4294 2 64.4261 2L65 8V30.96H59ZM474.871 2C477.868 2 480.298 4.42936 480.298 7.42612V30.96H474.298V8L474.871 2Z" fill="white" mask="url(#path-5-outside-1_2267_21696)"/>
</g>
<circle cx="74.8762" cy="16.7961" r="2.91135" fill="#EF4444"/>
<circle cx="84.5808" cy="16.7961" r="2.91135" fill="#F59E0B"/>
<circle cx="94.2854" cy="16.7961" r="2.91135" fill="#10B981"/>
<rect x="172.502" y="12.0098" width="210.601" height="11.9207" rx="2.38414" fill="#E5E7EB"/>
<g filter="url(#filter3_dd_2267_21696)">
<rect x="14.8301" y="145" width="286" height="70.029" rx="4.96121" fill="#F9FAFB"/>
<rect x="34.8662" y="179.877" width="126.892" height="7.42056" rx="3.28492" fill="#E5E7EB"/>
<rect x="34.8662" y="192.492" width="84.5944" height="7.42056" rx="3.28492" fill="#E5E7EB"/>
<path d="M39.2819 166.296C39.2545 166.02 39.1369 165.805 38.9291 165.652C38.7212 165.499 38.4392 165.422 38.0829 165.422C37.8408 165.422 37.6364 165.457 37.4697 165.525C37.303 165.591 37.1751 165.684 37.0861 165.803C36.9993 165.921 36.9559 166.056 36.9559 166.207C36.9513 166.332 36.9776 166.442 37.0347 166.536C37.094 166.629 37.1751 166.71 37.2779 166.779C37.3807 166.845 37.4994 166.903 37.6342 166.954C37.7689 167.002 37.9128 167.043 38.0658 167.077L38.6961 167.228C39.0022 167.296 39.2831 167.388 39.5388 167.502C39.7946 167.616 40.0162 167.756 40.2034 167.923C40.3907 168.09 40.5357 168.286 40.6385 168.512C40.7435 168.738 40.7972 168.998 40.7995 169.29C40.7972 169.719 40.6876 170.092 40.4706 170.407C40.256 170.72 39.9454 170.963 39.5388 171.136C39.1346 171.308 38.647 171.393 38.0761 171.393C37.5097 171.393 37.0164 171.307 36.5962 171.133C36.1782 170.959 35.8517 170.702 35.6164 170.362C35.3835 170.02 35.2613 169.596 35.2499 169.091H36.6852C36.7012 169.326 36.7686 169.523 36.8874 169.68C37.0084 169.836 37.1694 169.953 37.3704 170.033C37.5736 170.111 37.8032 170.15 38.0589 170.15C38.3102 170.15 38.5283 170.113 38.7133 170.04C38.9005 169.967 39.0455 169.865 39.1483 169.735C39.2511 169.605 39.3025 169.455 39.3025 169.286C39.3025 169.129 39.2557 168.996 39.162 168.889C39.0707 168.782 38.9359 168.69 38.7578 168.615C38.5819 168.54 38.3661 168.471 38.1103 168.41L37.3464 168.218C36.7549 168.074 36.2879 167.849 35.9453 167.543C35.6027 167.237 35.4326 166.825 35.4349 166.306C35.4326 165.881 35.5456 165.51 35.774 165.193C36.0047 164.875 36.321 164.628 36.7229 164.449C37.1249 164.271 37.5816 164.182 38.0932 164.182C38.6139 164.182 39.0684 164.271 39.4566 164.449C39.8472 164.628 40.1509 164.875 40.3679 165.193C40.5848 165.51 40.6967 165.878 40.7036 166.296H39.2819ZM41.7698 173.267V166.032H43.2086V166.916H43.2737C43.3376 166.774 43.4301 166.63 43.5512 166.484C43.6745 166.336 43.8344 166.213 44.0308 166.114C44.2295 166.014 44.4761 165.964 44.7707 165.964C45.1544 165.964 45.5084 166.064 45.8327 166.265C46.157 166.464 46.4162 166.764 46.6103 167.166C46.8044 167.566 46.9015 168.067 46.9015 168.67C46.9015 169.257 46.8067 169.752 46.6172 170.157C46.4299 170.559 46.1741 170.863 45.8498 171.071C45.5278 171.277 45.167 171.38 44.7673 171.38C44.4841 171.38 44.2432 171.333 44.0445 171.239C43.8481 171.145 43.6871 171.028 43.5615 170.886C43.4358 170.742 43.3399 170.597 43.2737 170.451H43.2292V173.267H41.7698ZM43.1983 168.663C43.1983 168.976 43.2417 169.249 43.3285 169.482C43.4153 169.715 43.5409 169.896 43.7053 170.026C43.8698 170.154 44.0696 170.218 44.3048 170.218C44.5423 170.218 44.7433 170.153 44.9077 170.023C45.0722 169.891 45.1966 169.708 45.2811 169.475C45.3679 169.24 45.4113 168.969 45.4113 168.663C45.4113 168.359 45.3691 168.092 45.2846 167.861C45.2001 167.631 45.0756 167.45 44.9112 167.32C44.7467 167.19 44.5446 167.125 44.3048 167.125C44.0673 167.125 43.8663 167.188 43.7019 167.313C43.5398 167.439 43.4153 167.617 43.3285 167.848C43.2417 168.078 43.1983 168.35 43.1983 168.663ZM50.2518 171.397C49.7197 171.397 49.2595 171.284 48.8713 171.058C48.4853 170.829 48.1873 170.512 47.9772 170.105C47.7671 169.696 47.662 169.223 47.662 168.684C47.662 168.14 47.7671 167.665 47.9772 167.258C48.1873 166.85 48.4853 166.532 48.8713 166.306C49.2595 166.078 49.7197 165.964 50.2518 165.964C50.7839 165.964 51.243 166.078 51.6289 166.306C52.0172 166.532 52.3164 166.85 52.5265 167.258C52.7366 167.665 52.8416 168.14 52.8416 168.684C52.8416 169.223 52.7366 169.696 52.5265 170.105C52.3164 170.512 52.0172 170.829 51.6289 171.058C51.243 171.284 50.7839 171.397 50.2518 171.397ZM50.2587 170.266C50.5008 170.266 50.7029 170.198 50.865 170.061C51.0272 169.921 51.1493 169.732 51.2316 169.492C51.3161 169.252 51.3583 168.979 51.3583 168.673C51.3583 168.367 51.3161 168.094 51.2316 167.855C51.1493 167.615 51.0272 167.425 50.865 167.286C50.7029 167.147 50.5008 167.077 50.2587 167.077C50.0143 167.077 49.8088 167.147 49.642 167.286C49.4776 167.425 49.3531 167.615 49.2686 167.855C49.1864 168.094 49.1453 168.367 49.1453 168.673C49.1453 168.979 49.1864 169.252 49.2686 169.492C49.3531 169.732 49.4776 169.921 49.642 170.061C49.8088 170.198 50.0143 170.266 50.2587 170.266ZM55.2499 168.252V171.294H53.7905V166.032H55.1814V166.96H55.243C55.3595 166.654 55.5548 166.412 55.8288 166.234C56.1029 166.054 56.4352 165.964 56.8257 165.964C57.1911 165.964 57.5097 166.044 57.7815 166.203C58.0532 166.363 58.2645 166.592 58.4152 166.889C58.566 167.183 58.6413 167.535 58.6413 167.944V171.294H57.182V168.204C57.1843 167.882 57.102 167.631 56.9353 167.45C56.7686 167.268 56.5391 167.176 56.2468 167.176C56.0504 167.176 55.8768 167.219 55.7261 167.303C55.5776 167.388 55.4611 167.511 55.3766 167.673C55.2944 167.833 55.2522 168.026 55.2499 168.252ZM64.1695 167.533L62.8335 167.615C62.8107 167.501 62.7616 167.398 62.6862 167.306C62.6108 167.213 62.5115 167.139 62.3882 167.084C62.2671 167.027 62.1221 166.998 61.9531 166.998C61.727 166.998 61.5363 167.046 61.381 167.142C61.2257 167.236 61.1481 167.361 61.1481 167.519C61.1481 167.644 61.1983 167.751 61.2988 167.837C61.3993 167.924 61.5717 167.994 61.8161 168.046L62.7684 168.238C63.28 168.343 63.6614 168.512 63.9126 168.745C64.1638 168.978 64.2894 169.284 64.2894 169.663C64.2894 170.008 64.1878 170.311 63.9845 170.571C63.7836 170.831 63.5072 171.035 63.1555 171.181C62.8061 171.325 62.403 171.397 61.9462 171.397C61.2497 171.397 60.6947 171.252 60.2814 170.962C59.8703 170.669 59.6293 170.272 59.5585 169.77L60.9939 169.694C61.0373 169.907 61.1424 170.069 61.3091 170.181C61.4758 170.29 61.6893 170.345 61.9497 170.345C62.2055 170.345 62.411 170.296 62.5663 170.198C62.7239 170.097 62.8038 169.968 62.8061 169.811C62.8038 169.678 62.7479 169.57 62.6382 169.485C62.5286 169.398 62.3596 169.332 62.1312 169.286L61.22 169.105C60.7062 169.002 60.3236 168.824 60.0724 168.571C59.8235 168.317 59.699 167.994 59.699 167.601C59.699 167.263 59.7904 166.972 59.9731 166.728C60.158 166.483 60.4173 166.295 60.7507 166.162C61.0864 166.03 61.4792 165.964 61.9291 165.964C62.5937 165.964 63.1167 166.104 63.4981 166.385C63.8818 166.666 64.1056 167.048 64.1695 167.533ZM67.5858 171.397C67.0537 171.397 66.5935 171.284 66.2052 171.058C65.8193 170.829 65.5212 170.512 65.3111 170.105C65.101 169.696 64.996 169.223 64.996 168.684C64.996 168.14 65.101 167.665 65.3111 167.258C65.5212 166.85 65.8193 166.532 66.2052 166.306C66.5935 166.078 67.0537 165.964 67.5858 165.964C68.1179 165.964 68.5769 166.078 68.9629 166.306C69.3512 166.532 69.6503 166.85 69.8604 167.258C70.0705 167.665 70.1756 168.14 70.1756 168.684C70.1756 169.223 70.0705 169.696 69.8604 170.105C69.6503 170.512 69.3512 170.829 68.9629 171.058C68.5769 171.284 68.1179 171.397 67.5858 171.397ZM67.5926 170.266C67.8347 170.266 68.0368 170.198 68.199 170.061C68.3611 169.921 68.4833 169.732 68.5655 169.492C68.65 169.252 68.6923 168.979 68.6923 168.673C68.6923 168.367 68.65 168.094 68.5655 167.855C68.4833 167.615 68.3611 167.425 68.199 167.286C68.0368 167.147 67.8347 167.077 67.5926 167.077C67.3483 167.077 67.1427 167.147 66.976 167.286C66.8116 167.425 66.6871 167.615 66.6026 167.855C66.5204 168.094 66.4793 168.367 66.4793 168.673C66.4793 168.979 66.5204 169.252 66.6026 169.492C66.6871 169.732 66.8116 169.921 66.976 170.061C67.1427 170.198 67.3483 170.266 67.5926 170.266ZM71.1245 171.294V166.032H72.5393V166.95H72.5941C72.6901 166.624 72.8511 166.377 73.0772 166.21C73.3033 166.041 73.5636 165.957 73.8582 165.957C73.9313 165.957 74.0101 165.961 74.0946 165.97C74.1791 165.98 74.2533 165.992 74.3173 166.008V167.303C74.2487 167.282 74.154 167.264 74.0329 167.248C73.9119 167.232 73.8011 167.224 73.7006 167.224C73.486 167.224 73.2941 167.271 73.1251 167.365C72.9584 167.456 72.8259 167.584 72.7277 167.748C72.6318 167.913 72.5839 168.102 72.5839 168.317V171.294H71.1245ZM77.2248 171.397C76.6835 171.397 76.2177 171.287 75.8271 171.068C75.4389 170.846 75.1397 170.533 74.9296 170.129C74.7195 169.723 74.6144 169.242 74.6144 168.687C74.6144 168.146 74.7195 167.671 74.9296 167.262C75.1397 166.853 75.4355 166.535 75.8168 166.306C76.2005 166.078 76.6504 165.964 77.1666 165.964C77.5137 165.964 77.8369 166.02 78.136 166.131C78.4375 166.241 78.7001 166.407 78.9239 166.628C79.15 166.85 79.3259 167.128 79.4515 167.464C79.5771 167.797 79.6399 168.188 79.6399 168.636V169.036H75.1968V168.132H78.2662C78.2662 167.922 78.2205 167.736 78.1292 167.574C78.0378 167.412 77.9111 167.285 77.7489 167.193C77.5891 167.1 77.4029 167.053 77.1905 167.053C76.969 167.053 76.7726 167.104 76.6013 167.207C76.4323 167.308 76.2999 167.443 76.2039 167.615C76.108 167.784 76.0589 167.972 76.0566 168.18V169.04C76.0566 169.3 76.1046 169.525 76.2005 169.715C76.2987 169.904 76.4369 170.05 76.615 170.153C76.7932 170.256 77.0044 170.307 77.2488 170.307C77.4109 170.307 77.5594 170.285 77.6941 170.239C77.8289 170.193 77.9442 170.125 78.0401 170.033C78.136 169.942 78.2091 169.83 78.2594 169.698L79.6091 169.787C79.5406 170.111 79.4001 170.394 79.1877 170.636C78.9776 170.876 78.7058 171.063 78.3724 171.198C78.0413 171.33 77.6587 171.397 77.2248 171.397ZM82.5312 171.38C82.1315 171.38 81.7695 171.277 81.4452 171.071C81.1232 170.863 80.8675 170.559 80.6779 170.157C80.4906 169.752 80.397 169.257 80.397 168.67C80.397 168.067 80.4941 167.566 80.6882 167.166C80.8823 166.764 81.1404 166.464 81.4624 166.265C81.7867 166.064 82.1418 165.964 82.5278 165.964C82.8224 165.964 83.0679 166.014 83.2643 166.114C83.463 166.213 83.6228 166.336 83.7439 166.484C83.8672 166.63 83.9608 166.774 84.0248 166.916H84.0693V164.278H85.5252V171.294H84.0865V170.451H84.0248C83.9563 170.597 83.8592 170.742 83.7336 170.886C83.6103 171.028 83.4493 171.145 83.2506 171.239C83.0542 171.333 82.8144 171.38 82.5312 171.38ZM82.9937 170.218C83.2289 170.218 83.4276 170.154 83.5897 170.026C83.7542 169.896 83.8798 169.715 83.9666 169.482C84.0556 169.249 84.1002 168.976 84.1002 168.663C84.1002 168.35 84.0568 168.078 83.97 167.848C83.8832 167.617 83.7576 167.439 83.5932 167.313C83.4287 167.188 83.2289 167.125 82.9937 167.125C82.7539 167.125 82.5517 167.19 82.3873 167.32C82.2229 167.45 82.0984 167.631 82.0139 167.861C81.9294 168.092 81.8872 168.359 81.8872 168.663C81.8872 168.969 81.9294 169.24 82.0139 169.475C82.1007 169.708 82.2252 169.891 82.3873 170.023C82.5517 170.153 82.7539 170.218 82.9937 170.218Z" fill="#4B5563"/>
<g filter="url(#filter4_dd_2267_21696)">
<rect x="233.83" y="149.961" width="60.7748" height="60.1065" rx="2.92262" fill="white"/>
</g>
<mask id="mask0_2267_21696" style="mask-type:alpha" maskUnits="userSpaceOnUse" x="237" y="153" width="54" height="54">
<rect x="237.775" y="153.862" width="52.8852" height="52.3037" rx="2.92262" fill="white"/>
</mask>
<g mask="url(#mask0_2267_21696)">
<path d="M274.89 184.378C276.071 182.832 278.398 182.832 279.578 184.378L292.914 201.831C294.397 203.773 293.013 206.572 290.569 206.572H263.899C261.456 206.572 260.072 203.773 261.555 201.831L274.89 184.378Z" fill="#C4B5FD"/>
<path d="M249.564 177.81C251.335 175.492 254.825 175.492 256.596 177.81L278.665 206.695H236.444C232.78 206.695 230.703 202.496 232.928 199.584L249.564 177.81Z" fill="#7A2CFF"/>
<ellipse cx="270.071" cy="169.185" rx="6.92245" ry="6.84634" fill="#C4B5FD"/>
</g>
<rect x="13.717" y="143.887" width="288.226" height="72.2551" rx="6.07429" stroke="white" stroke-width="2.22617"/>
</g>
<g filter="url(#filter5_dd_2267_21696)">
<rect x="14.8301" y="227" width="286" height="68" rx="5.73211" fill="#F9FAFB"/>
<rect x="37.7583" y="245" width="171" height="10" rx="4.42678" fill="#E5E7EB"/>
<rect x="37.7583" y="263.598" width="114" height="10" rx="4.42678" fill="#E5E7EB"/>
<g filter="url(#filter6_dd_2267_21696)">
<rect x="231.83" y="232.732" width="61.7746" height="56.35" rx="3.37675" fill="#E5E7EB"/>
<rect x="232.33" y="233.232" width="60.7746" height="55.35" rx="2.87675" stroke="white"/>
</g>
<mask id="mask1_2267_21696" style="mask-type:alpha" maskUnits="userSpaceOnUse" x="235" y="236" width="55" height="50">
<rect x="235.84" y="236.39" width="53.7552" height="49.0348" rx="3.37675" fill="white"/>
</mask>
<g mask="url(#mask1_2267_21696)">
<path d="M274.389 264.005C275.199 263.027 276.699 263.027 277.509 264.005L292.819 282.486C293.913 283.807 292.974 285.805 291.259 285.805H260.639C258.924 285.805 257.985 283.807 259.079 282.486L274.389 264.005Z" fill="#D1D5DB"/>
<path d="M249.836 256.409C250.647 255.431 252.147 255.431 252.957 256.409L274.654 282.601C275.748 283.922 274.809 285.92 273.094 285.92H229.7C227.985 285.92 227.045 283.922 228.139 282.601L249.836 256.409Z" fill="#9CA3AF"/>
<ellipse cx="268.668" cy="250.754" rx="7.03633" ry="6.41846" fill="#9CA3AF"/>
</g>
<rect x="13.8301" y="226" width="288" height="70" rx="6.73211" stroke="white" stroke-width="2"/>
</g>
<g filter="url(#filter7_dd_2267_21696)">
<rect x="14.8301" y="308" width="286" height="68" rx="5.73211" fill="#F9FAFB"/>
<rect x="37.7583" y="326" width="171" height="10" rx="4.42678" fill="#E5E7EB"/>
<rect x="37.7583" y="344.598" width="114" height="10" rx="4.42678" fill="#E5E7EB"/>
<g filter="url(#filter8_dd_2267_21696)">
<rect x="231.83" y="313.732" width="61.7746" height="56.35" rx="3.37675" fill="#E5E7EB"/>
<rect x="232.33" y="314.232" width="60.7746" height="55.35" rx="2.87675" stroke="white"/>
</g>
<mask id="mask2_2267_21696" style="mask-type:alpha" maskUnits="userSpaceOnUse" x="235" y="317" width="55" height="50">
<rect x="235.84" y="317.39" width="53.7552" height="49.0348" rx="3.37675" fill="white"/>
</mask>
<g mask="url(#mask2_2267_21696)">
<path d="M274.389 345.005C275.199 344.027 276.699 344.027 277.509 345.005L292.819 363.486C293.913 364.807 292.974 366.805 291.259 366.805H260.639C258.924 366.805 257.985 364.807 259.079 363.486L274.389 345.005Z" fill="#D1D5DB"/>
<path d="M249.836 337.409C250.647 336.431 252.147 336.431 252.957 337.409L274.654 363.601C275.748 364.922 274.809 366.92 273.094 366.92H229.7C227.985 366.92 227.045 364.922 228.139 363.601L249.836 337.409Z" fill="#9CA3AF"/>
<ellipse cx="268.668" cy="331.754" rx="7.03633" ry="6.41846" fill="#9CA3AF"/>
</g>
<rect x="13.8301" y="307" width="288" height="70" rx="6.73211" stroke="white" stroke-width="2"/>
</g>
<defs>
<filter id="filter0_dd_2267_21696" x="32" y="20.3984" width="475.298" height="349.495" filterUnits="userSpaceOnUse" color-interpolation-filters="sRGB">
<feFlood flood-opacity="0" result="BackgroundImageFix"/>
<feColorMatrix in="SourceAlpha" type="matrix" values="0 0 0 0 0 0 0 0 0 0 0 0 0 0 0 0 0 0 127 0" result="hardAlpha"/>
<feMorphology radius="5" operator="erode" in="SourceAlpha" result="effect1_dropShadow_2267_21696"/>
<feOffset dy="10"/>
<feGaussianBlur stdDeviation="8"/>
<feColorMatrix type="matrix" values="0 0 0 0 0 0 0 0 0 0 0 0 0 0 0 0 0 0 0.04 0"/>
<feBlend mode="normal" in2="BackgroundImageFix" result="effect1_dropShadow_2267_21696"/>
<feColorMatrix in="SourceAlpha" type="matrix" values="0 0 0 0 0 0 0 0 0 0 0 0 0 0 0 0 0 0 127 0" result="hardAlpha"/>
<feMorphology radius="5" operator="erode" in="SourceAlpha" result="effect2_dropShadow_2267_21696"/>
<feOffset dy="20"/>
<feGaussianBlur stdDeviation="16"/>
<feColorMatrix type="matrix" values="0 0 0 0 0 0 0 0 0 0 0 0 0 0 0 0 0 0 0.1 0"/>
<feBlend mode="normal" in2="effect1_dropShadow_2267_21696" result="effect2_dropShadow_2267_21696"/>
<feBlend mode="normal" in="SourceGraphic" in2="effect2_dropShadow_2267_21696" result="shape"/>
</filter>
<filter id="filter1_d_2267_21696" x="195.393" y="96.3711" width="154.977" height="22.4536" filterUnits="userSpaceOnUse" color-interpolation-filters="sRGB">
<feFlood flood-opacity="0" result="BackgroundImageFix"/>
<feColorMatrix in="SourceAlpha" type="matrix" values="0 0 0 0 0 0 0 0 0 0 0 0 0 0 0 0 0 0 127 0" result="hardAlpha"/>
<feOffset dy="1"/>
<feGaussianBlur stdDeviation="1"/>
<feColorMatrix type="matrix" values="0 0 0 0 0 0 0 0 0 0 0 0 0 0 0 0 0 0 0.05 0"/>
<feBlend mode="normal" in2="BackgroundImageFix" result="effect1_dropShadow_2267_21696"/>
<feBlend mode="normal" in="SourceGraphic" in2="effect1_dropShadow_2267_21696" result="shape"/>
</filter>
<filter id="filter2_d_2267_21696" x="56.6159" y="0.807928" width="426.066" height="33.7282" filterUnits="userSpaceOnUse" color-interpolation-filters="sRGB">
<feFlood flood-opacity="0" result="BackgroundImageFix"/>
<feColorMatrix in="SourceAlpha" type="matrix" values="0 0 0 0 0 0 0 0 0 0 0 0 0 0 0 0 0 0 127 0" result="hardAlpha"/>
<feOffset dy="1.19207"/>
<feGaussianBlur stdDeviation="1.19207"/>
<feColorMatrix type="matrix" values="0 0 0 0 0 0 0 0 0 0 0 0 0 0 0 0 0 0 0.05 0"/>
<feBlend mode="normal" in2="BackgroundImageFix" result="effect1_dropShadow_2267_21696"/>
<feBlend mode="normal" in="SourceGraphic" in2="effect1_dropShadow_2267_21696" result="shape"/>
</filter>
<filter id="filter3_dd_2267_21696" x="0.200984" y="142.774" width="315.259" height="99.287" filterUnits="userSpaceOnUse" color-interpolation-filters="sRGB">
<feFlood flood-opacity="0" result="BackgroundImageFix"/>
<feColorMatrix in="SourceAlpha" type="matrix" values="0 0 0 0 0 0 0 0 0 0 0 0 0 0 0 0 0 0 127 0" result="hardAlpha"/>
<feMorphology radius="3.10075" operator="erode" in="SourceAlpha" result="effect1_dropShadow_2267_21696"/>
<feOffset dy="6.20151"/>
<feGaussianBlur stdDeviation="3.10075"/>
<feColorMatrix type="matrix" values="0 0 0 0 0 0 0 0 0 0 0 0 0 0 0 0 0 0 0.04 0"/>
<feBlend mode="normal" in2="BackgroundImageFix" result="effect1_dropShadow_2267_21696"/>
<feColorMatrix in="SourceAlpha" type="matrix" values="0 0 0 0 0 0 0 0 0 0 0 0 0 0 0 0 0 0 127 0" result="hardAlpha"/>
<feMorphology radius="3.10075" operator="erode" in="SourceAlpha" result="effect2_dropShadow_2267_21696"/>
<feOffset dy="12.403"/>
<feGaussianBlur stdDeviation="7.75189"/>
<feColorMatrix type="matrix" values="0 0 0 0 0.654902 0 0 0 0 0.545098 0 0 0 0 0.980392 0 0 0 0.1 0"/>
<feBlend mode="normal" in2="effect1_dropShadow_2267_21696" result="effect2_dropShadow_2267_21696"/>
<feBlend mode="normal" in="SourceGraphic" in2="effect2_dropShadow_2267_21696" result="shape"/>
</filter>
<filter id="filter4_dd_2267_21696" x="231.346" y="149.465" width="65.7431" height="65.0751" filterUnits="userSpaceOnUse" color-interpolation-filters="sRGB">
<feFlood flood-opacity="0" result="BackgroundImageFix"/>
<feColorMatrix in="SourceAlpha" type="matrix" values="0 0 0 0 0 0 0 0 0 0 0 0 0 0 0 0 0 0 127 0" result="hardAlpha"/>
<feMorphology radius="0.496867" operator="erode" in="SourceAlpha" result="effect1_dropShadow_2267_21696"/>
<feOffset dy="0.993734"/>
<feGaussianBlur stdDeviation="0.993734"/>
<feColorMatrix type="matrix" values="0 0 0 0 0 0 0 0 0 0 0 0 0 0 0 0 0 0 0.06 0"/>
<feBlend mode="normal" in2="BackgroundImageFix" result="effect1_dropShadow_2267_21696"/>
<feColorMatrix in="SourceAlpha" type="matrix" values="0 0 0 0 0 0 0 0 0 0 0 0 0 0 0 0 0 0 127 0" result="hardAlpha"/>
<feMorphology radius="0.496867" operator="erode" in="SourceAlpha" result="effect2_dropShadow_2267_21696"/>
<feOffset dy="1.98747"/>
<feGaussianBlur stdDeviation="1.4906"/>
<feColorMatrix type="matrix" values="0 0 0 0 0 0 0 0 0 0 0 0 0 0 0 0 0 0 0.1 0"/>
<feBlend mode="normal" in2="effect1_dropShadow_2267_21696" result="effect2_dropShadow_2267_21696"/>
<feBlend mode="normal" in="SourceGraphic" in2="effect2_dropShadow_2267_21696" result="shape"/>
</filter>
<filter id="filter5_dd_2267_21696" x="10.3075" y="223.318" width="295.045" height="77.0452" filterUnits="userSpaceOnUse" color-interpolation-filters="sRGB">
<feFlood flood-opacity="0" result="BackgroundImageFix"/>
<feColorMatrix in="SourceAlpha" type="matrix" values="0 0 0 0 0 0 0 0 0 0 0 0 0 0 0 0 0 0 127 0" result="hardAlpha"/>
<feOffset dy="0.840871"/>
<feGaussianBlur stdDeviation="0.840871"/>
<feColorMatrix type="matrix" values="0 0 0 0 0 0 0 0 0 0 0 0 0 0 0 0 0 0 0.06 0"/>
<feBlend mode="normal" in2="BackgroundImageFix" result="effect1_dropShadow_2267_21696"/>
<feColorMatrix in="SourceAlpha" type="matrix" values="0 0 0 0 0 0 0 0 0 0 0 0 0 0 0 0 0 0 127 0" result="hardAlpha"/>
<feOffset dy="0.840871"/>
<feGaussianBlur stdDeviation="1.26131"/>
<feColorMatrix type="matrix" values="0 0 0 0 0 0 0 0 0 0 0 0 0 0 0 0 0 0 0.1 0"/>
<feBlend mode="normal" in2="effect1_dropShadow_2267_21696" result="effect2_dropShadow_2267_21696"/>
<feBlend mode="normal" in="SourceGraphic" in2="effect2_dropShadow_2267_21696" result="shape"/>
</filter>
<filter id="filter6_dd_2267_21696" x="228.96" y="232.158" width="67.5151" height="62.0908" filterUnits="userSpaceOnUse" color-interpolation-filters="sRGB">
<feFlood flood-opacity="0" result="BackgroundImageFix"/>
<feColorMatrix in="SourceAlpha" type="matrix" values="0 0 0 0 0 0 0 0 0 0 0 0 0 0 0 0 0 0 127 0" result="hardAlpha"/>
<feMorphology radius="0.574073" operator="erode" in="SourceAlpha" result="effect1_dropShadow_2267_21696"/>
<feOffset dy="1.14815"/>
<feGaussianBlur stdDeviation="1.14815"/>
<feColorMatrix type="matrix" values="0 0 0 0 0 0 0 0 0 0 0 0 0 0 0 0 0 0 0.06 0"/>
<feBlend mode="normal" in2="BackgroundImageFix" result="effect1_dropShadow_2267_21696"/>
<feColorMatrix in="SourceAlpha" type="matrix" values="0 0 0 0 0 0 0 0 0 0 0 0 0 0 0 0 0 0 127 0" result="hardAlpha"/>
<feMorphology radius="0.574073" operator="erode" in="SourceAlpha" result="effect2_dropShadow_2267_21696"/>
<feOffset dy="2.29629"/>
<feGaussianBlur stdDeviation="1.72222"/>
<feColorMatrix type="matrix" values="0 0 0 0 0 0 0 0 0 0 0 0 0 0 0 0 0 0 0.1 0"/>
<feBlend mode="normal" in2="effect1_dropShadow_2267_21696" result="effect2_dropShadow_2267_21696"/>
<feBlend mode="normal" in="SourceGraphic" in2="effect2_dropShadow_2267_21696" result="shape"/>
</filter>
<filter id="filter7_dd_2267_21696" x="10.3075" y="304.318" width="295.045" height="77.0452" filterUnits="userSpaceOnUse" color-interpolation-filters="sRGB">
<feFlood flood-opacity="0" result="BackgroundImageFix"/>
<feColorMatrix in="SourceAlpha" type="matrix" values="0 0 0 0 0 0 0 0 0 0 0 0 0 0 0 0 0 0 127 0" result="hardAlpha"/>
<feOffset dy="0.840871"/>
<feGaussianBlur stdDeviation="0.840871"/>
<feColorMatrix type="matrix" values="0 0 0 0 0 0 0 0 0 0 0 0 0 0 0 0 0 0 0.06 0"/>
<feBlend mode="normal" in2="BackgroundImageFix" result="effect1_dropShadow_2267_21696"/>
<feColorMatrix in="SourceAlpha" type="matrix" values="0 0 0 0 0 0 0 0 0 0 0 0 0 0 0 0 0 0 127 0" result="hardAlpha"/>
<feOffset dy="0.840871"/>
<feGaussianBlur stdDeviation="1.26131"/>
<feColorMatrix type="matrix" values="0 0 0 0 0 0 0 0 0 0 0 0 0 0 0 0 0 0 0.1 0"/>
<feBlend mode="normal" in2="effect1_dropShadow_2267_21696" result="effect2_dropShadow_2267_21696"/>
<feBlend mode="normal" in="SourceGraphic" in2="effect2_dropShadow_2267_21696" result="shape"/>
</filter>
<filter id="filter8_dd_2267_21696" x="228.96" y="313.158" width="67.5151" height="62.0908" filterUnits="userSpaceOnUse" color-interpolation-filters="sRGB">
<feFlood flood-opacity="0" result="BackgroundImageFix"/>
<feColorMatrix in="SourceAlpha" type="matrix" values="0 0 0 0 0 0 0 0 0 0 0 0 0 0 0 0 0 0 127 0" result="hardAlpha"/>
<feMorphology radius="0.574073" operator="erode" in="SourceAlpha" result="effect1_dropShadow_2267_21696"/>
<feOffset dy="1.14815"/>
<feGaussianBlur stdDeviation="1.14815"/>
<feColorMatrix type="matrix" values="0 0 0 0 0 0 0 0 0 0 0 0 0 0 0 0 0 0 0.06 0"/>
<feBlend mode="normal" in2="BackgroundImageFix" result="effect1_dropShadow_2267_21696"/>
<feColorMatrix in="SourceAlpha" type="matrix" values="0 0 0 0 0 0 0 0 0 0 0 0 0 0 0 0 0 0 127 0" result="hardAlpha"/>
<feMorphology radius="0.574073" operator="erode" in="SourceAlpha" result="effect2_dropShadow_2267_21696"/>
<feOffset dy="2.29629"/>
<feGaussianBlur stdDeviation="1.72222"/>
<feColorMatrix type="matrix" values="0 0 0 0 0 0 0 0 0 0 0 0 0 0 0 0 0 0 0.1 0"/>
<feBlend mode="normal" in2="effect1_dropShadow_2267_21696" result="effect2_dropShadow_2267_21696"/>
<feBlend mode="normal" in="SourceGraphic" in2="effect2_dropShadow_2267_21696" result="shape"/>
</filter>
<linearGradient id="paint0_linear_2267_21696" x1="269.649" y1="30.3984" x2="269.649" y2="319.893" gradientUnits="userSpaceOnUse">
<stop stop-color="white"/>
<stop offset="0.0001" stop-color="#F9FAFB"/>
<stop offset="1" stop-color="#F3F4F6"/>
</linearGradient>
</defs>
</svg>
