<svg viewBox="0 0 676 385" fill="none" xmlns="http://www.w3.org/2000/svg">
<g filter="url(#filter0_dd_2267_21790)">
<path d="M656.838 68.3389V345.789C656.838 348.6 654.559 350.878 651.749 350.878H418.27C415.459 350.878 413.181 348.6 413.181 345.789V9.67799C413.181 6.86743 415.459 4.58903 418.27 4.58903H590.19L656.838 68.3389Z" fill="url(#paint0_linear_2267_21790)" stroke="white" stroke-width="2.66048"/>
<path d="M595.003 67.7697C592.64 67.7697 590.724 65.8537 590.724 63.4902L590.724 3.25732L658.167 67.7697L595.003 67.7697Z" fill="#E5E7EB"/>
<rect x="448.799" y="92.9297" width="178.58" height="9.85269" rx="4.92635" fill="#E5E7EB"/>
<rect x="527.619" y="267.815" width="99.7585" height="9.85269" rx="4.92635" fill="#E5E7EB"/>
<rect x="448.799" y="112.635" width="113.306" height="9.85269" rx="4.92635" fill="#E5E7EB"/>
<rect x="448.799" y="229.636" width="33.2528" height="9.85269" transform="rotate(-90 448.799 229.636)" fill="#D1D5DB"/>
<rect x="495.599" y="229.636" width="22.1686" height="9.85269" transform="rotate(-90 495.599 229.636)" fill="#D1D5DB"/>
<rect x="542.398" y="229.636" width="51.7266" height="9.85269" transform="rotate(-90 542.398 229.636)" fill="#D1D5DB"/>
<rect x="472.198" y="229.636" width="41.8739" height="9.85269" transform="rotate(-90 472.198 229.636)" fill="#9CA3AF"/>
<rect x="518.998" y="229.636" width="35.716" height="9.85269" transform="rotate(-90 518.998 229.636)" fill="#9CA3AF"/>
<rect x="565.798" y="229.636" width="33.2528" height="9.85269" transform="rotate(-90 565.798 229.636)" fill="#9CA3AF"/>
<rect x="527.619" y="287.521" width="99.7585" height="9.85269" rx="4.92635" fill="#E5E7EB"/>
<rect x="527.619" y="307.226" width="48.0319" height="9.85269" rx="4.92635" fill="#E5E7EB"/>
<rect x="448.799" y="132.34" width="78.8215" height="17.2422" rx="8.62111" fill="#7A2CFF"/>
<rect x="467.271" y="137.267" width="41.8739" height="7.38952" rx="3.69476" fill="#DDD6FE"/>
<circle cx="478.356" cy="292.447" r="29.5581" fill="#D1D5DB"/>
<path d="M507.914 292.447C507.914 298.293 506.18 304.008 502.933 308.868C499.685 313.729 495.068 317.518 489.667 319.755C484.266 321.992 478.323 322.577 472.589 321.437C466.856 320.296 461.589 317.481 457.455 313.347C453.321 309.214 450.506 303.947 449.366 298.213C448.225 292.48 448.811 286.536 451.048 281.135C453.285 275.734 457.074 271.118 461.934 267.87C466.795 264.622 472.51 262.889 478.356 262.889L478.356 292.447H507.914Z" fill="#6B7280"/>
<path d="M473.432 44.0314C473.432 44.323 473.316 44.6027 473.11 44.8089L459.796 58.1228C459.59 58.329 459.31 58.4448 459.018 58.4448L453.594 58.4448C452.987 58.4448 452.495 57.9525 452.495 57.3453L452.495 51.9213C452.495 51.6297 452.611 51.35 452.817 51.1438L466.131 37.8299C466.337 37.6237 466.616 37.5079 466.908 37.5079L472.332 37.5079C472.939 37.5079 473.432 38.0001 473.432 38.6074L473.432 44.0314Z" fill="#4B5563"/>
<path d="M487.191 44.0314C487.191 44.323 487.076 44.6027 486.869 44.8089L473.555 58.1228C473.349 58.329 473.07 58.4448 472.778 58.4448L467.354 58.4448C466.747 58.4448 466.254 57.9525 466.254 57.3453L466.254 51.9213C466.254 51.6297 466.37 51.35 466.576 51.1438L479.89 37.8299C480.097 37.6237 480.376 37.5079 480.668 37.5079L486.092 37.5079C486.699 37.5079 487.191 38.0001 487.191 38.6074L487.191 44.0314Z" fill="#4B5563"/>
<path d="M487.108 57.1783C487.108 57.7856 486.616 58.2778 486.009 58.2778L480.071 58.2778C479.091 58.2778 478.601 57.0935 479.293 56.4008L485.231 50.4628C485.924 49.7702 487.108 50.2608 487.108 51.2403L487.108 57.1783Z" fill="#7A2CFF"/>
</g>
<g filter="url(#filter1_dd_2267_21790)">
<rect x="5" y="111" width="387" height="215.629" rx="12" fill="url(#paint1_linear_2267_21790)"/>
<path d="M76.4222 142.079C76.3343 141.795 76.2132 141.54 76.0586 141.315C75.9076 141.087 75.7249 140.892 75.5106 140.73C75.2999 140.569 75.0575 140.447 74.7835 140.367C74.5096 140.282 74.211 140.24 73.8878 140.24C73.3083 140.24 72.7919 140.386 72.3388 140.678C71.8857 140.969 71.5292 141.398 71.2692 141.963C71.0128 142.525 70.8846 143.21 70.8846 144.018C70.8846 144.833 71.0128 145.523 71.2692 146.089C71.5256 146.654 71.8822 147.084 72.3388 147.38C72.7954 147.671 73.3258 147.817 73.93 147.817C74.478 147.817 74.9521 147.711 75.3526 147.501C75.7565 147.29 76.0674 146.991 76.2852 146.605C76.5029 146.215 76.6118 145.758 76.6118 145.235L77.0544 145.304H74.1249V143.776H78.5033V145.072C78.5033 145.996 78.3066 146.795 77.9132 147.469C77.5198 148.143 76.9789 148.663 76.2904 149.029C75.602 149.39 74.8116 149.571 73.9195 149.571C72.9254 149.571 72.0525 149.348 71.3008 148.902C70.5527 148.453 69.9678 147.815 69.5463 146.99C69.1283 146.161 68.9193 145.177 68.9193 144.039C68.9193 143.168 69.0423 142.39 69.2881 141.705C69.5375 141.02 69.8853 140.439 70.3314 139.961C70.7775 139.48 71.3008 139.114 71.9015 138.865C72.5021 138.612 73.1555 138.486 73.8615 138.486C74.4586 138.486 75.0154 138.574 75.5317 138.749C76.0481 138.921 76.5065 139.167 76.9069 139.487C77.3108 139.806 77.6428 140.186 77.9027 140.625C78.1626 141.064 78.333 141.549 78.4138 142.079H76.4222ZM83.8394 149.582C83.049 149.582 82.3641 149.408 81.7845 149.06C81.2049 148.713 80.7553 148.226 80.4357 147.601C80.1196 146.976 79.9615 146.245 79.9615 145.409C79.9615 144.573 80.1196 143.841 80.4357 143.212C80.7553 142.583 81.2049 142.095 81.7845 141.747C82.3641 141.399 83.049 141.226 83.8394 141.226C84.6297 141.226 85.3146 141.399 85.8942 141.747C86.4738 142.095 86.9216 142.583 87.2378 143.212C87.5574 143.841 87.7172 144.573 87.7172 145.409C87.7172 146.245 87.5574 146.976 87.2378 147.601C86.9216 148.226 86.4738 148.713 85.8942 149.06C85.3146 149.408 84.6297 149.582 83.8394 149.582ZM83.8499 148.054C84.2784 148.054 84.6367 147.936 84.9248 147.701C85.2128 147.462 85.427 147.142 85.5675 146.742C85.7116 146.342 85.7836 145.895 85.7836 145.404C85.7836 144.908 85.7116 144.461 85.5675 144.06C85.427 143.656 85.2128 143.335 84.9248 143.096C84.6367 142.857 84.2784 142.738 83.8499 142.738C83.4108 142.738 83.0455 142.857 82.754 143.096C82.466 143.335 82.2499 143.656 82.1059 144.06C81.9654 144.461 81.8952 144.908 81.8952 145.404C81.8952 145.895 81.9654 146.342 82.1059 146.742C82.2499 147.142 82.466 147.462 82.754 147.701C83.0455 147.936 83.4108 148.054 83.8499 148.054ZM92.8662 149.582C92.0759 149.582 91.3909 149.408 90.8114 149.06C90.2318 148.713 89.7822 148.226 89.4625 147.601C89.1464 146.976 88.9883 146.245 88.9883 145.409C88.9883 144.573 89.1464 143.841 89.4625 143.212C89.7822 142.583 90.2318 142.095 90.8114 141.747C91.3909 141.399 92.0759 141.226 92.8662 141.226C93.6565 141.226 94.3415 141.399 94.9211 141.747C95.5006 142.095 95.9485 142.583 96.2646 143.212C96.5843 143.841 96.7441 144.573 96.7441 145.409C96.7441 146.245 96.5843 146.976 96.2646 147.601C95.9485 148.226 95.5006 148.713 94.9211 149.06C94.3415 149.408 93.6565 149.582 92.8662 149.582ZM92.8768 148.054C93.3053 148.054 93.6636 147.936 93.9516 147.701C94.2396 147.462 94.4539 147.142 94.5944 146.742C94.7384 146.342 94.8104 145.895 94.8104 145.404C94.8104 144.908 94.7384 144.461 94.5944 144.06C94.4539 143.656 94.2396 143.335 93.9516 143.096C93.6636 142.857 93.3053 142.738 92.8768 142.738C92.4377 142.738 92.0724 142.857 91.7808 143.096C91.4928 143.335 91.2768 143.656 91.1328 144.06C90.9923 144.461 90.922 144.908 90.922 145.404C90.922 145.895 90.9923 146.342 91.1328 146.742C91.2768 147.142 91.4928 147.462 91.7808 147.701C92.0724 147.936 92.4377 148.054 92.8768 148.054ZM101.883 152.627C101.198 152.627 100.609 152.534 100.117 152.348C99.6257 152.165 99.2305 151.92 98.932 151.61C98.6334 151.301 98.4262 150.959 98.3102 150.583L100.028 150.167C100.105 150.325 100.218 150.481 100.365 150.636C100.513 150.794 100.711 150.924 100.96 151.026C101.213 151.131 101.531 151.184 101.914 151.184C102.455 151.184 102.903 151.052 103.258 150.788C103.612 150.529 103.79 150.1 103.79 149.503V147.97H103.695C103.597 148.166 103.453 148.368 103.263 148.576C103.077 148.783 102.829 148.957 102.52 149.097C102.214 149.238 101.83 149.308 101.366 149.308C100.744 149.308 100.181 149.162 99.6749 148.871C99.1726 148.576 98.7721 148.136 98.4736 147.553C98.1785 146.967 98.031 146.233 98.031 145.351C98.031 144.462 98.1785 143.712 98.4736 143.101C98.7721 142.487 99.1743 142.021 99.6801 141.705C100.186 141.385 100.75 141.226 101.371 141.226C101.846 141.226 102.236 141.306 102.541 141.468C102.85 141.626 103.096 141.817 103.279 142.042C103.461 142.263 103.6 142.472 103.695 142.669H103.8V141.331H105.681V149.556C105.681 150.248 105.516 150.82 105.186 151.273C104.856 151.726 104.405 152.065 103.832 152.29C103.259 152.515 102.61 152.627 101.883 152.627ZM101.898 147.812C102.302 147.812 102.647 147.713 102.931 147.517C103.216 147.32 103.432 147.037 103.579 146.668C103.727 146.299 103.8 145.857 103.8 145.34C103.8 144.831 103.727 144.385 103.579 144.002C103.435 143.619 103.221 143.323 102.936 143.112C102.655 142.897 102.309 142.79 101.898 142.79C101.473 142.79 101.119 142.901 100.834 143.122C100.55 143.344 100.335 143.647 100.191 144.034C100.047 144.417 99.9752 144.852 99.9752 145.34C99.9752 145.836 100.047 146.27 100.191 146.642C100.339 147.011 100.555 147.299 100.839 147.506C101.127 147.71 101.48 147.812 101.898 147.812ZM109.543 138.633V149.424H107.636V138.633H109.543ZM115.088 149.582C114.276 149.582 113.575 149.413 112.985 149.076C112.399 148.735 111.947 148.254 111.631 147.632C111.315 147.007 111.157 146.271 111.157 145.425C111.157 144.592 111.315 143.862 111.631 143.233C111.951 142.601 112.397 142.109 112.969 141.758C113.542 141.403 114.215 141.226 114.987 141.226C115.486 141.226 115.957 141.306 116.4 141.468C116.846 141.626 117.239 141.872 117.58 142.206C117.924 142.539 118.194 142.964 118.391 143.481C118.588 143.993 118.686 144.605 118.686 145.314V145.899H112.053V144.613H116.858C116.854 144.248 116.775 143.923 116.621 143.639C116.466 143.351 116.25 143.124 115.973 142.959C115.699 142.794 115.379 142.711 115.014 142.711C114.624 142.711 114.281 142.806 113.986 142.996C113.691 143.182 113.461 143.428 113.296 143.733C113.135 144.036 113.052 144.367 113.049 144.729V145.852C113.049 146.322 113.135 146.726 113.307 147.063C113.479 147.397 113.719 147.653 114.029 147.833C114.338 148.008 114.699 148.096 115.114 148.096C115.391 148.096 115.643 148.057 115.867 147.98C116.092 147.899 116.287 147.782 116.452 147.627C116.617 147.473 116.742 147.281 116.826 147.053L118.607 147.253C118.495 147.724 118.28 148.135 117.964 148.486C117.652 148.834 117.251 149.104 116.763 149.297C116.275 149.487 115.716 149.582 115.088 149.582ZM129.929 141.6C129.879 141.139 129.672 140.781 129.307 140.525C128.945 140.268 128.474 140.14 127.895 140.14C127.487 140.14 127.138 140.202 126.846 140.325C126.555 140.447 126.332 140.614 126.177 140.825C126.023 141.036 125.944 141.276 125.94 141.547C125.94 141.772 125.991 141.967 126.093 142.132C126.198 142.297 126.34 142.437 126.52 142.553C126.699 142.666 126.897 142.76 127.115 142.838C127.333 142.915 127.552 142.98 127.774 143.033L128.785 143.286C129.193 143.38 129.584 143.509 129.96 143.67C130.34 143.832 130.679 144.036 130.977 144.281C131.279 144.527 131.518 144.824 131.694 145.172C131.869 145.52 131.957 145.927 131.957 146.394C131.957 147.027 131.795 147.583 131.472 148.064C131.149 148.542 130.682 148.916 130.071 149.187C129.463 149.454 128.727 149.587 127.863 149.587C127.024 149.587 126.295 149.457 125.677 149.197C125.062 148.937 124.581 148.558 124.233 148.059C123.889 147.56 123.703 146.953 123.674 146.236H125.598C125.626 146.612 125.742 146.925 125.945 147.174C126.149 147.423 126.414 147.61 126.741 147.733C127.071 147.855 127.44 147.917 127.847 147.917C128.272 147.917 128.645 147.854 128.964 147.727C129.288 147.597 129.54 147.418 129.723 147.19C129.906 146.958 129.999 146.688 130.002 146.378C129.999 146.097 129.916 145.866 129.755 145.683C129.593 145.497 129.367 145.342 129.075 145.219C128.787 145.093 128.45 144.98 128.063 144.882L126.836 144.566C125.947 144.338 125.245 143.992 124.728 143.528C124.215 143.061 123.959 142.441 123.959 141.668C123.959 141.032 124.131 140.476 124.475 139.998C124.823 139.52 125.296 139.15 125.893 138.886C126.49 138.619 127.166 138.486 127.921 138.486C128.687 138.486 129.358 138.619 129.934 138.886C130.513 139.15 130.968 139.517 131.298 139.987C131.629 140.455 131.799 140.992 131.81 141.6H129.929ZM135.523 144.682V149.424H133.615V138.633H135.481V142.706H135.575C135.765 142.249 136.058 141.889 136.455 141.626C136.856 141.359 137.365 141.226 137.983 141.226C138.545 141.226 139.035 141.343 139.453 141.579C139.871 141.814 140.194 142.158 140.423 142.611C140.655 143.064 140.771 143.618 140.771 144.271V149.424H138.863V144.566C138.863 144.022 138.723 143.598 138.442 143.296C138.164 142.991 137.774 142.838 137.272 142.838C136.935 142.838 136.633 142.912 136.366 143.059C136.102 143.203 135.895 143.412 135.744 143.686C135.597 143.96 135.523 144.292 135.523 144.682ZM146.298 149.582C145.486 149.582 144.785 149.413 144.195 149.076C143.609 148.735 143.157 148.254 142.841 147.632C142.525 147.007 142.367 146.271 142.367 145.425C142.367 144.592 142.525 143.862 142.841 143.233C143.161 142.601 143.607 142.109 144.179 141.758C144.752 141.403 145.425 141.226 146.197 141.226C146.696 141.226 147.167 141.306 147.609 141.468C148.056 141.626 148.449 141.872 148.79 142.206C149.134 142.539 149.404 142.964 149.601 143.481C149.798 143.993 149.896 144.605 149.896 145.314V145.899H143.263V144.613H148.068C148.064 144.248 147.985 143.923 147.831 143.639C147.676 143.351 147.46 143.124 147.183 142.959C146.909 142.794 146.589 142.711 146.224 142.711C145.834 142.711 145.491 142.806 145.196 142.996C144.901 143.182 144.671 143.428 144.506 143.733C144.345 144.036 144.262 144.367 144.259 144.729V145.852C144.259 146.322 144.345 146.726 144.517 147.063C144.689 147.397 144.929 147.653 145.239 147.833C145.548 148.008 145.909 148.096 146.324 148.096C146.601 148.096 146.853 148.057 147.077 147.98C147.302 147.899 147.497 147.782 147.662 147.627C147.827 147.473 147.952 147.281 148.036 147.053L149.817 147.253C149.705 147.724 149.49 148.135 149.174 148.486C148.862 148.834 148.461 149.104 147.973 149.297C147.485 149.487 146.926 149.582 146.298 149.582ZM155.093 149.582C154.281 149.582 153.58 149.413 152.99 149.076C152.404 148.735 151.952 148.254 151.636 147.632C151.32 147.007 151.162 146.271 151.162 145.425C151.162 144.592 151.32 143.862 151.636 143.233C151.956 142.601 152.402 142.109 152.974 141.758C153.547 141.403 154.22 141.226 154.992 141.226C155.491 141.226 155.962 141.306 156.405 141.468C156.851 141.626 157.244 141.872 157.585 142.206C157.929 142.539 158.199 142.964 158.396 143.481C158.593 143.993 158.691 144.605 158.691 145.314V145.899H152.058V144.613H156.863C156.859 144.248 156.78 143.923 156.626 143.639C156.471 143.351 156.255 143.124 155.978 142.959C155.704 142.794 155.384 142.711 155.019 142.711C154.629 142.711 154.286 142.806 153.991 142.996C153.696 143.182 153.466 143.428 153.301 143.733C153.14 144.036 153.057 144.367 153.054 144.729V145.852C153.054 146.322 153.14 146.726 153.312 147.063C153.484 147.397 153.724 147.653 154.034 147.833C154.343 148.008 154.704 148.096 155.119 148.096C155.396 148.096 155.648 148.057 155.872 147.98C156.097 147.899 156.292 147.782 156.457 147.627C156.622 147.473 156.747 147.281 156.831 147.053L158.612 147.253C158.5 147.724 158.285 148.135 157.969 148.486C157.657 148.834 157.256 149.104 156.768 149.297C156.28 149.487 155.721 149.582 155.093 149.582ZM164.346 141.331V142.806H159.694V141.331H164.346ZM160.842 139.392H162.75V146.99C162.75 147.246 162.788 147.443 162.865 147.58C162.946 147.713 163.052 147.805 163.182 147.854C163.312 147.903 163.456 147.927 163.614 147.927C163.733 147.927 163.842 147.919 163.94 147.901C164.042 147.884 164.119 147.868 164.172 147.854L164.493 149.345C164.392 149.38 164.246 149.419 164.056 149.461C163.87 149.503 163.642 149.527 163.371 149.534C162.894 149.549 162.463 149.477 162.08 149.318C161.697 149.157 161.394 148.907 161.169 148.57C160.948 148.233 160.839 147.812 160.842 147.306V139.392ZM172.222 143.47L170.483 143.66C170.434 143.484 170.348 143.319 170.225 143.164C170.105 143.01 169.944 142.885 169.74 142.79C169.536 142.696 169.287 142.648 168.992 142.648C168.595 142.648 168.261 142.734 167.991 142.906C167.724 143.078 167.592 143.301 167.596 143.575C167.592 143.811 167.678 144.002 167.854 144.15C168.033 144.297 168.328 144.418 168.739 144.513L170.119 144.808C170.885 144.973 171.454 145.235 171.826 145.593C172.202 145.952 172.392 146.421 172.395 147C172.392 147.509 172.243 147.959 171.948 148.349C171.656 148.735 171.25 149.037 170.73 149.255C170.211 149.473 169.613 149.582 168.939 149.582C167.949 149.582 167.151 149.375 166.547 148.96C165.943 148.542 165.583 147.961 165.467 147.216L167.327 147.037C167.411 147.402 167.59 147.678 167.864 147.864C168.138 148.05 168.495 148.143 168.934 148.143C169.387 148.143 169.75 148.05 170.024 147.864C170.302 147.678 170.441 147.448 170.441 147.174C170.441 146.942 170.351 146.751 170.172 146.6C169.996 146.449 169.722 146.333 169.35 146.252L167.97 145.962C167.193 145.801 166.619 145.528 166.247 145.146C165.874 144.759 165.69 144.271 165.693 143.681C165.69 143.182 165.825 142.75 166.099 142.385C166.377 142.016 166.761 141.731 167.253 141.531C167.748 141.327 168.319 141.226 168.965 141.226C169.914 141.226 170.66 141.427 171.205 141.831C171.753 142.235 172.092 142.782 172.222 143.47Z" fill="#4B5563"/>
<rect x="25.0923" y="176.095" width="85.9313" height="19.1645" fill="white" stroke="#D1D5DB" stroke-width="0.618211"/>
<rect x="25.0923" y="194.641" width="85.9313" height="19.1645" fill="white" stroke="#D1D5DB" stroke-width="0.618211"/>
<rect x="25.0923" y="213.188" width="85.9313" height="19.1645" fill="white" stroke="#D1D5DB" stroke-width="0.618211"/>
<rect x="25.0923" y="231.734" width="85.9313" height="19.1645" fill="white" stroke="#D1D5DB" stroke-width="0.618211"/>
<rect x="25.0923" y="250.28" width="85.9313" height="19.1645" fill="white" stroke="#D1D5DB" stroke-width="0.618211"/>
<rect x="25.0923" y="268.826" width="85.9313" height="19.1645" fill="white" stroke="#D1D5DB" stroke-width="0.618211"/>
<rect x="25.0923" y="287.373" width="85.9313" height="19.1645" fill="white" stroke="#D1D5DB" stroke-width="0.618211"/>
<rect x="198.191" y="176.095" width="85.9313" height="19.1645" fill="white" stroke="#D1D5DB" stroke-width="0.618211"/>
<rect x="198.191" y="194.641" width="85.9313" height="19.1645" fill="white" stroke="#D1D5DB" stroke-width="0.618211"/>
<rect x="198.191" y="213.188" width="85.9313" height="19.1645" fill="white" stroke="#D1D5DB" stroke-width="0.618211"/>
<rect x="198.191" y="231.734" width="85.9313" height="19.1645" fill="white" stroke="#D1D5DB" stroke-width="0.618211"/>
<rect x="198.191" y="250.28" width="85.9313" height="19.1645" fill="white" stroke="#D1D5DB" stroke-width="0.618211"/>
<rect x="198.191" y="268.826" width="85.9313" height="19.1645" fill="white" stroke="#D1D5DB" stroke-width="0.618211"/>
<rect x="198.191" y="287.373" width="85.9313" height="19.1645" fill="white" stroke="#D1D5DB" stroke-width="0.618211"/>
<rect x="110.406" y="176.095" width="88.4042" height="19.1645" fill="white" stroke="#D1D5DB" stroke-width="0.618211"/>
<rect x="110.406" y="194.641" width="88.4042" height="19.1645" fill="white" stroke="#D1D5DB" stroke-width="0.618211"/>
<rect x="110.406" y="213.188" width="88.4042" height="19.1645" fill="white" stroke="#D1D5DB" stroke-width="0.618211"/>
<rect x="110.406" y="231.734" width="88.4042" height="19.1645" fill="white" stroke="#D1D5DB" stroke-width="0.618211"/>
<rect x="110.406" y="250.28" width="88.4042" height="19.1645" fill="white" stroke="#D1D5DB" stroke-width="0.618211"/>
<rect x="110.406" y="268.826" width="88.4042" height="19.1645" fill="white" stroke="#D1D5DB" stroke-width="0.618211"/>
<rect x="110.406" y="287.373" width="88.4042" height="19.1645" fill="white" stroke="#D1D5DB" stroke-width="0.618211"/>
<rect x="283.504" y="176.095" width="88.4042" height="19.1645" fill="white" stroke="#D1D5DB" stroke-width="0.618211"/>
<rect x="283.504" y="194.641" width="88.4042" height="19.1645" fill="white" stroke="#D1D5DB" stroke-width="0.618211"/>
<rect x="283.504" y="213.188" width="88.4042" height="19.1645" fill="white" stroke="#D1D5DB" stroke-width="0.618211"/>
<rect x="283.504" y="231.734" width="88.4042" height="19.1645" fill="white" stroke="#D1D5DB" stroke-width="0.618211"/>
<rect x="283.504" y="250.28" width="88.4042" height="19.1645" fill="white" stroke="#D1D5DB" stroke-width="0.618211"/>
<rect x="283.504" y="268.826" width="88.4042" height="19.1645" fill="white" stroke="#D1D5DB" stroke-width="0.618211"/>
<rect x="283.504" y="287.373" width="88.4042" height="19.1645" fill="white" stroke="#D1D5DB" stroke-width="0.618211"/>
<rect x="35.9121" y="183.204" width="51.9297" height="4.94569" rx="2.47284" fill="#6B7280"/>
<rect x="35.9121" y="201.75" width="39.5655" height="4.94569" rx="2.47284" fill="#D1D5DB"/>
<rect x="35.9121" y="220.297" width="39.5655" height="4.94569" rx="2.47284" fill="#D1D5DB"/>
<rect x="35.9121" y="238.843" width="39.5655" height="4.94569" rx="2.47284" fill="#D1D5DB"/>
<rect x="35.9121" y="257.39" width="39.5655" height="4.94569" rx="2.47284" fill="#D1D5DB"/>
<rect x="35.9121" y="275.936" width="39.5655" height="4.94569" rx="2.47284" fill="#D1D5DB"/>
<rect x="35.9121" y="294.482" width="39.5655" height="4.94569" rx="2.47284" fill="#D1D5DB"/>
<rect x="210.248" y="183.204" width="51.9297" height="4.94569" rx="2.47284" fill="#6B7280"/>
<rect x="210.248" y="201.75" width="39.5655" height="4.94569" rx="2.47284" fill="#D1D5DB"/>
<rect x="210.248" y="220.297" width="39.5655" height="4.94569" rx="2.47284" fill="#D1D5DB"/>
<rect x="210.248" y="238.843" width="39.5655" height="4.94569" rx="2.47284" fill="#D1D5DB"/>
<rect x="210.248" y="257.39" width="39.5655" height="4.94569" rx="2.47284" fill="#D1D5DB"/>
<rect x="210.248" y="275.936" width="39.5655" height="4.94569" rx="2.47284" fill="#D1D5DB"/>
<rect x="210.248" y="294.482" width="39.5655" height="4.94569" rx="2.47284" fill="#D1D5DB"/>
<rect x="121.226" y="183.204" width="51.9297" height="4.94569" rx="2.47284" fill="#6B7280"/>
<rect x="121.226" y="201.75" width="39.5655" height="4.94569" rx="2.47284" fill="#D1D5DB"/>
<rect x="121.226" y="220.297" width="39.5655" height="4.94569" rx="2.47284" fill="#D1D5DB"/>
<rect x="121.226" y="238.843" width="39.5655" height="4.94569" rx="2.47284" fill="#D1D5DB"/>
<rect x="121.226" y="257.39" width="39.5655" height="4.94569" rx="2.47284" fill="#D1D5DB"/>
<rect x="121.226" y="275.936" width="39.5655" height="4.94569" rx="2.47284" fill="#D1D5DB"/>
<rect x="121.226" y="294.482" width="39.5655" height="4.94569" rx="2.47284" fill="#D1D5DB"/>
<rect x="294.324" y="183.204" width="51.9297" height="4.94569" rx="2.47284" fill="#6B7280"/>
<rect x="294.324" y="201.75" width="39.5655" height="4.94569" rx="2.47284" fill="#D1D5DB"/>
<rect x="294.324" y="220.297" width="39.5655" height="4.94569" rx="2.47284" fill="#D1D5DB"/>
<rect x="294.324" y="238.843" width="39.5655" height="4.94569" rx="2.47284" fill="#D1D5DB"/>
<rect x="294.324" y="257.39" width="39.5655" height="4.94569" rx="2.47284" fill="#D1D5DB"/>
<rect x="294.324" y="275.936" width="39.5655" height="4.94569" rx="2.47284" fill="#D1D5DB"/>
<rect x="294.324" y="294.482" width="39.5655" height="4.94569" rx="2.47284" fill="#D1D5DB"/>
<path d="M36 131.843C36 131.346 36.4026 130.943 36.8992 130.943L49.4886 130.943L55.7831 136.917L55.7831 158.07C55.7831 158.567 55.3805 158.969 54.8839 158.969H36.8992C36.4026 158.969 36 158.567 36 158.07V131.843Z" fill="#10B981"/>
<path d="M50.8373 136.917C50.0923 136.917 49.4884 136.313 49.4884 135.568L49.4883 130.943L55.783 136.917L50.8373 136.917Z" fill="#6EE7B7"/>
<rect x="6.23642" y="112.236" width="384.527" height="213.156" rx="10.7636" stroke="white" stroke-width="2.47284"/>
</g>
<defs>
<filter id="filter0_dd_2267_21790" x="394.275" y="0.328026" width="281.469" height="384.103" filterUnits="userSpaceOnUse" color-interpolation-filters="sRGB">
<feFlood flood-opacity="0" result="BackgroundImageFix"/>
<feColorMatrix in="SourceAlpha" type="matrix" values="0 0 0 0 0 0 0 0 0 0 0 0 0 0 0 0 0 0 127 0" result="hardAlpha"/>
<feMorphology radius="2.9293" operator="erode" in="SourceAlpha" result="effect1_dropShadow_2267_21790"/>
<feOffset dy="5.8586"/>
<feGaussianBlur stdDeviation="4.39395"/>
<feColorMatrix type="matrix" values="0 0 0 0 0 0 0 0 0 0 0 0 0 0 0 0 0 0 0.05 0"/>
<feBlend mode="normal" in2="BackgroundImageFix" result="effect1_dropShadow_2267_21790"/>
<feColorMatrix in="SourceAlpha" type="matrix" values="0 0 0 0 0 0 0 0 0 0 0 0 0 0 0 0 0 0 127 0" result="hardAlpha"/>
<feMorphology radius="4.39395" operator="erode" in="SourceAlpha" result="effect2_dropShadow_2267_21790"/>
<feOffset dy="14.6465"/>
<feGaussianBlur stdDeviation="10.9849"/>
<feColorMatrix type="matrix" values="0 0 0 0 0 0 0 0 0 0 0 0 0 0 0 0 0 0 0.1 0"/>
<feBlend mode="normal" in2="effect1_dropShadow_2267_21790" result="effect2_dropShadow_2267_21790"/>
<feBlend mode="normal" in="SourceGraphic" in2="effect2_dropShadow_2267_21790" result="shape"/>
</filter>
<filter id="filter1_dd_2267_21790" x="0" y="110" width="397" height="225.629" filterUnits="userSpaceOnUse" color-interpolation-filters="sRGB">
<feFlood flood-opacity="0" result="BackgroundImageFix"/>
<feColorMatrix in="SourceAlpha" type="matrix" values="0 0 0 0 0 0 0 0 0 0 0 0 0 0 0 0 0 0 127 0" result="hardAlpha"/>
<feMorphology radius="1" operator="erode" in="SourceAlpha" result="effect1_dropShadow_2267_21790"/>
<feOffset dy="2"/>
<feGaussianBlur stdDeviation="2"/>
<feColorMatrix type="matrix" values="0 0 0 0 0 0 0 0 0 0 0 0 0 0 0 0 0 0 0.06 0"/>
<feBlend mode="normal" in2="BackgroundImageFix" result="effect1_dropShadow_2267_21790"/>
<feColorMatrix in="SourceAlpha" type="matrix" values="0 0 0 0 0 0 0 0 0 0 0 0 0 0 0 0 0 0 127 0" result="hardAlpha"/>
<feMorphology radius="1" operator="erode" in="SourceAlpha" result="effect2_dropShadow_2267_21790"/>
<feOffset dy="4"/>
<feGaussianBlur stdDeviation="3"/>
<feColorMatrix type="matrix" values="0 0 0 0 0 0 0 0 0 0 0 0 0 0 0 0 0 0 0.1 0"/>
<feBlend mode="normal" in2="effect1_dropShadow_2267_21790" result="effect2_dropShadow_2267_21790"/>
<feBlend mode="normal" in="SourceGraphic" in2="effect2_dropShadow_2267_21790" result="shape"/>
</filter>
<linearGradient id="paint0_linear_2267_21790" x1="535.009" y1="3.25879" x2="535.009" y2="352.208" gradientUnits="userSpaceOnUse">
<stop stop-color="white"/>
<stop offset="0.0001" stop-color="#F9FAFB"/>
<stop offset="1" stop-color="#F3F4F6"/>
</linearGradient>
<linearGradient id="paint1_linear_2267_21790" x1="198.5" y1="111" x2="198.5" y2="326.629" gradientUnits="userSpaceOnUse">
<stop stop-color="white"/>
<stop offset="0.0001" stop-color="#F9FAFB"/>
<stop offset="1" stop-color="#F3F4F6"/>
</linearGradient>
</defs>
</svg>
