<svg viewBox="0 0 807 653" fill="none" xmlns="http://www.w3.org/2000/svg">
<g filter="url(#filter0_dd_2267_21642)">
<path d="M43 42.3271H637V445.131C637 451.35 631.958 456.392 625.739 456.392H54.2607C48.0416 456.392 43 451.35 43 445.131V42.3271Z" fill="url(#paint0_linear_2267_21642)"/>
<path d="M43 40.1817H40.8546V42.3271V445.131C40.8546 452.535 46.8567 458.537 54.2607 458.537H625.739C633.143 458.537 639.145 452.535 639.145 445.131V42.3271V40.1817H637H43Z" stroke="white" stroke-width="4.2909"/>
</g>
<g filter="url(#filter1_d_2267_21642)">
<mask id="path-3-outside-1_2267_21642" maskUnits="userSpaceOnUse" x="38" y="1" width="604" height="43" fill="black">
<rect fill="white" x="38" y="1" width="604" height="43"/>
<path d="M43 9.47008C43 7.55361 44.5536 6 46.4701 6H633.53C635.446 6 637 7.55361 637 9.47008V43.1305H43V9.47008Z"/>
</mask>
<path d="M43 9.47008C43 7.55361 44.5536 6 46.4701 6H633.53C635.446 6 637 7.55361 637 9.47008V43.1305H43V9.47008Z" fill="#F9FAFB"/>
<path d="M38.7091 9.47008C38.7091 5.18381 42.1838 1.7091 46.4701 1.7091H633.53C637.816 1.7091 641.291 5.18381 641.291 9.47008L632.709 10.2909H47.2909L38.7091 9.47008ZM637 43.1305H43H637ZM38.7091 43.1305V9.47008C38.7091 5.18381 42.1838 1.7091 46.4701 1.7091L47.2909 10.2909V43.1305H38.7091ZM633.53 1.7091C637.816 1.7091 641.291 5.18381 641.291 9.47008V43.1305H632.709V10.2909L633.53 1.7091Z" fill="white" mask="url(#path-3-outside-1_2267_21642)"/>
</g>
<circle cx="61.4165" cy="22.8726" r="4.1641" fill="#EF4444"/>
<circle cx="75.2984" cy="22.8726" r="4.1641" fill="#F59E0B"/>
<circle cx="89.1783" cy="22.8726" r="4.1641" fill="#10B981"/>
<rect x="201.052" y="16.0264" width="301.223" height="17.0502" rx="3.41004" fill="#E5E7EB"/>
<rect x="595.097" y="96.1089" width="167.345" height="284.63" rx="10.2261" transform="rotate(90 595.097 96.1089)" fill="#E5E7EB"/>
<path fill-rule="evenodd" clip-rule="evenodd" d="M111.134 74.8856C111.183 74.7483 111.209 74.6023 111.209 74.4536V70.2119C111.209 69.5059 110.637 68.9336 109.931 68.9336H105.689C105.35 68.9336 105.025 69.0683 104.785 69.308L93.4349 80.6582C93.1952 80.8979 93.0605 81.223 93.0605 81.5621V85.8038C93.0605 86.5098 93.6328 87.0821 94.3388 87.0821H98.5806C98.9196 87.0821 99.2447 86.9474 99.4844 86.7077L105.062 81.1301C105.013 81.2674 104.987 81.4134 104.987 81.5621L104.987 85.8039C104.987 86.5098 105.559 87.0821 106.265 87.0821H110.507C110.846 87.0821 111.171 86.9475 111.411 86.7077L122.761 75.3575C123.001 75.1178 123.135 74.7927 123.135 74.4537V70.2119C123.135 69.506 122.563 68.9337 121.857 68.9337L117.615 68.9337C117.276 68.9337 116.951 69.0683 116.711 69.3081L111.134 74.8856Z" fill="#6B7280"/>
<path d="M123.113 85.7823C123.113 86.4882 122.54 87.0605 121.835 87.0605L117.649 87.0605C116.51 87.0605 115.94 85.6837 116.745 84.8784L120.931 80.6929C121.736 79.8876 123.113 80.4579 123.113 81.5967L123.113 85.7823Z" fill="#6B7280"/>
<rect x="218.927" y="365.221" width="266.55" height="14.3114" rx="6.33162" fill="#E5E7EB"/>
<rect x="268.988" y="393.843" width="164.581" height="14.3114" rx="6.33162" fill="#E5E7EB"/>
<rect x="93.0601" y="164.763" width="160.194" height="14.303" rx="6.33162" fill="#E5E7EB"/>
<rect x="93.0601" y="193.369" width="107.272" height="14.303" rx="6.33162" fill="#E5E7EB"/>
<rect x="93.061" y="229.127" width="114.491" height="25.045" rx="12.5225" fill="#7A2CFF"/>
<rect x="119.895" y="236.282" width="60.8235" height="10.7336" rx="5.36678" fill="#B4A4F0"/>
<rect x="93.0601" y="129.006" width="94.8132" height="14.3114" rx="6.33162" fill="#6B7280"/>
<rect x="304.744" y="336.597" width="94.8132" height="14.3114" rx="6.33162" fill="#6B7280"/>
<g filter="url(#filter2_dd_2267_21642)">
<path d="M539 178.283H767.151V574.531C767.151 581.731 761.314 587.568 754.114 587.568H552.037C544.837 587.568 539 581.731 539 574.531V178.283Z" fill="url(#paint1_linear_2267_21642)"/>
<path d="M539 176.328H537.044V178.283V574.531C537.044 582.811 543.757 589.524 552.037 589.524H754.114C762.394 589.524 769.106 582.811 769.106 574.531V178.283V176.328H767.151H539Z" stroke="white" stroke-width="3.91116"/>
</g>
<rect x="555.948" y="496.308" width="195.558" height="22.8285" rx="11.4143" fill="#7A2CFF"/>
<rect x="609.4" y="502.827" width="88.6529" height="10.4298" rx="5.21488" fill="#B4A4F0"/>
<rect x="758.025" y="227.742" width="109.512" height="208.595" rx="9.32108" transform="rotate(90 758.025 227.742)" fill="#E5E7EB"/>
<rect x="555.948" y="393.314" width="146.017" height="13.0372" rx="5.77128" fill="#E5E7EB"/>
<rect x="555.948" y="419.389" width="97.7789" height="13.0372" rx="5.77128" fill="#E5E7EB"/>
<rect x="555.948" y="360.721" width="86.4222" height="13.0449" rx="5.77128" fill="#6B7280"/>
<g filter="url(#filter3_i_2267_21642)">
<rect x="602.882" y="562.798" width="99.0826" height="5.21488" rx="2.60744" fill="#E5E7EB"/>
</g>
<rect x="552.037" y="197.216" width="18.2521" height="3.38848" rx="1.69424" fill="#E5E7EB"/>
<rect x="552.037" y="202.637" width="18.2521" height="3.38848" rx="1.69424" fill="#E5E7EB"/>
<rect x="552.037" y="208.059" width="18.2521" height="3.38848" rx="1.69424" fill="#E5E7EB"/>
<g filter="url(#filter4_d_2267_21642)">
<mask id="path-32-outside-2_2267_21642" maskUnits="userSpaceOnUse" x="535" y="139" width="237" height="41" fill="black">
<rect fill="white" x="535" y="139" width="237" height="41"/>
<path d="M539 156.037C539 148.837 544.837 143 552.037 143H754.114C761.314 143 767.151 148.837 767.151 156.037V179.695H539V156.037Z"/>
</mask>
<path d="M539 156.037C539 148.837 544.837 143 552.037 143H754.114C761.314 143 767.151 148.837 767.151 156.037V179.695H539V156.037Z" fill="#F9FAFB"/>
<path d="M535.089 156.037C535.089 146.677 542.677 139.089 552.037 139.089H754.114C763.474 139.089 771.062 146.677 771.062 156.037H763.24C763.24 150.997 759.154 146.911 754.114 146.911H552.037C546.997 146.911 542.911 150.997 542.911 156.037H535.089ZM767.151 179.695H539H767.151ZM535.089 179.695V156.037C535.089 146.677 542.677 139.089 552.037 139.089V146.911C546.997 146.911 542.911 150.997 542.911 156.037V179.695H535.089ZM754.114 139.089C763.474 139.089 771.062 146.677 771.062 156.037V179.695H763.24V156.037C763.24 150.997 759.154 146.911 754.114 146.911V139.089Z" fill="white" mask="url(#path-32-outside-2_2267_21642)"/>
</g>
<ellipse cx="555.786" cy="159.648" rx="3.79558" ry="4.10886" fill="#EF4444"/>
<ellipse cx="568.44" cy="159.648" rx="3.79558" ry="4.10886" fill="#F59E0B"/>
<ellipse cx="581.091" cy="159.648" rx="3.79558" ry="4.10886" fill="#10B981"/>
<rect x="612.009" y="152.879" width="86.0455" height="16.9359" rx="3.10825" fill="#E5E7EB"/>
<defs>
<filter id="filter0_dd_2267_21642" x="0.0908914" y="28.024" width="679.818" height="499.883" filterUnits="userSpaceOnUse" color-interpolation-filters="sRGB">
<feFlood flood-opacity="0" result="BackgroundImageFix"/>
<feColorMatrix in="SourceAlpha" type="matrix" values="0 0 0 0 0 0 0 0 0 0 0 0 0 0 0 0 0 0 127 0" result="hardAlpha"/>
<feMorphology radius="7.1515" operator="erode" in="SourceAlpha" result="effect1_dropShadow_2267_21642"/>
<feOffset dy="14.303"/>
<feGaussianBlur stdDeviation="11.4424"/>
<feColorMatrix type="matrix" values="0 0 0 0 0 0 0 0 0 0 0 0 0 0 0 0 0 0 0.04 0"/>
<feBlend mode="normal" in2="BackgroundImageFix" result="effect1_dropShadow_2267_21642"/>
<feColorMatrix in="SourceAlpha" type="matrix" values="0 0 0 0 0 0 0 0 0 0 0 0 0 0 0 0 0 0 127 0" result="hardAlpha"/>
<feMorphology radius="7.1515" operator="erode" in="SourceAlpha" result="effect2_dropShadow_2267_21642"/>
<feOffset dy="28.606"/>
<feGaussianBlur stdDeviation="22.8848"/>
<feColorMatrix type="matrix" values="0 0 0 0 0 0 0 0 0 0 0 0 0 0 0 0 0 0 0.1 0"/>
<feBlend mode="normal" in2="effect1_dropShadow_2267_21642" result="effect2_dropShadow_2267_21642"/>
<feBlend mode="normal" in="SourceGraphic" in2="effect2_dropShadow_2267_21642" result="shape"/>
</filter>
<filter id="filter1_d_2267_21642" x="35.2989" y="0.0039643" width="609.402" height="48.2415" filterUnits="userSpaceOnUse" color-interpolation-filters="sRGB">
<feFlood flood-opacity="0" result="BackgroundImageFix"/>
<feColorMatrix in="SourceAlpha" type="matrix" values="0 0 0 0 0 0 0 0 0 0 0 0 0 0 0 0 0 0 127 0" result="hardAlpha"/>
<feOffset dy="1.70502"/>
<feGaussianBlur stdDeviation="1.70502"/>
<feColorMatrix type="matrix" values="0 0 0 0 0 0 0 0 0 0 0 0 0 0 0 0 0 0 0.05 0"/>
<feBlend mode="normal" in2="BackgroundImageFix" result="effect1_dropShadow_2267_21642"/>
<feBlend mode="normal" in="SourceGraphic" in2="effect1_dropShadow_2267_21642" result="shape"/>
</filter>
<filter id="filter2_dd_2267_21642" x="499.888" y="165.246" width="306.374" height="487.508" filterUnits="userSpaceOnUse" color-interpolation-filters="sRGB">
<feFlood flood-opacity="0" result="BackgroundImageFix"/>
<feColorMatrix in="SourceAlpha" type="matrix" values="0 0 0 0 0 0 0 0 0 0 0 0 0 0 0 0 0 0 127 0" result="hardAlpha"/>
<feMorphology radius="6.51859" operator="erode" in="SourceAlpha" result="effect1_dropShadow_2267_21642"/>
<feOffset dy="13.0372"/>
<feGaussianBlur stdDeviation="10.4298"/>
<feColorMatrix type="matrix" values="0 0 0 0 0 0 0 0 0 0 0 0 0 0 0 0 0 0 0.04 0"/>
<feBlend mode="normal" in2="BackgroundImageFix" result="effect1_dropShadow_2267_21642"/>
<feColorMatrix in="SourceAlpha" type="matrix" values="0 0 0 0 0 0 0 0 0 0 0 0 0 0 0 0 0 0 127 0" result="hardAlpha"/>
<feMorphology radius="6.51859" operator="erode" in="SourceAlpha" result="effect2_dropShadow_2267_21642"/>
<feOffset dy="26.0744"/>
<feGaussianBlur stdDeviation="20.8595"/>
<feColorMatrix type="matrix" values="0 0 0 0 0 0 0 0 0 0 0 0 0 0 0 0 0 0 0.1 0"/>
<feBlend mode="normal" in2="effect1_dropShadow_2267_21642" result="effect2_dropShadow_2267_21642"/>
<feBlend mode="normal" in="SourceGraphic" in2="effect2_dropShadow_2267_21642" result="shape"/>
</filter>
<filter id="filter3_i_2267_21642" x="602.882" y="562.798" width="99.0825" height="7.82228" filterUnits="userSpaceOnUse" color-interpolation-filters="sRGB">
<feFlood flood-opacity="0" result="BackgroundImageFix"/>
<feBlend mode="normal" in="SourceGraphic" in2="BackgroundImageFix" result="shape"/>
<feColorMatrix in="SourceAlpha" type="matrix" values="0 0 0 0 0 0 0 0 0 0 0 0 0 0 0 0 0 0 127 0" result="hardAlpha"/>
<feOffset dy="2.60744"/>
<feGaussianBlur stdDeviation="2.60744"/>
<feComposite in2="hardAlpha" operator="arithmetic" k2="-1" k3="1"/>
<feColorMatrix type="matrix" values="0 0 0 0 0 0 0 0 0 0 0 0 0 0 0 0 0 0 0.06 0"/>
<feBlend mode="normal" in2="shape" result="effect1_innerShadow_2267_21642"/>
</filter>
<filter id="filter4_d_2267_21642" x="531.981" y="137.535" width="242.19" height="46.822" filterUnits="userSpaceOnUse" color-interpolation-filters="sRGB">
<feFlood flood-opacity="0" result="BackgroundImageFix"/>
<feColorMatrix in="SourceAlpha" type="matrix" values="0 0 0 0 0 0 0 0 0 0 0 0 0 0 0 0 0 0 127 0" result="hardAlpha"/>
<feOffset dy="1.55413"/>
<feGaussianBlur stdDeviation="1.55413"/>
<feColorMatrix type="matrix" values="0 0 0 0 0 0 0 0 0 0 0 0 0 0 0 0 0 0 0.05 0"/>
<feBlend mode="normal" in2="BackgroundImageFix" result="effect1_dropShadow_2267_21642"/>
<feBlend mode="normal" in="SourceGraphic" in2="effect1_dropShadow_2267_21642" result="shape"/>
</filter>
<linearGradient id="paint0_linear_2267_21642" x1="340" y1="42.3271" x2="340" y2="456.392" gradientUnits="userSpaceOnUse">
<stop stop-color="white"/>
<stop offset="0.0001" stop-color="#F9FAFB"/>
<stop offset="1" stop-color="#F3F4F6"/>
</linearGradient>
<linearGradient id="paint1_linear_2267_21642" x1="653.075" y1="178.283" x2="653.075" y2="587.568" gradientUnits="userSpaceOnUse">
<stop stop-color="white"/>
<stop offset="0.0001" stop-color="#F9FAFB"/>
<stop offset="1" stop-color="#F3F4F6"/>
</linearGradient>
</defs>
</svg>
