<svg width="48" height="53" viewBox="0 0 48 53" fill="none" xmlns="http://www.w3.org/2000/svg">
<g clip-path="url(#clip0_2452_52900)">
<path d="M47.4999 46.5018C47.5044 47.2854 47.3402 48.0621 47.0166 48.7875C46.6931 49.513 46.2165 50.1731 45.6141 50.7301C45.0117 51.287 44.2952 51.73 43.5057 52.0336C42.7162 52.3373 41.869 52.4957 41.0126 52.4998C40.7443 52.5018 40.4761 52.4879 40.2097 52.4583C38.5951 52.2398 37.1235 51.4887 36.0721 50.3464C35.0208 49.2041 34.4624 47.7496 34.502 46.2567V10.7429C34.4633 9.2487 35.0234 7.79319 36.0768 6.6508C37.1301 5.50841 38.604 4.75809 40.2203 4.5413C41.1373 4.44201 42.067 4.52223 42.9475 4.77665C43.8281 5.03107 44.6394 5.45388 45.3278 6.01702C46.0161 6.58016 46.5657 7.27076 46.9401 8.04303C47.3145 8.81529 47.5052 9.65156 47.4994 10.4964L47.4999 46.5018Z" fill="#F9AB00"/>
<path d="M6.94463 39.6177C8.21926 39.6177 9.46527 39.9955 10.5251 40.7032C11.5849 41.411 12.4109 42.4169 12.8987 43.5938C13.3865 44.7708 13.5141 46.0658 13.2654 47.3153C13.0168 48.5647 12.403 49.7124 11.5017 50.6132C10.6004 51.514 9.45206 52.1274 8.20192 52.3759C6.95178 52.6245 5.65598 52.4969 4.47838 52.0094C3.30078 51.5219 2.29426 50.6964 1.58612 49.6371C0.877971 48.5779 0.5 47.3326 0.5 46.0587C0.5 44.3505 1.17899 42.7122 2.38759 41.5042C3.59619 40.2963 5.23541 39.6177 6.94463 39.6177ZM23.9007 20.0957C22.1805 20.1899 20.5646 20.9495 19.3949 22.2135C18.2252 23.4775 17.5935 25.1469 17.6337 26.8682V44.1682C17.6337 48.8637 19.7013 51.7132 22.73 52.3182C23.5609 52.4867 24.4168 52.49 25.249 52.3277C26.0811 52.1655 26.8731 51.841 27.5797 51.3728C28.2862 50.9045 28.8936 50.3017 29.367 49.5988C29.8405 48.8959 30.1707 48.1067 30.3388 47.2762C30.4266 46.8485 30.4697 46.4128 30.4674 45.9762V26.5712C30.4691 25.7225 30.3035 24.8817 29.9801 24.0969C29.6566 23.3121 29.1817 22.5987 28.5824 21.9974C27.983 21.3961 27.271 20.9186 26.4871 20.5923C25.7031 20.266 24.8625 20.0973 24.0133 20.0957C23.9752 20.0957 23.9367 20.0957 23.9007 20.0957Z" fill="#E37400"/>
</g>
<defs>
<clipPath id="clip0_2452_52900">
<rect width="47" height="52" fill="white" transform="translate(0.5 0.5)"/>
</clipPath>
</defs>
</svg>
