<svg width="48" height="53" viewBox="0 0 48 53" fill="none" xmlns="http://www.w3.org/2000/svg">
<g clip-path="url(#clip0_2452_52957)">
<g clip-path="url(#clip1_2452_52957)">
<path d="M16.803 3.01742C16.892 2.91319 17.0681 2.70661 17.1552 2.60049C22.381 2.58153 27.603 2.59291 32.8268 2.5967C32.912 2.69145 33.0823 2.88097 33.1655 2.97573C33.1849 3.00416 33.243 3.05722 33.2623 3.08375C33.2972 3.11407 33.3591 3.17472 33.3939 3.20694C33.4423 3.25053 33.543 3.33391 33.5933 3.3775C33.6572 3.43436 33.783 3.55186 33.8449 3.6125C33.8952 3.65988 33.992 3.75464 34.0384 3.80202C34.0868 3.84561 34.1739 3.93468 34.2243 3.98016C34.2726 4.02754 34.3675 4.1223 34.4139 4.16968C34.4623 4.21706 34.561 4.31182 34.6075 4.3592C34.6597 4.40847 34.7584 4.50323 34.8068 4.5525C34.8552 4.59988 34.9539 4.69464 35.0043 4.74202C35.0488 4.7894 35.1436 4.88037 35.1901 4.92585C35.2365 4.97133 35.3333 5.06609 35.3836 5.11537C35.4301 5.16085 35.5249 5.25371 35.5733 5.30488C35.6314 5.36174 35.7533 5.48303 35.8133 5.54367C35.8578 5.59295 35.943 5.69149 35.9875 5.74077C36.0204 5.77867 36.0843 5.845 36.1172 5.87912C36.152 5.91702 36.2255 5.99283 36.2623 6.02694C36.3455 6.11222 36.5139 6.27331 36.5952 6.36049C36.6223 6.38891 36.6784 6.44766 36.7055 6.4742C36.7191 6.49883 36.7539 6.54432 36.7694 6.56516C36.8217 6.67129 36.9243 6.88166 36.9784 6.98589C37.0172 8.06045 36.9649 9.135 36.9901 10.2077C35.4997 10.1887 34.0094 10.1887 32.523 10.2115C32.5733 10.1811 32.6778 10.1224 32.7301 10.0921C32.5946 8.84125 32.5946 7.58287 32.6178 6.32637C27.5314 6.32258 22.4449 6.32258 17.3604 6.32637C17.3933 7.62077 17.3449 8.91137 17.2752 10.2039L17.521 10.2115C16.0113 10.1925 14.4959 10.1887 12.9843 10.2077C13.0075 9.135 12.9572 8.06234 12.9901 6.98968C13.0481 6.88166 13.1565 6.66371 13.2126 6.55379C13.232 6.53484 13.263 6.48936 13.2804 6.46662C13.3094 6.43629 13.3675 6.37754 13.3965 6.34722C13.4817 6.26194 13.6539 6.10085 13.7391 6.01557C13.7778 5.98145 13.8552 5.90944 13.8901 5.87343C13.9326 5.83174 14.0159 5.75214 14.0565 5.71234C14.103 5.66875 14.192 5.57968 14.2384 5.5342C14.2868 5.48871 14.3817 5.39585 14.4281 5.34468C14.4765 5.30299 14.5713 5.20823 14.6217 5.16274C14.6662 5.11347 14.761 5.02061 14.8075 4.97323C14.8539 4.92964 14.943 4.84057 14.9894 4.79319C15.0281 4.7496 15.1113 4.66621 15.152 4.62262C15.2139 4.56198 15.3378 4.43311 15.3997 4.37057C15.4617 4.31371 15.5855 4.2 15.6475 4.14315C15.6862 4.10524 15.7675 4.02944 15.8081 3.99153C15.8526 3.94984 15.9436 3.86266 15.9823 3.82097C16.0326 3.77549 16.1275 3.68262 16.1759 3.63714C16.2243 3.59166 16.3152 3.49879 16.3636 3.45331C16.4081 3.40782 16.4991 3.32065 16.5455 3.27516C16.5843 3.23726 16.6617 3.16145 16.7004 3.12355C16.7197 3.09702 16.7681 3.04774 16.7894 3.02121L16.803 3.01742ZM24.0997 34.5851C24.6417 31.7519 26.5907 29.2218 29.163 27.8459C29.2017 30.2642 29.1784 32.6843 29.1552 35.1044C29.161 35.5858 29.1397 36.0747 29.2365 36.5504C30.452 37.3085 31.7875 37.8694 33.0301 38.5858C34.2397 37.9699 35.4436 37.335 36.6494 36.7096C37.0714 36.5845 36.9204 36.1032 36.963 35.7753C36.9514 33.141 36.9436 30.503 36.963 27.8668C38.9217 28.6552 40.3172 30.2964 41.4146 32.0077C41.792 33.2623 42.2565 34.5226 42.2043 35.8549C42.2778 39.0482 40.4004 42.2094 37.501 43.6857C37.292 43.8259 36.9591 43.9074 36.9862 44.2163C36.8004 45.9409 36.9049 47.6845 37.0191 49.4091C34.3714 49.4091 31.7255 49.4091 29.0836 49.4091C29.1417 47.567 29.2384 45.7268 29.0739 43.8866C27.6107 43.2043 26.3604 42.1146 25.4584 40.7975C24.243 38.9876 23.7746 36.7267 24.0978 34.5889L24.0997 34.5851Z" fill="#525252"/>
<path opacity="0.47" d="M16.7124 3.11767C16.7356 3.09303 16.782 3.04186 16.8033 3.01722C16.784 3.04186 16.7356 3.09303 16.7124 3.11767ZM33.1679 2.97363C33.1911 3.00017 33.2453 3.05323 33.2685 3.07976C33.2433 3.05323 33.1911 3.00017 33.1659 2.97363H33.1679ZM16.5614 3.26928C16.6001 3.23137 16.6775 3.15557 16.7124 3.11767C16.6737 3.15557 16.5962 3.23137 16.5614 3.26928ZM33.2685 3.07976C33.3014 3.11008 33.3653 3.17073 33.3982 3.20295C33.3595 3.17452 33.3014 3.11387 33.2627 3.08355L33.2685 3.07976ZM16.3795 3.44742C16.424 3.40194 16.515 3.31476 16.5614 3.26928C16.515 3.31476 16.4259 3.40194 16.3795 3.44553V3.44742ZM33.4001 3.20105C33.4485 3.24464 33.5491 3.32803 33.5995 3.37162C33.5491 3.32803 33.4485 3.24464 33.3982 3.20105H33.4001ZM16.1898 3.62936C16.2362 3.58387 16.3311 3.49101 16.3795 3.44553C16.3311 3.48722 16.2362 3.57819 16.1898 3.62557V3.62936ZM33.5995 3.37162C33.6614 3.42847 33.7872 3.54597 33.8511 3.60662C33.7872 3.54597 33.6614 3.42847 33.5995 3.36972V3.37162ZM16.0001 3.81319C16.0485 3.76771 16.1433 3.67484 16.1898 3.62936C16.1433 3.67484 16.0485 3.76771 16.002 3.81319H16.0001ZM34.0446 3.79424C34.0911 3.83972 34.1801 3.9269 34.2285 3.97428C34.182 3.92879 34.093 3.84162 34.0446 3.79613V3.79424ZM15.6633 4.13537C15.702 4.09746 15.7833 4.02166 15.824 3.98375C15.7795 4.02166 15.7001 4.09746 15.6595 4.13537H15.6633ZM34.4182 4.1619C34.4666 4.21117 34.5653 4.30593 34.6117 4.35521C34.5653 4.30214 34.4666 4.20738 34.4182 4.15811V4.1619ZM15.1679 4.61674C15.2298 4.5542 15.3537 4.42722 15.4156 4.36279C15.3537 4.42722 15.2298 4.5523 15.1679 4.61674ZM34.6137 4.3571C34.664 4.40258 34.7627 4.49734 34.8111 4.54662C34.7588 4.49734 34.6601 4.40258 34.6098 4.3571H34.6137ZM15.0072 4.78351C15.0459 4.74182 15.1272 4.65843 15.1679 4.61674C15.1291 4.65843 15.0459 4.74182 15.0053 4.78351H15.0072ZM34.813 4.54662C34.8614 4.594 34.9601 4.68875 35.0104 4.73613C34.9601 4.68875 34.8614 4.594 34.8111 4.54662H34.813ZM14.8233 4.96355C14.8698 4.91996 14.9588 4.83089 15.0053 4.78351C14.9608 4.829 14.8698 4.91996 14.8233 4.96545V4.96355ZM35.0104 4.73613C35.0569 4.78351 35.1517 4.87448 35.1982 4.91996C35.1479 4.87448 35.053 4.78351 35.0046 4.73803L35.0104 4.73613ZM14.444 5.3369C14.4924 5.29142 14.5872 5.19666 14.6375 5.15117C14.5872 5.19287 14.4924 5.28762 14.444 5.33311V5.3369ZM35.3937 5.10948C35.4401 5.15686 35.535 5.24972 35.5833 5.299C35.535 5.24972 35.4401 5.15686 35.3898 5.10948H35.3937ZM35.5833 5.299C35.6414 5.35585 35.7633 5.47904 35.8233 5.53968C35.7653 5.47904 35.6433 5.35775 35.5833 5.2971V5.299ZM14.0724 5.70266C14.1188 5.65908 14.2079 5.57 14.2543 5.52452C14.2098 5.56811 14.1188 5.65718 14.0724 5.70266ZM13.9059 5.86186C13.9485 5.82396 14.0317 5.74246 14.0724 5.70266C14.0337 5.74057 13.9485 5.82206 13.9059 5.86375V5.86186ZM35.9975 5.73678C36.0304 5.77468 36.0943 5.84101 36.1272 5.87512C36.0885 5.8448 36.0304 5.77658 35.9917 5.74246L35.9975 5.73678ZM13.755 6.00589C13.7937 5.97178 13.8711 5.89976 13.9059 5.86375C13.8672 5.90166 13.7898 5.97178 13.7511 6.00779L13.755 6.00589ZM36.1291 5.87323C36.164 5.91113 36.2375 5.98694 36.2743 6.02105C36.2356 5.98315 36.164 5.91113 36.1272 5.87512L36.1291 5.87323ZM13.2266 6.54222C13.2459 6.52327 13.2769 6.47968 13.2943 6.45694C13.2749 6.47968 13.244 6.52327 13.2285 6.54412L13.2266 6.54222ZM36.7175 6.46642C36.733 6.49105 36.7679 6.53654 36.7833 6.55738C36.7679 6.53843 36.733 6.49484 36.7175 6.4721V6.46642Z" fill="#4D4D4D"/>
<path d="M5.79996 10.2059C8.19997 10.1983 10.6 10.2135 13 10.1983C14.5096 10.1794 16.0232 10.1794 17.5348 10.2021C22.5342 10.2059 27.5335 10.2059 32.5348 10.2021C34.0213 10.1832 35.5116 10.1794 37.0019 10.1983C39.5703 10.2078 42.1309 10.2097 44.6974 10.1983C47.1419 12.5578 49.5651 14.9457 52 17.3204V48.7762C51.7445 49.0662 51.4542 49.4301 51.0187 49.4016C49.3038 49.4244 47.589 49.4017 45.8761 49.4092C45.7948 45.8387 45.8664 42.2683 45.8413 38.6978C45.8219 37.8829 45.9477 37.0433 45.6864 36.253C46.0542 35.4078 45.8374 34.4716 45.8877 33.5808C45.849 30.7286 45.9651 27.8688 45.8296 25.0147C45.7019 22.8201 45.8161 20.6179 45.7716 18.4196C45.7425 18.1789 45.7793 17.8813 45.578 17.7032C45.0903 17.1877 44.3122 17.4 43.6813 17.3621C31.2284 17.3715 18.7774 17.3696 6.32642 17.3621C5.69158 17.4 4.91351 17.1782 4.42964 17.7032C4.22642 17.8775 4.25545 18.1694 4.22642 18.4044C4.17996 20.6085 4.30384 22.8144 4.16835 25.0147C4.11803 25.5965 4.09867 26.1802 4.10642 26.7639C4.13545 34.3124 4.07932 41.8608 4.13351 49.4111C2.41093 49.3619 0.692223 49.4377 -1.02455 49.4016C-1.4581 49.4282 -1.74455 49.0643 -2.00391 48.7819V17.3393C0.579965 14.9514 3.20255 12.5881 5.79609 10.2059H5.79996ZM8.18061 18.9502C9.47738 18.6091 10.8651 20.0532 10.3677 21.2964C10.0445 22.2724 8.78061 22.9774 7.80513 22.4449C7.09287 22.1075 6.52771 21.3116 6.64964 20.5175C6.83158 19.7784 7.38513 19.0999 8.17867 18.9521L8.18061 18.9502ZM11.889 20.6994C11.8503 19.5548 13.18 18.5769 14.2832 19.0033C15.0961 19.1928 15.5064 19.9698 15.6961 20.7013C15.5354 21.3495 15.309 22.0772 14.6316 22.3691C13.478 23.1461 11.74 22.0279 11.889 20.7013V20.6994ZM6.77351 27.9579C11.258 27.9389 15.7425 27.9712 20.2251 27.9484C20.2832 33.0369 20.2484 38.1292 20.2406 43.2196C15.7503 43.2196 11.26 43.2462 6.76964 43.2102C6.7948 38.1311 6.77932 33.0464 6.77738 27.9636L6.77351 27.9579ZM6.92835 46.3258C12.9593 46.3182 18.9922 46.3125 25.0251 46.3296C25.0251 47.353 25.0096 48.3802 25.0484 49.4054C24.5064 49.3827 23.9587 49.3751 23.4148 49.3865C22.7335 49.4111 22.0464 49.4168 21.3632 49.3827C21.0806 49.377 20.8019 49.377 20.5174 49.3827C15.9225 49.4301 11.3277 49.377 6.73093 49.4073C7.07158 48.4143 6.85093 47.3549 6.93029 46.3296L6.92835 46.3258Z" fill="#D8D9DA"/>
<path d="M4.42924 17.7045C4.91311 17.1776 5.69118 17.4013 6.32602 17.3634C18.777 17.3691 31.228 17.371 43.6809 17.3596C44.3118 17.4051 45.0899 17.189 45.5776 17.7064C45.7789 17.8845 45.7421 18.1802 45.7712 18.4228C45.8157 20.6212 45.7015 22.8252 45.8292 25.0179C31.9421 25.0369 18.055 25.0369 4.16602 25.0179C4.3015 22.8195 4.17956 20.6136 4.22408 18.4095C4.25505 18.1745 4.22408 17.8826 4.42924 17.7083M8.18021 18.9591C7.38666 19.105 6.83505 19.7835 6.65118 20.5226C6.52537 21.3186 7.09247 22.1145 7.80472 22.45C8.77827 22.9806 10.0441 22.2794 10.3673 21.3015C10.8647 20.0545 9.47698 18.6104 8.18021 18.9515M11.8886 20.7007C11.7396 22.0274 13.4757 23.1455 14.6292 22.3723C15.3067 22.0785 15.535 21.3489 15.6938 20.7045C15.506 19.973 15.0938 19.1941 14.2809 19.0046C13.1776 18.5782 11.8518 19.5542 11.8886 20.7007Z" fill="#4189F8"/>
<path d="M4.16613 25.0145C18.0532 25.0334 31.9403 25.0334 45.8313 25.0145C45.9629 27.8686 45.8468 30.7284 45.8894 33.5806C45.8371 34.4713 46.0558 35.4075 45.6861 36.2528C44.1881 34.9072 43.0152 33.2452 41.4145 32.0038C40.319 30.2925 38.9236 28.6494 36.9629 27.8629C36.9436 30.4972 36.9532 33.1352 36.9629 35.7714C36.4539 35.5497 36.1074 35.1195 35.7494 34.7253C34.7894 33.7019 33.7403 32.76 32.821 31.7025C31.6442 30.3759 30.2661 29.2331 29.1629 27.8421C26.5926 29.2179 24.6436 31.7461 24.1016 34.5813C23.7784 36.7171 24.2468 38.978 25.4623 40.7898C26.3642 42.105 27.6145 43.1967 29.0777 43.8789C29.2423 45.7172 29.1455 47.5555 29.0855 49.3995C27.7403 49.3995 26.3952 49.3995 25.05 49.3995C25.0113 48.3761 25.0248 47.3471 25.0268 46.3218C18.9939 46.3028 12.961 46.3104 6.93 46.318C6.85259 47.3414 7.07129 48.4027 6.72871 49.3995C5.86162 49.3995 4.99646 49.3957 4.13517 49.4033C4.0771 41.8549 4.13517 34.3065 4.1042 26.7561C4.09646 26.1743 4.11581 25.5906 4.16226 25.0088M6.77129 27.9539C6.77129 33.0367 6.79065 38.1214 6.76162 43.2042C11.2519 43.2421 15.7461 43.2194 20.2384 43.2175C20.2481 38.1271 20.281 33.0348 20.2248 27.9463C15.7423 27.9652 11.2577 27.9387 6.77323 27.9558L6.77129 27.9539Z" fill="white"/>
<path d="M29.161 27.8455C30.2642 29.2365 31.6423 30.3774 32.8191 31.7021C33.7365 32.7558 34.7855 33.6977 35.7455 34.7211C36.1036 35.1153 36.45 35.5455 36.9591 35.7672C36.9126 36.0932 37.0636 36.5765 36.6417 36.7016C35.4358 37.327 34.232 37.9599 33.0223 38.5778C31.7797 37.8633 30.4442 37.3004 29.2288 36.5443C29.132 36.0705 29.1513 35.5777 29.1475 35.0964C29.1707 32.68 29.1939 30.2599 29.1591 27.8379L29.161 27.8455ZM41.4126 32.0035C43.0133 33.2448 44.1881 34.9068 45.6862 36.2524C45.9475 37.0427 45.8217 37.8822 45.841 38.6972C45.8662 42.2677 45.7946 45.8381 45.8759 49.4086C42.9223 49.401 39.9726 49.4048 37.0171 49.4086C36.901 47.6783 36.7946 45.9367 36.9784 44.2102C36.9533 43.8994 37.2881 43.8179 37.4933 43.6795C40.3965 42.2013 42.2739 39.0421 42.1965 35.8468C42.2507 34.5164 41.7862 33.2562 41.4107 31.9997L41.4126 32.0035Z" fill="#BDBDBD"/>
</g>
</g>
<defs>
<clipPath id="clip0_2452_52957">
<rect width="47" height="52" fill="white" transform="translate(0.5 0.5)"/>
</clipPath>
<clipPath id="clip1_2452_52957">
<rect width="54" height="47" fill="white" transform="translate(-2 2.5)"/>
</clipPath>
</defs>
</svg>
