<svg width="48" height="53" viewBox="0 0 48 53" fill="none" xmlns="http://www.w3.org/2000/svg">
<g clip-path="url(#clip0_2452_52934)">
<path d="M12.9037 49.3479C10.3464 49.2316 8.95729 48.8061 8.03332 48.4457C6.80902 47.969 5.93616 47.4016 5.0173 46.484C4.09843 45.5664 3.52974 44.6935 3.05561 43.4692C2.69522 42.5453 2.26965 41.1561 2.15336 38.5989C2.02556 35.8346 2 35.0052 2 28.0019C2 20.9986 2.02812 20.1705 2.15208 17.4037C2.26837 14.8464 2.6965 13.4598 3.05433 12.5333C3.53101 11.309 4.09971 10.4362 5.01602 9.51602C5.9336 8.59843 6.80646 8.02846 8.03204 7.55433C8.95601 7.19394 10.3452 6.76837 12.9024 6.65208C15.6679 6.52556 16.4986 6.5 23.4994 6.5C30.5027 6.5 31.3308 6.52812 34.0976 6.65208C36.6548 6.76837 38.0414 7.1965 38.968 7.55433C40.1923 8.02846 41.0651 8.59843 41.984 9.51602C42.9028 10.4336 43.469 11.3077 43.9457 12.532C44.3061 13.456 44.7316 14.8452 44.8479 17.4024C44.9744 20.1692 45 20.9973 45 28.0006C45 35.0014 44.9744 35.8321 44.8479 38.5989C44.7316 41.1561 44.3035 42.5453 43.9457 43.4692C43.469 44.6935 42.9016 45.5664 41.984 46.484C41.0664 47.4016 40.1923 47.969 38.968 48.4457C38.044 48.8061 36.6548 49.2316 34.0976 49.3479C31.3333 49.4744 30.5027 49.5 23.4994 49.5C16.4986 49.5 15.6679 49.4757 12.9037 49.3479Z" fill="url(#paint0_radial_2452_52934)"/>
<path d="M12.9037 49.3479C10.3464 49.2316 8.95729 48.8061 8.03332 48.4457C6.80902 47.969 5.93616 47.4016 5.0173 46.484C4.09843 45.5664 3.52974 44.6935 3.05561 43.4692C2.69522 42.5453 2.26965 41.1561 2.15336 38.5989C2.02556 35.8346 2 35.0052 2 28.0019C2 20.9986 2.02812 20.1705 2.15208 17.4037C2.26837 14.8464 2.6965 13.4598 3.05433 12.5333C3.53101 11.309 4.09971 10.4362 5.01602 9.51602C5.9336 8.59843 6.80646 8.02846 8.03204 7.55433C8.95601 7.19394 10.3452 6.76837 12.9024 6.65208C15.6679 6.52556 16.4986 6.5 23.4994 6.5C30.5027 6.5 31.3308 6.52812 34.0976 6.65208C36.6548 6.76837 38.0414 7.1965 38.968 7.55433C40.1923 8.02846 41.0651 8.59843 41.984 9.51602C42.9028 10.4336 43.469 11.3077 43.9457 12.532C44.3061 13.456 44.7316 14.8452 44.8479 17.4024C44.9744 20.1692 45 20.9973 45 28.0006C45 35.0014 44.9744 35.8321 44.8479 38.5989C44.7316 41.1561 44.3035 42.5453 43.9457 43.4692C43.469 44.6935 42.9016 45.5664 41.984 46.484C41.0664 47.4016 40.1923 47.969 38.968 48.4457C38.044 48.8061 36.6548 49.2316 34.0976 49.3479C31.3333 49.4744 30.5027 49.5 23.4994 49.5C16.4986 49.5 15.6679 49.4757 12.9037 49.3479Z" fill="url(#paint1_radial_2452_52934)"/>
<path d="M18.221 28.0913C18.221 25.1507 20.6044 22.766 23.545 22.766C26.4856 22.766 28.8703 25.1507 28.8703 28.0913C28.8703 31.0319 26.4856 33.4166 23.545 33.4166C20.6044 33.4166 18.221 31.0319 18.221 28.0913ZM15.3422 28.0913C15.3422 32.6217 19.0143 36.2941 23.5447 36.2941C28.0752 36.2941 31.7475 32.6217 31.7475 28.0913C31.7475 23.5609 28.0753 19.8885 23.5449 19.8885C19.0144 19.8885 15.3423 23.5606 15.3423 28.0913M30.1557 19.5634C30.1556 19.9425 30.2679 20.3131 30.4784 20.6285C30.6889 20.9438 30.9882 21.1896 31.3384 21.3348C31.6887 21.48 32.0741 21.5181 32.446 21.4443C32.8178 21.3704 33.1595 21.188 33.4277 20.92C33.6958 20.652 33.8785 20.3105 33.9526 19.9387C34.0268 19.5669 33.9889 19.1814 33.844 18.8311C33.699 18.4807 33.4534 18.1813 33.1383 17.9705C32.8231 17.7598 32.4526 17.6472 32.0734 17.647H32.0724C31.5642 17.6473 31.0769 17.8492 30.7174 18.2085C30.358 18.5678 30.1559 19.055 30.1554 19.5632M17.0912 41.0944C15.5338 41.0235 14.6874 40.764 14.1247 40.5449C13.3788 40.2545 12.8467 39.9087 12.2872 39.35C11.7277 38.7912 11.3814 38.2596 11.0923 37.5138C10.873 36.9515 10.6136 36.1047 10.5428 34.5472C10.4653 32.8631 10.4498 32.3573 10.4498 28.0913C10.4498 23.8253 10.4665 23.3209 10.5428 21.6356C10.6137 20.078 10.875 19.233 11.0923 18.6689C11.3826 17.9231 11.7285 17.3909 12.2872 16.8314C12.8459 16.2719 13.3776 15.9256 14.1247 15.6365C14.687 15.4172 15.5338 15.1578 17.0912 15.087C18.7751 15.0095 19.2809 14.9941 23.545 14.9941C27.8091 14.9941 28.3154 15.011 30.0007 15.0876C31.5581 15.1586 32.4033 15.4199 32.9672 15.6372C33.7131 15.9262 34.2452 16.2733 34.8047 16.8321C35.3642 17.3908 35.7095 17.9237 35.9996 18.6695C36.2192 19.2318 36.4786 20.0786 36.5491 21.6361C36.6268 23.3217 36.6424 23.826 36.6424 28.092C36.6424 32.358 36.6271 32.8625 36.5494 34.5477C36.4786 36.1053 36.2179 36.9519 35.9999 37.5144C35.7098 38.2602 35.3638 38.7924 34.805 39.3506C34.2461 39.9088 33.7136 40.2552 32.9676 40.5455C32.4053 40.7648 31.5585 41.0242 30.0011 41.095C28.3172 41.1725 27.8114 41.188 23.5454 41.188C19.2794 41.188 18.775 41.1726 17.0916 41.095M16.959 12.2135C15.2584 12.2908 14.0963 12.5604 13.0816 12.9553C12.0311 13.363 11.1407 13.9102 10.2516 14.7979C9.36254 15.6856 8.81698 16.5761 8.40905 17.6277C8.01415 18.6432 7.7445 19.8046 7.66706 21.5051C7.58833 23.2086 7.57031 23.7531 7.57031 28.0913C7.57031 32.4295 7.5882 32.974 7.66706 34.6773C7.7445 36.378 8.01415 37.5393 8.40905 38.5547C8.81672 39.6052 9.36267 40.4972 10.2516 41.3846C11.1406 42.2721 12.0298 42.8185 13.0814 43.2275C14.0979 43.6224 15.2581 43.892 16.9588 43.9695C18.6629 44.0469 19.2068 44.0662 23.5447 44.0662C27.8827 44.0662 28.4275 44.0483 30.1308 43.9695C31.8314 43.892 32.9927 43.6224 34.0082 43.2275C35.0586 42.8185 35.9489 42.2724 36.838 41.3846C37.7271 40.4968 38.2716 39.6053 38.6806 38.5549C39.0754 37.5395 39.3464 36.378 39.4227 34.6776C39.5001 32.9727 39.5181 32.4296 39.5181 28.0914C39.5181 23.7532 39.5002 23.2086 39.4227 21.5054C39.3452 19.8046 39.0756 18.6427 38.6807 17.628C38.2717 16.5775 37.726 15.6871 36.8382 14.798C35.9504 13.909 35.0589 13.3631 34.0097 12.9553C32.9931 12.5604 31.8316 12.2895 30.1323 12.2133C28.4288 12.1354 27.8844 12.1162 23.5469 12.1162C19.2095 12.1162 18.6638 12.1341 16.9596 12.2131" fill="white"/>
</g>
<defs>
<radialGradient id="paint0_radial_2452_52934" cx="0" cy="0" r="1" gradientUnits="userSpaceOnUse" gradientTransform="translate(4.78292 48.558) scale(54.594)">
<stop offset="0.09" stop-color="#FA8F21"/>
<stop offset="0.78" stop-color="#D82D7E"/>
</radialGradient>
<radialGradient id="paint1_radial_2452_52934" cx="0" cy="0" r="1" gradientUnits="userSpaceOnUse" gradientTransform="translate(31.7846 47.1773) scale(48.0433)">
<stop offset="0.64" stop-color="#8C3AAA" stop-opacity="0"/>
<stop offset="1" stop-color="#8C3AAA"/>
</radialGradient>
<clipPath id="clip0_2452_52934">
<rect width="43" height="43" fill="white" transform="translate(2 6.5)"/>
</clipPath>
</defs>
</svg>
