<svg width="48" height="53" viewBox="0 0 48 53" fill="none" xmlns="http://www.w3.org/2000/svg">
<g clip-path="url(#clip0_2452_52950)">
<path d="M5 18.1875H13.3125V45.5H5V18.1875ZM33.5 18.1875C28.75 18.1875 27.4438 19.7312 26.375 21.75V18.1875H18.0625V45.5H26.375V30.0625C26.375 27.6875 26.375 25.3125 30.5312 25.3125C34.6875 25.3125 34.6875 27.6875 34.6875 30.0625V45.5H43V30.0625C43 22.9375 41.8125 18.1875 33.5 18.1875Z" fill="#0A66C2"/>
<path d="M9.15625 15.8125C11.4517 15.8125 13.3125 13.9517 13.3125 11.6562C13.3125 9.36082 11.4517 7.5 9.15625 7.5C6.86082 7.5 5 9.36082 5 11.6562C5 13.9517 6.86082 15.8125 9.15625 15.8125Z" fill="#0A66C2"/>
</g>
<defs>
<clipPath id="clip0_2452_52950">
<rect width="38" height="38" fill="white" transform="translate(5 7.5)"/>
</clipPath>
</defs>
</svg>
