<svg width="48" height="53" viewBox="0 0 48 53" fill="none" xmlns="http://www.w3.org/2000/svg">
<g clip-path="url(#clip0_2452_52924)">
<path d="M25.9644 18.9278C29.0724 18.9278 32.1804 18.8998 35.2884 18.9278C37.3884 18.9558 39.4044 19.4038 41.2804 20.3558C44.8364 22.1478 46.9084 25.0878 47.5804 28.9798C48.2524 32.7878 47.3564 36.2317 44.9484 39.2557C42.8204 41.9157 39.9924 43.3718 36.6604 43.8478C33.2724 44.3238 29.9124 43.9318 26.6364 43.1478C22.7724 42.2238 19.1324 40.7397 15.7444 38.6397C14.9324 38.1357 14.3724 37.7718 13.5884 37.1278C13.4204 36.9878 13.0844 36.7078 12.9444 36.5118C12.6364 36.0918 12.7764 35.6157 13.3084 35.6157C13.5604 35.6157 13.7564 35.6157 13.9804 35.6157C15.8284 35.6157 17.6764 35.6157 19.5244 35.6157C19.7484 35.6157 19.9724 35.6157 20.1684 35.5877C20.4204 35.5597 20.7004 35.4757 20.7844 35.2518C20.8964 34.8878 20.6724 34.6918 20.4204 34.5518C20.2524 34.4398 20.0284 34.3558 19.8604 34.2438C17.3124 32.8158 14.7644 31.4438 12.2444 29.9598C10.4804 28.9237 8.85643 27.6918 7.31643 26.3198C7.00843 26.0398 6.67243 25.7318 6.42043 25.3677C6.05643 24.8637 6.28043 24.3317 6.89643 24.3038C7.17643 24.3038 7.40043 24.3038 7.65243 24.3038C12.1044 24.3038 16.5844 24.3038 21.0364 24.3038C21.3164 24.3038 21.5124 24.3038 21.7644 24.2758C21.9604 24.2478 22.1844 24.0237 22.2124 23.8837C22.2404 23.7158 22.1844 23.4637 22.0164 23.3238C21.8204 23.1557 21.5964 23.0718 21.3444 22.9598C19.7484 22.1758 18.1524 21.4197 16.5844 20.6077C16.1644 20.4117 15.8284 20.1878 15.5204 19.8518C15.2964 19.6278 15.2124 19.3478 15.2964 19.1518C15.3804 18.9278 15.5484 18.8998 15.8284 18.8718C16.0524 18.8438 16.2484 18.8438 16.4724 18.8438C19.6364 18.9278 22.8004 18.9278 25.9644 18.9278ZM35.5124 22.8198C30.9764 22.8198 26.8604 26.3198 26.8604 31.3038C26.8604 36.0918 30.5564 39.8998 35.3724 39.9278C40.2724 39.9558 43.9404 36.1477 43.9404 31.3877C43.9684 26.4037 40.1324 22.9038 35.5124 22.8198Z" fill="#FF5600"/>
<path d="M42.0086 31.1355C41.9526 27.9715 39.2366 25.1715 36.1846 24.9755C34.9526 24.8915 34.6166 24.8635 34.7006 26.4595C34.7286 26.9915 34.8966 27.1595 35.4286 27.2995C35.7086 27.3555 36.0166 27.3835 36.3246 27.4675C38.0606 27.9435 38.9846 29.1475 39.3486 30.8555C39.6286 32.1715 39.7686 32.2835 41.1686 32.1715C41.2806 32.1715 41.3926 32.1435 41.5046 32.1435C41.8126 32.0875 41.9806 31.9195 42.0366 31.6115C42.0086 31.3875 42.0086 31.1915 42.0086 31.1355Z" fill="#FF5600"/>
<path d="M42.008 31.1358C42.008 31.1918 42.008 31.3878 41.98 31.5558C41.952 31.8638 41.756 32.0318 41.448 32.0878C41.336 32.1158 41.224 32.1158 41.112 32.1158C39.74 32.2278 39.572 32.1438 39.292 30.7998C38.928 29.0918 38.004 27.8878 36.268 27.4118C35.988 27.3278 35.68 27.3278 35.372 27.2438C34.84 27.1038 34.672 26.9358 34.644 26.4038C34.56 24.8078 34.896 24.8358 36.128 24.9198C39.236 25.1718 41.952 27.9718 42.008 31.1358Z" fill="#FF5600"/>
</g>
<defs>
<clipPath id="clip0_2452_52924">
<rect width="47" height="52" fill="white" transform="translate(0.5 0.5)"/>
</clipPath>
</defs>
</svg>
