<svg width="48" height="53" viewBox="0 0 48 53" fill="none" xmlns="http://www.w3.org/2000/svg">
<g clip-path="url(#clip0_2452_52941)">
<path d="M41.7833 11.5221C41.7449 11.2956 41.5532 11.1446 41.3614 11.1446C41.1696 11.1446 37.7943 11.0691 37.7943 11.0691C37.7943 11.0691 34.9559 8.35105 34.6874 8.08679C34.4189 7.82253 33.8436 7.89803 33.6518 7.97354C33.6518 7.97354 33.1148 8.12454 32.2326 8.3888C32.0792 7.89803 31.849 7.33177 31.5422 6.72775C30.5449 4.8402 29.049 3.82093 27.2847 3.82093C27.1696 3.82093 27.0545 3.82093 26.9011 3.85868C26.8627 3.78317 26.786 3.74542 26.7477 3.66992C25.9806 2.8394 24.9833 2.46189 23.7943 2.49964C21.4929 2.57514 19.1915 4.19844 17.3504 7.10526C16.0463 9.14382 15.049 11.7109 14.7422 13.7117C12.0956 14.5045 10.2545 15.0707 10.2162 15.1085C8.8737 15.5237 8.83535 15.5615 8.68192 16.8073C8.56685 17.751 5.03809 44.3655 5.03809 44.3655L34.3422 49.3486L47.0381 46.2531C46.9997 46.2153 41.8216 11.7486 41.7833 11.5221ZM30.7751 8.84181C30.0847 9.03056 29.3175 9.29482 28.5121 9.52133C28.5121 8.3888 28.3586 6.7655 27.8216 5.40647C29.5477 5.74623 30.3915 7.67153 30.7751 8.84181ZM26.9395 10.0121C25.4052 10.4651 23.7175 10.9936 22.0299 11.4844C22.4901 9.71008 23.4107 7.93579 24.4847 6.7655C24.9066 6.35024 25.4819 5.85948 26.134 5.55747C26.8244 6.87876 26.9778 8.72856 26.9395 10.0121ZM23.8326 4.00968C24.3696 4.00968 24.8299 4.12293 25.2134 4.34944C24.5997 4.6892 23.986 5.14221 23.4107 5.74623C21.9532 7.29402 20.8408 9.71008 20.3806 12.0129C18.9997 12.4282 17.6189 12.8434 16.3532 13.2209C17.1586 9.59683 20.2655 4.12293 23.8326 4.00968Z" fill="#95BF47"/>
<path d="M41.3612 11.145C41.1695 11.145 37.7941 11.0695 37.7941 11.0695C37.7941 11.0695 34.9558 8.35145 34.6873 8.08719C34.5722 7.97394 34.4571 7.93619 34.3037 7.89844V49.3113L46.9996 46.2157C46.9996 46.2157 41.8215 11.749 41.7832 11.4848C41.7448 11.296 41.553 11.145 41.3612 11.145Z" fill="#5E8E3E"/>
<path d="M27.2464 17.563L25.7889 22.9991C25.7889 22.9991 24.1396 22.2441 22.1834 22.3951C19.3067 22.5838 19.3067 24.3581 19.3067 24.8111C19.4601 27.2272 25.9423 27.7557 26.3259 33.4561C26.5944 37.9485 23.9094 41.0063 20.0354 41.2328C15.356 41.5348 12.7861 38.8168 12.7861 38.8168L13.7834 34.6642C13.7834 34.6642 16.3533 36.5895 18.4245 36.4385C19.767 36.363 20.2656 35.2682 20.2272 34.5132C20.0354 31.3421 14.7423 31.5308 14.3971 26.3212C14.1286 21.9421 17.0437 17.4875 23.4875 17.1099C25.9807 16.9212 27.2464 17.563 27.2464 17.563Z" fill="white"/>
</g>
<defs>
<clipPath id="clip0_2452_52941">
<rect width="42" height="47" fill="white" transform="translate(5 2.5)"/>
</clipPath>
</defs>
</svg>
