<svg width="26" height="16" viewBox="0 0 26 16" fill="none">
    <g filter="url(#filter0_i_2429_52275)">
        <mask id="path-1-outside-1_2429_52275" maskUnits="userSpaceOnUse" x="0" y="-0.388672" width="25" height="16" fill="black">
            <rect fill="white" y="-0.388672" width="25" height="16" />
            <path fill-rule="evenodd" clip-rule="evenodd" d="M10.237 10.1152L5.68523 14.667H1V9.98178L10.3705 0.611328H15.0557V5.16312L19.6075 0.611328H24.2927V5.29656L14.9222 14.667H10.237V10.1152Z" />
        </mask>
        <g filter="url(#filter1_i_2429_52275)">
            <path fill-rule="evenodd" clip-rule="evenodd" d="M10.237 10.1152L5.68523 14.667H1V9.98178L10.3705 0.611328H15.0557V5.16312L19.6075 0.611328H24.2927V5.29656L14.9222 14.667H10.237V10.1152Z" fill="#E7E5E4" />
        </g>
        <path d="M10.237 10.1152H10.5447V9.37238L10.0194 9.89765L10.237 10.1152ZM5.68523 14.667V14.9747H5.81268L5.9028 14.8846L5.68523 14.667ZM1 14.667H0.692303V14.9747H1V14.667ZM1 9.98178L0.782425 9.76421L0.692303 9.85433V9.98178H1ZM10.3705 0.611328V0.303631H10.243L10.1529 0.393753L10.3705 0.611328ZM15.0557 0.611328H15.3634V0.303631H15.0557V0.611328ZM15.0557 5.16312H14.748V5.90596L15.2733 5.38069L15.0557 5.16312ZM19.6075 0.611328V0.303631H19.48L19.3899 0.393753L19.6075 0.611328ZM24.2927 0.611328H24.6004V0.303631H24.2927V0.611328ZM24.2927 5.29656L24.5103 5.51413L24.6004 5.42401V5.29656H24.2927ZM14.9222 14.667V14.9747H15.0497L15.1398 14.8846L14.9222 14.667ZM10.237 14.667H9.92932V14.9747H10.237V14.667ZM10.0194 9.89765L5.46765 14.4494L5.9028 14.8846L10.4546 10.3328L10.0194 9.89765ZM5.68523 14.3593H1V14.9747H5.68523V14.3593ZM1.3077 14.667V9.98178H0.692303V14.667H1.3077ZM1.21757 10.1994L10.588 0.828903L10.1529 0.393753L0.782425 9.76421L1.21757 10.1994ZM10.3705 0.919025H15.0557V0.303631H10.3705V0.919025ZM14.748 0.611328V5.16312H15.3634V0.611328H14.748ZM15.2733 5.38069L19.8251 0.828903L19.3899 0.393753L14.8381 4.94554L15.2733 5.38069ZM19.6075 0.919025H24.2927V0.303631H19.6075V0.919025ZM23.985 0.611328V5.29656H24.6004V0.611328H23.985ZM24.0751 5.07898L14.7047 14.4494L15.1398 14.8846L24.5103 5.51413L24.0751 5.07898ZM14.9222 14.3593H10.237V14.9747H14.9222V14.3593ZM10.5447 14.667V10.1152H9.92932V14.667H10.5447Z" fill="white" mask="url(#path-1-outside-1_2429_52275)" />
        <path d="M25 15.3818L17.9995 15.3818L25 8.38135L25 15.3818Z" fill="#E7E5E4" stroke="white" stroke-width="0.333357" />
    </g>
    <defs>
        <filter id="filter0_i_2429_52275" x="0.692383" y="0.303711" width="24.4746" height="15.8605" filterUnits="userSpaceOnUse" color-interpolation-filters="sRGB">
            <feFlood flood-opacity="0" result="BackgroundImageFix" />
            <feBlend mode="normal" in="SourceGraphic" in2="BackgroundImageFix" result="shape" />
            <feColorMatrix in="SourceAlpha" type="matrix" values="0 0 0 0 0 0 0 0 0 0 0 0 0 0 0 0 0 0 127 0" result="hardAlpha" />
            <feOffset dy="0.615394" />
            <feGaussianBlur stdDeviation="0.615394" />
            <feComposite in2="hardAlpha" operator="arithmetic" k2="-1" k3="1" />
            <feColorMatrix type="matrix" values="0 0 0 0 0 0 0 0 0 0 0 0 0 0 0 0 0 0 0.06 0" />
            <feBlend mode="normal" in2="shape" result="effect1_innerShadow_2429_52275" />
        </filter>
        <filter id="filter1_i_2429_52275" x="0.692383" y="0.303711" width="23.9082" height="14.9786" filterUnits="userSpaceOnUse" color-interpolation-filters="sRGB">
            <feFlood flood-opacity="0" result="BackgroundImageFix" />
            <feBlend mode="normal" in="SourceGraphic" in2="BackgroundImageFix" result="shape" />
            <feColorMatrix in="SourceAlpha" type="matrix" values="0 0 0 0 0 0 0 0 0 0 0 0 0 0 0 0 0 0 127 0" result="hardAlpha" />
            <feOffset dy="0.307697" />
            <feGaussianBlur stdDeviation="0.153849" />
            <feComposite in2="hardAlpha" operator="arithmetic" k2="-1" k3="1" />
            <feColorMatrix type="matrix" values="0 0 0 0 0 0 0 0 0 0 0 0 0 0 0 0 0 0 0.25 0" />
            <feBlend mode="normal" in2="shape" result="effect1_innerShadow_2429_52275" />
        </filter>
    </defs>
</svg>