<svg width="651" height="481" viewBox="0 0 651 481" fill="none" xmlns="http://www.w3.org/2000/svg">
<g filter="url(#filter0_i_1327_164)">
<path fill-rule="evenodd" clip-rule="evenodd" d="M21.6934 0.09375C9.84759 0.09375 0.244629 9.69672 0.244629 21.5426V384.645C0.244629 396.491 9.84756 406.094 21.6934 406.094H168.6C180.446 406.094 190.049 415.697 190.049 427.543V458.645C190.049 470.491 199.652 480.094 211.498 480.094H628.796C640.642 480.094 650.245 470.491 650.245 458.645V167.53C650.245 155.684 640.642 146.081 628.796 146.081H579.693C567.848 146.081 558.245 136.478 558.245 124.632V21.5426C558.245 9.69671 548.642 0.09375 536.796 0.09375H21.6934Z" fill="#F3F4F6"/>
</g>
<circle cx="89.7446" cy="85.5938" r="65.5" fill="#E5E7EB"/>
<circle cx="243.245" cy="413.094" r="22" fill="#E5E7EB"/>
<circle cx="590.245" cy="202.094" r="17" fill="#E5E7EB"/>
<circle cx="277.745" cy="438.594" r="10.5" fill="#E5E7EB"/>
<g filter="url(#filter1_dd_1327_164)">
<path d="M60.7979 71.9521H496.054V356.804C496.054 360.063 493.411 362.706 490.152 362.706H66.7002C63.4404 362.706 60.7979 360.063 60.7979 356.804V71.9521Z" fill="#F9FAFB"/>
<path d="M60.7979 70.4521H59.2979V71.9521V356.804C59.2979 360.892 62.612 364.206 66.7002 364.206H490.152C494.24 364.206 497.554 360.892 497.554 356.804V71.9521V70.4521H496.054H60.7979Z" stroke="white" stroke-width="3"/>
</g>
<path d="M255.473 152.341L255.043 153.304H249.294L249.657 152.341H255.473ZM254.634 154.156L254.144 155.145H249.294L249.657 154.156H254.634ZM256.615 150.001L255.84 151.651C255.749 151.599 255.63 151.531 255.482 151.446C255.337 151.358 255.164 151.28 254.962 151.212C254.763 151.143 254.537 151.109 254.284 151.109C253.921 151.109 253.608 151.199 253.347 151.378C253.086 151.554 252.884 151.835 252.742 152.222C252.603 152.608 252.533 153.115 252.533 153.743C252.533 154.376 252.603 154.885 252.742 155.268C252.884 155.649 253.086 155.925 253.347 156.095C253.608 156.266 253.921 156.351 254.284 156.351C254.534 156.351 254.757 156.318 254.953 156.253C255.152 156.188 255.323 156.114 255.465 156.031C255.61 155.946 255.723 155.875 255.806 155.818L256.586 157.472C256.273 157.719 255.921 157.905 255.529 158.03C255.14 158.152 254.725 158.213 254.284 158.213C253.526 158.213 252.854 158.038 252.269 157.689C251.686 157.339 251.23 156.832 250.901 156.168C250.571 155.5 250.407 154.692 250.407 153.743C250.407 152.797 250.571 151.989 250.901 151.318C251.23 150.648 251.686 150.135 252.269 149.78C252.854 149.425 253.526 149.247 254.284 149.247C254.742 149.247 255.164 149.312 255.55 149.443C255.939 149.574 256.294 149.76 256.615 150.001ZM261.931 149.366V158.094H259.826V151.335H259.775L257.823 152.528V150.705L259.975 149.366H261.931ZM263.861 158.094V156.577L267.044 153.79C267.283 153.574 267.486 153.376 267.653 153.197C267.821 153.016 267.949 152.834 268.037 152.652C268.125 152.467 268.169 152.267 268.169 152.051C268.169 151.81 268.116 151.604 268.011 151.433C267.906 151.26 267.761 151.126 267.577 151.033C267.392 150.939 267.18 150.892 266.942 150.892C266.7 150.892 266.489 150.942 266.307 151.041C266.125 151.138 265.983 151.278 265.881 151.463C265.781 151.648 265.731 151.872 265.731 152.136H263.733C263.733 151.543 263.866 151.03 264.133 150.598C264.401 150.166 264.776 149.834 265.258 149.601C265.744 149.365 266.308 149.247 266.95 149.247C267.612 149.247 268.187 149.358 268.676 149.58C269.165 149.801 269.543 150.111 269.81 150.509C270.08 150.903 270.214 151.362 270.214 151.885C270.214 152.217 270.148 152.547 270.014 152.874C269.881 153.2 269.641 153.561 269.294 153.956C268.95 154.351 268.462 154.824 267.828 155.375L266.784 156.338V156.393H270.321V158.094H263.861ZM273.657 156.901L273.618 157.374C273.584 157.766 273.515 158.148 273.409 158.52C273.307 158.895 273.198 159.232 273.081 159.53C272.965 159.828 272.872 160.06 272.804 160.224H271.492C271.537 160.06 271.598 159.828 271.675 159.53C271.755 159.232 271.828 158.895 271.897 158.52C271.965 158.145 272.003 157.764 272.012 157.378L272.02 156.901H273.657ZM278.338 149.247C278.815 149.247 279.271 149.325 279.706 149.482C280.14 149.635 280.528 149.881 280.869 150.219C281.21 150.554 281.478 150.996 281.674 151.544C281.87 152.092 281.968 152.761 281.968 153.551C281.971 154.278 281.886 154.93 281.713 155.507C281.539 156.081 281.291 156.57 280.967 156.973C280.646 157.376 280.26 157.685 279.808 157.898C279.356 158.108 278.852 158.213 278.295 158.213C277.681 158.213 277.14 158.095 276.671 157.859C276.206 157.621 275.832 157.3 275.551 156.896C275.272 156.493 275.106 156.041 275.052 155.541H277.127C277.193 155.831 277.331 156.05 277.541 156.197C277.751 156.342 278.002 156.415 278.295 156.415C278.829 156.415 279.228 156.183 279.492 155.72C279.757 155.257 279.889 154.628 279.889 153.832H279.838C279.716 154.094 279.542 154.318 279.318 154.506C279.096 154.693 278.839 154.837 278.546 154.936C278.254 155.036 277.946 155.085 277.622 155.085C277.099 155.085 276.637 154.966 276.237 154.727C275.839 154.489 275.527 154.161 275.299 153.743C275.075 153.325 274.961 152.848 274.958 152.311C274.956 151.709 275.096 151.178 275.38 150.717C275.664 150.254 276.061 149.893 276.569 149.635C277.078 149.374 277.667 149.244 278.338 149.247ZM278.35 150.866C278.089 150.866 277.856 150.928 277.652 151.05C277.45 151.172 277.291 151.337 277.174 151.544C277.058 151.751 277.001 151.984 277.004 152.243C277.007 152.501 277.065 152.734 277.179 152.942C277.295 153.149 277.453 153.314 277.652 153.436C277.853 153.558 278.083 153.619 278.342 153.619C278.535 153.619 278.714 153.584 278.879 153.513C279.044 153.442 279.187 153.344 279.309 153.219C279.431 153.091 279.527 152.943 279.595 152.776C279.666 152.608 279.7 152.429 279.697 152.239C279.694 151.986 279.635 151.756 279.518 151.548C279.402 151.341 279.241 151.176 279.037 151.054C278.835 150.929 278.606 150.866 278.35 150.866ZM286.412 149.247C286.889 149.247 287.345 149.325 287.78 149.482C288.214 149.635 288.602 149.881 288.943 150.219C289.284 150.554 289.553 150.996 289.749 151.544C289.945 152.092 290.043 152.761 290.043 153.551C290.045 154.278 289.96 154.93 289.787 155.507C289.614 156.081 289.365 156.57 289.041 156.973C288.72 157.376 288.334 157.685 287.882 157.898C287.43 158.108 286.926 158.213 286.369 158.213C285.756 158.213 285.214 158.095 284.746 157.859C284.28 157.621 283.906 157.3 283.625 156.896C283.347 156.493 283.18 156.041 283.126 155.541H285.202C285.267 155.831 285.405 156.05 285.615 156.197C285.825 156.342 286.077 156.415 286.369 156.415C286.903 156.415 287.303 156.183 287.567 155.72C287.831 155.257 287.963 154.628 287.963 153.832H287.912C287.79 154.094 287.616 154.318 287.392 154.506C287.17 154.693 286.913 154.837 286.621 154.936C286.328 155.036 286.02 155.085 285.696 155.085C285.173 155.085 284.712 154.966 284.311 154.727C283.913 154.489 283.601 154.161 283.374 153.743C283.149 153.325 283.035 152.848 283.033 152.311C283.03 151.709 283.17 151.178 283.455 150.717C283.739 150.254 284.135 149.893 284.643 149.635C285.152 149.374 285.741 149.244 286.412 149.247ZM286.425 150.866C286.163 150.866 285.93 150.928 285.726 151.05C285.524 151.172 285.365 151.337 285.249 151.544C285.132 151.751 285.075 151.984 285.078 152.243C285.081 152.501 285.139 152.734 285.253 152.942C285.369 153.149 285.527 153.314 285.726 153.436C285.928 153.558 286.158 153.619 286.416 153.619C286.609 153.619 286.788 153.584 286.953 153.513C287.118 153.442 287.261 153.344 287.383 153.219C287.506 153.091 287.601 152.943 287.669 152.776C287.74 152.608 287.774 152.429 287.771 152.239C287.768 151.986 287.709 151.756 287.592 151.548C287.476 151.341 287.315 151.176 287.111 151.054C286.909 150.929 286.68 150.866 286.425 150.866Z" fill="#4B5563"/>
<rect x="60.332" y="48.4863" width="435.735" height="26.8462" fill="white"/>
<g filter="url(#filter2_d_1327_164)">
<mask id="path-10-outside-1_1327_164" maskUnits="userSpaceOnUse" x="57.332" y="45.4863" width="442" height="30" fill="black">
<rect fill="white" x="57.332" y="45.4863" width="442" height="30"/>
<path d="M60.332 50.3052C60.332 49.3007 61.1464 48.4863 62.1509 48.4863H494.248C495.253 48.4863 496.067 49.3007 496.067 50.3052V75.3326H60.332V50.3052Z"/>
</mask>
<path d="M60.332 50.3052C60.332 49.3007 61.1464 48.4863 62.1509 48.4863H494.248C495.253 48.4863 496.067 49.3007 496.067 50.3052V75.3326H60.332V50.3052Z" fill="white"/>
<path d="M57.332 50.3052C57.332 47.6438 59.4895 45.4863 62.1509 45.4863H494.248C496.91 45.4863 499.067 47.6438 499.067 50.3052L493.067 51.4863H63.332L57.332 50.3052ZM496.067 75.3326H60.332H496.067ZM57.332 75.3326V50.3052C57.332 47.6438 59.4895 45.4863 62.1509 45.4863L63.332 51.4863V75.3326H57.332ZM494.248 45.4863C496.91 45.4863 499.067 47.6438 499.067 50.3052V75.3326H493.067V51.4863L494.248 45.4863Z" fill="white" mask="url(#path-10-outside-1_1327_164)"/>
</g>
<circle cx="77.1263" cy="60.8335" r="2.18265" fill="#EF4444"/>
<circle cx="84.4019" cy="60.8335" r="2.18265" fill="#F59E0B"/>
<circle cx="91.6773" cy="60.8335" r="2.18265" fill="#10B981"/>
<rect x="192.613" y="57.5254" width="204.112" height="8.93701" rx="1.81887" fill="#E5E7EB"/>
<rect x="106.609" y="121.029" width="100.059" height="117.569" rx="7.14961" fill="#E5E7EB"/>
<path fill-rule="evenodd" clip-rule="evenodd" d="M159.457 162.89C159.462 162.85 159.465 162.81 159.465 162.77V154.987C159.465 154.494 159.065 154.094 158.571 154.094H150.789C150.552 154.094 150.324 154.188 150.157 154.356L132.588 171.925C132.42 172.092 132.326 172.32 132.326 172.557V180.339C132.326 180.833 132.726 181.233 133.22 181.233H141.002C141.239 181.233 141.466 181.139 141.634 180.971L150.168 172.437C150.163 172.476 150.16 172.516 150.16 172.557V180.339C150.16 180.833 150.56 181.233 151.054 181.233H158.836C159.073 181.233 159.301 181.139 159.468 180.971L177.037 163.402C177.205 163.234 177.299 163.007 177.299 162.77V154.987C177.299 154.494 176.899 154.094 176.406 154.094H168.623C168.386 154.094 168.159 154.188 167.991 154.356L159.457 162.89Z" fill="#4B5563"/>
<path d="M177.264 180.306C177.264 180.8 176.864 181.2 176.37 181.2L166.636 181.2C165.84 181.2 165.442 180.238 166.005 179.675L175.739 169.941C176.302 169.378 177.264 169.776 177.264 170.572L177.264 180.306Z" fill="#8B5CF6"/>
<rect x="246.692" y="181.064" width="186.36" height="10.0059" rx="4.42678" fill="#E5E7EB"/>
<rect x="106.609" y="303.637" width="186.36" height="10.0059" rx="4.42678" fill="#E5E7EB"/>
<rect x="246.692" y="201.076" width="115.068" height="10.0059" rx="4.42678" fill="#E5E7EB"/>
<rect x="106.609" y="323.648" width="115.068" height="10.0059" rx="4.42678" fill="#E5E7EB"/>
<rect x="246.692" y="221.088" width="80.0471" height="17.5103" rx="8.75515" fill="#8B5CF6"/>
<rect x="265.453" y="226.091" width="42.525" height="7.50442" rx="3.75221" fill="#A78BFA"/>
<rect x="246.692" y="121.029" width="66.289" height="10.0059" rx="4.42678" fill="#9CA3AF"/>
<rect x="106.609" y="283.625" width="66.289" height="10.0059" rx="4.42678" fill="#9CA3AF"/>
<g filter="url(#filter3_dd_1327_164)">
<rect x="339.86" y="189.556" width="242.597" height="236.911" rx="5.3622" fill="white"/>
<rect x="366.394" y="326.964" width="191.424" height="28.4293" rx="5.3622" fill="#E5E7EB"/>
<path d="M386.207 344.545V338.045H387.188V341.149H387.267L389.993 338.045H391.228L388.606 340.971L391.237 344.545H390.057L387.956 341.641L387.188 342.523V344.545H386.207ZM393.761 344.643C393.304 344.643 392.905 344.539 392.565 344.329C392.224 344.12 391.96 343.827 391.771 343.45C391.583 343.073 391.489 342.633 391.489 342.13C391.489 341.624 391.583 341.182 391.771 340.803C391.96 340.424 392.224 340.13 392.565 339.921C392.905 339.711 393.304 339.607 393.761 339.607C394.218 339.607 394.617 339.711 394.958 339.921C395.298 340.13 395.563 340.424 395.751 340.803C395.939 341.182 396.034 341.624 396.034 342.13C396.034 342.633 395.939 343.073 395.751 343.45C395.563 343.827 395.298 344.12 394.958 344.329C394.617 344.539 394.218 344.643 393.761 344.643ZM393.764 343.847C394.061 343.847 394.306 343.768 394.501 343.612C394.695 343.455 394.839 343.247 394.932 342.987C395.027 342.726 395.075 342.44 395.075 342.127C395.075 341.816 395.027 341.53 394.932 341.27C394.839 341.007 394.695 340.797 394.501 340.638C394.306 340.479 394.061 340.4 393.764 340.4C393.466 340.4 393.218 340.479 393.022 340.638C392.827 340.797 392.682 341.007 392.587 341.27C392.494 341.53 392.447 341.816 392.447 342.127C392.447 342.44 392.494 342.726 392.587 342.987C392.682 343.247 392.827 343.455 393.022 343.612C393.218 343.768 393.466 343.847 393.764 343.847ZM397.093 344.545V339.67H398.01V340.445H398.061C398.15 340.182 398.306 339.976 398.53 339.826C398.757 339.673 399.013 339.597 399.298 339.597C399.358 339.597 399.427 339.599 399.508 339.604C399.59 339.608 399.655 339.613 399.701 339.619V340.527C399.663 340.516 399.596 340.505 399.498 340.492C399.401 340.477 399.304 340.47 399.206 340.47C398.982 340.47 398.782 340.518 398.607 340.613C398.433 340.706 398.296 340.836 398.194 341.003C398.092 341.168 398.042 341.356 398.042 341.568V344.545H397.093ZM403.086 339.67V340.432H400.423V339.67H403.086ZM401.138 338.502H402.086V343.114C402.086 343.298 402.114 343.436 402.169 343.529C402.224 343.62 402.295 343.683 402.382 343.717C402.47 343.748 402.567 343.764 402.67 343.764C402.747 343.764 402.813 343.759 402.87 343.748C402.927 343.738 402.972 343.729 403.004 343.723L403.175 344.507C403.12 344.528 403.042 344.549 402.94 344.57C402.839 344.594 402.712 344.606 402.559 344.608C402.31 344.613 402.077 344.568 401.861 344.475C401.645 344.382 401.471 344.238 401.337 344.043C401.204 343.849 401.138 343.604 401.138 343.31V338.502ZM404.136 344.545V339.67H405.085V344.545H404.136ZM404.615 338.918C404.45 338.918 404.308 338.863 404.19 338.753C404.073 338.641 404.015 338.508 404.015 338.353C404.015 338.197 404.073 338.063 404.19 337.953C404.308 337.841 404.45 337.785 404.615 337.785C404.78 337.785 404.921 337.841 405.037 337.953C405.156 338.063 405.215 338.197 405.215 338.353C405.215 338.508 405.156 338.641 405.037 338.753C404.921 338.863 404.78 338.918 404.615 338.918ZM407.31 341.651V344.545H406.361V339.67H407.272V340.464H407.333C407.445 340.205 407.62 339.998 407.859 339.842C408.101 339.685 408.404 339.607 408.77 339.607C409.102 339.607 409.393 339.677 409.643 339.816C409.893 339.954 410.086 340.159 410.224 340.432C410.361 340.705 410.43 341.042 410.43 341.444V344.545H409.481V341.559C409.481 341.205 409.389 340.929 409.205 340.73C409.021 340.529 408.768 340.429 408.446 340.429C408.226 340.429 408.031 340.476 407.859 340.572C407.69 340.667 407.556 340.806 407.456 340.99C407.359 341.172 407.31 341.392 407.31 341.651ZM413.746 346.475C413.359 346.475 413.026 346.424 412.747 346.322C412.47 346.221 412.243 346.086 412.068 345.919C411.892 345.752 411.761 345.569 411.674 345.37L412.49 345.034C412.547 345.127 412.623 345.225 412.718 345.329C412.816 345.435 412.947 345.525 413.112 345.599C413.279 345.673 413.494 345.71 413.756 345.71C414.116 345.71 414.413 345.622 414.648 345.446C414.883 345.273 415 344.996 415 344.615V343.656H414.94C414.883 343.76 414.8 343.875 414.692 344.002C414.586 344.129 414.44 344.239 414.254 344.332C414.068 344.425 413.826 344.472 413.527 344.472C413.142 344.472 412.795 344.382 412.487 344.202C412.18 344.02 411.936 343.753 411.757 343.399C411.579 343.044 411.49 342.607 411.49 342.089C411.49 341.57 411.578 341.126 411.753 340.756C411.931 340.385 412.174 340.102 412.483 339.905C412.792 339.706 413.142 339.607 413.534 339.607C413.836 339.607 414.081 339.657 414.267 339.759C414.453 339.858 414.598 339.975 414.702 340.108C414.808 340.241 414.889 340.359 414.946 340.46H415.016V339.67H415.946V344.653C415.946 345.072 415.848 345.416 415.654 345.684C415.459 345.953 415.196 346.152 414.864 346.281C414.534 346.41 414.161 346.475 413.746 346.475ZM413.737 343.685C414.01 343.685 414.24 343.621 414.429 343.494C414.619 343.365 414.763 343.181 414.86 342.942C414.96 342.701 415.01 342.412 415.01 342.076C415.01 341.748 414.961 341.459 414.864 341.209C414.766 340.96 414.623 340.765 414.435 340.625C414.247 340.484 414.014 340.413 413.737 340.413C413.451 340.413 413.213 340.487 413.023 340.635C412.832 340.781 412.689 340.98 412.591 341.232C412.496 341.483 412.448 341.765 412.448 342.076C412.448 342.395 412.497 342.676 412.594 342.917C412.692 343.158 412.836 343.346 413.026 343.482C413.219 343.617 413.456 343.685 413.737 343.685ZM420.871 340.86L420.011 341.013C419.975 340.903 419.918 340.798 419.84 340.698C419.764 340.599 419.66 340.518 419.529 340.454C419.398 340.391 419.234 340.359 419.037 340.359C418.768 340.359 418.544 340.419 418.364 340.54C418.184 340.658 418.094 340.812 418.094 341C418.094 341.163 418.155 341.294 418.275 341.393C418.396 341.493 418.591 341.574 418.859 341.638L419.634 341.816C420.082 341.919 420.416 342.079 420.636 342.295C420.856 342.511 420.967 342.791 420.967 343.136C420.967 343.428 420.882 343.688 420.713 343.917C420.545 344.143 420.312 344.321 420.011 344.45C419.713 344.579 419.367 344.643 418.973 344.643C418.428 344.643 417.982 344.527 417.637 344.294C417.292 344.059 417.081 343.726 417.003 343.295L417.92 343.155C417.977 343.394 418.094 343.575 418.272 343.698C418.45 343.818 418.681 343.878 418.967 343.878C419.278 343.878 419.527 343.814 419.713 343.685C419.899 343.554 419.992 343.394 419.992 343.206C419.992 343.053 419.935 342.925 419.821 342.822C419.709 342.718 419.536 342.64 419.304 342.587L418.478 342.406C418.023 342.302 417.687 342.137 417.469 341.911C417.253 341.684 417.145 341.398 417.145 341.051C417.145 340.763 417.226 340.511 417.387 340.295C417.547 340.08 417.77 339.911 418.053 339.791C418.337 339.668 418.661 339.607 419.027 339.607C419.554 339.607 419.969 339.721 420.271 339.949C420.574 340.176 420.774 340.479 420.871 340.86ZM426.428 344.643C425.957 344.643 425.55 344.536 425.21 344.323C424.871 344.107 424.611 343.81 424.429 343.431C424.247 343.052 424.156 342.619 424.156 342.13C424.156 341.635 424.249 341.198 424.435 340.819C424.622 340.438 424.884 340.141 425.222 339.927C425.561 339.714 425.96 339.607 426.419 339.607C426.789 339.607 427.119 339.675 427.409 339.813C427.699 339.948 427.933 340.139 428.11 340.384C428.29 340.63 428.397 340.916 428.431 341.244H427.507C427.457 341.016 427.34 340.819 427.158 340.654C426.978 340.489 426.737 340.406 426.435 340.406C426.17 340.406 425.939 340.476 425.74 340.616C425.543 340.753 425.39 340.95 425.28 341.206C425.169 341.46 425.114 341.761 425.114 342.108C425.114 342.463 425.168 342.77 425.276 343.028C425.384 343.286 425.537 343.486 425.733 343.628C425.932 343.769 426.166 343.84 426.435 343.84C426.615 343.84 426.777 343.808 426.923 343.742C427.072 343.674 427.195 343.578 427.295 343.453C427.396 343.328 427.467 343.178 427.507 343.003H428.431C428.397 343.318 428.294 343.599 428.123 343.847C427.952 344.094 427.722 344.289 427.434 344.431C427.149 344.572 426.813 344.643 426.428 344.643ZM431.499 344.643C431.042 344.643 430.643 344.539 430.303 344.329C429.962 344.12 429.698 343.827 429.509 343.45C429.321 343.073 429.227 342.633 429.227 342.13C429.227 341.624 429.321 341.182 429.509 340.803C429.698 340.424 429.962 340.13 430.303 339.921C430.643 339.711 431.042 339.607 431.499 339.607C431.956 339.607 432.355 339.711 432.696 339.921C433.036 340.13 433.301 340.424 433.489 340.803C433.677 341.182 433.771 341.624 433.771 342.13C433.771 342.633 433.677 343.073 433.489 343.45C433.301 343.827 433.036 344.12 432.696 344.329C432.355 344.539 431.956 344.643 431.499 344.643ZM431.502 343.847C431.798 343.847 432.044 343.768 432.239 343.612C432.433 343.455 432.577 343.247 432.67 342.987C432.765 342.726 432.813 342.44 432.813 342.127C432.813 341.816 432.765 341.53 432.67 341.27C432.577 341.007 432.433 340.797 432.239 340.638C432.044 340.479 431.798 340.4 431.502 340.4C431.204 340.4 430.956 340.479 430.76 340.638C430.565 340.797 430.42 341.007 430.325 341.27C430.232 341.53 430.185 341.816 430.185 342.127C430.185 342.44 430.232 342.726 430.325 342.987C430.42 343.247 430.565 343.455 430.76 343.612C430.956 343.768 431.204 343.847 431.502 343.847ZM436.655 344.64C436.262 344.64 435.911 344.54 435.602 344.339C435.295 344.136 435.054 343.847 434.878 343.472C434.705 343.096 434.618 342.644 434.618 342.117C434.618 341.59 434.706 341.14 434.881 340.765C435.059 340.391 435.302 340.104 435.611 339.905C435.92 339.706 436.27 339.607 436.662 339.607C436.964 339.607 437.208 339.657 437.392 339.759C437.578 339.858 437.722 339.975 437.823 340.108C437.927 340.241 438.007 340.359 438.065 340.46H438.122V338.045H439.071V344.545H438.144V343.786H438.065C438.007 343.89 437.925 344.009 437.817 344.142C437.711 344.275 437.565 344.392 437.379 344.491C437.193 344.59 436.952 344.64 436.655 344.64ZM436.865 343.831C437.138 343.831 437.368 343.759 437.557 343.615C437.747 343.469 437.891 343.267 437.988 343.009C438.088 342.751 438.138 342.45 438.138 342.108C438.138 341.769 438.089 341.473 437.992 341.219C437.894 340.965 437.751 340.767 437.563 340.625C437.375 340.484 437.142 340.413 436.865 340.413C436.579 340.413 436.341 340.487 436.151 340.635C435.96 340.783 435.817 340.985 435.719 341.241C435.624 341.497 435.576 341.786 435.576 342.108C435.576 342.433 435.625 342.726 435.722 342.987C435.82 343.247 435.964 343.453 436.154 343.606C436.347 343.756 436.584 343.831 436.865 343.831ZM442.526 344.643C442.046 344.643 441.632 344.541 441.285 344.335C440.94 344.128 440.674 343.837 440.485 343.463C440.299 343.086 440.206 342.645 440.206 342.139C440.206 341.64 440.299 341.2 440.485 340.819C440.674 340.438 440.936 340.141 441.272 339.927C441.611 339.714 442.007 339.607 442.459 339.607C442.734 339.607 443.001 339.652 443.259 339.743C443.517 339.834 443.749 339.977 443.954 340.172C444.159 340.366 444.321 340.619 444.44 340.93C444.558 341.239 444.617 341.615 444.617 342.057V342.393H440.742V341.682H443.687C443.687 341.433 443.637 341.212 443.535 341.019C443.434 340.824 443.291 340.671 443.107 340.559C442.925 340.447 442.711 340.391 442.466 340.391C442.199 340.391 441.966 340.456 441.767 340.587C441.571 340.716 441.418 340.886 441.31 341.095C441.205 341.303 441.152 341.528 441.152 341.771V342.327C441.152 342.652 441.209 342.93 441.323 343.158C441.439 343.387 441.601 343.561 441.809 343.682C442.016 343.8 442.258 343.859 442.535 343.859C442.715 343.859 442.879 343.834 443.027 343.783C443.175 343.73 443.303 343.652 443.411 343.548C443.519 343.445 443.602 343.317 443.659 343.164L444.557 343.326C444.485 343.591 444.356 343.822 444.17 344.021C443.986 344.218 443.754 344.371 443.475 344.481C443.198 344.589 442.881 344.643 442.526 344.643Z" fill="#6B7280"/>
<path d="M512.542 344.545V338.045H516.617V338.889H513.522V340.87H516.404V341.711H513.522V343.701H516.655V344.545H512.542ZM523.173 338.045V344.545H522.271L518.968 339.778H518.907V344.545H517.927V338.045H518.834L522.141 342.818H522.202V338.045H523.173ZM524.283 338.889V338.045H529.313V338.889H527.285V344.545H526.308V338.889H524.283ZM530.425 344.545V338.045H534.5V338.889H531.405V340.87H534.287V341.711H531.405V343.701H534.538V344.545H530.425ZM535.809 344.545V338.045H538.126C538.63 338.045 539.048 338.132 539.38 338.306C539.714 338.479 539.964 338.719 540.129 339.026C540.294 339.331 540.376 339.683 540.376 340.083C540.376 340.481 540.293 340.831 540.126 341.133C539.961 341.434 539.711 341.667 539.377 341.835C539.044 342.002 538.627 342.085 538.123 342.085H536.368V341.241H538.034C538.352 341.241 538.61 341.196 538.809 341.105C539.01 341.014 539.157 340.881 539.25 340.708C539.343 340.534 539.389 340.326 539.389 340.083C539.389 339.837 539.342 339.625 539.247 339.445C539.153 339.265 539.006 339.127 538.805 339.032C538.607 338.935 538.345 338.886 538.021 338.886H536.79V344.545H535.809ZM539.018 341.612L540.624 344.545H539.507L537.933 341.612H539.018Z" fill="#10B981"/>
<rect x="366.394" y="365.817" width="191.424" height="28.4293" rx="5.3622" fill="#4B5563"/>
<rect x="416.62" y="375.293" width="121.298" height="10.4241" rx="5.21204" fill="#9CA3AF"/>
<path d="M389.348 383.484C388.98 383.484 386.769 383.484 386.4 383.484C386.032 383.484 385.663 383.112 385.663 382.739C385.663 382.367 386.032 381.995 386.4 381.995C386.769 381.995 388.98 381.995 389.348 381.995C389.717 381.995 390.085 382.367 390.085 382.739C390.085 383.112 389.717 383.484 389.348 383.484Z" fill="white"/>
<path fill-rule="evenodd" clip-rule="evenodd" d="M396.719 378.272C396.719 376.627 395.399 375.293 393.771 375.293H386.4C384.772 375.293 383.452 376.627 383.452 378.272V382.739C383.452 384.384 384.772 385.718 386.4 385.718H393.771C395.399 385.718 396.719 384.384 396.719 382.739V378.272ZM395.245 379.761H384.926V382.441C384.926 383.284 384.926 383.705 385.188 383.967C385.45 384.228 385.871 384.228 386.713 384.228H393.457C394.3 384.228 394.721 384.228 394.983 383.967C395.245 383.705 395.245 383.284 395.245 382.441V379.761ZM389.348 383.484H386.4C386.032 383.484 385.663 383.112 385.663 382.739C385.663 382.367 386.032 381.995 386.4 381.995H389.348C389.717 381.995 390.085 382.367 390.085 382.739C390.085 383.112 389.717 383.484 389.348 383.484ZM395.245 378.272H384.926C384.926 377.715 384.926 377.437 385.046 377.23C385.124 377.094 385.237 376.981 385.373 376.902C385.58 376.783 385.859 376.783 386.415 376.783H393.756C394.312 376.783 394.59 376.783 394.798 376.902C394.934 376.981 395.047 377.094 395.125 377.23C395.245 377.437 395.245 377.715 395.245 378.272Z" fill="white"/>
<rect x="370.185" y="217.037" width="121.298" height="14.2147" rx="5.3622" fill="#4B5563"/>
<rect x="370.185" y="242.624" width="121.298" height="11.3717" rx="5.3622" fill="#E5E7EB"/>
<rect x="370.185" y="259.682" width="121.298" height="11.3717" rx="5.3622" fill="#E5E7EB"/>
<rect x="370.185" y="276.739" width="43.5916" height="11.3717" rx="5.3622" fill="#E5E7EB"/>
<rect x="514.227" y="276.739" width="38.8534" height="11.3717" rx="5.3622" fill="#E5E7EB"/>
<rect x="531.284" y="259.682" width="21.7958" height="11.3717" rx="5.3622" fill="#10B981"/>
<rect x="531.284" y="242.624" width="21.7958" height="11.3717" rx="5.3622" fill="#E5E7EB"/>
</g>
<defs>
<filter id="filter0_i_1327_164" x="0.244629" y="0.09375" width="650" height="482" filterUnits="userSpaceOnUse" color-interpolation-filters="sRGB">
<feFlood flood-opacity="0" result="BackgroundImageFix"/>
<feBlend mode="normal" in="SourceGraphic" in2="BackgroundImageFix" result="shape"/>
<feColorMatrix in="SourceAlpha" type="matrix" values="0 0 0 0 0 0 0 0 0 0 0 0 0 0 0 0 0 0 127 0" result="hardAlpha"/>
<feOffset dy="2"/>
<feGaussianBlur stdDeviation="2"/>
<feComposite in2="hardAlpha" operator="arithmetic" k2="-1" k3="1"/>
<feColorMatrix type="matrix" values="0 0 0 0 0 0 0 0 0 0 0 0 0 0 0 0 0 0 0.06 0"/>
<feBlend mode="normal" in2="shape" result="effect1_innerShadow_1327_164"/>
</filter>
<filter id="filter1_dd_1327_164" x="45.7979" y="66.9521" width="465.256" height="320.754" filterUnits="userSpaceOnUse" color-interpolation-filters="sRGB">
<feFlood flood-opacity="0" result="BackgroundImageFix"/>
<feColorMatrix in="SourceAlpha" type="matrix" values="0 0 0 0 0 0 0 0 0 0 0 0 0 0 0 0 0 0 127 0" result="hardAlpha"/>
<feMorphology radius="2" operator="erode" in="SourceAlpha" result="effect1_dropShadow_1327_164"/>
<feOffset dy="4"/>
<feGaussianBlur stdDeviation="3"/>
<feColorMatrix type="matrix" values="0 0 0 0 0 0 0 0 0 0 0 0 0 0 0 0 0 0 0.05 0"/>
<feBlend mode="normal" in2="BackgroundImageFix" result="effect1_dropShadow_1327_164"/>
<feColorMatrix in="SourceAlpha" type="matrix" values="0 0 0 0 0 0 0 0 0 0 0 0 0 0 0 0 0 0 127 0" result="hardAlpha"/>
<feMorphology radius="3" operator="erode" in="SourceAlpha" result="effect2_dropShadow_1327_164"/>
<feOffset dy="10"/>
<feGaussianBlur stdDeviation="7.5"/>
<feColorMatrix type="matrix" values="0 0 0 0 0 0 0 0 0 0 0 0 0 0 0 0 0 0 0.1 0"/>
<feBlend mode="normal" in2="effect1_dropShadow_1327_164" result="effect2_dropShadow_1327_164"/>
<feBlend mode="normal" in="SourceGraphic" in2="effect2_dropShadow_1327_164" result="shape"/>
</filter>
<filter id="filter2_d_1327_164" x="55.5446" y="44.5926" width="445.31" height="33.421" filterUnits="userSpaceOnUse" color-interpolation-filters="sRGB">
<feFlood flood-opacity="0" result="BackgroundImageFix"/>
<feColorMatrix in="SourceAlpha" type="matrix" values="0 0 0 0 0 0 0 0 0 0 0 0 0 0 0 0 0 0 127 0" result="hardAlpha"/>
<feOffset dy="0.893701"/>
<feGaussianBlur stdDeviation="0.893701"/>
<feColorMatrix type="matrix" values="0 0 0 0 0 0 0 0 0 0 0 0 0 0 0 0 0 0 0.05 0"/>
<feBlend mode="normal" in2="BackgroundImageFix" result="effect1_dropShadow_1327_164"/>
<feBlend mode="normal" in="SourceGraphic" in2="effect1_dropShadow_1327_164" result="shape"/>
</filter>
<filter id="filter3_dd_1327_164" x="319.86" y="189.556" width="282.597" height="276.911" filterUnits="userSpaceOnUse" color-interpolation-filters="sRGB">
<feFlood flood-opacity="0" result="BackgroundImageFix"/>
<feColorMatrix in="SourceAlpha" type="matrix" values="0 0 0 0 0 0 0 0 0 0 0 0 0 0 0 0 0 0 127 0" result="hardAlpha"/>
<feMorphology radius="5" operator="erode" in="SourceAlpha" result="effect1_dropShadow_1327_164"/>
<feOffset dy="10"/>
<feGaussianBlur stdDeviation="5"/>
<feColorMatrix type="matrix" values="0 0 0 0 0 0 0 0 0 0 0 0 0 0 0 0 0 0 0.04 0"/>
<feBlend mode="normal" in2="BackgroundImageFix" result="effect1_dropShadow_1327_164"/>
<feColorMatrix in="SourceAlpha" type="matrix" values="0 0 0 0 0 0 0 0 0 0 0 0 0 0 0 0 0 0 127 0" result="hardAlpha"/>
<feMorphology radius="5" operator="erode" in="SourceAlpha" result="effect2_dropShadow_1327_164"/>
<feOffset dy="20"/>
<feGaussianBlur stdDeviation="12.5"/>
<feColorMatrix type="matrix" values="0 0 0 0 0 0 0 0 0 0 0 0 0 0 0 0 0 0 0.1 0"/>
<feBlend mode="normal" in2="effect1_dropShadow_1327_164" result="effect2_dropShadow_1327_164"/>
<feBlend mode="normal" in="SourceGraphic" in2="effect2_dropShadow_1327_164" result="shape"/>
</filter>
</defs>
</svg>
