<svg xmlns="http://www.w3.org/2000/svg" width="55" height="34" viewBox="0 0 55 34" fill="none">
  <path d="M33.0828 11.0721C33.0828 11.3373 32.9774 11.5917 32.7899 11.7792L11.3205 33.2486C11.1329 33.4361 10.8786 33.5415 10.6133 33.5415L0.999966 33.5415C0.447678 33.5415 -3.81372e-05 33.0938 -3.81251e-05 32.5415L-3.7915e-05 22.9281C-3.79092e-05 22.6629 0.10532 22.4085 0.292855 22.221L21.7623 0.751598C21.9498 0.56406 22.2042 0.458702 22.4694 0.458702L32.0828 0.458702C32.635 0.458702 33.0828 0.906418 33.0828 1.4587L33.0828 11.0721Z" fill="#1F2937"/>
  <path d="M54.8232 11.0721C54.8232 11.3373 54.7179 11.5917 54.5303 11.7792L33.0609 33.2486C32.8734 33.4361 32.619 33.5415 32.3538 33.5415L22.7404 33.5415C22.1882 33.5415 21.7404 33.0938 21.7404 32.5415L21.7404 22.9281C21.7404 22.6629 21.8458 22.4085 22.0333 22.221L43.5027 0.751598C43.6903 0.56406 43.9446 0.458702 44.2099 0.458702L53.8232 0.458702C54.3755 0.458702 54.8232 0.906418 54.8232 1.4587L54.8232 11.0721Z" fill="#1F2937"/>
  <path d="M54.6946 32.2749C54.6946 32.8272 54.2469 33.2749 53.6946 33.2749L41.7943 33.2749C40.9034 33.2749 40.4573 32.1978 41.0872 31.5678L52.9875 19.6675C53.6174 19.0376 54.6946 19.4837 54.6946 20.3747L54.6946 32.2749Z" fill="#8B5CF6"/>
</svg>