<svg width="467" height="378" viewBox="0 0 467 378" fill="none" xmlns="http://www.w3.org/2000/svg">
<g opacity="0.6" filter="url(#filter0_f_2809_1477)">
<path d="M150.578 228C150.578 217.757 152.725 207.614 156.896 198.151C161.067 188.687 167.181 180.089 174.888 172.846C182.596 165.603 191.745 159.857 201.815 155.937C211.885 152.018 222.678 150 233.578 150C244.478 150 255.271 152.018 265.341 155.937C275.411 159.857 284.561 165.603 292.268 172.846C299.975 180.089 306.089 188.687 310.26 198.151C314.431 207.614 316.578 217.757 316.578 228L233.578 228L150.578 228Z" fill="#9FFFE8"/>
</g>
<circle cx="233.578" cy="228" r="52" fill="#10B981"/>
<g filter="url(#filter1_dd_2809_1477)">
<rect x="174.578" y="171" width="115" height="114" rx="57" fill="#ECFDF5"/>
<path d="M215.8 209.614C217.47 209.625 219.095 209.92 220.675 210.5C222.266 211.068 223.697 212 224.97 213.295C226.243 214.58 227.254 216.301 228.004 218.46C228.754 220.619 229.129 223.29 229.129 226.472C229.141 229.472 228.822 232.153 228.175 234.517C227.538 236.869 226.624 238.858 225.43 240.483C224.237 242.108 222.8 243.347 221.118 244.199C219.436 245.051 217.544 245.477 215.442 245.477C213.237 245.477 211.283 245.045 209.578 244.182C207.885 243.318 206.516 242.136 205.47 240.636C204.425 239.136 203.783 237.42 203.544 235.489H209.766C210.084 236.875 210.732 237.977 211.709 238.795C212.697 239.602 213.942 240.006 215.442 240.006C217.862 240.006 219.726 238.955 221.033 236.852C222.339 234.75 222.993 231.83 222.993 228.091H222.754C222.197 229.091 221.476 229.955 220.589 230.682C219.703 231.398 218.697 231.949 217.572 232.335C216.459 232.722 215.277 232.915 214.027 232.915C211.982 232.915 210.141 232.426 208.504 231.449C206.879 230.472 205.589 229.131 204.635 227.426C203.692 225.722 203.214 223.773 203.203 221.58C203.203 219.307 203.726 217.267 204.771 215.46C205.828 213.642 207.3 212.21 209.186 211.165C211.072 210.108 213.277 209.591 215.8 209.614ZM215.817 214.727C214.589 214.727 213.482 215.028 212.493 215.631C211.516 216.222 210.743 217.028 210.175 218.051C209.618 219.062 209.339 220.193 209.339 221.443C209.351 222.682 209.629 223.807 210.175 224.818C210.732 225.83 211.487 226.631 212.442 227.222C213.408 227.812 214.51 228.108 215.749 228.108C216.669 228.108 217.527 227.932 218.322 227.58C219.118 227.227 219.811 226.739 220.402 226.114C221.004 225.477 221.47 224.756 221.8 223.949C222.141 223.142 222.305 222.29 222.294 221.392C222.294 220.199 222.01 219.097 221.442 218.085C220.885 217.074 220.118 216.261 219.141 215.648C218.175 215.034 217.067 214.727 215.817 214.727ZM247.214 245.477C244.68 245.477 242.43 245.051 240.464 244.199C238.51 243.347 236.976 242.182 235.862 240.705C234.76 239.216 234.214 237.528 234.226 235.642C234.214 234.176 234.533 232.83 235.18 231.602C235.828 230.375 236.703 229.352 237.805 228.534C238.919 227.705 240.158 227.176 241.521 226.949V226.71C239.726 226.312 238.271 225.398 237.158 223.966C236.055 222.523 235.51 220.858 235.521 218.972C235.51 217.176 236.01 215.574 237.021 214.165C238.033 212.756 239.419 211.648 241.18 210.841C242.942 210.023 244.953 209.614 247.214 209.614C249.453 209.614 251.447 210.023 253.197 210.841C254.959 211.648 256.345 212.756 257.357 214.165C258.379 215.574 258.891 217.176 258.891 218.972C258.891 220.858 258.328 222.523 257.203 223.966C256.089 225.398 254.652 226.312 252.891 226.71V226.949C254.254 227.176 255.482 227.705 256.572 228.534C257.675 229.352 258.55 230.375 259.197 231.602C259.857 232.83 260.186 234.176 260.186 235.642C260.186 237.528 259.629 239.216 258.516 240.705C257.402 242.182 255.868 243.347 253.913 244.199C251.97 245.051 249.737 245.477 247.214 245.477ZM247.214 240.602C248.521 240.602 249.658 240.381 250.624 239.938C251.589 239.483 252.339 238.847 252.874 238.028C253.408 237.21 253.68 236.267 253.692 235.199C253.68 234.085 253.391 233.102 252.822 232.25C252.266 231.386 251.499 230.71 250.521 230.222C249.555 229.733 248.453 229.489 247.214 229.489C245.964 229.489 244.851 229.733 243.874 230.222C242.896 230.71 242.124 231.386 241.555 232.25C240.999 233.102 240.726 234.085 240.737 235.199C240.726 236.267 240.987 237.21 241.521 238.028C242.055 238.835 242.805 239.466 243.771 239.92C244.749 240.375 245.896 240.602 247.214 240.602ZM247.214 224.699C248.283 224.699 249.226 224.483 250.044 224.051C250.874 223.619 251.527 223.017 252.004 222.244C252.482 221.472 252.726 220.58 252.737 219.568C252.726 218.568 252.487 217.693 252.021 216.943C251.555 216.182 250.908 215.597 250.078 215.188C249.249 214.767 248.294 214.557 247.214 214.557C246.112 214.557 245.141 214.767 244.3 215.188C243.47 215.597 242.822 216.182 242.357 216.943C241.902 217.693 241.68 218.568 241.692 219.568C241.68 220.58 241.908 221.472 242.374 222.244C242.851 223.006 243.504 223.608 244.334 224.051C245.175 224.483 246.135 224.699 247.214 224.699Z" fill="#10B981"/>
<rect x="169.578" y="166" width="125" height="124" rx="62" stroke="white" stroke-width="10"/>
</g>
<mask id="path-6-inside-1_2809_1477" fill="white">
<path d="M232.578 172.517C232.578 170.575 234.155 168.989 236.094 169.105C250.136 169.942 263.462 175.777 273.623 185.617C284.628 196.274 291.056 210.795 291.548 226.107C292.039 241.419 286.556 256.321 276.257 267.663C265.958 279.005 251.651 285.896 236.363 286.878C221.075 287.861 206.004 282.859 194.337 272.929C182.671 263 175.324 248.921 173.851 233.673C172.379 218.424 176.895 203.2 186.445 191.221C195.262 180.161 207.732 172.668 221.551 170.04C223.459 169.677 225.225 171.047 225.474 172.974C225.723 174.9 224.359 176.652 222.454 177.03C210.446 179.415 199.623 185.975 191.945 195.606C183.534 206.156 179.556 219.565 180.853 232.996C182.15 246.427 188.621 258.827 198.896 267.573C209.172 276.318 222.446 280.724 235.912 279.859C249.377 278.993 261.978 272.924 271.049 262.934C280.12 252.945 284.95 239.819 284.517 226.332C284.084 212.846 278.422 200.057 268.729 190.67C259.881 182.101 248.307 176.981 236.093 176.153C234.155 176.022 232.578 174.46 232.578 172.517Z"/>
</mask>
<path d="M232.578 172.517C232.578 170.575 234.155 168.989 236.094 169.105C250.136 169.942 263.462 175.777 273.623 185.617C284.628 196.274 291.056 210.795 291.548 226.107C292.039 241.419 286.556 256.321 276.257 267.663C265.958 279.005 251.651 285.896 236.363 286.878C221.075 287.861 206.004 282.859 194.337 272.929C182.671 263 175.324 248.921 173.851 233.673C172.379 218.424 176.895 203.2 186.445 191.221C195.262 180.161 207.732 172.668 221.551 170.04C223.459 169.677 225.225 171.047 225.474 172.974C225.723 174.9 224.359 176.652 222.454 177.03C210.446 179.415 199.623 185.975 191.945 195.606C183.534 206.156 179.556 219.565 180.853 232.996C182.15 246.427 188.621 258.827 198.896 267.573C209.172 276.318 222.446 280.724 235.912 279.859C249.377 278.993 261.978 272.924 271.049 262.934C280.12 252.945 284.95 239.819 284.517 226.332C284.084 212.846 278.422 200.057 268.729 190.67C259.881 182.101 248.307 176.981 236.093 176.153C234.155 176.022 232.578 174.46 232.578 172.517Z" stroke="#34D399" stroke-width="12" stroke-miterlimit="16" mask="url(#path-6-inside-1_2809_1477)"/>
<defs>
<filter id="filter0_f_2809_1477" x="0.578125" y="0" width="466" height="378" filterUnits="userSpaceOnUse" color-interpolation-filters="sRGB">
<feFlood flood-opacity="0" result="BackgroundImageFix"/>
<feBlend mode="normal" in="SourceGraphic" in2="BackgroundImageFix" result="shape"/>
<feGaussianBlur stdDeviation="75" result="effect1_foregroundBlur_2809_1477"/>
</filter>
<filter id="filter1_dd_2809_1477" x="161.578" y="159" width="141" height="140" filterUnits="userSpaceOnUse" color-interpolation-filters="sRGB">
<feFlood flood-opacity="0" result="BackgroundImageFix"/>
<feColorMatrix in="SourceAlpha" type="matrix" values="0 0 0 0 0 0 0 0 0 0 0 0 0 0 0 0 0 0 127 0" result="hardAlpha"/>
<feOffset dy="1"/>
<feGaussianBlur stdDeviation="1"/>
<feColorMatrix type="matrix" values="0 0 0 0 0 0 0 0 0 0 0 0 0 0 0 0 0 0 0.06 0"/>
<feBlend mode="normal" in2="BackgroundImageFix" result="effect1_dropShadow_2809_1477"/>
<feColorMatrix in="SourceAlpha" type="matrix" values="0 0 0 0 0 0 0 0 0 0 0 0 0 0 0 0 0 0 127 0" result="hardAlpha"/>
<feOffset dy="1"/>
<feGaussianBlur stdDeviation="1.5"/>
<feColorMatrix type="matrix" values="0 0 0 0 0 0 0 0 0 0 0 0 0 0 0 0 0 0 0.1 0"/>
<feBlend mode="normal" in2="effect1_dropShadow_2809_1477" result="effect2_dropShadow_2809_1477"/>
<feBlend mode="normal" in="SourceGraphic" in2="effect2_dropShadow_2809_1477" result="shape"/>
</filter>
</defs>
</svg>
