<svg width="64" height="64" viewBox="0 0 64 64" fill="none" xmlns="http://www.w3.org/2000/svg">
    <rect x="4.92285" y="2.46191" width="54.1538" height="59.0769" rx="27.0769" fill="#F9FAFB" />
    <path d="M24.5254 23.1678C25.2963 23.1731 26.0463 23.3094 26.7754 23.5769C27.5096 23.8392 28.1705 24.2692 28.7579 24.8671C29.3453 25.4598 29.8121 26.2544 30.1582 27.2509C30.5044 28.2474 30.6774 29.4799 30.6774 30.9484C30.6827 32.333 30.5358 33.5708 30.2369 34.6617C29.9432 35.7474 29.521 36.6652 28.9703 37.4152C28.4196 38.1652 27.7561 38.7369 26.9799 39.1302C26.2037 39.5236 25.3304 39.7203 24.3601 39.7203C23.3427 39.7203 22.4406 39.521 21.6538 39.1224C20.8724 38.7238 20.2404 38.1783 19.7579 37.486C19.2753 36.7937 18.979 36.0017 18.8689 35.1101H21.7404C21.8872 35.75 22.1862 36.2587 22.6372 36.6364C23.0935 37.0087 23.6678 37.1949 24.3601 37.1949C25.4773 37.1949 26.3374 36.7098 26.9406 35.7395C27.5437 34.7692 27.8453 33.4213 27.8453 31.6958H27.7351C27.4781 32.1573 27.1451 32.5559 26.736 32.8916C26.3269 33.222 25.8628 33.4764 25.3435 33.6547C24.8295 33.833 24.2841 33.9222 23.7072 33.9222C22.7631 33.9222 21.9135 33.6967 21.1582 33.2456C20.4082 32.7946 19.8129 32.1757 19.3724 31.389C18.9371 30.6023 18.7168 29.7028 18.7115 28.6906C18.7115 27.6416 18.9528 26.7002 19.4353 25.8663C19.9231 25.0271 20.6023 24.3663 21.4729 23.8837C22.3435 23.396 23.361 23.1573 24.5254 23.1678ZM24.5332 25.528C23.9668 25.528 23.4554 25.667 22.9991 25.9449C22.5481 26.2177 22.1914 26.59 21.9292 27.0621C21.6722 27.5288 21.5437 28.0507 21.5437 28.6276C21.549 29.1993 21.6774 29.7185 21.9292 30.1853C22.1862 30.6521 22.535 31.0219 22.9755 31.2946C23.4213 31.5673 23.9301 31.7037 24.5017 31.7037C24.9266 31.7037 25.3226 31.6224 25.6897 31.4598C26.0568 31.2972 26.3767 31.0717 26.6495 30.7832C26.9274 30.4895 27.1425 30.1565 27.2946 29.7841C27.4519 29.4117 27.528 29.0184 27.5227 28.604C27.5227 28.0533 27.3916 27.5446 27.1294 27.0778C26.8724 26.611 26.5184 26.236 26.0673 25.9528C25.6215 25.6696 25.1101 25.528 24.5332 25.528ZM33.2972 39.5V37.3916L38.8907 31.9082C39.4257 31.368 39.8715 30.8881 40.2281 30.4685C40.5848 30.049 40.8523 29.6425 41.0306 29.2491C41.2089 28.8558 41.2981 28.4362 41.2981 27.9904C41.2981 27.4816 41.1827 27.0463 40.9519 26.6844C40.7212 26.3173 40.4038 26.0341 40 25.8348C39.5962 25.6355 39.1372 25.5358 38.6233 25.5358C38.0935 25.5358 37.6294 25.646 37.2308 25.8663C36.8322 26.0813 36.5227 26.3881 36.3024 26.7867C36.0874 27.1853 35.9799 27.66 35.9799 28.2107H33.2028C33.2028 27.1879 33.4362 26.299 33.903 25.5437C34.3698 24.7885 35.0122 24.2037 35.8304 23.7893C36.6538 23.375 37.5979 23.1678 38.6626 23.1678C39.743 23.1678 40.6923 23.3698 41.5105 23.7736C42.3287 24.1774 42.9633 24.7308 43.4143 25.4336C43.8706 26.1364 44.0988 26.9388 44.0988 27.8409C44.0988 28.4441 43.9834 29.0367 43.7526 29.6189C43.5219 30.201 43.1154 30.8462 42.5332 31.5542C41.9563 32.2622 41.146 33.1198 40.1023 34.1267L37.3252 36.951V37.0612H44.3427V39.5H33.2972Z" fill="#10B981" />
    <mask id="path-3-inside-1_2582_21381" fill="white">
        <path d="M32 1.9076C32 0.854061 32.855 -0.00592749 33.9067 0.0568179C41.0112 0.480695 47.7928 3.26398 53.1592 7.99403C59.004 13.1457 62.7685 20.2527 63.7468 27.9821C64.725 35.7115 62.8498 43.5323 58.4727 49.9776C54.0957 56.4229 47.5176 61.05 39.9722 62.991C32.4268 64.932 24.4325 64.0536 17.4886 60.5205C10.5447 56.9874 5.12827 51.0423 2.25523 43.8004C-0.617813 36.5584 -0.750105 28.517 1.88316 21.1844C4.30093 14.452 8.89762 8.7417 14.9157 4.94211C15.8066 4.37966 16.9704 4.72032 17.4788 5.64308V5.64308C17.9872 6.56584 17.6471 7.7206 16.7609 8.29021C11.5544 11.6364 7.5776 16.6158 5.47384 22.4739C3.15453 28.9323 3.27104 36.0149 5.80155 42.3935C8.33205 48.772 13.1027 54.0083 19.2187 57.1201C25.3347 60.232 32.3759 61.0057 39.0217 59.2961C45.6675 57.5865 51.4614 53.5111 55.3165 47.8342C59.1717 42.1573 60.8234 35.269 59.9617 28.4611C59.1001 21.6533 55.7844 15.3936 50.6365 10.8561C45.9671 6.7404 40.0811 4.29812 33.9062 3.8797C32.8551 3.80847 32 2.96114 32 1.9076V1.9076Z" />
    </mask>
    <path d="M32 1.9076C32 0.854061 32.855 -0.00592749 33.9067 0.0568179C41.0112 0.480695 47.7928 3.26398 53.1592 7.99403C59.004 13.1457 62.7685 20.2527 63.7468 27.9821C64.725 35.7115 62.8498 43.5323 58.4727 49.9776C54.0957 56.4229 47.5176 61.05 39.9722 62.991C32.4268 64.932 24.4325 64.0536 17.4886 60.5205C10.5447 56.9874 5.12827 51.0423 2.25523 43.8004C-0.617813 36.5584 -0.750105 28.517 1.88316 21.1844C4.30093 14.452 8.89762 8.7417 14.9157 4.94211C15.8066 4.37966 16.9704 4.72032 17.4788 5.64308V5.64308C17.9872 6.56584 17.6471 7.7206 16.7609 8.29021C11.5544 11.6364 7.5776 16.6158 5.47384 22.4739C3.15453 28.9323 3.27104 36.0149 5.80155 42.3935C8.33205 48.772 13.1027 54.0083 19.2187 57.1201C25.3347 60.232 32.3759 61.0057 39.0217 59.2961C45.6675 57.5865 51.4614 53.5111 55.3165 47.8342C59.1717 42.1573 60.8234 35.269 59.9617 28.4611C59.1001 21.6533 55.7844 15.3936 50.6365 10.8561C45.9671 6.7404 40.0811 4.29812 33.9062 3.8797C32.8551 3.80847 32 2.96114 32 1.9076V1.9076Z" stroke="#34D399" stroke-width="7.38462" stroke-miterlimit="16" mask="url(#path-3-inside-1_2582_21381)" />
</svg>