<svg width="1248" height="972" viewBox="0 0 1248 972" fill="none" xmlns="http://www.w3.org/2000/svg">
<mask id="mask0_2452_52845" style="mask-type:alpha" maskUnits="userSpaceOnUse" x="-1" y="0" width="1250" height="972">
<line x1="0.5" y1="1.10327e-07" x2="0.49979" y2="970.666" stroke="white"/>
<line x1="69.833" y1="1.10327e-07" x2="69.8328" y2="970.666" stroke="white"/>
<line x1="139.167" y1="1.10327e-07" x2="139.167" y2="970.666" stroke="white"/>
<line x1="208.5" y1="1.10327e-07" x2="208.5" y2="970.666" stroke="white"/>
<line x1="277.833" y1="1.10327e-07" x2="277.833" y2="970.666" stroke="white"/>
<line x1="347.167" y1="1.10327e-07" x2="347.167" y2="970.666" stroke="white"/>
<line x1="416.5" y1="1.10327e-07" x2="416.5" y2="970.666" stroke="white"/>
<line x1="485.833" y1="1.10327e-07" x2="485.833" y2="970.666" stroke="white"/>
<line x1="555.167" y1="1.10327e-07" x2="555.167" y2="970.666" stroke="white"/>
<line x1="624.5" y1="1.10327e-07" x2="624.5" y2="970.666" stroke="white"/>
<line x1="693.833" y1="1.10327e-07" x2="693.833" y2="970.666" stroke="white"/>
<line x1="763.166" y1="1.10327e-07" x2="763.166" y2="970.666" stroke="white"/>
<line x1="832.5" y1="1.10327e-07" x2="832.5" y2="970.666" stroke="white"/>
<line x1="901.833" y1="1.10327e-07" x2="901.833" y2="970.666" stroke="white"/>
<line x1="971.166" y1="1.10327e-07" x2="971.166" y2="970.666" stroke="white"/>
<line x1="1040.5" y1="1.10327e-07" x2="1040.5" y2="970.666" stroke="white"/>
<line x1="1109.83" y1="1.10327e-07" x2="1109.83" y2="970.666" stroke="white"/>
<line x1="1179.17" y1="1.10327e-07" x2="1179.17" y2="970.666" stroke="white"/>
<line x1="1248.5" y1="44.417" x2="1248.5" y2="925.167" stroke="white"/>
<line x1="1248" y1="0.5" x2="-0.000488431" y2="0.499705" stroke="white"/>
<line x1="1248" y1="69.834" x2="-0.000488431" y2="69.8337" stroke="white"/>
<line x1="1248" y1="139.167" x2="-0.000488431" y2="139.167" stroke="white"/>
<line x1="1248" y1="208.5" x2="-0.000488431" y2="208.5" stroke="white"/>
<line x1="1248" y1="277.833" x2="0.000488132" y2="277.833" stroke="white"/>
<line x1="1248" y1="347.167" x2="0.000488132" y2="347.167" stroke="white"/>
<line x1="1248" y1="416.5" x2="-0.000488431" y2="416.5" stroke="white"/>
<line x1="1248" y1="485.834" x2="0.000488132" y2="485.834" stroke="white"/>
<line x1="1248" y1="555.166" x2="0.000488132" y2="555.166" stroke="white"/>
<line x1="1248" y1="624.5" x2="0.000488132" y2="624.5" stroke="white"/>
<line x1="1248" y1="693.833" x2="0.000488132" y2="693.833" stroke="white"/>
<line x1="1248" y1="763.167" x2="-0.000488431" y2="763.167" stroke="white"/>
<line x1="1248" y1="832.5" x2="-0.000488431" y2="832.5" stroke="white"/>
<line x1="1248" y1="901.833" x2="-0.000488431" y2="901.833" stroke="white"/>
<line x1="1248" y1="971.167" x2="-0.000488431" y2="971.167" stroke="white"/>
</mask>
<g mask="url(#mask0_2452_52845)">
<path d="M1127.5 579.278C1127.5 839.38 905.011 1050.28 630.5 1050.28C355.989 1050.28 133.5 839.379 133.5 579.278C133.5 319.177 355.989 108.278 630.5 108.278C905.011 108.278 1127.5 319.177 1127.5 579.278Z" fill="url(#paint0_radial_2452_52845)" stroke="white"/>
</g>
<defs>
<radialGradient id="paint0_radial_2452_52845" cx="0" cy="0" r="1" gradientUnits="userSpaceOnUse" gradientTransform="translate(631 544) rotate(90) scale(616 649.968)">
<stop stop-color="#F4F4F4"/>
<stop offset="0.72182" stop-color="#898989" stop-opacity="0"/>
</radialGradient>
</defs>
</svg>
