<svg  viewBox="0 0 1323 1191" fill="none" xmlns="http://www.w3.org/2000/svg">
    <g style="mix-blend-mode:color-burn">
        <path d="M16.0018 405.295C-1.55326 394.946 -5.09099 371.043 8.71369 356.052L626.378 -314.673C635.835 -324.943 650.86 -327.896 663.501 -321.97L1843.59 231.291C1860.11 239.037 1866.82 259.008 1858.33 275.159L1385.75 1173.86C1377.24 1190.04 1356.92 1195.81 1341.17 1186.53L16.0018 405.295Z" fill="url(#paint0_linear_2112_1798)" fill-opacity="0.6"/>
        <path d="M16.0018 405.295C-1.55326 394.946 -5.09099 371.043 8.71369 356.052L626.378 -314.673C635.835 -324.943 650.86 -327.896 663.501 -321.97L1843.59 231.291C1860.11 239.037 1866.82 259.008 1858.33 275.159L1385.75 1173.86C1377.24 1190.04 1356.92 1195.81 1341.17 1186.53L16.0018 405.295Z" fill="url(#paint1_linear_2112_1798)"/>
    </g>
    <defs>
        <linearGradient id="paint0_linear_2112_1798" x1="468.888" y1="-73.4912" x2="1455.19" y2="690.381" gradientUnits="userSpaceOnUse">
            <stop stop-color="#DED9FC"/>
            <stop offset="0.136573" stop-color="#725CF6"/>
            <stop offset="0.244792" stop-color="#5854FD"/>
            <stop offset="0.369792" stop-color="#FFC368" stop-opacity="0.75"/>
            <stop offset="0.4375" stop-color="#EF9AF3" stop-opacity="0.79"/>
            <stop offset="0.530697" stop-color="#7C79FE"/>
            <stop offset="0.694752" stop-color="#5854FD"/>
            <stop offset="0.942708" stop-color="#9C4FFF"/>
            <stop offset="1" stop-color="#E1D5FF"/>
        </linearGradient>
        <linearGradient id="paint1_linear_2112_1798" x1="654.296" y1="884.776" x2="1089.3" y2="169.776" gradientUnits="userSpaceOnUse">
            <stop offset="0.0027083" stop-color="white"/>
            <stop offset="0.176722" stop-color="white" stop-opacity="0"/>
        </linearGradient>
    </defs>
</svg>