<svg  viewBox="0 0 1660 1336" fill="none" xmlns="http://www.w3.org/2000/svg">
<mask id="mask0_2194_1361" style="mask-type:alpha" maskUnits="userSpaceOnUse" x="1223" y="-455" width="473" height="867">
<line y1="-0.426784" x2="574" y2="-0.426784" transform="matrix(-4.84939e-08 1 -0.865554 -0.532714 1223.67 -454.307)" stroke="white" stroke-width="0.853568"/>
<line y1="-0.426784" x2="574" y2="-0.426784" transform="matrix(-4.81944e-08 1 -0.865554 -0.532714 1290.93 -412.701)" stroke="white" stroke-width="0.853568"/>
<line y1="-0.426784" x2="574" y2="-0.426784" transform="matrix(-4.81944e-08 1 -0.865554 -0.532714 1358.19 -371.094)" stroke="white" stroke-width="0.853568"/>
<line y1="-0.426784" x2="574" y2="-0.426784" transform="matrix(-4.81944e-08 1 -0.865554 -0.532714 1425.44 -329.488)" stroke="white" stroke-width="0.853568"/>
<line y1="-0.426784" x2="574" y2="-0.426784" transform="matrix(-4.81944e-08 1 -0.865554 -0.532714 1492.7 -287.882)" stroke="white" stroke-width="0.853568"/>
<line y1="-0.426784" x2="574" y2="-0.426784" transform="matrix(-4.81944e-08 1 -0.865554 -0.532714 1559.95 -246.276)" stroke="white" stroke-width="0.853568"/>
<line y1="-0.426784" x2="574" y2="-0.426784" transform="matrix(-4.81944e-08 1 -0.865554 -0.532714 1627.21 -204.669)" stroke="white" stroke-width="0.853568"/>
<line y1="-0.426784" x2="523" y2="-0.426784" transform="matrix(-0.866025 -0.5 1.52389e-07 -1 1689.69 57.7859)" stroke="white" stroke-width="0.853568"/>
<line y1="-0.426784" x2="523" y2="-0.426784" transform="matrix(-0.866025 -0.5 1.52389e-07 -1 1689.69 135.446)" stroke="white" stroke-width="0.853568"/>
<line y1="-0.426784" x2="523" y2="-0.426784" transform="matrix(-0.866025 -0.5 1.52389e-07 -1 1689.69 213.105)" stroke="white" stroke-width="0.853568"/>
<line y1="-0.426784" x2="523" y2="-0.426784" transform="matrix(-0.866025 -0.5 1.52389e-07 -1 1689.69 290.766)" stroke="white" stroke-width="0.853568"/>
<line y1="-0.426784" x2="523" y2="-0.426784" transform="matrix(-0.866025 -0.5 1.52389e-07 -1 1689.69 368.321)" stroke="white" stroke-width="0.853568"/>
</mask>
<g mask="url(#mask0_2194_1361)">
<g filter="url(#filter0_f_2194_1361)">
<path d="M1694.98 -565.608L2383.7 -557.299L2329.69 585.186L1254.14 -9.82938L1694.98 -565.608Z" fill="#D9D9D9"/>
</g>
</g>
<mask id="mask1_2194_1361" style="mask-type:alpha" maskUnits="userSpaceOnUse" x="0" y="1" width="2311" height="1335">
<line y1="-0.426784" x2="1166.82" y2="-0.426784" transform="matrix(-0.866025 0.5 -0.866025 -0.5 1011.26 1.58813)" stroke="white" stroke-width="0.853568"/>
<line y1="-0.426784" x2="1166.82" y2="-0.426784" transform="matrix(-0.866025 0.5 -0.866025 -0.5 1083.44 43.2603)" stroke="white" stroke-width="0.853568"/>
<line y1="-0.426784" x2="1166.82" y2="-0.426784" transform="matrix(-0.866025 0.5 -0.866025 -0.5 1155.62 84.9329)" stroke="white" stroke-width="0.853568"/>
<line y1="-0.426784" x2="1166.82" y2="-0.426784" transform="matrix(-0.866025 0.5 -0.866025 -0.5 1227.8 126.605)" stroke="white" stroke-width="0.853568"/>
<line y1="-0.426784" x2="1166.82" y2="-0.426784" transform="matrix(-0.866025 0.5 -0.866025 -0.5 1299.98 168.277)" stroke="white" stroke-width="0.853568"/>
<line y1="-0.426784" x2="1166.82" y2="-0.426784" transform="matrix(-0.866025 0.5 -0.866025 -0.5 1372.15 209.948)" stroke="white" stroke-width="0.853568"/>
<line y1="-0.426784" x2="1166.82" y2="-0.426784" transform="matrix(-0.866025 0.5 -0.866025 -0.5 1444.33 251.621)" stroke="white" stroke-width="0.853568"/>
<line y1="-0.426784" x2="1166.82" y2="-0.426784" transform="matrix(-0.866025 0.5 -0.866025 -0.5 1516.51 293.293)" stroke="white" stroke-width="0.853568"/>
<line y1="-0.426784" x2="1166.82" y2="-0.426784" transform="matrix(-0.866025 0.5 -0.866025 -0.5 1588.69 334.965)" stroke="white" stroke-width="0.853568"/>
<line y1="-0.426784" x2="1166.82" y2="-0.426784" transform="matrix(-0.866025 0.5 -0.866025 -0.5 1660.87 376.637)" stroke="white" stroke-width="0.853568"/>
<line y1="-0.426784" x2="1166.82" y2="-0.426784" transform="matrix(-0.866025 0.5 -0.866025 -0.5 1733.05 418.31)" stroke="white" stroke-width="0.853568"/>
<line y1="-0.426784" x2="1166.82" y2="-0.426784" transform="matrix(-0.866025 0.5 -0.866025 -0.5 1805.23 459.982)" stroke="white" stroke-width="0.853568"/>
<line y1="-0.426784" x2="1166.82" y2="-0.426784" transform="matrix(-0.866025 0.5 -0.866025 -0.5 1877.4 501.654)" stroke="white" stroke-width="0.853568"/>
<line y1="-0.426784" x2="1166.82" y2="-0.426784" transform="matrix(-0.866025 0.5 -0.866025 -0.5 1949.58 543.326)" stroke="white" stroke-width="0.853568"/>
<line y1="-0.426784" x2="1166.82" y2="-0.426784" transform="matrix(-0.866025 0.5 -0.866025 -0.5 2021.76 584.998)" stroke="white" stroke-width="0.853568"/>
<line y1="-0.426784" x2="1166.82" y2="-0.426784" transform="matrix(-0.866025 0.5 -0.866025 -0.5 2093.94 626.671)" stroke="white" stroke-width="0.853568"/>
<line y1="-0.426784" x2="1166.82" y2="-0.426784" transform="matrix(-0.866025 0.5 -0.866025 -0.5 2166.12 668.342)" stroke="white" stroke-width="0.853568"/>
<line y1="-0.426784" x2="1166.82" y2="-0.426784" transform="matrix(-0.866025 0.5 -0.866025 -0.5 2238.29 710.014)" stroke="white" stroke-width="0.853568"/>
<line y1="-0.426784" x2="1058.73" y2="-0.426784" transform="matrix(-0.866025 0.5 -0.866025 -0.5 2264.23 778.382)" stroke="white" stroke-width="0.853568"/>
<line y1="-0.426784" x2="1500.2" y2="-0.426784" transform="matrix(-0.866025 -0.5 0.866026 -0.5 2310.47 751.686)" stroke="white" stroke-width="0.853568"/>
<line y1="-0.426784" x2="1500.2" y2="-0.426784" transform="matrix(-0.866025 -0.5 0.866026 -0.5 2238.29 793.358)" stroke="white" stroke-width="0.853568"/>
<line y1="-0.426784" x2="1500.2" y2="-0.426784" transform="matrix(-0.866025 -0.5 0.866026 -0.5 2166.11 835.03)" stroke="white" stroke-width="0.853568"/>
<line y1="-0.426784" x2="1500.2" y2="-0.426784" transform="matrix(-0.866025 -0.5 0.866026 -0.5 2093.94 876.702)" stroke="white" stroke-width="0.853568"/>
<line y1="-0.426784" x2="1500.2" y2="-0.426784" transform="matrix(-0.866025 -0.5 0.866026 -0.5 2021.76 918.375)" stroke="white" stroke-width="0.853568"/>
<line y1="-0.426784" x2="1500.2" y2="-0.426784" transform="matrix(-0.866025 -0.5 0.866026 -0.5 1949.58 960.047)" stroke="white" stroke-width="0.853568"/>
<line y1="-0.426784" x2="1500.2" y2="-0.426784" transform="matrix(-0.866025 -0.5 0.866026 -0.5 1877.4 1001.72)" stroke="white" stroke-width="0.853568"/>
<line y1="-0.426784" x2="1500.2" y2="-0.426784" transform="matrix(-0.866025 -0.5 0.866026 -0.5 1805.22 1043.39)" stroke="white" stroke-width="0.853568"/>
<line y1="-0.426784" x2="1500.2" y2="-0.426784" transform="matrix(-0.866025 -0.5 0.866026 -0.5 1733.05 1085.06)" stroke="white" stroke-width="0.853568"/>
<line y1="-0.426784" x2="1500.2" y2="-0.426784" transform="matrix(-0.866025 -0.5 0.866026 -0.5 1660.87 1126.74)" stroke="white" stroke-width="0.853568"/>
<line y1="-0.426784" x2="1500.2" y2="-0.426784" transform="matrix(-0.866025 -0.5 0.866026 -0.5 1588.69 1168.41)" stroke="white" stroke-width="0.853568"/>
<line y1="-0.426784" x2="1500.2" y2="-0.426784" transform="matrix(-0.866025 -0.5 0.866026 -0.5 1516.51 1210.08)" stroke="white" stroke-width="0.853568"/>
<line y1="-0.426784" x2="1500.2" y2="-0.426784" transform="matrix(-0.866025 -0.5 0.866026 -0.5 1444.33 1251.75)" stroke="white" stroke-width="0.853568"/>
<line y1="-0.426784" x2="1500.2" y2="-0.426784" transform="matrix(-0.866025 -0.5 0.866026 -0.5 1372.15 1293.42)" stroke="white" stroke-width="0.853568"/>
<line y1="-0.426784" x2="1500.2" y2="-0.426784" transform="matrix(-0.866025 -0.5 0.866026 -0.5 1299.97 1335.1)" stroke="white" stroke-width="0.853568"/>
</mask>
<g mask="url(#mask1_2194_1361)">
<path d="M1614.7 981.672C1352.66 1132.96 891.272 1111.97 584.162 934.662C277.051 757.351 240.691 490.971 502.737 339.678C764.782 188.386 1226.17 209.379 1533.28 386.689C1840.39 563.999 1876.75 830.38 1614.7 981.672Z" fill="url(#paint0_radial_2194_1361)" stroke="white" stroke-width="0.739869"/>
</g>
<defs>
<filter id="filter0_f_2194_1361" x="1004.14" y="-815.608" width="1629.56" height="1650.79" filterUnits="userSpaceOnUse" color-interpolation-filters="sRGB">
<feFlood flood-opacity="0" result="BackgroundImageFix"/>
<feBlend mode="normal" in="SourceGraphic" in2="BackgroundImageFix" result="shape"/>
<feGaussianBlur stdDeviation="125" result="effect1_foregroundBlur_2194_1361"/>
</filter>
<radialGradient id="paint0_radial_2194_1361" cx="0" cy="0" r="1" gradientUnits="userSpaceOnUse" gradientTransform="translate(1094.81 640.484) rotate(150) scale(716.392 726.793)">
<stop stop-color="#F4F4F4"/>
<stop offset="0.72182" stop-color="#898989" stop-opacity="0"/>
</radialGradient>
</defs>
</svg>
