<svg  viewBox="0 0 1610 2421" fill="none" xmlns="http://www.w3.org/2000/svg">
    <mask id="mask0_2179_3699" style="mask-type:alpha" maskUnits="userSpaceOnUse" x="1267" y="0" width="1188" height="1835">
        <line y1="-0.426784" x2="1141.3" y2="-0.426784" transform="matrix(-4.9043e-08 1 -0.865573 -0.532056 1267.77 0.190918)" stroke="white" stroke-width="0.853568"/>
        <line y1="-0.426784" x2="1141.3" y2="-0.426784" transform="matrix(-4.87372e-08 1 -0.865573 -0.532056 1333.65 40.9517)" stroke="white" stroke-width="0.853568"/>
        <line y1="-0.426784" x2="1141.3" y2="-0.426784" transform="matrix(-4.87372e-08 1 -0.865573 -0.532056 1399.54 81.7129)" stroke="white" stroke-width="0.853568"/>
        <line y1="-0.426784" x2="1141.3" y2="-0.426784" transform="matrix(-4.87372e-08 1 -0.865573 -0.532056 1465.43 122.474)" stroke="white" stroke-width="0.853568"/>
        <line y1="-0.426784" x2="1141.3" y2="-0.426784" transform="matrix(-4.87372e-08 1 -0.865573 -0.532056 1531.32 163.234)" stroke="white" stroke-width="0.853568"/>
        <line y1="-0.426784" x2="1141.3" y2="-0.426784" transform="matrix(-4.87372e-08 1 -0.865573 -0.532056 1597.21 203.994)" stroke="white" stroke-width="0.853568"/>
        <line y1="-0.426784" x2="1369.47" y2="-0.426784" transform="matrix(-0.866025 -0.5 1.49739e-07 -1 2453.76 684.926)" stroke="white" stroke-width="0.853568"/>
        <line y1="-0.426784" x2="1369.47" y2="-0.426784" transform="matrix(-0.866025 -0.5 1.49739e-07 -1 2453.76 761.008)" stroke="white" stroke-width="0.853568"/>
        <line y1="-0.426784" x2="1369.47" y2="-0.426784" transform="matrix(-0.866025 -0.5 1.49739e-07 -1 2453.76 837.09)" stroke="white" stroke-width="0.853568"/>
        <line y1="-0.426784" x2="1369.47" y2="-0.426784" transform="matrix(-0.866025 -0.5 1.49739e-07 -1 2453.76 913.171)" stroke="white" stroke-width="0.853568"/>
        <line y1="-0.426784" x2="1369.47" y2="-0.426784" transform="matrix(-0.866025 -0.5 1.49739e-07 -1 2453.76 989.253)" stroke="white" stroke-width="0.853568"/>
        <line y1="-0.426784" x2="1369.47" y2="-0.426784" transform="matrix(-0.866025 -0.5 1.49739e-07 -1 2453.76 1065.34)" stroke="white" stroke-width="0.853568"/>
        <line y1="-0.426784" x2="1369.47" y2="-0.426784" transform="matrix(-0.866025 -0.5 1.49739e-07 -1 2453.76 1141.42)" stroke="white" stroke-width="0.853568"/>
        <line y1="-0.426784" x2="1369.47" y2="-0.426784" transform="matrix(-0.866025 -0.5 1.49739e-07 -1 2453.76 1217.5)" stroke="white" stroke-width="0.853568"/>
        <line y1="-0.426784" x2="1369.47" y2="-0.426784" transform="matrix(-0.866025 -0.5 1.49739e-07 -1 2453.76 1293.58)" stroke="white" stroke-width="0.853568"/>
        <line y1="-0.426784" x2="1369.47" y2="-0.426784" transform="matrix(-0.866025 -0.5 1.49739e-07 -1 2453.76 1369.66)" stroke="white" stroke-width="0.853568"/>
        <line y1="-0.426784" x2="1369.47" y2="-0.426784" transform="matrix(-0.866025 -0.5 1.49739e-07 -1 2453.76 1445.74)" stroke="white" stroke-width="0.853568"/>
        <line y1="-0.426784" x2="1369.47" y2="-0.426784" transform="matrix(-0.866025 -0.5 1.49739e-07 -1 2453.76 1521.83)" stroke="white" stroke-width="0.853568"/>
        <line y1="-0.426784" x2="1369.47" y2="-0.426784" transform="matrix(-0.866025 -0.5 1.49739e-07 -1 2453.76 1597.91)" stroke="white" stroke-width="0.853568"/>
        <line y1="-0.426784" x2="1369.47" y2="-0.426784" transform="matrix(-0.866025 -0.5 1.49739e-07 -1 2453.76 1673.99)" stroke="white" stroke-width="0.853568"/>
        <line y1="-0.426784" x2="1369.47" y2="-0.426784" transform="matrix(-0.866025 -0.5 1.49739e-07 -1 2453.76 1750.07)" stroke="white" stroke-width="0.853568"/>
        <line y1="-0.426784" x2="1369.47" y2="-0.426784" transform="matrix(-0.866025 -0.5 1.49739e-07 -1 2453.76 1826.05)" stroke="white" stroke-width="0.853568"/>
    </mask>
    <g mask="url(#mask0_2179_3699)">
        <g filter="url(#filter0_f_2179_3699)">
            <path d="M1729.49 489.048L2404.21 497.188L2351.3 1616.45L1297.61 1033.53L1729.49 489.048Z" fill="#D9D9D9"/>
        </g>
    </g>
    <mask id="mask1_2179_3699" style="mask-type:alpha" maskUnits="userSpaceOnUse" x="0" y="973" width="2311" height="1335">
        <line y1="-0.426784" x2="1166.82" y2="-0.426784" transform="matrix(-0.866025 0.5 -0.866025 -0.5 1011.26 973.191)" stroke="white" stroke-width="0.853568"/>
        <line y1="-0.426784" x2="1166.82" y2="-0.426784" transform="matrix(-0.866025 0.5 -0.866025 -0.5 1083.44 1014.86)" stroke="white" stroke-width="0.853568"/>
        <line y1="-0.426784" x2="1166.82" y2="-0.426784" transform="matrix(-0.866025 0.5 -0.866025 -0.5 1155.62 1056.54)" stroke="white" stroke-width="0.853568"/>
        <line y1="-0.426784" x2="1166.82" y2="-0.426784" transform="matrix(-0.866025 0.5 -0.866025 -0.5 1227.8 1098.21)" stroke="white" stroke-width="0.853568"/>
        <line y1="-0.426784" x2="1166.82" y2="-0.426784" transform="matrix(-0.866025 0.5 -0.866025 -0.5 1299.98 1139.88)" stroke="white" stroke-width="0.853568"/>
        <line y1="-0.426784" x2="1166.82" y2="-0.426784" transform="matrix(-0.866025 0.5 -0.866025 -0.5 1372.15 1181.55)" stroke="white" stroke-width="0.853568"/>
        <line y1="-0.426784" x2="1166.82" y2="-0.426784" transform="matrix(-0.866025 0.5 -0.866025 -0.5 1444.33 1223.22)" stroke="white" stroke-width="0.853568"/>
        <line y1="-0.426784" x2="1166.82" y2="-0.426784" transform="matrix(-0.866025 0.5 -0.866025 -0.5 1516.51 1264.9)" stroke="white" stroke-width="0.853568"/>
        <line y1="-0.426784" x2="1166.82" y2="-0.426784" transform="matrix(-0.866025 0.5 -0.866025 -0.5 1588.69 1306.57)" stroke="white" stroke-width="0.853568"/>
        <line y1="-0.426784" x2="1166.82" y2="-0.426784" transform="matrix(-0.866025 0.5 -0.866025 -0.5 1660.87 1348.24)" stroke="white" stroke-width="0.853568"/>
        <line y1="-0.426784" x2="1166.82" y2="-0.426784" transform="matrix(-0.866025 0.5 -0.866025 -0.5 1733.05 1389.91)" stroke="white" stroke-width="0.853568"/>
        <line y1="-0.426784" x2="1166.82" y2="-0.426784" transform="matrix(-0.866025 0.5 -0.866025 -0.5 1805.23 1431.58)" stroke="white" stroke-width="0.853568"/>
        <line y1="-0.426784" x2="1166.82" y2="-0.426784" transform="matrix(-0.866025 0.5 -0.866025 -0.5 1877.4 1473.26)" stroke="white" stroke-width="0.853568"/>
        <line y1="-0.426784" x2="1166.82" y2="-0.426784" transform="matrix(-0.866025 0.5 -0.866025 -0.5 1949.58 1514.93)" stroke="white" stroke-width="0.853568"/>
        <line y1="-0.426784" x2="1166.82" y2="-0.426784" transform="matrix(-0.866025 0.5 -0.866025 -0.5 2021.76 1556.6)" stroke="white" stroke-width="0.853568"/>
        <line y1="-0.426784" x2="1166.82" y2="-0.426784" transform="matrix(-0.866025 0.5 -0.866025 -0.5 2093.94 1598.27)" stroke="white" stroke-width="0.853568"/>
        <line y1="-0.426784" x2="1166.82" y2="-0.426784" transform="matrix(-0.866025 0.5 -0.866025 -0.5 2166.12 1639.95)" stroke="white" stroke-width="0.853568"/>
        <line y1="-0.426784" x2="1166.82" y2="-0.426784" transform="matrix(-0.866025 0.5 -0.866025 -0.5 2238.29 1681.62)" stroke="white" stroke-width="0.853568"/>
        <line y1="-0.426784" x2="1058.73" y2="-0.426784" transform="matrix(-0.866025 0.5 -0.866025 -0.5 2264.23 1749.99)" stroke="white" stroke-width="0.853568"/>
        <line y1="-0.426784" x2="1500.2" y2="-0.426784" transform="matrix(-0.866025 -0.5 0.866026 -0.5 2310.47 1723.29)" stroke="white" stroke-width="0.853568"/>
        <line y1="-0.426784" x2="1500.2" y2="-0.426784" transform="matrix(-0.866025 -0.5 0.866026 -0.5 2238.29 1764.96)" stroke="white" stroke-width="0.853568"/>
        <line y1="-0.426784" x2="1500.2" y2="-0.426784" transform="matrix(-0.866025 -0.5 0.866026 -0.5 2166.11 1806.63)" stroke="white" stroke-width="0.853568"/>
        <line y1="-0.426784" x2="1500.2" y2="-0.426784" transform="matrix(-0.866025 -0.5 0.866026 -0.5 2093.94 1848.3)" stroke="white" stroke-width="0.853568"/>
        <line y1="-0.426784" x2="1500.2" y2="-0.426784" transform="matrix(-0.866025 -0.5 0.866026 -0.5 2021.76 1889.98)" stroke="white" stroke-width="0.853568"/>
        <line y1="-0.426784" x2="1500.2" y2="-0.426784" transform="matrix(-0.866025 -0.5 0.866026 -0.5 1949.58 1931.65)" stroke="white" stroke-width="0.853568"/>
        <line y1="-0.426784" x2="1500.2" y2="-0.426784" transform="matrix(-0.866025 -0.5 0.866026 -0.5 1877.4 1973.32)" stroke="white" stroke-width="0.853568"/>
        <line y1="-0.426784" x2="1500.2" y2="-0.426784" transform="matrix(-0.866025 -0.5 0.866026 -0.5 1805.22 2015)" stroke="white" stroke-width="0.853568"/>
        <line y1="-0.426784" x2="1500.2" y2="-0.426784" transform="matrix(-0.866025 -0.5 0.866026 -0.5 1733.05 2056.67)" stroke="white" stroke-width="0.853568"/>
        <line y1="-0.426784" x2="1500.2" y2="-0.426784" transform="matrix(-0.866025 -0.5 0.866026 -0.5 1660.87 2098.34)" stroke="white" stroke-width="0.853568"/>
        <line y1="-0.426784" x2="1500.2" y2="-0.426784" transform="matrix(-0.866025 -0.5 0.866026 -0.5 1588.69 2140.01)" stroke="white" stroke-width="0.853568"/>
        <line y1="-0.426784" x2="1500.2" y2="-0.426784" transform="matrix(-0.866025 -0.5 0.866026 -0.5 1516.51 2181.68)" stroke="white" stroke-width="0.853568"/>
        <line y1="-0.426784" x2="1500.2" y2="-0.426784" transform="matrix(-0.866025 -0.5 0.866026 -0.5 1444.33 2223.35)" stroke="white" stroke-width="0.853568"/>
        <line y1="-0.426784" x2="1500.2" y2="-0.426784" transform="matrix(-0.866025 -0.5 0.866026 -0.5 1372.15 2265.03)" stroke="white" stroke-width="0.853568"/>
        <line y1="-0.426784" x2="1500.2" y2="-0.426784" transform="matrix(-0.866025 -0.5 0.866026 -0.5 1299.97 2306.7)" stroke="white" stroke-width="0.853568"/>
    </mask>
    <g mask="url(#mask1_2179_3699)">
        <path d="M1649.72 1992.82C1372.23 2153.04 886.735 2132.58 565.335 1947.02C243.935 1761.46 208.503 1481.16 485.997 1320.95C763.492 1160.73 1248.99 1181.19 1570.39 1366.75C1891.79 1552.31 1927.22 1832.61 1649.72 1992.82Z" fill="url(#paint0_radial_2179_3699)" stroke="white" stroke-width="0.739869"/>
    </g>
    <path d="M782.639 1548.41L788.932 1548.41L788.932 1555.23L782.639 1555.23L782.639 1548.41Z" fill="#F8B545"/>
    <path d="M716.04 1488.1C707.122 1488.1 699.254 1490.2 692.961 1493.87C687.193 1497.54 683.525 1502.78 683 1508.55L683 1516C683 1522.3 687.2 1528.07 692.961 1531.73C699.261 1535.4 707.122 1537.5 716.04 1537.5C724.426 1537.5 732.294 1535.4 738.587 1531.73C744.355 1528.07 748.555 1522.3 748.555 1516.01L748.555 1508.66C748.03 1502.89 744.355 1497.65 738.587 1493.98C732.294 1490.31 724.426 1488.21 716.04 1488.21L716.04 1488.1ZM716.04 1501.21C723.383 1501.21 730.201 1503.31 734.919 1505.93C738.069 1508.03 740.162 1510.13 741.212 1512.74C740.162 1515.37 738.062 1517.47 734.912 1519.56C730.201 1522.19 723.383 1524.29 716.04 1524.29C708.172 1524.29 701.354 1522.19 696.636 1519.56C693.486 1517.46 691.386 1515.37 690.336 1512.74C691.386 1510.13 693.486 1508.03 696.636 1505.93C701.354 1503.31 708.172 1501.21 716.04 1501.21Z" fill="#4399C0"/>
    <path d="M738.594 1524.81L737.544 1524.81L737.544 1531.62L781.588 1556.8C782.638 1557.85 784.213 1557.85 785.788 1557.85C787.356 1557.29 788.406 1556.8 788.931 1555.75C789.456 1554.7 788.931 1553.65 787.881 1553.13L738.594 1524.81Z" fill="#F8B545"/>
    <path d="M787.882 1546.31L738.588 1517.99L731.77 1521.66L781.589 1550.5C782.639 1551.06 784.214 1551.55 785.789 1551.06C787.357 1551.06 788.407 1550.02 788.939 1548.96C789.457 1548.4 788.939 1547.39 787.889 1546.34L787.882 1546.31Z" fill="#FECB5B"/>
    <path d="M716.04 1488.1C707.122 1488.1 699.254 1490.2 692.961 1493.87C687.193 1497.54 683 1502.78 683 1509.6C683 1515.89 687.2 1521.14 692.961 1524.81C699.261 1528.48 707.122 1530.58 716.04 1530.58C724.426 1530.58 732.294 1528.48 738.587 1524.81C744.355 1521.14 748.555 1515.89 748.555 1509.6C748.555 1502.78 744.355 1497.54 738.587 1493.87C732.294 1490.2 724.426 1488.1 716.04 1488.1ZM716.04 1494.91C723.383 1494.91 730.201 1496.49 734.919 1499.64C739.637 1502.26 742.262 1505.93 742.262 1509.6C742.262 1512.75 739.637 1516.42 734.912 1519.56C730.201 1522.19 723.383 1524.29 716.04 1524.29C708.172 1524.29 701.354 1522.19 696.636 1519.56C691.918 1516.41 689.818 1512.74 689.818 1509.6C689.818 1505.93 691.918 1502.26 696.636 1499.64C701.354 1496.49 708.172 1494.91 716.04 1494.91Z" fill="#6DB0CF"/>
    <g opacity="0.07" filter="url(#filter1_f_2179_3699)">
        <path d="M889.631 1246.45L1418.4 1540.5L1146.4 1703.43C1139.51 1707.56 1128.23 1707.74 1121.21 1703.84L617.86 1423.92C610.84 1420.02 610.735 1413.51 617.626 1409.38L889.631 1246.45Z" fill="url(#paint1_linear_2179_3699)"/>
    </g>
    <path d="M864.387 1231.54L863.342 1241.47L799.185 1270.03L800.231 1260.09L864.387 1231.54ZM867.863 1198.5L866.818 1208.42L802.66 1236.99L803.705 1227.06L867.863 1198.5ZM871.48 1164.1L870.436 1174.03L806.279 1202.59L807.323 1192.66L871.48 1164.1ZM875.127 1129.43L874.083 1139.36L809.925 1167.93L810.969 1158L875.127 1129.43ZM860.734 1265.94L859.69 1275.86L795.533 1304.42L796.577 1294.49L860.734 1265.94Z" fill="#FECB5B"/>
    <path d="M856.802 1303.16L848.663 1297.55L868.225 1111.56L876.334 1117.45L856.802 1303.16ZM839.535 1301.34L848.663 1297.55L868.225 1111.56L859.068 1115.64L839.535 1301.34Z" fill="#ED4A4B"/>
    <path d="M859.065 1115.67L867.203 1121.28L847.642 1307.26L839.532 1301.38L859.065 1115.67Z" fill="#FECB5B"/>
    <path d="M876.331 1117.49L867.203 1121.28L847.642 1307.26L856.798 1303.19L876.331 1117.49Z" fill="#F8B545"/>
    <path d="M859.699 1275.86L858.655 1285.79L794.489 1314.35L795.534 1304.42L859.699 1275.86Z" fill="#F8B545"/>
    <path d="M801.853 1327.65L793.715 1322.04L813.276 1136.06L821.385 1141.95L801.853 1327.65ZM784.587 1325.83L793.715 1322.04L813.276 1136.06L804.12 1140.13L784.587 1325.83Z" fill="#ED4A4B"/>
    <path d="M804.116 1140.17L812.254 1145.78L792.694 1331.75L784.584 1325.87L804.116 1140.17Z" fill="#FECB5B"/>
    <path d="M821.382 1141.99L812.254 1145.78L792.694 1331.75L801.85 1327.69L821.382 1141.99Z" fill="#F8B545"/>
    <path d="M863.343 1241.47L862.298 1251.4L798.141 1279.96L799.186 1270.03L863.343 1241.47ZM866.819 1208.42L865.774 1218.35L801.617 1246.92L802.661 1236.99L866.819 1208.42ZM870.436 1174.03L869.392 1183.96L805.235 1212.52L806.279 1202.59L870.436 1174.03ZM874.083 1139.36L873.039 1149.29L808.881 1177.86L809.925 1167.93L874.083 1139.36Z" fill="#F8B545"/>
    <g opacity="0.07" filter="url(#filter2_f_2179_3699)">
        <path d="M855.797 1346.96L1155.17 1513.44L940.515 1642.02C933.625 1646.15 922.348 1646.33 915.329 1642.43L641.371 1490.08C634.351 1486.17 634.247 1479.66 641.137 1475.54L855.797 1346.96Z" fill="url(#paint2_linear_2179_3699)"/>
    </g>
    <g filter="url(#filter3_dd_2179_3699)">
        <path d="M948.163 850.767C949.63 849.998 951.579 850.222 953.606 851.393L1412.71 1116.46C1415.83 1118.26 1418.35 1122.62 1418.35 1126.22L1418.35 1530.31C1418.35 1533.77 1417.03 1536.28 1414.74 1537.19L1390.17 1546.88L958.18 1270.57C953.751 1267.73 950.179 1261.66 949.817 1256.34L923.128 863.88L948.163 850.767Z" fill="#E5E7EB"/>
    </g>
    <g filter="url(#filter4_dd_2179_3699)">
        <path d="M922.765 900.04L1390.55 1170.11L1390.55 1536.4C1390.55 1542.05 1386.58 1544.35 1381.68 1541.52L931.633 1281.68C926.735 1278.86 922.765 1271.98 922.765 1266.33L922.765 900.04Z" fill="url(#paint3_linear_2179_3699)"/>
        <path d="M922.765 898.089L921.075 897.114L921.075 899.065L921.075 1265.35C921.075 1272.08 925.802 1280.27 931.633 1283.64L1381.68 1543.47C1387.51 1546.84 1392.24 1544.11 1392.24 1537.37L1392.24 1171.09L1392.24 1169.14L1390.55 1168.16L922.765 898.089Z" stroke="white" stroke-width="3.90188"/>
    </g>
    <g filter="url(#filter5_d_2179_3699)">
        <mask id="path-78-outside-1_2179_3699" maskUnits="userSpaceOnUse" x="919.301" y="861.006" width="475.448" height="312.5" fill="black">
            <rect fill="white" x="919.301" y="861.006" width="475.448" height="312.5"/>
            <path d="M922.765 870.162C922.765 868.419 923.988 867.713 925.497 868.584L1387.81 1135.5C1389.32 1136.37 1390.55 1138.49 1390.55 1140.24L1390.55 1170.84L922.765 900.771L922.765 870.162Z"/>
        </mask>
        <path d="M922.765 870.162C922.765 868.419 923.988 867.713 925.497 868.584L1387.81 1135.5C1389.32 1136.37 1390.55 1138.49 1390.55 1140.24L1390.55 1170.84L922.765 900.771L922.765 870.162Z" fill="#F9FAFB"/>
        <path d="M919.386 868.211C919.386 864.313 922.122 862.733 925.497 864.682L1387.81 1131.6C1391.19 1133.55 1393.92 1138.29 1393.92 1142.19L1387.17 1139.03L926.144 872.859L919.386 868.211ZM1390.55 1170.84L922.765 900.771L1390.55 1170.84ZM919.386 898.82L919.386 868.211C919.386 864.313 922.122 862.733 925.497 864.682L926.144 872.859L926.144 902.721L919.386 898.82ZM1387.81 1131.6C1391.19 1133.55 1393.92 1138.29 1393.92 1142.19L1393.92 1172.79L1387.17 1168.89L1387.17 1139.03L1387.81 1131.6Z" fill="white" mask="url(#path-78-outside-1_2179_3699)"/>
    </g>
    <circle cx="3.78658" cy="3.78658" r="3.78658" transform="matrix(0.866025 0.5 -2.20305e-08 1 933.989 885.043)" fill="#EF4444"/>
    <circle cx="3.78658" cy="3.78658" r="3.78658" transform="matrix(0.866025 0.5 -2.20305e-08 1 944.92 891.354)" fill="#F59E0B"/>
    <circle cx="3.78658" cy="3.78658" r="3.78658" transform="matrix(0.866025 0.5 -2.20305e-08 1 955.851 897.665)" fill="#10B981"/>
    <rect width="273.913" height="15.5044" rx="3.10088" transform="matrix(0.866025 0.5 -2.20305e-08 1 1047.23 947.985)" fill="#E5E7EB"/>
    <g filter="url(#filter6_i_2179_3699)">
        <rect width="286.575" height="35.0274" rx="14.9711" transform="matrix(0.866025 0.5 -2.20305e-08 1 1026.75 1061.27)" fill="#E5E7EB"/>
    </g>
    <path d="M1138.6 1085.17C1138.51 1084.76 1138.38 1084.37 1138.22 1084C1138.06 1083.63 1137.86 1083.28 1137.63 1082.95C1137.4 1082.62 1137.13 1082.32 1136.84 1082.05C1136.54 1081.77 1136.22 1081.54 1135.86 1081.33C1135.2 1080.94 1134.61 1080.8 1134.1 1080.89C1133.6 1080.98 1133.21 1081.31 1132.93 1081.88C1132.65 1082.45 1132.51 1083.25 1132.51 1084.3C1132.51 1085.35 1132.65 1086.32 1132.93 1087.22C1133.2 1088.11 1133.59 1088.9 1134.1 1089.58C1134.6 1090.25 1135.2 1090.79 1135.89 1091.19C1136.51 1091.55 1137.05 1091.73 1137.49 1091.73C1137.93 1091.72 1138.27 1091.55 1138.51 1091.22C1138.74 1090.89 1138.86 1090.4 1138.86 1089.76L1139.42 1090.17L1136.06 1088.23L1136.06 1085.83L1141.52 1088.99L1141.52 1090.88C1141.52 1092.21 1141.28 1093.21 1140.79 1093.88C1140.31 1094.54 1139.64 1094.89 1138.79 1094.91C1137.94 1094.93 1136.97 1094.63 1135.88 1094C1134.65 1093.29 1133.58 1092.36 1132.65 1091.2C1131.73 1090.04 1131 1088.73 1130.49 1087.28C1129.97 1085.83 1129.72 1084.3 1129.72 1082.72C1129.72 1081.5 1129.87 1080.49 1130.17 1079.72C1130.48 1078.93 1130.92 1078.37 1131.47 1078.02C1132.03 1077.68 1132.68 1077.54 1133.42 1077.62C1134.16 1077.7 1134.96 1077.99 1135.82 1078.49C1136.56 1078.91 1137.25 1079.44 1137.88 1080.05C1138.52 1080.67 1139.08 1081.34 1139.58 1082.08C1140.07 1082.81 1140.48 1083.59 1140.79 1084.39C1141.11 1085.19 1141.31 1085.99 1141.4 1086.78L1138.6 1085.17ZM1147.96 1100.99C1146.97 1100.42 1146.12 1099.68 1145.39 1098.78C1144.68 1097.87 1144.12 1096.87 1143.73 1095.77C1143.34 1094.67 1143.15 1093.54 1143.15 1092.38C1143.15 1091.21 1143.34 1090.31 1143.73 1089.66C1144.12 1089.01 1144.68 1088.65 1145.39 1088.58C1146.12 1088.5 1146.97 1088.75 1147.96 1089.32C1148.95 1089.89 1149.8 1090.63 1150.52 1091.54C1151.24 1092.44 1151.8 1093.44 1152.19 1094.54C1152.58 1095.64 1152.78 1096.78 1152.78 1097.94C1152.78 1099.1 1152.58 1100 1152.19 1100.66C1151.8 1101.3 1151.24 1101.66 1150.52 1101.74C1149.8 1101.81 1148.95 1101.56 1147.96 1100.99ZM1147.97 1098.57C1148.42 1098.83 1148.8 1098.9 1149.1 1098.78C1149.4 1098.65 1149.63 1098.38 1149.78 1097.95C1149.94 1097.53 1150.02 1096.98 1150.02 1096.33C1150.02 1095.67 1149.94 1095.04 1149.78 1094.43C1149.63 1093.83 1149.4 1093.29 1149.1 1092.82C1148.8 1092.35 1148.42 1091.98 1147.97 1091.72C1147.52 1091.46 1147.14 1091.39 1146.83 1091.51C1146.52 1091.63 1146.29 1091.9 1146.13 1092.33C1145.98 1092.75 1145.9 1093.3 1145.9 1093.95C1145.9 1094.61 1145.98 1095.24 1146.13 1095.84C1146.29 1096.45 1146.52 1096.99 1146.83 1097.46C1147.14 1097.94 1147.52 1098.31 1147.97 1098.57ZM1158.96 1107.34C1157.97 1106.77 1157.12 1106.03 1156.39 1105.13C1155.68 1104.22 1155.12 1103.22 1154.73 1102.12C1154.34 1101.02 1154.15 1099.89 1154.15 1098.73C1154.15 1097.57 1154.34 1096.66 1154.73 1096.01C1155.12 1095.36 1155.68 1095 1156.39 1094.93C1157.12 1094.85 1157.97 1095.1 1158.96 1095.67C1159.95 1096.24 1160.8 1096.98 1161.52 1097.89C1162.24 1098.79 1162.8 1099.79 1163.19 1100.9C1163.58 1101.99 1163.78 1103.13 1163.78 1104.29C1163.78 1105.45 1163.58 1106.36 1163.19 1107.01C1162.8 1107.66 1162.24 1108.02 1161.52 1108.09C1160.8 1108.16 1159.95 1107.91 1158.96 1107.34ZM1158.97 1104.92C1159.42 1105.18 1159.8 1105.25 1160.1 1105.13C1160.4 1105 1160.63 1104.73 1160.78 1104.3C1160.94 1103.88 1161.02 1103.34 1161.02 1102.68C1161.02 1102.02 1160.94 1101.39 1160.78 1100.79C1160.63 1100.18 1160.4 1099.64 1160.1 1099.17C1159.8 1098.7 1159.42 1098.33 1158.97 1098.07C1158.52 1097.81 1158.14 1097.74 1157.83 1097.86C1157.52 1097.98 1157.29 1098.25 1157.13 1098.68C1156.98 1099.1 1156.9 1099.65 1156.9 1100.3C1156.9 1100.96 1156.98 1101.59 1157.13 1102.19C1157.29 1102.8 1157.52 1103.34 1157.83 1103.82C1158.14 1104.29 1158.52 1104.66 1158.97 1104.92ZM1169.95 1117.93C1169.07 1117.43 1168.32 1116.85 1167.69 1116.21C1167.06 1115.57 1166.57 1114.91 1166.2 1114.22C1165.83 1113.53 1165.59 1112.86 1165.48 1112.2L1167.99 1113.26C1168.06 1113.53 1168.19 1113.81 1168.35 1114.11C1168.52 1114.4 1168.74 1114.68 1169.01 1114.96C1169.28 1115.24 1169.62 1115.49 1170.01 1115.72C1170.6 1116.06 1171.09 1116.17 1171.47 1116.06C1171.86 1115.96 1172.05 1115.52 1172.05 1114.74L1172.05 1112.68L1171.94 1112.61C1171.82 1112.85 1171.64 1113.05 1171.4 1113.19C1171.16 1113.33 1170.86 1113.38 1170.48 1113.34C1170.11 1113.31 1169.67 1113.14 1169.15 1112.84C1168.41 1112.41 1167.74 1111.83 1167.14 1111.09C1166.54 1110.35 1166.06 1109.47 1165.71 1108.45C1165.35 1107.42 1165.18 1106.29 1165.18 1105.04C1165.18 1103.76 1165.36 1102.79 1165.72 1102.14C1166.08 1101.49 1166.56 1101.13 1167.16 1101.05C1167.76 1100.97 1168.42 1101.14 1169.14 1101.55C1169.69 1101.87 1170.15 1102.24 1170.52 1102.67C1170.89 1103.09 1171.18 1103.53 1171.41 1103.98C1171.64 1104.42 1171.81 1104.83 1171.94 1105.21L1172.04 1105.27L1172.04 1103.37L1174.73 1104.93L1174.73 1116.33C1174.73 1117.3 1174.53 1117.98 1174.12 1118.39C1173.71 1118.81 1173.15 1118.97 1172.43 1118.87C1171.71 1118.79 1170.88 1118.47 1169.95 1117.93ZM1170.01 1110.98C1170.44 1111.23 1170.81 1111.32 1171.12 1111.24C1171.42 1111.17 1171.65 1110.94 1171.82 1110.56C1171.98 1110.18 1172.06 1109.66 1172.06 1109C1172.06 1108.34 1171.98 1107.72 1171.82 1107.14C1171.66 1106.55 1171.43 1106.04 1171.12 1105.59C1170.82 1105.15 1170.44 1104.8 1170.01 1104.54C1169.56 1104.29 1169.19 1104.21 1168.88 1104.31C1168.57 1104.41 1168.34 1104.66 1168.19 1105.06C1168.03 1105.46 1167.95 1105.98 1167.95 1106.62C1167.95 1107.27 1168.03 1107.88 1168.19 1108.45C1168.35 1109.01 1168.58 1109.51 1168.88 1109.95C1169.19 1110.38 1169.56 1110.72 1170.01 1110.98ZM1179.61 1103.97L1179.61 1119.04L1176.89 1117.47L1176.89 1102.41L1179.61 1103.97ZM1186.24 1123.09C1185.23 1122.51 1184.37 1121.77 1183.64 1120.88C1182.92 1119.99 1182.36 1119 1181.97 1117.9C1181.58 1116.8 1181.39 1115.66 1181.39 1114.47C1181.39 1113.3 1181.58 1112.4 1181.97 1111.75C1182.36 1111.09 1182.91 1110.73 1183.62 1110.65C1184.33 1110.57 1185.17 1110.81 1186.13 1111.36C1186.78 1111.73 1187.38 1112.2 1187.93 1112.76C1188.49 1113.32 1188.98 1113.96 1189.4 1114.67C1189.82 1115.39 1190.15 1116.18 1190.38 1117.03C1190.61 1117.88 1190.73 1118.79 1190.73 1119.75L1190.73 1120.61L1182.47 1115.84L1182.47 1113.9L1188.18 1117.2C1188.18 1116.74 1188.09 1116.3 1187.92 1115.85C1187.75 1115.4 1187.52 1115 1187.21 1114.63C1186.92 1114.25 1186.57 1113.95 1186.18 1113.72C1185.76 1113.49 1185.4 1113.39 1185.08 1113.42C1184.77 1113.46 1184.52 1113.61 1184.34 1113.87C1184.16 1114.13 1184.07 1114.48 1184.07 1114.93L1184.07 1116.77C1184.07 1117.33 1184.16 1117.87 1184.33 1118.38C1184.52 1118.89 1184.77 1119.35 1185.11 1119.76C1185.44 1120.17 1185.83 1120.51 1186.28 1120.77C1186.59 1120.95 1186.86 1121.06 1187.11 1121.11C1187.36 1121.15 1187.58 1121.13 1187.75 1121.04C1187.93 1120.94 1188.07 1120.78 1188.16 1120.55L1190.67 1122.19C1190.54 1122.81 1190.28 1123.27 1189.89 1123.56C1189.5 1123.85 1188.99 1123.96 1188.37 1123.89C1187.76 1123.82 1187.05 1123.55 1186.24 1123.09Z" fill="#4B5563"/>
    <g filter="url(#filter7_f_2179_3699)">
        <rect width="420.663" height="103.82" rx="7.31462" transform="matrix(0.866025 0.5 -2.20305e-08 1 870.043 1053.38)" fill="#A78BFA" fill-opacity="0.15"/>
    </g>
    <g filter="url(#filter8_d_2179_3699)">
        <g filter="url(#filter9_dd_2179_3699)">
            <rect width="418.17" height="93.9474" rx="5.77829" transform="matrix(0.866789 0.498676 -2.21085e-08 1 863.607 1060.67)" fill="#D1D0FF"/>
        </g>
        <rect x="848.074" y="1071.86" width="19.5604" height="18.0501" transform="rotate(-27 848.074 1071.86)" fill="#D1D0FF"/>
        <rect x="1201.23" y="1352.24" width="16.6485" height="18.367" transform="rotate(-27 1201.23 1352.24)" fill="#D1D0FF"/>
        <rect width="16.6138" height="21.8839" transform="matrix(0.891654 -0.452718 0.455265 0.890356 1112.39 1305.96)" fill="#D1D5DB"/>
        <g filter="url(#filter10_dd_2179_3699)">
            <rect width="333.103" height="88.2534" rx="5.77829" transform="matrix(0.866025 0.5 -2.20305e-08 1 860.936 1160.83)" fill="#D1D5DB"/>
        </g>
        <rect x="847.037" y="1175.46" width="19.5604" height="18.2844" transform="rotate(-27 847.037 1175.46)" fill="#D1D5DB"/>
        <rect x="1123.29" y="1400.89" width="16.8305" height="22.2155" transform="rotate(-27 1123.29 1400.89)" fill="#D1D5DB"/>
        <g filter="url(#filter11_dd_2179_3699)">
            <rect width="333.514" height="88.2694" rx="5.77829" transform="matrix(0.866025 0.5 -2.20305e-08 1 860.933 1254.93)" fill="#D1D5DB"/>
        </g>
        <rect x="847.255" y="1269.99" width="19.5604" height="17.8016" transform="rotate(-27 847.255 1269.99)" fill="#D1D5DB"/>
        <rect x="1122.57" y="1495.34" width="17.6383" height="22.4238" transform="rotate(-27 1122.57 1495.34)" fill="#D1D5DB"/>
        <g filter="url(#filter12_dd_2179_3699)">
            <rect width="333.103" height="79.1992" rx="6.67615" transform="matrix(0.866025 0.5 -2.20305e-08 1 844.985 1175.49)" fill="#F9FAFB"/>
            <rect width="199.163" height="11.6469" rx="5.15584" transform="matrix(0.866025 0.5 -2.20305e-08 1 868.113 1209.81)" fill="#E5E7EB"/>
            <rect width="132.775" height="11.6469" rx="5.15584" transform="matrix(0.866025 0.5 -2.20305e-08 1 868.113 1231.47)" fill="#E5E7EB"/>
            <g filter="url(#filter13_dd_2179_3699)">
                <rect width="71.9485" height="65.6305" rx="3.93288" transform="matrix(0.866025 0.5 -2.20305e-08 1 1063.86 1308.54)" fill="#E5E7EB"/>
                <rect x="0.504327" y="0.873521" width="70.7838" height="64.4658" rx="3.35054" transform="matrix(0.866025 0.5 -2.20305e-08 1 1063.93 1308.28)" stroke="white" stroke-width="1.16469"/>
            </g>
            <mask id="mask2_2179_3699" style="mask-type:alpha" maskUnits="userSpaceOnUse" x="1067" y="1316" width="56" height="87">
                <rect width="62.6083" height="57.1105" rx="3.93288" transform="matrix(0.866025 0.5 -2.20305e-08 1 1067.91 1315.13)" fill="white"/>
            </mask>
            <g mask="url(#mask2_2179_3699)">
                <path d="M1106.79 1369.74C1107.61 1369.08 1109.12 1369.95 1109.94 1371.56L1125.38 1402C1126.49 1404.18 1125.54 1405.96 1123.81 1404.96L1092.92 1387.13C1091.19 1386.13 1090.25 1383.25 1091.35 1382.35L1106.79 1369.74Z" fill="#D1D5DB"/>
                <path d="M1082.03 1346.6C1082.84 1345.93 1084.36 1346.81 1085.17 1348.42L1107.06 1391.56C1108.16 1393.73 1107.22 1395.51 1105.49 1394.51L1061.72 1369.24C1059.99 1368.24 1059.04 1365.37 1060.14 1364.47L1082.03 1346.6Z" fill="#9CA3AF"/>
                <ellipse cx="8.19518" cy="7.47554" rx="8.19518" ry="7.47554" transform="matrix(0.866025 0.5 -2.20305e-08 1 1093.92 1339.41)" fill="#9CA3AF"/>
            </g>
            <rect x="-1.00865" y="-1.74704" width="335.432" height="81.5286" rx="7.84084" transform="matrix(0.866025 0.5 -2.20305e-08 1 844.85 1175.99)" stroke="white" stroke-width="2.32939"/>
        </g>
        <g filter="url(#filter14_dd_2179_3699)">
            <rect width="333.103" height="79.1992" rx="6.67615" transform="matrix(0.866025 0.5 -2.20305e-08 1 844.985 1269.82)" fill="#F9FAFB"/>
            <rect width="199.163" height="11.6469" rx="5.15584" transform="matrix(0.866025 0.5 -2.20305e-08 1 868.113 1304.14)" fill="#E5E7EB"/>
            <rect width="132.775" height="11.6469" rx="5.15584" transform="matrix(0.866025 0.5 -2.20305e-08 1 868.113 1325.8)" fill="#E5E7EB"/>
            <g filter="url(#filter15_dd_2179_3699)">
                <rect width="71.9485" height="65.6305" rx="3.93288" transform="matrix(0.866025 0.5 -2.20305e-08 1 1063.86 1402.87)" fill="#E5E7EB"/>
                <rect x="0.504327" y="0.873521" width="70.7838" height="64.4658" rx="3.35054" transform="matrix(0.866025 0.5 -2.20305e-08 1 1063.93 1402.62)" stroke="white" stroke-width="1.16469"/>
            </g>
            <mask id="mask3_2179_3699" style="mask-type:alpha" maskUnits="userSpaceOnUse" x="1067" y="1410" width="56" height="87">
                <rect width="62.6083" height="57.1105" rx="3.93288" transform="matrix(0.866025 0.5 -2.20305e-08 1 1067.91 1409.46)" fill="white"/>
            </mask>
            <g mask="url(#mask3_2179_3699)">
                <path d="M1106.79 1464.08C1107.61 1463.41 1109.12 1464.28 1109.94 1465.89L1125.38 1496.34C1126.49 1498.51 1125.54 1500.29 1123.81 1499.29L1092.92 1481.46C1091.19 1480.46 1090.25 1477.59 1091.35 1476.69L1106.79 1464.08Z" fill="#D1D5DB"/>
                <path d="M1082.03 1440.93C1082.84 1440.27 1084.36 1441.14 1085.17 1442.75L1107.06 1485.89C1108.16 1488.07 1107.22 1489.85 1105.49 1488.85L1061.72 1463.58C1059.99 1462.58 1059.04 1459.7 1060.14 1458.8L1082.03 1440.93Z" fill="#9CA3AF"/>
                <ellipse cx="8.19518" cy="7.47554" rx="8.19518" ry="7.47554" transform="matrix(0.866025 0.5 -2.20305e-08 1 1093.92 1433.74)" fill="#9CA3AF"/>
            </g>
            <rect x="-1.00865" y="-1.74704" width="335.432" height="81.5286" rx="7.84084" transform="matrix(0.866025 0.5 -2.20305e-08 1 844.85 1270.33)" stroke="white" stroke-width="2.32939"/>
        </g>
    </g>
    <rect x="-1.19507" y="-2.06992" width="420.857" height="89.6378" rx="7.53059" transform="matrix(0.866025 0.5 -2.20305e-08 1 847.523 1072.91)" fill="#F9FAFB"/>
    <g filter="url(#filter16_d_2179_3699)">
        <rect width="27.6181" height="27.6181" rx="13.8091" transform="matrix(0.866025 0.5 -2.20305e-08 1 868.991 1103.06)" fill="#E5E7EB"/>
        <path d="M877.853 1121.39L875.432 1114.99C875.153 1114.26 875.014 1113.89 875.038 1113.67C875.058 1113.47 875.153 1113.34 875.298 1113.3C875.465 1113.26 875.75 1113.43 876.321 1113.76L877.743 1114.58C877.955 1114.7 878.061 1114.76 878.156 1114.85C878.241 1114.93 878.318 1115.03 878.384 1115.13C878.459 1115.25 878.513 1115.39 878.621 1115.66L880.95 1121.57L883.279 1118.35C883.386 1118.2 883.44 1118.13 883.515 1118.1C883.581 1118.07 883.659 1118.06 883.743 1118.08C883.838 1118.1 883.944 1118.16 884.156 1118.28L885.578 1119.1C886.149 1119.43 886.435 1119.6 886.601 1119.83C886.747 1120.04 886.841 1120.28 886.862 1120.49C886.885 1120.74 886.746 1120.95 886.467 1121.36L884.046 1124.97M879.995 1124.7L880.95 1124.51L880.95 1128.19M880.154 1127.73L881.745 1128.65M883.875 1124.66C885.49 1127.46 885.49 1130.48 883.875 1131.42C882.259 1132.35 879.64 1130.84 878.024 1128.04C876.409 1125.24 876.409 1122.22 878.024 1121.28C879.64 1120.35 882.259 1121.86 883.875 1124.66Z" stroke="#B7ACFF" stroke-width="1.75752" stroke-linecap="round" stroke-linejoin="round"/>
        <rect x="-0.45429" y="-0.786853" width="28.6673" height="28.6673" rx="14.3336" transform="matrix(0.866025 0.5 -2.20305e-08 1 868.93 1103.29)" stroke="white" stroke-width="1.04914"/>
    </g>
    <rect width="199.163" height="11.6469" rx="5.15584" transform="matrix(0.866025 0.5 -2.20305e-08 1 909.602 1131.78)" fill="#E5E7EB"/>
    <rect width="132.775" height="11.6469" rx="5.15584" transform="matrix(0.866025 0.5 -2.20305e-08 1 909.602 1153.44)" fill="#E5E7EB"/>
    <g filter="url(#filter17_dd_2179_3699)">
        <rect width="75.3454" height="74.5766" rx="3.62331" transform="matrix(0.866025 0.5 -2.20305e-08 1 1139.19 1246.76)" fill="white"/>
    </g>
    <mask id="mask4_2179_3699" style="mask-type:alpha" maskUnits="userSpaceOnUse" x="1143" y="1255" width="58" height="96">
        <rect width="65.5643" height="64.8953" rx="3.62331" transform="matrix(0.866025 0.5 -2.20305e-08 1 1143.42 1254.05)" fill="white"/>
    </mask>
    <g mask="url(#mask4_2179_3699)">
        <path d="M1183.27 1314.92C1184.54 1313.73 1187.04 1315.17 1188.31 1317.82L1202.63 1347.75C1204.22 1351.08 1202.73 1353.69 1200.11 1352.17L1171.47 1335.64C1168.85 1334.12 1167.36 1329.8 1168.95 1328.31L1183.27 1314.92Z" fill="#D4C9FE"/>
        <path d="M1156.08 1291.07C1157.98 1289.29 1161.73 1291.46 1163.63 1295.43L1187.32 1344.95L1141.99 1318.77C1138.06 1316.5 1135.83 1310.01 1138.21 1307.78L1156.08 1291.07Z" fill="#AF8DFB"/>
        <ellipse cx="8.5821" cy="8.49453" rx="8.5821" ry="8.49453" transform="matrix(0.866025 0.5 -2.20305e-08 1 1170.67 1280.29)" fill="#D4C9FE"/>
    </g>
    <rect x="-1.19507" y="-2.06992" width="420.857" height="89.6378" rx="7.53059" transform="matrix(0.866025 0.5 -2.20305e-08 1 847.523 1072.91)" stroke="white" stroke-width="2.75989"/>
    <g filter="url(#filter18_f_2179_3699)">
        <rect width="435.535" height="14.2497" rx="7.12483" transform="matrix(0.866025 0.5 -2.20305e-08 1 838.765 1161.22)" fill="#A78BFA" fill-opacity="0.1"/>
    </g>
    <path d="M1128.59 1615.61C1128.38 1615.61 1128.16 1615.55 1127.97 1615.44L1122.24 1612.12C1121.85 1611.89 1121.62 1611.48 1121.62 1611.04L1121.59 1594.57C1121.59 1594.18 1121.78 1593.8 1122.1 1593.57C1125.35 1591.18 1128.75 1588.47 1132.22 1585.51C1132.62 1585.17 1133.2 1585.11 1133.65 1585.39L1139.36 1588.71C1139.74 1588.93 1139.98 1589.34 1139.98 1589.78L1140.03 1608.46C1140.03 1608.91 1139.79 1609.32 1139.41 1609.55L1129.22 1615.44C1129.02 1615.55 1128.81 1615.61 1128.59 1615.61Z" fill="#C6BDFF"/>
    <path d="M1188.96 1579.7C1188.74 1579.7 1188.52 1579.65 1188.33 1579.53L1182.6 1576.21C1182.22 1575.99 1181.98 1575.58 1181.98 1575.13L1181.84 1527.71C1181.84 1527.46 1181.92 1527.22 1182.06 1527.01C1186.7 1520.2 1190.13 1514.74 1192.19 1511.35C1192.55 1510.78 1193.29 1510.58 1193.88 1510.92L1199.61 1514.22C1199.99 1514.44 1200.23 1514.85 1200.23 1515.3L1200.4 1572.56C1200.4 1573 1200.16 1573.42 1199.77 1573.64L1189.58 1579.54C1189.39 1579.65 1189.17 1579.7 1188.96 1579.7ZM1168.84 1591.3C1168.63 1591.3 1168.41 1591.24 1168.22 1591.13L1162.49 1587.81C1162.1 1587.58 1161.87 1587.17 1161.87 1586.73L1161.78 1554.48C1161.78 1554.19 1161.88 1553.91 1162.07 1553.68C1165.45 1549.57 1168.87 1545.23 1172.23 1540.77C1172.61 1540.27 1173.3 1540.13 1173.85 1540.45L1179.55 1543.74C1179.94 1543.97 1180.17 1544.38 1180.17 1544.82L1180.28 1584.15C1180.28 1584.6 1180.05 1585.01 1179.66 1585.24L1169.47 1591.13C1169.28 1591.24 1169.06 1591.3 1168.84 1591.3ZM1148.76 1602.9C1148.54 1602.9 1148.33 1602.84 1148.13 1602.73L1142.4 1599.4C1142.02 1599.18 1141.78 1598.77 1141.78 1598.33L1141.72 1576.35C1141.72 1576.01 1141.86 1575.69 1142.1 1575.45C1145.49 1572.14 1148.91 1568.63 1152.25 1565.01C1152.65 1564.58 1153.28 1564.49 1153.79 1564.78L1159.49 1568.07C1159.88 1568.3 1160.11 1568.71 1160.11 1569.15L1160.2 1595.75C1160.2 1596.2 1159.96 1596.61 1159.57 1596.84L1149.38 1602.73C1149.19 1602.84 1148.97 1602.9 1148.76 1602.9ZM1114.61 1575.55L1115.34 1574.99C1148.69 1550.62 1175.56 1508.12 1183.93 1494L1181.17 1492.4C1180.8 1492.19 1180.57 1491.8 1180.55 1491.38C1180.53 1490.96 1180.73 1490.55 1181.07 1490.31L1193.56 1481.44C1193.96 1481.16 1194.49 1481.13 1194.91 1481.38L1200.62 1484.7C1201.05 1484.96 1201.29 1485.45 1201.22 1485.96L1199.08 1500.72C1199.03 1501.13 1198.77 1501.48 1198.4 1501.66C1198.02 1501.84 1197.59 1501.83 1197.23 1501.62L1194.87 1500.26C1187.94 1511.97 1158.89 1558.79 1123.11 1584.9L1122.4 1585.41C1122.19 1585.57 1121.93 1585.65 1121.67 1585.65C1121.45 1585.65 1121.24 1585.59 1121.04 1585.48L1115.34 1582.15C1115 1581.96 1114.78 1581.62 1114.73 1581.24L1114.13 1576.7C1114.08 1576.26 1114.26 1575.82 1114.61 1575.55Z" fill="#C6BDFF"/>
    <path d="M1139.78 1608.23C1139.79 1608.55 1139.61 1608.85 1139.34 1609.01L1129.09 1614.9C1128.96 1614.98 1128.8 1615.02 1128.65 1615.02C1128.49 1615.02 1128.34 1614.98 1128.2 1614.9L1128.2 1614.9L1122.46 1611.58C1122.18 1611.41 1122.01 1611.12 1122.01 1610.81L1121.97 1594.33C1121.96 1594.09 1122.17 1593.72 1122.33 1593.61C1125.66 1591.18 1129.08 1588.47 1132.52 1585.55C1132.81 1585.3 1133.22 1585.27 1133.55 1585.46L1139.29 1588.78C1139.41 1588.85 1139.5 1588.95 1139.58 1589.06L1139.59 1589.07C1139.67 1589.19 1139.71 1589.33 1139.73 1589.47C1139.73 1589.49 1139.72 1589.5 1139.72 1589.52C1139.72 1589.53 1139.73 1589.54 1139.73 1589.55L1139.78 1608.23ZM1137.95 1591.47C1136.29 1592.85 1132.75 1595.71 1129.5 1598.1C1129.5 1598.47 1129.54 1613.33 1129.54 1612.59L1137.99 1607.72L1137.95 1591.47ZM1127.75 1612.58C1127.75 1612.04 1127.7 1597.22 1127.71 1598.17L1123.76 1595.88L1123.8 1610.29L1127.75 1612.58ZM1133.19 1587.31C1130.27 1589.79 1127.34 1592.11 1124.49 1594.24L1128.53 1596.58C1131.19 1594.63 1133.53 1592.82 1137.28 1589.68L1133.19 1587.31ZM1160.02 1595.52C1160.03 1595.84 1159.85 1596.14 1159.58 1596.3L1149.33 1602.19C1149.19 1602.27 1149.04 1602.31 1148.89 1602.31C1148.73 1602.31 1148.58 1602.27 1148.44 1602.19L1142.7 1598.87C1142.42 1598.71 1142.25 1598.41 1142.25 1598.1L1142.19 1576.08C1142.19 1575.86 1142.29 1575.67 1142.44 1575.5C1142.45 1575.49 1142.44 1575.46 1142.46 1575.44C1145.86 1572.14 1149.29 1568.62 1152.66 1564.97C1152.94 1564.66 1153.4 1564.6 1153.76 1564.81L1159.5 1568.13C1159.54 1568.15 1159.53 1568.19 1159.56 1568.22C1159.72 1568.34 1159.83 1568.49 1159.88 1568.68C1159.89 1568.72 1159.93 1568.73 1159.94 1568.77C1159.94 1568.79 1159.92 1568.8 1159.92 1568.82C1159.93 1568.85 1159.95 1568.87 1159.95 1568.9L1160.02 1595.52ZM1158.17 1571.17C1156.15 1573.32 1152.73 1576.85 1149.72 1579.78L1149.78 1599.88L1158.23 1595.01L1158.17 1571.17ZM1147.99 1599.87L1147.93 1579.92L1143.98 1577.63L1144.04 1597.58L1147.99 1599.87ZM1153.49 1566.71C1150.53 1569.89 1147.53 1572.98 1144.55 1575.9L1148.68 1578.29C1151.63 1575.41 1154.07 1572.93 1157.63 1569.11L1153.49 1566.71ZM1200.39 1572.29C1200.39 1572.61 1200.22 1572.91 1199.94 1573.06L1189.7 1578.96C1189.56 1579.04 1189.41 1579.08 1189.25 1579.08C1189.1 1579.08 1188.95 1579.04 1188.81 1578.96L1188.8 1578.96L1183.06 1575.64C1182.79 1575.47 1182.62 1575.18 1182.62 1574.87L1182.48 1527.42C1182.48 1527.24 1182.54 1527.08 1182.63 1526.94C1182.64 1526.93 1182.63 1526.92 1182.64 1526.91C1187.36 1519.99 1190.79 1514.55 1192.83 1511.21C1193.08 1510.79 1193.63 1510.66 1194.04 1510.9L1199.78 1514.23C1199.82 1514.25 1199.83 1514.31 1199.87 1514.34C1199.98 1514.43 1200.06 1514.53 1200.12 1514.67C1200.13 1514.71 1200.19 1514.73 1200.2 1514.78C1200.21 1514.81 1200.18 1514.84 1200.19 1514.87C1200.19 1514.92 1200.23 1514.95 1200.23 1515L1200.39 1572.29ZM1198.45 1518.12C1196.1 1521.86 1193.01 1526.61 1190.01 1531.01L1190.14 1576.65L1198.6 1571.78L1198.45 1518.12ZM1188.35 1576.64C1188.32 1565.56 1188.26 1541.84 1188.23 1531.25L1184.28 1528.97L1184.41 1574.35L1188.35 1576.64ZM1193.9 1512.88C1191.89 1516.13 1188.79 1521.03 1184.66 1527.12L1188.84 1529.55C1192.04 1524.83 1195.11 1520.14 1198.09 1515.31L1193.9 1512.88ZM1180.2 1583.91C1180.2 1584.23 1180.03 1584.53 1179.75 1584.69L1169.51 1590.58C1169.37 1590.66 1169.22 1590.7 1169.06 1590.7C1168.91 1590.7 1168.75 1590.66 1168.62 1590.58L1162.87 1587.26C1162.6 1587.1 1162.43 1586.8 1162.43 1586.49L1162.33 1554.18C1162.33 1553.99 1162.41 1553.82 1162.53 1553.67C1162.54 1553.65 1162.53 1553.63 1162.54 1553.62C1165.93 1549.52 1169.37 1545.17 1172.74 1540.69C1173.01 1540.32 1173.52 1540.22 1173.9 1540.45L1179.64 1543.77C1179.68 1543.8 1179.68 1543.85 1179.71 1543.87C1179.85 1543.98 1179.94 1544.1 1180 1544.27C1180.01 1544.31 1180.06 1544.32 1180.07 1544.37C1180.07 1544.39 1180.05 1544.41 1180.05 1544.44C1180.06 1544.48 1180.09 1544.51 1180.09 1544.54L1180.2 1583.91ZM1178.31 1547.19C1177 1548.91 1173.03 1553.99 1169.86 1557.83C1169.87 1558.34 1169.96 1590.29 1169.95 1588.27L1178.41 1583.4L1178.31 1547.19ZM1168.16 1588.26C1168.16 1587.9 1168.07 1556.41 1168.08 1558.02L1164.13 1555.73L1164.21 1585.97L1168.16 1588.26ZM1173.69 1542.39C1170.68 1546.38 1167.62 1550.26 1164.59 1553.94L1168.75 1556.35C1171.61 1552.89 1174.19 1549.66 1177.86 1544.81L1173.69 1542.39ZM1114.48 1576.33C1114.46 1576.04 1114.59 1575.75 1114.83 1575.57L1115.55 1575.02C1149.42 1550.35 1176.52 1507.33 1184.68 1493.54L1181.61 1491.76C1181.34 1491.61 1181.18 1491.33 1181.16 1491.03C1181.15 1490.73 1181.29 1490.44 1181.54 1490.26L1194.08 1481.37C1194.37 1481.17 1194.75 1481.16 1195.05 1481.33L1200.79 1484.65L1200.8 1484.66L1200.8 1484.66C1200.83 1484.68 1200.84 1484.7 1200.86 1484.72C1200.97 1484.8 1201.06 1484.89 1201.12 1485.01C1201.15 1485.06 1201.15 1485.12 1201.17 1485.18C1201.19 1485.25 1201.23 1485.31 1201.23 1485.38C1201.23 1485.42 1201.22 1485.44 1201.21 1485.47C1201.21 1485.5 1201.23 1485.52 1201.23 1485.55L1199.08 1500.33C1199.04 1500.62 1198.85 1500.87 1198.59 1501C1198.32 1501.13 1198.01 1501.12 1197.75 1500.98L1195.08 1499.46C1158 1561.88 1123.08 1583.93 1122.23 1584.87C1122.23 1584.88 1122.22 1584.87 1122.21 1584.88C1122.2 1584.88 1122.2 1584.89 1122.19 1584.9C1122.04 1585 1121.87 1585.05 1121.7 1585.05C1121.58 1585.05 1121.46 1585.02 1121.35 1584.97C1121.33 1584.97 1121.32 1584.95 1121.31 1584.94C1121.29 1584.93 1121.27 1584.94 1121.25 1584.93L1115.51 1581.6C1115.27 1581.46 1115.11 1581.22 1115.07 1580.94L1114.49 1576.39L1114.49 1576.37C1114.49 1576.36 1114.48 1576.35 1114.48 1576.33ZM1116.98 1576.18C1117.34 1576.38 1121.41 1578.74 1121.05 1578.53C1121.41 1578.18 1155.77 1555.32 1190.44 1496.86L1187.35 1495.09L1187.35 1495.09L1186.23 1494.44C1178 1508.33 1150.89 1551.32 1116.98 1576.18ZM1194.65 1483.16L1183.71 1490.91L1186.31 1492.42C1186.33 1492.43 1186.35 1492.42 1186.37 1492.43L1187.77 1493.24L1190.61 1491.22L1198.69 1485.5L1194.65 1483.16ZM1193.98 1497.79C1194.15 1497.51 1194.45 1497.35 1194.75 1497.35C1194.9 1497.35 1195.06 1497.39 1195.19 1497.47L1197.5 1498.78L1199.16 1487.36L1189.47 1494.22L1192.13 1495.76C1192.34 1495.88 1192.48 1496.07 1192.55 1496.3C1192.61 1496.53 1192.57 1496.78 1192.45 1496.98C1157.64 1556.21 1122.49 1579.58 1122.07 1580.01L1122.39 1582.53C1158.81 1555.79 1188.4 1507.29 1193.98 1497.79ZM1120.58 1582.48L1120.28 1580.15C1119.92 1579.94 1116.13 1577.75 1116.49 1577.96L1116.79 1580.28L1120.58 1582.48Z" fill="#C2B3FF"/>
    <g style="mix-blend-mode:color-burn">
        <path d="M266.82 1252.38C264.647 1242.22 267.537 1231.64 274.573 1224L907.847 536.327C917.304 526.057 932.329 523.104 944.97 529.03L2125.06 1082.29C2141.58 1090.04 2148.29 1110.01 2139.8 1126.16L1662.52 2033.79C1656.01 2046.17 1642.22 2052.88 1628.46 2050.38L410.338 1828.43C397.586 1826.1 387.495 1816.32 384.782 1803.64L266.82 1252.38Z" fill="url(#paint4_linear_2179_3699)" fill-opacity="0.6"/>
        <path d="M266.82 1252.38C264.647 1242.22 267.537 1231.64 274.573 1224L907.847 536.327C917.304 526.057 932.329 523.104 944.97 529.03L2125.06 1082.29C2141.58 1090.04 2148.29 1110.01 2139.8 1126.16L1662.52 2033.79C1656.01 2046.17 1642.22 2052.88 1628.46 2050.38L410.338 1828.43C397.586 1826.1 387.495 1816.32 384.782 1803.64L266.82 1252.38Z" fill="url(#paint5_linear_2179_3699)"/>
    </g>
    <defs>
        <filter id="filter0_f_2179_3699" x="1047.61" y="239.048" width="1606.6" height="1627.4" filterUnits="userSpaceOnUse" color-interpolation-filters="sRGB">
            <feFlood flood-opacity="0" result="BackgroundImageFix"/>
            <feBlend mode="normal" in="SourceGraphic" in2="BackgroundImageFix" result="shape"/>
            <feGaussianBlur stdDeviation="125" result="effect1_foregroundBlur_2179_3699"/>
        </filter>
        <filter id="filter1_f_2179_3699" x="596.379" y="1230.31" width="838.168" height="492.492" filterUnits="userSpaceOnUse" color-interpolation-filters="sRGB">
            <feFlood flood-opacity="0" result="BackgroundImageFix"/>
            <feBlend mode="normal" in="SourceGraphic" in2="BackgroundImageFix" result="shape"/>
            <feGaussianBlur stdDeviation="8.07299" result="effect1_foregroundBlur_2179_3699"/>
        </filter>
        <filter id="filter2_f_2179_3699" x="619.891" y="1330.81" width="551.43" height="330.575" filterUnits="userSpaceOnUse" color-interpolation-filters="sRGB">
            <feFlood flood-opacity="0" result="BackgroundImageFix"/>
            <feBlend mode="normal" in="SourceGraphic" in2="BackgroundImageFix" result="shape"/>
            <feGaussianBlur stdDeviation="8.07299" result="effect1_foregroundBlur_2179_3699"/>
        </filter>
        <filter id="filter3_dd_2179_3699" x="912.966" y="848.624" width="515.544" height="716.888" filterUnits="userSpaceOnUse" color-interpolation-filters="sRGB">
            <feFlood flood-opacity="0" result="BackgroundImageFix"/>
            <feColorMatrix in="SourceAlpha" type="matrix" values="0 0 0 0 0 0 0 0 0 0 0 0 0 0 0 0 0 0 127 0" result="hardAlpha"/>
            <feMorphology radius="1.69365" operator="erode" in="SourceAlpha" result="effect1_dropShadow_2179_3699"/>
            <feOffset dy="3.38731"/>
            <feGaussianBlur stdDeviation="2.54048"/>
            <feColorMatrix type="matrix" values="0 0 0 0 0 0 0 0 0 0 0 0 0 0 0 0 0 0 0.05 0"/>
            <feBlend mode="normal" in2="BackgroundImageFix" result="effect1_dropShadow_2179_3699"/>
            <feColorMatrix in="SourceAlpha" type="matrix" values="0 0 0 0 0 0 0 0 0 0 0 0 0 0 0 0 0 0 127 0" result="hardAlpha"/>
            <feMorphology radius="2.54048" operator="erode" in="SourceAlpha" result="effect2_dropShadow_2179_3699"/>
            <feOffset dy="8.46827"/>
            <feGaussianBlur stdDeviation="6.3512"/>
            <feColorMatrix type="matrix" values="0 0 0 0 0 0 0 0 0 0 0 0 0 0 0 0 0 0 0.1 0"/>
            <feBlend mode="normal" in2="effect1_dropShadow_2179_3699" result="effect2_dropShadow_2179_3699"/>
            <feBlend mode="normal" in="SourceGraphic" in2="effect2_dropShadow_2179_3699" result="shape"/>
        </filter>
        <filter id="filter4_dd_2179_3699" x="884.269" y="885.083" width="544.773" height="723.14" filterUnits="userSpaceOnUse" color-interpolation-filters="sRGB">
            <feFlood flood-opacity="0" result="BackgroundImageFix"/>
            <feColorMatrix in="SourceAlpha" type="matrix" values="0 0 0 0 0 0 0 0 0 0 0 0 0 0 0 0 0 0 127 0" result="hardAlpha"/>
            <feMorphology radius="6.50313" operator="erode" in="SourceAlpha" result="effect1_dropShadow_2179_3699"/>
            <feOffset dy="13.0063"/>
            <feGaussianBlur stdDeviation="10.405"/>
            <feColorMatrix type="matrix" values="0 0 0 0 0 0 0 0 0 0 0 0 0 0 0 0 0 0 0.04 0"/>
            <feBlend mode="normal" in2="BackgroundImageFix" result="effect1_dropShadow_2179_3699"/>
            <feColorMatrix in="SourceAlpha" type="matrix" values="0 0 0 0 0 0 0 0 0 0 0 0 0 0 0 0 0 0 127 0" result="hardAlpha"/>
            <feMorphology radius="6.50313" operator="erode" in="SourceAlpha" result="effect2_dropShadow_2179_3699"/>
            <feOffset dy="26.0125"/>
            <feGaussianBlur stdDeviation="20.81"/>
            <feColorMatrix type="matrix" values="0 0 0 0 0 0 0 0 0 0 0 0 0 0 0 0 0 0 0.1 0"/>
            <feBlend mode="normal" in2="effect1_dropShadow_2179_3699" result="effect2_dropShadow_2179_3699"/>
            <feBlend mode="normal" in="SourceGraphic" in2="effect2_dropShadow_2179_3699" result="shape"/>
        </filter>
        <filter id="filter5_d_2179_3699" x="916.285" y="862.297" width="480.741" height="315.149" filterUnits="userSpaceOnUse" color-interpolation-filters="sRGB">
            <feFlood flood-opacity="0" result="BackgroundImageFix"/>
            <feColorMatrix in="SourceAlpha" type="matrix" values="0 0 0 0 0 0 0 0 0 0 0 0 0 0 0 0 0 0 127 0" result="hardAlpha"/>
            <feOffset dy="1.55044"/>
            <feGaussianBlur stdDeviation="1.55044"/>
            <feColorMatrix type="matrix" values="0 0 0 0 0 0 0 0 0 0 0 0 0 0 0 0 0 0 0.05 0"/>
            <feBlend mode="normal" in2="BackgroundImageFix" result="effect1_dropShadow_2179_3699"/>
            <feBlend mode="normal" in="SourceGraphic" in2="effect1_dropShadow_2179_3699" result="shape"/>
        </filter>
        <filter id="filter6_i_2179_3699" x="1026.75" y="1066.99" width="248.182" height="168.57" filterUnits="userSpaceOnUse" color-interpolation-filters="sRGB">
            <feFlood flood-opacity="0" result="BackgroundImageFix"/>
            <feBlend mode="normal" in="SourceGraphic" in2="BackgroundImageFix" result="shape"/>
            <feColorMatrix in="SourceAlpha" type="matrix" values="0 0 0 0 0 0 0 0 0 0 0 0 0 0 0 0 0 0 127 0" result="hardAlpha"/>
            <feOffset dy="1.68501"/>
            <feGaussianBlur stdDeviation="1.68501"/>
            <feComposite in2="hardAlpha" operator="arithmetic" k2="-1" k3="1"/>
            <feColorMatrix type="matrix" values="0 0 0 0 0 0 0 0 0 0 0 0 0 0 0 0 0 0 0.06 0"/>
            <feBlend mode="normal" in2="shape" result="effect1_innerShadow_2179_3699"/>
        </filter>
        <filter id="filter7_f_2179_3699" x="835.084" y="1021.21" width="434.223" height="378.485" filterUnits="userSpaceOnUse" color-interpolation-filters="sRGB">
            <feFlood flood-opacity="0" result="BackgroundImageFix"/>
            <feBlend mode="normal" in="SourceGraphic" in2="BackgroundImageFix" result="shape"/>
            <feGaussianBlur stdDeviation="17.4793" result="effect1_foregroundBlur_2179_3699"/>
        </filter>
        <filter id="filter8_d_2179_3699" x="842.968" y="1060.67" width="386.784" height="458.643" filterUnits="userSpaceOnUse" color-interpolation-filters="sRGB">
            <feFlood flood-opacity="0" result="BackgroundImageFix"/>
            <feColorMatrix in="SourceAlpha" type="matrix" values="0 0 0 0 0 0 0 0 0 0 0 0 0 0 0 0 0 0 127 0" result="hardAlpha"/>
            <feOffset dx="1.83993" dy="1.83993"/>
            <feGaussianBlur stdDeviation="0.919963"/>
            <feComposite in2="hardAlpha" operator="out"/>
            <feColorMatrix type="matrix" values="0 0 0 0 0 0 0 0 0 0 0 0 0 0 0 0 0 0 0.03 0"/>
            <feBlend mode="normal" in2="BackgroundImageFix" result="effect1_dropShadow_2179_3699"/>
            <feBlend mode="normal" in="SourceGraphic" in2="effect1_dropShadow_2179_3699" result="shape"/>
        </filter>
        <filter id="filter9_dd_2179_3699" x="849.162" y="1060.67" width="391.356" height="331.37" filterUnits="userSpaceOnUse" color-interpolation-filters="sRGB">
            <feFlood flood-opacity="0" result="BackgroundImageFix"/>
            <feColorMatrix in="SourceAlpha" type="matrix" values="0 0 0 0 0 0 0 0 0 0 0 0 0 0 0 0 0 0 127 0" result="hardAlpha"/>
            <feMorphology radius="3.61143" operator="erode" in="SourceAlpha" result="effect1_dropShadow_2179_3699"/>
            <feOffset dy="7.22286"/>
            <feGaussianBlur stdDeviation="3.61143"/>
            <feColorMatrix type="matrix" values="0 0 0 0 0 0 0 0 0 0 0 0 0 0 0 0 0 0 0.04 0"/>
            <feBlend mode="normal" in2="BackgroundImageFix" result="effect1_dropShadow_2179_3699"/>
            <feColorMatrix in="SourceAlpha" type="matrix" values="0 0 0 0 0 0 0 0 0 0 0 0 0 0 0 0 0 0 127 0" result="hardAlpha"/>
            <feMorphology radius="3.61143" operator="erode" in="SourceAlpha" result="effect2_dropShadow_2179_3699"/>
            <feOffset dy="14.4457"/>
            <feGaussianBlur stdDeviation="9.02858"/>
            <feColorMatrix type="matrix" values="0 0 0 0 0.654902 0 0 0 0 0.545098 0 0 0 0 0.980392 0 0 0 0.1 0"/>
            <feBlend mode="normal" in2="effect1_dropShadow_2179_3699" result="effect2_dropShadow_2179_3699"/>
            <feBlend mode="normal" in="SourceGraphic" in2="effect2_dropShadow_2179_3699" result="shape"/>
        </filter>
        <filter id="filter10_dd_2179_3699" x="846.49" y="1160.83" width="317.367" height="283.696" filterUnits="userSpaceOnUse" color-interpolation-filters="sRGB">
            <feFlood flood-opacity="0" result="BackgroundImageFix"/>
            <feColorMatrix in="SourceAlpha" type="matrix" values="0 0 0 0 0 0 0 0 0 0 0 0 0 0 0 0 0 0 127 0" result="hardAlpha"/>
            <feMorphology radius="3.61143" operator="erode" in="SourceAlpha" result="effect1_dropShadow_2179_3699"/>
            <feOffset dy="7.22286"/>
            <feGaussianBlur stdDeviation="3.61143"/>
            <feColorMatrix type="matrix" values="0 0 0 0 0 0 0 0 0 0 0 0 0 0 0 0 0 0 0.04 0"/>
            <feBlend mode="normal" in2="BackgroundImageFix" result="effect1_dropShadow_2179_3699"/>
            <feColorMatrix in="SourceAlpha" type="matrix" values="0 0 0 0 0 0 0 0 0 0 0 0 0 0 0 0 0 0 127 0" result="hardAlpha"/>
            <feMorphology radius="3.61143" operator="erode" in="SourceAlpha" result="effect2_dropShadow_2179_3699"/>
            <feOffset dy="14.4457"/>
            <feGaussianBlur stdDeviation="9.02858"/>
            <feColorMatrix type="matrix" values="0 0 0 0 0.654902 0 0 0 0 0.545098 0 0 0 0 0.980392 0 0 0 0.1 0"/>
            <feBlend mode="normal" in2="effect1_dropShadow_2179_3699" result="effect2_dropShadow_2179_3699"/>
            <feBlend mode="normal" in="SourceGraphic" in2="effect2_dropShadow_2179_3699" result="shape"/>
        </filter>
        <filter id="filter11_dd_2179_3699" x="846.487" y="1254.93" width="317.723" height="283.918" filterUnits="userSpaceOnUse" color-interpolation-filters="sRGB">
            <feFlood flood-opacity="0" result="BackgroundImageFix"/>
            <feColorMatrix in="SourceAlpha" type="matrix" values="0 0 0 0 0 0 0 0 0 0 0 0 0 0 0 0 0 0 127 0" result="hardAlpha"/>
            <feMorphology radius="3.61143" operator="erode" in="SourceAlpha" result="effect1_dropShadow_2179_3699"/>
            <feOffset dy="7.22286"/>
            <feGaussianBlur stdDeviation="3.61143"/>
            <feColorMatrix type="matrix" values="0 0 0 0 0 0 0 0 0 0 0 0 0 0 0 0 0 0 0.04 0"/>
            <feBlend mode="normal" in2="BackgroundImageFix" result="effect1_dropShadow_2179_3699"/>
            <feColorMatrix in="SourceAlpha" type="matrix" values="0 0 0 0 0 0 0 0 0 0 0 0 0 0 0 0 0 0 127 0" result="hardAlpha"/>
            <feMorphology radius="3.61143" operator="erode" in="SourceAlpha" result="effect2_dropShadow_2179_3699"/>
            <feOffset dy="14.4457"/>
            <feGaussianBlur stdDeviation="9.02858"/>
            <feColorMatrix type="matrix" values="0 0 0 0 0.654902 0 0 0 0 0.545098 0 0 0 0 0.980392 0 0 0 0.1 0"/>
            <feBlend mode="normal" in2="effect1_dropShadow_2179_3699" result="effect2_dropShadow_2179_3699"/>
            <feBlend mode="normal" in="SourceGraphic" in2="effect2_dropShadow_2179_3699" result="shape"/>
        </filter>
        <filter id="filter12_dd_2179_3699" x="840.03" y="1173.47" width="298.386" height="251.74" filterUnits="userSpaceOnUse" color-interpolation-filters="sRGB">
            <feFlood flood-opacity="0" result="BackgroundImageFix"/>
            <feColorMatrix in="SourceAlpha" type="matrix" values="0 0 0 0 0 0 0 0 0 0 0 0 0 0 0 0 0 0 127 0" result="hardAlpha"/>
            <feOffset dy="0.979357"/>
            <feGaussianBlur stdDeviation="0.979357"/>
            <feColorMatrix type="matrix" values="0 0 0 0 0 0 0 0 0 0 0 0 0 0 0 0 0 0 0.06 0"/>
            <feBlend mode="normal" in2="BackgroundImageFix" result="effect1_dropShadow_2179_3699"/>
            <feColorMatrix in="SourceAlpha" type="matrix" values="0 0 0 0 0 0 0 0 0 0 0 0 0 0 0 0 0 0 127 0" result="hardAlpha"/>
            <feOffset dy="0.979357"/>
            <feGaussianBlur stdDeviation="1.46904"/>
            <feColorMatrix type="matrix" values="0 0 0 0 0 0 0 0 0 0 0 0 0 0 0 0 0 0 0.1 0"/>
            <feBlend mode="normal" in2="effect1_dropShadow_2179_3699" result="effect2_dropShadow_2179_3699"/>
            <feBlend mode="normal" in="SourceGraphic" in2="effect2_dropShadow_2179_3699" result="shape"/>
        </filter>
        <filter id="filter13_dd_2179_3699" x="1060.52" y="1309.37" width="68.9958" height="105.288" filterUnits="userSpaceOnUse" color-interpolation-filters="sRGB">
            <feFlood flood-opacity="0" result="BackgroundImageFix"/>
            <feColorMatrix in="SourceAlpha" type="matrix" values="0 0 0 0 0 0 0 0 0 0 0 0 0 0 0 0 0 0 127 0" result="hardAlpha"/>
            <feMorphology radius="0.668619" operator="erode" in="SourceAlpha" result="effect1_dropShadow_2179_3699"/>
            <feOffset dy="1.33724"/>
            <feGaussianBlur stdDeviation="1.33724"/>
            <feColorMatrix type="matrix" values="0 0 0 0 0 0 0 0 0 0 0 0 0 0 0 0 0 0 0.06 0"/>
            <feBlend mode="normal" in2="BackgroundImageFix" result="effect1_dropShadow_2179_3699"/>
            <feColorMatrix in="SourceAlpha" type="matrix" values="0 0 0 0 0 0 0 0 0 0 0 0 0 0 0 0 0 0 127 0" result="hardAlpha"/>
            <feMorphology radius="0.668619" operator="erode" in="SourceAlpha" result="effect2_dropShadow_2179_3699"/>
            <feOffset dy="2.67448"/>
            <feGaussianBlur stdDeviation="2.00586"/>
            <feColorMatrix type="matrix" values="0 0 0 0 0 0 0 0 0 0 0 0 0 0 0 0 0 0 0.1 0"/>
            <feBlend mode="normal" in2="effect1_dropShadow_2179_3699" result="effect2_dropShadow_2179_3699"/>
            <feBlend mode="normal" in="SourceGraphic" in2="effect2_dropShadow_2179_3699" result="shape"/>
        </filter>
        <filter id="filter14_dd_2179_3699" x="837.968" y="1267.77" width="302.51" height="255.864" filterUnits="userSpaceOnUse" color-interpolation-filters="sRGB">
            <feFlood flood-opacity="0" result="BackgroundImageFix"/>
            <feColorMatrix in="SourceAlpha" type="matrix" values="0 0 0 0 0 0 0 0 0 0 0 0 0 0 0 0 0 0 127 0" result="hardAlpha"/>
            <feOffset dy="0.979357"/>
            <feGaussianBlur stdDeviation="0.979357"/>
            <feColorMatrix type="matrix" values="0 0 0 0 0 0 0 0 0 0 0 0 0 0 0 0 0 0 0.06 0"/>
            <feBlend mode="normal" in2="BackgroundImageFix" result="effect1_dropShadow_2179_3699"/>
            <feColorMatrix in="SourceAlpha" type="matrix" values="0 0 0 0 0 0 0 0 0 0 0 0 0 0 0 0 0 0 127 0" result="hardAlpha"/>
            <feOffset dy="3"/>
            <feGaussianBlur stdDeviation="2.5"/>
            <feColorMatrix type="matrix" values="0 0 0 0 0 0 0 0 0 0 0 0 0 0 0 0 0 0 0.1 0"/>
            <feBlend mode="normal" in2="effect1_dropShadow_2179_3699" result="effect2_dropShadow_2179_3699"/>
            <feBlend mode="normal" in="SourceGraphic" in2="effect2_dropShadow_2179_3699" result="shape"/>
        </filter>
        <filter id="filter15_dd_2179_3699" x="1060.52" y="1403.7" width="68.9958" height="105.288" filterUnits="userSpaceOnUse" color-interpolation-filters="sRGB">
            <feFlood flood-opacity="0" result="BackgroundImageFix"/>
            <feColorMatrix in="SourceAlpha" type="matrix" values="0 0 0 0 0 0 0 0 0 0 0 0 0 0 0 0 0 0 127 0" result="hardAlpha"/>
            <feMorphology radius="0.668619" operator="erode" in="SourceAlpha" result="effect1_dropShadow_2179_3699"/>
            <feOffset dy="1.33724"/>
            <feGaussianBlur stdDeviation="1.33724"/>
            <feColorMatrix type="matrix" values="0 0 0 0 0 0 0 0 0 0 0 0 0 0 0 0 0 0 0.06 0"/>
            <feBlend mode="normal" in2="BackgroundImageFix" result="effect1_dropShadow_2179_3699"/>
            <feColorMatrix in="SourceAlpha" type="matrix" values="0 0 0 0 0 0 0 0 0 0 0 0 0 0 0 0 0 0 127 0" result="hardAlpha"/>
            <feMorphology radius="0.668619" operator="erode" in="SourceAlpha" result="effect2_dropShadow_2179_3699"/>
            <feOffset dy="2.67448"/>
            <feGaussianBlur stdDeviation="2.00586"/>
            <feColorMatrix type="matrix" values="0 0 0 0 0 0 0 0 0 0 0 0 0 0 0 0 0 0 0.1 0"/>
            <feBlend mode="normal" in2="effect1_dropShadow_2179_3699" result="effect2_dropShadow_2179_3699"/>
            <feBlend mode="normal" in="SourceGraphic" in2="effect2_dropShadow_2179_3699" result="shape"/>
        </filter>
        <filter id="filter16_d_2179_3699" x="865.985" y="1102.01" width="29.9309" height="45.6238" filterUnits="userSpaceOnUse" color-interpolation-filters="sRGB">
            <feFlood flood-opacity="0" result="BackgroundImageFix"/>
            <feColorMatrix in="SourceAlpha" type="matrix" values="0 0 0 0 0 0 0 0 0 0 0 0 0 0 0 0 0 0 127 0" result="hardAlpha"/>
            <feOffset dy="1.04914"/>
            <feGaussianBlur stdDeviation="1.04914"/>
            <feColorMatrix type="matrix" values="0 0 0 0 0 0 0 0 0 0 0 0 0 0 0 0 0 0 0.05 0"/>
            <feBlend mode="normal" in2="BackgroundImageFix" result="effect1_dropShadow_2179_3699"/>
            <feBlend mode="normal" in="SourceGraphic" in2="effect1_dropShadow_2179_3699" result="shape"/>
        </filter>
        <filter id="filter17_dd_2179_3699" x="1136.11" y="1247.53" width="71.4109" height="115.643" filterUnits="userSpaceOnUse" color-interpolation-filters="sRGB">
            <feFlood flood-opacity="0" result="BackgroundImageFix"/>
            <feColorMatrix in="SourceAlpha" type="matrix" values="0 0 0 0 0 0 0 0 0 0 0 0 0 0 0 0 0 0 127 0" result="hardAlpha"/>
            <feMorphology radius="0.61599" operator="erode" in="SourceAlpha" result="effect1_dropShadow_2179_3699"/>
            <feOffset dy="1.23198"/>
            <feGaussianBlur stdDeviation="1.23198"/>
            <feColorMatrix type="matrix" values="0 0 0 0 0 0 0 0 0 0 0 0 0 0 0 0 0 0 0.06 0"/>
            <feBlend mode="normal" in2="BackgroundImageFix" result="effect1_dropShadow_2179_3699"/>
            <feColorMatrix in="SourceAlpha" type="matrix" values="0 0 0 0 0 0 0 0 0 0 0 0 0 0 0 0 0 0 127 0" result="hardAlpha"/>
            <feMorphology radius="0.61599" operator="erode" in="SourceAlpha" result="effect2_dropShadow_2179_3699"/>
            <feOffset dy="2.46396"/>
            <feGaussianBlur stdDeviation="1.84797"/>
            <feColorMatrix type="matrix" values="0 0 0 0 0 0 0 0 0 0 0 0 0 0 0 0 0 0 0.1 0"/>
            <feBlend mode="normal" in2="effect1_dropShadow_2179_3699" result="effect2_dropShadow_2179_3699"/>
            <feBlend mode="normal" in="SourceGraphic" in2="effect2_dropShadow_2179_3699" result="shape"/>
        </filter>
        <filter id="filter18_f_2179_3699" x="807.486" y="1132.66" width="439.742" height="289.136" filterUnits="userSpaceOnUse" color-interpolation-filters="sRGB">
            <feFlood flood-opacity="0" result="BackgroundImageFix"/>
            <feBlend mode="normal" in="SourceGraphic" in2="BackgroundImageFix" result="shape"/>
            <feGaussianBlur stdDeviation="15.6394" result="effect1_foregroundBlur_2179_3699"/>
        </filter>
        <radialGradient id="paint0_radial_2179_3699" cx="0" cy="0" r="1" gradientUnits="userSpaceOnUse" gradientTransform="translate(1106.07 1635.5) rotate(150) scale(758.583 760.605)">
            <stop stop-color="#F4F4F4"/>
            <stop offset="0.72182" stop-color="#898989" stop-opacity="0"/>
        </radialGradient>
        <linearGradient id="paint1_linear_2179_3699" x1="1154.02" y1="1393.48" x2="985.325" y2="1679.34" gradientUnits="userSpaceOnUse">
            <stop stop-color="#4B5563"/>
            <stop offset="1" stop-color="#4B5563" stop-opacity="0"/>
        </linearGradient>
        <linearGradient id="paint2_linear_2179_3699" x1="1005.49" y1="1430.2" x2="867.57" y2="1658.29" gradientUnits="userSpaceOnUse">
            <stop stop-color="#4B5563"/>
            <stop offset="1" stop-color="#4B5563" stop-opacity="0"/>
        </linearGradient>
        <linearGradient id="paint3_linear_2179_3699" x1="1156.66" y1="1035.08" x2="993.615" y2="1317.47" gradientUnits="userSpaceOnUse">
            <stop stop-color="white"/>
            <stop offset="0.0001" stop-color="#F9FAFB"/>
            <stop offset="1" stop-color="#F3F4F6"/>
        </linearGradient>
        <linearGradient id="paint4_linear_2179_3699" x1="750.362" y1="777.509" x2="1736.66" y2="1541.38" gradientUnits="userSpaceOnUse">
            <stop stop-color="#DED9FC"/>
            <stop offset="0.136573" stop-color="#725CF6"/>
            <stop offset="0.244792" stop-color="#5854FD"/>
            <stop offset="0.369792" stop-color="#FFC368" stop-opacity="0.75"/>
            <stop offset="0.4375" stop-color="#EF9AF3" stop-opacity="0.79"/>
            <stop offset="0.530697" stop-color="#7C79FE"/>
            <stop offset="0.694752" stop-color="#5854FD"/>
            <stop offset="0.942708" stop-color="#9C4FFF"/>
            <stop offset="1" stop-color="#E1D5FF"/>
        </linearGradient>
        <linearGradient id="paint5_linear_2179_3699" x1="1032.76" y1="1880.59" x2="1352.76" y2="1052.09" gradientUnits="userSpaceOnUse">
            <stop offset="0.0027083" stop-color="white"/>
            <stop offset="0.120411" stop-color="white" stop-opacity="0"/>
        </linearGradient>
    </defs>
</svg>