<svg  viewBox="0 0 840 1020" fill="none" xmlns="http://www.w3.org/2000/svg">
<path d="M187.104 827.409L193.397 827.409L193.397 834.227L187.104 834.227L187.104 827.409Z" fill="#F8B545"/>
<path d="M120.506 767.097C111.588 767.097 103.72 769.197 97.4268 772.872C91.6588 776.54 87.9908 781.783 87.4658 787.551L87.4658 794.999C87.4658 801.299 91.6658 807.067 97.4268 810.735C103.727 814.403 111.588 816.503 120.506 816.503C128.892 816.503 136.76 814.403 143.053 810.735C148.821 807.067 153.021 801.299 153.021 795.006L153.021 787.663C152.496 781.895 148.821 776.652 143.053 772.977C136.76 769.309 128.892 767.209 120.506 767.209L120.506 767.097ZM120.506 780.208C127.849 780.208 134.667 782.308 139.385 784.933C142.535 787.033 144.628 789.126 145.678 791.744C144.628 794.369 142.528 796.469 139.378 798.562C134.667 801.187 127.849 803.287 120.506 803.287C112.638 803.287 105.82 801.187 101.102 798.562C97.9518 796.462 95.8518 794.369 94.8018 791.744C95.8518 789.126 97.9518 787.026 101.102 784.933C105.82 782.308 112.638 780.208 120.506 780.208Z" fill="#4399C0"/>
<path d="M143.06 803.812L142.01 803.812L142.01 810.623L186.054 835.795C187.104 836.845 188.679 836.845 190.254 836.845C191.822 836.285 192.872 835.795 193.397 834.745C193.922 833.695 193.397 832.645 192.347 832.127L143.06 803.812Z" fill="#F8B545"/>
<path d="M192.347 825.309L143.053 796.994L136.235 800.662L186.054 829.502C187.104 830.062 188.679 830.552 190.254 830.062C191.822 830.062 192.872 829.019 193.404 827.962C193.922 827.402 193.404 826.394 192.354 825.344L192.347 825.309Z" fill="#FECB5B"/>
<path d="M120.506 767.097C111.588 767.097 103.72 769.197 97.4268 772.872C91.6588 776.54 87.4658 781.783 87.4658 788.601C87.4658 794.894 91.6658 800.137 97.4268 803.812C103.727 807.48 111.588 809.58 120.506 809.58C128.892 809.58 136.76 807.48 143.053 803.812C148.821 800.137 153.021 794.894 153.021 788.601C153.021 781.783 148.821 776.54 143.053 772.872C136.76 769.197 128.892 767.097 120.506 767.097ZM120.506 773.915C127.849 773.915 134.667 775.49 139.385 778.64C144.103 781.258 146.728 784.926 146.728 788.601C146.728 791.751 144.103 795.419 139.378 798.562C134.667 801.187 127.849 803.287 120.506 803.287C112.638 803.287 105.82 801.187 101.102 798.562C96.3838 795.412 94.2838 791.744 94.2838 788.601C94.2838 784.926 96.3838 781.258 101.102 778.64C105.82 775.49 112.638 773.915 120.506 773.915Z" fill="#6DB0CF"/>
<path d="M268.852 510.544L267.808 520.472L203.651 549.032L204.696 539.095L268.852 510.544ZM272.328 477.496L271.284 487.425L207.126 515.993L208.171 506.064L272.328 477.496ZM275.946 443.102L274.902 453.03L210.745 481.589L211.789 471.661L275.946 443.102ZM279.593 408.431L278.549 418.359L214.391 446.927L215.435 436.999L279.593 408.431ZM265.2 544.935L264.156 554.863L199.999 583.423L201.043 573.494L265.2 544.935Z" fill="#FECB5B"/>
<path d="M261.267 582.16L253.129 576.546L272.691 390.562L280.8 396.452L261.267 582.16ZM244.001 580.343L253.129 576.546L272.691 390.562L263.534 394.635L244.001 580.343Z" fill="#ED4A4B"/>
<path d="M263.531 394.67L271.669 400.283L252.108 586.259L243.998 580.378L263.531 394.67Z" fill="#FECB5B"/>
<path d="M280.797 396.486L271.669 400.283L252.108 586.258L261.264 582.194L280.797 396.486Z" fill="#F8B545"/>
<path d="M264.165 554.864L263.121 564.792L198.955 593.351L199.999 583.423L264.165 554.864Z" fill="#F8B545"/>
<path d="M206.319 606.651L198.181 601.038L217.742 415.062L225.851 420.952L206.319 606.651ZM189.053 604.835L198.181 601.038L217.742 415.062L208.586 419.127L189.053 604.835Z" fill="#ED4A4B"/>
<path d="M208.582 419.17L216.72 424.783L197.16 610.75L189.05 604.869L208.582 419.17Z" fill="#FECB5B"/>
<path d="M225.848 420.986L216.72 424.783L197.159 610.75L206.316 606.686L225.848 420.986Z" fill="#F8B545"/>
<path d="M267.808 520.472L266.764 530.401L202.607 558.96L203.652 549.032L267.808 520.472ZM271.284 487.425L270.24 497.353L206.082 525.921L207.127 515.993L271.284 487.425ZM274.902 453.03L273.858 462.958L209.701 491.518L210.745 481.59L274.902 453.03ZM278.549 418.359L277.505 428.288L213.347 456.856L214.391 446.927L278.549 418.359Z" fill="#F8B545"/>
<g opacity="0.07" filter="url(#filter0_f_2194_781)">
<path d="M260.263 625.956L559.641 792.441L344.981 921.021C338.09 925.149 326.814 925.33 319.795 921.426L45.8367 769.077C38.8172 765.174 38.7125 758.663 45.6029 754.536L260.263 625.956Z" fill="url(#paint0_linear_2194_781)"/>
</g>
<g filter="url(#filter1_dd_2194_781)">
<path d="M352.629 129.767C354.095 128.998 356.045 129.222 358.071 130.393L817.18 395.459C820.291 397.255 822.813 401.624 822.813 405.216L822.813 809.314C822.813 812.768 821.492 815.284 819.203 816.187L794.637 825.882L362.646 549.566C358.216 546.733 354.644 540.658 354.283 535.345L327.594 142.88L352.629 129.767Z" fill="#E5E7EB"/>
</g>
<g filter="url(#filter2_dd_2194_781)">
<path d="M327.23 179.04L795.011 449.113L795.011 815.398C795.011 821.054 791.041 823.346 786.144 820.518L336.098 560.685C331.201 557.857 327.23 550.98 327.23 545.325L327.23 179.04Z" fill="url(#paint1_linear_2194_781)"/>
<path d="M327.23 177.089L325.541 176.114L325.541 178.065L325.541 544.35C325.541 551.082 330.268 559.269 336.098 562.636L786.144 822.469C791.974 825.836 796.701 823.107 796.701 816.374L796.701 450.089L796.701 448.138L795.011 447.163L327.23 177.089Z" stroke="white" stroke-width="3.90188"/>
</g>
<g filter="url(#filter3_d_2194_781)">
<mask id="path-19-outside-1_2194_781" maskUnits="userSpaceOnUse" x="323.766" y="140.006" width="475.448" height="312.5" fill="black">
<rect fill="white" x="323.766" y="140.006" width="475.448" height="312.5"/>
<path d="M327.23 149.162C327.23 147.419 328.454 146.713 329.963 147.584L792.279 414.502C793.788 415.373 795.011 417.493 795.011 419.235L795.011 449.844L327.23 179.771L327.23 149.162Z"/>
</mask>
<path d="M327.23 149.162C327.23 147.419 328.454 146.713 329.963 147.584L792.279 414.502C793.788 415.373 795.011 417.493 795.011 419.235L795.011 449.844L327.23 179.771L327.23 149.162Z" fill="#F9FAFB"/>
<path d="M323.851 147.211C323.851 143.313 326.588 141.733 329.963 143.682L792.279 410.6C795.654 412.549 798.391 417.289 798.391 421.186L791.632 418.031L330.61 151.859L323.851 147.211ZM795.011 449.844L327.23 179.771L795.011 449.844ZM323.851 177.82L323.851 147.211C323.851 143.313 326.588 141.733 329.963 143.682L330.61 151.859L330.61 181.721L323.851 177.82ZM792.279 410.6C795.654 412.549 798.391 417.289 798.391 421.186L798.391 451.795L791.632 447.893L791.632 418.031L792.279 410.6Z" fill="white" mask="url(#path-19-outside-1_2194_781)"/>
</g>
<circle cx="3.78658" cy="3.78658" r="3.78658" transform="matrix(0.866025 0.5 -2.20305e-08 1 338.455 164.043)" fill="#EF4444"/>
<circle cx="3.78658" cy="3.78658" r="3.78658" transform="matrix(0.866025 0.5 -2.20305e-08 1 349.386 170.354)" fill="#F59E0B"/>
<circle cx="3.78658" cy="3.78658" r="3.78658" transform="matrix(0.866025 0.5 -2.20305e-08 1 360.316 176.665)" fill="#10B981"/>
<rect width="273.913" height="15.5044" rx="3.10088" transform="matrix(0.866025 0.5 -2.20305e-08 1 451.698 226.985)" fill="#E5E7EB"/>
<g filter="url(#filter4_i_2194_781)">
<rect width="286.575" height="35.0274" rx="14.9711" transform="matrix(0.866025 0.5 -2.20305e-08 1 431.221 340.272)" fill="#E5E7EB"/>
</g>
<path d="M543.061 364.165C542.972 363.756 542.847 363.367 542.686 363C542.524 362.627 542.327 362.278 542.093 361.951C541.864 361.623 541.601 361.321 541.303 361.047C541.01 360.775 540.685 360.536 540.329 360.33C539.662 359.945 539.076 359.798 538.571 359.888C538.07 359.981 537.679 360.312 537.399 360.881C537.118 361.445 536.978 362.252 536.978 363.301C536.978 364.35 537.116 365.323 537.392 366.218C537.668 367.112 538.059 367.899 538.564 368.579C539.07 369.253 539.666 369.788 540.354 370.186C540.978 370.546 541.511 370.726 541.953 370.726C542.399 370.724 542.739 370.555 542.972 370.219C543.21 369.885 543.329 369.397 543.329 368.755L543.89 369.174L540.526 367.233L540.526 364.835L545.985 367.986L545.985 369.884C545.985 371.208 545.743 372.206 545.259 372.878C544.775 373.545 544.108 373.89 543.259 373.915C542.41 373.934 541.437 373.628 540.342 372.995C539.118 372.289 538.044 371.358 537.118 370.2C536.193 369.038 535.471 367.731 534.953 366.28C534.439 364.826 534.182 363.305 534.182 361.716C534.182 360.495 534.335 359.495 534.64 358.715C534.95 357.933 535.384 357.369 535.94 357.023C536.496 356.678 537.144 356.544 537.883 356.623C538.622 356.701 539.422 356.989 540.284 357.487C541.023 357.913 541.711 358.436 542.348 359.053C542.985 359.666 543.55 360.341 544.042 361.076C544.539 361.814 544.945 362.585 545.259 363.389C545.573 364.189 545.775 364.987 545.864 365.784L543.061 364.165ZM552.427 379.987C551.437 379.416 550.582 378.679 549.86 377.777C549.142 376.873 548.588 375.871 548.197 374.773C547.806 373.669 547.611 372.539 547.611 371.382C547.611 370.215 547.806 369.308 548.197 368.66C548.588 368.008 549.142 367.647 549.86 367.575C550.582 367.502 551.437 367.751 552.427 368.322C553.416 368.893 554.27 369.631 554.987 370.536C555.709 371.438 556.266 372.441 556.656 373.544C557.047 374.643 557.242 375.775 557.242 376.942C557.242 378.1 557.047 379.004 556.656 379.657C556.266 380.304 555.709 380.664 554.987 380.738C554.27 380.809 553.416 380.559 552.427 379.987ZM552.439 377.568C552.89 377.827 553.265 377.897 553.567 377.777C553.868 377.652 554.096 377.376 554.248 376.95C554.406 376.526 554.484 375.985 554.484 375.328C554.484 374.671 554.406 374.04 554.248 373.434C554.096 372.831 553.868 372.293 553.567 371.819C553.265 371.346 552.89 370.98 552.439 370.72C551.985 370.458 551.603 370.386 551.293 370.507C550.987 370.629 550.756 370.903 550.599 371.327C550.446 371.753 550.369 372.295 550.369 372.952C550.369 373.609 550.446 374.239 550.599 374.842C550.756 375.448 550.987 375.989 551.293 376.464C551.603 376.938 551.985 377.305 552.439 377.568ZM563.427 386.339C562.438 385.768 561.582 385.031 560.86 384.129C560.143 383.224 559.589 382.222 559.198 381.124C558.807 380.021 558.612 378.89 558.612 377.733C558.612 376.566 558.807 375.659 559.198 375.012C559.589 374.359 560.143 373.998 560.86 373.927C561.582 373.853 562.438 374.102 563.427 374.673C564.417 375.245 565.27 375.983 565.988 376.887C566.71 377.789 567.266 378.792 567.657 379.896C568.048 380.994 568.243 382.127 568.243 383.294C568.243 384.451 568.048 385.356 567.657 386.008C567.266 386.655 566.71 387.015 565.988 387.089C565.27 387.16 564.417 386.91 563.427 386.339ZM563.44 383.919C563.89 384.179 564.266 384.249 564.568 384.129C564.869 384.003 565.096 383.728 565.249 383.301C565.406 382.877 565.485 382.336 565.485 381.679C565.485 381.022 565.406 380.391 565.249 379.785C565.096 379.182 564.869 378.644 564.568 378.171C564.266 377.698 563.89 377.331 563.44 377.071C562.986 376.809 562.604 376.738 562.294 376.858C561.988 376.98 561.756 377.254 561.599 377.678C561.446 378.105 561.37 378.646 561.37 379.303C561.37 379.961 561.446 380.591 561.599 381.194C561.756 381.799 561.988 382.34 562.294 382.816C562.604 383.289 562.986 383.657 563.44 383.919ZM574.415 396.934C573.536 396.427 572.783 395.852 572.154 395.209C571.53 394.574 571.033 393.912 570.664 393.223C570.294 392.534 570.054 391.861 569.944 391.204L572.454 392.263C572.53 392.533 572.651 392.814 572.817 393.106C572.982 393.397 573.201 393.681 573.473 393.955C573.749 394.237 574.084 394.492 574.479 394.72C575.069 395.061 575.556 395.175 575.938 395.062C576.324 394.957 576.517 394.517 576.517 393.742L576.517 391.675L576.403 391.609C576.284 391.854 576.106 392.048 575.868 392.19C575.63 392.332 575.324 392.384 574.951 392.344C574.577 392.305 574.131 392.136 573.613 391.837C572.878 391.413 572.209 390.83 571.606 390.09C571.008 389.347 570.53 388.466 570.173 387.446C569.821 386.423 569.644 385.287 569.644 384.037C569.644 382.757 569.825 381.792 570.186 381.142C570.547 380.493 571.027 380.127 571.625 380.046C572.228 379.968 572.889 380.136 573.606 380.55C574.154 380.866 574.613 381.239 574.982 381.668C575.352 382.092 575.649 382.529 575.874 382.977C576.103 383.424 576.28 383.834 576.403 384.209L576.505 384.268L576.505 382.371L579.199 383.926L579.199 395.334C579.199 396.295 578.995 396.982 578.588 397.394C578.18 397.806 577.615 397.965 576.893 397.872C576.176 397.786 575.35 397.473 574.415 396.934ZM574.473 389.98C574.91 390.232 575.28 390.32 575.581 390.244C575.887 390.166 576.12 389.938 576.282 389.56C576.447 389.18 576.53 388.659 576.53 387.997C576.53 387.335 576.45 386.715 576.288 386.136C576.127 385.553 575.893 385.038 575.587 384.592C575.282 384.146 574.91 383.796 574.473 383.544C574.027 383.286 573.651 383.209 573.345 383.312C573.04 383.41 572.808 383.659 572.651 384.059C572.494 384.458 572.415 384.979 572.415 385.622C572.415 386.274 572.494 386.883 572.651 387.449C572.812 388.013 573.044 388.512 573.345 388.946C573.651 389.378 574.027 389.722 574.473 389.98ZM584.072 382.974L584.072 398.037L581.359 396.471L581.359 381.407L584.072 382.974ZM590.705 402.087C589.698 401.506 588.832 400.771 588.106 399.881C587.384 398.988 586.828 397.995 586.437 396.902C586.046 395.803 585.851 394.658 585.851 393.467C585.851 392.305 586.046 391.398 586.437 390.745C586.828 390.093 587.378 389.727 588.087 389.646C588.8 389.567 589.637 389.805 590.596 390.359C591.242 390.732 591.843 391.199 592.399 391.761C592.96 392.32 593.448 392.957 593.864 393.673C594.285 394.391 594.612 395.178 594.845 396.034C595.079 396.885 595.195 397.791 595.195 398.752L595.195 399.612L586.934 394.842L586.934 392.901L592.641 396.196C592.641 395.745 592.556 395.296 592.386 394.85C592.217 394.404 591.981 393.995 591.679 393.625C591.382 393.252 591.036 392.952 590.641 392.724C590.229 392.486 589.864 392.386 589.545 392.422C589.231 392.457 588.985 392.606 588.807 392.871C588.628 393.131 588.537 393.483 588.533 393.927L588.533 395.773C588.533 396.332 588.622 396.866 588.8 397.376C588.983 397.889 589.24 398.351 589.571 398.763C589.902 399.175 590.295 399.512 590.749 399.774C591.051 399.948 591.327 400.058 591.577 400.105C591.828 400.152 592.042 400.128 592.221 400.035C592.399 399.942 592.535 399.78 592.628 399.55L595.138 401.19C595.011 401.813 594.75 402.27 594.355 402.562C593.964 402.851 593.459 402.961 592.839 402.893C592.223 402.822 591.512 402.553 590.705 402.087Z" fill="#4B5563"/>
<g filter="url(#filter5_f_2194_781)">
<rect width="420.663" height="103.82" rx="7.31462" transform="matrix(0.866025 0.5 -2.20305e-08 1 274.509 332.378)" fill="#A78BFA" fill-opacity="0.15"/>
</g>
<g filter="url(#filter6_d_2194_781)">
<g filter="url(#filter7_dd_2194_781)">
<rect width="418.17" height="93.9474" rx="5.77829" transform="matrix(0.866789 0.498676 -2.21085e-08 1 268.073 339.669)" fill="#D1D0FF"/>
</g>
<rect x="252.54" y="350.856" width="19.5604" height="18.0501" transform="rotate(-27 252.54 350.856)" fill="#D1D0FF"/>
<rect x="605.699" y="631.236" width="16.6485" height="18.367" transform="rotate(-27 605.699 631.236)" fill="#D1D0FF"/>
<rect width="16.6138" height="21.8839" transform="matrix(0.891654 -0.452718 0.455265 0.890356 516.854 584.962)" fill="#D1D5DB"/>
<g filter="url(#filter8_dd_2194_781)">
<rect width="333.103" height="88.2534" rx="5.77829" transform="matrix(0.866025 0.5 -2.20305e-08 1 265.401 439.834)" fill="#D1D5DB"/>
</g>
<rect x="251.503" y="454.463" width="19.5604" height="18.2844" transform="rotate(-27 251.503 454.463)" fill="#D1D5DB"/>
<rect x="527.759" y="679.886" width="16.8305" height="22.2155" transform="rotate(-27 527.759 679.886)" fill="#D1D5DB"/>
<g filter="url(#filter9_dd_2194_781)">
<rect width="333.514" height="88.2694" rx="5.77829" transform="matrix(0.866025 0.5 -2.20305e-08 1 265.398 533.927)" fill="#D1D5DB"/>
</g>
<rect x="251.721" y="548.986" width="19.5604" height="17.8016" transform="rotate(-27 251.721 548.986)" fill="#D1D5DB"/>
<rect x="527.036" y="774.345" width="17.6383" height="22.4238" transform="rotate(-27 527.036 774.345)" fill="#D1D5DB"/>
<g filter="url(#filter10_dd_2194_781)">
<rect width="333.103" height="79.1992" rx="6.67615" transform="matrix(0.866025 0.5 -2.20305e-08 1 249.451 454.49)" fill="#F9FAFB"/>
<rect width="199.163" height="11.6469" rx="5.15584" transform="matrix(0.866025 0.5 -2.20305e-08 1 272.579 488.807)" fill="#E5E7EB"/>
<rect width="132.775" height="11.6469" rx="5.15584" transform="matrix(0.866025 0.5 -2.20305e-08 1 272.579 510.468)" fill="#E5E7EB"/>
<g filter="url(#filter11_dd_2194_781)">
<rect width="71.9485" height="65.6305" rx="3.93288" transform="matrix(0.866025 0.5 -2.20305e-08 1 468.33 587.536)" fill="#E5E7EB"/>
<rect x="0.504327" y="0.873521" width="70.7838" height="64.4658" rx="3.35054" transform="matrix(0.866025 0.5 -2.20305e-08 1 468.398 587.283)" stroke="white" stroke-width="1.16469"/>
</g>
<mask id="mask0_2194_781" style="mask-type:alpha" maskUnits="userSpaceOnUse" x="472" y="595" width="55" height="87">
<rect width="62.6083" height="57.1105" rx="3.93288" transform="matrix(0.866025 0.5 -2.20305e-08 1 472.375 594.131)" fill="white"/>
</mask>
<g mask="url(#mask0_2194_781)">
<path d="M511.258 648.743C512.075 648.076 513.588 648.95 514.405 650.561L529.848 681.002C530.951 683.177 530.004 684.957 528.274 683.958L497.389 666.127C495.66 665.128 494.712 662.254 495.816 661.353L511.258 648.743Z" fill="#D1D5DB"/>
<path d="M486.493 625.599C487.31 624.932 488.823 625.805 489.641 627.416L511.525 670.557C512.629 672.733 511.681 674.513 509.952 673.514L466.182 648.243C464.452 647.245 463.505 644.371 464.608 643.47L486.493 625.599Z" fill="#9CA3AF"/>
<ellipse cx="8.19518" cy="7.47554" rx="8.19518" ry="7.47554" transform="matrix(0.866025 0.5 -2.20305e-08 1 498.391 618.406)" fill="#9CA3AF"/>
</g>
<rect x="-1.00865" y="-1.74704" width="335.432" height="81.5286" rx="7.84084" transform="matrix(0.866025 0.5 -2.20305e-08 1 249.316 454.995)" stroke="white" stroke-width="2.32939"/>
</g>
<g filter="url(#filter12_dd_2194_781)">
<rect width="333.103" height="79.1992" rx="6.67615" transform="matrix(0.866025 0.5 -2.20305e-08 1 249.451 548.825)" fill="#F9FAFB"/>
<rect width="199.163" height="11.6469" rx="5.15584" transform="matrix(0.866025 0.5 -2.20305e-08 1 272.579 583.142)" fill="#E5E7EB"/>
<rect width="132.775" height="11.6469" rx="5.15584" transform="matrix(0.866025 0.5 -2.20305e-08 1 272.579 604.803)" fill="#E5E7EB"/>
<g filter="url(#filter13_dd_2194_781)">
<rect width="71.9485" height="65.6305" rx="3.93288" transform="matrix(0.866025 0.5 -2.20305e-08 1 468.33 681.87)" fill="#E5E7EB"/>
<rect x="0.504327" y="0.873521" width="70.7838" height="64.4658" rx="3.35054" transform="matrix(0.866025 0.5 -2.20305e-08 1 468.398 681.617)" stroke="white" stroke-width="1.16469"/>
</g>
<mask id="mask1_2194_781" style="mask-type:alpha" maskUnits="userSpaceOnUse" x="472" y="689" width="55" height="87">
<rect width="62.6083" height="57.1105" rx="3.93288" transform="matrix(0.866025 0.5 -2.20305e-08 1 472.375 688.465)" fill="white"/>
</mask>
<g mask="url(#mask1_2194_781)">
<path d="M511.258 743.077C512.075 742.41 513.588 743.284 514.405 744.895L529.848 775.336C530.951 777.511 530.004 779.291 528.274 778.292L497.389 760.461C495.66 759.462 494.712 756.588 495.816 755.687L511.258 743.077Z" fill="#D1D5DB"/>
<path d="M486.493 719.932C487.31 719.265 488.823 720.139 489.641 721.75L511.525 764.891C512.629 767.066 511.681 768.846 509.952 767.847L466.182 742.577C464.452 741.578 463.505 738.704 464.608 737.803L486.493 719.932Z" fill="#9CA3AF"/>
<ellipse cx="8.19518" cy="7.47554" rx="8.19518" ry="7.47554" transform="matrix(0.866025 0.5 -2.20305e-08 1 498.391 712.74)" fill="#9CA3AF"/>
</g>
<rect x="-1.00865" y="-1.74704" width="335.432" height="81.5286" rx="7.84084" transform="matrix(0.866025 0.5 -2.20305e-08 1 249.316 549.329)" stroke="white" stroke-width="2.32939"/>
</g>
</g>
<rect x="-1.19507" y="-2.06992" width="420.857" height="89.6378" rx="7.53059" transform="matrix(0.866025 0.5 -2.20305e-08 1 251.989 351.908)" fill="#F9FAFB"/>
<g filter="url(#filter14_d_2194_781)">
<rect width="27.6181" height="27.6181" rx="13.8091" transform="matrix(0.866025 0.5 -2.20305e-08 1 273.457 382.064)" fill="#E5E7EB"/>
<path d="M282.319 400.394L279.898 393.993C279.619 393.257 279.48 392.889 279.504 392.667C279.524 392.473 279.619 392.341 279.764 392.304C279.93 392.262 280.216 392.427 280.787 392.756L282.209 393.578C282.421 393.7 282.527 393.761 282.622 393.852C282.706 393.932 282.784 394.028 282.85 394.134C282.925 394.253 282.979 394.39 283.086 394.663L285.415 400.573L287.745 397.353C287.852 397.204 287.906 397.129 287.981 397.096C288.047 397.066 288.124 397.06 288.209 397.077C288.304 397.096 288.41 397.158 288.622 397.28L290.044 398.101C290.615 398.431 290.9 398.596 291.067 398.83C291.212 399.035 291.307 399.276 291.327 399.493C291.351 399.742 291.212 399.949 290.933 400.364L288.512 403.969M284.461 403.697L285.415 403.513L285.415 407.187M284.62 406.728L286.211 407.647M288.341 403.661C289.956 406.459 289.956 409.484 288.341 410.417C286.725 411.349 284.106 409.837 282.49 407.039C280.875 404.241 280.875 401.216 282.49 400.283C284.106 399.351 286.725 400.863 288.341 403.661Z" stroke="#B7ACFF" stroke-width="1.75752" stroke-linecap="round" stroke-linejoin="round"/>
<rect x="-0.45429" y="-0.786853" width="28.6673" height="28.6673" rx="14.3336" transform="matrix(0.866025 0.5 -2.20305e-08 1 273.396 382.291)" stroke="white" stroke-width="1.04914"/>
</g>
<rect width="199.163" height="11.6469" rx="5.15584" transform="matrix(0.866025 0.5 -2.20305e-08 1 314.067 410.784)" fill="#E5E7EB"/>
<rect width="132.775" height="11.6469" rx="5.15584" transform="matrix(0.866025 0.5 -2.20305e-08 1 314.067 432.445)" fill="#E5E7EB"/>
<g filter="url(#filter15_dd_2194_781)">
<rect width="75.3454" height="74.5766" rx="3.62331" transform="matrix(0.866025 0.5 -2.20305e-08 1 543.654 525.761)" fill="white"/>
</g>
<mask id="mask2_2194_781" style="mask-type:alpha" maskUnits="userSpaceOnUse" x="547" y="534" width="58" height="96">
<rect width="65.5643" height="64.8953" rx="3.62331" transform="matrix(0.866025 0.5 -2.20305e-08 1 547.889 533.047)" fill="white"/>
</mask>
<g mask="url(#mask2_2194_781)">
<path d="M587.738 593.916C589.005 592.731 591.505 594.174 592.773 596.823L607.093 626.751C608.685 630.077 607.198 632.689 604.576 631.174L575.935 614.639C573.312 613.125 571.826 608.797 573.417 607.309L587.738 593.916Z" fill="#D4C9FE"/>
<path d="M560.544 570.069C562.446 568.291 566.195 570.456 568.097 574.43L591.79 623.946L546.455 597.772C542.521 595.501 540.291 589.009 542.678 586.777L560.544 570.069Z" fill="#AF8DFB"/>
<ellipse cx="8.5821" cy="8.49453" rx="8.5821" ry="8.49453" transform="matrix(0.866025 0.5 -2.20305e-08 1 575.132 559.292)" fill="#D4C9FE"/>
</g>
<rect x="-1.19507" y="-2.06992" width="420.857" height="89.6378" rx="7.53059" transform="matrix(0.866025 0.5 -2.20305e-08 1 251.989 351.908)" stroke="white" stroke-width="2.75989"/>
<g filter="url(#filter16_f_2194_781)">
<rect width="435.535" height="14.2497" rx="7.12483" transform="matrix(0.866025 0.5 -2.20305e-08 1 243.23 440.222)" fill="#A78BFA" fill-opacity="0.1"/>
</g>
<path d="M533.058 894.609C532.843 894.609 532.625 894.553 532.432 894.44L526.702 891.115C526.319 890.892 526.083 890.482 526.081 890.039L526.053 873.574C526.053 873.177 526.241 872.801 526.563 872.567C529.813 870.181 533.218 867.471 536.683 864.514C537.086 864.168 537.664 864.114 538.119 864.386L543.824 867.711C544.207 867.934 544.441 868.342 544.443 868.784L544.497 887.465C544.499 887.912 544.261 888.324 543.874 888.548L533.683 894.44C533.49 894.553 533.274 894.609 533.058 894.609Z" fill="#C6BDFF"/>
<path d="M593.423 858.702C593.208 858.702 592.99 858.647 592.797 858.534L587.067 855.208C586.684 854.986 586.447 854.577 586.446 854.133L586.31 806.715C586.31 806.462 586.385 806.217 586.527 806.009C591.164 799.203 594.595 793.74 596.658 790.354C597.011 789.777 597.757 789.58 598.345 789.923L604.076 793.222C604.46 793.443 604.698 793.853 604.7 794.299L604.862 851.558C604.864 852.005 604.625 852.417 604.239 852.641L594.048 858.535C593.855 858.647 593.639 858.702 593.423 858.702ZM573.31 870.299C573.094 870.299 572.877 870.243 572.684 870.13L566.953 866.805C566.57 866.583 566.334 866.174 566.332 865.73L566.25 833.479C566.25 833.188 566.349 832.908 566.534 832.684C569.913 828.573 573.332 824.23 576.694 819.774C577.073 819.273 577.765 819.134 578.313 819.445L584.018 822.743C584.402 822.966 584.639 823.376 584.64 823.82L584.748 863.155C584.748 863.602 584.512 864.014 584.126 864.238L573.934 870.13C573.741 870.243 573.525 870.299 573.31 870.299ZM553.224 881.898C553.008 881.898 552.793 881.842 552.598 881.729L546.865 878.404C546.483 878.181 546.246 877.772 546.245 877.329L546.191 855.349C546.191 855.012 546.326 854.69 546.566 854.453C549.958 851.14 553.372 847.627 556.713 844.011C557.111 843.584 557.749 843.49 558.254 843.777L563.958 847.074C564.342 847.297 564.579 847.707 564.581 848.151L564.662 874.753C564.664 875.198 564.426 875.612 564.04 875.837L553.848 881.729C553.655 881.842 553.44 881.898 553.224 881.898ZM519.075 854.547L519.802 853.987C553.154 829.623 580.021 787.125 588.397 772.997L585.635 771.402C585.268 771.19 585.033 770.804 585.014 770.381C584.995 769.957 585.192 769.552 585.538 769.307L598.027 760.439C598.423 760.157 598.954 760.131 599.376 760.378L605.081 763.703C605.519 763.959 605.759 764.454 605.686 764.959L603.551 779.719C603.491 780.128 603.234 780.481 602.864 780.662C602.486 780.843 602.051 780.827 601.697 780.622L599.333 779.263C592.402 790.968 563.355 837.787 527.573 863.895L526.87 864.409C526.651 864.567 526.394 864.649 526.134 864.649C525.919 864.649 525.701 864.593 525.507 864.478L519.802 861.153C519.468 860.958 519.244 860.621 519.193 860.238L518.598 855.697C518.541 855.257 518.722 854.819 519.075 854.547Z" fill="#C6BDFF"/>
<path d="M544.249 887.233C544.251 887.551 544.08 887.847 543.802 888.006L533.56 893.9C533.422 893.98 533.266 894.02 533.112 894.02C532.959 894.02 532.805 893.98 532.667 893.902L532.664 893.9L526.923 890.575C526.649 890.415 526.48 890.122 526.478 889.806L526.431 873.328C526.43 873.094 526.639 872.723 526.798 872.608C530.124 870.179 533.551 867.469 536.982 864.549C537.272 864.304 537.683 864.265 538.011 864.455L543.751 867.78C543.871 867.85 543.967 867.947 544.042 868.058L544.055 868.071C544.132 868.19 544.18 868.327 544.193 868.471C544.195 868.487 544.186 868.5 544.187 868.516C544.187 868.528 544.197 868.538 544.197 868.55L544.249 887.233ZM542.414 870.466C540.752 871.853 537.22 874.709 533.961 877.103C533.962 877.468 534.004 892.335 534.002 891.588L542.459 886.721L542.414 870.466ZM532.213 891.578C532.212 891.04 532.17 876.221 532.173 877.166L528.224 874.879L528.265 889.29L532.213 891.578ZM537.66 866.314C534.732 868.788 531.81 871.112 528.951 873.237L532.999 875.582C535.653 873.63 537.999 871.818 541.743 868.679L537.66 866.314ZM564.49 874.523C564.491 874.841 564.32 875.137 564.043 875.296L553.798 881.192C553.66 881.272 553.505 881.312 553.351 881.312C553.198 881.312 553.044 881.272 552.906 881.194L547.164 877.867C546.888 877.707 546.72 877.414 546.719 877.097L546.656 855.079C546.654 854.857 546.759 854.666 546.903 854.505C546.919 854.486 546.909 854.456 546.926 854.438C550.323 851.145 553.753 847.623 557.122 843.972C557.408 843.664 557.867 843.598 558.229 843.805L563.969 847.13C564.001 847.149 563.999 847.195 564.028 847.216C564.189 847.336 564.295 847.491 564.347 847.684C564.357 847.718 564.399 847.733 564.404 847.767C564.407 847.786 564.387 847.8 564.389 847.817C564.392 847.847 564.414 847.87 564.415 847.9L564.49 874.523ZM562.633 850.166C560.614 852.319 557.196 855.849 554.186 858.777L554.242 878.88L562.7 874.011L562.633 850.166ZM552.453 878.869L552.398 858.916L548.449 856.629L548.505 876.582L552.453 878.869ZM557.951 845.706C554.997 848.892 551.997 851.976 549.016 854.895L553.144 857.286C556.099 854.406 558.539 851.928 562.095 848.107L557.951 845.706ZM604.856 851.291C604.857 851.609 604.686 851.905 604.409 852.064L594.166 857.96C594.028 858.04 593.873 858.08 593.719 858.08C593.565 858.08 593.412 858.04 593.274 857.962L593.27 857.96L587.53 854.635C587.254 854.475 587.086 854.182 587.084 853.866L586.95 806.417C586.949 806.243 587.007 806.082 587.099 805.941C587.104 805.932 587.098 805.922 587.104 805.914C591.824 798.985 595.252 793.548 597.296 790.208C597.549 789.792 598.094 789.658 598.508 789.901L604.248 793.226C604.29 793.25 604.295 793.307 604.331 793.337C604.446 793.429 604.524 793.532 604.581 793.667C604.6 793.711 604.653 793.732 604.665 793.778C604.673 793.81 604.646 793.84 604.651 793.872C604.658 793.917 604.693 793.95 604.693 793.996L604.856 851.291ZM602.914 797.124C600.569 800.864 597.472 805.613 594.479 810.013L594.609 855.648L603.066 850.779L602.914 797.124ZM592.82 855.638C592.788 844.561 592.722 820.843 592.692 810.254L588.743 807.967L588.871 853.35L592.82 855.638ZM598.364 791.881C596.359 795.134 593.258 800.026 589.122 806.124L593.308 808.549C596.505 803.834 599.58 799.136 602.556 794.307L598.364 791.881ZM584.664 862.913C584.666 863.231 584.495 863.527 584.217 863.686L573.974 869.58C573.836 869.66 573.681 869.7 573.527 869.7C573.374 869.7 573.22 869.66 573.082 869.582L567.338 866.255C567.064 866.095 566.895 865.803 566.893 865.486L566.8 833.184C566.799 832.99 566.879 832.817 566.991 832.666C567.002 832.651 566.993 832.629 567.005 832.615C570.399 828.519 573.831 824.168 577.202 819.686C577.476 819.324 577.982 819.219 578.366 819.449L584.107 822.774C584.144 822.796 584.145 822.848 584.179 822.874C584.314 822.979 584.405 823.105 584.462 823.266C584.476 823.307 584.526 823.325 584.535 823.368C584.54 823.393 584.516 823.415 584.518 823.44C584.523 823.477 584.552 823.505 584.552 823.543L584.664 862.913ZM582.771 826.195C581.463 827.907 577.501 832.991 574.331 836.826C574.332 837.338 574.423 869.292 574.417 867.268L582.874 862.401L582.771 826.195ZM572.628 867.258C572.627 866.901 572.538 835.413 572.542 837.022L568.594 834.734L568.679 864.971L572.628 867.258ZM578.155 821.388C575.143 825.377 572.087 829.255 569.053 832.939L573.22 835.352C576.075 831.89 578.66 828.659 582.329 823.806L578.155 821.388ZM518.944 855.335C518.925 855.039 519.054 854.752 519.292 854.571L520.015 854.017C553.883 829.347 580.982 786.334 589.148 772.542L586.073 770.761C585.81 770.607 585.644 770.332 585.63 770.03C585.616 769.728 585.755 769.439 586.003 769.264L598.548 760.373C598.834 760.169 599.211 760.155 599.515 760.328L605.256 763.653L605.264 763.661L605.27 763.661C605.295 763.677 605.303 763.704 605.324 763.72C605.433 763.8 605.524 763.894 605.586 764.011C605.614 764.064 605.619 764.118 605.636 764.175C605.657 764.246 605.696 764.309 605.699 764.384C605.701 764.415 605.682 764.443 605.681 764.474C605.679 764.501 605.696 764.524 605.692 764.551L603.546 779.327C603.502 779.62 603.319 779.872 603.053 780.001C602.788 780.13 602.477 780.121 602.219 779.975L599.541 778.455C562.469 840.883 527.542 862.926 526.7 863.87C526.693 863.876 526.684 863.873 526.677 863.878C526.669 863.883 526.667 863.893 526.66 863.898C526.509 863.996 526.338 864.046 526.165 864.046C526.047 864.046 525.928 864.023 525.816 863.975C525.799 863.967 525.789 863.95 525.773 863.941C525.755 863.932 525.734 863.936 525.717 863.926L519.978 860.601C519.737 860.462 519.575 860.218 519.54 859.943L518.953 855.389L518.956 855.371C518.954 855.358 518.945 855.348 518.944 855.335ZM521.45 855.177C521.808 855.385 525.879 857.741 525.521 857.534C525.872 857.177 560.234 834.321 594.91 775.86L591.817 774.087L591.814 774.086L590.697 773.439C582.47 787.328 555.354 830.319 521.45 855.177ZM599.115 762.157L588.172 769.915L590.775 771.422C590.795 771.432 590.819 771.419 590.839 771.431L592.237 772.239L595.08 770.224L603.156 764.499L599.115 762.157ZM598.446 776.794C598.614 776.512 598.913 776.354 599.218 776.354C599.368 776.354 599.522 776.392 599.66 776.471L601.964 777.778L603.623 766.357L593.936 773.222L596.595 774.759C596.801 774.878 596.95 775.075 597.011 775.304C597.072 775.532 597.039 775.776 596.918 775.982C562.105 835.213 526.96 858.576 526.534 859.008L526.859 861.534C563.274 834.795 592.863 786.286 598.446 776.794ZM525.048 861.477L524.749 859.151C524.391 858.943 520.6 856.749 520.958 856.956L521.258 859.28L525.048 861.477Z" fill="#C2B3FF"/>
<g opacity="0.07" filter="url(#filter17_f_2194_781)">
<path d="M294.097 525.452L822.868 819.503L550.863 982.433C543.972 986.56 532.696 986.742 525.676 982.838L22.3254 702.922C15.3059 699.019 15.2012 692.509 22.0915 688.381L294.097 525.452Z" fill="url(#paint2_linear_2194_781)"/>
</g>
<defs>
<filter id="filter0_f_2194_781" x="24.3569" y="609.81" width="551.43" height="330.575" filterUnits="userSpaceOnUse" color-interpolation-filters="sRGB">
<feFlood flood-opacity="0" result="BackgroundImageFix"/>
<feBlend mode="normal" in="SourceGraphic" in2="BackgroundImageFix" result="shape"/>
<feGaussianBlur stdDeviation="8.07299" result="effect1_foregroundBlur_2194_781"/>
</filter>
<filter id="filter1_dd_2194_781" x="317.432" y="127.624" width="515.544" height="716.888" filterUnits="userSpaceOnUse" color-interpolation-filters="sRGB">
<feFlood flood-opacity="0" result="BackgroundImageFix"/>
<feColorMatrix in="SourceAlpha" type="matrix" values="0 0 0 0 0 0 0 0 0 0 0 0 0 0 0 0 0 0 127 0" result="hardAlpha"/>
<feMorphology radius="1.69365" operator="erode" in="SourceAlpha" result="effect1_dropShadow_2194_781"/>
<feOffset dy="3.38731"/>
<feGaussianBlur stdDeviation="2.54048"/>
<feColorMatrix type="matrix" values="0 0 0 0 0 0 0 0 0 0 0 0 0 0 0 0 0 0 0.05 0"/>
<feBlend mode="normal" in2="BackgroundImageFix" result="effect1_dropShadow_2194_781"/>
<feColorMatrix in="SourceAlpha" type="matrix" values="0 0 0 0 0 0 0 0 0 0 0 0 0 0 0 0 0 0 127 0" result="hardAlpha"/>
<feMorphology radius="2.54048" operator="erode" in="SourceAlpha" result="effect2_dropShadow_2194_781"/>
<feOffset dy="8.46827"/>
<feGaussianBlur stdDeviation="6.3512"/>
<feColorMatrix type="matrix" values="0 0 0 0 0 0 0 0 0 0 0 0 0 0 0 0 0 0 0.1 0"/>
<feBlend mode="normal" in2="effect1_dropShadow_2194_781" result="effect2_dropShadow_2194_781"/>
<feBlend mode="normal" in="SourceGraphic" in2="effect2_dropShadow_2194_781" result="shape"/>
</filter>
<filter id="filter2_dd_2194_781" x="288.735" y="164.083" width="544.773" height="723.14" filterUnits="userSpaceOnUse" color-interpolation-filters="sRGB">
<feFlood flood-opacity="0" result="BackgroundImageFix"/>
<feColorMatrix in="SourceAlpha" type="matrix" values="0 0 0 0 0 0 0 0 0 0 0 0 0 0 0 0 0 0 127 0" result="hardAlpha"/>
<feMorphology radius="6.50313" operator="erode" in="SourceAlpha" result="effect1_dropShadow_2194_781"/>
<feOffset dy="13.0063"/>
<feGaussianBlur stdDeviation="10.405"/>
<feColorMatrix type="matrix" values="0 0 0 0 0 0 0 0 0 0 0 0 0 0 0 0 0 0 0.04 0"/>
<feBlend mode="normal" in2="BackgroundImageFix" result="effect1_dropShadow_2194_781"/>
<feColorMatrix in="SourceAlpha" type="matrix" values="0 0 0 0 0 0 0 0 0 0 0 0 0 0 0 0 0 0 127 0" result="hardAlpha"/>
<feMorphology radius="6.50313" operator="erode" in="SourceAlpha" result="effect2_dropShadow_2194_781"/>
<feOffset dy="26.0125"/>
<feGaussianBlur stdDeviation="20.81"/>
<feColorMatrix type="matrix" values="0 0 0 0 0 0 0 0 0 0 0 0 0 0 0 0 0 0 0.1 0"/>
<feBlend mode="normal" in2="effect1_dropShadow_2194_781" result="effect2_dropShadow_2194_781"/>
<feBlend mode="normal" in="SourceGraphic" in2="effect2_dropShadow_2194_781" result="shape"/>
</filter>
<filter id="filter3_d_2194_781" x="320.751" y="141.297" width="480.741" height="315.149" filterUnits="userSpaceOnUse" color-interpolation-filters="sRGB">
<feFlood flood-opacity="0" result="BackgroundImageFix"/>
<feColorMatrix in="SourceAlpha" type="matrix" values="0 0 0 0 0 0 0 0 0 0 0 0 0 0 0 0 0 0 127 0" result="hardAlpha"/>
<feOffset dy="1.55044"/>
<feGaussianBlur stdDeviation="1.55044"/>
<feColorMatrix type="matrix" values="0 0 0 0 0 0 0 0 0 0 0 0 0 0 0 0 0 0 0.05 0"/>
<feBlend mode="normal" in2="BackgroundImageFix" result="effect1_dropShadow_2194_781"/>
<feBlend mode="normal" in="SourceGraphic" in2="effect1_dropShadow_2194_781" result="shape"/>
</filter>
<filter id="filter4_i_2194_781" x="431.221" y="345.987" width="248.182" height="168.57" filterUnits="userSpaceOnUse" color-interpolation-filters="sRGB">
<feFlood flood-opacity="0" result="BackgroundImageFix"/>
<feBlend mode="normal" in="SourceGraphic" in2="BackgroundImageFix" result="shape"/>
<feColorMatrix in="SourceAlpha" type="matrix" values="0 0 0 0 0 0 0 0 0 0 0 0 0 0 0 0 0 0 127 0" result="hardAlpha"/>
<feOffset dy="1.68501"/>
<feGaussianBlur stdDeviation="1.68501"/>
<feComposite in2="hardAlpha" operator="arithmetic" k2="-1" k3="1"/>
<feColorMatrix type="matrix" values="0 0 0 0 0 0 0 0 0 0 0 0 0 0 0 0 0 0 0.06 0"/>
<feBlend mode="normal" in2="shape" result="effect1_innerShadow_2194_781"/>
</filter>
<filter id="filter5_f_2194_781" x="239.55" y="300.211" width="434.223" height="378.485" filterUnits="userSpaceOnUse" color-interpolation-filters="sRGB">
<feFlood flood-opacity="0" result="BackgroundImageFix"/>
<feBlend mode="normal" in="SourceGraphic" in2="BackgroundImageFix" result="shape"/>
<feGaussianBlur stdDeviation="17.4793" result="effect1_foregroundBlur_2194_781"/>
</filter>
<filter id="filter6_d_2194_781" x="247.434" y="339.669" width="386.784" height="458.643" filterUnits="userSpaceOnUse" color-interpolation-filters="sRGB">
<feFlood flood-opacity="0" result="BackgroundImageFix"/>
<feColorMatrix in="SourceAlpha" type="matrix" values="0 0 0 0 0 0 0 0 0 0 0 0 0 0 0 0 0 0 127 0" result="hardAlpha"/>
<feOffset dx="1.83993" dy="1.83993"/>
<feGaussianBlur stdDeviation="0.919963"/>
<feComposite in2="hardAlpha" operator="out"/>
<feColorMatrix type="matrix" values="0 0 0 0 0 0 0 0 0 0 0 0 0 0 0 0 0 0 0.03 0"/>
<feBlend mode="normal" in2="BackgroundImageFix" result="effect1_dropShadow_2194_781"/>
<feBlend mode="normal" in="SourceGraphic" in2="effect1_dropShadow_2194_781" result="shape"/>
</filter>
<filter id="filter7_dd_2194_781" x="253.628" y="339.669" width="391.356" height="331.37" filterUnits="userSpaceOnUse" color-interpolation-filters="sRGB">
<feFlood flood-opacity="0" result="BackgroundImageFix"/>
<feColorMatrix in="SourceAlpha" type="matrix" values="0 0 0 0 0 0 0 0 0 0 0 0 0 0 0 0 0 0 127 0" result="hardAlpha"/>
<feMorphology radius="3.61143" operator="erode" in="SourceAlpha" result="effect1_dropShadow_2194_781"/>
<feOffset dy="7.22286"/>
<feGaussianBlur stdDeviation="3.61143"/>
<feColorMatrix type="matrix" values="0 0 0 0 0 0 0 0 0 0 0 0 0 0 0 0 0 0 0.04 0"/>
<feBlend mode="normal" in2="BackgroundImageFix" result="effect1_dropShadow_2194_781"/>
<feColorMatrix in="SourceAlpha" type="matrix" values="0 0 0 0 0 0 0 0 0 0 0 0 0 0 0 0 0 0 127 0" result="hardAlpha"/>
<feMorphology radius="3.61143" operator="erode" in="SourceAlpha" result="effect2_dropShadow_2194_781"/>
<feOffset dy="14.4457"/>
<feGaussianBlur stdDeviation="9.02858"/>
<feColorMatrix type="matrix" values="0 0 0 0 0.654902 0 0 0 0 0.545098 0 0 0 0 0.980392 0 0 0 0.1 0"/>
<feBlend mode="normal" in2="effect1_dropShadow_2194_781" result="effect2_dropShadow_2194_781"/>
<feBlend mode="normal" in="SourceGraphic" in2="effect2_dropShadow_2194_781" result="shape"/>
</filter>
<filter id="filter8_dd_2194_781" x="250.956" y="439.834" width="317.367" height="283.696" filterUnits="userSpaceOnUse" color-interpolation-filters="sRGB">
<feFlood flood-opacity="0" result="BackgroundImageFix"/>
<feColorMatrix in="SourceAlpha" type="matrix" values="0 0 0 0 0 0 0 0 0 0 0 0 0 0 0 0 0 0 127 0" result="hardAlpha"/>
<feMorphology radius="3.61143" operator="erode" in="SourceAlpha" result="effect1_dropShadow_2194_781"/>
<feOffset dy="7.22286"/>
<feGaussianBlur stdDeviation="3.61143"/>
<feColorMatrix type="matrix" values="0 0 0 0 0 0 0 0 0 0 0 0 0 0 0 0 0 0 0.04 0"/>
<feBlend mode="normal" in2="BackgroundImageFix" result="effect1_dropShadow_2194_781"/>
<feColorMatrix in="SourceAlpha" type="matrix" values="0 0 0 0 0 0 0 0 0 0 0 0 0 0 0 0 0 0 127 0" result="hardAlpha"/>
<feMorphology radius="3.61143" operator="erode" in="SourceAlpha" result="effect2_dropShadow_2194_781"/>
<feOffset dy="14.4457"/>
<feGaussianBlur stdDeviation="9.02858"/>
<feColorMatrix type="matrix" values="0 0 0 0 0.654902 0 0 0 0 0.545098 0 0 0 0 0.980392 0 0 0 0.1 0"/>
<feBlend mode="normal" in2="effect1_dropShadow_2194_781" result="effect2_dropShadow_2194_781"/>
<feBlend mode="normal" in="SourceGraphic" in2="effect2_dropShadow_2194_781" result="shape"/>
</filter>
<filter id="filter9_dd_2194_781" x="250.953" y="533.927" width="317.723" height="283.918" filterUnits="userSpaceOnUse" color-interpolation-filters="sRGB">
<feFlood flood-opacity="0" result="BackgroundImageFix"/>
<feColorMatrix in="SourceAlpha" type="matrix" values="0 0 0 0 0 0 0 0 0 0 0 0 0 0 0 0 0 0 127 0" result="hardAlpha"/>
<feMorphology radius="3.61143" operator="erode" in="SourceAlpha" result="effect1_dropShadow_2194_781"/>
<feOffset dy="7.22286"/>
<feGaussianBlur stdDeviation="3.61143"/>
<feColorMatrix type="matrix" values="0 0 0 0 0 0 0 0 0 0 0 0 0 0 0 0 0 0 0.04 0"/>
<feBlend mode="normal" in2="BackgroundImageFix" result="effect1_dropShadow_2194_781"/>
<feColorMatrix in="SourceAlpha" type="matrix" values="0 0 0 0 0 0 0 0 0 0 0 0 0 0 0 0 0 0 127 0" result="hardAlpha"/>
<feMorphology radius="3.61143" operator="erode" in="SourceAlpha" result="effect2_dropShadow_2194_781"/>
<feOffset dy="14.4457"/>
<feGaussianBlur stdDeviation="9.02858"/>
<feColorMatrix type="matrix" values="0 0 0 0 0.654902 0 0 0 0 0.545098 0 0 0 0 0.980392 0 0 0 0.1 0"/>
<feBlend mode="normal" in2="effect1_dropShadow_2194_781" result="effect2_dropShadow_2194_781"/>
<feBlend mode="normal" in="SourceGraphic" in2="effect2_dropShadow_2194_781" result="shape"/>
</filter>
<filter id="filter10_dd_2194_781" x="244.496" y="452.475" width="298.386" height="251.74" filterUnits="userSpaceOnUse" color-interpolation-filters="sRGB">
<feFlood flood-opacity="0" result="BackgroundImageFix"/>
<feColorMatrix in="SourceAlpha" type="matrix" values="0 0 0 0 0 0 0 0 0 0 0 0 0 0 0 0 0 0 127 0" result="hardAlpha"/>
<feOffset dy="0.979357"/>
<feGaussianBlur stdDeviation="0.979357"/>
<feColorMatrix type="matrix" values="0 0 0 0 0 0 0 0 0 0 0 0 0 0 0 0 0 0 0.06 0"/>
<feBlend mode="normal" in2="BackgroundImageFix" result="effect1_dropShadow_2194_781"/>
<feColorMatrix in="SourceAlpha" type="matrix" values="0 0 0 0 0 0 0 0 0 0 0 0 0 0 0 0 0 0 127 0" result="hardAlpha"/>
<feOffset dy="0.979357"/>
<feGaussianBlur stdDeviation="1.46904"/>
<feColorMatrix type="matrix" values="0 0 0 0 0 0 0 0 0 0 0 0 0 0 0 0 0 0 0.1 0"/>
<feBlend mode="normal" in2="effect1_dropShadow_2194_781" result="effect2_dropShadow_2194_781"/>
<feBlend mode="normal" in="SourceGraphic" in2="effect2_dropShadow_2194_781" result="shape"/>
</filter>
<filter id="filter11_dd_2194_781" x="464.987" y="588.368" width="68.9958" height="105.288" filterUnits="userSpaceOnUse" color-interpolation-filters="sRGB">
<feFlood flood-opacity="0" result="BackgroundImageFix"/>
<feColorMatrix in="SourceAlpha" type="matrix" values="0 0 0 0 0 0 0 0 0 0 0 0 0 0 0 0 0 0 127 0" result="hardAlpha"/>
<feMorphology radius="0.668619" operator="erode" in="SourceAlpha" result="effect1_dropShadow_2194_781"/>
<feOffset dy="1.33724"/>
<feGaussianBlur stdDeviation="1.33724"/>
<feColorMatrix type="matrix" values="0 0 0 0 0 0 0 0 0 0 0 0 0 0 0 0 0 0 0.06 0"/>
<feBlend mode="normal" in2="BackgroundImageFix" result="effect1_dropShadow_2194_781"/>
<feColorMatrix in="SourceAlpha" type="matrix" values="0 0 0 0 0 0 0 0 0 0 0 0 0 0 0 0 0 0 127 0" result="hardAlpha"/>
<feMorphology radius="0.668619" operator="erode" in="SourceAlpha" result="effect2_dropShadow_2194_781"/>
<feOffset dy="2.67448"/>
<feGaussianBlur stdDeviation="2.00586"/>
<feColorMatrix type="matrix" values="0 0 0 0 0 0 0 0 0 0 0 0 0 0 0 0 0 0 0.1 0"/>
<feBlend mode="normal" in2="effect1_dropShadow_2194_781" result="effect2_dropShadow_2194_781"/>
<feBlend mode="normal" in="SourceGraphic" in2="effect2_dropShadow_2194_781" result="shape"/>
</filter>
<filter id="filter12_dd_2194_781" x="242.434" y="546.768" width="302.51" height="255.864" filterUnits="userSpaceOnUse" color-interpolation-filters="sRGB">
<feFlood flood-opacity="0" result="BackgroundImageFix"/>
<feColorMatrix in="SourceAlpha" type="matrix" values="0 0 0 0 0 0 0 0 0 0 0 0 0 0 0 0 0 0 127 0" result="hardAlpha"/>
<feOffset dy="0.979357"/>
<feGaussianBlur stdDeviation="0.979357"/>
<feColorMatrix type="matrix" values="0 0 0 0 0 0 0 0 0 0 0 0 0 0 0 0 0 0 0.06 0"/>
<feBlend mode="normal" in2="BackgroundImageFix" result="effect1_dropShadow_2194_781"/>
<feColorMatrix in="SourceAlpha" type="matrix" values="0 0 0 0 0 0 0 0 0 0 0 0 0 0 0 0 0 0 127 0" result="hardAlpha"/>
<feOffset dy="3"/>
<feGaussianBlur stdDeviation="2.5"/>
<feColorMatrix type="matrix" values="0 0 0 0 0 0 0 0 0 0 0 0 0 0 0 0 0 0 0.1 0"/>
<feBlend mode="normal" in2="effect1_dropShadow_2194_781" result="effect2_dropShadow_2194_781"/>
<feBlend mode="normal" in="SourceGraphic" in2="effect2_dropShadow_2194_781" result="shape"/>
</filter>
<filter id="filter13_dd_2194_781" x="464.987" y="682.702" width="68.9958" height="105.288" filterUnits="userSpaceOnUse" color-interpolation-filters="sRGB">
<feFlood flood-opacity="0" result="BackgroundImageFix"/>
<feColorMatrix in="SourceAlpha" type="matrix" values="0 0 0 0 0 0 0 0 0 0 0 0 0 0 0 0 0 0 127 0" result="hardAlpha"/>
<feMorphology radius="0.668619" operator="erode" in="SourceAlpha" result="effect1_dropShadow_2194_781"/>
<feOffset dy="1.33724"/>
<feGaussianBlur stdDeviation="1.33724"/>
<feColorMatrix type="matrix" values="0 0 0 0 0 0 0 0 0 0 0 0 0 0 0 0 0 0 0.06 0"/>
<feBlend mode="normal" in2="BackgroundImageFix" result="effect1_dropShadow_2194_781"/>
<feColorMatrix in="SourceAlpha" type="matrix" values="0 0 0 0 0 0 0 0 0 0 0 0 0 0 0 0 0 0 127 0" result="hardAlpha"/>
<feMorphology radius="0.668619" operator="erode" in="SourceAlpha" result="effect2_dropShadow_2194_781"/>
<feOffset dy="2.67448"/>
<feGaussianBlur stdDeviation="2.00586"/>
<feColorMatrix type="matrix" values="0 0 0 0 0 0 0 0 0 0 0 0 0 0 0 0 0 0 0.1 0"/>
<feBlend mode="normal" in2="effect1_dropShadow_2194_781" result="effect2_dropShadow_2194_781"/>
<feBlend mode="normal" in="SourceGraphic" in2="effect2_dropShadow_2194_781" result="shape"/>
</filter>
<filter id="filter14_d_2194_781" x="270.451" y="381.015" width="29.9309" height="45.6238" filterUnits="userSpaceOnUse" color-interpolation-filters="sRGB">
<feFlood flood-opacity="0" result="BackgroundImageFix"/>
<feColorMatrix in="SourceAlpha" type="matrix" values="0 0 0 0 0 0 0 0 0 0 0 0 0 0 0 0 0 0 127 0" result="hardAlpha"/>
<feOffset dy="1.04914"/>
<feGaussianBlur stdDeviation="1.04914"/>
<feColorMatrix type="matrix" values="0 0 0 0 0 0 0 0 0 0 0 0 0 0 0 0 0 0 0.05 0"/>
<feBlend mode="normal" in2="BackgroundImageFix" result="effect1_dropShadow_2194_781"/>
<feBlend mode="normal" in="SourceGraphic" in2="effect1_dropShadow_2194_781" result="shape"/>
</filter>
<filter id="filter15_dd_2194_781" x="540.574" y="526.529" width="71.4109" height="115.643" filterUnits="userSpaceOnUse" color-interpolation-filters="sRGB">
<feFlood flood-opacity="0" result="BackgroundImageFix"/>
<feColorMatrix in="SourceAlpha" type="matrix" values="0 0 0 0 0 0 0 0 0 0 0 0 0 0 0 0 0 0 127 0" result="hardAlpha"/>
<feMorphology radius="0.61599" operator="erode" in="SourceAlpha" result="effect1_dropShadow_2194_781"/>
<feOffset dy="1.23198"/>
<feGaussianBlur stdDeviation="1.23198"/>
<feColorMatrix type="matrix" values="0 0 0 0 0 0 0 0 0 0 0 0 0 0 0 0 0 0 0.06 0"/>
<feBlend mode="normal" in2="BackgroundImageFix" result="effect1_dropShadow_2194_781"/>
<feColorMatrix in="SourceAlpha" type="matrix" values="0 0 0 0 0 0 0 0 0 0 0 0 0 0 0 0 0 0 127 0" result="hardAlpha"/>
<feMorphology radius="0.61599" operator="erode" in="SourceAlpha" result="effect2_dropShadow_2194_781"/>
<feOffset dy="2.46396"/>
<feGaussianBlur stdDeviation="1.84797"/>
<feColorMatrix type="matrix" values="0 0 0 0 0 0 0 0 0 0 0 0 0 0 0 0 0 0 0.1 0"/>
<feBlend mode="normal" in2="effect1_dropShadow_2194_781" result="effect2_dropShadow_2194_781"/>
<feBlend mode="normal" in="SourceGraphic" in2="effect2_dropShadow_2194_781" result="shape"/>
</filter>
<filter id="filter16_f_2194_781" x="211.952" y="411.663" width="439.742" height="289.136" filterUnits="userSpaceOnUse" color-interpolation-filters="sRGB">
<feFlood flood-opacity="0" result="BackgroundImageFix"/>
<feBlend mode="normal" in="SourceGraphic" in2="BackgroundImageFix" result="shape"/>
<feGaussianBlur stdDeviation="15.6394" result="effect1_foregroundBlur_2194_781"/>
</filter>
<filter id="filter17_f_2194_781" x="0.845226" y="509.306" width="838.168" height="492.492" filterUnits="userSpaceOnUse" color-interpolation-filters="sRGB">
<feFlood flood-opacity="0" result="BackgroundImageFix"/>
<feBlend mode="normal" in="SourceGraphic" in2="BackgroundImageFix" result="shape"/>
<feGaussianBlur stdDeviation="8.07299" result="effect1_foregroundBlur_2194_781"/>
</filter>
<linearGradient id="paint0_linear_2194_781" x1="409.952" y1="709.199" x2="272.036" y2="937.287" gradientUnits="userSpaceOnUse">
<stop stop-color="#4B5563"/>
<stop offset="1" stop-color="#4B5563" stop-opacity="0"/>
</linearGradient>
<linearGradient id="paint1_linear_2194_781" x1="561.121" y1="314.077" x2="398.081" y2="596.47" gradientUnits="userSpaceOnUse">
<stop stop-color="white"/>
<stop offset="0.0001" stop-color="#F9FAFB"/>
<stop offset="1" stop-color="#F3F4F6"/>
</linearGradient>
<linearGradient id="paint2_linear_2194_781" x1="558.482" y1="672.478" x2="389.791" y2="958.338" gradientUnits="userSpaceOnUse">
<stop stop-color="#4B5563"/>
<stop offset="1" stop-color="#4B5563" stop-opacity="0"/>
</linearGradient>
</defs>
</svg>
