<svg  viewBox="0 0 1920 1300" fill="none" xmlns="http://www.w3.org/2000/svg">
    <g clip-path="url(#clip0_2204_2274)">
        <rect width="1920" height="1300" fill="#F9FAFB"/>
        <mask id="mask0_2204_2274" style="mask-type:alpha" maskUnits="userSpaceOnUse" x="1475" y="-397" width="472" height="867">
            <line y1="-0.426784" x2="574" y2="-0.426784" transform="matrix(-4.84939e-08 1 -0.865554 -0.532714 1475.2 -396.058)" stroke="white" stroke-width="0.853568"/>
            <line y1="-0.426784" x2="574" y2="-0.426784" transform="matrix(-4.81944e-08 1 -0.865554 -0.532714 1542.45 -354.451)" stroke="white" stroke-width="0.853568"/>
            <line y1="-0.426784" x2="574" y2="-0.426784" transform="matrix(-4.81944e-08 1 -0.865554 -0.532714 1609.71 -312.844)" stroke="white" stroke-width="0.853568"/>
            <line y1="-0.426784" x2="574" y2="-0.426784" transform="matrix(-4.81944e-08 1 -0.865554 -0.532714 1676.96 -271.238)" stroke="white" stroke-width="0.853568"/>
            <line y1="-0.426784" x2="574" y2="-0.426784" transform="matrix(-4.81944e-08 1 -0.865554 -0.532714 1744.22 -229.632)" stroke="white" stroke-width="0.853568"/>
            <line y1="-0.426784" x2="574" y2="-0.426784" transform="matrix(-4.81944e-08 1 -0.865554 -0.532714 1811.47 -188.026)" stroke="white" stroke-width="0.853568"/>
            <line y1="-0.426784" x2="574" y2="-0.426784" transform="matrix(-4.81944e-08 1 -0.865554 -0.532714 1878.73 -146.419)" stroke="white" stroke-width="0.853568"/>
            <line y1="-0.426784" x2="523" y2="-0.426784" transform="matrix(-0.866025 -0.5 1.52389e-07 -1 1941.22 38.376)" stroke="white" stroke-width="0.853568"/>
            <line y1="-0.426784" x2="523" y2="-0.426784" transform="matrix(-0.866025 -0.5 1.52389e-07 -1 1941.21 116.036)" stroke="white" stroke-width="0.853568"/>
            <line y1="-0.426784" x2="523" y2="-0.426784" transform="matrix(-0.866025 -0.5 1.52389e-07 -1 1941.21 193.695)" stroke="white" stroke-width="0.853568"/>
            <line y1="-0.426784" x2="523" y2="-0.426784" transform="matrix(-0.866025 -0.5 1.52389e-07 -1 1941.21 271.355)" stroke="white" stroke-width="0.853568"/>
            <line y1="-0.426784" x2="523" y2="-0.426784" transform="matrix(-0.866025 -0.5 1.52389e-07 -1 1941.21 349.016)" stroke="white" stroke-width="0.853568"/>
            <line y1="-0.426784" x2="523" y2="-0.426784" transform="matrix(-0.866025 -0.5 1.52389e-07 -1 1941.21 426.571)" stroke="white" stroke-width="0.853568"/>
        </mask>
        <g mask="url(#mask0_2204_2274)">
            <g filter="url(#filter0_f_2204_2274)">
                <path d="M1946.5 -507.358L2635.22 -499.049L2581.21 643.435L1505.66 48.4204L1946.5 -507.358Z" fill="#D9D9D9"/>
            </g>
        </g>
        <mask id="mask1_2204_2274" style="mask-type:alpha" maskUnits="userSpaceOnUse" x="251" y="59" width="2311" height="1335">
            <line y1="-0.426784" x2="1166.82" y2="-0.426784" transform="matrix(-0.866025 0.5 -0.866025 -0.5 1262.78 59.8374)" stroke="white" stroke-width="0.853568"/>
            <line y1="-0.426784" x2="1166.82" y2="-0.426784" transform="matrix(-0.866025 0.5 -0.866025 -0.5 1334.96 101.51)" stroke="white" stroke-width="0.853568"/>
            <line y1="-0.426784" x2="1166.82" y2="-0.426784" transform="matrix(-0.866025 0.5 -0.866025 -0.5 1407.14 143.182)" stroke="white" stroke-width="0.853568"/>
            <line y1="-0.426784" x2="1166.82" y2="-0.426784" transform="matrix(-0.866025 0.5 -0.866025 -0.5 1479.32 184.854)" stroke="white" stroke-width="0.853568"/>
            <line y1="-0.426784" x2="1166.82" y2="-0.426784" transform="matrix(-0.866025 0.5 -0.866025 -0.5 1551.5 226.526)" stroke="white" stroke-width="0.853568"/>
            <line y1="-0.426784" x2="1166.82" y2="-0.426784" transform="matrix(-0.866025 0.5 -0.866025 -0.5 1623.67 268.198)" stroke="white" stroke-width="0.853568"/>
            <line y1="-0.426784" x2="1166.82" y2="-0.426784" transform="matrix(-0.866025 0.5 -0.866025 -0.5 1695.85 309.871)" stroke="white" stroke-width="0.853568"/>
            <line y1="-0.426784" x2="1166.82" y2="-0.426784" transform="matrix(-0.866025 0.5 -0.866025 -0.5 1768.03 351.542)" stroke="white" stroke-width="0.853568"/>
            <line y1="-0.426784" x2="1166.82" y2="-0.426784" transform="matrix(-0.866025 0.5 -0.866025 -0.5 1840.21 393.215)" stroke="white" stroke-width="0.853568"/>
            <line y1="-0.426784" x2="1166.82" y2="-0.426784" transform="matrix(-0.866025 0.5 -0.866025 -0.5 1912.39 434.887)" stroke="white" stroke-width="0.853568"/>
            <line y1="-0.426784" x2="1166.82" y2="-0.426784" transform="matrix(-0.866025 0.5 -0.866025 -0.5 1984.57 476.56)" stroke="white" stroke-width="0.853568"/>
            <line y1="-0.426784" x2="1166.82" y2="-0.426784" transform="matrix(-0.866025 0.5 -0.866025 -0.5 2056.74 518.231)" stroke="white" stroke-width="0.853568"/>
            <line y1="-0.426784" x2="1166.82" y2="-0.426784" transform="matrix(-0.866025 0.5 -0.866025 -0.5 2128.92 559.904)" stroke="white" stroke-width="0.853568"/>
            <line y1="-0.426784" x2="1166.82" y2="-0.426784" transform="matrix(-0.866025 0.5 -0.866025 -0.5 2201.1 601.576)" stroke="white" stroke-width="0.853568"/>
            <line y1="-0.426784" x2="1166.82" y2="-0.426784" transform="matrix(-0.866025 0.5 -0.866025 -0.5 2273.28 643.248)" stroke="white" stroke-width="0.853568"/>
            <line y1="-0.426784" x2="1166.82" y2="-0.426784" transform="matrix(-0.866025 0.5 -0.866025 -0.5 2345.46 684.92)" stroke="white" stroke-width="0.853568"/>
            <line y1="-0.426784" x2="1166.82" y2="-0.426784" transform="matrix(-0.866025 0.5 -0.866025 -0.5 2417.63 726.592)" stroke="white" stroke-width="0.853568"/>
            <line y1="-0.426784" x2="1166.82" y2="-0.426784" transform="matrix(-0.866025 0.5 -0.866025 -0.5 2489.81 768.264)" stroke="white" stroke-width="0.853568"/>
            <line y1="-0.426784" x2="1058.73" y2="-0.426784" transform="matrix(-0.866025 0.5 -0.866025 -0.5 2515.75 836.632)" stroke="white" stroke-width="0.853568"/>
            <line y1="-0.426784" x2="1500.2" y2="-0.426784" transform="matrix(-0.866025 -0.5 0.866026 -0.5 2561.99 809.936)" stroke="white" stroke-width="0.853568"/>
            <line y1="-0.426784" x2="1500.2" y2="-0.426784" transform="matrix(-0.866025 -0.5 0.866026 -0.5 2489.81 851.608)" stroke="white" stroke-width="0.853568"/>
            <line y1="-0.426784" x2="1500.2" y2="-0.426784" transform="matrix(-0.866025 -0.5 0.866026 -0.5 2417.63 893.28)" stroke="white" stroke-width="0.853568"/>
            <line y1="-0.426784" x2="1500.2" y2="-0.426784" transform="matrix(-0.866025 -0.5 0.866026 -0.5 2345.46 934.952)" stroke="white" stroke-width="0.853568"/>
            <line y1="-0.426784" x2="1500.2" y2="-0.426784" transform="matrix(-0.866025 -0.5 0.866026 -0.5 2273.28 976.624)" stroke="white" stroke-width="0.853568"/>
            <line y1="-0.426784" x2="1500.2" y2="-0.426784" transform="matrix(-0.866025 -0.5 0.866026 -0.5 2201.1 1018.3)" stroke="white" stroke-width="0.853568"/>
            <line y1="-0.426784" x2="1500.2" y2="-0.426784" transform="matrix(-0.866025 -0.5 0.866026 -0.5 2128.92 1059.97)" stroke="white" stroke-width="0.853568"/>
            <line y1="-0.426784" x2="1500.2" y2="-0.426784" transform="matrix(-0.866025 -0.5 0.866026 -0.5 2056.74 1101.64)" stroke="white" stroke-width="0.853568"/>
            <line y1="-0.426784" x2="1500.2" y2="-0.426784" transform="matrix(-0.866025 -0.5 0.866026 -0.5 1984.57 1143.31)" stroke="white" stroke-width="0.853568"/>
            <line y1="-0.426784" x2="1500.2" y2="-0.426784" transform="matrix(-0.866025 -0.5 0.866026 -0.5 1912.39 1184.99)" stroke="white" stroke-width="0.853568"/>
            <line y1="-0.426784" x2="1500.2" y2="-0.426784" transform="matrix(-0.866025 -0.5 0.866026 -0.5 1840.21 1226.66)" stroke="white" stroke-width="0.853568"/>
            <line y1="-0.426784" x2="1500.2" y2="-0.426784" transform="matrix(-0.866025 -0.5 0.866026 -0.5 1768.03 1268.33)" stroke="white" stroke-width="0.853568"/>
            <line y1="-0.426784" x2="1500.2" y2="-0.426784" transform="matrix(-0.866025 -0.5 0.866026 -0.5 1695.85 1310)" stroke="white" stroke-width="0.853568"/>
            <line y1="-0.426784" x2="1500.2" y2="-0.426784" transform="matrix(-0.866025 -0.5 0.866026 -0.5 1623.67 1351.67)" stroke="white" stroke-width="0.853568"/>
            <line y1="-0.426784" x2="1500.2" y2="-0.426784" transform="matrix(-0.866025 -0.5 0.866026 -0.5 1551.49 1393.35)" stroke="white" stroke-width="0.853568"/>
        </mask>
        <g mask="url(#mask1_2204_2274)">
            <path d="M1866.22 1039.92C1604.18 1191.21 1142.79 1170.22 835.681 992.911C528.571 815.601 492.211 549.22 754.256 397.928C1016.3 246.636 1477.69 267.628 1784.8 444.939C2091.91 622.249 2128.27 888.63 1866.22 1039.92Z" fill="url(#paint0_radial_2204_2274)" stroke="white" stroke-width="0.739869"/>
        </g>
        <path d="M1063.45 785.948L1069.74 785.948L1069.74 792.766L1063.45 792.766L1063.45 785.948Z" fill="#F8B545"/>
        <path d="M996.849 725.636C987.931 725.636 980.063 727.736 973.77 731.411C968.002 735.079 964.334 740.322 963.809 746.09L963.809 753.538C963.809 759.838 968.009 765.606 973.77 769.274C980.07 772.942 987.931 775.042 996.849 775.042C1005.23 775.042 1013.1 772.942 1019.4 769.274C1025.16 765.606 1029.36 759.838 1029.36 753.545L1029.36 746.202C1028.84 740.434 1025.16 735.191 1019.4 731.516C1013.1 727.848 1005.23 725.748 996.849 725.748L996.849 725.636ZM996.849 738.747C1004.19 738.747 1011.01 740.847 1015.73 743.472C1018.88 745.572 1020.97 747.665 1022.02 750.283C1020.97 752.908 1018.87 755.008 1015.72 757.101C1011.01 759.726 1004.19 761.826 996.849 761.826C988.981 761.826 982.163 759.726 977.445 757.101C974.295 755.001 972.195 752.908 971.145 750.283C972.195 747.665 974.295 745.565 977.445 743.472C982.163 740.847 988.981 738.747 996.849 738.747Z" fill="#4399C0"/>
        <path d="M1019.4 762.351L1018.35 762.351L1018.35 769.162L1062.4 794.334C1063.45 795.384 1065.02 795.384 1066.6 795.384C1068.17 794.824 1069.22 794.334 1069.74 793.284C1070.27 792.234 1069.74 791.184 1068.69 790.666L1019.4 762.351Z" fill="#F8B545"/>
        <path d="M1068.69 783.848L1019.4 755.533L1012.58 759.201L1062.4 788.041C1063.45 788.601 1065.02 789.091 1066.6 788.601C1068.17 788.601 1069.22 787.558 1069.75 786.501C1070.27 785.941 1069.75 784.933 1068.7 783.883L1068.69 783.848Z" fill="#FECB5B"/>
        <path d="M996.849 725.636C987.931 725.636 980.063 727.736 973.77 731.411C968.002 735.079 963.809 740.322 963.809 747.14C963.809 753.433 968.009 758.676 973.77 762.351C980.07 766.019 987.931 768.119 996.849 768.119C1005.23 768.119 1013.1 766.019 1019.4 762.351C1025.16 758.676 1029.36 753.433 1029.36 747.14C1029.36 740.322 1025.16 735.079 1019.4 731.411C1013.1 727.736 1005.23 725.636 996.849 725.636ZM996.849 732.454C1004.19 732.454 1011.01 734.029 1015.73 737.179C1020.45 739.797 1023.07 743.465 1023.07 747.14C1023.07 750.29 1020.45 753.958 1015.72 757.101C1011.01 759.726 1004.19 761.826 996.849 761.826C988.981 761.826 982.163 759.726 977.445 757.101C972.727 753.951 970.627 750.283 970.627 747.14C970.627 743.465 972.727 739.797 977.445 737.179C982.163 734.029 988.981 732.454 996.849 732.454Z" fill="#6DB0CF"/>
        <path d="M1145.2 469.084L1144.15 479.012L1079.99 507.571L1081.04 497.635L1145.2 469.084ZM1148.67 436.036L1147.63 445.964L1083.47 474.532L1084.51 464.604L1148.67 436.036ZM1152.29 401.641L1151.24 411.57L1087.09 440.129L1088.13 430.201L1152.29 401.641ZM1155.94 366.971L1154.89 376.899L1090.73 405.467L1091.78 395.539L1155.94 366.971ZM1141.54 503.475L1140.5 513.403L1076.34 541.962L1077.39 532.034L1141.54 503.475Z" fill="#FECB5B"/>
        <path d="M1137.61 540.699L1129.47 535.086L1149.03 349.102L1157.14 354.991L1137.61 540.699ZM1120.34 538.883L1129.47 535.086L1149.03 349.102L1139.88 353.175L1120.34 538.883Z" fill="#ED4A4B"/>
        <path d="M1139.87 353.21L1148.01 358.823L1128.45 544.798L1120.34 538.918L1139.87 353.21Z" fill="#FECB5B"/>
        <path d="M1157.14 355.025L1148.01 358.822L1128.45 544.798L1137.61 540.733L1157.14 355.025Z" fill="#F8B545"/>
        <path d="M1140.51 513.404L1139.46 523.332L1075.3 551.89L1076.34 541.962L1140.51 513.404Z" fill="#F8B545"/>
        <path d="M1082.66 565.19L1074.52 559.577L1094.09 373.602L1102.19 379.491L1082.66 565.19ZM1065.4 563.374L1074.52 559.577L1094.09 373.602L1084.93 377.666L1065.4 563.374Z" fill="#ED4A4B"/>
        <path d="M1084.93 377.71L1093.06 383.323L1073.5 569.29L1065.39 563.409L1084.93 377.71Z" fill="#FECB5B"/>
        <path d="M1102.19 379.526L1093.06 383.323L1073.5 569.29L1082.66 565.225L1102.19 379.526Z" fill="#F8B545"/>
        <path d="M1144.15 479.012L1143.11 488.94L1078.95 517.499L1080 507.571L1144.15 479.012ZM1147.63 445.964L1146.58 455.892L1082.43 484.46L1083.47 474.532L1147.63 445.964ZM1151.25 411.57L1150.2 421.498L1086.04 450.057L1087.09 440.129L1151.25 411.57ZM1154.89 376.899L1153.85 386.827L1089.69 415.395L1090.73 405.467L1154.89 376.899Z" fill="#F8B545"/>
        <g opacity="0.07" filter="url(#filter1_f_2204_2274)">
            <path d="M1136.61 584.495L1435.98 750.98L1221.32 879.56C1214.43 883.688 1203.16 883.869 1196.14 879.966L922.18 727.616C915.16 723.713 915.055 717.202 921.946 713.075L1136.61 584.495Z" fill="url(#paint1_linear_2204_2274)"/>
        </g>
        <g opacity="0.07" filter="url(#filter2_f_2204_2274)">
            <path d="M1170.44 483.991L1699.21 778.043L1427.21 940.973C1420.31 945.1 1409.04 945.281 1402.02 941.378L898.668 661.462C891.649 657.558 891.544 651.048 898.434 646.921L1170.44 483.991Z" fill="url(#paint2_linear_2204_2274)"/>
        </g>
        <g filter="url(#filter3_dd_2204_2274)">
            <path d="M1228.97 88.3062C1230.44 87.5378 1232.39 87.762 1234.42 88.9322L1693.52 353.999C1696.63 355.795 1699.16 360.163 1699.16 363.756L1699.16 767.853C1699.16 771.308 1697.84 773.823 1695.55 774.726L1670.98 784.422L1238.99 508.106C1234.56 505.272 1230.99 499.198 1230.63 493.884L1203.94 101.42L1228.97 88.3062Z" fill="#E5E7EB"/>
        </g>
        <g filter="url(#filter4_dd_2204_2274)">
            <path d="M1203.57 137.58L1671.36 407.653L1671.36 773.938C1671.36 779.593 1667.38 781.886 1662.49 779.058L1212.44 519.224C1207.54 516.397 1203.57 509.52 1203.57 503.865L1203.57 137.58Z" fill="url(#paint3_linear_2204_2274)"/>
            <path d="M1203.57 135.629L1201.88 134.653L1201.88 136.604L1201.88 502.889C1201.88 509.622 1206.61 517.809 1212.44 521.175L1662.49 781.009C1668.32 784.375 1673.04 781.646 1673.04 774.913L1673.04 408.629L1673.04 406.678L1671.36 405.702L1203.57 135.629Z" stroke="white" stroke-width="3.90188"/>
        </g>
        <g filter="url(#filter5_d_2204_2274)">
            <mask id="path-69-outside-1_2204_2274" maskUnits="userSpaceOnUse" x="1200.11" y="98.5459" width="475.448" height="312.5" fill="black">
                <rect fill="white" x="1200.11" y="98.5459" width="475.448" height="312.5"/>
                <path d="M1203.57 107.701C1203.57 105.959 1204.8 105.252 1206.31 106.124L1668.62 373.042C1670.13 373.913 1671.36 376.032 1671.36 377.775L1671.36 408.384L1203.57 138.31L1203.57 107.701Z"/>
            </mask>
            <path d="M1203.57 107.701C1203.57 105.959 1204.8 105.252 1206.31 106.124L1668.62 373.042C1670.13 373.913 1671.36 376.032 1671.36 377.775L1671.36 408.384L1203.57 138.31L1203.57 107.701Z" fill="#F9FAFB"/>
            <path d="M1200.2 105.75C1200.2 101.853 1202.93 100.273 1206.31 102.222L1668.62 369.14C1672 371.089 1674.73 375.828 1674.73 379.726L1667.98 376.57L1206.95 110.399L1200.2 105.75ZM1671.36 408.384L1203.57 138.31L1671.36 408.384ZM1200.2 136.359L1200.2 105.75C1200.2 101.853 1202.93 100.273 1206.31 102.222L1206.95 110.399L1206.95 140.261L1200.2 136.359ZM1668.62 369.14C1672 371.089 1674.73 375.828 1674.73 379.726L1674.73 410.334L1667.98 406.433L1667.98 376.57L1668.62 369.14Z" fill="white" mask="url(#path-69-outside-1_2204_2274)"/>
        </g>
        <circle cx="3.78658" cy="3.78658" r="3.78658" transform="matrix(0.866025 0.5 -2.20305e-08 1 1214.8 122.583)" fill="#EF4444"/>
        <circle cx="3.78658" cy="3.78658" r="3.78658" transform="matrix(0.866025 0.5 -2.20305e-08 1 1225.73 128.893)" fill="#F59E0B"/>
        <circle cx="3.78658" cy="3.78658" r="3.78658" transform="matrix(0.866025 0.5 -2.20305e-08 1 1236.66 135.204)" fill="#10B981"/>
        <rect width="273.913" height="15.5044" rx="3.10088" transform="matrix(0.866025 0.5 -2.20305e-08 1 1328.04 185.524)" fill="#E5E7EB"/>
        <g filter="url(#filter6_i_2204_2274)">
            <rect width="286.575" height="35.0274" rx="14.9711" transform="matrix(0.866025 0.5 -2.20305e-08 1 1307.56 298.812)" fill="#E5E7EB"/>
        </g>
        <path d="M1419.41 322.705C1419.32 322.295 1419.19 321.907 1419.03 321.539C1418.87 321.166 1418.67 320.817 1418.44 320.491C1418.21 320.162 1417.94 319.861 1417.65 319.586C1417.35 319.314 1417.03 319.075 1416.67 318.869C1416.01 318.484 1415.42 318.337 1414.91 318.428C1414.41 318.521 1414.02 318.852 1413.74 319.421C1413.46 319.985 1413.32 320.791 1413.32 321.841C1413.32 322.89 1413.46 323.862 1413.74 324.757C1414.01 325.652 1414.4 326.439 1414.91 327.118C1415.41 327.792 1416.01 328.328 1416.7 328.725C1417.32 329.086 1417.86 329.266 1418.3 329.266C1418.74 329.263 1419.08 329.094 1419.32 328.758C1419.55 328.425 1419.67 327.937 1419.67 327.295L1420.23 327.714L1416.87 325.772L1416.87 323.374L1422.33 326.526L1422.33 328.424C1422.33 329.748 1422.09 330.745 1421.6 331.417C1421.12 332.084 1420.45 332.43 1419.6 332.454C1418.75 332.474 1417.78 332.167 1416.69 331.535C1415.46 330.829 1414.39 329.897 1413.46 328.74C1412.54 327.578 1411.81 326.271 1411.3 324.82C1410.78 323.366 1410.53 321.844 1410.53 320.256C1410.53 319.035 1410.68 318.034 1410.98 317.255C1411.29 316.473 1411.73 315.909 1412.28 315.563C1412.84 315.217 1413.49 315.084 1414.23 315.162C1414.97 315.241 1415.77 315.529 1416.63 316.026C1417.37 316.453 1418.05 316.975 1418.69 317.593C1419.33 318.206 1419.89 318.88 1420.39 319.616C1420.88 320.354 1421.29 321.125 1421.6 321.929C1421.92 322.728 1422.12 323.526 1422.21 324.323L1419.41 322.705ZM1428.77 338.527C1427.78 337.956 1426.93 337.219 1426.2 336.317C1425.49 335.412 1424.93 334.411 1424.54 333.312C1424.15 332.209 1423.95 331.079 1423.95 329.921C1423.95 328.754 1424.15 327.847 1424.54 327.2C1424.93 326.548 1425.49 326.186 1426.2 326.115C1426.93 326.041 1427.78 326.29 1428.77 326.862C1429.76 327.433 1430.61 328.171 1431.33 329.076C1432.05 329.978 1432.61 330.981 1433 332.084C1433.39 333.182 1433.59 334.315 1433.59 335.482C1433.59 336.639 1433.39 337.544 1433 338.196C1432.61 338.843 1432.05 339.204 1431.33 339.277C1430.61 339.348 1429.76 339.098 1428.77 338.527ZM1428.78 336.107C1429.23 336.367 1429.61 336.437 1429.91 336.317C1430.21 336.192 1430.44 335.916 1430.59 335.489C1430.75 335.065 1430.83 334.525 1430.83 333.867C1430.83 333.21 1430.75 332.579 1430.59 331.973C1430.44 331.37 1430.21 330.832 1429.91 330.359C1429.61 329.886 1429.23 329.519 1428.78 329.259C1428.33 328.997 1427.95 328.926 1427.64 329.046C1427.33 329.169 1427.1 329.442 1426.94 329.866C1426.79 330.293 1426.71 330.835 1426.71 331.492C1426.71 332.149 1426.79 332.779 1426.94 333.382C1427.1 333.988 1427.33 334.528 1427.64 335.004C1427.95 335.477 1428.33 335.845 1428.78 336.107ZM1439.77 344.878C1438.78 344.307 1437.93 343.57 1437.2 342.668C1436.49 341.763 1435.93 340.762 1435.54 339.663C1435.15 338.56 1434.96 337.43 1434.96 336.273C1434.96 335.106 1435.15 334.198 1435.54 333.551C1435.93 332.899 1436.49 332.537 1437.2 332.466C1437.93 332.393 1438.78 332.642 1439.77 333.213C1440.76 333.784 1441.61 334.522 1442.33 335.427C1443.05 336.329 1443.61 337.332 1444 338.435C1444.39 339.533 1444.59 340.666 1444.59 341.833C1444.59 342.99 1444.39 343.895 1444 344.547C1443.61 345.195 1443.05 345.555 1442.33 345.629C1441.61 345.7 1440.76 345.45 1439.77 344.878ZM1439.78 342.458C1440.23 342.718 1440.61 342.788 1440.91 342.668C1441.21 342.543 1441.44 342.267 1441.59 341.841C1441.75 341.416 1441.83 340.876 1441.83 340.219C1441.83 339.562 1441.75 338.93 1441.59 338.325C1441.44 337.722 1441.21 337.183 1440.91 336.71C1440.61 336.237 1440.23 335.871 1439.78 335.611C1439.33 335.348 1438.95 335.277 1438.64 335.397C1438.33 335.52 1438.1 335.793 1437.94 336.217C1437.79 336.644 1437.71 337.186 1437.71 337.843C1437.71 338.5 1437.79 339.13 1437.94 339.733C1438.1 340.339 1438.33 340.88 1438.64 341.355C1438.95 341.828 1439.33 342.196 1439.78 342.458ZM1450.76 355.474C1449.88 354.966 1449.13 354.391 1448.5 353.749C1447.87 353.114 1447.38 352.452 1447.01 351.763C1446.64 351.074 1446.4 350.401 1446.29 349.744L1448.8 350.803C1448.87 351.073 1448.99 351.353 1449.16 351.645C1449.33 351.937 1449.54 352.22 1449.82 352.495C1450.09 352.777 1450.43 353.032 1450.82 353.26C1451.41 353.6 1451.9 353.714 1452.28 353.602C1452.67 353.496 1452.86 353.056 1452.86 352.281L1452.86 350.215L1452.75 350.148C1452.63 350.394 1452.45 350.587 1452.21 350.729C1451.97 350.872 1451.67 350.923 1451.29 350.884C1450.92 350.845 1450.47 350.675 1449.96 350.376C1449.22 349.952 1448.55 349.37 1447.95 348.63C1447.35 347.887 1446.87 347.005 1446.52 345.985C1446.16 344.963 1445.99 343.827 1445.99 342.576C1445.99 341.296 1446.17 340.332 1446.53 339.682C1446.89 339.032 1447.37 338.667 1447.97 338.586C1448.57 338.507 1449.23 338.675 1449.95 339.09C1450.5 339.406 1450.96 339.779 1451.33 340.208C1451.7 340.632 1451.99 341.068 1452.22 341.517C1452.45 341.963 1452.62 342.374 1452.75 342.749L1452.85 342.808L1452.85 340.91L1455.54 342.466L1455.54 353.874C1455.54 354.835 1455.34 355.521 1454.93 355.933C1454.52 356.345 1453.96 356.505 1453.24 356.411C1452.52 356.326 1451.69 356.013 1450.76 355.474ZM1450.82 348.519C1451.25 348.772 1451.62 348.86 1451.92 348.784C1452.23 348.706 1452.46 348.477 1452.63 348.1C1452.79 347.72 1452.87 347.199 1452.87 346.537C1452.87 345.875 1452.79 345.255 1452.63 344.676C1452.47 344.093 1452.24 343.578 1451.93 343.131C1451.63 342.685 1451.25 342.336 1450.82 342.083C1450.37 341.826 1449.99 341.749 1449.69 341.852C1449.38 341.95 1449.15 342.199 1448.99 342.598C1448.84 342.998 1448.76 343.519 1448.76 344.161C1448.76 344.813 1448.84 345.423 1448.99 345.989C1449.16 346.553 1449.39 347.052 1449.69 347.486C1449.99 347.917 1450.37 348.262 1450.82 348.519ZM1460.42 341.513L1460.42 356.577L1457.7 355.01L1457.7 339.947L1460.42 341.513ZM1467.05 360.627C1466.04 360.046 1465.18 359.31 1464.45 358.42C1463.73 357.528 1463.17 356.535 1462.78 355.441C1462.39 354.343 1462.19 353.198 1462.19 352.006C1462.19 350.844 1462.39 349.937 1462.78 349.285C1463.17 348.633 1463.72 348.266 1464.43 348.185C1465.14 348.107 1465.98 348.345 1466.94 348.899C1467.59 349.272 1468.19 349.739 1468.74 350.3C1469.3 350.859 1469.79 351.497 1470.21 352.212C1470.63 352.931 1470.96 353.718 1471.19 354.573C1471.42 355.424 1471.54 356.33 1471.54 357.291L1471.54 358.152L1463.28 353.382L1463.28 351.44L1468.98 354.735C1468.98 354.284 1468.9 353.836 1468.73 353.389C1468.56 352.943 1468.32 352.535 1468.02 352.165C1467.73 351.792 1467.38 351.492 1466.98 351.264C1466.57 351.026 1466.21 350.925 1465.89 350.962C1465.57 350.996 1465.33 351.146 1465.15 351.411C1464.97 351.671 1464.88 352.022 1464.88 352.466L1464.88 354.312C1464.88 354.871 1464.97 355.406 1465.14 355.916C1465.33 356.428 1465.58 356.89 1465.91 357.302C1466.25 357.714 1466.64 358.051 1467.09 358.314C1467.39 358.488 1467.67 358.598 1467.92 358.645C1468.17 358.691 1468.39 358.668 1468.56 358.575C1468.74 358.482 1468.88 358.32 1468.97 358.089L1471.48 359.73C1471.35 360.352 1471.09 360.81 1470.7 361.101C1470.31 361.391 1469.8 361.501 1469.18 361.432C1468.57 361.361 1467.86 361.093 1467.05 360.627Z" fill="#4B5563"/>
        <g filter="url(#filter7_f_2204_2274)">
            <rect width="420.663" height="103.82" rx="7.31462" transform="matrix(0.866025 0.5 -2.20305e-08 1 1150.85 290.917)" fill="#A78BFA" fill-opacity="0.15"/>
        </g>
        <g filter="url(#filter8_d_2204_2274)">
            <g filter="url(#filter9_dd_2204_2274)">
                <rect width="418.17" height="93.9474" rx="5.77829" transform="matrix(0.866789 0.498676 -2.21085e-08 1 1144.42 298.208)" fill="#D1D0FF"/>
            </g>
            <rect x="1128.88" y="309.396" width="19.5604" height="18.0501" transform="rotate(-27 1128.88 309.396)" fill="#D1D0FF"/>
            <rect x="1482.04" y="589.775" width="16.6485" height="18.367" transform="rotate(-27 1482.04 589.775)" fill="#D1D0FF"/>
            <rect width="16.6138" height="21.8839" transform="matrix(0.891654 -0.452718 0.455265 0.890356 1393.2 543.501)" fill="#D1D5DB"/>
            <g filter="url(#filter10_dd_2204_2274)">
                <rect width="333.103" height="88.2534" rx="5.77829" transform="matrix(0.866025 0.5 -2.20305e-08 1 1141.75 398.374)" fill="#D1D5DB"/>
            </g>
            <rect x="1127.85" y="413.002" width="19.5604" height="18.2844" transform="rotate(-27 1127.85 413.002)" fill="#D1D5DB"/>
            <rect x="1404.1" y="638.425" width="16.8305" height="22.2155" transform="rotate(-27 1404.1 638.425)" fill="#D1D5DB"/>
            <g filter="url(#filter11_dd_2204_2274)">
                <rect width="333.514" height="88.2694" rx="5.77829" transform="matrix(0.866025 0.5 -2.20305e-08 1 1141.74 492.466)" fill="#D1D5DB"/>
            </g>
            <rect x="1128.06" y="507.525" width="19.5604" height="17.8016" transform="rotate(-27 1128.06 507.525)" fill="#D1D5DB"/>
            <rect x="1403.38" y="732.884" width="17.6383" height="22.4238" transform="rotate(-27 1403.38 732.884)" fill="#D1D5DB"/>
            <g filter="url(#filter12_dd_2204_2274)">
                <rect width="333.103" height="79.1992" rx="6.67615" transform="matrix(0.866025 0.5 -2.20305e-08 1 1125.79 413.03)" fill="#F9FAFB"/>
                <rect width="199.163" height="11.6469" rx="5.15584" transform="matrix(0.866025 0.5 -2.20305e-08 1 1148.92 447.347)" fill="#E5E7EB"/>
                <rect width="132.775" height="11.6469" rx="5.15584" transform="matrix(0.866025 0.5 -2.20305e-08 1 1148.92 469.008)" fill="#E5E7EB"/>
                <g filter="url(#filter13_dd_2204_2274)">
                    <rect width="71.9485" height="65.6305" rx="3.93288" transform="matrix(0.866025 0.5 -2.20305e-08 1 1344.67 546.075)" fill="#E5E7EB"/>
                    <rect x="0.504327" y="0.873521" width="70.7838" height="64.4658" rx="3.35054" transform="matrix(0.866025 0.5 -2.20305e-08 1 1344.74 545.823)" stroke="white" stroke-width="1.16469"/>
                </g>
                <mask id="mask2_2204_2274" style="mask-type:alpha" maskUnits="userSpaceOnUse" x="1348" y="554" width="55" height="86">
                    <rect width="62.6083" height="57.1105" rx="3.93288" transform="matrix(0.866025 0.5 -2.20305e-08 1 1348.72 552.67)" fill="white"/>
                </mask>
                <g mask="url(#mask2_2204_2274)">
                    <path d="M1387.6 607.283C1388.42 606.616 1389.93 607.489 1390.75 609.1L1406.19 639.541C1407.29 641.717 1406.35 643.497 1404.62 642.498L1373.73 624.667C1372 623.668 1371.05 620.794 1372.16 619.893L1387.6 607.283Z" fill="#D1D5DB"/>
                    <path d="M1362.84 584.138C1363.65 583.471 1365.17 584.345 1365.98 585.956L1387.87 629.097C1388.97 631.272 1388.03 633.052 1386.3 632.053L1342.53 606.783C1340.8 605.784 1339.85 602.91 1340.95 602.009L1362.84 584.138Z" fill="#9CA3AF"/>
                    <ellipse cx="8.19518" cy="7.47554" rx="8.19518" ry="7.47554" transform="matrix(0.866025 0.5 -2.20305e-08 1 1374.73 576.946)" fill="#9CA3AF"/>
                </g>
                <rect x="-1.00865" y="-1.74704" width="335.432" height="81.5286" rx="7.84084" transform="matrix(0.866025 0.5 -2.20305e-08 1 1125.66 413.534)" stroke="white" stroke-width="2.32939"/>
            </g>
            <g filter="url(#filter14_dd_2204_2274)">
                <rect width="333.103" height="79.1992" rx="6.67615" transform="matrix(0.866025 0.5 -2.20305e-08 1 1125.79 507.364)" fill="#F9FAFB"/>
                <rect width="199.163" height="11.6469" rx="5.15584" transform="matrix(0.866025 0.5 -2.20305e-08 1 1148.92 541.682)" fill="#E5E7EB"/>
                <rect width="132.775" height="11.6469" rx="5.15584" transform="matrix(0.866025 0.5 -2.20305e-08 1 1148.92 563.343)" fill="#E5E7EB"/>
                <g filter="url(#filter15_dd_2204_2274)">
                    <rect width="71.9485" height="65.6305" rx="3.93288" transform="matrix(0.866025 0.5 -2.20305e-08 1 1344.67 640.409)" fill="#E5E7EB"/>
                    <rect x="0.504327" y="0.873521" width="70.7838" height="64.4658" rx="3.35054" transform="matrix(0.866025 0.5 -2.20305e-08 1 1344.74 640.157)" stroke="white" stroke-width="1.16469"/>
                </g>
                <mask id="mask3_2204_2274" style="mask-type:alpha" maskUnits="userSpaceOnUse" x="1348" y="648" width="55" height="86">
                    <rect width="62.6083" height="57.1105" rx="3.93288" transform="matrix(0.866025 0.5 -2.20305e-08 1 1348.72 647.004)" fill="white"/>
                </mask>
                <g mask="url(#mask3_2204_2274)">
                    <path d="M1387.6 701.617C1388.42 700.95 1389.93 701.823 1390.75 703.434L1406.19 733.875C1407.29 736.051 1406.35 737.831 1404.62 736.832L1373.73 719.001C1372 718.002 1371.05 715.128 1372.16 714.227L1387.6 701.617Z" fill="#D1D5DB"/>
                    <path d="M1362.84 678.472C1363.65 677.805 1365.17 678.678 1365.98 680.289L1387.87 723.431C1388.97 725.606 1388.03 727.386 1386.3 726.387L1342.53 701.117C1340.8 700.118 1339.85 697.244 1340.95 696.343L1362.84 678.472Z" fill="#9CA3AF"/>
                    <ellipse cx="8.19518" cy="7.47554" rx="8.19518" ry="7.47554" transform="matrix(0.866025 0.5 -2.20305e-08 1 1374.73 671.28)" fill="#9CA3AF"/>
                </g>
                <rect x="-1.00865" y="-1.74704" width="335.432" height="81.5286" rx="7.84084" transform="matrix(0.866025 0.5 -2.20305e-08 1 1125.66 507.869)" stroke="white" stroke-width="2.32939"/>
            </g>
        </g>
        <rect x="-1.19507" y="-2.06992" width="420.857" height="89.6378" rx="7.53059" transform="matrix(0.866025 0.5 -2.20305e-08 1 1128.33 310.447)" fill="#F9FAFB"/>
        <g filter="url(#filter16_d_2204_2274)">
            <rect width="27.6181" height="27.6181" rx="13.8091" transform="matrix(0.866025 0.5 -2.20305e-08 1 1149.8 340.604)" fill="#E5E7EB"/>
            <path d="M1158.66 358.934L1156.24 352.532C1155.96 351.796 1155.82 351.428 1155.85 351.206C1155.87 351.012 1155.96 350.881 1156.11 350.844C1156.27 350.802 1156.56 350.966 1157.13 351.296L1158.55 352.117C1158.76 352.24 1158.87 352.301 1158.97 352.391C1159.05 352.471 1159.13 352.567 1159.19 352.673C1159.27 352.793 1159.32 352.93 1159.43 353.203L1161.76 359.113L1164.09 355.892C1164.2 355.743 1164.25 355.669 1164.32 355.635C1164.39 355.606 1164.47 355.599 1164.55 355.616C1164.65 355.636 1164.75 355.697 1164.96 355.82L1166.39 356.641C1166.96 356.97 1167.24 357.135 1167.41 357.37C1167.56 357.575 1167.65 357.815 1167.67 358.033C1167.69 358.282 1167.55 358.489 1167.28 358.904L1164.85 362.509M1160.8 362.236L1161.76 362.052L1161.76 365.727M1160.96 365.268L1162.55 366.186M1164.68 362.201C1166.3 364.999 1166.3 368.023 1164.68 368.956C1163.07 369.889 1160.45 368.377 1158.83 365.578C1157.22 362.78 1157.22 359.756 1158.83 358.823C1160.45 357.89 1163.07 359.403 1164.68 362.201Z" stroke="#B7ACFF" stroke-width="1.75752" stroke-linecap="round" stroke-linejoin="round"/>
            <rect x="-0.45429" y="-0.786853" width="28.6673" height="28.6673" rx="14.3336" transform="matrix(0.866025 0.5 -2.20305e-08 1 1149.74 340.831)" stroke="white" stroke-width="1.04914"/>
        </g>
        <rect width="199.163" height="11.6469" rx="5.15584" transform="matrix(0.866025 0.5 -2.20305e-08 1 1190.41 369.323)" fill="#E5E7EB"/>
        <rect width="132.775" height="11.6469" rx="5.15584" transform="matrix(0.866025 0.5 -2.20305e-08 1 1190.41 390.984)" fill="#E5E7EB"/>
        <g filter="url(#filter17_dd_2204_2274)">
            <rect width="75.3454" height="74.5766" rx="3.62331" transform="matrix(0.866025 0.5 -2.20305e-08 1 1420 484.301)" fill="white"/>
        </g>
        <mask id="mask4_2204_2274" style="mask-type:alpha" maskUnits="userSpaceOnUse" x="1424" y="492" width="58" height="96">
            <rect width="65.5643" height="64.8953" rx="3.62331" transform="matrix(0.866025 0.5 -2.20305e-08 1 1424.23 491.587)" fill="white"/>
        </mask>
        <g mask="url(#mask4_2204_2274)">
            <path d="M1464.08 552.456C1465.35 551.27 1467.85 552.714 1469.12 555.363L1483.44 585.291C1485.03 588.617 1483.54 591.228 1480.92 589.714L1452.28 573.178C1449.66 571.664 1448.17 567.336 1449.76 565.848L1464.08 552.456Z" fill="#D4C9FE"/>
            <path d="M1436.89 528.609C1438.79 526.83 1442.54 528.995 1444.44 532.969L1468.13 582.486L1422.8 556.311C1418.86 554.04 1416.63 547.549 1419.02 545.316L1436.89 528.609Z" fill="#AF8DFB"/>
            <ellipse cx="8.5821" cy="8.49453" rx="8.5821" ry="8.49453" transform="matrix(0.866025 0.5 -2.20305e-08 1 1451.47 517.832)" fill="#D4C9FE"/>
        </g>
        <rect x="-1.19507" y="-2.06992" width="420.857" height="89.6378" rx="7.53059" transform="matrix(0.866025 0.5 -2.20305e-08 1 1128.33 310.447)" stroke="white" stroke-width="2.75989"/>
        <g filter="url(#filter18_f_2204_2274)">
            <rect width="435.535" height="14.2497" rx="7.12483" transform="matrix(0.866025 0.5 -2.20305e-08 1 1119.57 398.761)" fill="#A78BFA" fill-opacity="0.1"/>
        </g>
        <path d="M1409.4 853.149C1409.19 853.149 1408.97 853.093 1408.78 852.98L1403.05 849.655C1402.66 849.432 1402.43 849.022 1402.43 848.578L1402.4 832.113C1402.4 831.717 1402.59 831.341 1402.91 831.106C1406.16 828.72 1409.56 826.01 1413.03 823.054C1413.43 822.708 1414.01 822.654 1414.46 822.925L1420.17 826.25C1420.55 826.473 1420.79 826.882 1420.79 827.324L1420.84 846.004C1420.84 846.451 1420.61 846.863 1420.22 847.088L1410.03 852.98C1409.83 853.093 1409.62 853.149 1409.4 853.149Z" fill="#C6BDFF"/>
        <path d="M1469.77 817.242C1469.55 817.242 1469.33 817.186 1469.14 817.073L1463.41 813.748C1463.03 813.525 1462.79 813.116 1462.79 812.673L1462.65 765.254C1462.65 765.002 1462.73 764.757 1462.87 764.548C1467.51 757.743 1470.94 752.28 1473 748.894C1473.35 748.316 1474.1 748.12 1474.69 748.462L1480.42 751.762C1480.8 751.983 1481.04 752.393 1481.04 752.838L1481.21 810.097C1481.21 810.544 1480.97 810.956 1480.58 811.181L1470.39 817.075C1470.2 817.186 1469.98 817.242 1469.77 817.242ZM1449.65 828.839C1449.44 828.839 1449.22 828.783 1449.03 828.67L1443.3 825.345C1442.91 825.122 1442.68 824.713 1442.68 824.27L1442.59 792.018C1442.59 791.728 1442.69 791.448 1442.88 791.224C1446.26 787.112 1449.68 782.77 1453.04 778.314C1453.42 777.813 1454.11 777.674 1454.66 777.985L1460.36 781.283C1460.75 781.505 1460.98 781.916 1460.98 782.359L1461.09 821.694C1461.09 822.141 1460.86 822.553 1460.47 822.778L1450.28 828.67C1450.08 828.783 1449.87 828.839 1449.65 828.839ZM1429.57 840.437C1429.35 840.437 1429.14 840.382 1428.94 840.269L1423.21 836.943C1422.83 836.721 1422.59 836.312 1422.59 835.868L1422.53 813.889C1422.53 813.551 1422.67 813.23 1422.91 812.993C1426.3 809.68 1429.72 806.167 1433.06 802.551C1433.45 802.123 1434.09 802.029 1434.6 802.316L1440.3 805.614C1440.69 805.836 1440.92 806.247 1440.92 806.69L1441.01 833.293C1441.01 833.738 1440.77 834.152 1440.38 834.376L1430.19 840.269C1430 840.382 1429.78 840.437 1429.57 840.437ZM1395.42 813.087L1396.15 812.527C1429.5 788.163 1456.36 745.664 1464.74 731.537L1461.98 729.942C1461.61 729.73 1461.38 729.344 1461.36 728.921C1461.34 728.497 1461.54 728.091 1461.88 727.846L1474.37 718.978C1474.77 718.696 1475.3 718.67 1475.72 718.917L1481.42 722.243C1481.86 722.498 1482.1 722.994 1482.03 723.498L1479.89 738.259C1479.84 738.667 1479.58 739.02 1479.21 739.201C1478.83 739.382 1478.4 739.367 1478.04 739.161L1475.68 737.803C1468.75 749.508 1439.7 796.326 1403.92 822.435L1403.21 822.948C1402.99 823.106 1402.74 823.188 1402.48 823.188C1402.26 823.188 1402.05 823.132 1401.85 823.018L1396.15 819.692C1395.81 819.498 1395.59 819.16 1395.54 818.778L1394.94 814.237C1394.88 813.797 1395.07 813.358 1395.42 813.087Z" fill="#C6BDFF"/>
        <path d="M1420.59 845.772C1420.59 846.091 1420.42 846.387 1420.15 846.545L1409.9 852.44C1409.77 852.52 1409.61 852.56 1409.46 852.56C1409.3 852.56 1409.15 852.52 1409.01 852.441L1409.01 852.44L1403.27 849.115C1402.99 848.954 1402.82 848.662 1402.82 848.345L1402.77 831.868C1402.77 831.633 1402.98 831.262 1403.14 831.147C1406.47 828.719 1409.89 826.008 1413.33 823.089C1413.62 822.843 1414.03 822.805 1414.35 822.995L1420.1 826.32C1420.21 826.389 1420.31 826.487 1420.39 826.598L1420.4 826.611C1420.48 826.73 1420.52 826.866 1420.54 827.011C1420.54 827.026 1420.53 827.04 1420.53 827.055C1420.53 827.068 1420.54 827.077 1420.54 827.089L1420.59 845.772ZM1418.76 829.006C1417.1 830.392 1413.56 833.248 1410.3 835.642C1410.31 836.007 1410.35 850.874 1410.35 850.127L1418.8 845.26L1418.76 829.006ZM1408.56 850.117C1408.56 849.579 1408.51 834.761 1408.52 835.706L1404.57 833.418L1404.61 847.83L1408.56 850.117ZM1414 824.854C1411.08 827.328 1408.15 829.652 1405.3 831.777L1409.34 834.121C1412 832.169 1414.34 830.357 1418.09 827.218L1414 824.854ZM1440.83 833.062C1440.84 833.381 1440.66 833.677 1440.39 833.835L1430.14 839.731C1430 839.811 1429.85 839.851 1429.7 839.851C1429.54 839.851 1429.39 839.811 1429.25 839.733L1423.51 836.406C1423.23 836.246 1423.06 835.954 1423.06 835.637L1423 813.619C1423 813.397 1423.1 813.205 1423.25 813.044C1423.26 813.026 1423.25 812.995 1423.27 812.978C1426.67 809.684 1430.1 806.162 1433.47 802.512C1433.75 802.204 1434.21 802.138 1434.57 802.345L1440.31 805.67C1440.34 805.688 1440.34 805.734 1440.37 805.756C1440.53 805.875 1440.64 806.03 1440.69 806.223C1440.7 806.257 1440.74 806.272 1440.75 806.307C1440.75 806.325 1440.73 806.339 1440.73 806.357C1440.74 806.387 1440.76 806.409 1440.76 806.439L1440.83 833.062ZM1438.98 808.706C1436.96 810.859 1433.54 814.388 1430.53 817.316L1430.59 837.419L1439.04 832.55L1438.98 808.706ZM1428.8 837.409L1428.74 817.456L1424.79 815.169L1424.85 835.122L1428.8 837.409ZM1434.3 804.246C1431.34 807.432 1428.34 810.515 1425.36 813.435L1429.49 815.826C1432.44 812.945 1434.88 810.467 1438.44 806.646L1434.3 804.246ZM1481.2 809.83C1481.2 810.149 1481.03 810.445 1480.75 810.603L1470.51 816.5C1470.37 816.58 1470.22 816.62 1470.06 816.62C1469.91 816.62 1469.76 816.58 1469.62 816.501L1469.61 816.5L1463.87 813.175C1463.6 813.014 1463.43 812.722 1463.43 812.405L1463.29 764.956C1463.29 764.782 1463.35 764.622 1463.44 764.48C1463.45 764.472 1463.44 764.461 1463.45 764.453C1468.17 757.525 1471.6 752.088 1473.64 748.747C1473.89 748.331 1474.44 748.197 1474.85 748.441L1480.59 751.766C1480.63 751.79 1480.64 751.846 1480.68 751.877C1480.79 751.968 1480.87 752.072 1480.93 752.207C1480.94 752.25 1481 752.271 1481.01 752.318C1481.02 752.35 1480.99 752.38 1480.99 752.412C1481 752.456 1481.04 752.489 1481.04 752.535L1481.2 809.83ZM1479.26 755.664C1476.91 759.403 1473.82 764.153 1470.82 768.552L1470.95 814.187L1479.41 809.319L1479.26 755.664ZM1469.16 814.177C1469.13 803.1 1469.07 779.383 1469.04 768.794L1465.09 766.507L1465.21 811.89L1469.16 814.177ZM1474.71 750.42C1472.7 753.674 1469.6 758.566 1465.47 764.664L1469.65 767.088C1472.85 762.373 1475.92 757.675 1478.9 752.847L1474.71 750.42ZM1461.01 821.452C1461.01 821.771 1460.84 822.067 1460.56 822.225L1450.32 828.12C1450.18 828.2 1450.02 828.24 1449.87 828.24C1449.72 828.24 1449.56 828.2 1449.43 828.122L1443.68 824.795C1443.41 824.635 1443.24 824.342 1443.24 824.025L1443.14 791.724C1443.14 791.53 1443.22 791.357 1443.33 791.205C1443.35 791.191 1443.34 791.168 1443.35 791.155C1446.74 787.058 1450.17 782.708 1453.55 778.225C1453.82 777.863 1454.33 777.759 1454.71 777.988L1460.45 781.314C1460.49 781.335 1460.49 781.387 1460.52 781.414C1460.66 781.518 1460.75 781.644 1460.81 781.806C1460.82 781.846 1460.87 781.864 1460.88 781.907C1460.88 781.932 1460.86 781.954 1460.86 781.979C1460.87 782.017 1460.9 782.045 1460.9 782.083L1461.01 821.452ZM1459.11 784.734C1457.81 786.446 1453.84 791.53 1450.67 795.366C1450.68 795.877 1450.77 827.831 1450.76 825.808L1459.22 820.941L1459.11 784.734ZM1448.97 825.798C1448.97 825.441 1448.88 793.953 1448.89 795.562L1444.94 793.274L1445.02 823.51L1448.97 825.798ZM1454.5 779.928C1451.49 783.916 1448.43 787.795 1445.4 791.478L1449.56 793.892C1452.42 790.43 1455 787.198 1458.67 782.346L1454.5 779.928ZM1395.29 813.874C1395.27 813.578 1395.4 813.291 1395.64 813.11L1396.36 812.557C1430.23 787.887 1457.33 744.874 1465.49 731.081L1462.42 729.3C1462.15 729.147 1461.99 728.872 1461.97 728.569C1461.96 728.268 1462.1 727.979 1462.35 727.803L1474.89 718.913C1475.18 718.709 1475.56 718.695 1475.86 718.867L1481.6 722.192L1481.61 722.2L1481.61 722.201C1481.64 722.217 1481.65 722.244 1481.67 722.259C1481.78 722.339 1481.87 722.434 1481.93 722.551C1481.96 722.603 1481.96 722.658 1481.98 722.715C1482 722.785 1482.04 722.849 1482.04 722.923C1482.04 722.955 1482.03 722.983 1482.02 723.014C1482.02 723.04 1482.04 723.064 1482.04 723.091L1479.89 737.867C1479.85 738.159 1479.66 738.412 1479.4 738.541C1479.13 738.67 1478.82 738.661 1478.56 738.515L1475.89 736.995C1438.81 799.423 1403.89 821.466 1403.04 822.41C1403.04 822.415 1403.03 822.412 1403.02 822.417C1403.01 822.423 1403.01 822.432 1403 822.438C1402.85 822.535 1402.68 822.586 1402.51 822.586C1402.39 822.586 1402.27 822.563 1402.16 822.514C1402.14 822.507 1402.13 822.489 1402.12 822.48C1402.1 822.472 1402.08 822.476 1402.06 822.466L1396.32 819.141C1396.08 819.001 1395.92 818.758 1395.88 818.482L1395.3 813.928L1395.3 813.91C1395.3 813.898 1395.29 813.887 1395.29 813.874ZM1397.79 813.717C1398.15 813.924 1402.22 816.281 1401.86 816.074C1402.22 815.717 1436.58 792.861 1471.25 734.399L1468.16 732.627L1468.16 732.625L1467.04 731.979C1458.81 745.868 1431.7 788.858 1397.79 813.717ZM1475.46 720.697L1464.52 728.454L1467.12 729.962C1467.14 729.971 1467.16 729.959 1467.18 729.97L1468.58 730.779L1471.42 728.764L1479.5 723.038L1475.46 720.697ZM1474.79 735.334C1474.96 735.052 1475.26 734.894 1475.56 734.894C1475.71 734.894 1475.87 734.932 1476 735.01L1478.31 736.318L1479.97 724.896L1470.28 731.761L1472.94 733.299C1473.15 733.417 1473.29 733.614 1473.35 733.844C1473.42 734.072 1473.38 734.316 1473.26 734.521C1438.45 793.752 1403.3 817.115 1402.88 817.548L1403.2 820.074C1439.62 793.334 1469.21 744.825 1474.79 735.334ZM1401.39 820.016L1401.09 817.69C1400.73 817.483 1396.94 815.289 1397.3 815.496L1397.6 817.819L1401.39 820.016Z" fill="#C2B3FF"/>
        <g style="mix-blend-mode:color-burn">
            <path d="M575.066 490.311C573.584 479.921 577.29 469.465 584.984 462.329L1074.31 8.48254C1080.22 2.99414 1088 -0.055561 1096.07 -0.0555623L1919.66 -0.0556958L1919.66 1204.92C1919.66 1222.86 1904.91 1237.3 1886.97 1236.91L705.002 1211.3C689.341 1210.96 676.228 1199.33 674.015 1183.83L575.066 490.311Z" fill="url(#paint4_linear_2204_2274)" fill-opacity="0.6"/>
            <path d="M575.066 490.311C573.584 479.921 577.29 469.465 584.984 462.329L1074.31 8.48254C1080.22 2.99414 1088 -0.055561 1096.07 -0.0555623L1919.66 -0.0556958L1919.66 1204.92C1919.66 1222.86 1904.91 1237.3 1886.97 1236.91L705.002 1211.3C689.341 1210.96 676.228 1199.33 674.015 1183.83L575.066 490.311Z" fill="url(#paint5_linear_2204_2274)"/>
        </g>
    </g>
    <defs>
        <filter id="filter0_f_2204_2274" x="1255.66" y="-757.358" width="1629.56" height="1650.79" filterUnits="userSpaceOnUse" color-interpolation-filters="sRGB">
            <feFlood flood-opacity="0" result="BackgroundImageFix"/>
            <feBlend mode="normal" in="SourceGraphic" in2="BackgroundImageFix" result="shape"/>
            <feGaussianBlur stdDeviation="125" result="effect1_foregroundBlur_2204_2274"/>
        </filter>
        <filter id="filter1_f_2204_2274" x="900.7" y="568.349" width="551.429" height="330.576" filterUnits="userSpaceOnUse" color-interpolation-filters="sRGB">
            <feFlood flood-opacity="0" result="BackgroundImageFix"/>
            <feBlend mode="normal" in="SourceGraphic" in2="BackgroundImageFix" result="shape"/>
            <feGaussianBlur stdDeviation="8.07299" result="effect1_foregroundBlur_2204_2274"/>
        </filter>
        <filter id="filter2_f_2204_2274" x="877.188" y="467.845" width="838.169" height="492.492" filterUnits="userSpaceOnUse" color-interpolation-filters="sRGB">
            <feFlood flood-opacity="0" result="BackgroundImageFix"/>
            <feBlend mode="normal" in="SourceGraphic" in2="BackgroundImageFix" result="shape"/>
            <feGaussianBlur stdDeviation="8.07299" result="effect1_foregroundBlur_2204_2274"/>
        </filter>
        <filter id="filter3_dd_2204_2274" x="1193.78" y="86.1638" width="515.543" height="716.888" filterUnits="userSpaceOnUse" color-interpolation-filters="sRGB">
            <feFlood flood-opacity="0" result="BackgroundImageFix"/>
            <feColorMatrix in="SourceAlpha" type="matrix" values="0 0 0 0 0 0 0 0 0 0 0 0 0 0 0 0 0 0 127 0" result="hardAlpha"/>
            <feMorphology radius="1.69365" operator="erode" in="SourceAlpha" result="effect1_dropShadow_2204_2274"/>
            <feOffset dy="3.38731"/>
            <feGaussianBlur stdDeviation="2.54048"/>
            <feColorMatrix type="matrix" values="0 0 0 0 0 0 0 0 0 0 0 0 0 0 0 0 0 0 0.05 0"/>
            <feBlend mode="normal" in2="BackgroundImageFix" result="effect1_dropShadow_2204_2274"/>
            <feColorMatrix in="SourceAlpha" type="matrix" values="0 0 0 0 0 0 0 0 0 0 0 0 0 0 0 0 0 0 127 0" result="hardAlpha"/>
            <feMorphology radius="2.54048" operator="erode" in="SourceAlpha" result="effect2_dropShadow_2204_2274"/>
            <feOffset dy="8.46827"/>
            <feGaussianBlur stdDeviation="6.3512"/>
            <feColorMatrix type="matrix" values="0 0 0 0 0 0 0 0 0 0 0 0 0 0 0 0 0 0 0.1 0"/>
            <feBlend mode="normal" in2="effect1_dropShadow_2204_2274" result="effect2_dropShadow_2204_2274"/>
            <feBlend mode="normal" in="SourceGraphic" in2="effect2_dropShadow_2204_2274" result="shape"/>
        </filter>
        <filter id="filter4_dd_2204_2274" x="1165.08" y="122.622" width="544.773" height="723.14" filterUnits="userSpaceOnUse" color-interpolation-filters="sRGB">
            <feFlood flood-opacity="0" result="BackgroundImageFix"/>
            <feColorMatrix in="SourceAlpha" type="matrix" values="0 0 0 0 0 0 0 0 0 0 0 0 0 0 0 0 0 0 127 0" result="hardAlpha"/>
            <feMorphology radius="6.50313" operator="erode" in="SourceAlpha" result="effect1_dropShadow_2204_2274"/>
            <feOffset dy="13.0063"/>
            <feGaussianBlur stdDeviation="10.405"/>
            <feColorMatrix type="matrix" values="0 0 0 0 0 0 0 0 0 0 0 0 0 0 0 0 0 0 0.04 0"/>
            <feBlend mode="normal" in2="BackgroundImageFix" result="effect1_dropShadow_2204_2274"/>
            <feColorMatrix in="SourceAlpha" type="matrix" values="0 0 0 0 0 0 0 0 0 0 0 0 0 0 0 0 0 0 127 0" result="hardAlpha"/>
            <feMorphology radius="6.50313" operator="erode" in="SourceAlpha" result="effect2_dropShadow_2204_2274"/>
            <feOffset dy="26.0125"/>
            <feGaussianBlur stdDeviation="20.81"/>
            <feColorMatrix type="matrix" values="0 0 0 0 0 0 0 0 0 0 0 0 0 0 0 0 0 0 0.1 0"/>
            <feBlend mode="normal" in2="effect1_dropShadow_2204_2274" result="effect2_dropShadow_2204_2274"/>
            <feBlend mode="normal" in="SourceGraphic" in2="effect2_dropShadow_2204_2274" result="shape"/>
        </filter>
        <filter id="filter5_d_2204_2274" x="1197.09" y="99.8368" width="480.741" height="315.149" filterUnits="userSpaceOnUse" color-interpolation-filters="sRGB">
            <feFlood flood-opacity="0" result="BackgroundImageFix"/>
            <feColorMatrix in="SourceAlpha" type="matrix" values="0 0 0 0 0 0 0 0 0 0 0 0 0 0 0 0 0 0 127 0" result="hardAlpha"/>
            <feOffset dy="1.55044"/>
            <feGaussianBlur stdDeviation="1.55044"/>
            <feColorMatrix type="matrix" values="0 0 0 0 0 0 0 0 0 0 0 0 0 0 0 0 0 0 0.05 0"/>
            <feBlend mode="normal" in2="BackgroundImageFix" result="effect1_dropShadow_2204_2274"/>
            <feBlend mode="normal" in="SourceGraphic" in2="effect1_dropShadow_2204_2274" result="shape"/>
        </filter>
        <filter id="filter6_i_2204_2274" x="1307.56" y="304.527" width="248.182" height="168.57" filterUnits="userSpaceOnUse" color-interpolation-filters="sRGB">
            <feFlood flood-opacity="0" result="BackgroundImageFix"/>
            <feBlend mode="normal" in="SourceGraphic" in2="BackgroundImageFix" result="shape"/>
            <feColorMatrix in="SourceAlpha" type="matrix" values="0 0 0 0 0 0 0 0 0 0 0 0 0 0 0 0 0 0 127 0" result="hardAlpha"/>
            <feOffset dy="1.68501"/>
            <feGaussianBlur stdDeviation="1.68501"/>
            <feComposite in2="hardAlpha" operator="arithmetic" k2="-1" k3="1"/>
            <feColorMatrix type="matrix" values="0 0 0 0 0 0 0 0 0 0 0 0 0 0 0 0 0 0 0.06 0"/>
            <feBlend mode="normal" in2="shape" result="effect1_innerShadow_2204_2274"/>
        </filter>
        <filter id="filter7_f_2204_2274" x="1115.89" y="258.751" width="434.222" height="378.485" filterUnits="userSpaceOnUse" color-interpolation-filters="sRGB">
            <feFlood flood-opacity="0" result="BackgroundImageFix"/>
            <feBlend mode="normal" in="SourceGraphic" in2="BackgroundImageFix" result="shape"/>
            <feGaussianBlur stdDeviation="17.4793" result="effect1_foregroundBlur_2204_2274"/>
        </filter>
        <filter id="filter8_d_2204_2274" x="1123.78" y="298.208" width="386.783" height="458.643" filterUnits="userSpaceOnUse" color-interpolation-filters="sRGB">
            <feFlood flood-opacity="0" result="BackgroundImageFix"/>
            <feColorMatrix in="SourceAlpha" type="matrix" values="0 0 0 0 0 0 0 0 0 0 0 0 0 0 0 0 0 0 127 0" result="hardAlpha"/>
            <feOffset dx="1.83993" dy="1.83993"/>
            <feGaussianBlur stdDeviation="0.919963"/>
            <feComposite in2="hardAlpha" operator="out"/>
            <feColorMatrix type="matrix" values="0 0 0 0 0 0 0 0 0 0 0 0 0 0 0 0 0 0 0.03 0"/>
            <feBlend mode="normal" in2="BackgroundImageFix" result="effect1_dropShadow_2204_2274"/>
            <feBlend mode="normal" in="SourceGraphic" in2="effect1_dropShadow_2204_2274" result="shape"/>
        </filter>
        <filter id="filter9_dd_2204_2274" x="1129.97" y="298.208" width="391.356" height="331.37" filterUnits="userSpaceOnUse" color-interpolation-filters="sRGB">
            <feFlood flood-opacity="0" result="BackgroundImageFix"/>
            <feColorMatrix in="SourceAlpha" type="matrix" values="0 0 0 0 0 0 0 0 0 0 0 0 0 0 0 0 0 0 127 0" result="hardAlpha"/>
            <feMorphology radius="3.61143" operator="erode" in="SourceAlpha" result="effect1_dropShadow_2204_2274"/>
            <feOffset dy="7.22286"/>
            <feGaussianBlur stdDeviation="3.61143"/>
            <feColorMatrix type="matrix" values="0 0 0 0 0 0 0 0 0 0 0 0 0 0 0 0 0 0 0.04 0"/>
            <feBlend mode="normal" in2="BackgroundImageFix" result="effect1_dropShadow_2204_2274"/>
            <feColorMatrix in="SourceAlpha" type="matrix" values="0 0 0 0 0 0 0 0 0 0 0 0 0 0 0 0 0 0 127 0" result="hardAlpha"/>
            <feMorphology radius="3.61143" operator="erode" in="SourceAlpha" result="effect2_dropShadow_2204_2274"/>
            <feOffset dy="14.4457"/>
            <feGaussianBlur stdDeviation="9.02858"/>
            <feColorMatrix type="matrix" values="0 0 0 0 0.654902 0 0 0 0 0.545098 0 0 0 0 0.980392 0 0 0 0.1 0"/>
            <feBlend mode="normal" in2="effect1_dropShadow_2204_2274" result="effect2_dropShadow_2204_2274"/>
            <feBlend mode="normal" in="SourceGraphic" in2="effect2_dropShadow_2204_2274" result="shape"/>
        </filter>
        <filter id="filter10_dd_2204_2274" x="1127.3" y="398.374" width="317.366" height="283.696" filterUnits="userSpaceOnUse" color-interpolation-filters="sRGB">
            <feFlood flood-opacity="0" result="BackgroundImageFix"/>
            <feColorMatrix in="SourceAlpha" type="matrix" values="0 0 0 0 0 0 0 0 0 0 0 0 0 0 0 0 0 0 127 0" result="hardAlpha"/>
            <feMorphology radius="3.61143" operator="erode" in="SourceAlpha" result="effect1_dropShadow_2204_2274"/>
            <feOffset dy="7.22286"/>
            <feGaussianBlur stdDeviation="3.61143"/>
            <feColorMatrix type="matrix" values="0 0 0 0 0 0 0 0 0 0 0 0 0 0 0 0 0 0 0.04 0"/>
            <feBlend mode="normal" in2="BackgroundImageFix" result="effect1_dropShadow_2204_2274"/>
            <feColorMatrix in="SourceAlpha" type="matrix" values="0 0 0 0 0 0 0 0 0 0 0 0 0 0 0 0 0 0 127 0" result="hardAlpha"/>
            <feMorphology radius="3.61143" operator="erode" in="SourceAlpha" result="effect2_dropShadow_2204_2274"/>
            <feOffset dy="14.4457"/>
            <feGaussianBlur stdDeviation="9.02858"/>
            <feColorMatrix type="matrix" values="0 0 0 0 0.654902 0 0 0 0 0.545098 0 0 0 0 0.980392 0 0 0 0.1 0"/>
            <feBlend mode="normal" in2="effect1_dropShadow_2204_2274" result="effect2_dropShadow_2204_2274"/>
            <feBlend mode="normal" in="SourceGraphic" in2="effect2_dropShadow_2204_2274" result="shape"/>
        </filter>
        <filter id="filter11_dd_2204_2274" x="1127.3" y="492.466" width="317.723" height="283.918" filterUnits="userSpaceOnUse" color-interpolation-filters="sRGB">
            <feFlood flood-opacity="0" result="BackgroundImageFix"/>
            <feColorMatrix in="SourceAlpha" type="matrix" values="0 0 0 0 0 0 0 0 0 0 0 0 0 0 0 0 0 0 127 0" result="hardAlpha"/>
            <feMorphology radius="3.61143" operator="erode" in="SourceAlpha" result="effect1_dropShadow_2204_2274"/>
            <feOffset dy="7.22286"/>
            <feGaussianBlur stdDeviation="3.61143"/>
            <feColorMatrix type="matrix" values="0 0 0 0 0 0 0 0 0 0 0 0 0 0 0 0 0 0 0.04 0"/>
            <feBlend mode="normal" in2="BackgroundImageFix" result="effect1_dropShadow_2204_2274"/>
            <feColorMatrix in="SourceAlpha" type="matrix" values="0 0 0 0 0 0 0 0 0 0 0 0 0 0 0 0 0 0 127 0" result="hardAlpha"/>
            <feMorphology radius="3.61143" operator="erode" in="SourceAlpha" result="effect2_dropShadow_2204_2274"/>
            <feOffset dy="14.4457"/>
            <feGaussianBlur stdDeviation="9.02858"/>
            <feColorMatrix type="matrix" values="0 0 0 0 0.654902 0 0 0 0 0.545098 0 0 0 0 0.980392 0 0 0 0.1 0"/>
            <feBlend mode="normal" in2="effect1_dropShadow_2204_2274" result="effect2_dropShadow_2204_2274"/>
            <feBlend mode="normal" in="SourceGraphic" in2="effect2_dropShadow_2204_2274" result="shape"/>
        </filter>
        <filter id="filter12_dd_2204_2274" x="1120.84" y="411.014" width="298.386" height="251.74" filterUnits="userSpaceOnUse" color-interpolation-filters="sRGB">
            <feFlood flood-opacity="0" result="BackgroundImageFix"/>
            <feColorMatrix in="SourceAlpha" type="matrix" values="0 0 0 0 0 0 0 0 0 0 0 0 0 0 0 0 0 0 127 0" result="hardAlpha"/>
            <feOffset dy="0.979357"/>
            <feGaussianBlur stdDeviation="0.979357"/>
            <feColorMatrix type="matrix" values="0 0 0 0 0 0 0 0 0 0 0 0 0 0 0 0 0 0 0.06 0"/>
            <feBlend mode="normal" in2="BackgroundImageFix" result="effect1_dropShadow_2204_2274"/>
            <feColorMatrix in="SourceAlpha" type="matrix" values="0 0 0 0 0 0 0 0 0 0 0 0 0 0 0 0 0 0 127 0" result="hardAlpha"/>
            <feOffset dy="0.979357"/>
            <feGaussianBlur stdDeviation="1.46904"/>
            <feColorMatrix type="matrix" values="0 0 0 0 0 0 0 0 0 0 0 0 0 0 0 0 0 0 0.1 0"/>
            <feBlend mode="normal" in2="effect1_dropShadow_2204_2274" result="effect2_dropShadow_2204_2274"/>
            <feBlend mode="normal" in="SourceGraphic" in2="effect2_dropShadow_2204_2274" result="shape"/>
        </filter>
        <filter id="filter13_dd_2204_2274" x="1341.33" y="546.908" width="68.9948" height="105.288" filterUnits="userSpaceOnUse" color-interpolation-filters="sRGB">
            <feFlood flood-opacity="0" result="BackgroundImageFix"/>
            <feColorMatrix in="SourceAlpha" type="matrix" values="0 0 0 0 0 0 0 0 0 0 0 0 0 0 0 0 0 0 127 0" result="hardAlpha"/>
            <feMorphology radius="0.668619" operator="erode" in="SourceAlpha" result="effect1_dropShadow_2204_2274"/>
            <feOffset dy="1.33724"/>
            <feGaussianBlur stdDeviation="1.33724"/>
            <feColorMatrix type="matrix" values="0 0 0 0 0 0 0 0 0 0 0 0 0 0 0 0 0 0 0.06 0"/>
            <feBlend mode="normal" in2="BackgroundImageFix" result="effect1_dropShadow_2204_2274"/>
            <feColorMatrix in="SourceAlpha" type="matrix" values="0 0 0 0 0 0 0 0 0 0 0 0 0 0 0 0 0 0 127 0" result="hardAlpha"/>
            <feMorphology radius="0.668619" operator="erode" in="SourceAlpha" result="effect2_dropShadow_2204_2274"/>
            <feOffset dy="2.67448"/>
            <feGaussianBlur stdDeviation="2.00586"/>
            <feColorMatrix type="matrix" values="0 0 0 0 0 0 0 0 0 0 0 0 0 0 0 0 0 0 0.1 0"/>
            <feBlend mode="normal" in2="effect1_dropShadow_2204_2274" result="effect2_dropShadow_2204_2274"/>
            <feBlend mode="normal" in="SourceGraphic" in2="effect2_dropShadow_2204_2274" result="shape"/>
        </filter>
        <filter id="filter14_dd_2204_2274" x="1118.78" y="505.308" width="302.51" height="255.864" filterUnits="userSpaceOnUse" color-interpolation-filters="sRGB">
            <feFlood flood-opacity="0" result="BackgroundImageFix"/>
            <feColorMatrix in="SourceAlpha" type="matrix" values="0 0 0 0 0 0 0 0 0 0 0 0 0 0 0 0 0 0 127 0" result="hardAlpha"/>
            <feOffset dy="0.979357"/>
            <feGaussianBlur stdDeviation="0.979357"/>
            <feColorMatrix type="matrix" values="0 0 0 0 0 0 0 0 0 0 0 0 0 0 0 0 0 0 0.06 0"/>
            <feBlend mode="normal" in2="BackgroundImageFix" result="effect1_dropShadow_2204_2274"/>
            <feColorMatrix in="SourceAlpha" type="matrix" values="0 0 0 0 0 0 0 0 0 0 0 0 0 0 0 0 0 0 127 0" result="hardAlpha"/>
            <feOffset dy="3"/>
            <feGaussianBlur stdDeviation="2.5"/>
            <feColorMatrix type="matrix" values="0 0 0 0 0 0 0 0 0 0 0 0 0 0 0 0 0 0 0.1 0"/>
            <feBlend mode="normal" in2="effect1_dropShadow_2204_2274" result="effect2_dropShadow_2204_2274"/>
            <feBlend mode="normal" in="SourceGraphic" in2="effect2_dropShadow_2204_2274" result="shape"/>
        </filter>
        <filter id="filter15_dd_2204_2274" x="1341.33" y="641.242" width="68.9948" height="105.288" filterUnits="userSpaceOnUse" color-interpolation-filters="sRGB">
            <feFlood flood-opacity="0" result="BackgroundImageFix"/>
            <feColorMatrix in="SourceAlpha" type="matrix" values="0 0 0 0 0 0 0 0 0 0 0 0 0 0 0 0 0 0 127 0" result="hardAlpha"/>
            <feMorphology radius="0.668619" operator="erode" in="SourceAlpha" result="effect1_dropShadow_2204_2274"/>
            <feOffset dy="1.33724"/>
            <feGaussianBlur stdDeviation="1.33724"/>
            <feColorMatrix type="matrix" values="0 0 0 0 0 0 0 0 0 0 0 0 0 0 0 0 0 0 0.06 0"/>
            <feBlend mode="normal" in2="BackgroundImageFix" result="effect1_dropShadow_2204_2274"/>
            <feColorMatrix in="SourceAlpha" type="matrix" values="0 0 0 0 0 0 0 0 0 0 0 0 0 0 0 0 0 0 127 0" result="hardAlpha"/>
            <feMorphology radius="0.668619" operator="erode" in="SourceAlpha" result="effect2_dropShadow_2204_2274"/>
            <feOffset dy="2.67448"/>
            <feGaussianBlur stdDeviation="2.00586"/>
            <feColorMatrix type="matrix" values="0 0 0 0 0 0 0 0 0 0 0 0 0 0 0 0 0 0 0.1 0"/>
            <feBlend mode="normal" in2="effect1_dropShadow_2204_2274" result="effect2_dropShadow_2204_2274"/>
            <feBlend mode="normal" in="SourceGraphic" in2="effect2_dropShadow_2204_2274" result="shape"/>
        </filter>
        <filter id="filter16_d_2204_2274" x="1146.79" y="339.554" width="29.9309" height="45.6238" filterUnits="userSpaceOnUse" color-interpolation-filters="sRGB">
            <feFlood flood-opacity="0" result="BackgroundImageFix"/>
            <feColorMatrix in="SourceAlpha" type="matrix" values="0 0 0 0 0 0 0 0 0 0 0 0 0 0 0 0 0 0 127 0" result="hardAlpha"/>
            <feOffset dy="1.04914"/>
            <feGaussianBlur stdDeviation="1.04914"/>
            <feColorMatrix type="matrix" values="0 0 0 0 0 0 0 0 0 0 0 0 0 0 0 0 0 0 0.05 0"/>
            <feBlend mode="normal" in2="BackgroundImageFix" result="effect1_dropShadow_2204_2274"/>
            <feBlend mode="normal" in="SourceGraphic" in2="effect1_dropShadow_2204_2274" result="shape"/>
        </filter>
        <filter id="filter17_dd_2204_2274" x="1416.92" y="485.068" width="71.4119" height="115.643" filterUnits="userSpaceOnUse" color-interpolation-filters="sRGB">
            <feFlood flood-opacity="0" result="BackgroundImageFix"/>
            <feColorMatrix in="SourceAlpha" type="matrix" values="0 0 0 0 0 0 0 0 0 0 0 0 0 0 0 0 0 0 127 0" result="hardAlpha"/>
            <feMorphology radius="0.61599" operator="erode" in="SourceAlpha" result="effect1_dropShadow_2204_2274"/>
            <feOffset dy="1.23198"/>
            <feGaussianBlur stdDeviation="1.23198"/>
            <feColorMatrix type="matrix" values="0 0 0 0 0 0 0 0 0 0 0 0 0 0 0 0 0 0 0.06 0"/>
            <feBlend mode="normal" in2="BackgroundImageFix" result="effect1_dropShadow_2204_2274"/>
            <feColorMatrix in="SourceAlpha" type="matrix" values="0 0 0 0 0 0 0 0 0 0 0 0 0 0 0 0 0 0 127 0" result="hardAlpha"/>
            <feMorphology radius="0.61599" operator="erode" in="SourceAlpha" result="effect2_dropShadow_2204_2274"/>
            <feOffset dy="2.46396"/>
            <feGaussianBlur stdDeviation="1.84797"/>
            <feColorMatrix type="matrix" values="0 0 0 0 0 0 0 0 0 0 0 0 0 0 0 0 0 0 0.1 0"/>
            <feBlend mode="normal" in2="effect1_dropShadow_2204_2274" result="effect2_dropShadow_2204_2274"/>
            <feBlend mode="normal" in="SourceGraphic" in2="effect2_dropShadow_2204_2274" result="shape"/>
        </filter>
        <filter id="filter18_f_2204_2274" x="1088.3" y="370.202" width="439.743" height="289.136" filterUnits="userSpaceOnUse" color-interpolation-filters="sRGB">
            <feFlood flood-opacity="0" result="BackgroundImageFix"/>
            <feBlend mode="normal" in="SourceGraphic" in2="BackgroundImageFix" result="shape"/>
            <feGaussianBlur stdDeviation="15.6394" result="effect1_foregroundBlur_2204_2274"/>
        </filter>
        <radialGradient id="paint0_radial_2204_2274" cx="0" cy="0" r="1" gradientUnits="userSpaceOnUse" gradientTransform="translate(1346.33 698.734) rotate(150) scale(716.392 726.793)">
            <stop stop-color="#F4F4F4"/>
            <stop offset="0.72182" stop-color="#898989" stop-opacity="0"/>
        </radialGradient>
        <linearGradient id="paint1_linear_2204_2274" x1="1286.29" y1="667.738" x2="1148.38" y2="895.826" gradientUnits="userSpaceOnUse">
            <stop stop-color="#4B5563"/>
            <stop offset="1" stop-color="#4B5563" stop-opacity="0"/>
        </linearGradient>
        <linearGradient id="paint2_linear_2204_2274" x1="1434.82" y1="631.017" x2="1266.13" y2="916.877" gradientUnits="userSpaceOnUse">
            <stop stop-color="#4B5563"/>
            <stop offset="1" stop-color="#4B5563" stop-opacity="0"/>
        </linearGradient>
        <linearGradient id="paint3_linear_2204_2274" x1="1437.46" y1="272.616" x2="1274.42" y2="555.01" gradientUnits="userSpaceOnUse">
            <stop stop-color="white"/>
            <stop offset="0.0001" stop-color="#F9FAFB"/>
            <stop offset="1" stop-color="#F3F4F6"/>
        </linearGradient>
        <linearGradient id="paint4_linear_2204_2274" x1="1059.7" y1="15.055" x2="2046" y2="778.928" gradientUnits="userSpaceOnUse">
            <stop stop-color="#DED9FC"/>
            <stop offset="0.136573" stop-color="#725CF6"/>
            <stop offset="0.244792" stop-color="#5854FD"/>
            <stop offset="0.369792" stop-color="#FFC368" stop-opacity="0.75"/>
            <stop offset="0.4375" stop-color="#EF9AF3" stop-opacity="0.79"/>
            <stop offset="0.530697" stop-color="#7C79FE"/>
            <stop offset="0.694752" stop-color="#5854FD"/>
            <stop offset="0.942708" stop-color="#9C4FFF"/>
            <stop offset="1" stop-color="#E1D5FF"/>
        </linearGradient>
        <linearGradient id="paint5_linear_2204_2274" x1="1342.1" y1="1118.13" x2="1662.1" y2="289.629" gradientUnits="userSpaceOnUse">
            <stop offset="0.0027083" stop-color="#F9FAFB"/>
            <stop offset="0.120411" stop-color="#F9FAFB" stop-opacity="0"/>
        </linearGradient>
        <clipPath id="clip0_2204_2274">
            <rect width="1920" height="1300" fill="white"/>
        </clipPath>
    </defs>
</svg>