<svg viewBox="0 0 1921 1301" fill="none" xmlns="http://www.w3.org/2000/svg">
<g clip-path="url(#clip0_2204_2274)">
<rect width="1920" height="1300" transform="translate(0.787109 0.477051)" fill="#F9FAFB"/>
<mask id="mask0_2204_2274" style="mask-type:alpha" maskUnits="userSpaceOnUse" x="1478" y="-400" width="473" height="867">
<line y1="-0.426784" x2="574" y2="-0.426784" transform="matrix(-4.84939e-08 1 -0.865554 -0.532714 1478.98 -399.58)" stroke="white" stroke-width="0.853568"/>
<line y1="-0.426784" x2="574" y2="-0.426784" transform="matrix(-4.81944e-08 1 -0.865554 -0.532714 1546.24 -357.974)" stroke="white" stroke-width="0.853568"/>
<line y1="-0.426784" x2="574" y2="-0.426784" transform="matrix(-4.81944e-08 1 -0.865554 -0.532714 1613.49 -316.367)" stroke="white" stroke-width="0.853568"/>
<line y1="-0.426784" x2="574" y2="-0.426784" transform="matrix(-4.81944e-08 1 -0.865554 -0.532714 1680.75 -274.761)" stroke="white" stroke-width="0.853568"/>
<line y1="-0.426784" x2="574" y2="-0.426784" transform="matrix(-4.81944e-08 1 -0.865554 -0.532714 1748 -233.155)" stroke="white" stroke-width="0.853568"/>
<line y1="-0.426784" x2="574" y2="-0.426784" transform="matrix(-4.81944e-08 1 -0.865554 -0.532714 1815.26 -191.549)" stroke="white" stroke-width="0.853568"/>
<line y1="-0.426784" x2="574" y2="-0.426784" transform="matrix(-4.81944e-08 1 -0.865554 -0.532714 1882.52 -149.942)" stroke="white" stroke-width="0.853568"/>
<line y1="-0.426784" x2="523" y2="-0.426784" transform="matrix(-0.866025 -0.5 1.52389e-07 -1 1945 34.8529)" stroke="white" stroke-width="0.853568"/>
<line y1="-0.426784" x2="523" y2="-0.426784" transform="matrix(-0.866025 -0.5 1.52389e-07 -1 1945 112.513)" stroke="white" stroke-width="0.853568"/>
<line y1="-0.426784" x2="523" y2="-0.426784" transform="matrix(-0.866025 -0.5 1.52389e-07 -1 1945 190.172)" stroke="white" stroke-width="0.853568"/>
<line y1="-0.426784" x2="523" y2="-0.426784" transform="matrix(-0.866025 -0.5 1.52389e-07 -1 1945 267.832)" stroke="white" stroke-width="0.853568"/>
<line y1="-0.426784" x2="523" y2="-0.426784" transform="matrix(-0.866025 -0.5 1.52389e-07 -1 1945 345.493)" stroke="white" stroke-width="0.853568"/>
<line y1="-0.426784" x2="523" y2="-0.426784" transform="matrix(-0.866025 -0.5 1.52389e-07 -1 1945 423.048)" stroke="white" stroke-width="0.853568"/>
</mask>
<g mask="url(#mask0_2204_2274)">
<g filter="url(#filter0_f_2204_2274)">
<path d="M1950.28 -510.881L2639.01 -502.572L2585 639.912L1509.45 44.8975L1950.28 -510.881Z" fill="#D9D9D9"/>
</g>
</g>
<mask id="mask1_2204_2274" style="mask-type:alpha" maskUnits="userSpaceOnUse" x="252" y="60" width="2311" height="1335">
<line y1="-0.426784" x2="1166.82" y2="-0.426784" transform="matrix(-0.866025 0.5 -0.866025 -0.5 1263.57 60.3151)" stroke="white" stroke-width="0.853568"/>
<line y1="-0.426784" x2="1166.82" y2="-0.426784" transform="matrix(-0.866025 0.5 -0.866025 -0.5 1335.75 101.987)" stroke="white" stroke-width="0.853568"/>
<line y1="-0.426784" x2="1166.82" y2="-0.426784" transform="matrix(-0.866025 0.5 -0.866025 -0.5 1407.93 143.66)" stroke="white" stroke-width="0.853568"/>
<line y1="-0.426784" x2="1166.82" y2="-0.426784" transform="matrix(-0.866025 0.5 -0.866025 -0.5 1480.11 185.332)" stroke="white" stroke-width="0.853568"/>
<line y1="-0.426784" x2="1166.82" y2="-0.426784" transform="matrix(-0.866025 0.5 -0.866025 -0.5 1552.29 227.004)" stroke="white" stroke-width="0.853568"/>
<line y1="-0.426784" x2="1166.82" y2="-0.426784" transform="matrix(-0.866025 0.5 -0.866025 -0.5 1624.46 268.675)" stroke="white" stroke-width="0.853568"/>
<line y1="-0.426784" x2="1166.82" y2="-0.426784" transform="matrix(-0.866025 0.5 -0.866025 -0.5 1696.64 310.348)" stroke="white" stroke-width="0.853568"/>
<line y1="-0.426784" x2="1166.82" y2="-0.426784" transform="matrix(-0.866025 0.5 -0.866025 -0.5 1768.82 352.02)" stroke="white" stroke-width="0.853568"/>
<line y1="-0.426784" x2="1166.82" y2="-0.426784" transform="matrix(-0.866025 0.5 -0.866025 -0.5 1841 393.692)" stroke="white" stroke-width="0.853568"/>
<line y1="-0.426784" x2="1166.82" y2="-0.426784" transform="matrix(-0.866025 0.5 -0.866025 -0.5 1913.18 435.364)" stroke="white" stroke-width="0.853568"/>
<line y1="-0.426784" x2="1166.82" y2="-0.426784" transform="matrix(-0.866025 0.5 -0.866025 -0.5 1985.36 477.037)" stroke="white" stroke-width="0.853568"/>
<line y1="-0.426784" x2="1166.82" y2="-0.426784" transform="matrix(-0.866025 0.5 -0.866025 -0.5 2057.53 518.709)" stroke="white" stroke-width="0.853568"/>
<line y1="-0.426784" x2="1166.82" y2="-0.426784" transform="matrix(-0.866025 0.5 -0.866025 -0.5 2129.71 560.381)" stroke="white" stroke-width="0.853568"/>
<line y1="-0.426784" x2="1166.82" y2="-0.426784" transform="matrix(-0.866025 0.5 -0.866025 -0.5 2201.89 602.053)" stroke="white" stroke-width="0.853568"/>
<line y1="-0.426784" x2="1166.82" y2="-0.426784" transform="matrix(-0.866025 0.5 -0.866025 -0.5 2274.07 643.725)" stroke="white" stroke-width="0.853568"/>
<line y1="-0.426784" x2="1166.82" y2="-0.426784" transform="matrix(-0.866025 0.5 -0.866025 -0.5 2346.25 685.397)" stroke="white" stroke-width="0.853568"/>
<line y1="-0.426784" x2="1166.82" y2="-0.426784" transform="matrix(-0.866025 0.5 -0.866025 -0.5 2418.42 727.069)" stroke="white" stroke-width="0.853568"/>
<line y1="-0.426784" x2="1166.82" y2="-0.426784" transform="matrix(-0.866025 0.5 -0.866025 -0.5 2490.6 768.741)" stroke="white" stroke-width="0.853568"/>
<line y1="-0.426784" x2="1058.73" y2="-0.426784" transform="matrix(-0.866025 0.5 -0.866025 -0.5 2516.54 837.109)" stroke="white" stroke-width="0.853568"/>
<line y1="-0.426784" x2="1500.2" y2="-0.426784" transform="matrix(-0.866025 -0.5 0.866026 -0.5 2562.78 810.413)" stroke="white" stroke-width="0.853568"/>
<line y1="-0.426784" x2="1500.2" y2="-0.426784" transform="matrix(-0.866025 -0.5 0.866026 -0.5 2490.6 852.085)" stroke="white" stroke-width="0.853568"/>
<line y1="-0.426784" x2="1500.2" y2="-0.426784" transform="matrix(-0.866025 -0.5 0.866026 -0.5 2418.42 893.757)" stroke="white" stroke-width="0.853568"/>
<line y1="-0.426784" x2="1500.2" y2="-0.426784" transform="matrix(-0.866025 -0.5 0.866026 -0.5 2346.24 935.429)" stroke="white" stroke-width="0.853568"/>
<line y1="-0.426784" x2="1500.2" y2="-0.426784" transform="matrix(-0.866025 -0.5 0.866026 -0.5 2274.07 977.102)" stroke="white" stroke-width="0.853568"/>
<line y1="-0.426784" x2="1500.2" y2="-0.426784" transform="matrix(-0.866025 -0.5 0.866026 -0.5 2201.89 1018.77)" stroke="white" stroke-width="0.853568"/>
<line y1="-0.426784" x2="1500.2" y2="-0.426784" transform="matrix(-0.866025 -0.5 0.866026 -0.5 2129.71 1060.45)" stroke="white" stroke-width="0.853568"/>
<line y1="-0.426784" x2="1500.2" y2="-0.426784" transform="matrix(-0.866025 -0.5 0.866026 -0.5 2057.53 1102.12)" stroke="white" stroke-width="0.853568"/>
<line y1="-0.426784" x2="1500.2" y2="-0.426784" transform="matrix(-0.866025 -0.5 0.866026 -0.5 1985.36 1143.79)" stroke="white" stroke-width="0.853568"/>
<line y1="-0.426784" x2="1500.2" y2="-0.426784" transform="matrix(-0.866025 -0.5 0.866026 -0.5 1913.18 1185.46)" stroke="white" stroke-width="0.853568"/>
<line y1="-0.426784" x2="1500.2" y2="-0.426784" transform="matrix(-0.866025 -0.5 0.866026 -0.5 1841 1227.14)" stroke="white" stroke-width="0.853568"/>
<line y1="-0.426784" x2="1500.2" y2="-0.426784" transform="matrix(-0.866025 -0.5 0.866026 -0.5 1768.82 1268.81)" stroke="white" stroke-width="0.853568"/>
<line y1="-0.426784" x2="1500.2" y2="-0.426784" transform="matrix(-0.866025 -0.5 0.866026 -0.5 1696.64 1310.48)" stroke="white" stroke-width="0.853568"/>
<line y1="-0.426784" x2="1500.2" y2="-0.426784" transform="matrix(-0.866025 -0.5 0.866026 -0.5 1624.46 1352.15)" stroke="white" stroke-width="0.853568"/>
<line y1="-0.426784" x2="1500.2" y2="-0.426784" transform="matrix(-0.866025 -0.5 0.866026 -0.5 1552.28 1393.82)" stroke="white" stroke-width="0.853568"/>
</mask>
<g mask="url(#mask1_2204_2274)">
<path d="M809.583 414.002L809.593 413.997L809.602 413.991C884.828 364.961 955.726 322.864 1027.14 292.122C1098.55 261.381 1170.45 242.006 1247.69 238.4C1402.15 231.188 1578.19 287.043 1814.5 441.641L1814.51 441.647L1814.52 441.653C2105.28 609.523 2126.66 869.287 1862.41 1021.85C1598.16 1174.42 1148.23 1162.07 857.475 994.203C566.715 826.333 545.33 566.569 809.583 414.002Z" fill="url(#paint0_radial_2204_2274)"/>
<path d="M809.583 414.002L809.593 413.997L809.602 413.991C884.828 364.961 955.726 322.864 1027.14 292.122C1098.55 261.381 1170.45 242.006 1247.69 238.4C1402.15 231.188 1578.19 287.043 1814.5 441.641L1814.51 441.647L1814.52 441.653C2105.28 609.523 2126.66 869.287 1862.41 1021.85C1598.16 1174.42 1148.23 1162.07 857.475 994.203C566.715 826.333 545.33 566.569 809.583 414.002Z" fill="url(#paint1_linear_2204_2274)"/>
<path d="M809.583 414.002L809.593 413.997L809.602 413.991C884.828 364.961 955.726 322.864 1027.14 292.122C1098.55 261.381 1170.45 242.006 1247.69 238.4C1402.15 231.188 1578.19 287.043 1814.5 441.641L1814.51 441.647L1814.52 441.653C2105.28 609.523 2126.66 869.287 1862.41 1021.85C1598.16 1174.42 1148.23 1162.07 857.475 994.203C566.715 826.333 545.33 566.569 809.583 414.002Z" stroke="white" stroke-width="0.739869"/>
</g>
<g opacity="0.07" filter="url(#filter1_f_2204_2274)">
<path d="M1176.31 607L1697.64 896.917L1428.77 1057.97C1421.88 1062.1 1410.6 1062.28 1403.58 1058.38L907.668 782.595C900.649 778.691 900.544 772.181 907.435 768.054L1176.31 607Z" fill="url(#paint2_linear_2204_2274)"/>
</g>
<g filter="url(#filter2_dd_2204_2274)">
<path d="M1227.4 202.954C1228.87 202.185 1230.82 202.409 1232.85 203.58L1691.96 468.646C1695.07 470.442 1697.59 474.811 1697.59 478.403L1697.59 882.5C1697.59 885.955 1696.27 888.47 1693.98 889.374L1669.41 899.069L1237.42 622.753C1232.99 619.92 1229.42 613.845 1229.06 608.532L1202.37 216.067L1227.4 202.954Z" fill="#E5E7EB"/>
</g>
<g filter="url(#filter3_dd_2204_2274)">
<path d="M1202.01 252.227L1669.79 522.301L1669.79 888.585C1669.79 894.241 1665.82 896.533 1660.92 893.705L1210.87 633.872C1205.98 631.044 1202.01 624.167 1202.01 618.512L1202.01 252.227Z" fill="url(#paint3_linear_2204_2274)"/>
<path d="M1202.01 250.276L1200.32 249.301L1200.32 251.252L1200.32 617.537C1200.32 624.269 1205.04 632.456 1210.87 635.823L1660.92 895.656C1666.75 899.023 1671.48 896.294 1671.48 889.561L1671.48 523.276L1671.48 521.325L1669.79 520.35L1202.01 250.276Z" stroke="white" stroke-width="3.90188"/>
</g>
<g filter="url(#filter4_d_2204_2274)">
<mask id="path-54-outside-1_2204_2274" maskUnits="userSpaceOnUse" x="1198.54" y="213.193" width="475.448" height="312.5" fill="black">
<rect fill="white" x="1198.54" y="213.193" width="475.448" height="312.5"/>
<path d="M1202.01 222.349C1202.01 220.606 1203.23 219.9 1204.74 220.771L1667.06 487.689C1668.56 488.56 1669.79 490.68 1669.79 492.422L1669.79 523.031L1202.01 252.958L1202.01 222.349Z"/>
</mask>
<path d="M1202.01 222.349C1202.01 220.606 1203.23 219.9 1204.74 220.771L1667.06 487.689C1668.56 488.56 1669.79 490.68 1669.79 492.422L1669.79 523.031L1202.01 252.958L1202.01 222.349Z" fill="#F9FAFB"/>
<path d="M1198.63 220.398C1198.63 216.5 1201.36 214.92 1204.74 216.869L1667.06 483.787C1670.43 485.736 1673.17 490.476 1673.17 494.373L1666.41 491.218L1205.39 225.046L1198.63 220.398ZM1669.79 523.031L1202.01 252.958L1669.79 523.031ZM1198.63 251.007L1198.63 220.398C1198.63 216.5 1201.36 214.92 1204.74 216.869L1205.39 225.046L1205.39 254.909L1198.63 251.007ZM1667.06 483.787C1670.43 485.736 1673.17 490.476 1673.17 494.373L1673.17 524.982L1666.41 521.08L1666.41 491.218L1667.06 483.787Z" fill="white" mask="url(#path-54-outside-1_2204_2274)"/>
</g>
<circle cx="3.78658" cy="3.78658" r="3.78658" transform="matrix(0.866025 0.5 -2.20305e-08 1 1213.23 237.23)" fill="#EF4444"/>
<circle cx="3.78658" cy="3.78658" r="3.78658" transform="matrix(0.866025 0.5 -2.20305e-08 1 1224.16 243.541)" fill="#F59E0B"/>
<circle cx="3.78658" cy="3.78658" r="3.78658" transform="matrix(0.866025 0.5 -2.20305e-08 1 1235.09 249.852)" fill="#10B981"/>
<rect width="273.913" height="15.5044" rx="3.10088" transform="matrix(0.866025 0.5 -2.20305e-08 1 1326.47 300.172)" fill="#E5E7EB"/>
<g filter="url(#filter5_dd_2204_2274)">
<path d="M1315.83 417.413C1318.19 416.492 1321.16 416.953 1324.23 418.717L1546.79 546.445C1554.84 551.066 1561.22 562.621 1560.66 571.573L1560.44 575.194C1560.17 579.506 1558.29 582.555 1555.26 583.6L1547.8 586.173L1322.01 448.487L1309.79 419.778L1315.83 417.413Z" fill="#D1D5DB"/>
</g>
<g filter="url(#filter6_i_2204_2274)">
<rect width="286.575" height="35.0274" rx="14.9711" transform="matrix(0.866025 0.5 -2.20305e-08 1 1306 413.459)" fill="#E5E7EB"/>
</g>
<path d="M1417.84 437.353C1417.75 436.943 1417.62 436.555 1417.46 436.187C1417.3 435.814 1417.1 435.465 1416.87 435.139C1416.64 434.81 1416.38 434.509 1416.08 434.234C1415.79 433.962 1415.46 433.723 1415.11 433.517C1414.44 433.132 1413.85 432.985 1413.35 433.076C1412.85 433.169 1412.46 433.5 1412.18 434.069C1411.9 434.632 1411.76 435.439 1411.76 436.488C1411.76 437.538 1411.89 438.51 1412.17 439.405C1412.45 440.3 1412.84 441.087 1413.34 441.766C1413.85 442.44 1414.44 442.976 1415.13 443.373C1415.76 443.733 1416.29 443.914 1416.73 443.914C1417.18 443.911 1417.52 443.742 1417.75 443.406C1417.99 443.073 1418.11 442.585 1418.11 441.942L1418.67 442.362L1415.3 440.42L1415.3 438.022L1420.76 441.174L1420.76 443.071C1420.76 444.395 1420.52 445.393 1420.04 446.065C1419.55 446.732 1418.89 447.078 1418.04 447.102C1417.19 447.122 1416.21 446.815 1415.12 446.183C1413.9 445.477 1412.82 444.545 1411.9 443.388C1410.97 442.226 1410.25 440.919 1409.73 439.467C1409.22 438.013 1408.96 436.492 1408.96 434.903C1408.96 433.682 1409.11 432.682 1409.42 431.902C1409.73 431.12 1410.16 430.556 1410.72 430.211C1411.27 429.865 1411.92 429.731 1412.66 429.81C1413.4 429.888 1414.2 430.176 1415.06 430.674C1415.8 431.101 1416.49 431.623 1417.13 432.241C1417.76 432.854 1418.33 433.528 1418.82 434.263C1419.32 435.001 1419.72 435.772 1420.04 436.577C1420.35 437.376 1420.55 438.174 1420.64 438.971L1417.84 437.353ZM1427.2 453.175C1426.21 452.603 1425.36 451.867 1424.64 450.964C1423.92 450.06 1423.37 449.058 1422.97 447.96C1422.58 446.857 1422.39 445.726 1422.39 444.569C1422.39 443.402 1422.58 442.495 1422.97 441.848C1423.37 441.195 1423.92 440.834 1424.64 440.763C1425.36 440.689 1426.21 440.938 1427.2 441.509C1428.19 442.081 1429.05 442.819 1429.76 443.723C1430.49 444.625 1431.04 445.628 1431.43 446.732C1431.82 447.83 1432.02 448.963 1432.02 450.13C1432.02 451.287 1431.82 452.192 1431.43 452.844C1431.04 453.491 1430.49 453.851 1429.76 453.925C1429.05 453.996 1428.19 453.746 1427.2 453.175ZM1427.22 450.755C1427.67 451.015 1428.04 451.085 1428.34 450.964C1428.65 450.839 1428.87 450.564 1429.03 450.137C1429.18 449.713 1429.26 449.172 1429.26 448.515C1429.26 447.858 1429.18 447.227 1429.03 446.621C1428.87 446.018 1428.65 445.48 1428.34 445.007C1428.04 444.534 1427.67 444.167 1427.22 443.907C1426.76 443.645 1426.38 443.574 1426.07 443.694C1425.76 443.816 1425.53 444.09 1425.38 444.514C1425.22 444.941 1425.15 445.482 1425.15 446.139C1425.15 446.796 1425.22 447.427 1425.38 448.03C1425.53 448.635 1425.76 449.176 1426.07 449.652C1426.38 450.125 1426.76 450.493 1427.22 450.755ZM1438.2 459.526C1437.22 458.955 1436.36 458.218 1435.64 457.316C1434.92 456.411 1434.37 455.41 1433.98 454.311C1433.58 453.208 1433.39 452.078 1433.39 450.92C1433.39 449.753 1433.58 448.846 1433.98 448.199C1434.37 447.547 1434.92 447.185 1435.64 447.114C1436.36 447.04 1437.22 447.289 1438.2 447.861C1439.19 448.432 1440.05 449.17 1440.77 450.074C1441.49 450.977 1442.04 451.98 1442.43 453.083C1442.83 454.181 1443.02 455.314 1443.02 456.481C1443.02 457.638 1442.83 458.543 1442.43 459.195C1442.04 459.842 1441.49 460.203 1440.77 460.276C1440.05 460.347 1439.19 460.097 1438.2 459.526ZM1438.22 457.106C1438.67 457.366 1439.04 457.436 1439.34 457.316C1439.65 457.191 1439.87 456.915 1440.03 456.488C1440.18 456.064 1440.26 455.524 1440.26 454.866C1440.26 454.209 1440.18 453.578 1440.03 452.972C1439.87 452.369 1439.65 451.831 1439.34 451.358C1439.04 450.885 1438.67 450.518 1438.22 450.258C1437.76 449.996 1437.38 449.925 1437.07 450.045C1436.77 450.168 1436.53 450.441 1436.38 450.865C1436.22 451.292 1436.15 451.834 1436.15 452.491C1436.15 453.148 1436.22 453.778 1436.38 454.381C1436.53 454.987 1436.77 455.527 1437.07 456.003C1437.38 456.476 1437.76 456.844 1438.22 457.106ZM1449.19 470.121C1448.31 469.614 1447.56 469.039 1446.93 468.396C1446.31 467.761 1445.81 467.1 1445.44 466.411C1445.07 465.722 1444.83 465.049 1444.72 464.392L1447.23 465.451C1447.31 465.72 1447.43 466.001 1447.59 466.293C1447.76 466.585 1447.98 466.868 1448.25 467.142C1448.53 467.424 1448.86 467.679 1449.26 467.907C1449.85 468.248 1450.33 468.362 1450.72 468.249C1451.1 468.144 1451.29 467.704 1451.29 466.929L1451.29 464.862L1451.18 464.796C1451.06 465.041 1450.88 465.235 1450.65 465.377C1450.41 465.519 1450.1 465.571 1449.73 465.532C1449.35 465.492 1448.91 465.323 1448.39 465.024C1447.66 464.6 1446.99 464.018 1446.38 463.277C1445.78 462.534 1445.31 461.653 1444.95 460.633C1444.6 459.611 1444.42 458.474 1444.42 457.224C1444.42 455.944 1444.6 454.979 1444.96 454.33C1445.32 453.68 1445.8 453.314 1446.4 453.234C1447.01 453.155 1447.67 453.323 1448.38 453.737C1448.93 454.054 1449.39 454.426 1449.76 454.855C1450.13 455.28 1450.43 455.716 1450.65 456.165C1450.88 456.611 1451.06 457.022 1451.18 457.397L1451.28 457.456L1451.28 455.558L1453.98 457.113L1453.98 468.522C1453.98 469.483 1453.77 470.169 1453.37 470.581C1452.96 470.993 1452.39 471.152 1451.67 471.059C1450.95 470.973 1450.13 470.661 1449.19 470.121ZM1449.25 463.167C1449.69 463.419 1450.06 463.508 1450.36 463.432C1450.66 463.353 1450.9 463.125 1451.06 462.748C1451.22 462.368 1451.31 461.847 1451.31 461.185C1451.31 460.523 1451.23 459.902 1451.07 459.324C1450.9 458.74 1450.67 458.225 1450.36 457.779C1450.06 457.333 1449.69 456.984 1449.25 456.731C1448.8 456.474 1448.43 456.396 1448.12 456.499C1447.82 456.597 1447.59 456.846 1447.43 457.246C1447.27 457.646 1447.19 458.167 1447.19 458.809C1447.19 459.461 1447.27 460.07 1447.43 460.637C1447.59 461.201 1447.82 461.7 1448.12 462.133C1448.43 462.565 1448.8 462.909 1449.25 463.167ZM1458.85 456.161L1458.85 471.225L1456.14 469.658L1456.14 454.594L1458.85 456.161ZM1465.48 475.275C1464.48 474.694 1463.61 473.958 1462.88 473.068C1462.16 472.176 1461.6 471.183 1461.21 470.089C1460.82 468.991 1460.63 467.846 1460.63 466.654C1460.63 465.492 1460.82 464.585 1461.21 463.933C1461.6 463.281 1462.15 462.914 1462.86 462.833C1463.58 462.755 1464.41 462.993 1465.37 463.547C1466.02 463.919 1466.62 464.386 1467.18 464.948C1467.74 465.507 1468.23 466.144 1468.64 466.86C1469.06 467.579 1469.39 468.366 1469.62 469.221C1469.86 470.072 1469.97 470.978 1469.97 471.939L1469.97 472.8L1461.71 468.03L1461.71 466.088L1467.42 469.383C1467.42 468.932 1467.33 468.483 1467.16 468.037C1466.99 467.591 1466.76 467.183 1466.46 466.812C1466.16 466.44 1465.81 466.139 1465.42 465.911C1465.01 465.673 1464.64 465.573 1464.32 465.61C1464.01 465.644 1463.76 465.794 1463.58 466.058C1463.41 466.318 1463.31 466.67 1463.31 467.114L1463.31 468.96C1463.31 469.519 1463.4 470.054 1463.58 470.564C1463.76 471.076 1464.02 471.538 1464.35 471.95C1464.68 472.362 1465.07 472.699 1465.53 472.961C1465.83 473.135 1466.1 473.246 1466.35 473.292C1466.61 473.339 1466.82 473.316 1467 473.222C1467.18 473.129 1467.31 472.967 1467.41 472.737L1469.92 474.377C1469.79 475 1469.53 475.457 1469.13 475.749C1468.74 476.038 1468.24 476.149 1467.62 476.08C1467 476.009 1466.29 475.74 1465.48 475.275Z" fill="#4B5563"/>
<path d="M1319.94 664.17L1307.6 630.958L1389.2 609.424L1450.92 669.595L1530.72 654.408L1533.23 659.784L1453.76 703.145L1393.67 640.223L1319.94 664.17Z" fill="#D1D5DB"/>
<path d="M1529.29 702.897L1493.48 622.476L1549.28 644.695L1529.29 702.897Z" fill="#D1D5DB"/>
<g opacity="0.05" filter="url(#filter7_f_2204_2274)">
<path d="M1005.91 674L1321.51 856.209L1130.53 966.472C1123.94 970.274 1113.26 970.274 1106.68 966.472L814.931 798.031C808.346 794.229 808.346 788.064 814.931 784.262L1005.91 674Z" fill="url(#paint4_linear_2204_2274)"/>
</g>
<g filter="url(#filter8_d_2204_2274)">
<g filter="url(#filter9_dd_2204_2274)">
<rect width="362.083" height="95.9315" rx="6.281" transform="matrix(0.866025 0.5 -2.20305e-08 1 1038.34 351)" fill="#D1D5DB"/>
</g>
<rect x="1021.3" y="363.094" width="21.2622" height="24.1482" transform="rotate(-27 1021.3 363.094)" fill="#D1D5DB"/>
<rect x="1323.53" y="611.936" width="18.2948" height="24.1482" transform="rotate(-27 1323.53 611.936)" fill="#D1D5DB"/>
<g filter="url(#filter10_dd_2204_2274)">
<rect width="362.083" height="95.9315" rx="6.281" transform="matrix(0.866025 0.5 -2.20305e-08 1 1038.34 451.39)" fill="#D1D5DB"/>
</g>
<rect x="1023.24" y="467.292" width="21.2622" height="19.8752" transform="rotate(-27 1023.24 467.292)" fill="#D1D5DB"/>
<rect x="1323.53" y="712.326" width="18.2948" height="24.1482" transform="rotate(-27 1323.53 712.326)" fill="#D1D5DB"/>
<g filter="url(#filter11_dd_2204_2274)">
<rect width="362.083" height="95.9315" rx="6.281" transform="matrix(0.866025 0.5 -2.20305e-08 1 1038.34 553.674)" fill="#D1D5DB"/>
</g>
<rect x="1023.47" y="570.043" width="21.2622" height="19.3503" transform="rotate(-27 1023.47 570.043)" fill="#D1D5DB"/>
<rect x="1323.53" y="814.61" width="18.2948" height="24.1482" transform="rotate(-27 1323.53 814.61)" fill="#D1D5DB"/>
<g filter="url(#filter12_dd_2204_2274)">
<rect width="362.083" height="88.6583" rx="6.281" transform="matrix(0.866025 0.5 -2.20305e-08 1 1021.01 363.507)" fill="#F9FAFB"/>
<rect width="160.648" height="9.3946" rx="4.15878" transform="matrix(0.866025 0.5 -2.20305e-08 1 1042.97 420.345)" fill="#E5E7EB"/>
<rect width="107.098" height="9.3946" rx="4.15878" transform="matrix(0.866025 0.5 -2.20305e-08 1 1042.97 436.316)" fill="#E5E7EB"/>
<path d="M1047.82 406.084C1047.79 405.717 1047.66 405.371 1047.43 405.045C1047.2 404.72 1046.89 404.445 1046.5 404.219C1046.24 404.066 1046.01 403.98 1045.83 403.961C1045.65 403.939 1045.51 403.975 1045.41 404.069C1045.31 404.165 1045.26 404.308 1045.26 404.499C1045.26 404.655 1045.29 404.81 1045.35 404.965C1045.42 405.121 1045.51 405.275 1045.62 405.427C1045.73 405.576 1045.86 405.725 1046.01 405.874C1046.16 406.02 1046.31 406.163 1046.48 406.303L1047.17 406.893C1047.51 407.173 1047.82 407.467 1048.1 407.773C1048.38 408.08 1048.62 408.398 1048.83 408.727C1049.03 409.057 1049.19 409.397 1049.3 409.749C1049.42 410.101 1049.48 410.464 1049.48 410.835C1049.48 411.377 1049.36 411.779 1049.12 412.041C1048.88 412.301 1048.54 412.412 1048.1 412.375C1047.65 412.336 1047.12 412.136 1046.49 411.774C1045.87 411.416 1045.33 410.993 1044.87 410.508C1044.41 410.023 1044.05 409.491 1043.8 408.912C1043.54 408.331 1043.41 407.717 1043.39 407.071L1044.97 407.979C1044.99 408.287 1045.06 408.578 1045.19 408.853C1045.32 409.126 1045.5 409.377 1045.72 409.606C1045.94 409.833 1046.19 410.027 1046.47 410.189C1046.75 410.348 1046.99 410.44 1047.19 410.464C1047.4 410.49 1047.56 410.453 1047.67 410.354C1047.78 410.254 1047.84 410.097 1047.84 409.883C1047.84 409.684 1047.79 409.486 1047.68 409.291C1047.58 409.097 1047.44 408.897 1047.24 408.688C1047.05 408.482 1046.81 408.258 1046.53 408.018L1045.69 407.292C1045.04 406.735 1044.53 406.155 1044.16 405.551C1043.78 404.946 1043.59 404.317 1043.6 403.662C1043.59 403.123 1043.72 402.724 1043.97 402.467C1044.22 402.211 1044.57 402.098 1045.01 402.126C1045.45 402.155 1045.95 402.332 1046.51 402.656C1047.08 402.985 1047.58 403.386 1048.01 403.857C1048.43 404.33 1048.77 404.836 1049.01 405.375C1049.24 405.914 1049.37 406.45 1049.37 406.984L1047.82 406.084ZM1050.54 416.485L1050.54 407.325L1052.12 408.236L1052.12 409.355L1052.19 409.396C1052.26 409.257 1052.36 409.133 1052.5 409.025C1052.63 408.915 1052.81 408.86 1053.02 408.86C1053.24 408.859 1053.51 408.951 1053.83 409.138C1054.25 409.381 1054.64 409.732 1055 410.192C1055.35 410.648 1055.64 411.193 1055.85 411.825C1056.06 412.453 1056.17 413.149 1056.17 413.913C1056.17 414.656 1056.07 415.223 1055.86 415.615C1055.65 416.005 1055.37 416.229 1055.02 416.287C1054.66 416.344 1054.27 416.245 1053.83 415.992C1053.52 415.813 1053.25 415.601 1053.04 415.357C1052.82 415.114 1052.64 414.863 1052.51 414.605C1052.37 414.343 1052.26 414.099 1052.19 413.872L1052.14 413.843L1052.14 417.408L1050.54 416.485ZM1052.11 411.56C1052.11 411.956 1052.16 412.329 1052.25 412.679C1052.35 413.029 1052.48 413.338 1052.66 413.607C1052.85 413.873 1053.06 414.08 1053.32 414.229C1053.58 414.38 1053.8 414.425 1053.98 414.364C1054.16 414.3 1054.3 414.148 1054.39 413.906C1054.49 413.663 1054.54 413.348 1054.54 412.961C1054.54 412.576 1054.49 412.211 1054.4 411.866C1054.3 411.52 1054.17 411.213 1053.99 410.944C1053.81 410.675 1053.59 410.465 1053.32 410.313C1053.06 410.163 1052.84 410.115 1052.66 410.17C1052.48 410.226 1052.35 410.373 1052.25 410.61C1052.16 410.847 1052.11 411.164 1052.11 411.56ZM1059.84 419.486C1059.26 419.149 1058.75 418.715 1058.33 418.183C1057.91 417.649 1057.58 417.059 1057.35 416.411C1057.12 415.76 1057 415.094 1057 414.412C1057 413.723 1057.12 413.189 1057.35 412.807C1057.58 412.422 1057.91 412.209 1058.33 412.167C1058.75 412.124 1059.26 412.271 1059.84 412.607C1060.43 412.944 1060.93 413.379 1061.35 413.913C1061.78 414.445 1062.11 415.036 1062.34 415.687C1062.57 416.334 1062.68 417.002 1062.68 417.69C1062.68 418.373 1062.57 418.906 1062.34 419.291C1062.11 419.672 1061.78 419.885 1061.35 419.928C1060.93 419.97 1060.43 419.823 1059.84 419.486ZM1059.85 418.059C1060.12 418.212 1060.34 418.253 1060.51 418.183C1060.69 418.109 1060.83 417.946 1060.92 417.695C1061.01 417.445 1061.06 417.126 1061.06 416.738C1061.06 416.351 1061.01 415.979 1060.92 415.622C1060.83 415.266 1060.69 414.949 1060.51 414.67C1060.34 414.391 1060.12 414.174 1059.85 414.021C1059.58 413.867 1059.36 413.825 1059.17 413.895C1058.99 413.968 1058.86 414.129 1058.76 414.379C1058.67 414.631 1058.63 414.95 1058.63 415.337C1058.63 415.725 1058.67 416.096 1058.76 416.452C1058.86 416.809 1058.99 417.128 1059.17 417.408C1059.36 417.687 1059.58 417.904 1059.85 418.059ZM1065.32 418.668L1065.32 422.52L1063.72 421.596L1063.72 414.934L1065.25 415.815L1065.25 416.99L1065.31 417.029C1065.44 416.715 1065.66 416.532 1065.96 416.48C1066.26 416.425 1066.62 416.521 1067.05 416.769C1067.45 417 1067.8 417.303 1068.1 417.677C1068.4 418.052 1068.63 418.475 1068.79 418.946C1068.96 419.414 1069.04 419.907 1069.04 420.425L1069.04 424.666L1067.44 423.743L1067.44 419.831C1067.44 419.424 1067.35 419.054 1067.17 418.72C1066.99 418.384 1066.74 418.123 1066.42 417.938C1066.2 417.813 1066.01 417.757 1065.84 417.768C1065.68 417.781 1065.55 417.864 1065.46 418.016C1065.37 418.166 1065.32 418.384 1065.32 418.668ZM1075.1 423.404L1073.64 422.662C1073.61 422.503 1073.56 422.342 1073.48 422.179C1073.39 422.012 1073.28 421.855 1073.15 421.708C1073.02 421.559 1072.86 421.431 1072.67 421.324C1072.42 421.181 1072.21 421.121 1072.04 421.144C1071.87 421.164 1071.79 421.274 1071.79 421.474C1071.79 421.633 1071.84 421.799 1071.95 421.973C1072.06 422.146 1072.25 422.343 1072.52 422.565L1073.57 423.41C1074.13 423.867 1074.54 424.322 1074.82 424.776C1075.1 425.23 1075.23 425.697 1075.23 426.177C1075.23 426.614 1075.12 426.933 1074.9 427.134C1074.68 427.336 1074.38 427.418 1073.99 427.381C1073.61 427.342 1073.17 427.178 1072.66 426.889C1071.9 426.448 1071.29 425.913 1070.84 425.284C1070.39 424.654 1070.12 423.998 1070.05 423.317L1071.62 424.13C1071.67 424.427 1071.78 424.698 1071.97 424.946C1072.15 425.19 1072.38 425.394 1072.67 425.559C1072.95 425.721 1073.17 425.789 1073.34 425.763C1073.52 425.736 1073.6 425.623 1073.61 425.425C1073.6 425.256 1073.54 425.083 1073.42 424.907C1073.3 424.727 1073.12 424.536 1072.87 424.334L1071.87 423.527C1071.3 423.072 1070.89 422.604 1070.61 422.124C1070.34 421.646 1070.2 421.158 1070.2 420.661C1070.2 420.233 1070.3 419.922 1070.5 419.728C1070.7 419.536 1070.99 419.461 1071.35 419.505C1071.72 419.55 1072.15 419.714 1072.65 419.999C1073.37 420.42 1073.95 420.929 1074.37 421.526C1074.79 422.124 1075.03 422.75 1075.1 423.404ZM1078.85 430.458C1078.26 430.122 1077.76 429.687 1077.33 429.155C1076.91 428.622 1076.58 428.031 1076.35 427.384C1076.12 426.733 1076.01 426.067 1076.01 425.384C1076.01 424.696 1076.12 424.161 1076.35 423.779C1076.58 423.395 1076.91 423.182 1077.33 423.14C1077.76 423.096 1078.26 423.243 1078.85 423.58C1079.43 423.917 1079.93 424.352 1080.36 424.885C1080.78 425.417 1081.11 426.009 1081.34 426.659C1081.57 427.307 1081.69 427.975 1081.69 428.663C1081.69 429.345 1081.57 429.879 1081.34 430.263C1081.11 430.645 1080.78 430.857 1080.36 430.901C1079.93 430.943 1079.43 430.795 1078.85 430.458ZM1078.86 429.032C1079.12 429.185 1079.34 429.226 1079.52 429.155C1079.7 429.081 1079.83 428.919 1079.92 428.667C1080.01 428.417 1080.06 428.098 1080.06 427.711C1080.06 427.324 1080.01 426.951 1079.92 426.594C1079.83 426.239 1079.7 425.921 1079.52 425.642C1079.34 425.363 1079.12 425.147 1078.86 424.994C1078.59 424.839 1078.36 424.797 1078.18 424.868C1078 424.94 1077.86 425.102 1077.77 425.352C1077.68 425.603 1077.63 425.923 1077.63 426.31C1077.63 426.698 1077.68 427.069 1077.77 427.425C1077.86 427.782 1078 428.101 1078.18 428.381C1078.36 428.66 1078.59 428.877 1078.86 429.032ZM1082.73 432.568L1082.73 425.907L1084.28 426.802L1084.28 427.965L1084.34 427.999C1084.44 427.647 1084.62 427.436 1084.87 427.368C1085.12 427.297 1085.4 427.355 1085.72 427.542C1085.8 427.588 1085.89 427.644 1085.98 427.709C1086.08 427.774 1086.16 427.837 1086.23 427.897L1086.23 429.537C1086.15 429.467 1086.05 429.384 1085.92 429.287C1085.78 429.191 1085.66 429.11 1085.55 429.047C1085.32 428.911 1085.11 428.849 1084.92 428.86C1084.74 428.87 1084.59 428.948 1084.49 429.094C1084.38 429.242 1084.33 429.452 1084.33 429.723L1084.33 433.492L1082.73 432.568ZM1089.42 436.56C1088.82 436.217 1088.31 435.784 1087.88 435.259C1087.46 434.733 1087.13 434.147 1086.9 433.502C1086.67 432.855 1086.55 432.18 1086.55 431.477C1086.55 430.792 1086.67 430.257 1086.9 429.872C1087.13 429.488 1087.45 429.272 1087.87 429.224C1088.29 429.178 1088.79 429.318 1089.35 429.645C1089.73 429.864 1090.09 430.14 1090.42 430.471C1090.75 430.801 1091.03 431.176 1091.28 431.599C1091.53 432.022 1091.72 432.486 1091.86 432.991C1092 433.492 1092.06 434.027 1092.06 434.593L1092.06 435.101L1087.19 432.288L1087.19 431.143L1090.56 433.086C1090.56 432.82 1090.51 432.556 1090.41 432.292C1090.31 432.029 1090.17 431.789 1089.99 431.57C1089.82 431.351 1089.61 431.173 1089.38 431.039C1089.14 430.899 1088.92 430.84 1088.73 430.861C1088.55 430.881 1088.4 430.97 1088.3 431.126C1088.19 431.279 1088.14 431.486 1088.14 431.748L1088.14 432.837C1088.14 433.166 1088.19 433.481 1088.29 433.782C1088.4 434.084 1088.55 434.357 1088.75 434.6C1088.94 434.843 1089.17 435.041 1089.44 435.196C1089.62 435.299 1089.78 435.364 1089.93 435.391C1090.08 435.419 1090.2 435.405 1090.31 435.35C1090.42 435.295 1090.5 435.2 1090.55 435.064L1092.03 436.031C1091.95 436.398 1091.8 436.668 1091.57 436.84C1091.34 437.01 1091.04 437.075 1090.67 437.035C1090.31 436.993 1089.89 436.835 1089.42 436.56ZM1095.23 439.897C1094.8 439.644 1094.4 439.285 1094.04 438.82C1093.69 438.353 1093.41 437.805 1093.2 437.176C1093 436.546 1092.89 435.859 1092.89 435.116C1092.89 434.353 1093 433.779 1093.21 433.396C1093.43 433.01 1093.71 432.793 1094.06 432.746C1094.42 432.697 1094.81 432.794 1095.23 433.038C1095.55 433.225 1095.82 433.444 1096.04 433.695C1096.26 433.946 1096.43 434.203 1096.56 434.467C1096.7 434.731 1096.8 434.972 1096.87 435.192L1096.92 435.22L1096.92 431.88L1098.52 432.802L1098.52 441.684L1096.94 440.773L1096.94 439.707L1096.87 439.668C1096.8 439.809 1096.69 439.931 1096.55 440.034C1096.42 440.135 1096.24 440.182 1096.02 440.175C1095.81 440.169 1095.54 440.077 1095.23 439.897ZM1095.74 438.72C1096 438.869 1096.22 438.914 1096.39 438.854C1096.57 438.794 1096.71 438.643 1096.81 438.403C1096.91 438.165 1096.95 437.847 1096.95 437.451C1096.95 437.055 1096.91 436.684 1096.81 436.337C1096.72 435.99 1096.58 435.685 1096.4 435.422C1096.22 435.158 1096 434.952 1095.74 434.804C1095.48 434.652 1095.26 434.606 1095.08 434.667C1094.9 434.728 1094.76 434.877 1094.67 435.116C1094.57 435.354 1094.53 435.666 1094.53 436.05C1094.53 436.438 1094.57 436.807 1094.67 437.159C1094.76 437.508 1094.9 437.818 1095.08 438.089C1095.26 438.358 1095.48 438.568 1095.74 438.72Z" fill="#4B5563"/>
<g filter="url(#filter13_dd_2204_2274)">
<rect width="76.9423" height="76.0963" rx="3.7001" transform="matrix(0.866025 0.5 -2.20305e-08 1 1261.12 508.418)" fill="white"/>
</g>
<mask id="mask2_2204_2274" style="mask-type:alpha" maskUnits="userSpaceOnUse" x="1265" y="517" width="59" height="98">
<rect width="66.9538" height="66.2176" rx="3.7001" transform="matrix(0.866025 0.5 -2.20305e-08 1 1265.45 515.854)" fill="white"/>
</mask>
<g mask="url(#mask2_2204_2274)">
<path d="M1306.14 577.982C1307.43 576.773 1309.99 578.246 1311.28 580.95L1325.9 611.488C1327.53 614.884 1326.01 617.552 1323.33 616.006L1294.09 599.123C1291.41 597.577 1289.89 593.156 1291.52 591.637L1306.14 577.982Z" fill="#C4B5FD"/>
<path d="M1278.37 553.635C1280.31 551.821 1284.14 554.031 1286.08 558.087L1310.28 608.626L1263.99 581.9C1259.97 579.58 1257.69 572.949 1260.13 570.67L1278.37 553.635Z" fill="#7A2CFF"/>
<ellipse cx="8.76399" cy="8.66762" rx="8.76399" ry="8.66762" transform="matrix(0.866025 0.5 -2.20305e-08 1 1293.27 542.647)" fill="#C4B5FD"/>
</g>
<rect x="-1.22039" y="-2.11379" width="364.901" height="91.4767" rx="7.69019" transform="matrix(0.866025 0.5 -2.20305e-08 1 1020.84 364.118)" stroke="white" stroke-width="2.81838"/>
</g>
<g filter="url(#filter14_dd_2204_2274)">
<rect width="362.083" height="86.0896" rx="7.25698" transform="matrix(0.866025 0.5 -2.20305e-08 1 1021.01 467.321)" fill="#F9FAFB"/>
<rect width="216.49" height="12.6602" rx="5.6044" transform="matrix(0.866025 0.5 -2.20305e-08 1 1046.15 504.624)" fill="#E5E7EB"/>
<rect width="144.327" height="12.6602" rx="5.6044" transform="matrix(0.866025 0.5 -2.20305e-08 1 1046.15 528.169)" fill="#E5E7EB"/>
<g filter="url(#filter15_dd_2204_2274)">
<rect width="78.2081" height="71.3404" rx="4.27505" transform="matrix(0.866025 0.5 -2.20305e-08 1 1258.93 611.942)" fill="#E5E7EB"/>
<rect x="0.548204" y="0.949517" width="76.942" height="70.0744" rx="3.64204" transform="matrix(0.866025 0.5 -2.20305e-08 1 1259 611.667)" stroke="white" stroke-width="1.26602"/>
</g>
<mask id="mask3_2204_2274" style="mask-type:alpha" maskUnits="userSpaceOnUse" x="1263" y="620" width="60" height="94">
<rect width="68.0553" height="62.0792" rx="4.27505" transform="matrix(0.866025 0.5 -2.20305e-08 1 1263.32 619.111)" fill="white"/>
</mask>
<g mask="url(#mask3_2204_2274)">
<path d="M1305.59 678.474C1306.48 677.749 1308.12 678.698 1309.01 680.449L1325.8 713.539C1327 715.904 1325.97 717.838 1324.09 716.753L1290.51 697.37C1288.63 696.284 1287.6 693.161 1288.8 692.181L1305.59 678.474Z" fill="#D1D5DB"/>
<path d="M1278.67 653.316C1279.56 652.59 1281.2 653.54 1282.09 655.291L1305.88 702.186C1307.08 704.55 1306.05 706.485 1304.17 705.4L1256.59 677.931C1254.71 676.845 1253.68 673.721 1254.88 672.742L1278.67 653.316Z" fill="#9CA3AF"/>
<ellipse cx="8.90816" cy="8.12591" rx="8.90816" ry="8.12591" transform="matrix(0.866025 0.5 -2.20305e-08 1 1291.6 645.497)" fill="#9CA3AF"/>
</g>
<rect x="-1.09641" y="-1.89903" width="364.615" height="88.6216" rx="8.523" transform="matrix(0.866025 0.5 -2.20305e-08 1 1020.86 467.869)" stroke="white" stroke-width="2.53205"/>
</g>
<g filter="url(#filter16_d_2204_2274)">
<rect width="362.083" height="86.0896" rx="7.25698" transform="matrix(0.866025 0.5 -2.20305e-08 1 1021.01 569.869)" fill="#F9FAFB"/>
<rect width="216.49" height="12.6602" rx="5.6044" transform="matrix(0.866025 0.5 -2.20305e-08 1 1046.15 607.172)" fill="#E5E7EB"/>
<rect width="144.327" height="12.6602" rx="5.6044" transform="matrix(0.866025 0.5 -2.20305e-08 1 1046.15 630.717)" fill="#E5E7EB"/>
<g filter="url(#filter17_dd_2204_2274)">
<rect width="78.2081" height="71.3404" rx="4.27505" transform="matrix(0.866025 0.5 -2.20305e-08 1 1258.93 714.489)" fill="#E5E7EB"/>
<rect x="0.548204" y="0.949517" width="76.942" height="70.0744" rx="3.64204" transform="matrix(0.866025 0.5 -2.20305e-08 1 1259 714.215)" stroke="white" stroke-width="1.26602"/>
</g>
<mask id="mask4_2204_2274" style="mask-type:alpha" maskUnits="userSpaceOnUse" x="1263" y="723" width="60" height="94">
<rect width="68.0553" height="62.0792" rx="4.27505" transform="matrix(0.866025 0.5 -2.20305e-08 1 1263.32 721.658)" fill="white"/>
</mask>
<g mask="url(#mask4_2204_2274)">
<path d="M1305.59 781.021C1306.48 780.296 1308.12 781.245 1309.01 782.997L1325.8 816.086C1327 818.451 1325.97 820.386 1324.09 819.3L1290.51 799.917C1288.63 798.832 1287.6 795.708 1288.8 794.728L1305.59 781.021Z" fill="#D1D5DB"/>
<path d="M1278.67 755.863C1279.56 755.137 1281.2 756.087 1282.09 757.838L1305.88 804.733C1307.08 807.097 1306.05 809.032 1304.17 807.947L1256.59 780.478C1254.71 779.392 1253.68 776.268 1254.88 775.289L1278.67 755.863Z" fill="#9CA3AF"/>
<ellipse cx="8.90816" cy="8.12591" rx="8.90816" ry="8.12591" transform="matrix(0.866025 0.5 -2.20305e-08 1 1291.6 748.045)" fill="#9CA3AF"/>
</g>
<rect x="-1.09641" y="-1.89903" width="364.615" height="88.6216" rx="8.523" transform="matrix(0.866025 0.5 -2.20305e-08 1 1020.86 570.417)" stroke="white" stroke-width="2.53205"/>
</g>
</g>
<g style="mix-blend-mode:color-burn">
<path d="M575.853 490.788C574.371 480.399 578.077 469.943 585.771 462.806L1075.09 8.96005C1081.01 3.47171 1088.78 0.421946 1096.85 0.421962L1920.45 0.421843L1920.45 1205.39C1920.45 1223.34 1905.7 1237.77 1887.76 1237.39L705.789 1211.78C690.128 1211.44 677.015 1199.81 674.803 1184.3L575.853 490.788Z" fill="url(#paint5_linear_2204_2274)" fill-opacity="0.6"/>
<path d="M575.853 490.788C574.371 480.399 578.077 469.943 585.771 462.806L1075.09 8.96005C1081.01 3.47171 1088.78 0.421946 1096.85 0.421962L1920.45 0.421843L1920.45 1205.39C1920.45 1223.34 1905.7 1237.77 1887.76 1237.39L705.789 1211.78C690.128 1211.44 677.015 1199.81 674.803 1184.3L575.853 490.788Z" fill="url(#paint6_linear_2204_2274)"/>
</g>
<g clip-path="url(#clip1_2204_2274)">
<path opacity="0.25" d="M1116.84 860.958C1116.77 859.369 1116.99 857.945 1117.47 856.777C1117.96 855.609 1118.7 854.725 1119.66 854.18C1123.43 851.993 1129.53 855.516 1133.3 862.057C1134.26 863.721 1135.01 865.485 1135.5 867.232C1135.38 864.501 1134.45 861.328 1132.68 858.276C1128.91 851.745 1122.81 848.222 1119.03 850.399C1117.72 851.155 1116.81 852.555 1116.42 854.429C1116.03 856.302 1116.18 858.57 1116.84 860.958Z" fill="white"/>
<g filter="url(#filter18_dd_2204_2274)">
<path d="M1163.04 811.794C1169.07 819.423 1178.02 818.097 1182.03 809.728C1186.28 800.839 1185.61 791.158 1181.14 783.74C1176.84 775.458 1163.7 774.104 1165.46 784.034C1161.27 791.614 1158.57 804.376 1163.04 811.794Z" fill="#7857FF"/>
</g>
<g filter="url(#filter19_dd_2204_2274)">
<path d="M1161.86 810.214C1166.33 817.632 1173.35 817.5 1177.54 809.92C1181.73 802.34 1181.5 790.181 1177.03 782.763C1172.56 775.345 1165.54 775.476 1161.35 783.057C1157.16 790.637 1157.39 802.796 1161.86 810.214Z" fill="#8370FF"/>
</g>
<path d="M1166.4 783.392L1176.11 788.444C1176.55 788.678 1176.95 789.191 1177.2 789.872C1177.46 790.553 1177.56 791.347 1177.49 792.08L1175.77 808.079C1175.69 808.811 1175.44 809.42 1175.07 809.774C1174.7 810.128 1174.24 810.198 1173.8 809.969L1164.09 804.917C1163.65 804.684 1163.25 804.171 1162.99 803.49C1162.74 802.809 1162.63 802.015 1162.71 801.282L1164.43 785.283C1164.51 784.551 1164.76 783.942 1165.13 783.588C1165.5 783.234 1165.96 783.163 1166.4 783.392ZM1173.98 789.862C1173.66 789.694 1173.35 789.993 1173.29 790.526L1173.04 792.845C1172.98 793.378 1173.2 793.952 1173.52 794.121L1175 794.889C1175.32 795.057 1175.63 794.758 1175.69 794.225L1175.94 791.907C1175.97 791.649 1175.93 791.371 1175.84 791.132C1175.75 790.893 1175.61 790.712 1175.46 790.63L1173.98 789.862ZM1175.33 797.65L1174.18 797.053C1174.23 797.709 1174.22 798.362 1174.15 798.988C1173.77 802.567 1171.64 804.524 1169.4 803.357C1167.15 802.19 1165.65 798.341 1166.03 794.762C1166.1 794.136 1166.22 793.542 1166.4 793.001L1165.2 792.377L1164.22 801.47C1164.17 801.941 1164.37 802.445 1164.65 802.594L1173.74 807.327C1174.03 807.476 1174.3 807.214 1174.35 806.743L1175.33 797.65ZM1170.57 792.452C1169.12 791.698 1167.74 792.962 1167.49 795.276C1167.25 797.588 1168.22 800.076 1169.67 800.83C1171.12 801.584 1172.49 800.318 1172.74 798.007C1172.99 795.691 1172.01 793.205 1170.57 792.452Z" fill="white"/>
<g filter="url(#filter20_dd_2204_2274)">
<path d="M1112.06 720.154C1120.49 727.301 1131.9 725.37 1136.3 716.799C1140.97 707.696 1139.25 698.147 1132.83 691.102C1126.56 683.188 1109.55 682.75 1112.69 692.472C1107.98 700.273 1105.65 713.108 1112.06 720.154Z" fill="#7857FF"/>
</g>
<g filter="url(#filter21_dd_2204_2274)">
<path d="M1110.4 718.669C1116.81 725.714 1125.83 725.101 1130.54 717.299C1135.25 709.497 1133.87 697.461 1127.46 690.416C1121.05 683.371 1112.03 683.984 1107.32 691.786C1102.61 699.588 1103.99 711.624 1110.4 718.669Z" fill="#8370FF"/>
</g>
<g filter="url(#filter22_dd_2204_2274)">
<path d="M920.216 528.167C926.787 535.39 935.668 533.438 939.095 524.777C942.735 515.577 941.391 505.927 936.397 498.807C931.513 490.81 918.262 490.367 920.712 500.192C917.043 508.076 915.223 521.047 920.216 528.167Z" fill="#7857FF"/>
</g>
<g filter="url(#filter23_dd_2204_2274)">
<path d="M918.923 526.666C923.917 533.786 930.939 533.166 934.608 525.282C938.278 517.397 937.204 505.234 932.211 498.114C927.217 490.994 920.194 491.614 916.525 499.499C912.856 507.383 913.93 519.546 918.923 526.666Z" fill="#8370FF"/>
</g>
<path d="M922.233 501.971L932.964 516.533L922.233 518.705L922.233 501.971Z" fill="white"/>
<path opacity="0.4" d="M923.911 615.806L923.911 603.189C922.799 602.575 921.84 602.213 920.756 601.994C919.363 601.707 918.073 601.794 916.961 602.249C915.848 602.704 914.935 603.518 914.274 604.644C912.971 606.826 912.7 610.073 913.52 613.706L923.911 615.806Z" fill="#7857FF"/>
<path d="M929.141 621.269L924.198 616.561L913.696 614.438C914.88 619.032 917.317 623.181 920.756 626.457C921.868 627.518 923.03 628.403 924.2 629.079C926.504 630.414 928.752 630.888 930.633 630.438C932.514 629.987 933.935 628.633 934.698 626.564L929.141 621.269Z" fill="#7857FF"/>
<path opacity="0.1" d="M930.976 609.918L924.663 616.306L934.877 626.035C936.22 621.615 934.707 615.364 930.976 609.918Z" fill="#7857FF"/>
<path opacity="0.62" d="M924.485 615.358L930.511 609.26C928.663 606.712 926.734 604.875 924.485 603.52L924.485 615.358Z" fill="#7857FF"/>
<g filter="url(#filter24_dd_2204_2274)">
<path d="M978.711 470.313C989.715 474.927 998.547 468.187 997.879 456.824C997.169 444.755 990.704 434.757 981.501 429.444C971.967 423.102 957.058 429.444 964.838 439.064C964.838 449.691 969.508 464.999 978.711 470.313Z" fill="#7857FF"/>
</g>
<g filter="url(#filter25_dd_2204_2274)">
<path d="M976.506 469.317C985.709 474.63 993.169 470.323 993.169 459.696C993.169 449.07 985.709 436.148 976.506 430.835C967.303 425.521 959.843 429.829 959.843 440.455C959.843 451.082 967.303 464.004 976.506 469.317Z" fill="#8370FF"/>
</g>
<path d="M980.793 450.374L978.959 445.354L975.848 446.119L974.418 442.977C973.77 441.552 973.582 440.519 974.886 440.199L976.548 439.79L974.545 435.389C974.231 435.4 973.184 435.508 972.034 435.791C969.635 436.38 969.038 439.077 970.954 443.287L972.606 446.915L969.893 447.582L972.132 452.502L974.845 451.836L980.59 464.459L983.833 463.662L978.088 451.039L980.793 450.374Z" fill="white"/>
<path d="M1123.27 716.855C1123.07 717.057 1122.8 717.156 1122.49 717.142L1121.68 707.854L1128.37 710.98C1128.35 711.408 1128.22 711.758 1128 711.989L1123.27 716.855ZM1119 705.579L1128.54 710.03C1128.39 709.584 1128.17 709.142 1127.89 708.745L1117.79 694.53C1117.51 694.136 1117.18 693.801 1116.83 693.558L1119 705.579Z" fill="white"/>
<path d="M1120.86 707.648L1118.65 706.618C1118.52 706.559 1118.4 706.448 1118.3 706.305C1118.2 706.162 1118.12 705.996 1118.1 705.838L1117.59 703.055L1109.83 700.559C1109.97 701.057 1110.21 701.556 1110.53 701.999L1120.63 716.214C1120.94 716.656 1121.31 717.022 1121.7 717.271L1120.86 707.648ZM1115.8 693.113C1115.44 693.071 1115.12 693.173 1114.89 693.406L1110.05 698.384C1109.85 698.596 1109.73 698.906 1109.69 699.286L1117.36 701.751L1115.8 693.113Z" fill="white"/>
</g>
</g>
<defs>
<filter id="filter0_f_2204_2274" x="1259.45" y="-760.881" width="1629.56" height="1650.79" filterUnits="userSpaceOnUse" color-interpolation-filters="sRGB">
<feFlood flood-opacity="0" result="BackgroundImageFix"/>
<feBlend mode="normal" in="SourceGraphic" in2="BackgroundImageFix" result="shape"/>
<feGaussianBlur stdDeviation="125" result="effect1_foregroundBlur_2204_2274"/>
</filter>
<filter id="filter1_f_2204_2274" x="886.189" y="590.854" width="827.6" height="486.48" filterUnits="userSpaceOnUse" color-interpolation-filters="sRGB">
<feFlood flood-opacity="0" result="BackgroundImageFix"/>
<feBlend mode="normal" in="SourceGraphic" in2="BackgroundImageFix" result="shape"/>
<feGaussianBlur stdDeviation="8.07299" result="effect1_foregroundBlur_2204_2274"/>
</filter>
<filter id="filter2_dd_2204_2274" x="1192.21" y="200.811" width="515.544" height="716.888" filterUnits="userSpaceOnUse" color-interpolation-filters="sRGB">
<feFlood flood-opacity="0" result="BackgroundImageFix"/>
<feColorMatrix in="SourceAlpha" type="matrix" values="0 0 0 0 0 0 0 0 0 0 0 0 0 0 0 0 0 0 127 0" result="hardAlpha"/>
<feMorphology radius="1.69365" operator="erode" in="SourceAlpha" result="effect1_dropShadow_2204_2274"/>
<feOffset dy="3.38731"/>
<feGaussianBlur stdDeviation="2.54048"/>
<feColorMatrix type="matrix" values="0 0 0 0 0 0 0 0 0 0 0 0 0 0 0 0 0 0 0.05 0"/>
<feBlend mode="normal" in2="BackgroundImageFix" result="effect1_dropShadow_2204_2274"/>
<feColorMatrix in="SourceAlpha" type="matrix" values="0 0 0 0 0 0 0 0 0 0 0 0 0 0 0 0 0 0 127 0" result="hardAlpha"/>
<feMorphology radius="2.54048" operator="erode" in="SourceAlpha" result="effect2_dropShadow_2204_2274"/>
<feOffset dy="8.46827"/>
<feGaussianBlur stdDeviation="6.3512"/>
<feColorMatrix type="matrix" values="0 0 0 0 0 0 0 0 0 0 0 0 0 0 0 0 0 0 0.1 0"/>
<feBlend mode="normal" in2="effect1_dropShadow_2204_2274" result="effect2_dropShadow_2204_2274"/>
<feBlend mode="normal" in="SourceGraphic" in2="effect2_dropShadow_2204_2274" result="shape"/>
</filter>
<filter id="filter3_dd_2204_2274" x="1163.51" y="237.27" width="544.773" height="723.139" filterUnits="userSpaceOnUse" color-interpolation-filters="sRGB">
<feFlood flood-opacity="0" result="BackgroundImageFix"/>
<feColorMatrix in="SourceAlpha" type="matrix" values="0 0 0 0 0 0 0 0 0 0 0 0 0 0 0 0 0 0 127 0" result="hardAlpha"/>
<feMorphology radius="6.50313" operator="erode" in="SourceAlpha" result="effect1_dropShadow_2204_2274"/>
<feOffset dy="13.0063"/>
<feGaussianBlur stdDeviation="10.405"/>
<feColorMatrix type="matrix" values="0 0 0 0 0 0 0 0 0 0 0 0 0 0 0 0 0 0 0.04 0"/>
<feBlend mode="normal" in2="BackgroundImageFix" result="effect1_dropShadow_2204_2274"/>
<feColorMatrix in="SourceAlpha" type="matrix" values="0 0 0 0 0 0 0 0 0 0 0 0 0 0 0 0 0 0 127 0" result="hardAlpha"/>
<feMorphology radius="6.50313" operator="erode" in="SourceAlpha" result="effect2_dropShadow_2204_2274"/>
<feOffset dy="26.0125"/>
<feGaussianBlur stdDeviation="20.81"/>
<feColorMatrix type="matrix" values="0 0 0 0 0 0 0 0 0 0 0 0 0 0 0 0 0 0 0.1 0"/>
<feBlend mode="normal" in2="effect1_dropShadow_2204_2274" result="effect2_dropShadow_2204_2274"/>
<feBlend mode="normal" in="SourceGraphic" in2="effect2_dropShadow_2204_2274" result="shape"/>
</filter>
<filter id="filter4_d_2204_2274" x="1195.53" y="214.484" width="480.741" height="315.149" filterUnits="userSpaceOnUse" color-interpolation-filters="sRGB">
<feFlood flood-opacity="0" result="BackgroundImageFix"/>
<feColorMatrix in="SourceAlpha" type="matrix" values="0 0 0 0 0 0 0 0 0 0 0 0 0 0 0 0 0 0 127 0" result="hardAlpha"/>
<feOffset dy="1.55044"/>
<feGaussianBlur stdDeviation="1.55044"/>
<feColorMatrix type="matrix" values="0 0 0 0 0 0 0 0 0 0 0 0 0 0 0 0 0 0 0.05 0"/>
<feBlend mode="normal" in2="BackgroundImageFix" result="effect1_dropShadow_2204_2274"/>
<feBlend mode="normal" in="SourceGraphic" in2="effect1_dropShadow_2204_2274" result="shape"/>
</filter>
<filter id="filter5_dd_2204_2274" x="1305.58" y="416.107" width="259.332" height="177.648" filterUnits="userSpaceOnUse" color-interpolation-filters="sRGB">
<feFlood flood-opacity="0" result="BackgroundImageFix"/>
<feColorMatrix in="SourceAlpha" type="matrix" values="0 0 0 0 0 0 0 0 0 0 0 0 0 0 0 0 0 0 127 0" result="hardAlpha"/>
<feMorphology radius="0.842505" operator="erode" in="SourceAlpha" result="effect1_dropShadow_2204_2274"/>
<feOffset dy="1.68501"/>
<feGaussianBlur stdDeviation="1.68501"/>
<feColorMatrix type="matrix" values="0 0 0 0 0 0 0 0 0 0 0 0 0 0 0 0 0 0 0.06 0"/>
<feBlend mode="normal" in2="BackgroundImageFix" result="effect1_dropShadow_2204_2274"/>
<feColorMatrix in="SourceAlpha" type="matrix" values="0 0 0 0 0 0 0 0 0 0 0 0 0 0 0 0 0 0 127 0" result="hardAlpha"/>
<feMorphology radius="0.842505" operator="erode" in="SourceAlpha" result="effect2_dropShadow_2204_2274"/>
<feOffset dy="3.37002"/>
<feGaussianBlur stdDeviation="2.52751"/>
<feColorMatrix type="matrix" values="0 0 0 0 0 0 0 0 0 0 0 0 0 0 0 0 0 0 0.1 0"/>
<feBlend mode="normal" in2="effect1_dropShadow_2204_2274" result="effect2_dropShadow_2204_2274"/>
<feBlend mode="normal" in="SourceGraphic" in2="effect2_dropShadow_2204_2274" result="shape"/>
</filter>
<filter id="filter6_i_2204_2274" x="1306" y="419.174" width="248.182" height="168.571" filterUnits="userSpaceOnUse" color-interpolation-filters="sRGB">
<feFlood flood-opacity="0" result="BackgroundImageFix"/>
<feBlend mode="normal" in="SourceGraphic" in2="BackgroundImageFix" result="shape"/>
<feColorMatrix in="SourceAlpha" type="matrix" values="0 0 0 0 0 0 0 0 0 0 0 0 0 0 0 0 0 0 127 0" result="hardAlpha"/>
<feOffset dy="1.68501"/>
<feGaussianBlur stdDeviation="1.68501"/>
<feComposite in2="hardAlpha" operator="arithmetic" k2="-1" k3="1"/>
<feColorMatrix type="matrix" values="0 0 0 0 0 0 0 0 0 0 0 0 0 0 0 0 0 0 0.06 0"/>
<feBlend mode="normal" in2="shape" result="effect1_innerShadow_2204_2274"/>
</filter>
<filter id="filter7_f_2204_2274" x="795.331" y="659.339" width="540.837" height="324.646" filterUnits="userSpaceOnUse" color-interpolation-filters="sRGB">
<feFlood flood-opacity="0" result="BackgroundImageFix"/>
<feBlend mode="normal" in="SourceGraphic" in2="BackgroundImageFix" result="shape"/>
<feGaussianBlur stdDeviation="7.33067" result="effect1_foregroundBlur_2204_2274"/>
</filter>
<filter id="filter8_d_2204_2274" x="1018.57" y="351" width="337.351" height="490.061" filterUnits="userSpaceOnUse" color-interpolation-filters="sRGB">
<feFlood flood-opacity="0" result="BackgroundImageFix"/>
<feColorMatrix in="SourceAlpha" type="matrix" values="0 0 0 0 0 0 0 0 0 0 0 0 0 0 0 0 0 0 127 0" result="hardAlpha"/>
<feOffset dx="2" dy="2"/>
<feGaussianBlur stdDeviation="1"/>
<feComposite in2="hardAlpha" operator="out"/>
<feColorMatrix type="matrix" values="0 0 0 0 0 0 0 0 0 0 0 0 0 0 0 0 0 0 0.03 0"/>
<feBlend mode="normal" in2="BackgroundImageFix" result="effect1_dropShadow_2204_2274"/>
<feBlend mode="normal" in="SourceGraphic" in2="effect1_dropShadow_2204_2274" result="shape"/>
</filter>
<filter id="filter9_dd_2204_2274" x="1022.64" y="351" width="344.978" height="308.378" filterUnits="userSpaceOnUse" color-interpolation-filters="sRGB">
<feFlood flood-opacity="0" result="BackgroundImageFix"/>
<feColorMatrix in="SourceAlpha" type="matrix" values="0 0 0 0 0 0 0 0 0 0 0 0 0 0 0 0 0 0 127 0" result="hardAlpha"/>
<feMorphology radius="3.92563" operator="erode" in="SourceAlpha" result="effect1_dropShadow_2204_2274"/>
<feOffset dy="7.85125"/>
<feGaussianBlur stdDeviation="3.92563"/>
<feColorMatrix type="matrix" values="0 0 0 0 0 0 0 0 0 0 0 0 0 0 0 0 0 0 0.04 0"/>
<feBlend mode="normal" in2="BackgroundImageFix" result="effect1_dropShadow_2204_2274"/>
<feColorMatrix in="SourceAlpha" type="matrix" values="0 0 0 0 0 0 0 0 0 0 0 0 0 0 0 0 0 0 127 0" result="hardAlpha"/>
<feMorphology radius="3.92563" operator="erode" in="SourceAlpha" result="effect2_dropShadow_2204_2274"/>
<feOffset dy="15.7025"/>
<feGaussianBlur stdDeviation="9.81407"/>
<feColorMatrix type="matrix" values="0 0 0 0 0.654902 0 0 0 0 0.545098 0 0 0 0 0.980392 0 0 0 0.1 0"/>
<feBlend mode="normal" in2="effect1_dropShadow_2204_2274" result="effect2_dropShadow_2204_2274"/>
<feBlend mode="normal" in="SourceGraphic" in2="effect2_dropShadow_2204_2274" result="shape"/>
</filter>
<filter id="filter10_dd_2204_2274" x="1022.64" y="451.39" width="344.978" height="308.378" filterUnits="userSpaceOnUse" color-interpolation-filters="sRGB">
<feFlood flood-opacity="0" result="BackgroundImageFix"/>
<feColorMatrix in="SourceAlpha" type="matrix" values="0 0 0 0 0 0 0 0 0 0 0 0 0 0 0 0 0 0 127 0" result="hardAlpha"/>
<feMorphology radius="3.92563" operator="erode" in="SourceAlpha" result="effect1_dropShadow_2204_2274"/>
<feOffset dy="7.85125"/>
<feGaussianBlur stdDeviation="3.92563"/>
<feColorMatrix type="matrix" values="0 0 0 0 0 0 0 0 0 0 0 0 0 0 0 0 0 0 0.04 0"/>
<feBlend mode="normal" in2="BackgroundImageFix" result="effect1_dropShadow_2204_2274"/>
<feColorMatrix in="SourceAlpha" type="matrix" values="0 0 0 0 0 0 0 0 0 0 0 0 0 0 0 0 0 0 127 0" result="hardAlpha"/>
<feMorphology radius="3.92563" operator="erode" in="SourceAlpha" result="effect2_dropShadow_2204_2274"/>
<feOffset dy="15.7025"/>
<feGaussianBlur stdDeviation="9.81407"/>
<feColorMatrix type="matrix" values="0 0 0 0 0.654902 0 0 0 0 0.545098 0 0 0 0 0.980392 0 0 0 0.1 0"/>
<feBlend mode="normal" in2="effect1_dropShadow_2204_2274" result="effect2_dropShadow_2204_2274"/>
<feBlend mode="normal" in="SourceGraphic" in2="effect2_dropShadow_2204_2274" result="shape"/>
</filter>
<filter id="filter11_dd_2204_2274" x="1022.64" y="553.674" width="344.978" height="308.378" filterUnits="userSpaceOnUse" color-interpolation-filters="sRGB">
<feFlood flood-opacity="0" result="BackgroundImageFix"/>
<feColorMatrix in="SourceAlpha" type="matrix" values="0 0 0 0 0 0 0 0 0 0 0 0 0 0 0 0 0 0 127 0" result="hardAlpha"/>
<feMorphology radius="3.92563" operator="erode" in="SourceAlpha" result="effect1_dropShadow_2204_2274"/>
<feOffset dy="7.85125"/>
<feGaussianBlur stdDeviation="3.92563"/>
<feColorMatrix type="matrix" values="0 0 0 0 0 0 0 0 0 0 0 0 0 0 0 0 0 0 0.04 0"/>
<feBlend mode="normal" in2="BackgroundImageFix" result="effect1_dropShadow_2204_2274"/>
<feColorMatrix in="SourceAlpha" type="matrix" values="0 0 0 0 0 0 0 0 0 0 0 0 0 0 0 0 0 0 127 0" result="hardAlpha"/>
<feMorphology radius="3.92563" operator="erode" in="SourceAlpha" result="effect2_dropShadow_2204_2274"/>
<feOffset dy="15.7025"/>
<feGaussianBlur stdDeviation="9.81407"/>
<feColorMatrix type="matrix" values="0 0 0 0 0.654902 0 0 0 0 0.545098 0 0 0 0 0.980392 0 0 0 0.1 0"/>
<feBlend mode="normal" in2="effect1_dropShadow_2204_2274" result="effect2_dropShadow_2204_2274"/>
<feBlend mode="normal" in="SourceGraphic" in2="effect2_dropShadow_2204_2274" result="shape"/>
</filter>
<filter id="filter12_dd_2204_2274" x="1002.86" y="362.753" width="349.859" height="302.613" filterUnits="userSpaceOnUse" color-interpolation-filters="sRGB">
<feFlood flood-opacity="0" result="BackgroundImageFix"/>
<feColorMatrix in="SourceAlpha" type="matrix" values="0 0 0 0 0 0 0 0 0 0 0 0 0 0 0 0 0 0 127 0" result="hardAlpha"/>
<feMorphology radius="3.92563" operator="erode" in="SourceAlpha" result="effect1_dropShadow_2204_2274"/>
<feOffset dy="7.85125"/>
<feGaussianBlur stdDeviation="3.92563"/>
<feColorMatrix type="matrix" values="0 0 0 0 0 0 0 0 0 0 0 0 0 0 0 0 0 0 0.04 0"/>
<feBlend mode="normal" in2="BackgroundImageFix" result="effect1_dropShadow_2204_2274"/>
<feColorMatrix in="SourceAlpha" type="matrix" values="0 0 0 0 0 0 0 0 0 0 0 0 0 0 0 0 0 0 127 0" result="hardAlpha"/>
<feMorphology radius="3.92563" operator="erode" in="SourceAlpha" result="effect2_dropShadow_2204_2274"/>
<feOffset dy="15.7025"/>
<feGaussianBlur stdDeviation="9.81407"/>
<feColorMatrix type="matrix" values="0 0 0 0 0.654902 0 0 0 0 0.545098 0 0 0 0 0.980392 0 0 0 0.1 0"/>
<feBlend mode="normal" in2="effect1_dropShadow_2204_2274" result="effect2_dropShadow_2204_2274"/>
<feBlend mode="normal" in="SourceGraphic" in2="effect2_dropShadow_2204_2274" result="shape"/>
</filter>
<filter id="filter13_dd_2204_2274" x="1257.97" y="509.202" width="72.9242" height="118.033" filterUnits="userSpaceOnUse" color-interpolation-filters="sRGB">
<feFlood flood-opacity="0" result="BackgroundImageFix"/>
<feColorMatrix in="SourceAlpha" type="matrix" values="0 0 0 0 0 0 0 0 0 0 0 0 0 0 0 0 0 0 127 0" result="hardAlpha"/>
<feMorphology radius="0.629045" operator="erode" in="SourceAlpha" result="effect1_dropShadow_2204_2274"/>
<feOffset dy="1.25809"/>
<feGaussianBlur stdDeviation="1.25809"/>
<feColorMatrix type="matrix" values="0 0 0 0 0 0 0 0 0 0 0 0 0 0 0 0 0 0 0.06 0"/>
<feBlend mode="normal" in2="BackgroundImageFix" result="effect1_dropShadow_2204_2274"/>
<feColorMatrix in="SourceAlpha" type="matrix" values="0 0 0 0 0 0 0 0 0 0 0 0 0 0 0 0 0 0 127 0" result="hardAlpha"/>
<feMorphology radius="0.629045" operator="erode" in="SourceAlpha" result="effect2_dropShadow_2204_2274"/>
<feOffset dy="2.51618"/>
<feGaussianBlur stdDeviation="1.88714"/>
<feColorMatrix type="matrix" values="0 0 0 0 0 0 0 0 0 0 0 0 0 0 0 0 0 0 0.1 0"/>
<feBlend mode="normal" in2="effect1_dropShadow_2204_2274" result="effect2_dropShadow_2204_2274"/>
<feBlend mode="normal" in="SourceGraphic" in2="effect2_dropShadow_2204_2274" result="shape"/>
</filter>
<filter id="filter14_dd_2204_2274" x="1015.62" y="465.13" width="324.345" height="273.641" filterUnits="userSpaceOnUse" color-interpolation-filters="sRGB">
<feFlood flood-opacity="0" result="BackgroundImageFix"/>
<feColorMatrix in="SourceAlpha" type="matrix" values="0 0 0 0 0 0 0 0 0 0 0 0 0 0 0 0 0 0 127 0" result="hardAlpha"/>
<feOffset dy="1.06456"/>
<feGaussianBlur stdDeviation="1.06456"/>
<feColorMatrix type="matrix" values="0 0 0 0 0 0 0 0 0 0 0 0 0 0 0 0 0 0 0.06 0"/>
<feBlend mode="normal" in2="BackgroundImageFix" result="effect1_dropShadow_2204_2274"/>
<feColorMatrix in="SourceAlpha" type="matrix" values="0 0 0 0 0 0 0 0 0 0 0 0 0 0 0 0 0 0 127 0" result="hardAlpha"/>
<feOffset dy="1.06456"/>
<feGaussianBlur stdDeviation="1.59684"/>
<feColorMatrix type="matrix" values="0 0 0 0 0 0 0 0 0 0 0 0 0 0 0 0 0 0 0.1 0"/>
<feBlend mode="normal" in2="effect1_dropShadow_2204_2274" result="effect2_dropShadow_2204_2274"/>
<feBlend mode="normal" in="SourceGraphic" in2="effect2_dropShadow_2204_2274" result="shape"/>
</filter>
<filter id="filter15_dd_2204_2274" x="1255.29" y="612.847" width="74.9984" height="114.449" filterUnits="userSpaceOnUse" color-interpolation-filters="sRGB">
<feFlood flood-opacity="0" result="BackgroundImageFix"/>
<feColorMatrix in="SourceAlpha" type="matrix" values="0 0 0 0 0 0 0 0 0 0 0 0 0 0 0 0 0 0 127 0" result="hardAlpha"/>
<feMorphology radius="0.72679" operator="erode" in="SourceAlpha" result="effect1_dropShadow_2204_2274"/>
<feOffset dy="1.45358"/>
<feGaussianBlur stdDeviation="1.45358"/>
<feColorMatrix type="matrix" values="0 0 0 0 0 0 0 0 0 0 0 0 0 0 0 0 0 0 0.06 0"/>
<feBlend mode="normal" in2="BackgroundImageFix" result="effect1_dropShadow_2204_2274"/>
<feColorMatrix in="SourceAlpha" type="matrix" values="0 0 0 0 0 0 0 0 0 0 0 0 0 0 0 0 0 0 127 0" result="hardAlpha"/>
<feMorphology radius="0.72679" operator="erode" in="SourceAlpha" result="effect2_dropShadow_2204_2274"/>
<feOffset dy="2.90716"/>
<feGaussianBlur stdDeviation="2.18037"/>
<feColorMatrix type="matrix" values="0 0 0 0 0 0 0 0 0 0 0 0 0 0 0 0 0 0 0.1 0"/>
<feBlend mode="normal" in2="effect1_dropShadow_2204_2274" result="effect2_dropShadow_2204_2274"/>
<feBlend mode="normal" in="SourceGraphic" in2="effect2_dropShadow_2204_2274" result="shape"/>
</filter>
<filter id="filter16_d_2204_2274" x="1016.69" y="568.743" width="322.216" height="271.512" filterUnits="userSpaceOnUse" color-interpolation-filters="sRGB">
<feFlood flood-opacity="0" result="BackgroundImageFix"/>
<feColorMatrix in="SourceAlpha" type="matrix" values="0 0 0 0 0 0 0 0 0 0 0 0 0 0 0 0 0 0 127 0" result="hardAlpha"/>
<feOffset dy="1.06456"/>
<feGaussianBlur stdDeviation="1.06456"/>
<feColorMatrix type="matrix" values="0 0 0 0 0 0 0 0 0 0 0 0 0 0 0 0 0 0 0.06 0"/>
<feBlend mode="normal" in2="BackgroundImageFix" result="effect1_dropShadow_2204_2274"/>
<feBlend mode="normal" in="SourceGraphic" in2="effect1_dropShadow_2204_2274" result="shape"/>
</filter>
<filter id="filter17_dd_2204_2274" x="1255.29" y="715.394" width="74.9984" height="114.449" filterUnits="userSpaceOnUse" color-interpolation-filters="sRGB">
<feFlood flood-opacity="0" result="BackgroundImageFix"/>
<feColorMatrix in="SourceAlpha" type="matrix" values="0 0 0 0 0 0 0 0 0 0 0 0 0 0 0 0 0 0 127 0" result="hardAlpha"/>
<feMorphology radius="0.72679" operator="erode" in="SourceAlpha" result="effect1_dropShadow_2204_2274"/>
<feOffset dy="1.45358"/>
<feGaussianBlur stdDeviation="1.45358"/>
<feColorMatrix type="matrix" values="0 0 0 0 0 0 0 0 0 0 0 0 0 0 0 0 0 0 0.06 0"/>
<feBlend mode="normal" in2="BackgroundImageFix" result="effect1_dropShadow_2204_2274"/>
<feColorMatrix in="SourceAlpha" type="matrix" values="0 0 0 0 0 0 0 0 0 0 0 0 0 0 0 0 0 0 127 0" result="hardAlpha"/>
<feMorphology radius="0.72679" operator="erode" in="SourceAlpha" result="effect2_dropShadow_2204_2274"/>
<feOffset dy="2.90716"/>
<feGaussianBlur stdDeviation="2.18037"/>
<feColorMatrix type="matrix" values="0 0 0 0 0 0 0 0 0 0 0 0 0 0 0 0 0 0 0.1 0"/>
<feBlend mode="normal" in2="effect1_dropShadow_2204_2274" result="effect2_dropShadow_2204_2274"/>
<feBlend mode="normal" in="SourceGraphic" in2="effect2_dropShadow_2204_2274" result="shape"/>
</filter>
<filter id="filter18_dd_2204_2274" x="1149.99" y="775.261" width="45.6328" height="61.2606" filterUnits="userSpaceOnUse" color-interpolation-filters="sRGB">
<feFlood flood-opacity="0" result="BackgroundImageFix"/>
<feColorMatrix in="SourceAlpha" type="matrix" values="0 0 0 0 0 0 0 0 0 0 0 0 0 0 0 0 0 0 127 0" result="hardAlpha"/>
<feMorphology radius="1.79044" operator="erode" in="SourceAlpha" result="effect1_dropShadow_2204_2274"/>
<feOffset dy="3.58089"/>
<feGaussianBlur stdDeviation="2.68566"/>
<feColorMatrix type="matrix" values="0 0 0 0 0 0 0 0 0 0 0 0 0 0 0 0 0 0 0.05 0"/>
<feBlend mode="normal" in2="BackgroundImageFix" result="effect1_dropShadow_2204_2274"/>
<feColorMatrix in="SourceAlpha" type="matrix" values="0 0 0 0 0 0 0 0 0 0 0 0 0 0 0 0 0 0 127 0" result="hardAlpha"/>
<feMorphology radius="2.68566" operator="erode" in="SourceAlpha" result="effect2_dropShadow_2204_2274"/>
<feOffset dy="8.95222"/>
<feGaussianBlur stdDeviation="6.71416"/>
<feColorMatrix type="matrix" values="0 0 0 0 0 0 0 0 0 0 0 0 0 0 0 0 0 0 0.1 0"/>
<feBlend mode="normal" in2="effect1_dropShadow_2204_2274" result="effect2_dropShadow_2204_2274"/>
<feBlend mode="normal" in="SourceGraphic" in2="effect2_dropShadow_2204_2274" result="shape"/>
</filter>
<filter id="filter19_dd_2204_2274" x="1147.61" y="775.494" width="43.6709" height="59.8935" filterUnits="userSpaceOnUse" color-interpolation-filters="sRGB">
<feFlood flood-opacity="0" result="BackgroundImageFix"/>
<feColorMatrix in="SourceAlpha" type="matrix" values="0 0 0 0 0 0 0 0 0 0 0 0 0 0 0 0 0 0 127 0" result="hardAlpha"/>
<feMorphology radius="1.79044" operator="erode" in="SourceAlpha" result="effect1_dropShadow_2204_2274"/>
<feOffset dy="3.58089"/>
<feGaussianBlur stdDeviation="2.68566"/>
<feColorMatrix type="matrix" values="0 0 0 0 0 0 0 0 0 0 0 0 0 0 0 0 0 0 0.05 0"/>
<feBlend mode="normal" in2="BackgroundImageFix" result="effect1_dropShadow_2204_2274"/>
<feColorMatrix in="SourceAlpha" type="matrix" values="0 0 0 0 0 0 0 0 0 0 0 0 0 0 0 0 0 0 127 0" result="hardAlpha"/>
<feMorphology radius="2.68566" operator="erode" in="SourceAlpha" result="effect2_dropShadow_2204_2274"/>
<feOffset dy="8.95222"/>
<feGaussianBlur stdDeviation="6.71416"/>
<feColorMatrix type="matrix" values="0 0 0 0 0 0 0 0 0 0 0 0 0 0 0 0 0 0 0.1 0"/>
<feBlend mode="normal" in2="effect1_dropShadow_2204_2274" result="effect2_dropShadow_2204_2274"/>
<feBlend mode="normal" in="SourceGraphic" in2="effect2_dropShadow_2204_2274" result="shape"/>
</filter>
<filter id="filter20_dd_2204_2274" x="1097.39" y="683.379" width="52.3027" height="60.852" filterUnits="userSpaceOnUse" color-interpolation-filters="sRGB">
<feFlood flood-opacity="0" result="BackgroundImageFix"/>
<feColorMatrix in="SourceAlpha" type="matrix" values="0 0 0 0 0 0 0 0 0 0 0 0 0 0 0 0 0 0 127 0" result="hardAlpha"/>
<feMorphology radius="1.79044" operator="erode" in="SourceAlpha" result="effect1_dropShadow_2204_2274"/>
<feOffset dy="3.58089"/>
<feGaussianBlur stdDeviation="2.68566"/>
<feColorMatrix type="matrix" values="0 0 0 0 0 0 0 0 0 0 0 0 0 0 0 0 0 0 0.05 0"/>
<feBlend mode="normal" in2="BackgroundImageFix" result="effect1_dropShadow_2204_2274"/>
<feColorMatrix in="SourceAlpha" type="matrix" values="0 0 0 0 0 0 0 0 0 0 0 0 0 0 0 0 0 0 127 0" result="hardAlpha"/>
<feMorphology radius="2.68566" operator="erode" in="SourceAlpha" result="effect2_dropShadow_2204_2274"/>
<feOffset dy="8.95222"/>
<feGaussianBlur stdDeviation="6.71416"/>
<feColorMatrix type="matrix" values="0 0 0 0 0 0 0 0 0 0 0 0 0 0 0 0 0 0 0.1 0"/>
<feBlend mode="normal" in2="effect1_dropShadow_2204_2274" result="effect2_dropShadow_2204_2274"/>
<feBlend mode="normal" in="SourceGraphic" in2="effect2_dropShadow_2204_2274" result="shape"/>
</filter>
<filter id="filter21_dd_2204_2274" x="1093.78" y="683.718" width="50.2998" height="59.5533" filterUnits="userSpaceOnUse" color-interpolation-filters="sRGB">
<feFlood flood-opacity="0" result="BackgroundImageFix"/>
<feColorMatrix in="SourceAlpha" type="matrix" values="0 0 0 0 0 0 0 0 0 0 0 0 0 0 0 0 0 0 127 0" result="hardAlpha"/>
<feMorphology radius="1.79044" operator="erode" in="SourceAlpha" result="effect1_dropShadow_2204_2274"/>
<feOffset dy="3.58089"/>
<feGaussianBlur stdDeviation="2.68566"/>
<feColorMatrix type="matrix" values="0 0 0 0 0 0 0 0 0 0 0 0 0 0 0 0 0 0 0.05 0"/>
<feBlend mode="normal" in2="BackgroundImageFix" result="effect1_dropShadow_2204_2274"/>
<feColorMatrix in="SourceAlpha" type="matrix" values="0 0 0 0 0 0 0 0 0 0 0 0 0 0 0 0 0 0 127 0" result="hardAlpha"/>
<feMorphology radius="2.68566" operator="erode" in="SourceAlpha" result="effect2_dropShadow_2204_2274"/>
<feOffset dy="8.95222"/>
<feGaussianBlur stdDeviation="6.71416"/>
<feColorMatrix type="matrix" values="0 0 0 0 0 0 0 0 0 0 0 0 0 0 0 0 0 0 0.1 0"/>
<feBlend mode="normal" in2="effect1_dropShadow_2204_2274" result="effect2_dropShadow_2204_2274"/>
<feBlend mode="normal" in="SourceGraphic" in2="effect2_dropShadow_2204_2274" result="shape"/>
</filter>
<filter id="filter22_dd_2204_2274" x="906.417" y="491.021" width="45.4853" height="61.2689" filterUnits="userSpaceOnUse" color-interpolation-filters="sRGB">
<feFlood flood-opacity="0" result="BackgroundImageFix"/>
<feColorMatrix in="SourceAlpha" type="matrix" values="0 0 0 0 0 0 0 0 0 0 0 0 0 0 0 0 0 0 127 0" result="hardAlpha"/>
<feMorphology radius="1.79044" operator="erode" in="SourceAlpha" result="effect1_dropShadow_2204_2274"/>
<feOffset dy="3.58089"/>
<feGaussianBlur stdDeviation="2.68566"/>
<feColorMatrix type="matrix" values="0 0 0 0 0 0 0 0 0 0 0 0 0 0 0 0 0 0 0.05 0"/>
<feBlend mode="normal" in2="BackgroundImageFix" result="effect1_dropShadow_2204_2274"/>
<feColorMatrix in="SourceAlpha" type="matrix" values="0 0 0 0 0 0 0 0 0 0 0 0 0 0 0 0 0 0 127 0" result="hardAlpha"/>
<feMorphology radius="2.68566" operator="erode" in="SourceAlpha" result="effect2_dropShadow_2204_2274"/>
<feOffset dy="8.95222"/>
<feGaussianBlur stdDeviation="6.71416"/>
<feColorMatrix type="matrix" values="0 0 0 0 0 0 0 0 0 0 0 0 0 0 0 0 0 0 0.1 0"/>
<feBlend mode="normal" in2="effect1_dropShadow_2204_2274" result="effect2_dropShadow_2204_2274"/>
<feBlend mode="normal" in="SourceGraphic" in2="effect2_dropShadow_2204_2274" result="shape"/>
</filter>
<filter id="filter23_dd_2204_2274" x="903.603" y="491.364" width="43.9277" height="59.9561" filterUnits="userSpaceOnUse" color-interpolation-filters="sRGB">
<feFlood flood-opacity="0" result="BackgroundImageFix"/>
<feColorMatrix in="SourceAlpha" type="matrix" values="0 0 0 0 0 0 0 0 0 0 0 0 0 0 0 0 0 0 127 0" result="hardAlpha"/>
<feMorphology radius="1.79044" operator="erode" in="SourceAlpha" result="effect1_dropShadow_2204_2274"/>
<feOffset dy="3.58089"/>
<feGaussianBlur stdDeviation="2.68566"/>
<feColorMatrix type="matrix" values="0 0 0 0 0 0 0 0 0 0 0 0 0 0 0 0 0 0 0.05 0"/>
<feBlend mode="normal" in2="BackgroundImageFix" result="effect1_dropShadow_2204_2274"/>
<feColorMatrix in="SourceAlpha" type="matrix" values="0 0 0 0 0 0 0 0 0 0 0 0 0 0 0 0 0 0 127 0" result="hardAlpha"/>
<feMorphology radius="2.68566" operator="erode" in="SourceAlpha" result="effect2_dropShadow_2204_2274"/>
<feOffset dy="8.95222"/>
<feGaussianBlur stdDeviation="6.71416"/>
<feColorMatrix type="matrix" values="0 0 0 0 0 0 0 0 0 0 0 0 0 0 0 0 0 0 0.1 0"/>
<feBlend mode="normal" in2="effect1_dropShadow_2204_2274" result="effect2_dropShadow_2204_2274"/>
<feBlend mode="normal" in="SourceGraphic" in2="effect2_dropShadow_2204_2274" result="shape"/>
</filter>
<filter id="filter24_dd_2204_2274" x="951.924" y="425.103" width="56.7334" height="66.3731" filterUnits="userSpaceOnUse" color-interpolation-filters="sRGB">
<feFlood flood-opacity="0" result="BackgroundImageFix"/>
<feColorMatrix in="SourceAlpha" type="matrix" values="0 0 0 0 0 0 0 0 0 0 0 0 0 0 0 0 0 0 127 0" result="hardAlpha"/>
<feMorphology radius="1.79044" operator="erode" in="SourceAlpha" result="effect1_dropShadow_2204_2274"/>
<feOffset dy="3.58089"/>
<feGaussianBlur stdDeviation="2.68566"/>
<feColorMatrix type="matrix" values="0 0 0 0 0 0 0 0 0 0 0 0 0 0 0 0 0 0 0.05 0"/>
<feBlend mode="normal" in2="BackgroundImageFix" result="effect1_dropShadow_2204_2274"/>
<feColorMatrix in="SourceAlpha" type="matrix" values="0 0 0 0 0 0 0 0 0 0 0 0 0 0 0 0 0 0 127 0" result="hardAlpha"/>
<feMorphology radius="2.68566" operator="erode" in="SourceAlpha" result="effect2_dropShadow_2204_2274"/>
<feOffset dy="8.95222"/>
<feGaussianBlur stdDeviation="6.71416"/>
<feColorMatrix type="matrix" values="0 0 0 0 0 0 0 0 0 0 0 0 0 0 0 0 0 0 0.1 0"/>
<feBlend mode="normal" in2="effect1_dropShadow_2204_2274" result="effect2_dropShadow_2204_2274"/>
<feBlend mode="normal" in="SourceGraphic" in2="effect2_dropShadow_2204_2274" result="shape"/>
</filter>
<filter id="filter25_dd_2204_2274" x="949.1" y="426.768" width="54.8115" height="64.5193" filterUnits="userSpaceOnUse" color-interpolation-filters="sRGB">
<feFlood flood-opacity="0" result="BackgroundImageFix"/>
<feColorMatrix in="SourceAlpha" type="matrix" values="0 0 0 0 0 0 0 0 0 0 0 0 0 0 0 0 0 0 127 0" result="hardAlpha"/>
<feMorphology radius="1.79044" operator="erode" in="SourceAlpha" result="effect1_dropShadow_2204_2274"/>
<feOffset dy="3.58089"/>
<feGaussianBlur stdDeviation="2.68566"/>
<feColorMatrix type="matrix" values="0 0 0 0 0 0 0 0 0 0 0 0 0 0 0 0 0 0 0.05 0"/>
<feBlend mode="normal" in2="BackgroundImageFix" result="effect1_dropShadow_2204_2274"/>
<feColorMatrix in="SourceAlpha" type="matrix" values="0 0 0 0 0 0 0 0 0 0 0 0 0 0 0 0 0 0 127 0" result="hardAlpha"/>
<feMorphology radius="2.68566" operator="erode" in="SourceAlpha" result="effect2_dropShadow_2204_2274"/>
<feOffset dy="8.95222"/>
<feGaussianBlur stdDeviation="6.71416"/>
<feColorMatrix type="matrix" values="0 0 0 0 0 0 0 0 0 0 0 0 0 0 0 0 0 0 0.1 0"/>
<feBlend mode="normal" in2="effect1_dropShadow_2204_2274" result="effect2_dropShadow_2204_2274"/>
<feBlend mode="normal" in="SourceGraphic" in2="effect2_dropShadow_2204_2274" result="shape"/>
</filter>
<radialGradient id="paint0_radial_2204_2274" cx="0" cy="0" r="1" gradientUnits="userSpaceOnUse" gradientTransform="translate(1372.35 697.548) rotate(135.963) scale(678.094 645.981)">
<stop stop-color="#DBDBDB"/>
<stop offset="1" stop-color="#B5B5B5" stop-opacity="0"/>
</radialGradient>
<linearGradient id="paint1_linear_2204_2274" x1="1772.08" y1="432.143" x2="1621.17" y2="635.989" gradientUnits="userSpaceOnUse">
<stop stop-color="#F4F4F4"/>
<stop offset="1" stop-color="#F4F4F4" stop-opacity="0"/>
</linearGradient>
<linearGradient id="paint2_linear_2204_2274" x1="1436.98" y1="751.958" x2="1270.11" y2="1034.67" gradientUnits="userSpaceOnUse">
<stop stop-color="#4B5563"/>
<stop offset="1" stop-color="#4B5563" stop-opacity="0"/>
</linearGradient>
<linearGradient id="paint3_linear_2204_2274" x1="1435.9" y1="387.264" x2="1272.86" y2="669.657" gradientUnits="userSpaceOnUse">
<stop stop-color="white"/>
<stop offset="0.0001" stop-color="#F9FAFB"/>
<stop offset="1" stop-color="#F3F4F6"/>
</linearGradient>
<linearGradient id="paint4_linear_2204_2274" x1="1163.71" y1="765.105" x2="1065.07" y2="997.924" gradientUnits="userSpaceOnUse">
<stop offset="0.188658" stop-color="#4B5563"/>
<stop offset="0.676201" stop-color="#4B5563" stop-opacity="0"/>
</linearGradient>
<linearGradient id="paint5_linear_2204_2274" x1="1060.49" y1="15.5325" x2="2046.79" y2="779.405" gradientUnits="userSpaceOnUse">
<stop stop-color="#DED9FC"/>
<stop offset="0.136573" stop-color="#725CF6"/>
<stop offset="0.216545" stop-color="#5854FD"/>
<stop offset="0.303013" stop-color="#FFC368" stop-opacity="0.75"/>
<stop offset="0.4375" stop-color="#EF9AF3" stop-opacity="0.79"/>
<stop offset="0.530697" stop-color="#7C79FE"/>
<stop offset="0.694752" stop-color="#5854FD"/>
<stop offset="0.923659" stop-color="#9C4FFF"/>
<stop offset="1" stop-color="#E1D5FF"/>
</linearGradient>
<linearGradient id="paint6_linear_2204_2274" x1="1342.89" y1="1118.61" x2="1662.89" y2="290.107" gradientUnits="userSpaceOnUse">
<stop offset="0.0027083" stop-color="#F9FAFB"/>
<stop offset="0.120411" stop-color="#F9FAFB" stop-opacity="0"/>
</linearGradient>
<clipPath id="clip0_2204_2274">
<rect width="1920" height="1300" fill="white" transform="translate(0.787109 0.477051)"/>
</clipPath>
<clipPath id="clip1_2204_2274">
<rect width="766.721" height="766.721" fill="white" transform="matrix(0.866025 0.5 -2.20305e-08 1 714.007 179)"/>
</clipPath>
</defs>
</svg>
