<svg viewBox="0 0 1921 1301" fill="none" xmlns="http://www.w3.org/2000/svg">
<g clip-path="url(#clip0_2204_2274)">
<rect width="1920" height="1300" transform="translate(0.787109 0.477051)" fill="#F9FAFB"/>
<mask id="mask0_2204_2274" style="mask-type:alpha" maskUnits="userSpaceOnUse" x="1478" y="-400" width="473" height="867">
<line y1="-0.426784" x2="574" y2="-0.426784" transform="matrix(-4.84939e-08 1 -0.865554 -0.532714 1478.98 -399.58)" stroke="white" stroke-width="0.853568"/>
<line y1="-0.426784" x2="574" y2="-0.426784" transform="matrix(-4.81944e-08 1 -0.865554 -0.532714 1546.24 -357.974)" stroke="white" stroke-width="0.853568"/>
<line y1="-0.426784" x2="574" y2="-0.426784" transform="matrix(-4.81944e-08 1 -0.865554 -0.532714 1613.49 -316.367)" stroke="white" stroke-width="0.853568"/>
<line y1="-0.426784" x2="574" y2="-0.426784" transform="matrix(-4.81944e-08 1 -0.865554 -0.532714 1680.75 -274.761)" stroke="white" stroke-width="0.853568"/>
<line y1="-0.426784" x2="574" y2="-0.426784" transform="matrix(-4.81944e-08 1 -0.865554 -0.532714 1748 -233.155)" stroke="white" stroke-width="0.853568"/>
<line y1="-0.426784" x2="574" y2="-0.426784" transform="matrix(-4.81944e-08 1 -0.865554 -0.532714 1815.26 -191.549)" stroke="white" stroke-width="0.853568"/>
<line y1="-0.426784" x2="574" y2="-0.426784" transform="matrix(-4.81944e-08 1 -0.865554 -0.532714 1882.52 -149.942)" stroke="white" stroke-width="0.853568"/>
<line y1="-0.426784" x2="523" y2="-0.426784" transform="matrix(-0.866025 -0.5 1.52389e-07 -1 1945 34.8529)" stroke="white" stroke-width="0.853568"/>
<line y1="-0.426784" x2="523" y2="-0.426784" transform="matrix(-0.866025 -0.5 1.52389e-07 -1 1945 112.513)" stroke="white" stroke-width="0.853568"/>
<line y1="-0.426784" x2="523" y2="-0.426784" transform="matrix(-0.866025 -0.5 1.52389e-07 -1 1945 190.172)" stroke="white" stroke-width="0.853568"/>
<line y1="-0.426784" x2="523" y2="-0.426784" transform="matrix(-0.866025 -0.5 1.52389e-07 -1 1945 267.832)" stroke="white" stroke-width="0.853568"/>
<line y1="-0.426784" x2="523" y2="-0.426784" transform="matrix(-0.866025 -0.5 1.52389e-07 -1 1945 345.493)" stroke="white" stroke-width="0.853568"/>
<line y1="-0.426784" x2="523" y2="-0.426784" transform="matrix(-0.866025 -0.5 1.52389e-07 -1 1945 423.048)" stroke="white" stroke-width="0.853568"/>
</mask>
<g mask="url(#mask0_2204_2274)">
<g filter="url(#filter0_f_2204_2274)">
<path d="M1950.28 -510.881L2639.01 -502.572L2585 639.912L1509.45 44.8975L1950.28 -510.881Z" fill="#D9D9D9"/>
</g>
</g>
<mask id="mask1_2204_2274" style="mask-type:alpha" maskUnits="userSpaceOnUse" x="252" y="60" width="2311" height="1335">
<line y1="-0.426784" x2="1166.82" y2="-0.426784" transform="matrix(-0.866025 0.5 -0.866025 -0.5 1263.57 60.3151)" stroke="white" stroke-width="0.853568"/>
<line y1="-0.426784" x2="1166.82" y2="-0.426784" transform="matrix(-0.866025 0.5 -0.866025 -0.5 1335.75 101.987)" stroke="white" stroke-width="0.853568"/>
<line y1="-0.426784" x2="1166.82" y2="-0.426784" transform="matrix(-0.866025 0.5 -0.866025 -0.5 1407.93 143.66)" stroke="white" stroke-width="0.853568"/>
<line y1="-0.426784" x2="1166.82" y2="-0.426784" transform="matrix(-0.866025 0.5 -0.866025 -0.5 1480.11 185.332)" stroke="white" stroke-width="0.853568"/>
<line y1="-0.426784" x2="1166.82" y2="-0.426784" transform="matrix(-0.866025 0.5 -0.866025 -0.5 1552.29 227.004)" stroke="white" stroke-width="0.853568"/>
<line y1="-0.426784" x2="1166.82" y2="-0.426784" transform="matrix(-0.866025 0.5 -0.866025 -0.5 1624.46 268.675)" stroke="white" stroke-width="0.853568"/>
<line y1="-0.426784" x2="1166.82" y2="-0.426784" transform="matrix(-0.866025 0.5 -0.866025 -0.5 1696.64 310.348)" stroke="white" stroke-width="0.853568"/>
<line y1="-0.426784" x2="1166.82" y2="-0.426784" transform="matrix(-0.866025 0.5 -0.866025 -0.5 1768.82 352.02)" stroke="white" stroke-width="0.853568"/>
<line y1="-0.426784" x2="1166.82" y2="-0.426784" transform="matrix(-0.866025 0.5 -0.866025 -0.5 1841 393.692)" stroke="white" stroke-width="0.853568"/>
<line y1="-0.426784" x2="1166.82" y2="-0.426784" transform="matrix(-0.866025 0.5 -0.866025 -0.5 1913.18 435.364)" stroke="white" stroke-width="0.853568"/>
<line y1="-0.426784" x2="1166.82" y2="-0.426784" transform="matrix(-0.866025 0.5 -0.866025 -0.5 1985.36 477.037)" stroke="white" stroke-width="0.853568"/>
<line y1="-0.426784" x2="1166.82" y2="-0.426784" transform="matrix(-0.866025 0.5 -0.866025 -0.5 2057.53 518.709)" stroke="white" stroke-width="0.853568"/>
<line y1="-0.426784" x2="1166.82" y2="-0.426784" transform="matrix(-0.866025 0.5 -0.866025 -0.5 2129.71 560.381)" stroke="white" stroke-width="0.853568"/>
<line y1="-0.426784" x2="1166.82" y2="-0.426784" transform="matrix(-0.866025 0.5 -0.866025 -0.5 2201.89 602.053)" stroke="white" stroke-width="0.853568"/>
<line y1="-0.426784" x2="1166.82" y2="-0.426784" transform="matrix(-0.866025 0.5 -0.866025 -0.5 2274.07 643.725)" stroke="white" stroke-width="0.853568"/>
<line y1="-0.426784" x2="1166.82" y2="-0.426784" transform="matrix(-0.866025 0.5 -0.866025 -0.5 2346.25 685.397)" stroke="white" stroke-width="0.853568"/>
<line y1="-0.426784" x2="1166.82" y2="-0.426784" transform="matrix(-0.866025 0.5 -0.866025 -0.5 2418.42 727.069)" stroke="white" stroke-width="0.853568"/>
<line y1="-0.426784" x2="1166.82" y2="-0.426784" transform="matrix(-0.866025 0.5 -0.866025 -0.5 2490.6 768.741)" stroke="white" stroke-width="0.853568"/>
<line y1="-0.426784" x2="1058.73" y2="-0.426784" transform="matrix(-0.866025 0.5 -0.866025 -0.5 2516.54 837.109)" stroke="white" stroke-width="0.853568"/>
<line y1="-0.426784" x2="1500.2" y2="-0.426784" transform="matrix(-0.866025 -0.5 0.866026 -0.5 2562.78 810.413)" stroke="white" stroke-width="0.853568"/>
<line y1="-0.426784" x2="1500.2" y2="-0.426784" transform="matrix(-0.866025 -0.5 0.866026 -0.5 2490.6 852.085)" stroke="white" stroke-width="0.853568"/>
<line y1="-0.426784" x2="1500.2" y2="-0.426784" transform="matrix(-0.866025 -0.5 0.866026 -0.5 2418.42 893.757)" stroke="white" stroke-width="0.853568"/>
<line y1="-0.426784" x2="1500.2" y2="-0.426784" transform="matrix(-0.866025 -0.5 0.866026 -0.5 2346.24 935.429)" stroke="white" stroke-width="0.853568"/>
<line y1="-0.426784" x2="1500.2" y2="-0.426784" transform="matrix(-0.866025 -0.5 0.866026 -0.5 2274.07 977.102)" stroke="white" stroke-width="0.853568"/>
<line y1="-0.426784" x2="1500.2" y2="-0.426784" transform="matrix(-0.866025 -0.5 0.866026 -0.5 2201.89 1018.77)" stroke="white" stroke-width="0.853568"/>
<line y1="-0.426784" x2="1500.2" y2="-0.426784" transform="matrix(-0.866025 -0.5 0.866026 -0.5 2129.71 1060.45)" stroke="white" stroke-width="0.853568"/>
<line y1="-0.426784" x2="1500.2" y2="-0.426784" transform="matrix(-0.866025 -0.5 0.866026 -0.5 2057.53 1102.12)" stroke="white" stroke-width="0.853568"/>
<line y1="-0.426784" x2="1500.2" y2="-0.426784" transform="matrix(-0.866025 -0.5 0.866026 -0.5 1985.36 1143.79)" stroke="white" stroke-width="0.853568"/>
<line y1="-0.426784" x2="1500.2" y2="-0.426784" transform="matrix(-0.866025 -0.5 0.866026 -0.5 1913.18 1185.46)" stroke="white" stroke-width="0.853568"/>
<line y1="-0.426784" x2="1500.2" y2="-0.426784" transform="matrix(-0.866025 -0.5 0.866026 -0.5 1841 1227.14)" stroke="white" stroke-width="0.853568"/>
<line y1="-0.426784" x2="1500.2" y2="-0.426784" transform="matrix(-0.866025 -0.5 0.866026 -0.5 1768.82 1268.81)" stroke="white" stroke-width="0.853568"/>
<line y1="-0.426784" x2="1500.2" y2="-0.426784" transform="matrix(-0.866025 -0.5 0.866026 -0.5 1696.64 1310.48)" stroke="white" stroke-width="0.853568"/>
<line y1="-0.426784" x2="1500.2" y2="-0.426784" transform="matrix(-0.866025 -0.5 0.866026 -0.5 1624.46 1352.15)" stroke="white" stroke-width="0.853568"/>
<line y1="-0.426784" x2="1500.2" y2="-0.426784" transform="matrix(-0.866025 -0.5 0.866026 -0.5 1552.28 1393.82)" stroke="white" stroke-width="0.853568"/>
</mask>
<g mask="url(#mask1_2204_2274)">
<path d="M809.583 414.002L809.593 413.997L809.602 413.991C884.828 364.961 955.726 322.864 1027.14 292.122C1098.55 261.381 1170.45 242.006 1247.69 238.4C1402.15 231.188 1578.19 287.043 1814.5 441.641L1814.51 441.647L1814.52 441.653C2105.28 609.523 2126.66 869.287 1862.41 1021.85C1598.16 1174.42 1148.23 1162.07 857.475 994.203C566.715 826.333 545.33 566.569 809.583 414.002Z" fill="url(#paint0_radial_2204_2274)"/>
<path d="M809.583 414.002L809.593 413.997L809.602 413.991C884.828 364.961 955.726 322.864 1027.14 292.122C1098.55 261.381 1170.45 242.006 1247.69 238.4C1402.15 231.188 1578.19 287.043 1814.5 441.641L1814.51 441.647L1814.52 441.653C2105.28 609.523 2126.66 869.287 1862.41 1021.85C1598.16 1174.42 1148.23 1162.07 857.475 994.203C566.715 826.333 545.33 566.569 809.583 414.002Z" fill="url(#paint1_linear_2204_2274)"/>
<path d="M809.583 414.002L809.593 413.997L809.602 413.991C884.828 364.961 955.726 322.864 1027.14 292.122C1098.55 261.381 1170.45 242.006 1247.69 238.4C1402.15 231.188 1578.19 287.043 1814.5 441.641L1814.51 441.647L1814.52 441.653C2105.28 609.523 2126.66 869.287 1862.41 1021.85C1598.16 1174.42 1148.23 1162.07 857.475 994.203C566.715 826.333 545.33 566.569 809.583 414.002Z" stroke="white" stroke-width="0.739869"/>
</g>
<g opacity="0.07" filter="url(#filter1_f_2204_2274)">
<path d="M1216.75 623.985L1694.7 886.441L1487.74 1011.91C1480.88 1016.08 1469.6 1016.32 1462.56 1012.45L1010.11 763.998C1003.07 760.132 1002.93 753.622 1009.8 749.458L1216.75 623.985Z" fill="url(#paint2_linear_2204_2274)"/>
</g>
<g opacity="0.11" filter="url(#filter2_f_2204_2274)">
<path d="M950.61 620.492L1074.39 685.157L904.659 792.939C897.879 797.245 886.611 797.72 879.492 794.001L781.494 742.805C774.375 739.086 774.1 732.581 780.88 728.275L950.61 620.492Z" fill="url(#paint3_linear_2204_2274)"/>
</g>
<g filter="url(#filter3_dd_2204_2274)">
<path fill-rule="evenodd" clip-rule="evenodd" d="M1235.45 202.93C1232.8 201.4 1230.25 201.089 1228.31 202.059L1210.13 211.146L1664.75 483.221L1234.59 234.867L1234.59 599.098C1234.59 604.507 1238.26 611.086 1242.94 614.069L1674.33 889.277L1696.28 878.321C1698.07 877.429 1699.09 875.321 1699.09 872.501L1699.09 503.768L1699.09 503.043L1699.09 473.376C1699.09 471.645 1697.87 469.54 1696.37 468.675L1235.45 202.93Z" fill="#E5E7EB"/>
</g>
<g filter="url(#filter4_dd_2204_2274)">
<path d="M1211.14 246.975L1675.64 515.151L1675.64 878.863C1675.64 884.479 1671.7 886.755 1666.83 883.947L1219.95 625.939C1215.09 623.131 1211.14 616.302 1211.14 610.687L1211.14 246.975Z" fill="url(#paint4_linear_2204_2274)"/>
<path d="M1211.14 245.038L1209.47 244.069L1209.47 246.006L1209.47 609.718C1209.47 616.404 1214.16 624.533 1219.95 627.876L1666.83 885.884C1672.62 889.227 1677.32 886.517 1677.32 879.832L1677.32 516.12L1677.32 514.183L1675.64 513.214L1211.14 245.038Z" stroke="white" stroke-width="3.87447"/>
</g>
<g filter="url(#filter5_d_2204_2274)">
<mask id="path-55-outside-1_2204_2274" maskUnits="userSpaceOnUse" x="1207.68" y="208.173" width="471.984" height="310.5" fill="black">
<rect fill="white" x="1207.68" y="208.173" width="471.984" height="310.5"/>
<path d="M1211.14 217.306C1211.14 215.576 1212.36 214.875 1213.86 215.74L1672.92 480.783C1674.42 481.648 1675.64 483.752 1675.64 485.483L1675.64 515.876L1211.14 247.7L1211.14 217.306Z"/>
</mask>
<path d="M1211.14 217.306C1211.14 215.576 1212.36 214.875 1213.86 215.74L1672.92 480.783C1674.42 481.648 1675.64 483.752 1675.64 485.483L1675.64 515.876L1211.14 247.7L1211.14 217.306Z" fill="#F9FAFB"/>
<path d="M1207.79 215.369C1207.79 211.499 1210.51 209.93 1213.86 211.865L1672.92 476.908C1676.28 478.843 1678.99 483.55 1678.99 487.42L1672.28 484.287L1214.5 219.985L1207.79 215.369ZM1675.64 515.876L1211.14 247.7L1675.64 515.876ZM1207.79 245.763L1207.79 215.369C1207.79 211.499 1210.51 209.93 1213.86 211.865L1214.5 219.985L1214.5 249.637L1207.79 245.763ZM1672.92 476.908C1676.28 478.843 1678.99 483.55 1678.99 487.42L1678.99 517.814L1672.28 513.939L1672.28 484.287L1672.92 476.908Z" fill="white" mask="url(#path-55-outside-1_2204_2274)"/>
</g>
<circle cx="3.75997" cy="3.75997" r="3.75997" transform="matrix(0.866025 0.5 -2.20305e-08 1 1222.29 232.083)" fill="#EF4444"/>
<circle cx="3.75997" cy="3.75997" r="3.75997" transform="matrix(0.866025 0.5 -2.20305e-08 1 1233.14 238.349)" fill="#F59E0B"/>
<circle cx="3.75997" cy="3.75997" r="3.75997" transform="matrix(0.866025 0.5 -2.20305e-08 1 1244 244.616)" fill="#10B981"/>
<rect width="271.989" height="15.3955" rx="3.0791" transform="matrix(0.866025 0.5 -2.20305e-08 1 1334.74 294.583)" fill="#E5E7EB"/>
<g filter="url(#filter6_i_2204_2274)">
<rect width="171.768" height="453.313" rx="9.23364" transform="matrix(-5.98857e-08 1 -0.866025 -0.5 1642.87 547.377)" fill="#E5E7EB"/>
</g>
<g filter="url(#filter7_i_2204_2274)">
<rect width="117.526" height="195.015" rx="9.23364" transform="matrix(-5.98857e-08 1 -0.866025 -0.5 1633.92 730.769)" fill="#E5E7EB"/>
</g>
<path fill-rule="evenodd" clip-rule="evenodd" d="M1264.42 307.134C1264.46 307.033 1264.48 306.912 1264.48 306.778L1264.48 302.948C1264.48 302.311 1264.03 301.536 1263.48 301.217L1260.16 299.302C1259.9 299.149 1259.64 299.124 1259.46 299.232L1250.58 304.356C1250.39 304.464 1250.29 304.697 1250.29 305.003L1250.29 308.833C1250.29 309.471 1250.74 310.246 1251.29 310.565L1254.6 312.48C1254.87 312.633 1255.12 312.658 1255.31 312.55L1259.67 310.032C1259.63 310.133 1259.61 310.253 1259.61 310.388L1259.61 314.218C1259.61 314.855 1260.06 315.63 1260.61 315.949L1263.93 317.864C1264.2 318.017 1264.45 318.042 1264.64 317.934L1273.51 312.81C1273.7 312.702 1273.81 312.469 1273.81 312.163L1273.81 308.333C1273.81 307.695 1273.36 306.92 1272.81 306.601L1269.49 304.686C1269.22 304.533 1268.97 304.508 1268.78 304.616L1264.42 307.134Z" fill="#6B7280"/>
<path d="M1273.79 322.38C1273.79 323.018 1273.34 323.276 1272.79 322.957L1269.52 321.068C1268.62 320.554 1268.18 319.053 1268.81 318.689L1272.08 316.8C1272.71 316.436 1273.79 317.573 1273.79 318.601L1273.79 322.38Z" fill="#6B7280"/>
<rect width="184.683" height="12.9149" rx="5.71714" transform="matrix(0.866025 0.5 -2.20305e-08 1 1261.47 553.189)" fill="#E5E7EB"/>
<rect width="148.609" height="12.9225" rx="5.71714" transform="matrix(0.866025 0.5 -2.20305e-08 1 1261.47 579.05)" fill="#E5E7EB"/>
<rect width="165.311" height="12.9149" rx="5.71714" transform="matrix(0.866025 0.5 -2.20305e-08 1 1261.47 604.849)" fill="#E5E7EB"/>
<rect width="42.6192" height="12.9149" rx="5.71714" transform="matrix(0.866025 0.5 -2.20305e-08 1 1298.38 325.241)" fill="#6B7280"/>
<rect width="42.6192" height="12.9149" rx="5.71714" transform="matrix(0.866025 0.5 -2.20305e-08 1 1343.12 351.071)" fill="#E5E7EB"/>
<rect width="42.6192" height="12.9149" rx="5.71714" transform="matrix(0.866025 0.5 -2.20305e-08 1 1387.86 376.901)" fill="#E5E7EB"/>
<rect width="42.6192" height="12.9149" rx="5.71714" transform="matrix(0.866025 0.5 -2.20305e-08 1 1432.6 402.731)" fill="#E5E7EB"/>
<rect width="59.4694" height="21.2963" rx="10.6481" transform="matrix(0.866025 0.5 -2.20305e-08 1 1591.42 486.678)" fill="#D1B6FF"/>
<rect width="31.5931" height="9.12697" rx="4.56349" transform="matrix(0.866025 0.5 -2.20305e-08 1 1603.49 499.731)" fill="#DED6FF"/>
<rect width="85.6116" height="12.9225" rx="5.71714" transform="matrix(0.866025 0.5 -2.20305e-08 1 1261.47 527.359)" fill="#6B7280"/>
<g filter="url(#filter8_d_2204_2274)">
<path d="M994.605 273.272C998.059 271.545 1002.6 272.091 1007.33 274.799L1108.63 332.883C1119.01 338.832 1127.44 353.401 1127.44 365.382L1127.44 622.895C1127.44 629.009 1125.07 633.434 1120.97 634.954L1103.38 641.495L1010.4 567.523C1003.53 562.049 998.347 552.464 997.726 544.054L978.337 281.407L994.605 273.272Z" fill="#E5E7EB"/>
</g>
<g filter="url(#filter9_d_2204_2274)">
<path d="M977.135 302.293L1105.8 376.575L1105.8 625.022C1105.8 635 1098.79 639.044 1090.15 634.056L992.78 577.839C984.14 572.851 977.135 560.718 977.135 550.74L977.135 302.293Z" fill="url(#paint5_linear_2204_2274)"/>
<path d="M977.135 299.583L974.788 298.228L974.788 300.938L974.788 549.385C974.788 560.86 982.843 574.812 992.78 580.549L1090.15 636.765C1100.09 642.503 1108.14 637.852 1108.14 626.377L1108.14 377.93L1108.14 375.22L1105.8 373.865L977.135 299.583Z" stroke="white" stroke-width="5.41984"/>
</g>
<rect width="127.341" height="20.1277" rx="10.0638" transform="matrix(0.866025 0.5 -2.20305e-08 1 986.691 509.636)" fill="#D1B6FF"/>
<rect width="57.7279" height="9.82742" rx="4.91371" transform="matrix(0.866025 0.5 -2.20305e-08 1 1016.84 532.511)" fill="#DED6FF"/>
<g filter="url(#filter10_i_2204_2274)">
<rect width="71.311" height="135.83" rx="12.9166" transform="matrix(-5.98857e-08 1 -0.866025 -0.5 1100.65 405.81)" fill="#E5E7EB"/>
</g>
<rect width="95.0813" height="8.4894" rx="4.2447" transform="matrix(0.866025 0.5 -2.20305e-08 1 986.691 447.832)" fill="#E5E7EB"/>
<rect width="63.6705" height="8.4894" rx="4.2447" transform="matrix(0.866025 0.5 -2.20305e-08 1 986.691 464.811)" fill="#E5E7EB"/>
<rect width="56.2754" height="8.4944" rx="4.2472" transform="matrix(0.866025 0.5 -2.20305e-08 1 986.691 426.609)" fill="#6B7280"/>
<g filter="url(#filter11_i_2204_2274)">
<rect width="64.5194" height="3.39576" rx="1.69788" transform="matrix(0.866025 0.5 -2.20305e-08 1 1013.16 573.475)" fill="#E5E7EB"/>
</g>
<rect width="11.8852" height="2.20647" rx="1.10323" transform="matrix(0.866025 0.5 -2.20305e-08 1 984.486 318.866)" fill="#E5E7EB"/>
<rect width="11.8852" height="2.20647" rx="1.10323" transform="matrix(0.866025 0.5 -2.20305e-08 1 984.486 322.396)" fill="#E5E7EB"/>
<rect width="11.8852" height="2.20647" rx="1.10323" transform="matrix(0.866025 0.5 -2.20305e-08 1 984.486 325.927)" fill="#E5E7EB"/>
<g filter="url(#filter12_d_2204_2274)">
<mask id="path-88-outside-2_2204_2274" maskUnits="userSpaceOnUse" x="971.939" y="270.318" width="138.564" height="110" fill="black">
<rect fill="white" x="971.939" y="270.318" width="138.564" height="110"/>
<path d="M977.135 297.384C977.135 287.406 984.14 283.362 992.78 288.351L1090.15 344.567C1098.79 349.556 1105.8 361.688 1105.8 371.666L1105.8 377.494L977.135 303.212L977.135 297.384Z"/>
</mask>
<path d="M977.135 297.384C977.135 287.406 984.14 283.362 992.78 288.351L1090.15 344.567C1098.79 349.556 1105.8 361.688 1105.8 371.666L1105.8 377.494L977.135 303.212L977.135 297.384Z" fill="#F9FAFB"/>
<path d="M972.441 294.674C972.441 281.703 981.547 276.445 992.78 282.931L1090.15 339.147C1101.38 345.632 1110.49 361.405 1110.49 374.376L1101.1 368.956C1101.1 361.972 1096.2 353.479 1090.15 349.987L992.78 293.771C986.732 290.278 981.828 293.109 981.828 300.094L972.441 294.674ZM1105.8 377.494L977.135 303.212L1105.8 377.494ZM972.441 300.502L972.441 294.674C972.441 281.703 981.547 276.445 992.78 282.931L992.78 293.771C986.732 290.278 981.828 293.109 981.828 300.094L981.828 305.922L972.441 300.502ZM1090.15 339.147C1101.38 345.632 1110.49 361.405 1110.49 374.376L1110.49 380.204L1101.1 374.784L1101.1 368.956C1101.1 361.972 1096.2 353.479 1090.15 349.987L1090.15 339.147Z" fill="white" mask="url(#path-88-outside-2_2204_2274)"/>
</g>
<ellipse cx="2.47156" cy="2.67556" rx="2.47156" ry="2.67556" transform="matrix(0.866025 0.5 -2.20305e-08 1 984.46 291.713)" fill="#EF4444"/>
<ellipse cx="2.47156" cy="2.67556" rx="2.47156" ry="2.67556" transform="matrix(0.866025 0.5 -2.20305e-08 1 991.598 295.833)" fill="#F59E0B"/>
<ellipse cx="2.47156" cy="2.67556" rx="2.47156" ry="2.67556" transform="matrix(0.866025 0.5 -2.20305e-08 1 998.73 299.951)" fill="#10B981"/>
<rect width="56.03" height="11.0281" rx="4.30722" transform="matrix(0.866025 0.5 -2.20305e-08 1 1018.31 309.521)" fill="#E5E7EB"/>
<g style="mix-blend-mode:color-burn">
<path d="M575.853 490.788C574.371 480.399 578.077 469.943 585.771 462.806L1075.09 8.96005C1081.01 3.47171 1088.78 0.421946 1096.85 0.421962L1920.45 0.421843L1920.45 1205.39C1920.45 1223.34 1905.7 1237.77 1887.76 1237.39L705.789 1211.78C690.128 1211.44 677.015 1199.81 674.803 1184.3L575.853 490.788Z" fill="url(#paint6_linear_2204_2274)" fill-opacity="0.6"/>
<path d="M575.853 490.788C574.371 480.399 578.077 469.943 585.771 462.806L1075.09 8.96005C1081.01 3.47171 1088.78 0.421946 1096.85 0.421962L1920.45 0.421843L1920.45 1205.39C1920.45 1223.34 1905.7 1237.77 1887.76 1237.39L705.789 1211.78C690.128 1211.44 677.015 1199.81 674.803 1184.3L575.853 490.788Z" fill="url(#paint7_linear_2204_2274)"/>
</g>
<g filter="url(#filter13_dd_2204_2274)">
<path d="M1020.88 794.773C1018.42 793.353 1014.69 793.198 1012.56 794.429L943.042 834.562C940.911 835.793 941.178 837.945 943.64 839.367L1024.83 886.244C1027.29 887.666 1031.02 887.819 1033.15 886.59L1102.67 846.455C1104.8 845.224 1104.53 843.072 1102.07 841.649L1020.88 794.773Z" fill="#BBC6E6"/>
</g>
<path d="M941.604 833.108V836.649L944.488 838.367L945.348 833.962L941.604 833.108ZM1104.11 840.827V844.368L1100.66 846.155L1099.54 842.249L1104.11 840.827Z" fill="#BBC6E6"/>
<path d="M1020.88 791.232C1018.42 789.812 1014.69 789.657 1012.56 790.888L943.042 831.023C940.911 832.252 941.178 834.406 943.64 835.827L1024.83 882.703C1027.29 884.125 1031.02 884.278 1033.15 883.049L1102.67 842.914C1104.8 841.683 1104.53 839.531 1102.07 838.109L1020.88 791.232Z" fill="#F3F5FB"/>
<path d="M1008.26 802.361C1007.71 802.04 1006.87 802.007 1006.39 802.283L990.732 811.322C990.252 811.599 990.313 812.083 990.867 812.404L1066.1 855.838C1066.65 856.159 1067.49 856.193 1067.97 855.916L1083.63 846.878C1084.11 846.599 1084.05 846.114 1083.49 845.795L1008.26 802.361Z" fill="#DEE5F6"/>
<path d="M1086.17 838.447C1085.58 838.788 1084.62 838.788 1084.03 838.447C1083.44 838.107 1083.44 837.551 1084.03 837.209C1084.62 836.869 1085.58 836.869 1086.17 837.209C1086.76 837.551 1086.76 838.107 1086.17 838.447ZM1074.03 845.461C1073.44 845.801 1072.48 845.801 1071.88 845.461C1071.29 845.119 1071.29 844.565 1071.88 844.223C1072.48 843.881 1073.44 843.881 1074.03 844.223C1074.62 844.565 1074.62 845.119 1074.03 845.461ZM1061.88 852.473C1061.29 852.815 1060.33 852.815 1059.74 852.473C1059.15 852.131 1059.15 851.577 1059.74 851.235C1060.33 850.893 1061.29 850.893 1061.88 851.235C1062.47 851.577 1062.47 852.131 1061.88 852.473ZM1049.73 859.485C1049.14 859.827 1048.18 859.827 1047.59 859.485C1047 859.143 1047 858.589 1047.59 858.247C1048.18 857.908 1049.14 857.908 1049.73 858.247C1050.33 858.589 1050.33 859.143 1049.73 859.485ZM1037.59 866.499C1037 866.839 1036.04 866.839 1035.45 866.499C1034.85 866.157 1034.85 865.602 1035.45 865.262C1036.04 864.92 1037 864.92 1037.59 865.262C1038.18 865.602 1038.18 866.157 1037.59 866.499ZM1025.44 873.511C1024.85 873.853 1023.89 873.853 1023.3 873.511C1022.71 873.169 1022.71 872.616 1023.3 872.274C1023.89 871.932 1024.85 871.932 1025.44 872.274C1026.03 872.616 1026.03 873.169 1025.44 873.511Z" fill="#C4CBDC"/>
<path d="M1002.16 796.887L1092.28 848.913L1092.56 848.752L1002.45 796.724L1002.16 796.887ZM990.091 803.86L1080.2 855.886L1080.49 855.722L990.372 803.696L990.091 803.86Z" fill="#DEE3F1"/>
<path d="M1088.05 830.048L1010.81 874.642L1011.1 874.806L1088.34 830.211L1088.05 830.048Z" fill="#DEE3F1"/>
<path d="M1016.75 798.364C1016.16 798.706 1015.2 798.706 1014.61 798.364C1014.02 798.024 1014.02 797.469 1014.61 797.127C1015.2 796.787 1016.16 796.787 1016.75 797.127C1017.34 797.469 1017.34 798.024 1016.75 798.364ZM1004.6 805.378C1004.01 805.718 1003.05 805.718 1002.46 805.378C1001.87 805.037 1001.87 804.483 1002.46 804.141C1003.05 803.799 1004.01 803.799 1004.6 804.141C1005.2 804.483 1005.2 805.037 1004.6 805.378ZM992.457 812.391C991.865 812.733 990.905 812.733 990.315 812.391C989.724 812.049 989.724 811.495 990.315 811.153C990.905 810.811 991.865 810.811 992.457 811.153C993.048 811.495 993.048 812.049 992.457 812.391ZM980.31 819.403C979.718 819.745 978.76 819.745 978.168 819.403C977.577 819.061 977.577 818.507 978.168 818.165C978.76 817.825 979.718 817.825 980.31 818.165C980.901 818.507 980.901 819.061 980.31 819.403ZM968.163 826.415C967.573 826.757 966.613 826.757 966.021 826.415C965.43 826.075 965.43 825.519 966.021 825.179C966.613 824.838 967.573 824.838 968.163 825.179C968.754 825.519 968.754 826.075 968.163 826.415ZM956.018 833.429C955.426 833.771 954.466 833.771 953.874 833.429C953.283 833.087 953.283 832.533 953.874 832.192C954.466 831.85 955.426 831.85 956.018 832.192C956.61 832.533 956.61 833.087 956.018 833.429ZM1028.32 805.045C1027.73 805.387 1026.77 805.387 1026.18 805.045C1025.59 804.703 1025.59 804.149 1026.18 803.807C1026.77 803.468 1027.73 803.468 1028.32 803.807C1028.91 804.149 1028.91 804.703 1028.32 805.045ZM1016.17 812.057C1015.58 812.399 1014.62 812.399 1014.03 812.057C1013.44 811.717 1013.44 811.161 1014.03 810.822C1014.62 810.48 1015.58 810.48 1016.17 810.822C1016.77 811.161 1016.77 811.717 1016.17 812.057ZM1004.03 819.071C1003.44 819.411 1002.48 819.411 1001.89 819.071C1001.29 818.729 1001.29 818.176 1001.89 817.834C1002.48 817.492 1003.44 817.492 1004.03 817.834C1004.62 818.176 1004.62 818.729 1004.03 819.071ZM991.882 826.083C991.291 826.425 990.33 826.425 989.738 826.083C989.147 825.742 989.147 825.188 989.738 824.846C990.33 824.504 991.291 824.504 991.882 824.846C992.471 825.188 992.471 825.742 991.882 826.083ZM979.735 833.096C979.144 833.438 978.183 833.438 977.591 833.096C977 832.756 977 832.2 977.591 831.86C978.183 831.518 979.144 831.518 979.735 831.86C980.327 832.2 980.327 832.756 979.735 833.096ZM967.588 840.11C966.997 840.45 966.036 840.45 965.444 840.11C964.855 839.768 964.855 839.214 965.444 838.872C966.036 838.53 966.997 838.53 967.588 838.872C968.18 839.214 968.18 839.768 967.588 840.11ZM1039.89 811.726C1039.3 812.068 1038.34 812.068 1037.75 811.726C1037.16 811.384 1037.16 810.83 1037.75 810.488C1038.34 810.146 1039.3 810.146 1039.89 810.488C1040.48 810.83 1040.48 811.384 1039.89 811.726ZM1027.74 818.738C1027.15 819.08 1026.19 819.08 1025.6 818.738C1025.01 818.396 1025.01 817.842 1025.6 817.5C1026.19 817.16 1027.15 817.16 1027.74 817.5C1028.34 817.842 1028.34 818.396 1027.74 818.738ZM1015.6 825.752C1015.01 826.092 1014.05 826.092 1013.46 825.752C1012.86 825.41 1012.86 824.856 1013.46 824.514C1014.05 824.173 1015.01 824.173 1015.6 824.514C1016.19 824.856 1016.19 825.41 1015.6 825.752ZM1003.45 832.764C1002.86 833.106 1001.9 833.106 1001.31 832.764C1000.72 832.422 1000.72 831.869 1001.31 831.527C1001.9 831.185 1002.86 831.185 1003.45 831.527C1004.04 831.869 1004.04 832.422 1003.45 832.764ZM991.305 839.776C990.714 840.118 989.753 840.118 989.164 839.776C988.572 839.434 988.572 838.881 989.164 838.539C989.753 838.199 990.714 838.199 991.305 838.539C991.897 838.881 991.897 839.434 991.305 839.776ZM979.158 846.788C978.567 847.13 977.608 847.13 977.017 846.788C976.425 846.449 976.425 845.893 977.017 845.553C977.608 845.211 978.567 845.211 979.158 845.553C979.75 845.893 979.75 846.449 979.158 846.788ZM1051.46 818.406C1050.87 818.748 1049.91 818.748 1049.32 818.406C1048.73 818.065 1048.73 817.511 1049.32 817.169C1049.91 816.827 1050.87 816.827 1051.46 817.169C1052.05 817.511 1052.05 818.065 1051.46 818.406ZM1039.32 825.419C1038.72 825.76 1037.76 825.76 1037.17 825.419C1036.58 825.077 1036.58 824.523 1037.17 824.181C1037.76 823.841 1038.72 823.841 1039.32 824.181C1039.91 824.523 1039.91 825.077 1039.32 825.419ZM1027.17 832.431C1026.58 832.773 1025.62 832.773 1025.03 832.431C1024.43 832.091 1024.43 831.535 1025.03 831.195C1025.62 830.853 1026.58 830.853 1027.17 831.195C1027.76 831.535 1027.76 832.091 1027.17 832.431ZM1015.02 839.445C1014.43 839.785 1013.47 839.785 1012.88 839.445C1012.29 839.103 1012.29 838.549 1012.88 838.207C1013.47 837.865 1014.43 837.865 1015.02 838.207C1015.61 838.549 1015.61 839.103 1015.02 839.445ZM1002.88 846.457C1002.28 846.799 1001.33 846.799 1000.73 846.457C1000.14 846.115 1000.14 845.561 1000.73 845.219C1001.33 844.878 1002.28 844.878 1002.88 845.219C1003.47 845.561 1003.47 846.115 1002.88 846.457ZM990.73 853.469C990.139 853.811 989.178 853.811 988.587 853.469C987.995 853.129 987.995 852.574 988.587 852.234C989.178 851.892 990.139 851.892 990.73 852.234C991.32 852.574 991.32 853.129 990.73 853.469ZM1063.03 825.087C1062.44 825.427 1061.48 825.427 1060.89 825.087C1060.3 824.745 1060.3 824.191 1060.89 823.85C1061.48 823.508 1062.44 823.508 1063.03 823.85C1063.62 824.191 1063.62 824.745 1063.03 825.087ZM1050.89 832.099C1050.29 832.441 1049.33 832.441 1048.74 832.099C1048.15 831.757 1048.15 831.204 1048.74 830.862C1049.33 830.52 1050.29 830.52 1050.89 830.862C1051.48 831.204 1051.48 831.757 1050.89 832.099ZM1038.74 839.111C1038.15 839.453 1037.19 839.453 1036.6 839.111C1036.01 838.77 1036.01 838.216 1036.6 837.874C1037.19 837.534 1038.15 837.534 1038.74 837.874C1039.33 838.216 1039.33 838.77 1038.74 839.111ZM1026.59 846.126C1026 846.465 1025.04 846.465 1024.45 846.126C1023.86 845.784 1023.86 845.228 1024.45 844.888C1025.04 844.546 1026 844.546 1026.59 844.888C1027.18 845.228 1027.18 845.784 1026.59 846.126ZM1014.45 853.138C1013.86 853.48 1012.9 853.48 1012.3 853.138C1011.71 852.796 1011.71 852.242 1012.3 851.9C1012.9 851.558 1013.86 851.558 1014.45 851.9C1015.04 852.242 1015.04 852.796 1014.45 853.138ZM1002.3 860.15C1001.71 860.492 1000.75 860.492 1000.16 860.15C999.565 859.808 999.565 859.254 1000.16 858.912C1000.75 858.573 1001.71 858.573 1002.3 858.912C1002.89 859.254 1002.89 859.808 1002.3 860.15ZM1074.6 831.766C1074.01 832.108 1073.05 832.108 1072.46 831.766C1071.87 831.426 1071.87 830.87 1072.46 830.53C1073.05 830.188 1074.01 830.188 1074.6 830.53C1075.19 830.87 1075.19 831.426 1074.6 831.766ZM1062.46 838.78C1061.86 839.12 1060.91 839.12 1060.31 838.78C1059.72 838.438 1059.72 837.884 1060.31 837.542C1060.91 837.201 1061.86 837.201 1062.46 837.542C1063.05 837.884 1063.05 838.438 1062.46 838.78ZM1050.31 845.792C1049.72 846.134 1048.76 846.134 1048.17 845.792C1047.58 845.45 1047.58 844.896 1048.17 844.555C1048.76 844.215 1049.72 844.215 1050.31 844.555C1050.9 844.896 1050.9 845.45 1050.31 845.792ZM1038.16 852.804C1037.57 853.146 1036.61 853.146 1036.02 852.804C1035.43 852.464 1035.43 851.909 1036.02 851.569C1036.61 851.227 1037.57 851.227 1038.16 851.569C1038.76 851.909 1038.76 852.464 1038.16 852.804ZM1026.02 859.819C1025.43 860.158 1024.47 860.158 1023.87 859.819C1023.28 859.477 1023.28 858.923 1023.87 858.581C1024.47 858.239 1025.43 858.239 1026.02 858.581C1026.61 858.923 1026.61 859.477 1026.02 859.819ZM1013.87 866.831C1013.28 867.173 1012.32 867.173 1011.73 866.831C1011.14 866.489 1011.14 865.935 1011.73 865.593C1012.32 865.251 1013.28 865.251 1013.87 865.593C1014.46 865.935 1014.46 866.489 1013.87 866.831Z" fill="#C4CBDC"/>
<path d="M1029.3 796.126L952.06 840.72L952.343 840.882L1029.58 796.29L1029.3 796.126Z" fill="#DEE3F1"/>
<path d="M978.015 810.83L1068.13 862.856L1068.41 862.694L978.299 810.666L978.015 810.83ZM965.942 817.802L1056.05 869.828L1056.34 869.664L966.225 817.639L965.942 817.802ZM953.866 824.772L1043.98 876.798L1044.26 876.634L954.149 824.609L953.866 824.772Z" fill="#DEE3F1"/>
<path d="M1041.05 802.91L963.811 847.504L964.094 847.667L1041.33 803.073L1041.05 802.91ZM1052.8 809.695L975.563 854.287L975.844 854.451L1053.08 809.857L1052.8 809.695ZM1064.55 816.479L987.314 861.073L987.597 861.236L1064.84 816.642L1064.55 816.479ZM1076.3 823.262L999.064 867.856L999.347 868.02L1076.59 823.426L1076.3 823.262Z" fill="#DEE3F1"/>
<path d="M1051.02 770.1C1051.02 769.279 1050.53 768.323 1049.91 767.968L974.9 724.662C974.285 724.308 973.786 724.685 973.786 725.505V796.856C973.786 797.676 974.285 798.631 974.9 798.985L1049.91 842.291C1050.53 842.648 1051.02 842.27 1051.02 841.448V770.1Z" fill="#8370FF"/>
<path d="M995.168 779.715L993.971 780.25L1000.75 794.096L1001.95 793.561L995.168 779.715Z" fill="#F2F2F2"/>
<path d="M1002.09 776.625L993.971 780.25L994.954 782.257L1003.07 778.63L1002.09 776.625Z" fill="#F2F2F2"/>
<path d="M1020.19 797.504L1021.38 796.969L1014.6 783.125L1013.41 783.66L1020.19 797.504Z" fill="#F2F2F2"/>
<path d="M1013.27 800.596L1021.38 796.969L1020.4 794.962L1012.29 798.589L1013.27 800.596Z" fill="#F2F2F2"/>
<path d="M1051.02 770.156C1051.02 769.305 1050.51 768.312 1049.87 767.943L974.822 724.616C974.25 724.287 973.786 724.637 973.786 725.401V732.144L1051.02 776.738V770.156Z" fill="#7857FF"/>
<path d="M1000.47 757.548C1000.47 756.874 1000.06 756.094 999.561 755.803L978.764 743.796C978.261 743.505 977.852 743.815 977.852 744.486C977.852 745.157 978.261 745.94 978.764 746.231L999.561 758.236C1000.06 758.527 1000.47 758.219 1000.47 757.548ZM1009.31 762.649C1009.31 761.978 1008.9 761.197 1008.4 760.906L1002.81 757.676C1002.3 757.386 1001.89 757.695 1001.89 758.366C1001.89 759.039 1002.3 759.819 1002.81 760.111L1008.4 763.339C1008.9 763.631 1009.31 763.322 1009.31 762.649ZM1011.95 782.37L1011.06 780.91L1003.4 794.928L1004.29 796.388L1011.95 782.37Z" fill="#F2F2F2"/>
</g>
<defs>
<filter id="filter0_f_2204_2274" x="1259.45" y="-760.881" width="1629.56" height="1650.79" filterUnits="userSpaceOnUse" color-interpolation-filters="sRGB">
<feFlood flood-opacity="0" result="BackgroundImageFix"/>
<feBlend mode="normal" in="SourceGraphic" in2="BackgroundImageFix" result="shape"/>
<feGaussianBlur stdDeviation="125" result="effect1_foregroundBlur_2204_2274"/>
</filter>
<filter id="filter1_f_2204_2274" x="988.588" y="607.839" width="722.258" height="423.509" filterUnits="userSpaceOnUse" color-interpolation-filters="sRGB">
<feFlood flood-opacity="0" result="BackgroundImageFix"/>
<feBlend mode="normal" in="SourceGraphic" in2="BackgroundImageFix" result="shape"/>
<feGaussianBlur stdDeviation="8.07299" result="effect1_foregroundBlur_2204_2274"/>
</filter>
<filter id="filter2_f_2204_2274" x="759.824" y="604.346" width="330.711" height="208.307" filterUnits="userSpaceOnUse" color-interpolation-filters="sRGB">
<feFlood flood-opacity="0" result="BackgroundImageFix"/>
<feBlend mode="normal" in="SourceGraphic" in2="BackgroundImageFix" result="shape"/>
<feGaussianBlur stdDeviation="8.07299" result="effect1_foregroundBlur_2204_2274"/>
</filter>
<filter id="filter3_dd_2204_2274" x="1207.11" y="199.487" width="495.006" height="693.827" filterUnits="userSpaceOnUse" color-interpolation-filters="sRGB">
<feFlood flood-opacity="0" result="BackgroundImageFix"/>
<feColorMatrix in="SourceAlpha" type="matrix" values="0 0 0 0 0 0 0 0 0 0 0 0 0 0 0 0 0 0 127 0" result="hardAlpha"/>
<feOffset dy="1.00912"/>
<feGaussianBlur stdDeviation="1.00912"/>
<feColorMatrix type="matrix" values="0 0 0 0 0 0 0 0 0 0 0 0 0 0 0 0 0 0 0.06 0"/>
<feBlend mode="normal" in2="BackgroundImageFix" result="effect1_dropShadow_2204_2274"/>
<feColorMatrix in="SourceAlpha" type="matrix" values="0 0 0 0 0 0 0 0 0 0 0 0 0 0 0 0 0 0 127 0" result="hardAlpha"/>
<feOffset dy="1.00912"/>
<feGaussianBlur stdDeviation="1.51369"/>
<feColorMatrix type="matrix" values="0 0 0 0 0 0 0 0 0 0 0 0 0 0 0 0 0 0 0.1 0"/>
<feBlend mode="normal" in2="effect1_dropShadow_2204_2274" result="effect2_dropShadow_2204_2274"/>
<feBlend mode="normal" in="SourceGraphic" in2="effect2_dropShadow_2204_2274" result="shape"/>
</filter>
<filter id="filter4_dd_2204_2274" x="1172.92" y="230.293" width="540.946" height="718.059" filterUnits="userSpaceOnUse" color-interpolation-filters="sRGB">
<feFlood flood-opacity="0" result="BackgroundImageFix"/>
<feColorMatrix in="SourceAlpha" type="matrix" values="0 0 0 0 0 0 0 0 0 0 0 0 0 0 0 0 0 0 127 0" result="hardAlpha"/>
<feMorphology radius="6.45745" operator="erode" in="SourceAlpha" result="effect1_dropShadow_2204_2274"/>
<feOffset dy="12.9149"/>
<feGaussianBlur stdDeviation="10.3319"/>
<feColorMatrix type="matrix" values="0 0 0 0 0 0 0 0 0 0 0 0 0 0 0 0 0 0 0.04 0"/>
<feBlend mode="normal" in2="BackgroundImageFix" result="effect1_dropShadow_2204_2274"/>
<feColorMatrix in="SourceAlpha" type="matrix" values="0 0 0 0 0 0 0 0 0 0 0 0 0 0 0 0 0 0 127 0" result="hardAlpha"/>
<feMorphology radius="6.45745" operator="erode" in="SourceAlpha" result="effect2_dropShadow_2204_2274"/>
<feOffset dy="24"/>
<feGaussianBlur stdDeviation="20.6638"/>
<feColorMatrix type="matrix" values="0 0 0 0 0 0 0 0 0 0 0 0 0 0 0 0 0 0 0.1 0"/>
<feBlend mode="normal" in2="effect1_dropShadow_2204_2274" result="effect2_dropShadow_2204_2274"/>
<feBlend mode="normal" in="SourceGraphic" in2="effect2_dropShadow_2204_2274" result="shape"/>
</filter>
<filter id="filter5_d_2204_2274" x="1204.71" y="209.497" width="477.364" height="312.935" filterUnits="userSpaceOnUse" color-interpolation-filters="sRGB">
<feFlood flood-opacity="0" result="BackgroundImageFix"/>
<feColorMatrix in="SourceAlpha" type="matrix" values="0 0 0 0 0 0 0 0 0 0 0 0 0 0 0 0 0 0 127 0" result="hardAlpha"/>
<feOffset dy="1.53955"/>
<feGaussianBlur stdDeviation="1.53955"/>
<feColorMatrix type="matrix" values="0 0 0 0 0 0 0 0 0 0 0 0 0 0 0 0 0 0 0.05 0"/>
<feBlend mode="normal" in2="BackgroundImageFix" result="effect1_dropShadow_2204_2274"/>
<feBlend mode="normal" in="SourceGraphic" in2="effect1_dropShadow_2204_2274" result="shape"/>
</filter>
<filter id="filter6_i_2204_2274" x="1250.29" y="324.246" width="392.58" height="393.393" filterUnits="userSpaceOnUse" color-interpolation-filters="sRGB">
<feFlood flood-opacity="0" result="BackgroundImageFix"/>
<feBlend mode="normal" in="SourceGraphic" in2="BackgroundImageFix" result="shape"/>
<feColorMatrix in="SourceAlpha" type="matrix" values="0 0 0 0 0 0 0 0 0 0 0 0 0 0 0 0 0 0 127 0" result="hardAlpha"/>
<feOffset dy="2.01825"/>
<feGaussianBlur stdDeviation="2.01825"/>
<feComposite in2="hardAlpha" operator="arithmetic" k2="-1" k3="1"/>
<feColorMatrix type="matrix" values="0 0 0 0 0 0 0 0 0 0 0 0 0 0 0 0 0 0 0.06 0"/>
<feBlend mode="normal" in2="shape" result="effect1_innerShadow_2204_2274"/>
</filter>
<filter id="filter7_i_2204_2274" x="1465.04" y="636.786" width="168.888" height="210.002" filterUnits="userSpaceOnUse" color-interpolation-filters="sRGB">
<feFlood flood-opacity="0" result="BackgroundImageFix"/>
<feBlend mode="normal" in="SourceGraphic" in2="BackgroundImageFix" result="shape"/>
<feColorMatrix in="SourceAlpha" type="matrix" values="0 0 0 0 0 0 0 0 0 0 0 0 0 0 0 0 0 0 127 0" result="hardAlpha"/>
<feOffset dy="2.01825"/>
<feGaussianBlur stdDeviation="2.01825"/>
<feComposite in2="hardAlpha" operator="arithmetic" k2="-1" k3="1"/>
<feColorMatrix type="matrix" values="0 0 0 0 0 0 0 0 0 0 0 0 0 0 0 0 0 0 0.06 0"/>
<feBlend mode="normal" in2="shape" result="effect1_innerShadow_2204_2274"/>
</filter>
<filter id="filter8_d_2204_2274" x="974.03" y="270.128" width="157.714" height="377.827" filterUnits="userSpaceOnUse" color-interpolation-filters="sRGB">
<feFlood flood-opacity="0" result="BackgroundImageFix"/>
<feColorMatrix in="SourceAlpha" type="matrix" values="0 0 0 0 0 0 0 0 0 0 0 0 0 0 0 0 0 0 127 0" result="hardAlpha"/>
<feOffset dy="2.15361"/>
<feGaussianBlur stdDeviation="2.15361"/>
<feColorMatrix type="matrix" values="0 0 0 0 0 0 0 0 0 0 0 0 0 0 0 0 0 0 0.05 0"/>
<feBlend mode="normal" in2="BackgroundImageFix" result="effect1_dropShadow_2204_2274"/>
<feBlend mode="normal" in="SourceGraphic" in2="effect1_dropShadow_2204_2274" result="shape"/>
</filter>
<filter id="filter9_d_2204_2274" x="952.569" y="292.357" width="177.793" height="387.835" filterUnits="userSpaceOnUse" color-interpolation-filters="sRGB">
<feFlood flood-opacity="0" result="BackgroundImageFix"/>
<feColorMatrix in="SourceAlpha" type="matrix" values="0 0 0 0 0 0 0 0 0 0 0 0 0 0 0 0 0 0 127 0" result="hardAlpha"/>
<feMorphology radius="9.03306" operator="erode" in="SourceAlpha" result="effect1_dropShadow_2204_2274"/>
<feOffset dy="18.0661"/>
<feGaussianBlur stdDeviation="14.4529"/>
<feColorMatrix type="matrix" values="0 0 0 0 0 0 0 0 0 0 0 0 0 0 0 0 0 0 0.04 0"/>
<feBlend mode="normal" in2="BackgroundImageFix" result="effect1_dropShadow_2204_2274"/>
<feBlend mode="normal" in="SourceGraphic" in2="effect1_dropShadow_2204_2274" result="shape"/>
</filter>
<filter id="filter10_i_2204_2274" x="983.016" y="342.825" width="117.633" height="131.77" filterUnits="userSpaceOnUse" color-interpolation-filters="sRGB">
<feFlood flood-opacity="0" result="BackgroundImageFix"/>
<feBlend mode="normal" in="SourceGraphic" in2="BackgroundImageFix" result="shape"/>
<feColorMatrix in="SourceAlpha" type="matrix" values="0 0 0 0 0 0 0 0 0 0 0 0 0 0 0 0 0 0 127 0" result="hardAlpha"/>
<feOffset dy="2.40459"/>
<feGaussianBlur stdDeviation="2.40459"/>
<feComposite in2="hardAlpha" operator="arithmetic" k2="-1" k3="1"/>
<feColorMatrix type="matrix" values="0 0 0 0 0 0 0 0 0 0 0 0 0 0 0 0 0 0 0.06 0"/>
<feBlend mode="normal" in2="shape" result="effect1_innerShadow_2204_2274"/>
</filter>
<filter id="filter11_i_2204_2274" x="1013.16" y="574.123" width="55.875" height="37.9725" filterUnits="userSpaceOnUse" color-interpolation-filters="sRGB">
<feFlood flood-opacity="0" result="BackgroundImageFix"/>
<feBlend mode="normal" in="SourceGraphic" in2="BackgroundImageFix" result="shape"/>
<feColorMatrix in="SourceAlpha" type="matrix" values="0 0 0 0 0 0 0 0 0 0 0 0 0 0 0 0 0 0 127 0" result="hardAlpha"/>
<feOffset dy="3.61322"/>
<feGaussianBlur stdDeviation="3.61322"/>
<feComposite in2="hardAlpha" operator="arithmetic" k2="-1" k3="1"/>
<feColorMatrix type="matrix" values="0 0 0 0 0 0 0 0 0 0 0 0 0 0 0 0 0 0 0.06 0"/>
<feBlend mode="normal" in2="shape" result="effect1_innerShadow_2204_2274"/>
</filter>
<filter id="filter12_d_2204_2274" x="968.134" y="277.999" width="146.662" height="108.666" filterUnits="userSpaceOnUse" color-interpolation-filters="sRGB">
<feFlood flood-opacity="0" result="BackgroundImageFix"/>
<feColorMatrix in="SourceAlpha" type="matrix" values="0 0 0 0 0 0 0 0 0 0 0 0 0 0 0 0 0 0 127 0" result="hardAlpha"/>
<feOffset dy="2.15361"/>
<feGaussianBlur stdDeviation="2.15361"/>
<feColorMatrix type="matrix" values="0 0 0 0 0 0 0 0 0 0 0 0 0 0 0 0 0 0 0.05 0"/>
<feBlend mode="normal" in2="BackgroundImageFix" result="effect1_dropShadow_2204_2274"/>
<feBlend mode="normal" in="SourceGraphic" in2="effect1_dropShadow_2204_2274" result="shape"/>
</filter>
<filter id="filter13_dd_2204_2274" x="936.604" y="792.598" width="172.504" height="103.822" filterUnits="userSpaceOnUse" color-interpolation-filters="sRGB">
<feFlood flood-opacity="0" result="BackgroundImageFix"/>
<feColorMatrix in="SourceAlpha" type="matrix" values="0 0 0 0 0 0 0 0 0 0 0 0 0 0 0 0 0 0 127 0" result="hardAlpha"/>
<feMorphology radius="1" operator="erode" in="SourceAlpha" result="effect1_dropShadow_2204_2274"/>
<feOffset dy="2"/>
<feGaussianBlur stdDeviation="2"/>
<feColorMatrix type="matrix" values="0 0 0 0 0 0 0 0 0 0 0 0 0 0 0 0 0 0 0.06 0"/>
<feBlend mode="normal" in2="BackgroundImageFix" result="effect1_dropShadow_2204_2274"/>
<feColorMatrix in="SourceAlpha" type="matrix" values="0 0 0 0 0 0 0 0 0 0 0 0 0 0 0 0 0 0 127 0" result="hardAlpha"/>
<feMorphology radius="1" operator="erode" in="SourceAlpha" result="effect2_dropShadow_2204_2274"/>
<feOffset dy="4"/>
<feGaussianBlur stdDeviation="3"/>
<feColorMatrix type="matrix" values="0 0 0 0 0 0 0 0 0 0 0 0 0 0 0 0 0 0 0.1 0"/>
<feBlend mode="normal" in2="effect1_dropShadow_2204_2274" result="effect2_dropShadow_2204_2274"/>
<feBlend mode="normal" in="SourceGraphic" in2="effect2_dropShadow_2204_2274" result="shape"/>
</filter>
<radialGradient id="paint0_radial_2204_2274" cx="0" cy="0" r="1" gradientUnits="userSpaceOnUse" gradientTransform="translate(1372.35 697.548) rotate(135.963) scale(678.094 645.981)">
<stop stop-color="#DBDBDB"/>
<stop offset="1" stop-color="#B5B5B5" stop-opacity="0"/>
</radialGradient>
<linearGradient id="paint1_linear_2204_2274" x1="1772.08" y1="432.143" x2="1621.17" y2="635.989" gradientUnits="userSpaceOnUse">
<stop stop-color="#F4F4F4"/>
<stop offset="1" stop-color="#F4F4F4" stop-opacity="0"/>
</linearGradient>
<linearGradient id="paint2_linear_2204_2274" x1="1455.73" y1="755.213" x2="1327.47" y2="977.102" gradientUnits="userSpaceOnUse">
<stop stop-color="#4B5563"/>
<stop offset="1" stop-color="#4B5563" stop-opacity="0"/>
</linearGradient>
<linearGradient id="paint3_linear_2204_2274" x1="1012.5" y1="652.824" x2="895.846" y2="840.798" gradientUnits="userSpaceOnUse">
<stop stop-color="#4B5563"/>
<stop offset="1" stop-color="#4B5563" stop-opacity="0"/>
</linearGradient>
<linearGradient id="paint4_linear_2204_2274" x1="1443.39" y1="381.063" x2="1281.5" y2="661.473" gradientUnits="userSpaceOnUse">
<stop stop-color="white"/>
<stop offset="0.0001" stop-color="#F9FAFB"/>
<stop offset="1" stop-color="#F3F4F6"/>
</linearGradient>
<linearGradient id="paint5_linear_2204_2274" x1="1041.47" y1="339.434" x2="926.061" y2="539.319" gradientUnits="userSpaceOnUse">
<stop stop-color="white"/>
<stop offset="0.0001" stop-color="#F9FAFB"/>
<stop offset="1" stop-color="#F3F4F6"/>
</linearGradient>
<linearGradient id="paint6_linear_2204_2274" x1="1060.49" y1="15.5325" x2="2046.79" y2="779.405" gradientUnits="userSpaceOnUse">
<stop stop-color="#DED9FC"/>
<stop offset="0.136573" stop-color="#725CF6"/>
<stop offset="0.216545" stop-color="#5854FD"/>
<stop offset="0.303013" stop-color="#FFC368" stop-opacity="0.75"/>
<stop offset="0.4375" stop-color="#EF9AF3" stop-opacity="0.79"/>
<stop offset="0.530697" stop-color="#7C79FE"/>
<stop offset="0.694752" stop-color="#5854FD"/>
<stop offset="0.923659" stop-color="#9C4FFF"/>
<stop offset="1" stop-color="#E1D5FF"/>
</linearGradient>
<linearGradient id="paint7_linear_2204_2274" x1="1342.89" y1="1118.61" x2="1662.89" y2="290.107" gradientUnits="userSpaceOnUse">
<stop offset="0.0027083" stop-color="#F9FAFB"/>
<stop offset="0.120411" stop-color="#F9FAFB" stop-opacity="0"/>
</linearGradient>
<clipPath id="clip0_2204_2274">
<rect width="1920" height="1300" fill="white" transform="translate(0.787109 0.477051)"/>
</clipPath>
</defs>
</svg>
