<svg viewBox="0 0 1921 1301" fill="none" xmlns="http://www.w3.org/2000/svg">
<mask id="mask0_2217_1224" style="mask-type:luminance" maskUnits="userSpaceOnUse" x="0" y="0" width="1921" height="1301">
<path d="M1920.04 0.828339H0.0439453V1300.83H1920.04V0.828339Z" fill="white"/>
</mask>
<g mask="url(#mask0_2217_1224)">
<path d="M1920.04 0.828369H0.0439453V1300.83H1920.04V0.828369Z" fill="#F9FAFB"/>
<mask id="mask1_2217_1224" style="mask-type:alpha" maskUnits="userSpaceOnUse" x="1478" y="-400" width="467" height="825">
<path d="M1478.61 -399.001L1478.61 174.999" stroke="white" stroke-width="0.860518"/>
<path d="M1545.87 -357.395L1545.87 216.605" stroke="white" stroke-width="0.860518"/>
<path d="M1613.12 -315.788L1613.12 258.212" stroke="white" stroke-width="0.860518"/>
<path d="M1680.38 -274.182L1680.38 299.818" stroke="white" stroke-width="0.860518"/>
<path d="M1747.63 -232.576L1747.63 341.424" stroke="white" stroke-width="0.860518"/>
<path d="M1814.89 -190.97L1814.89 383.03" stroke="white" stroke-width="0.860518"/>
<path d="M1882.15 -149.363L1882.15 424.637" stroke="white" stroke-width="0.860518"/>
<path d="M1944.26 35.631L1491.33 -225.869" stroke="white" stroke-width="0.853568"/>
<path d="M1944.26 113.291L1491.33 -148.209" stroke="white" stroke-width="0.853568"/>
<path d="M1944.26 190.95L1491.33 -70.5499" stroke="white" stroke-width="0.853568"/>
<path d="M1944.26 268.61L1491.33 7.11011" stroke="white" stroke-width="0.853568"/>
<path d="M1944.26 346.271L1491.33 84.7711" stroke="white" stroke-width="0.853568"/>
<path d="M1944.26 423.826L1491.33 162.326" stroke="white" stroke-width="0.853568"/>
</mask>
<g mask="url(#mask1_2217_1224)">
<g filter="url(#filter0_f_2217_1224)">
<path d="M1949.54 -510.53L2638.27 -502.221L2584.26 640.263L1508.71 45.2488L1949.54 -510.53Z" fill="#D9D9D9"/>
</g>
</g>
<mask id="mask2_2217_1224" style="mask-type:alpha" maskUnits="userSpaceOnUse" x="251" y="60" width="2312" height="1335">
<path d="M1263.2 60.8798L252.702 644.29" stroke="white" stroke-width="0.853568"/>
<path d="M1335.38 102.552L324.882 685.962" stroke="white" stroke-width="0.853568"/>
<path d="M1407.56 144.225L397.061 727.635" stroke="white" stroke-width="0.853568"/>
<path d="M1479.74 185.897L469.241 769.307" stroke="white" stroke-width="0.853568"/>
<path d="M1551.92 227.569L541.422 810.979" stroke="white" stroke-width="0.853568"/>
<path d="M1624.09 269.24L613.592 852.65" stroke="white" stroke-width="0.853568"/>
<path d="M1696.27 310.913L685.771 894.323" stroke="white" stroke-width="0.853568"/>
<path d="M1768.45 352.585L757.952 935.995" stroke="white" stroke-width="0.853568"/>
<path d="M1840.63 394.257L830.132 977.667" stroke="white" stroke-width="0.853568"/>
<path d="M1912.81 435.929L902.311 1019.34" stroke="white" stroke-width="0.853568"/>
<path d="M1984.99 477.602L974.491 1061.01" stroke="white" stroke-width="0.853568"/>
<path d="M2057.16 519.274L1046.66 1102.68" stroke="white" stroke-width="0.853568"/>
<path d="M2129.34 560.946L1118.84 1144.36" stroke="white" stroke-width="0.853568"/>
<path d="M2201.52 602.618L1191.02 1186.03" stroke="white" stroke-width="0.853568"/>
<path d="M2273.7 644.29L1263.2 1227.7" stroke="white" stroke-width="0.853568"/>
<path d="M2345.88 685.962L1335.38 1269.37" stroke="white" stroke-width="0.853568"/>
<path d="M2418.05 727.634L1407.55 1311.04" stroke="white" stroke-width="0.853568"/>
<path d="M2490.23 769.306L1479.73 1352.72" stroke="white" stroke-width="0.853568"/>
<path d="M2516.17 837.674L1599.28 1367.04" stroke="white" stroke-width="0.853568"/>
<path d="M2561.67 810.978L1262.46 60.8777" stroke="white" stroke-width="0.853568"/>
<path d="M2489.49 852.65L1190.28 102.55" stroke="white" stroke-width="0.853568"/>
<path d="M2417.31 894.322L1118.1 144.222" stroke="white" stroke-width="0.853568"/>
<path d="M2345.13 935.994L1045.92 185.894" stroke="white" stroke-width="0.853568"/>
<path d="M2272.96 977.667L973.747 227.567" stroke="white" stroke-width="0.853568"/>
<path d="M2200.78 1019.33L901.567 269.235" stroke="white" stroke-width="0.853568"/>
<path d="M2128.6 1061.01L829.387 310.915" stroke="white" stroke-width="0.853568"/>
<path d="M2056.42 1102.68L757.207 352.585" stroke="white" stroke-width="0.853568"/>
<path d="M1984.25 1144.35L685.037 394.255" stroke="white" stroke-width="0.853568"/>
<path d="M1912.07 1186.02L612.857 435.925" stroke="white" stroke-width="0.853568"/>
<path d="M1839.89 1227.7L540.677 477.605" stroke="white" stroke-width="0.853568"/>
<path d="M1767.71 1269.37L468.497 519.275" stroke="white" stroke-width="0.853568"/>
<path d="M1695.53 1311.04L396.317 560.945" stroke="white" stroke-width="0.853568"/>
<path d="M1623.35 1352.71L324.137 602.615" stroke="white" stroke-width="0.853568"/>
<path d="M1551.17 1394.38L251.957 644.285" stroke="white" stroke-width="0.853568"/>
</mask>
<g mask="url(#mask2_2217_1224)">
<path d="M808.84 414.353L808.85 414.348L808.859 414.342C884.085 365.312 954.983 323.215 1026.4 292.473C1097.81 261.732 1169.71 242.357 1246.95 238.751C1401.41 231.539 1577.45 287.394 1813.76 441.992L1813.77 441.998L1813.78 442.004C2104.54 609.874 2125.92 869.638 1861.67 1022.2C1597.42 1174.77 1147.49 1162.42 856.732 994.554C565.972 826.684 544.587 566.92 808.84 414.353Z" fill="url(#paint0_radial_2217_1224)"/>
<path d="M808.84 414.353L808.85 414.348L808.859 414.342C884.085 365.312 954.983 323.215 1026.4 292.473C1097.81 261.732 1169.71 242.357 1246.95 238.751C1401.41 231.539 1577.45 287.394 1813.76 441.992L1813.77 441.998L1813.78 442.004C2104.54 609.874 2125.92 869.638 1861.67 1022.2C1597.42 1174.77 1147.49 1162.42 856.732 994.554C565.972 826.684 544.587 566.92 808.84 414.353Z" fill="url(#paint1_linear_2217_1224)"/>
<path d="M808.84 414.353L808.85 414.348L808.859 414.342C884.085 365.312 954.983 323.215 1026.4 292.473C1097.81 261.732 1169.71 242.357 1246.95 238.751C1401.41 231.539 1577.45 287.394 1813.76 441.992L1813.77 441.998L1813.78 442.004C2104.54 609.874 2125.92 869.638 1861.67 1022.2C1597.42 1174.77 1147.49 1162.42 856.732 994.554C565.972 826.684 544.587 566.92 808.84 414.353Z" stroke="white" stroke-width="0.739869"/>
</g>
<g filter="url(#filter1_dd_2217_1224)">
<path d="M1227.14 203.168C1228.61 202.395 1230.57 202.62 1232.61 203.797L1694.21 470.304C1697.34 472.11 1699.88 476.503 1699.88 480.115V886.409C1699.88 889.882 1698.55 892.411 1696.25 893.32L1671.55 903.067L1237.21 625.249C1232.76 622.401 1229.16 616.293 1228.8 610.95L1201.97 216.353L1227.14 203.168Z" fill="#E5E7EB"/>
<path d="M1203.27 250.215L1201.57 249.234V251.196V619.566C1201.57 626.337 1206.33 634.57 1212.19 637.956L1664.8 899.268C1670.66 902.654 1675.42 899.909 1675.42 893.138V524.769V522.806L1673.72 521.825L1203.27 250.215Z" fill="url(#paint2_linear_2217_1224)" stroke="white" stroke-width="3.92409"/>
<path d="M1431.94 475.952L1431.46 476.93L1424.94 473.17L1425.35 472.147L1431.94 475.952ZM1430.99 477.777L1430.44 478.75L1424.94 475.578L1425.35 474.522L1430.99 477.777ZM1433.24 473.638L1432.36 475.288C1432.25 475.162 1432.12 474.995 1431.95 474.787C1431.79 474.577 1431.59 474.361 1431.36 474.14C1431.14 473.921 1430.88 473.729 1430.6 473.563C1430.18 473.325 1429.83 473.238 1429.53 473.301C1429.24 473.361 1429.01 473.597 1428.85 474.009C1428.69 474.423 1428.61 475.041 1428.61 475.862C1428.61 476.691 1428.69 477.402 1428.85 477.995C1429.01 478.585 1429.24 479.078 1429.53 479.472C1429.83 479.866 1430.18 480.181 1430.6 480.419C1430.88 480.583 1431.13 480.686 1431.35 480.729C1431.58 480.773 1431.77 480.788 1431.93 480.773C1432.1 480.756 1432.23 480.738 1432.32 480.717L1433.2 483.39C1432.85 483.509 1432.45 483.522 1432.01 483.429C1431.56 483.334 1431.09 483.143 1430.6 482.855C1429.74 482.359 1428.98 481.691 1428.31 480.851C1427.65 480.013 1427.14 479.052 1426.76 477.967C1426.39 476.878 1426.2 475.713 1426.2 474.472C1426.2 473.234 1426.39 472.285 1426.76 471.623C1427.14 470.962 1427.65 470.589 1428.31 470.506C1428.98 470.424 1429.74 470.631 1430.6 471.127C1431.11 471.427 1431.59 471.788 1432.03 472.212C1432.47 472.637 1432.87 473.113 1433.24 473.638ZM1439.26 476.285V487.7L1436.87 486.323V477.483L1436.82 477.45L1434.6 477.734V475.348L1437.04 475.005L1439.26 476.285ZM1441.44 488.962V486.978L1445.05 485.414C1445.32 485.288 1445.55 485.162 1445.74 485.038C1445.93 484.91 1446.07 484.756 1446.17 484.575C1446.27 484.391 1446.32 484.158 1446.32 483.876C1446.32 483.56 1446.26 483.256 1446.15 482.964C1446.03 482.669 1445.86 482.4 1445.65 482.156C1445.44 481.913 1445.2 481.713 1444.93 481.557C1444.66 481.399 1444.42 481.326 1444.21 481.337C1444.01 481.344 1443.85 481.435 1443.73 481.61C1443.62 481.786 1443.56 482.048 1443.56 482.393L1441.3 481.086C1441.3 480.309 1441.45 479.726 1441.75 479.336C1442.06 478.946 1442.48 478.756 1443.03 478.767C1443.58 478.777 1444.22 478.991 1444.94 479.411C1445.69 479.844 1446.35 480.365 1446.9 480.975C1447.45 481.584 1447.88 482.236 1448.18 482.931C1448.49 483.624 1448.64 484.312 1448.64 484.996C1448.64 485.431 1448.57 485.818 1448.41 486.158C1448.26 486.498 1447.99 486.813 1447.6 487.103C1447.21 487.395 1446.66 487.694 1445.94 488.001L1444.76 488.577V488.65L1448.76 490.963V493.187L1441.44 488.962ZM1452.54 493.808L1452.5 494.402C1452.46 494.892 1452.38 495.346 1452.26 495.764C1452.14 496.188 1452.02 496.557 1451.89 496.871C1451.76 497.185 1451.65 497.427 1451.57 497.598L1450.09 496.74C1450.14 496.554 1450.21 496.291 1450.3 495.951C1450.39 495.613 1450.47 495.221 1450.55 494.775C1450.62 494.329 1450.67 493.856 1450.68 493.356L1450.69 492.738L1452.54 493.808ZM1457.84 486.859C1458.38 487.171 1458.9 487.571 1459.39 488.06C1459.88 488.545 1460.32 489.12 1460.71 489.785C1461.1 490.446 1461.4 491.2 1461.62 492.045C1461.84 492.891 1461.96 493.83 1461.96 494.863C1461.96 495.816 1461.86 496.613 1461.67 497.254C1461.47 497.891 1461.19 498.368 1460.82 498.684C1460.46 499.001 1460.02 499.152 1459.51 499.135C1459 499.115 1458.43 498.923 1457.79 498.558C1457.1 498.157 1456.49 497.649 1455.96 497.034C1455.43 496.417 1455 495.753 1454.69 495.041C1454.37 494.331 1454.18 493.632 1454.12 492.943L1456.47 494.3C1456.55 494.722 1456.7 495.098 1456.94 495.429C1457.18 495.756 1457.46 496.015 1457.79 496.206C1458.4 496.555 1458.85 496.514 1459.15 496.081C1459.45 495.648 1459.6 494.911 1459.6 493.871L1459.54 493.837C1459.4 494.099 1459.21 494.279 1458.95 494.378C1458.7 494.478 1458.41 494.498 1458.08 494.436C1457.75 494.375 1457.4 494.239 1457.03 494.027C1456.44 493.685 1455.92 493.227 1455.46 492.653C1455.01 492.08 1454.66 491.447 1454.4 490.752C1454.15 490.059 1454.02 489.36 1454.02 488.656C1454.01 487.867 1454.17 487.264 1454.49 486.847C1454.81 486.428 1455.26 486.215 1455.84 486.209C1456.42 486.2 1457.08 486.416 1457.84 486.859ZM1457.86 488.985C1457.56 488.814 1457.3 488.742 1457.07 488.768C1456.84 488.796 1456.66 488.907 1456.53 489.102C1456.39 489.297 1456.33 489.565 1456.33 489.905C1456.34 490.245 1456.4 490.588 1456.53 490.933C1456.66 491.281 1456.84 491.599 1457.07 491.889C1457.29 492.181 1457.56 492.411 1457.85 492.58C1458.07 492.707 1458.27 492.777 1458.46 492.792C1458.64 492.807 1458.81 492.773 1458.94 492.689C1459.08 492.602 1459.19 492.471 1459.27 492.296C1459.35 492.123 1459.39 491.911 1459.38 491.661C1459.38 491.328 1459.31 490.988 1459.18 490.641C1459.05 490.293 1458.87 489.973 1458.63 489.679C1458.41 489.384 1458.15 489.152 1457.86 488.985ZM1466.99 492.139C1467.53 492.451 1468.05 492.852 1468.54 493.34C1469.03 493.825 1469.47 494.4 1469.86 495.066C1470.24 495.727 1470.55 496.48 1470.77 497.326C1470.99 498.171 1471.1 499.11 1471.1 500.143C1471.11 501.097 1471.01 501.894 1470.81 502.535C1470.62 503.172 1470.33 503.649 1469.97 503.964C1469.6 504.282 1469.17 504.433 1468.65 504.416C1468.14 504.395 1467.57 504.203 1466.94 503.839C1466.25 503.438 1465.63 502.93 1465.1 502.315C1464.57 501.698 1464.15 501.033 1463.83 500.322C1463.52 499.612 1463.33 498.913 1463.27 498.223L1465.62 499.58C1465.69 500.002 1465.85 500.378 1466.09 500.709C1466.32 501.036 1466.61 501.295 1466.94 501.487C1467.55 501.836 1468 501.794 1468.3 501.361C1468.6 500.928 1468.75 500.192 1468.75 499.151L1468.69 499.118C1468.55 499.38 1468.35 499.56 1468.1 499.659C1467.85 499.759 1467.56 499.778 1467.23 499.717C1466.89 499.656 1466.55 499.519 1466.18 499.307C1465.59 498.965 1465.06 498.507 1464.61 497.933C1464.16 497.361 1463.81 496.728 1463.55 496.033C1463.29 495.34 1463.16 494.641 1463.16 493.937C1463.16 493.147 1463.32 492.544 1463.64 492.128C1463.96 491.708 1464.41 491.495 1464.99 491.49C1465.56 491.481 1466.23 491.697 1466.99 492.139ZM1467 494.266C1466.71 494.095 1466.44 494.022 1466.21 494.048C1465.98 494.076 1465.8 494.188 1465.67 494.383C1465.54 494.578 1465.48 494.845 1465.48 495.185C1465.48 495.525 1465.55 495.868 1465.68 496.214C1465.81 496.561 1465.99 496.88 1466.21 497.17C1466.44 497.461 1466.7 497.692 1466.99 497.861C1467.21 497.987 1467.42 498.058 1467.6 498.073C1467.79 498.088 1467.95 498.053 1468.09 497.97C1468.23 497.882 1468.34 497.751 1468.41 497.577C1468.49 497.404 1468.53 497.192 1468.53 496.941C1468.53 496.609 1468.46 496.269 1468.33 495.921C1468.19 495.574 1468.01 495.253 1467.78 494.96C1467.55 494.664 1467.29 494.433 1467 494.266Z" fill="#4B5563"/>
<g filter="url(#filter2_i_2217_1224)">
<path d="M1368.55 398.097L1271.41 342.009C1266.93 339.427 1263.31 341.52 1263.31 346.685L1263.31 481.765C1263.31 486.93 1266.93 493.211 1271.41 495.793L1368.55 551.881C1373.03 554.464 1376.65 552.37 1376.65 547.205L1376.65 412.125C1376.65 406.96 1373.03 400.68 1368.55 398.097Z" fill="#E5E7EB"/>
</g>
<path d="M1628.08 626.463L1427 510.371C1424.23 508.773 1421.99 510.069 1421.99 513.267L1421.99 514.774C1421.99 517.972 1424.23 521.861 1427 523.459L1628.08 639.551C1630.85 641.15 1633.09 639.854 1633.09 636.656L1633.09 635.149C1633.09 631.951 1630.85 628.062 1628.08 626.463Z" fill="#E5E7EB"/>
<path d="M1469.4 695.175L1268.32 579.083C1265.55 577.485 1263.31 578.781 1263.31 581.979L1263.31 583.486C1263.31 586.684 1265.55 590.573 1268.32 592.171L1469.4 708.263C1472.17 709.862 1474.41 708.566 1474.41 705.368L1474.41 703.861C1474.41 700.663 1472.17 696.774 1469.4 695.175Z" fill="#E5E7EB"/>
<path d="M1547.32 606.014L1427 536.548C1424.23 534.95 1421.99 536.246 1421.99 539.444L1421.99 540.951C1421.99 544.149 1424.23 548.038 1427 549.636L1547.32 619.102C1550.09 620.701 1552.33 619.405 1552.33 616.207L1552.33 614.7C1552.33 611.502 1550.09 607.613 1547.32 606.014Z" fill="#E5E7EB"/>
<path d="M1388.64 674.725L1268.32 605.259C1265.55 603.661 1263.31 604.957 1263.31 608.155L1263.31 609.662C1263.31 612.86 1265.55 616.749 1268.32 618.347L1388.64 687.813C1391.41 689.412 1393.65 688.116 1393.65 684.918L1393.65 683.411C1393.65 680.213 1391.41 676.324 1388.64 674.725Z" fill="#E5E7EB"/>
<path d="M1502.74 606.454L1431.9 565.554C1426.43 562.392 1421.99 564.956 1421.99 571.28C1421.99 577.605 1426.43 585.296 1431.9 588.458L1502.74 629.358C1508.22 632.521 1512.66 629.957 1512.66 623.632C1512.66 617.308 1508.22 609.617 1502.74 606.454Z" fill="#D1B6FF"/>
<path d="M1487.17 604L1447.5 581.096C1445.15 579.741 1443.25 580.84 1443.25 583.55L1443.25 583.55C1443.25 586.261 1445.15 589.557 1447.5 590.912L1487.17 613.816C1489.51 615.172 1491.42 614.073 1491.42 611.362C1491.42 608.652 1489.51 605.356 1487.17 604Z" fill="#EBE6FF"/>
<path d="M1492.06 469.408L1427 431.844C1424.23 430.246 1421.99 431.542 1421.99 434.74L1421.99 436.247C1421.99 439.445 1424.23 443.334 1427 444.932L1492.06 482.496C1494.83 484.095 1497.08 482.799 1497.08 479.601L1497.08 478.094C1497.08 474.896 1494.83 471.007 1492.06 469.408Z" fill="#6B7280"/>
<path d="M1333.38 590.471L1268.32 552.908C1265.55 551.309 1263.31 552.605 1263.31 555.803L1263.31 557.31C1263.31 560.508 1265.55 564.397 1268.32 565.996L1333.38 603.559C1336.15 605.158 1338.4 603.862 1338.4 600.664L1338.4 599.157C1338.4 595.959 1336.15 592.07 1333.38 590.471Z" fill="#6B7280"/>
<g filter="url(#filter3_dd_2217_1224)">
<path d="M1290.71 388.271C1291.12 388.03 1291.68 388.084 1292.27 388.422L1356.4 425.358C1357.62 426.062 1358.62 427.779 1358.62 429.191V504.349C1358.62 505.122 1358.31 505.679 1357.79 505.862L1353.08 507.52L1290.65 467.315C1289.51 466.582 1288.61 464.998 1288.56 463.658L1286.28 392.004C1286.26 391.283 1286.49 390.73 1286.92 390.478L1290.71 388.271Z" fill="#D1D5DB"/>
</g>
<g filter="url(#filter4_dd_2217_1224)">
<path d="M1350.98 427.193L1288.65 391.209C1286.54 389.989 1284.83 390.978 1284.83 393.417L1284.83 464.373C1284.83 466.812 1286.54 469.779 1288.65 470.998L1350.98 506.983C1353.09 508.203 1354.8 507.214 1354.8 504.775L1354.8 433.819C1354.8 431.379 1353.09 428.413 1350.98 427.193Z" fill="#E5E7EB"/>
<path d="M1350.98 427.848L1288.66 391.863C1286.86 390.824 1285.4 391.666 1285.4 393.744L1285.4 464.7C1285.4 466.779 1286.86 469.306 1288.66 470.345L1350.98 506.329C1352.78 507.368 1354.24 506.526 1354.24 504.448L1354.24 433.492C1354.24 431.414 1352.78 428.887 1350.98 427.848Z" stroke="white" stroke-width="1.30803"/>
</g>
<mask id="mask3_2217_1224" style="mask-type:alpha" maskUnits="userSpaceOnUse" x="1289" y="398" width="62" height="102">
<path d="M1346.44 429.75L1293.2 399.011C1291.09 397.791 1289.38 398.78 1289.38 401.219L1289.38 461.817C1289.38 464.256 1291.09 467.223 1293.2 468.442L1346.44 499.182C1348.56 500.402 1350.27 499.413 1350.27 496.974L1350.27 436.376C1350.27 433.936 1348.56 430.97 1346.44 429.75Z" fill="white"/>
</mask>
<g mask="url(#mask3_2217_1224)">
<path d="M1332.99 461.166C1333.91 460.31 1335.71 461.354 1336.63 463.271L1354.21 499.944C1355.37 502.355 1354.29 504.25 1352.39 503.152L1317.23 482.855C1315.33 481.757 1314.25 478.619 1315.41 477.542L1332.99 461.166Z" fill="#D1D5DB"/>
<path d="M1305.18 434.354C1306.09 433.498 1307.9 434.542 1308.82 436.458L1333.63 488.227C1334.79 490.638 1333.71 492.533 1331.81 491.435L1282.19 462.783C1280.28 461.685 1279.21 458.547 1280.36 457.47L1305.18 434.354Z" fill="#9CA3AF"/>
<path d="M1326.56 447.701C1330.96 450.242 1334.53 448.234 1334.53 443.214C1334.53 438.195 1330.96 432.066 1326.56 429.524C1322.16 426.983 1318.59 428.991 1318.59 434.011C1318.59 439.03 1322.16 445.159 1326.56 447.701Z" fill="#9CA3AF"/>
</g>
<g filter="url(#filter5_d_2217_1224)">
<path d="M1203.27 222.129C1203.27 220.377 1204.5 219.666 1206.02 220.543L1670.97 488.98C1672.49 489.856 1673.72 491.987 1673.72 493.74V524.523L1203.27 252.912V222.129Z" fill="#F9FAFB"/>
<mask id="mask4_2217_1224" style="mask-type:luminance" maskUnits="userSpaceOnUse" x="1199" y="212" width="479" height="315">
<path d="M1677.85 212.956H1199.81V526.956H1677.85V212.956Z" fill="white"/>
<path d="M1203.27 222.129C1203.27 220.377 1204.5 219.666 1206.02 220.543L1670.97 488.98C1672.49 489.856 1673.72 491.987 1673.72 493.74V524.523L1203.27 252.912V222.129Z" fill="white"/>
</mask>
<g mask="url(#mask4_2217_1224)">
<path d="M1199.88 220.167C1199.88 216.248 1202.63 214.659 1206.02 216.619L1670.97 485.056C1674.36 487.016 1677.12 491.782 1677.12 495.702L1670.32 492.528L1206.67 224.842L1199.88 220.167ZM1199.88 250.95V220.167C1199.88 216.248 1202.63 214.659 1206.02 216.619L1206.67 224.842V254.874L1199.88 250.95ZM1670.97 485.056C1674.36 487.016 1677.12 491.782 1677.12 495.702V526.485L1670.32 522.561V492.528L1670.97 485.056Z" fill="white"/>
</g>
</g>
<path d="M1217.85 246.616C1219.68 247.667 1221.15 246.815 1221.15 244.712C1221.15 242.608 1219.68 240.051 1217.85 238.999C1216.03 237.948 1214.56 238.8 1214.56 240.903C1214.56 243.007 1216.03 245.564 1217.85 246.616Z" fill="#EF4444"/>
<path d="M1228.85 252.963C1230.68 254.014 1232.15 253.162 1232.15 251.059C1232.15 248.955 1230.68 246.398 1228.85 245.346C1227.03 244.295 1225.56 245.147 1225.56 247.25C1225.56 249.354 1227.03 251.911 1228.85 252.963Z" fill="#F59E0B"/>
<path d="M1239.84 259.31C1241.67 260.361 1243.14 259.509 1243.14 257.406C1243.14 255.302 1241.67 252.745 1239.84 251.693C1238.02 250.642 1236.55 251.494 1236.55 253.597C1236.55 255.701 1238.02 258.258 1239.84 259.31Z" fill="#10B981"/>
<path d="M1564.31 436.573L1331.15 301.956C1329.66 301.094 1328.45 301.793 1328.45 303.515L1328.45 312.87C1328.45 314.593 1329.66 316.687 1331.15 317.548L1564.31 452.166C1565.8 453.027 1567.01 452.329 1567.01 450.606L1567.01 441.251C1567.01 439.529 1565.8 437.434 1564.31 436.573Z" fill="#E5E7EB"/>
</g>
<g opacity="0.06" filter="url(#filter6_f_2217_1224)">
<path d="M969.034 608.904L1189.2 736.018L1049.34 816.768C1044.01 819.847 1035.36 819.847 1030.03 816.768L829.171 700.804C823.838 697.725 823.838 692.734 829.171 689.655L969.034 608.904Z" fill="url(#paint3_linear_2217_1224)"/>
</g>
<g filter="url(#filter7_dd_2217_1224)">
<path d="M986.591 325.434C989.228 324.062 992.723 324.459 996.361 326.542L1200.93 443.694C1203.56 445.201 1205.7 448.897 1205.7 451.936V676.944C1205.7 681.984 1203.84 685.714 1200.59 687.202L1185.33 694.188C1184.37 694.631 1183.08 694.391 1181.79 693.524L994.688 568.405C992.382 566.863 990.542 563.703 990.331 560.921L973.17 335.296C973.037 333.547 973.574 332.207 974.628 331.658L986.591 325.434Z" fill="#E5E7EB"/>
</g>
<g filter="url(#filter8_d_2217_1224)">
<path d="M1181.21 452.022L975.715 333.381C973.09 331.866 970.963 333.094 970.963 336.125L970.963 567.587C970.963 570.618 973.09 574.303 975.715 575.818L1181.21 694.459C1183.83 695.974 1185.96 694.746 1185.96 691.715L1185.96 460.253C1185.96 457.222 1183.83 453.537 1181.21 452.022Z" fill="url(#paint4_linear_2217_1224)"/>
<path d="M1181.21 453.288L975.715 334.648C973.697 333.482 972.061 334.427 972.061 336.758L972.061 568.22C972.061 570.551 973.697 573.385 975.715 574.551L1181.21 693.191C1183.23 694.357 1184.86 693.412 1184.86 691.081L1184.86 459.619C1184.86 457.288 1183.23 454.454 1181.21 453.288Z" stroke="white" stroke-width="2.53395"/>
</g>
<path d="M1159.37 580.028L999.23 487.571C996.605 486.056 994.478 487.284 994.478 490.315L994.478 508.433C994.478 511.463 996.605 515.148 999.23 516.663L1159.37 609.121C1161.99 610.636 1164.12 609.408 1164.12 606.377L1164.12 588.259C1164.12 585.229 1161.99 581.543 1159.37 580.028Z" fill="#E5E7EB"/>
<path d="M1012.04 512.722V506.071L1012.91 506.573V509.749L1012.98 509.789L1015.4 508.008L1016.49 508.64L1014.17 510.293L1016.5 515.296L1015.45 514.692L1013.59 510.645L1012.91 511.155V513.224L1012.04 512.722ZM1018.73 516.688C1018.33 516.454 1017.98 516.143 1017.67 515.754C1017.37 515.366 1017.14 514.93 1016.97 514.449C1016.8 513.967 1016.72 513.468 1016.72 512.953C1016.72 512.436 1016.8 512.031 1016.97 511.74C1017.14 511.449 1017.37 511.283 1017.67 511.243C1017.98 511.203 1018.33 511.3 1018.73 511.534C1019.14 511.768 1019.49 512.079 1019.79 512.468C1020.1 512.856 1020.33 513.293 1020.5 513.776C1020.66 514.26 1020.75 514.761 1020.75 515.278C1020.75 515.794 1020.66 516.196 1020.5 516.485C1020.33 516.774 1020.1 516.939 1019.79 516.979C1019.49 517.019 1019.14 516.922 1018.73 516.688ZM1018.74 515.874C1019 516.026 1019.22 516.071 1019.39 516.011C1019.56 515.95 1019.69 515.811 1019.77 515.592C1019.86 515.374 1019.9 515.105 1019.9 514.785C1019.9 514.467 1019.86 514.15 1019.77 513.835C1019.69 513.519 1019.56 513.23 1019.39 512.968C1019.22 512.706 1019 512.499 1018.74 512.347C1018.47 512.195 1018.25 512.149 1018.08 512.211C1017.91 512.274 1017.78 512.415 1017.69 512.635C1017.61 512.854 1017.57 513.122 1017.57 513.44C1017.57 513.761 1017.61 514.078 1017.69 514.392C1017.78 514.707 1017.91 514.994 1018.08 515.254C1018.25 515.515 1018.47 515.722 1018.74 515.874ZM1021.69 518.292V513.303L1022.5 513.773V514.565L1022.54 514.591C1022.62 514.368 1022.76 514.237 1022.96 514.198C1023.16 514.158 1023.39 514.211 1023.64 514.357C1023.69 514.388 1023.76 514.426 1023.83 514.471C1023.9 514.518 1023.96 514.556 1024 514.586V515.515C1023.96 515.485 1023.9 515.438 1023.82 515.376C1023.73 515.311 1023.65 515.253 1023.56 515.203C1023.36 515.089 1023.18 515.035 1023.03 515.043C1022.87 515.049 1022.75 515.112 1022.66 515.231C1022.57 515.348 1022.53 515.515 1022.53 515.731V518.777L1021.69 518.292ZM1027 516.37V517.15L1024.64 515.787V515.008L1027 516.37ZM1025.27 514.178L1026.11 514.663V519.382C1026.11 519.571 1026.14 519.727 1026.19 519.85C1026.23 519.971 1026.3 520.071 1026.37 520.15C1026.45 520.228 1026.54 520.294 1026.63 520.347C1026.7 520.386 1026.76 520.415 1026.81 520.433C1026.86 520.451 1026.9 520.465 1026.93 520.475L1027.08 521.365C1027.03 521.359 1026.96 521.34 1026.87 521.31C1026.78 521.282 1026.67 521.23 1026.53 521.154C1026.31 521.031 1026.1 520.866 1025.91 520.66C1025.72 520.455 1025.57 520.218 1025.45 519.951C1025.33 519.683 1025.27 519.399 1025.27 519.098V514.178ZM1027.93 521.896V516.907L1028.77 517.393V522.381L1027.93 521.896ZM1028.35 516.383C1028.21 516.298 1028.08 516.169 1027.98 515.996C1027.87 515.822 1027.82 515.656 1027.82 515.498C1027.82 515.337 1027.87 515.231 1027.98 515.178C1028.08 515.124 1028.21 515.139 1028.35 515.223C1028.5 515.308 1028.62 515.437 1028.73 515.611C1028.83 515.785 1028.88 515.951 1028.88 516.112C1028.88 516.27 1028.83 516.376 1028.73 516.43C1028.62 516.483 1028.5 516.467 1028.35 516.383ZM1030.74 520.558V523.52L1029.9 523.034V518.046L1030.71 518.512V519.324L1030.76 519.355C1030.86 519.148 1031.02 519.026 1031.23 518.988C1031.44 518.951 1031.71 519.026 1032.04 519.213C1032.33 519.383 1032.59 519.604 1032.81 519.874C1033.03 520.143 1033.2 520.452 1033.32 520.802C1033.45 521.151 1033.51 521.532 1033.51 521.943V525.116L1032.67 524.631V521.575C1032.67 521.213 1032.58 520.883 1032.42 520.586C1032.26 520.286 1032.03 520.054 1031.75 519.889C1031.55 519.776 1031.38 519.725 1031.23 519.735C1031.08 519.746 1030.96 519.82 1030.87 519.957C1030.78 520.094 1030.74 520.294 1030.74 520.558ZM1036.45 528.788C1036.1 528.59 1035.81 528.367 1035.56 528.12C1035.31 527.874 1035.11 527.621 1034.96 527.36C1034.8 527.099 1034.69 526.845 1034.61 526.597L1035.33 526.67C1035.38 526.795 1035.45 526.934 1035.53 527.089C1035.62 527.247 1035.74 527.406 1035.88 527.567C1036.03 527.728 1036.22 527.876 1036.45 528.01C1036.77 528.194 1037.04 528.256 1037.24 528.197C1037.45 528.139 1037.56 527.916 1037.56 527.526V526.545L1037.5 526.514C1037.45 526.591 1037.38 526.667 1037.28 526.742C1037.19 526.817 1037.06 526.855 1036.9 526.855C1036.73 526.855 1036.52 526.779 1036.25 526.626C1035.91 526.429 1035.6 526.16 1035.33 525.818C1035.06 525.474 1034.84 525.076 1034.68 524.622C1034.52 524.168 1034.45 523.675 1034.45 523.145C1034.45 522.614 1034.52 522.205 1034.68 521.916C1034.84 521.628 1035.05 521.462 1035.33 521.419C1035.6 521.373 1035.91 521.451 1036.26 521.651C1036.53 521.806 1036.74 521.983 1036.91 522.182C1037.07 522.379 1037.2 522.572 1037.29 522.762C1037.39 522.952 1037.46 523.114 1037.51 523.247L1037.57 523.283V522.474L1038.39 522.95V528.049C1038.39 528.477 1038.31 528.78 1038.14 528.955C1037.96 529.13 1037.73 529.199 1037.44 529.161C1037.14 529.124 1036.81 529 1036.45 528.788ZM1036.44 525.928C1036.68 526.068 1036.88 526.121 1037.05 526.087C1037.22 526.053 1037.35 525.938 1037.43 525.743C1037.52 525.547 1037.57 525.277 1037.57 524.933C1037.57 524.597 1037.52 524.277 1037.44 523.971C1037.35 523.666 1037.22 523.394 1037.06 523.155C1036.89 522.913 1036.68 522.722 1036.44 522.58C1036.18 522.434 1035.97 522.388 1035.8 522.442C1035.64 522.494 1035.51 522.624 1035.42 522.831C1035.34 523.04 1035.3 523.304 1035.3 523.622C1035.3 523.949 1035.34 524.261 1035.42 524.558C1035.51 524.854 1035.64 525.12 1035.81 525.356C1035.98 525.594 1036.19 525.784 1036.44 525.928ZM1042.76 526.688L1042 526.404C1041.97 526.273 1041.92 526.136 1041.85 525.995C1041.78 525.854 1041.69 525.717 1041.57 525.585C1041.45 525.453 1041.31 525.337 1041.13 525.236C1040.9 525.099 1040.7 525.046 1040.54 525.077C1040.38 525.106 1040.3 525.217 1040.3 525.41C1040.3 525.577 1040.35 525.742 1040.46 525.905C1040.57 526.069 1040.74 526.252 1040.98 526.454L1041.66 527.032C1042.06 527.368 1042.36 527.702 1042.55 528.036C1042.75 528.369 1042.84 528.712 1042.84 529.065C1042.84 529.364 1042.77 529.587 1042.62 529.734C1042.47 529.88 1042.26 529.943 1042 529.921C1041.73 529.901 1041.43 529.79 1041.08 529.588C1040.59 529.309 1040.2 528.962 1039.89 528.547C1039.59 528.131 1039.4 527.681 1039.33 527.2L1040.14 527.526C1040.19 527.8 1040.3 528.045 1040.46 528.262C1040.61 528.476 1040.82 528.656 1041.07 528.802C1041.35 528.961 1041.57 529.023 1041.73 528.986C1041.9 528.947 1041.98 528.831 1041.98 528.638C1041.98 528.482 1041.93 528.322 1041.83 528.158C1041.73 527.994 1041.58 527.826 1041.37 527.653L1040.64 527.045C1040.24 526.706 1039.94 526.365 1039.74 526.022C1039.55 525.68 1039.46 525.332 1039.46 524.976C1039.46 524.682 1039.53 524.466 1039.67 524.327C1039.81 524.188 1040.01 524.13 1040.26 524.152C1040.51 524.171 1040.8 524.274 1041.13 524.462C1041.59 524.731 1041.96 525.06 1042.23 525.449C1042.5 525.835 1042.67 526.248 1042.76 526.688ZM1047.68 533.403C1047.27 533.161 1046.91 532.844 1046.6 532.451C1046.3 532.057 1046.07 531.62 1045.91 531.139C1045.75 530.658 1045.67 530.168 1045.67 529.668C1045.67 529.161 1045.75 528.762 1045.92 528.469C1046.08 528.175 1046.32 528.005 1046.62 527.959C1046.92 527.914 1047.27 528.009 1047.68 528.244C1048 528.433 1048.3 528.672 1048.55 528.961C1048.81 529.248 1049.02 529.563 1049.18 529.905C1049.33 530.248 1049.43 530.596 1049.46 530.949L1048.64 530.476C1048.6 530.217 1048.49 529.956 1048.33 529.694C1048.17 529.433 1047.96 529.225 1047.69 529.07C1047.46 528.935 1047.25 528.888 1047.07 528.929C1046.9 528.969 1046.76 529.092 1046.67 529.298C1046.57 529.501 1046.52 529.78 1046.52 530.135C1046.52 530.499 1046.57 530.841 1046.66 531.16C1046.76 531.479 1046.89 531.762 1047.07 532.008C1047.25 532.255 1047.45 532.447 1047.69 532.584C1047.85 532.676 1047.99 532.726 1048.12 532.734C1048.25 532.74 1048.36 532.705 1048.45 532.628C1048.54 532.552 1048.61 532.435 1048.64 532.276L1049.46 532.748C1049.43 533.053 1049.34 533.289 1049.19 533.455C1049.03 533.62 1048.83 533.702 1048.58 533.7C1048.32 533.699 1048.03 533.6 1047.68 533.403ZM1052.18 535.997C1051.77 535.763 1051.42 535.452 1051.12 535.063C1050.82 534.675 1050.58 534.24 1050.42 533.758C1050.25 533.276 1050.16 532.778 1050.16 532.262C1050.16 531.745 1050.25 531.34 1050.42 531.049C1050.58 530.758 1050.82 530.592 1051.12 530.552C1051.42 530.512 1051.77 530.609 1052.18 530.843C1052.58 531.077 1052.94 531.388 1053.24 531.777C1053.54 532.165 1053.78 532.602 1053.94 533.086C1054.11 533.569 1054.19 534.07 1054.19 534.588C1054.19 535.103 1054.11 535.505 1053.94 535.794C1053.78 536.083 1053.54 536.248 1053.24 536.288C1052.94 536.328 1052.58 536.231 1052.18 535.997ZM1052.18 535.184C1052.44 535.335 1052.66 535.381 1052.83 535.32C1053.01 535.259 1053.13 535.12 1053.22 534.901C1053.3 534.683 1053.34 534.414 1053.34 534.094C1053.34 533.776 1053.3 533.459 1053.22 533.144C1053.13 532.828 1053.01 532.539 1052.83 532.277C1052.66 532.015 1052.44 531.808 1052.18 531.657C1051.92 531.504 1051.7 531.458 1051.52 531.52C1051.35 531.583 1051.22 531.724 1051.14 531.944C1051.06 532.163 1051.01 532.431 1051.01 532.749C1051.01 533.07 1051.06 533.387 1051.14 533.701C1051.22 534.016 1051.35 534.303 1051.52 534.563C1051.7 534.824 1051.92 535.031 1052.18 535.184ZM1056.75 538.632C1056.4 538.431 1056.09 538.148 1055.81 537.785C1055.54 537.42 1055.33 537.001 1055.17 536.528C1055.02 536.054 1054.94 535.547 1054.94 535.008C1054.94 534.469 1055.02 534.052 1055.18 533.759C1055.33 533.467 1055.55 533.298 1055.82 533.252C1056.1 533.207 1056.41 533.284 1056.75 533.485C1057.02 533.639 1057.24 533.816 1057.4 534.014C1057.57 534.211 1057.69 534.404 1057.78 534.592C1057.88 534.782 1057.95 534.943 1058 535.076L1058.05 535.105V532.634L1058.89 533.119V539.771L1058.07 539.296V538.52L1058 538.48C1057.95 538.556 1057.87 538.635 1057.78 538.717C1057.68 538.799 1057.55 538.843 1057.39 538.85C1057.22 538.856 1057.01 538.784 1056.75 538.632ZM1056.93 537.911C1057.18 538.051 1057.38 538.095 1057.55 538.044C1057.72 537.992 1057.84 537.859 1057.93 537.645C1058.02 537.432 1058.06 537.15 1058.06 536.799C1058.06 536.452 1058.02 536.124 1057.93 535.815C1057.85 535.505 1057.72 535.23 1057.55 534.988C1057.39 534.747 1057.18 534.555 1056.93 534.413C1056.68 534.267 1056.47 534.221 1056.3 534.275C1056.13 534.33 1056 534.463 1055.92 534.675C1055.83 534.888 1055.79 535.159 1055.79 535.488C1055.79 535.822 1055.84 536.147 1055.92 536.463C1056.01 536.779 1056.14 537.064 1056.3 537.317C1056.47 537.569 1056.68 537.767 1056.93 537.911ZM1061.95 541.639C1061.53 541.393 1061.16 541.077 1060.85 540.689C1060.55 540.301 1060.31 539.866 1060.14 539.387C1059.98 538.906 1059.89 538.407 1059.89 537.89C1059.89 537.379 1059.98 536.976 1060.14 536.682C1060.31 536.388 1060.54 536.218 1060.84 536.172C1061.14 536.126 1061.49 536.219 1061.89 536.451C1062.14 536.592 1062.37 536.775 1062.6 537C1062.83 537.225 1063.03 537.49 1063.22 537.794C1063.4 538.098 1063.54 538.44 1063.65 538.819C1063.75 539.195 1063.8 539.61 1063.8 540.062V540.407L1060.37 538.424V537.696L1062.98 539.203C1062.98 538.948 1062.94 538.696 1062.85 538.447C1062.76 538.196 1062.63 537.965 1062.47 537.757C1062.3 537.549 1062.11 537.382 1061.9 537.256C1061.66 537.12 1061.45 537.068 1061.28 537.1C1061.1 537.132 1060.97 537.227 1060.87 537.386C1060.78 537.544 1060.73 537.748 1060.73 537.997V538.565C1060.73 538.899 1060.78 539.211 1060.88 539.504C1060.99 539.797 1061.13 540.059 1061.32 540.288C1061.5 540.515 1061.71 540.7 1061.96 540.842C1062.12 540.934 1062.26 540.992 1062.4 541.016C1062.53 541.037 1062.64 541.023 1062.74 540.972C1062.83 540.921 1062.9 540.832 1062.96 540.705L1063.75 541.331C1063.69 541.564 1063.57 541.735 1063.41 541.844C1063.24 541.951 1063.04 541.989 1062.79 541.959C1062.55 541.928 1062.27 541.821 1061.95 541.639Z" fill="#6B7280"/>
<path d="M1124 577.363V570.712L1127.61 572.797V573.66L1124.87 572.077V574.104L1127.42 575.578V576.439L1124.87 574.964V577.001L1127.65 578.603V579.467L1124 577.363ZM1133.42 576.151V582.802L1132.62 582.341L1129.7 575.773L1129.64 575.742V580.62L1128.77 580.118V573.467L1129.58 573.931L1132.51 580.508L1132.56 580.539V575.654L1133.42 576.151ZM1134.41 577.583V576.719L1138.86 579.293V580.157L1137.07 579.119V584.906L1136.2 584.406V578.619L1134.41 577.583ZM1139.85 586.513V579.861L1143.46 581.946V582.81L1140.72 581.227V583.254L1143.27 584.728V585.589L1140.72 584.114V586.151L1143.49 587.753V588.617L1139.85 586.513ZM1144.62 589.268V582.617L1146.67 583.802C1147.12 584.06 1147.49 584.362 1147.79 584.71C1148.08 585.058 1148.3 585.432 1148.45 585.83C1148.6 586.227 1148.67 586.629 1148.67 587.038C1148.67 587.445 1148.59 587.761 1148.45 587.985C1148.3 588.208 1148.08 588.32 1147.78 588.32C1147.49 588.321 1147.12 588.192 1146.67 587.935L1145.12 587.037V586.173L1146.59 587.025C1146.87 587.188 1147.1 587.273 1147.28 587.282C1147.46 587.292 1147.59 587.232 1147.67 587.102C1147.75 586.972 1147.79 586.782 1147.79 586.533C1147.79 586.282 1147.75 586.04 1147.67 585.808C1147.58 585.576 1147.45 585.36 1147.28 585.16C1147.1 584.958 1146.87 584.775 1146.58 584.609L1145.49 583.979V589.77L1144.62 589.268ZM1147.46 587.909L1148.89 591.731L1147.9 591.16L1146.5 587.353L1147.46 587.909Z" fill="#10B981"/>
<path d="M1159.37 619.787L999.23 527.33C996.605 525.815 994.478 527.043 994.478 530.074L994.478 548.192C994.478 551.222 996.605 554.907 999.23 556.422L1159.37 648.88C1161.99 650.395 1164.12 649.167 1164.12 646.136L1164.12 628.018C1164.12 624.988 1161.99 621.302 1159.37 619.787Z" fill="#6B7280"/>
<path d="M1141.87 619.381L1043.61 562.65C1041.05 561.177 1038.99 562.371 1038.99 565.317C1038.99 568.263 1041.05 571.845 1043.61 573.317L1141.87 630.048C1144.42 631.521 1146.48 630.327 1146.48 627.381C1146.48 624.435 1144.42 620.853 1141.87 619.381Z" fill="#9CA3AF"/>
<path d="M1014.82 554.411C1014.5 554.222 1012.54 553.091 1012.21 552.902C1011.88 552.714 1011.56 552.144 1011.56 551.763C1011.56 551.382 1011.88 551.19 1012.21 551.379C1012.54 551.567 1014.5 552.698 1014.82 552.887C1015.15 553.076 1015.48 553.645 1015.48 554.026C1015.48 554.407 1015.15 554.599 1014.82 554.411Z" fill="white"/>
<path fill-rule="evenodd" clip-rule="evenodd" d="M1021.35 552.849C1021.35 551.165 1020.18 549.125 1018.74 548.292L1012.21 544.521C1010.77 543.688 1009.6 544.377 1009.6 546.06V550.632C1009.6 552.315 1010.77 554.355 1012.21 555.188L1018.74 558.959C1020.18 559.793 1021.35 559.103 1021.35 557.42V552.849ZM1020.05 553.618L1010.9 548.338V551.081C1010.9 551.943 1010.9 552.374 1011.14 552.776C1011.37 553.178 1011.74 553.394 1012.49 553.825L1018.46 557.275C1019.21 557.706 1019.58 557.922 1019.82 557.788C1020.05 557.654 1020.05 557.223 1020.05 556.361V553.618ZM1014.82 554.411L1012.21 552.902C1011.88 552.714 1011.56 552.144 1011.56 551.763C1011.56 551.382 1011.88 551.19 1012.21 551.379L1014.82 552.887C1015.15 553.076 1015.48 553.645 1015.48 554.026C1015.48 554.407 1015.15 554.599 1014.82 554.411ZM1020.05 552.094L1010.9 546.815C1010.9 546.245 1010.9 545.96 1011.01 545.809C1011.08 545.71 1011.18 545.652 1011.3 545.642C1011.48 545.625 1011.73 545.768 1012.22 546.053L1018.73 549.808C1019.22 550.093 1019.47 550.236 1019.65 550.464C1019.77 550.614 1019.87 550.787 1019.94 550.967C1020.05 551.24 1020.05 551.525 1020.05 552.094Z" fill="white"/>
<path d="M1100.58 433.596L1002.59 377.019C999.965 375.504 997.837 376.732 997.837 379.763L997.837 383.334C997.837 386.365 999.965 390.05 1002.59 391.565L1100.58 448.142C1103.21 449.657 1105.33 448.429 1105.33 445.398L1105.33 441.827C1105.33 438.796 1103.21 435.111 1100.58 433.596Z" fill="#6B7280"/>
<path d="M1100.58 459.78L1002.59 403.203C999.965 401.688 997.837 402.916 997.837 405.947L997.837 406.609C997.837 409.64 999.965 413.325 1002.59 414.84L1100.58 471.417C1103.21 472.932 1105.33 471.704 1105.33 468.673L1105.33 468.011C1105.33 464.98 1103.21 461.295 1100.58 459.78Z" fill="#E5E7EB"/>
<path d="M1100.58 477.235L1002.59 420.658C999.965 419.143 997.837 420.371 997.837 423.402L997.837 424.064C997.837 427.095 999.965 430.78 1002.59 432.295L1100.58 488.872C1103.21 490.387 1105.33 489.159 1105.33 486.128L1105.33 485.466C1105.33 482.435 1103.21 478.75 1100.58 477.235Z" fill="#E5E7EB"/>
<path d="M1031.72 454.931L1002.59 438.114C999.965 436.599 997.837 437.827 997.837 440.858L997.837 441.52C997.837 444.551 999.965 448.236 1002.59 449.751L1031.72 466.568C1034.34 468.083 1036.47 466.855 1036.47 463.824L1036.47 463.162C1036.47 460.131 1034.34 456.446 1031.72 454.931Z" fill="#E5E7EB"/>
<path d="M1155.17 526.207L1130.24 511.814C1127.61 510.299 1125.49 511.527 1125.49 514.558L1125.49 515.22C1125.49 518.251 1127.61 521.936 1130.24 523.451L1155.17 537.844C1157.79 539.359 1159.92 538.13 1159.92 535.1L1159.92 534.437C1159.92 531.407 1157.79 527.722 1155.17 526.207Z" fill="#E5E7EB"/>
<path d="M1155.17 508.753L1145.36 503.088C1142.73 501.573 1140.61 502.801 1140.61 505.832L1140.61 506.494C1140.61 509.525 1142.73 513.21 1145.36 514.725L1155.17 520.39C1157.79 521.905 1159.92 520.677 1159.92 517.646L1159.92 516.984C1159.92 513.953 1157.79 510.268 1155.17 508.753Z" fill="#10B981"/>
<path d="M1155.17 491.296L1145.36 485.631C1142.73 484.116 1140.61 485.344 1140.61 488.375L1140.61 489.037C1140.61 492.068 1142.73 495.753 1145.36 497.268L1155.17 502.933C1157.79 504.448 1159.92 503.22 1159.92 500.189L1159.92 499.527C1159.92 496.496 1157.79 492.811 1155.17 491.296Z" fill="#E5E7EB"/>
<path d="M1069.17 770.36L1069.13 774.283C1069.13 775.014 1068.66 775.78 1067.64 776.354L1022.02 802.877C1020.04 804.024 1016.79 804.024 1014.78 802.877L936.293 757.546C935.273 756.972 934.763 756.206 934.763 755.442V751.552C934.763 752.318 935.273 753.082 936.293 753.656L1014.78 798.988C1016.79 800.136 1020.04 800.136 1022.02 798.988L1067.67 772.464C1068.66 771.892 1069.17 771.126 1069.17 770.36Z" fill="#7F7DE2"/>
<path d="M1067.64 768.256C1069.65 769.419 1069.66 771.299 1067.66 772.463L1022.02 798.985C1020.04 800.137 1016.79 800.137 1014.78 798.974L936.292 753.662C934.277 752.498 934.265 750.618 936.248 749.466L981.887 722.944C983.889 721.78 987.134 721.781 989.149 722.944L1067.64 768.256Z" fill="#9492FE"/>
<path d="M1039.62 788.813L1026.9 796.202L941.149 746.695L953.869 739.303L1039.62 788.813Z" fill="#DCE3E6"/>
<path d="M1056.14 766.449C1056.22 766.494 1056.27 766.551 1056.29 766.616C1056.82 767.602 1058.01 769.134 1060.79 771.097C1061.01 771.25 1061 771.478 1060.76 771.617C1057.52 773.544 1049.51 777.496 1041 775.475C1040.92 775.453 1040.84 775.42 1040.77 775.381C1040.7 775.342 1040.64 775.296 1040.61 775.247C1037.09 770.322 1043.88 765.666 1047.2 763.789C1047.45 763.654 1047.84 763.65 1048.1 763.771C1051.49 765.37 1054.15 766.056 1055.84 766.356C1055.96 766.372 1056.06 766.404 1056.14 766.449Z" fill="#60C3EF"/>
<path d="M962.452 738.795C962.45 738.93 962.638 739.039 962.87 739.038C963.039 739.039 963.29 738.963 963.291 738.795C963.305 736.318 967.05 735.183 969.548 735.182C969.664 735.182 969.769 735.155 969.845 735.111C969.921 735.067 969.969 735.006 969.969 734.939C969.97 734.805 969.782 734.696 969.551 734.696C966.704 734.695 962.465 735.993 962.452 738.795Z" fill="#8492FA"/>
<path d="M964.131 738.796C964.13 738.93 964.318 739.039 964.549 739.039C964.718 739.039 964.97 738.963 964.971 738.795C964.981 736.99 967.705 736.155 969.543 736.155C969.659 736.155 969.764 736.128 969.84 736.084C969.916 736.04 969.963 735.979 969.964 735.912C969.966 735.778 969.778 735.669 969.546 735.669C967.378 735.668 964.14 736.656 964.131 738.796Z" fill="#8492FA"/>
<path d="M966.229 739.039C966.343 739.039 966.449 739.011 966.525 738.967C966.602 738.923 966.649 738.862 966.649 738.796C966.654 737.654 968.381 737.128 969.537 737.128C969.653 737.128 969.759 737.101 969.835 737.056C969.911 737.012 969.959 736.952 969.959 736.885C969.959 736.75 969.771 736.641 969.54 736.641C966.233 736.642 965.058 739.038 966.229 739.039Z" fill="#8492FA"/>
<path d="M967.488 738.796C967.488 738.93 967.675 739.039 967.906 739.039C968.023 739.039 968.129 739.011 968.205 738.967C968.281 738.924 968.328 738.863 968.328 738.795C968.33 738.32 969.051 738.101 969.532 738.1C969.648 738.1 969.753 738.073 969.829 738.029C969.905 737.985 969.952 737.924 969.953 737.857C969.953 737.723 969.766 737.614 969.535 737.614C968.718 737.615 967.495 737.986 967.488 738.796ZM969.224 738.618C968.953 738.775 968.951 739.03 969.221 739.187C969.492 739.344 969.93 739.343 970.202 739.187C970.473 739.03 970.476 738.776 970.205 738.618C969.935 738.461 969.496 738.461 969.224 738.618Z" fill="#8492FA"/>
<path d="M981.738 734.61L981.522 734.734L979.537 735.887L979.109 735.641L981.091 734.487L981.307 734.361L981.738 734.61Z" fill="#485E69"/>
<path d="M990.824 729.329L988.834 730.486L988.618 730.612L988.19 730.363L988.405 730.237L990.39 729.083L990.824 729.329Z" fill="#485E69"/>
<path d="M988.62 730.611L988.836 730.485L992.225 732.442C991.719 732.193 991.125 732.026 990.489 731.94L983.559 727.939L983.991 727.688L988.406 730.237L988.19 730.362L988.62 730.611ZM980.211 729.885L985.451 732.91C985.31 732.997 985.179 733.086 985.058 733.178L979.783 730.133L980.211 729.885Z" fill="#485E69"/>
<path d="M992.46 732.567C992.384 732.523 992.305 732.482 992.224 732.442L988.835 730.485L990.819 729.332L998.046 733.504L996.061 734.657L992.677 732.703C992.608 732.657 992.536 732.611 992.46 732.567Z" fill="#FDE081"/>
<path d="M998.485 733.754L996.494 734.907L996.279 735.033L995.845 734.784L996.06 734.658L998.046 733.504L998.485 733.754Z" fill="#485E69"/>
<path d="M976.678 731.937L981.093 734.486L979.109 735.64L975.868 733.768C975.207 733.387 975.208 732.786 975.842 732.418L984.813 727.205C985.451 726.834 986.488 726.831 987.149 727.213L990.39 729.084L988.405 730.237L983.99 727.688L983.559 727.939L990.489 731.94C988.862 731.72 986.963 732.028 985.572 732.837C985.531 732.861 985.49 732.885 985.45 732.91L980.21 729.885L979.783 730.133L985.058 733.178C984.056 733.939 983.706 734.873 984.04 735.688L977.11 731.686L976.678 731.937Z" fill="#FDE081"/>
<path d="M977.11 731.686L984.04 735.687C984.19 736.055 984.48 736.399 984.912 736.691L981.523 734.735L981.739 734.609L981.309 734.361L981.093 734.486L976.678 731.937L977.11 731.686Z" fill="#485E69"/>
<path d="M993.549 733.707C993.933 734.647 993.404 735.747 992.013 736.555C991.971 736.579 991.929 736.603 991.887 736.626C991.738 736.708 991.584 736.784 991.425 736.854C990.116 737.437 988.507 737.644 987.1 737.454C986.465 737.369 985.871 737.202 985.365 736.953C985.284 736.913 985.206 736.871 985.129 736.827C985.053 736.783 984.981 736.738 984.912 736.691C984.48 736.399 984.19 736.055 984.04 735.688C983.706 734.873 984.056 733.939 985.058 733.178C985.179 733.086 985.31 732.997 985.45 732.91C985.49 732.885 985.531 732.861 985.573 732.837C986.964 732.028 988.862 731.72 990.489 731.94C991.124 732.026 991.718 732.193 992.225 732.442C992.305 732.482 992.384 732.523 992.46 732.567C992.536 732.611 992.608 732.657 992.677 732.703C993.109 732.996 993.399 733.339 993.549 733.707ZM985.58 736.566C987.101 737.444 989.787 737.324 991.56 736.293C993.332 735.263 993.531 733.707 992.01 732.829C990.484 731.948 987.803 732.071 986.03 733.101C984.257 734.131 984.054 735.685 985.58 736.566Z" fill="#485E69"/>
<path d="M992.01 732.829C993.531 733.707 993.333 735.263 991.56 736.293C989.787 737.324 987.101 737.444 985.58 736.566C984.054 735.685 984.257 734.131 986.03 733.101C987.803 732.071 990.485 731.948 992.01 732.829Z" fill="#FDE081"/>
<path d="M996.496 734.908L1000.91 737.457L1000.48 737.708L993.549 733.707C993.399 733.339 993.109 732.996 992.677 732.703L996.062 734.657L995.846 734.783L996.28 735.034L996.496 734.908Z" fill="#485E69"/>
<path d="M992.013 736.555C993.404 735.747 993.933 734.647 993.549 733.706L1000.48 737.708L997.132 739.654L991.887 736.626C991.929 736.603 991.971 736.579 992.013 736.555Z" fill="#FDE081"/>
<path d="M991.886 736.626L997.131 739.654L996.704 739.902L991.425 736.854C991.583 736.784 991.738 736.708 991.886 736.626Z" fill="#485E69"/>
<path d="M985.365 736.953L988.75 738.907L986.765 740.06L979.539 735.888L981.524 734.735L984.912 736.691C984.981 736.738 985.054 736.783 985.13 736.827C985.206 736.871 985.285 736.913 985.365 736.953Z" fill="#FDE081"/>
<path d="M989.4 739.031L989.184 739.157L987.199 740.311L986.765 740.059L988.75 738.905L988.966 738.782L989.4 739.031Z" fill="#485E69"/>
<path d="M987.1 737.454C988.507 737.644 990.116 737.437 991.425 736.854L996.704 739.902L994.031 741.456L987.1 737.454Z" fill="#FDE081"/>
<path d="M987.1 737.454L994.031 741.456L993.6 741.707L989.184 739.158L989.4 739.032L988.966 738.781L988.75 738.907L985.365 736.953C985.872 737.202 986.465 737.369 987.1 737.454Z" fill="#485E69"/>
<path d="M987.199 740.311L989.184 739.158L993.599 741.707L992.767 742.19C992.134 742.558 991.097 742.561 990.436 742.179L987.199 740.311Z" fill="#FDE081"/>
<path d="M1001.72 735.624C1002.38 736.005 1002.38 736.606 1001.74 736.977L1000.91 737.457L996.496 734.908L998.481 733.755L1001.72 735.624Z" fill="#FDE081"/>
<g style="mix-blend-mode:color-burn">
<path d="M547.019 546.694C544.846 536.539 547.736 525.96 554.771 518.321L1188.05 -169.355C1197.51 -179.626 1212.53 -182.579 1225.17 -176.652L2405.26 376.609C2421.78 384.355 2428.49 404.326 2420 420.477L1942.72 1328.1C1936.21 1340.48 1922.42 1347.2 1908.66 1344.69L690.536 1122.74C677.784 1120.42 667.693 1110.63 664.981 1097.96L547.019 546.694Z" fill="url(#paint5_linear_2217_1224)" fill-opacity="0.6"/>
</g>
</g>
<defs>
<filter id="filter0_f_2217_1224" x="1258.71" y="-760.53" width="1629.56" height="1650.79" filterUnits="userSpaceOnUse" color-interpolation-filters="sRGB">
<feFlood flood-opacity="0" result="BackgroundImageFix"/>
<feBlend mode="normal" in="SourceGraphic" in2="BackgroundImageFix" result="shape"/>
<feGaussianBlur stdDeviation="125" result="effect1_foregroundBlur_2217_1224"/>
</filter>
<filter id="filter1_dd_2217_1224" x="1155.6" y="181.717" width="588.272" height="788.351" filterUnits="userSpaceOnUse" color-interpolation-filters="sRGB">
<feFlood flood-opacity="0" result="BackgroundImageFix"/>
<feColorMatrix in="SourceAlpha" type="matrix" values="0 0 0 0 0 0 0 0 0 0 0 0 0 0 0 0 0 0 127 0" result="hardAlpha"/>
<feOffset dy="12"/>
<feGaussianBlur stdDeviation="4"/>
<feColorMatrix type="matrix" values="0 0 0 0 0 0 0 0 0 0 0 0 0 0 0 0 0 0 0.04 0"/>
<feBlend mode="normal" in2="BackgroundImageFix" result="effect1_dropShadow_2217_1224"/>
<feColorMatrix in="SourceAlpha" type="matrix" values="0 0 0 0 0 0 0 0 0 0 0 0 0 0 0 0 0 0 127 0" result="hardAlpha"/>
<feOffset dy="23"/>
<feGaussianBlur stdDeviation="22"/>
<feColorMatrix type="matrix" values="0 0 0 0 0 0 0 0 0 0 0 0 0 0 0 0 0 0 0.1 0"/>
<feBlend mode="normal" in2="effect1_dropShadow_2217_1224" result="effect2_dropShadow_2217_1224"/>
<feBlend mode="normal" in="SourceGraphic" in2="effect2_dropShadow_2217_1224" result="shape"/>
</filter>
<filter id="filter2_i_2217_1224" x="1263.31" y="340.903" width="113.346" height="213.616" filterUnits="userSpaceOnUse" color-interpolation-filters="sRGB">
<feFlood flood-opacity="0" result="BackgroundImageFix"/>
<feBlend mode="normal" in="SourceGraphic" in2="BackgroundImageFix" result="shape"/>
<feColorMatrix in="SourceAlpha" type="matrix" values="0 0 0 0 0 0 0 0 0 0 0 0 0 0 0 0 0 0 127 0" result="hardAlpha"/>
<feOffset dy="1.53209"/>
<feGaussianBlur stdDeviation="1.53209"/>
<feComposite in2="hardAlpha" operator="arithmetic" k2="-1" k3="1"/>
<feColorMatrix type="matrix" values="0 0 0 0 0 0 0 0 0 0 0 0 0 0 0 0 0 0 0.06 0"/>
<feBlend mode="normal" in2="shape" result="effect1_innerShadow_2217_1224"/>
</filter>
<filter id="filter3_dd_2217_1224" x="1281.77" y="386.621" width="81.3517" height="128.408" filterUnits="userSpaceOnUse" color-interpolation-filters="sRGB">
<feFlood flood-opacity="0" result="BackgroundImageFix"/>
<feColorMatrix in="SourceAlpha" type="matrix" values="0 0 0 0 0 0 0 0 0 0 0 0 0 0 0 0 0 0 127 0" result="hardAlpha"/>
<feOffset dy="1.50181"/>
<feGaussianBlur stdDeviation="1.50181"/>
<feColorMatrix type="matrix" values="0 0 0 0 0 0 0 0 0 0 0 0 0 0 0 0 0 0 0.06 0"/>
<feBlend mode="normal" in2="BackgroundImageFix" result="effect1_dropShadow_2217_1224"/>
<feColorMatrix in="SourceAlpha" type="matrix" values="0 0 0 0 0 0 0 0 0 0 0 0 0 0 0 0 0 0 127 0" result="hardAlpha"/>
<feOffset dy="3.00361"/>
<feGaussianBlur stdDeviation="2.25271"/>
<feColorMatrix type="matrix" values="0 0 0 0 0 0 0 0 0 0 0 0 0 0 0 0 0 0 0.1 0"/>
<feBlend mode="normal" in2="effect1_dropShadow_2217_1224" result="effect2_dropShadow_2217_1224"/>
<feBlend mode="normal" in="SourceGraphic" in2="effect2_dropShadow_2217_1224" result="shape"/>
</filter>
<filter id="filter4_dd_2217_1224" x="1280.32" y="389.184" width="78.9923" height="125.83" filterUnits="userSpaceOnUse" color-interpolation-filters="sRGB">
<feFlood flood-opacity="0" result="BackgroundImageFix"/>
<feColorMatrix in="SourceAlpha" type="matrix" values="0 0 0 0 0 0 0 0 0 0 0 0 0 0 0 0 0 0 127 0" result="hardAlpha"/>
<feOffset dy="1.50181"/>
<feGaussianBlur stdDeviation="1.50181"/>
<feColorMatrix type="matrix" values="0 0 0 0 0 0 0 0 0 0 0 0 0 0 0 0 0 0 0.06 0"/>
<feBlend mode="normal" in2="BackgroundImageFix" result="effect1_dropShadow_2217_1224"/>
<feColorMatrix in="SourceAlpha" type="matrix" values="0 0 0 0 0 0 0 0 0 0 0 0 0 0 0 0 0 0 127 0" result="hardAlpha"/>
<feOffset dy="3.00361"/>
<feGaussianBlur stdDeviation="2.25271"/>
<feColorMatrix type="matrix" values="0 0 0 0 0 0 0 0 0 0 0 0 0 0 0 0 0 0 0.1 0"/>
<feBlend mode="normal" in2="effect1_dropShadow_2217_1224" result="effect2_dropShadow_2217_1224"/>
<feBlend mode="normal" in="SourceGraphic" in2="effect2_dropShadow_2217_1224" result="shape"/>
</filter>
<filter id="filter5_d_2217_1224" x="1196.76" y="214.221" width="483.477" height="316.943" filterUnits="userSpaceOnUse" color-interpolation-filters="sRGB">
<feFlood flood-opacity="0" result="BackgroundImageFix"/>
<feColorMatrix in="SourceAlpha" type="matrix" values="0 0 0 0 0 0 0 0 0 0 0 0 0 0 0 0 0 0 127 0" result="hardAlpha"/>
<feOffset dy="1.55926"/>
<feGaussianBlur stdDeviation="1.55926"/>
<feColorMatrix type="matrix" values="0 0 0 0 0 0 0 0 0 0 0 0 0 0 0 0 0 0 0.05 0"/>
<feBlend mode="normal" in2="BackgroundImageFix" result="effect1_dropShadow_2217_1224"/>
<feBlend mode="normal" in="SourceGraphic" in2="effect1_dropShadow_2217_1224" result="shape"/>
</filter>
<filter id="filter6_f_2217_1224" x="819.235" y="602.968" width="375.897" height="222.045" filterUnits="userSpaceOnUse" color-interpolation-filters="sRGB">
<feFlood flood-opacity="0" result="BackgroundImageFix"/>
<feBlend mode="normal" in="SourceGraphic" in2="BackgroundImageFix" result="shape"/>
<feGaussianBlur stdDeviation="2.96801" result="effect1_foregroundBlur_2217_1224"/>
</filter>
<filter id="filter7_dd_2217_1224" x="970.676" y="322.982" width="237.494" height="374.723" filterUnits="userSpaceOnUse" color-interpolation-filters="sRGB">
<feFlood flood-opacity="0" result="BackgroundImageFix"/>
<feColorMatrix in="SourceAlpha" type="matrix" values="0 0 0 0 0 0 0 0 0 0 0 0 0 0 0 0 0 0 127 0" result="hardAlpha"/>
<feOffset dy="0.824709"/>
<feGaussianBlur stdDeviation="0.824709"/>
<feColorMatrix type="matrix" values="0 0 0 0 0 0 0 0 0 0 0 0 0 0 0 0 0 0 0.06 0"/>
<feBlend mode="normal" in2="BackgroundImageFix" result="effect1_dropShadow_2217_1224"/>
<feColorMatrix in="SourceAlpha" type="matrix" values="0 0 0 0 0 0 0 0 0 0 0 0 0 0 0 0 0 0 127 0" result="hardAlpha"/>
<feOffset dy="0.824709"/>
<feGaussianBlur stdDeviation="1.23706"/>
<feColorMatrix type="matrix" values="0 0 0 0 0 0 0 0 0 0 0 0 0 0 0 0 0 0 0.1 0"/>
<feBlend mode="normal" in2="effect1_dropShadow_2217_1224" result="effect2_dropShadow_2217_1224"/>
<feBlend mode="normal" in="SourceGraphic" in2="effect2_dropShadow_2217_1224" result="shape"/>
</filter>
<filter id="filter8_d_2217_1224" x="966.015" y="331.082" width="224.893" height="372.273" filterUnits="userSpaceOnUse" color-interpolation-filters="sRGB">
<feFlood flood-opacity="0" result="BackgroundImageFix"/>
<feColorMatrix in="SourceAlpha" type="matrix" values="0 0 0 0 0 0 0 0 0 0 0 0 0 0 0 0 0 0 127 0" result="hardAlpha"/>
<feOffset dy="3.29884"/>
<feGaussianBlur stdDeviation="2.47413"/>
<feColorMatrix type="matrix" values="0 0 0 0 0 0 0 0 0 0 0 0 0 0 0 0 0 0 0.05 0"/>
<feBlend mode="normal" in2="BackgroundImageFix" result="effect1_dropShadow_2217_1224"/>
<feBlend mode="normal" in="SourceGraphic" in2="effect1_dropShadow_2217_1224" result="shape"/>
</filter>
<radialGradient id="paint0_radial_2217_1224" cx="0" cy="0" r="1" gradientUnits="userSpaceOnUse" gradientTransform="translate(1371.61 697.899) rotate(135.963) scale(678.094 645.981)">
<stop stop-color="#DBDBDB"/>
<stop offset="1" stop-color="#B5B5B5" stop-opacity="0"/>
</radialGradient>
<linearGradient id="paint1_linear_2217_1224" x1="1771.34" y1="432.494" x2="1620.43" y2="636.34" gradientUnits="userSpaceOnUse">
<stop stop-color="#F4F4F4"/>
<stop offset="1" stop-color="#F4F4F4" stop-opacity="0"/>
</linearGradient>
<linearGradient id="paint2_linear_2217_1224" x1="1438.5" y1="387.982" x2="1274.53" y2="671.983" gradientUnits="userSpaceOnUse">
<stop stop-color="white"/>
<stop offset="0.0001" stop-color="#F9FAFB"/>
<stop offset="1" stop-color="#F3F4F6"/>
</linearGradient>
<linearGradient id="paint3_linear_2217_1224" x1="1079.12" y1="672.461" x2="996.736" y2="824.015" gradientUnits="userSpaceOnUse">
<stop stop-color="#4B5563"/>
<stop offset="1" stop-color="#4B5563" stop-opacity="0"/>
</linearGradient>
<linearGradient id="paint4_linear_2217_1224" x1="1078.46" y1="392.701" x2="973.483" y2="574.529" gradientUnits="userSpaceOnUse">
<stop stop-color="white"/>
<stop offset="0.0001" stop-color="#F9FAFB"/>
<stop offset="1" stop-color="#F3F4F6"/>
</linearGradient>
<linearGradient id="paint5_linear_2217_1224" x1="1030.56" y1="71.8272" x2="2016.86" y2="835.699" gradientUnits="userSpaceOnUse">
<stop stop-color="#DED9FC"/>
<stop offset="0.136573" stop-color="#725CF6"/>
<stop offset="0.244792" stop-color="#5854FD"/>
<stop offset="0.369792" stop-color="#FFC368" stop-opacity="0.75"/>
<stop offset="0.4375" stop-color="#EF9AF3" stop-opacity="0.79"/>
<stop offset="0.530697" stop-color="#7C79FE"/>
<stop offset="0.694752" stop-color="#5854FD"/>
<stop offset="0.942708" stop-color="#9C4FFF"/>
<stop offset="1" stop-color="#E1D5FF"/>
</linearGradient>
</defs>
</svg>
