<svg viewBox="0 0 2220 1500" fill="none" xmlns="http://www.w3.org/2000/svg">
<g clip-path="url(#clip0_2228_1246)">
<rect width="2220" height="1500" fill="#F9FAFB"/>
<mask id="mask0_2228_1246" style="mask-type:alpha" maskUnits="userSpaceOnUse" x="1563" y="-253" width="519" height="954">
<line y1="-0.426784" x2="631.641" y2="-0.426784" transform="matrix(-4.84939e-08 1 -0.865554 -0.532714 1563 -252.544)" stroke="white" stroke-width="0.853568"/>
<line y1="-0.426784" x2="631.641" y2="-0.426784" transform="matrix(-4.81944e-08 1 -0.865554 -0.532714 1637.01 -206.76)" stroke="white" stroke-width="0.853568"/>
<line y1="-0.426784" x2="631.641" y2="-0.426784" transform="matrix(-4.81944e-08 1 -0.865554 -0.532714 1711.02 -160.975)" stroke="white" stroke-width="0.853568"/>
<line y1="-0.426784" x2="631.641" y2="-0.426784" transform="matrix(-4.81944e-08 1 -0.865554 -0.532714 1785.03 -115.191)" stroke="white" stroke-width="0.853568"/>
<line y1="-0.426784" x2="631.641" y2="-0.426784" transform="matrix(-4.81944e-08 1 -0.865554 -0.532714 1859.04 -69.4062)" stroke="white" stroke-width="0.853568"/>
<line y1="-0.426784" x2="631.641" y2="-0.426784" transform="matrix(-4.81944e-08 1 -0.865554 -0.532714 1933.05 -23.6226)" stroke="white" stroke-width="0.853568"/>
<line y1="-0.426784" x2="631.641" y2="-0.426784" transform="matrix(-4.81944e-08 1 -0.865554 -0.532714 2007.06 22.1626)" stroke="white" stroke-width="0.853568"/>
<line y1="-0.426784" x2="631.641" y2="-0.426784" transform="matrix(-4.81944e-08 1 -0.865554 -0.532714 2081.06 67.9468)" stroke="white" stroke-width="0.853568"/>
<line y1="-0.426784" x2="575.519" y2="-0.426784" transform="matrix(-0.866025 -0.5 1.52389e-07 -1 2075.82 225.514)" stroke="white" stroke-width="0.853568"/>
<line y1="-0.426784" x2="575.519" y2="-0.426784" transform="matrix(-0.866025 -0.5 1.52389e-07 -1 2075.82 310.973)" stroke="white" stroke-width="0.853568"/>
<line y1="-0.426784" x2="575.519" y2="-0.426784" transform="matrix(-0.866025 -0.5 1.52389e-07 -1 2075.82 396.431)" stroke="white" stroke-width="0.853568"/>
<line y1="-0.426784" x2="575.519" y2="-0.426784" transform="matrix(-0.866025 -0.5 1.52389e-07 -1 2075.82 481.889)" stroke="white" stroke-width="0.853568"/>
<line y1="-0.426784" x2="575.519" y2="-0.426784" transform="matrix(-0.866025 -0.5 1.52389e-07 -1 2075.82 567.349)" stroke="white" stroke-width="0.853568"/>
<line y1="-0.426784" x2="575.519" y2="-0.426784" transform="matrix(-0.866025 -0.5 1.52389e-07 -1 2075.82 652.692)" stroke="white" stroke-width="0.853568"/>
</mask>
<g mask="url(#mask0_2228_1246)">
<g filter="url(#filter0_f_2228_1246)">
<path d="M2081.63 -375.021L2839.51 -365.878L2780.08 891.334L1596.52 236.568L2081.63 -375.021Z" fill="#D9D9D9"/>
</g>
</g>
<mask id="mask1_2228_1246" style="mask-type:alpha" maskUnits="userSpaceOnUse" x="259" y="204" width="2312" height="1335">
<line y1="-0.426784" x2="1166.82" y2="-0.426784" transform="matrix(-0.866025 0.5 -0.866025 -0.5 1271.03 204.945)" stroke="white" stroke-width="0.853568"/>
<line y1="-0.426784" x2="1166.82" y2="-0.426784" transform="matrix(-0.866025 0.5 -0.866025 -0.5 1343.21 246.617)" stroke="white" stroke-width="0.853568"/>
<line y1="-0.426784" x2="1166.82" y2="-0.426784" transform="matrix(-0.866025 0.5 -0.866025 -0.5 1415.38 288.29)" stroke="white" stroke-width="0.853568"/>
<line y1="-0.426784" x2="1166.82" y2="-0.426784" transform="matrix(-0.866025 0.5 -0.866025 -0.5 1487.56 329.962)" stroke="white" stroke-width="0.853568"/>
<line y1="-0.426784" x2="1166.82" y2="-0.426784" transform="matrix(-0.866025 0.5 -0.866025 -0.5 1559.74 371.634)" stroke="white" stroke-width="0.853568"/>
<line y1="-0.426784" x2="1166.82" y2="-0.426784" transform="matrix(-0.866025 0.5 -0.866025 -0.5 1631.92 413.306)" stroke="white" stroke-width="0.853568"/>
<line y1="-0.426784" x2="1166.82" y2="-0.426784" transform="matrix(-0.866025 0.5 -0.866025 -0.5 1704.1 454.978)" stroke="white" stroke-width="0.853568"/>
<line y1="-0.426784" x2="1166.82" y2="-0.426784" transform="matrix(-0.866025 0.5 -0.866025 -0.5 1776.28 496.65)" stroke="white" stroke-width="0.853568"/>
<line y1="-0.426784" x2="1166.82" y2="-0.426784" transform="matrix(-0.866025 0.5 -0.866025 -0.5 1848.45 538.322)" stroke="white" stroke-width="0.853568"/>
<line y1="-0.426784" x2="1166.82" y2="-0.426784" transform="matrix(-0.866025 0.5 -0.866025 -0.5 1920.63 579.994)" stroke="white" stroke-width="0.853568"/>
<line y1="-0.426784" x2="1166.82" y2="-0.426784" transform="matrix(-0.866025 0.5 -0.866025 -0.5 1992.81 621.667)" stroke="white" stroke-width="0.853568"/>
<line y1="-0.426784" x2="1166.82" y2="-0.426784" transform="matrix(-0.866025 0.5 -0.866025 -0.5 2064.99 663.339)" stroke="white" stroke-width="0.853568"/>
<line y1="-0.426784" x2="1166.82" y2="-0.426784" transform="matrix(-0.866025 0.5 -0.866025 -0.5 2137.17 705.011)" stroke="white" stroke-width="0.853568"/>
<line y1="-0.426784" x2="1166.82" y2="-0.426784" transform="matrix(-0.866025 0.5 -0.866025 -0.5 2209.35 746.684)" stroke="white" stroke-width="0.853568"/>
<line y1="-0.426784" x2="1166.82" y2="-0.426784" transform="matrix(-0.866025 0.5 -0.866025 -0.5 2281.52 788.355)" stroke="white" stroke-width="0.853568"/>
<line y1="-0.426784" x2="1166.82" y2="-0.426784" transform="matrix(-0.866025 0.5 -0.866025 -0.5 2353.7 830.028)" stroke="white" stroke-width="0.853568"/>
<line y1="-0.426784" x2="1166.82" y2="-0.426784" transform="matrix(-0.866025 0.5 -0.866025 -0.5 2425.88 871.699)" stroke="white" stroke-width="0.853568"/>
<line y1="-0.426784" x2="1166.82" y2="-0.426784" transform="matrix(-0.866025 0.5 -0.866025 -0.5 2498.06 913.371)" stroke="white" stroke-width="0.853568"/>
<line y1="-0.426784" x2="1058.73" y2="-0.426784" transform="matrix(-0.866025 0.5 -0.866025 -0.5 2523.99 981.74)" stroke="white" stroke-width="0.853568"/>
<line y1="-0.426784" x2="1500.2" y2="-0.426784" transform="matrix(-0.866025 -0.5 0.866026 -0.5 2570.24 955.043)" stroke="white" stroke-width="0.853568"/>
<line y1="-0.426784" x2="1500.2" y2="-0.426784" transform="matrix(-0.866025 -0.5 0.866026 -0.5 2498.06 996.715)" stroke="white" stroke-width="0.853568"/>
<line y1="-0.426784" x2="1500.2" y2="-0.426784" transform="matrix(-0.866025 -0.5 0.866026 -0.5 2425.88 1038.39)" stroke="white" stroke-width="0.853568"/>
<line y1="-0.426784" x2="1500.2" y2="-0.426784" transform="matrix(-0.866025 -0.5 0.866026 -0.5 2353.7 1080.06)" stroke="white" stroke-width="0.853568"/>
<line y1="-0.426784" x2="1500.2" y2="-0.426784" transform="matrix(-0.866025 -0.5 0.866026 -0.5 2281.52 1121.73)" stroke="white" stroke-width="0.853568"/>
<line y1="-0.426784" x2="1500.2" y2="-0.426784" transform="matrix(-0.866025 -0.5 0.866026 -0.5 2209.34 1163.4)" stroke="white" stroke-width="0.853568"/>
<line y1="-0.426784" x2="1500.2" y2="-0.426784" transform="matrix(-0.866025 -0.5 0.866026 -0.5 2137.16 1205.08)" stroke="white" stroke-width="0.853568"/>
<line y1="-0.426784" x2="1500.2" y2="-0.426784" transform="matrix(-0.866025 -0.5 0.866026 -0.5 2064.99 1246.75)" stroke="white" stroke-width="0.853568"/>
<line y1="-0.426784" x2="1500.2" y2="-0.426784" transform="matrix(-0.866025 -0.5 0.866026 -0.5 1992.81 1288.42)" stroke="white" stroke-width="0.853568"/>
<line y1="-0.426784" x2="1500.2" y2="-0.426784" transform="matrix(-0.866025 -0.5 0.866026 -0.5 1920.63 1330.09)" stroke="white" stroke-width="0.853568"/>
<line y1="-0.426784" x2="1500.2" y2="-0.426784" transform="matrix(-0.866025 -0.5 0.866026 -0.5 1848.46 1371.77)" stroke="white" stroke-width="0.853568"/>
<line y1="-0.426784" x2="1500.2" y2="-0.426784" transform="matrix(-0.866025 -0.5 0.866026 -0.5 1776.27 1413.44)" stroke="white" stroke-width="0.853568"/>
<line y1="-0.426784" x2="1500.2" y2="-0.426784" transform="matrix(-0.866025 -0.5 0.866026 -0.5 1704.1 1455.11)" stroke="white" stroke-width="0.853568"/>
<line y1="-0.426784" x2="1500.2" y2="-0.426784" transform="matrix(-0.866025 -0.5 0.866026 -0.5 1631.92 1496.78)" stroke="white" stroke-width="0.853568"/>
<line y1="-0.426784" x2="1500.2" y2="-0.426784" transform="matrix(-0.866025 -0.5 0.866026 -0.5 1559.74 1538.45)" stroke="white" stroke-width="0.853568"/>
</mask>
<g mask="url(#mask1_2228_1246)">
<path d="M1874.47 1185.03C1612.42 1336.32 1151.04 1315.33 843.925 1138.02C536.815 960.709 500.455 694.328 762.5 543.036C1024.55 391.744 1485.93 412.736 1793.04 590.046C2100.15 767.357 2136.51 1033.74 1874.47 1185.03Z" fill="url(#paint0_radial_2228_1246)" stroke="white" stroke-width="0.739869"/>
</g>
<g opacity="0.07" filter="url(#filter1_f_2228_1246)">
<path d="M1247.68 818.437L1725.63 1080.89L1518.67 1206.37C1511.8 1210.53 1500.53 1210.77 1493.49 1206.91L1041.04 958.449C1033.99 954.583 1033.86 948.074 1040.72 943.91L1247.68 818.437Z" fill="url(#paint1_linear_2228_1246)"/>
</g>
<g opacity="0.11" filter="url(#filter2_f_2228_1246)">
<path d="M981.537 814.944L1105.32 879.608L935.586 987.391C928.806 991.696 917.538 992.172 910.419 988.453L812.42 937.256C805.301 933.537 805.027 927.032 811.807 922.726L981.537 814.944Z" fill="url(#paint2_linear_2228_1246)"/>
</g>
<g filter="url(#filter3_dd_2228_1246)">
<path fill-rule="evenodd" clip-rule="evenodd" d="M1266.38 397.382C1263.73 395.852 1261.18 395.541 1259.24 396.511L1241.06 405.597L1695.68 677.672L1265.52 429.318L1265.52 793.55C1265.52 798.958 1269.19 805.537 1273.86 808.521L1705.26 1083.73L1727.21 1072.77C1729 1071.88 1730.01 1069.77 1730.01 1066.95L1730.01 698.219L1730.01 697.494L1730.01 667.828C1730.01 666.097 1728.8 663.991 1727.3 663.127L1266.38 397.382Z" fill="#E5E7EB"/>
</g>
<g filter="url(#filter4_dd_2228_1246)">
<path d="M1242.07 441.427L1706.57 709.603L1706.57 1073.31C1706.57 1078.93 1702.62 1081.21 1697.76 1078.4L1250.88 820.39C1246.01 817.582 1242.07 810.754 1242.07 805.138L1242.07 441.427Z" fill="url(#paint3_linear_2228_1246)"/>
<path d="M1242.07 439.489L1240.39 438.521L1240.39 440.458L1240.39 804.17C1240.39 810.855 1245.09 818.985 1250.88 822.327L1697.76 1080.34C1703.55 1083.68 1708.24 1080.97 1708.24 1074.28L1708.24 710.571L1708.24 708.634L1706.57 707.665L1242.07 439.489Z" stroke="white" stroke-width="3.87447"/>
</g>
<g filter="url(#filter5_d_2228_1246)">
<mask id="path-56-outside-1_2228_1246" maskUnits="userSpaceOnUse" x="1238.61" y="402.625" width="471.984" height="310.5" fill="black">
<rect fill="white" x="1238.61" y="402.625" width="471.984" height="310.5"/>
<path d="M1242.07 411.758C1242.07 410.027 1243.29 409.326 1244.79 410.191L1703.85 675.234C1705.35 676.099 1706.57 678.204 1706.57 679.934L1706.57 710.328L1242.07 442.152L1242.07 411.758Z"/>
</mask>
<path d="M1242.07 411.758C1242.07 410.027 1243.29 409.326 1244.79 410.191L1703.85 675.234C1705.35 676.099 1706.57 678.204 1706.57 679.934L1706.57 710.328L1242.07 442.152L1242.07 411.758Z" fill="#F9FAFB"/>
<path d="M1238.72 409.821C1238.72 405.95 1241.43 404.382 1244.79 406.317L1703.85 671.36C1707.21 673.295 1709.92 678.001 1709.92 681.871L1703.21 678.738L1245.43 414.436L1238.72 409.821ZM1706.57 710.328L1242.07 442.152L1706.57 710.328ZM1238.72 440.214L1238.72 409.821C1238.72 405.95 1241.43 404.382 1244.79 406.317L1245.43 414.436L1245.43 444.089L1238.72 440.214ZM1703.85 671.36C1707.21 673.295 1709.92 678.001 1709.92 681.871L1709.92 712.265L1703.21 708.391L1703.21 678.738L1703.85 671.36Z" fill="white" mask="url(#path-56-outside-1_2228_1246)"/>
</g>
<circle cx="3.75997" cy="3.75997" r="3.75997" transform="matrix(0.866025 0.5 -2.20305e-08 1 1253.22 426.534)" fill="#EF4444"/>
<circle cx="3.75997" cy="3.75997" r="3.75997" transform="matrix(0.866025 0.5 -2.20305e-08 1 1264.07 432.801)" fill="#F59E0B"/>
<circle cx="3.75997" cy="3.75997" r="3.75997" transform="matrix(0.866025 0.5 -2.20305e-08 1 1274.93 439.067)" fill="#10B981"/>
<rect width="271.989" height="15.3955" rx="3.0791" transform="matrix(0.866025 0.5 -2.20305e-08 1 1365.66 489.034)" fill="#E5E7EB"/>
<g filter="url(#filter6_i_2228_1246)">
<rect width="171.768" height="453.313" rx="9.23364" transform="matrix(-5.98857e-08 1 -0.866025 -0.5 1673.8 741.829)" fill="#E5E7EB"/>
</g>
<g filter="url(#filter7_i_2228_1246)">
<rect width="117.526" height="195.015" rx="9.23364" transform="matrix(-5.98857e-08 1 -0.866025 -0.5 1664.85 925.22)" fill="#E5E7EB"/>
</g>
<path fill-rule="evenodd" clip-rule="evenodd" d="M1295.35 501.586C1295.39 501.484 1295.41 501.364 1295.41 501.23L1295.41 497.4C1295.41 496.762 1294.96 495.987 1294.41 495.668L1291.09 493.753C1290.83 493.6 1290.57 493.575 1290.39 493.683L1281.51 498.808C1281.32 498.916 1281.22 499.149 1281.22 499.455L1281.22 503.285C1281.22 503.922 1281.66 504.697 1282.22 505.016L1285.53 506.931C1285.8 507.084 1286.05 507.109 1286.24 507.001L1290.6 504.483C1290.56 504.585 1290.54 504.705 1290.54 504.839L1290.54 508.669C1290.54 509.307 1290.99 510.082 1291.54 510.4L1294.86 512.316C1295.12 512.469 1295.38 512.494 1295.57 512.386L1304.44 507.261C1304.63 507.153 1304.73 506.92 1304.73 506.614L1304.73 502.784C1304.73 502.147 1304.29 501.371 1303.73 501.053L1300.42 499.138C1300.15 498.985 1299.9 498.959 1299.71 499.068L1295.35 501.586Z" fill="#6B7280"/>
<path d="M1304.72 516.832C1304.72 517.469 1304.27 517.728 1303.72 517.409L1300.44 515.519C1299.55 515.005 1299.11 513.504 1299.74 513.141L1303.01 511.251C1303.64 510.888 1304.72 512.024 1304.72 513.053L1304.72 516.832Z" fill="#6B7280"/>
<rect width="184.683" height="12.9149" rx="5.71714" transform="matrix(0.866025 0.5 -2.20305e-08 1 1292.4 747.641)" fill="#E5E7EB"/>
<rect width="148.609" height="12.9225" rx="5.71714" transform="matrix(0.866025 0.5 -2.20305e-08 1 1292.4 773.501)" fill="#E5E7EB"/>
<rect width="165.311" height="12.9149" rx="5.71714" transform="matrix(0.866025 0.5 -2.20305e-08 1 1292.4 799.3)" fill="#E5E7EB"/>
<rect width="42.6192" height="12.9149" rx="5.71714" transform="matrix(0.866025 0.5 -2.20305e-08 1 1329.31 519.693)" fill="#6B7280"/>
<rect width="42.6192" height="12.9149" rx="5.71714" transform="matrix(0.866025 0.5 -2.20305e-08 1 1374.05 545.523)" fill="#E5E7EB"/>
<rect width="42.6192" height="12.9149" rx="5.71714" transform="matrix(0.866025 0.5 -2.20305e-08 1 1418.79 571.352)" fill="#E5E7EB"/>
<rect width="42.6192" height="12.9149" rx="5.71714" transform="matrix(0.866025 0.5 -2.20305e-08 1 1463.53 597.182)" fill="#E5E7EB"/>
<rect width="59.4694" height="21.2963" rx="10.6481" transform="matrix(0.866025 0.5 -2.20305e-08 1 1622.35 681.129)" fill="#D1B6FF"/>
<rect width="31.5931" height="9.12697" rx="4.56349" transform="matrix(0.866025 0.5 -2.20305e-08 1 1634.42 694.182)" fill="#DED6FF"/>
<rect width="85.6116" height="12.9225" rx="5.71714" transform="matrix(0.866025 0.5 -2.20305e-08 1 1292.4 721.811)" fill="#6B7280"/>
<g filter="url(#filter8_d_2228_1246)">
<path d="M1025.53 467.724C1028.99 465.997 1033.53 466.542 1038.26 469.25L1139.56 527.334C1149.93 533.283 1158.37 547.852 1158.37 559.833L1158.37 817.346C1158.37 823.461 1155.99 827.885 1151.9 829.406L1134.3 835.946L1041.33 761.974C1034.45 756.501 1029.28 746.916 1028.66 738.505L1009.27 475.858L1025.53 467.724Z" fill="#E5E7EB"/>
</g>
<g filter="url(#filter9_d_2228_1246)">
<path d="M1008.06 496.744L1136.72 571.027L1136.72 819.474C1136.72 829.451 1129.72 833.496 1121.08 828.507L1023.71 772.291C1015.07 767.302 1008.06 755.169 1008.06 745.192L1008.06 496.744Z" fill="url(#paint4_linear_2228_1246)"/>
<path d="M1008.06 494.034L1005.72 492.68L1005.72 495.389L1005.72 743.837C1005.72 755.311 1013.77 769.263 1023.71 775.001L1121.08 831.217C1131.01 836.954 1139.07 832.303 1139.07 820.829L1139.07 572.382L1139.07 569.672L1136.72 568.317L1008.06 494.034Z" stroke="white" stroke-width="5.41984"/>
</g>
<rect width="127.341" height="20.1277" rx="10.0638" transform="matrix(0.866025 0.5 -2.20305e-08 1 1017.62 704.088)" fill="#D1B6FF"/>
<rect width="57.7279" height="9.82742" rx="4.91371" transform="matrix(0.866025 0.5 -2.20305e-08 1 1047.76 726.963)" fill="#DED6FF"/>
<g filter="url(#filter10_i_2228_1246)">
<rect width="71.311" height="135.83" rx="12.9166" transform="matrix(-5.98857e-08 1 -0.866025 -0.5 1131.58 600.261)" fill="#E5E7EB"/>
</g>
<rect width="95.0813" height="8.4894" rx="4.2447" transform="matrix(0.866025 0.5 -2.20305e-08 1 1017.62 642.284)" fill="#E5E7EB"/>
<rect width="63.6705" height="8.4894" rx="4.2447" transform="matrix(0.866025 0.5 -2.20305e-08 1 1017.62 659.263)" fill="#E5E7EB"/>
<rect width="56.2754" height="8.4944" rx="4.2472" transform="matrix(0.866025 0.5 -2.20305e-08 1 1017.62 621.06)" fill="#6B7280"/>
<g filter="url(#filter11_i_2228_1246)">
<rect width="64.5194" height="3.39576" rx="1.69788" transform="matrix(0.866025 0.5 -2.20305e-08 1 1044.09 767.927)" fill="#E5E7EB"/>
</g>
<rect width="11.8852" height="2.20647" rx="1.10323" transform="matrix(0.866025 0.5 -2.20305e-08 1 1015.41 513.317)" fill="#E5E7EB"/>
<rect width="11.8852" height="2.20647" rx="1.10323" transform="matrix(0.866025 0.5 -2.20305e-08 1 1015.41 516.848)" fill="#E5E7EB"/>
<rect width="11.8852" height="2.20647" rx="1.10323" transform="matrix(0.866025 0.5 -2.20305e-08 1 1015.41 520.378)" fill="#E5E7EB"/>
<g filter="url(#filter12_d_2228_1246)">
<mask id="path-89-outside-2_2228_1246" maskUnits="userSpaceOnUse" x="1002.87" y="464.769" width="138.564" height="110" fill="black">
<rect fill="white" x="1002.87" y="464.769" width="138.564" height="110"/>
<path d="M1008.06 491.835C1008.06 481.858 1015.07 477.813 1023.71 482.802L1121.08 539.018C1129.72 544.007 1136.72 556.14 1136.72 566.117L1136.72 571.946L1008.06 497.663L1008.06 491.835Z"/>
</mask>
<path d="M1008.06 491.835C1008.06 481.858 1015.07 477.813 1023.71 482.802L1121.08 539.018C1129.72 544.007 1136.72 556.14 1136.72 566.117L1136.72 571.946L1008.06 497.663L1008.06 491.835Z" fill="#F9FAFB"/>
<path d="M1003.37 489.125C1003.37 476.154 1012.48 470.897 1023.71 477.382L1121.08 533.598C1132.31 540.084 1141.42 555.856 1141.42 568.827L1132.03 563.407C1132.03 556.423 1127.13 547.93 1121.08 544.438L1023.71 488.222C1017.66 484.73 1012.76 487.561 1012.76 494.545L1003.37 489.125ZM1136.72 571.946L1008.06 497.663L1136.72 571.946ZM1003.37 494.953L1003.37 489.125C1003.37 476.154 1012.48 470.897 1023.71 477.382L1023.71 488.222C1017.66 484.73 1012.76 487.561 1012.76 494.545L1012.76 500.373L1003.37 494.953ZM1121.08 533.598C1132.31 540.084 1141.42 555.856 1141.42 568.827L1141.42 574.655L1132.03 569.236L1132.03 563.407C1132.03 556.423 1127.13 547.93 1121.08 544.438L1121.08 533.598Z" fill="white" mask="url(#path-89-outside-2_2228_1246)"/>
</g>
<ellipse cx="2.47156" cy="2.67556" rx="2.47156" ry="2.67556" transform="matrix(0.866025 0.5 -2.20305e-08 1 1015.39 486.164)" fill="#EF4444"/>
<ellipse cx="2.47156" cy="2.67556" rx="2.47156" ry="2.67556" transform="matrix(0.866025 0.5 -2.20305e-08 1 1022.53 490.284)" fill="#F59E0B"/>
<ellipse cx="2.47156" cy="2.67556" rx="2.47156" ry="2.67556" transform="matrix(0.866025 0.5 -2.20305e-08 1 1029.66 494.403)" fill="#10B981"/>
<rect width="56.03" height="11.0281" rx="4.30722" transform="matrix(0.866025 0.5 -2.20305e-08 1 1049.23 503.973)" fill="#E5E7EB"/>
<g style="mix-blend-mode:color-burn">
<path d="M503.477 741.317C486.162 731.057 482.504 707.551 495.884 692.515L1420.3 -346.357C1429.65 -356.861 1444.76 -360.033 1457.54 -354.176L2640.79 188.047C2658.21 196.03 2664.76 217.433 2654.78 233.796L1872.99 1516.07C1863.87 1531.02 1844.42 1535.87 1829.35 1526.94L503.477 741.317Z" fill="url(#paint5_linear_2228_1246)" fill-opacity="0.6"/>
<path d="M503.477 741.317C486.162 731.057 482.504 707.551 495.884 692.515L1420.3 -346.357C1429.65 -356.861 1444.76 -360.033 1457.54 -354.176L2640.79 188.047C2658.21 196.03 2664.76 217.433 2654.78 233.796L1872.99 1516.07C1863.87 1531.02 1844.42 1535.87 1829.35 1526.94L503.477 741.317Z" fill="url(#paint6_linear_2228_1246)"/>
</g>
<rect x="1795.02" width="424.98" height="1307.99" fill="url(#paint7_linear_2228_1246)"/>
<g filter="url(#filter13_dd_2228_1246)">
<path d="M1051.81 989.224C1049.35 987.804 1045.62 987.649 1043.49 988.88L973.97 1029.01C971.839 1030.24 972.105 1032.4 974.568 1033.82L1055.76 1080.69C1058.22 1082.12 1061.95 1082.27 1064.08 1081.04L1133.6 1040.91C1135.73 1039.67 1135.46 1037.52 1133 1036.1L1051.81 989.224Z" fill="#BBC6E6"/>
</g>
<path d="M972.531 1027.56V1031.1L975.415 1032.82L976.275 1028.41L972.531 1027.56ZM1135.04 1035.28V1038.82L1131.59 1040.61L1130.46 1036.7L1135.04 1035.28Z" fill="#BBC6E6"/>
<path d="M1051.81 985.684C1049.35 984.264 1045.62 984.108 1043.49 985.34L973.97 1025.47C971.839 1026.7 972.105 1028.86 974.568 1030.28L1055.76 1077.15C1058.22 1078.58 1061.95 1078.73 1064.08 1077.5L1133.6 1037.37C1135.73 1036.13 1135.46 1033.98 1133 1032.56L1051.81 985.684Z" fill="#F3F5FB"/>
<path d="M1039.19 996.812C1038.64 996.491 1037.8 996.458 1037.32 996.734L1021.66 1005.77C1021.18 1006.05 1021.24 1006.53 1021.79 1006.86L1097.03 1050.29C1097.58 1050.61 1098.42 1050.64 1098.9 1050.37L1114.55 1041.33C1115.03 1041.05 1114.97 1040.57 1114.42 1040.25L1039.19 996.812Z" fill="#DEE5F6"/>
<path d="M1117.1 1032.9C1116.51 1033.24 1115.55 1033.24 1114.96 1032.9C1114.37 1032.56 1114.37 1032 1114.96 1031.66C1115.55 1031.32 1116.51 1031.32 1117.1 1031.66C1117.69 1032 1117.69 1032.56 1117.1 1032.9ZM1104.96 1039.91C1104.36 1040.25 1103.4 1040.25 1102.81 1039.91C1102.22 1039.57 1102.22 1039.02 1102.81 1038.67C1103.4 1038.33 1104.36 1038.33 1104.96 1038.67C1105.55 1039.02 1105.55 1039.57 1104.96 1039.91ZM1092.81 1046.92C1092.22 1047.27 1091.26 1047.27 1090.67 1046.92C1090.07 1046.58 1090.07 1046.03 1090.67 1045.69C1091.26 1045.34 1092.22 1045.34 1092.81 1045.69C1093.4 1046.03 1093.4 1046.58 1092.81 1046.92ZM1080.66 1053.94C1080.07 1054.28 1079.11 1054.28 1078.52 1053.94C1077.93 1053.59 1077.93 1053.04 1078.52 1052.7C1079.11 1052.36 1080.07 1052.36 1080.66 1052.7C1081.25 1053.04 1081.25 1053.59 1080.66 1053.94ZM1068.52 1060.95C1067.92 1061.29 1066.97 1061.29 1066.37 1060.95C1065.78 1060.61 1065.78 1060.05 1066.37 1059.71C1066.97 1059.37 1067.92 1059.37 1068.52 1059.71C1069.11 1060.05 1069.11 1060.61 1068.52 1060.95ZM1056.37 1067.96C1055.78 1068.3 1054.82 1068.3 1054.23 1067.96C1053.64 1067.62 1053.64 1067.07 1054.23 1066.72C1054.82 1066.38 1055.78 1066.38 1056.37 1066.72C1056.96 1067.07 1056.96 1067.62 1056.37 1067.96Z" fill="#C4CBDC"/>
<path d="M1033.09 991.338L1123.2 1043.36L1123.49 1043.2L1033.37 991.175L1033.09 991.338ZM1021.02 998.311L1111.13 1050.34L1111.41 1050.17L1021.3 998.147L1021.02 998.311Z" fill="#DEE3F1"/>
<path d="M1118.98 1024.5L1041.74 1069.09L1042.03 1069.26L1119.26 1024.66L1118.98 1024.5Z" fill="#DEE3F1"/>
<path d="M1047.68 992.815C1047.09 993.157 1046.13 993.157 1045.53 992.815C1044.94 992.475 1044.94 991.92 1045.53 991.578C1046.13 991.238 1047.09 991.238 1047.68 991.578C1048.27 991.92 1048.27 992.475 1047.68 992.815ZM1035.53 999.829C1034.94 1000.17 1033.98 1000.17 1033.39 999.829C1032.8 999.487 1032.8 998.934 1033.39 998.592C1033.98 998.25 1034.94 998.25 1035.53 998.592C1036.12 998.934 1036.12 999.487 1035.53 999.829ZM1023.38 1006.84C1022.79 1007.18 1021.83 1007.18 1021.24 1006.84C1020.65 1006.5 1020.65 1005.95 1021.24 1005.6C1021.83 1005.26 1022.79 1005.26 1023.38 1005.6C1023.98 1005.95 1023.98 1006.5 1023.38 1006.84ZM1011.24 1013.85C1010.65 1014.2 1009.69 1014.2 1009.09 1013.85C1008.5 1013.51 1008.5 1012.96 1009.09 1012.62C1009.69 1012.28 1010.65 1012.28 1011.24 1012.62C1011.83 1012.96 1011.83 1013.51 1011.24 1013.85ZM999.09 1020.87C998.5 1021.21 997.54 1021.21 996.948 1020.87C996.357 1020.53 996.357 1019.97 996.948 1019.63C997.54 1019.29 998.5 1019.29 999.09 1019.63C999.681 1019.97 999.681 1020.53 999.09 1020.87ZM986.945 1027.88C986.353 1028.22 985.393 1028.22 984.801 1027.88C984.21 1027.54 984.21 1026.98 984.801 1026.64C985.393 1026.3 986.353 1026.3 986.945 1026.64C987.536 1026.98 987.536 1027.54 986.945 1027.88ZM1059.25 999.496C1058.66 999.838 1057.7 999.838 1057.1 999.496C1056.51 999.154 1056.51 998.6 1057.1 998.258C1057.7 997.919 1058.66 997.919 1059.25 998.258C1059.84 998.6 1059.84 999.154 1059.25 999.496ZM1047.1 1006.51C1046.51 1006.85 1045.55 1006.85 1044.96 1006.51C1044.37 1006.17 1044.37 1005.61 1044.96 1005.27C1045.55 1004.93 1046.51 1004.93 1047.1 1005.27C1047.69 1005.61 1047.69 1006.17 1047.1 1006.51ZM1034.95 1013.52C1034.36 1013.86 1033.4 1013.86 1032.81 1013.52C1032.22 1013.18 1032.22 1012.63 1032.81 1012.28C1033.4 1011.94 1034.36 1011.94 1034.95 1012.28C1035.55 1012.63 1035.55 1013.18 1034.95 1013.52ZM1022.81 1020.53C1022.22 1020.88 1021.26 1020.88 1020.67 1020.53C1020.07 1020.19 1020.07 1019.64 1020.67 1019.3C1021.26 1018.95 1022.22 1018.95 1022.81 1019.3C1023.4 1019.64 1023.4 1020.19 1022.81 1020.53ZM1010.66 1027.55C1010.07 1027.89 1009.11 1027.89 1008.52 1027.55C1007.93 1027.21 1007.93 1026.65 1008.52 1026.31C1009.11 1025.97 1010.07 1025.97 1010.66 1026.31C1011.25 1026.65 1011.25 1027.21 1010.66 1027.55ZM998.515 1034.56C997.923 1034.9 996.963 1034.9 996.371 1034.56C995.782 1034.22 995.782 1033.67 996.371 1033.32C996.963 1032.98 997.923 1032.98 998.515 1033.32C999.106 1033.67 999.106 1034.22 998.515 1034.56ZM1070.82 1006.18C1070.23 1006.52 1069.27 1006.52 1068.68 1006.18C1068.08 1005.83 1068.08 1005.28 1068.68 1004.94C1069.27 1004.6 1070.23 1004.6 1070.82 1004.94C1071.41 1005.28 1071.41 1005.83 1070.82 1006.18ZM1058.67 1013.19C1058.08 1013.53 1057.12 1013.53 1056.53 1013.19C1055.94 1012.85 1055.94 1012.29 1056.53 1011.95C1057.12 1011.61 1058.08 1011.61 1058.67 1011.95C1059.26 1012.29 1059.26 1012.85 1058.67 1013.19ZM1046.53 1020.2C1045.93 1020.54 1044.97 1020.54 1044.38 1020.2C1043.79 1019.86 1043.79 1019.31 1044.38 1018.97C1044.97 1018.62 1045.93 1018.62 1046.53 1018.97C1047.12 1019.31 1047.12 1019.86 1046.53 1020.2ZM1034.38 1027.22C1033.79 1027.56 1032.83 1027.56 1032.24 1027.22C1031.64 1026.87 1031.64 1026.32 1032.24 1025.98C1032.83 1025.64 1033.79 1025.64 1034.38 1025.98C1034.97 1026.32 1034.97 1026.87 1034.38 1027.22ZM1022.23 1034.23C1021.64 1034.57 1020.68 1034.57 1020.09 1034.23C1019.5 1033.89 1019.5 1033.33 1020.09 1032.99C1020.68 1032.65 1021.64 1032.65 1022.23 1032.99C1022.82 1033.33 1022.82 1033.89 1022.23 1034.23ZM1010.09 1041.24C1009.49 1041.58 1008.53 1041.58 1007.94 1041.24C1007.35 1040.9 1007.35 1040.34 1007.94 1040C1008.53 1039.66 1009.49 1039.66 1010.09 1040C1010.68 1040.34 1010.68 1040.9 1010.09 1041.24ZM1082.39 1012.86C1081.8 1013.2 1080.84 1013.2 1080.25 1012.86C1079.65 1012.52 1079.65 1011.96 1080.25 1011.62C1080.84 1011.28 1081.8 1011.28 1082.39 1011.62C1082.98 1011.96 1082.98 1012.52 1082.39 1012.86ZM1070.24 1019.87C1069.65 1020.21 1068.69 1020.21 1068.1 1019.87C1067.51 1019.53 1067.51 1018.97 1068.1 1018.63C1068.69 1018.29 1069.65 1018.29 1070.24 1018.63C1070.83 1018.97 1070.83 1019.53 1070.24 1019.87ZM1058.1 1026.88C1057.5 1027.22 1056.54 1027.22 1055.95 1026.88C1055.36 1026.54 1055.36 1025.99 1055.95 1025.65C1056.54 1025.3 1057.5 1025.3 1058.1 1025.65C1058.69 1025.99 1058.69 1026.54 1058.1 1026.88ZM1045.95 1033.9C1045.36 1034.24 1044.4 1034.24 1043.81 1033.9C1043.22 1033.55 1043.22 1033 1043.81 1032.66C1044.4 1032.32 1045.36 1032.32 1045.95 1032.66C1046.54 1033 1046.54 1033.55 1045.95 1033.9ZM1033.8 1040.91C1033.21 1041.25 1032.25 1041.25 1031.66 1040.91C1031.07 1040.57 1031.07 1040.01 1031.66 1039.67C1032.25 1039.33 1033.21 1039.33 1033.8 1039.67C1034.39 1040.01 1034.39 1040.57 1033.8 1040.91ZM1021.66 1047.92C1021.07 1048.26 1020.11 1048.26 1019.51 1047.92C1018.92 1047.58 1018.92 1047.02 1019.51 1046.68C1020.11 1046.34 1021.07 1046.34 1021.66 1046.68C1022.25 1047.02 1022.25 1047.58 1021.66 1047.92ZM1093.96 1019.54C1093.37 1019.88 1092.41 1019.88 1091.82 1019.54C1091.22 1019.2 1091.22 1018.64 1091.82 1018.3C1092.41 1017.96 1093.37 1017.96 1093.96 1018.3C1094.55 1018.64 1094.55 1019.2 1093.96 1019.54ZM1081.81 1026.55C1081.22 1026.89 1080.26 1026.89 1079.67 1026.55C1079.08 1026.21 1079.08 1025.65 1079.67 1025.31C1080.26 1024.97 1081.22 1024.97 1081.81 1025.31C1082.4 1025.65 1082.4 1026.21 1081.81 1026.55ZM1069.67 1033.56C1069.07 1033.9 1068.12 1033.9 1067.52 1033.56C1066.93 1033.22 1066.93 1032.67 1067.52 1032.32C1068.12 1031.98 1069.07 1031.98 1069.67 1032.32C1070.26 1032.67 1070.26 1033.22 1069.67 1033.56ZM1057.52 1040.58C1056.93 1040.92 1055.97 1040.92 1055.38 1040.58C1054.79 1040.23 1054.79 1039.68 1055.38 1039.34C1055.97 1039 1056.93 1039 1057.52 1039.34C1058.11 1039.68 1058.11 1040.23 1057.52 1040.58ZM1045.37 1047.59C1044.78 1047.93 1043.82 1047.93 1043.23 1047.59C1042.64 1047.25 1042.64 1046.69 1043.23 1046.35C1043.82 1046.01 1044.78 1046.01 1045.37 1046.35C1045.97 1046.69 1045.97 1047.25 1045.37 1047.59ZM1033.23 1054.6C1032.64 1054.94 1031.68 1054.94 1031.08 1054.6C1030.49 1054.26 1030.49 1053.71 1031.08 1053.36C1031.68 1053.02 1032.64 1053.02 1033.23 1053.36C1033.82 1053.71 1033.82 1054.26 1033.23 1054.6ZM1105.53 1026.22C1104.94 1026.56 1103.98 1026.56 1103.39 1026.22C1102.8 1025.88 1102.8 1025.32 1103.39 1024.98C1103.98 1024.64 1104.94 1024.64 1105.53 1024.98C1106.12 1025.32 1106.12 1025.88 1105.53 1026.22ZM1093.38 1033.23C1092.79 1033.57 1091.83 1033.57 1091.24 1033.23C1090.65 1032.89 1090.65 1032.34 1091.24 1031.99C1091.83 1031.65 1092.79 1031.65 1093.38 1031.99C1093.97 1032.34 1093.97 1032.89 1093.38 1033.23ZM1081.24 1040.24C1080.65 1040.58 1079.69 1040.58 1079.09 1040.24C1078.5 1039.9 1078.5 1039.35 1079.09 1039.01C1079.69 1038.67 1080.65 1038.67 1081.24 1039.01C1081.83 1039.35 1081.83 1039.9 1081.24 1040.24ZM1069.09 1047.26C1068.5 1047.6 1067.54 1047.6 1066.95 1047.26C1066.36 1046.92 1066.36 1046.36 1066.95 1046.02C1067.54 1045.68 1068.5 1045.68 1069.09 1046.02C1069.68 1046.36 1069.68 1046.92 1069.09 1047.26ZM1056.94 1054.27C1056.35 1054.61 1055.39 1054.61 1054.8 1054.27C1054.21 1053.93 1054.21 1053.37 1054.8 1053.03C1055.39 1052.69 1056.35 1052.69 1056.94 1053.03C1057.54 1053.37 1057.54 1053.93 1056.94 1054.27ZM1044.8 1061.28C1044.21 1061.62 1043.25 1061.62 1042.66 1061.28C1042.06 1060.94 1042.06 1060.39 1042.66 1060.04C1043.25 1059.7 1044.21 1059.7 1044.8 1060.04C1045.39 1060.39 1045.39 1060.94 1044.8 1061.28Z" fill="#C4CBDC"/>
<path d="M1060.23 990.577L982.988 1035.17L983.271 1035.33L1060.51 990.741L1060.23 990.577Z" fill="#DEE3F1"/>
<path d="M1008.94 1005.28L1099.05 1057.31L1099.34 1057.15L1009.23 1005.12L1008.94 1005.28ZM996.869 1012.25L1086.98 1064.28L1087.26 1064.12L997.152 1012.09L996.869 1012.25ZM984.793 1019.22L1074.91 1071.25L1075.19 1071.09L985.076 1019.06L984.793 1019.22Z" fill="#DEE3F1"/>
<path d="M1071.98 997.361L994.738 1041.95L995.021 1042.12L1072.26 997.524L1071.98 997.361ZM1083.73 1004.15L1006.49 1048.74L1006.77 1048.9L1084.01 1004.31L1083.73 1004.15ZM1095.48 1010.93L1018.24 1055.52L1018.52 1055.69L1095.76 1011.09L1095.48 1010.93ZM1107.23 1017.71L1029.99 1062.31L1030.28 1062.47L1107.51 1017.88L1107.23 1017.71Z" fill="#DEE3F1"/>
<path d="M1081.95 964.55C1081.95 963.73 1081.45 962.774 1080.84 962.419L1005.83 919.113C1005.21 918.759 1004.71 919.136 1004.71 919.956V991.307C1004.71 992.127 1005.21 993.081 1005.83 993.436L1080.84 1036.74C1081.45 1037.1 1081.95 1036.72 1081.95 1035.9V964.55Z" fill="#8370FF"/>
<path d="M1026.1 974.166L1024.9 974.701L1031.68 988.547L1032.88 988.012L1026.1 974.166Z" fill="#F2F2F2"/>
<path d="M1033.02 971.076L1024.9 974.701L1025.88 976.708L1034 973.081L1033.02 971.076Z" fill="#F2F2F2"/>
<path d="M1051.11 991.955L1052.31 991.42L1045.53 977.576L1044.33 978.111L1051.11 991.955Z" fill="#F2F2F2"/>
<path d="M1044.19 995.047L1052.31 991.42L1051.33 989.413L1043.21 993.04L1044.19 995.047Z" fill="#F2F2F2"/>
<path d="M1081.95 964.607C1081.95 963.756 1081.44 962.763 1080.8 962.394L1005.75 919.067C1005.18 918.738 1004.71 919.088 1004.71 919.852V926.595L1081.95 971.189V964.607Z" fill="#7857FF"/>
<path d="M1031.4 951.999C1031.4 951.326 1030.99 950.545 1030.49 950.254L1009.69 938.247C1009.19 937.956 1008.78 938.266 1008.78 938.937C1008.78 939.609 1009.19 940.391 1009.69 940.683L1030.49 952.687C1030.99 952.978 1031.4 952.67 1031.4 951.999ZM1040.24 957.1C1040.24 956.429 1039.83 955.649 1039.33 955.357L1033.73 952.127C1033.23 951.837 1032.82 952.146 1032.82 952.817C1032.82 953.49 1033.23 954.271 1033.73 954.562L1039.33 957.79C1039.83 958.082 1040.24 957.773 1040.24 957.1ZM1042.88 976.821L1041.99 975.361L1034.33 989.379L1035.22 990.839L1042.88 976.821Z" fill="#F2F2F2"/>
<rect x="910.809" y="194.13" width="194.13" height="1307.99" transform="rotate(-90 910.809 194.13)" fill="url(#paint8_linear_2228_1246)"/>
</g>
<defs>
<filter id="filter0_f_2228_1246" x="1346.52" y="-625.021" width="1742.99" height="1766.35" filterUnits="userSpaceOnUse" color-interpolation-filters="sRGB">
<feFlood flood-opacity="0" result="BackgroundImageFix"/>
<feBlend mode="normal" in="SourceGraphic" in2="BackgroundImageFix" result="shape"/>
<feGaussianBlur stdDeviation="125" result="effect1_foregroundBlur_2228_1246"/>
</filter>
<filter id="filter1_f_2228_1246" x="1019.52" y="802.291" width="722.259" height="423.509" filterUnits="userSpaceOnUse" color-interpolation-filters="sRGB">
<feFlood flood-opacity="0" result="BackgroundImageFix"/>
<feBlend mode="normal" in="SourceGraphic" in2="BackgroundImageFix" result="shape"/>
<feGaussianBlur stdDeviation="8.07299" result="effect1_foregroundBlur_2228_1246"/>
</filter>
<filter id="filter2_f_2228_1246" x="790.75" y="798.798" width="330.712" height="208.307" filterUnits="userSpaceOnUse" color-interpolation-filters="sRGB">
<feFlood flood-opacity="0" result="BackgroundImageFix"/>
<feBlend mode="normal" in="SourceGraphic" in2="BackgroundImageFix" result="shape"/>
<feGaussianBlur stdDeviation="8.07299" result="effect1_foregroundBlur_2228_1246"/>
</filter>
<filter id="filter3_dd_2228_1246" x="1238.04" y="393.938" width="495.006" height="693.827" filterUnits="userSpaceOnUse" color-interpolation-filters="sRGB">
<feFlood flood-opacity="0" result="BackgroundImageFix"/>
<feColorMatrix in="SourceAlpha" type="matrix" values="0 0 0 0 0 0 0 0 0 0 0 0 0 0 0 0 0 0 127 0" result="hardAlpha"/>
<feOffset dy="1.00912"/>
<feGaussianBlur stdDeviation="1.00912"/>
<feColorMatrix type="matrix" values="0 0 0 0 0 0 0 0 0 0 0 0 0 0 0 0 0 0 0.06 0"/>
<feBlend mode="normal" in2="BackgroundImageFix" result="effect1_dropShadow_2228_1246"/>
<feColorMatrix in="SourceAlpha" type="matrix" values="0 0 0 0 0 0 0 0 0 0 0 0 0 0 0 0 0 0 127 0" result="hardAlpha"/>
<feOffset dy="1.00912"/>
<feGaussianBlur stdDeviation="1.51369"/>
<feColorMatrix type="matrix" values="0 0 0 0 0 0 0 0 0 0 0 0 0 0 0 0 0 0 0.1 0"/>
<feBlend mode="normal" in2="effect1_dropShadow_2228_1246" result="effect2_dropShadow_2228_1246"/>
<feBlend mode="normal" in="SourceGraphic" in2="effect2_dropShadow_2228_1246" result="shape"/>
</filter>
<filter id="filter4_dd_2228_1246" x="1203.85" y="424.745" width="540.946" height="718.06" filterUnits="userSpaceOnUse" color-interpolation-filters="sRGB">
<feFlood flood-opacity="0" result="BackgroundImageFix"/>
<feColorMatrix in="SourceAlpha" type="matrix" values="0 0 0 0 0 0 0 0 0 0 0 0 0 0 0 0 0 0 127 0" result="hardAlpha"/>
<feMorphology radius="6.45745" operator="erode" in="SourceAlpha" result="effect1_dropShadow_2228_1246"/>
<feOffset dy="12.9149"/>
<feGaussianBlur stdDeviation="10.3319"/>
<feColorMatrix type="matrix" values="0 0 0 0 0 0 0 0 0 0 0 0 0 0 0 0 0 0 0.04 0"/>
<feBlend mode="normal" in2="BackgroundImageFix" result="effect1_dropShadow_2228_1246"/>
<feColorMatrix in="SourceAlpha" type="matrix" values="0 0 0 0 0 0 0 0 0 0 0 0 0 0 0 0 0 0 127 0" result="hardAlpha"/>
<feMorphology radius="6.45745" operator="erode" in="SourceAlpha" result="effect2_dropShadow_2228_1246"/>
<feOffset dy="24"/>
<feGaussianBlur stdDeviation="20.6638"/>
<feColorMatrix type="matrix" values="0 0 0 0 0 0 0 0 0 0 0 0 0 0 0 0 0 0 0.1 0"/>
<feBlend mode="normal" in2="effect1_dropShadow_2228_1246" result="effect2_dropShadow_2228_1246"/>
<feBlend mode="normal" in="SourceGraphic" in2="effect2_dropShadow_2228_1246" result="shape"/>
</filter>
<filter id="filter5_d_2228_1246" x="1235.64" y="403.948" width="477.363" height="312.935" filterUnits="userSpaceOnUse" color-interpolation-filters="sRGB">
<feFlood flood-opacity="0" result="BackgroundImageFix"/>
<feColorMatrix in="SourceAlpha" type="matrix" values="0 0 0 0 0 0 0 0 0 0 0 0 0 0 0 0 0 0 127 0" result="hardAlpha"/>
<feOffset dy="1.53955"/>
<feGaussianBlur stdDeviation="1.53955"/>
<feColorMatrix type="matrix" values="0 0 0 0 0 0 0 0 0 0 0 0 0 0 0 0 0 0 0.05 0"/>
<feBlend mode="normal" in2="BackgroundImageFix" result="effect1_dropShadow_2228_1246"/>
<feBlend mode="normal" in="SourceGraphic" in2="effect1_dropShadow_2228_1246" result="shape"/>
</filter>
<filter id="filter6_i_2228_1246" x="1281.22" y="518.697" width="392.58" height="393.393" filterUnits="userSpaceOnUse" color-interpolation-filters="sRGB">
<feFlood flood-opacity="0" result="BackgroundImageFix"/>
<feBlend mode="normal" in="SourceGraphic" in2="BackgroundImageFix" result="shape"/>
<feColorMatrix in="SourceAlpha" type="matrix" values="0 0 0 0 0 0 0 0 0 0 0 0 0 0 0 0 0 0 127 0" result="hardAlpha"/>
<feOffset dy="2.01825"/>
<feGaussianBlur stdDeviation="2.01825"/>
<feComposite in2="hardAlpha" operator="arithmetic" k2="-1" k3="1"/>
<feColorMatrix type="matrix" values="0 0 0 0 0 0 0 0 0 0 0 0 0 0 0 0 0 0 0.06 0"/>
<feBlend mode="normal" in2="shape" result="effect1_innerShadow_2228_1246"/>
</filter>
<filter id="filter7_i_2228_1246" x="1495.96" y="831.238" width="168.889" height="210.002" filterUnits="userSpaceOnUse" color-interpolation-filters="sRGB">
<feFlood flood-opacity="0" result="BackgroundImageFix"/>
<feBlend mode="normal" in="SourceGraphic" in2="BackgroundImageFix" result="shape"/>
<feColorMatrix in="SourceAlpha" type="matrix" values="0 0 0 0 0 0 0 0 0 0 0 0 0 0 0 0 0 0 127 0" result="hardAlpha"/>
<feOffset dy="2.01825"/>
<feGaussianBlur stdDeviation="2.01825"/>
<feComposite in2="hardAlpha" operator="arithmetic" k2="-1" k3="1"/>
<feColorMatrix type="matrix" values="0 0 0 0 0 0 0 0 0 0 0 0 0 0 0 0 0 0 0.06 0"/>
<feBlend mode="normal" in2="shape" result="effect1_innerShadow_2228_1246"/>
</filter>
<filter id="filter8_d_2228_1246" x="1004.96" y="464.58" width="157.714" height="377.827" filterUnits="userSpaceOnUse" color-interpolation-filters="sRGB">
<feFlood flood-opacity="0" result="BackgroundImageFix"/>
<feColorMatrix in="SourceAlpha" type="matrix" values="0 0 0 0 0 0 0 0 0 0 0 0 0 0 0 0 0 0 127 0" result="hardAlpha"/>
<feOffset dy="2.15361"/>
<feGaussianBlur stdDeviation="2.15361"/>
<feColorMatrix type="matrix" values="0 0 0 0 0 0 0 0 0 0 0 0 0 0 0 0 0 0 0.05 0"/>
<feBlend mode="normal" in2="BackgroundImageFix" result="effect1_dropShadow_2228_1246"/>
<feBlend mode="normal" in="SourceGraphic" in2="effect1_dropShadow_2228_1246" result="shape"/>
</filter>
<filter id="filter9_d_2228_1246" x="983.496" y="486.808" width="177.792" height="387.835" filterUnits="userSpaceOnUse" color-interpolation-filters="sRGB">
<feFlood flood-opacity="0" result="BackgroundImageFix"/>
<feColorMatrix in="SourceAlpha" type="matrix" values="0 0 0 0 0 0 0 0 0 0 0 0 0 0 0 0 0 0 127 0" result="hardAlpha"/>
<feMorphology radius="9.03306" operator="erode" in="SourceAlpha" result="effect1_dropShadow_2228_1246"/>
<feOffset dy="18.0661"/>
<feGaussianBlur stdDeviation="14.4529"/>
<feColorMatrix type="matrix" values="0 0 0 0 0 0 0 0 0 0 0 0 0 0 0 0 0 0 0.04 0"/>
<feBlend mode="normal" in2="BackgroundImageFix" result="effect1_dropShadow_2228_1246"/>
<feBlend mode="normal" in="SourceGraphic" in2="effect1_dropShadow_2228_1246" result="shape"/>
</filter>
<filter id="filter10_i_2228_1246" x="1013.94" y="537.277" width="117.633" height="131.77" filterUnits="userSpaceOnUse" color-interpolation-filters="sRGB">
<feFlood flood-opacity="0" result="BackgroundImageFix"/>
<feBlend mode="normal" in="SourceGraphic" in2="BackgroundImageFix" result="shape"/>
<feColorMatrix in="SourceAlpha" type="matrix" values="0 0 0 0 0 0 0 0 0 0 0 0 0 0 0 0 0 0 127 0" result="hardAlpha"/>
<feOffset dy="2.40459"/>
<feGaussianBlur stdDeviation="2.40459"/>
<feComposite in2="hardAlpha" operator="arithmetic" k2="-1" k3="1"/>
<feColorMatrix type="matrix" values="0 0 0 0 0 0 0 0 0 0 0 0 0 0 0 0 0 0 0.06 0"/>
<feBlend mode="normal" in2="shape" result="effect1_innerShadow_2228_1246"/>
</filter>
<filter id="filter11_i_2228_1246" x="1044.09" y="768.575" width="55.875" height="37.9724" filterUnits="userSpaceOnUse" color-interpolation-filters="sRGB">
<feFlood flood-opacity="0" result="BackgroundImageFix"/>
<feBlend mode="normal" in="SourceGraphic" in2="BackgroundImageFix" result="shape"/>
<feColorMatrix in="SourceAlpha" type="matrix" values="0 0 0 0 0 0 0 0 0 0 0 0 0 0 0 0 0 0 127 0" result="hardAlpha"/>
<feOffset dy="3.61322"/>
<feGaussianBlur stdDeviation="3.61322"/>
<feComposite in2="hardAlpha" operator="arithmetic" k2="-1" k3="1"/>
<feColorMatrix type="matrix" values="0 0 0 0 0 0 0 0 0 0 0 0 0 0 0 0 0 0 0.06 0"/>
<feBlend mode="normal" in2="shape" result="effect1_innerShadow_2228_1246"/>
</filter>
<filter id="filter12_d_2228_1246" x="999.062" y="472.451" width="146.661" height="108.665" filterUnits="userSpaceOnUse" color-interpolation-filters="sRGB">
<feFlood flood-opacity="0" result="BackgroundImageFix"/>
<feColorMatrix in="SourceAlpha" type="matrix" values="0 0 0 0 0 0 0 0 0 0 0 0 0 0 0 0 0 0 127 0" result="hardAlpha"/>
<feOffset dy="2.15361"/>
<feGaussianBlur stdDeviation="2.15361"/>
<feColorMatrix type="matrix" values="0 0 0 0 0 0 0 0 0 0 0 0 0 0 0 0 0 0 0.05 0"/>
<feBlend mode="normal" in2="BackgroundImageFix" result="effect1_dropShadow_2228_1246"/>
<feBlend mode="normal" in="SourceGraphic" in2="effect1_dropShadow_2228_1246" result="shape"/>
</filter>
<filter id="filter13_dd_2228_1246" x="967.531" y="987.049" width="172.504" height="103.822" filterUnits="userSpaceOnUse" color-interpolation-filters="sRGB">
<feFlood flood-opacity="0" result="BackgroundImageFix"/>
<feColorMatrix in="SourceAlpha" type="matrix" values="0 0 0 0 0 0 0 0 0 0 0 0 0 0 0 0 0 0 127 0" result="hardAlpha"/>
<feMorphology radius="1" operator="erode" in="SourceAlpha" result="effect1_dropShadow_2228_1246"/>
<feOffset dy="2"/>
<feGaussianBlur stdDeviation="2"/>
<feColorMatrix type="matrix" values="0 0 0 0 0 0 0 0 0 0 0 0 0 0 0 0 0 0 0.06 0"/>
<feBlend mode="normal" in2="BackgroundImageFix" result="effect1_dropShadow_2228_1246"/>
<feColorMatrix in="SourceAlpha" type="matrix" values="0 0 0 0 0 0 0 0 0 0 0 0 0 0 0 0 0 0 127 0" result="hardAlpha"/>
<feMorphology radius="1" operator="erode" in="SourceAlpha" result="effect2_dropShadow_2228_1246"/>
<feOffset dy="4"/>
<feGaussianBlur stdDeviation="3"/>
<feColorMatrix type="matrix" values="0 0 0 0 0 0 0 0 0 0 0 0 0 0 0 0 0 0 0.1 0"/>
<feBlend mode="normal" in2="effect1_dropShadow_2228_1246" result="effect2_dropShadow_2228_1246"/>
<feBlend mode="normal" in="SourceGraphic" in2="effect2_dropShadow_2228_1246" result="shape"/>
</filter>
<radialGradient id="paint0_radial_2228_1246" cx="0" cy="0" r="1" gradientUnits="userSpaceOnUse" gradientTransform="translate(1354.57 843.842) rotate(150) scale(716.392 726.793)">
<stop stop-color="#F4F4F4"/>
<stop offset="0.72182" stop-color="#898989" stop-opacity="0"/>
</radialGradient>
<linearGradient id="paint1_linear_2228_1246" x1="1486.65" y1="949.665" x2="1358.39" y2="1171.55" gradientUnits="userSpaceOnUse">
<stop stop-color="#4B5563"/>
<stop offset="1" stop-color="#4B5563" stop-opacity="0"/>
</linearGradient>
<linearGradient id="paint2_linear_2228_1246" x1="1043.43" y1="847.276" x2="926.773" y2="1035.25" gradientUnits="userSpaceOnUse">
<stop stop-color="#4B5563"/>
<stop offset="1" stop-color="#4B5563" stop-opacity="0"/>
</linearGradient>
<linearGradient id="paint3_linear_2228_1246" x1="1474.32" y1="575.515" x2="1312.43" y2="855.924" gradientUnits="userSpaceOnUse">
<stop stop-color="white"/>
<stop offset="0.0001" stop-color="#F9FAFB"/>
<stop offset="1" stop-color="#F3F4F6"/>
</linearGradient>
<linearGradient id="paint4_linear_2228_1246" x1="1072.39" y1="533.886" x2="956.989" y2="733.77" gradientUnits="userSpaceOnUse">
<stop stop-color="white"/>
<stop offset="0.0001" stop-color="#F9FAFB"/>
<stop offset="1" stop-color="#F3F4F6"/>
</linearGradient>
<linearGradient id="paint5_linear_2228_1246" x1="1113.8" y1="44.5045" x2="2113.5" y2="795.082" gradientUnits="userSpaceOnUse">
<stop stop-color="#DED9FC"/>
<stop offset="0.136573" stop-color="#725CF6"/>
<stop offset="0.244792" stop-color="#5854FD"/>
<stop offset="0.369792" stop-color="#FFC368" stop-opacity="0.75"/>
<stop offset="0.4375" stop-color="#EF9AF3" stop-opacity="0.79"/>
<stop offset="0.530697" stop-color="#7C79FE"/>
<stop offset="0.694752" stop-color="#5854FD"/>
<stop offset="0.942708" stop-color="#9C4FFF"/>
<stop offset="1" stop-color="#E1D5FF"/>
</linearGradient>
<linearGradient id="paint6_linear_2228_1246" x1="1256.7" y1="1078.13" x2="1745.31" y2="281.906" gradientUnits="userSpaceOnUse">
<stop offset="0.0027083" stop-color="white"/>
<stop offset="0.176722" stop-color="white" stop-opacity="0"/>
</linearGradient>
<linearGradient id="paint7_linear_2228_1246" x1="2220" y1="798.977" x2="1813.4" y2="798.977" gradientUnits="userSpaceOnUse">
<stop stop-color="#F9FAFB"/>
<stop offset="0.394851" stop-color="#F9FAFB" stop-opacity="0.89"/>
<stop offset="0.693541" stop-color="#F9FAFB" stop-opacity="0.452733"/>
<stop offset="1" stop-color="#F9FAFB" stop-opacity="0"/>
</linearGradient>
<linearGradient id="paint8_linear_2228_1246" x1="1104.94" y1="993.107" x2="919.206" y2="993.107" gradientUnits="userSpaceOnUse">
<stop stop-color="#F9FAFB"/>
<stop offset="0.394851" stop-color="#F9FAFB" stop-opacity="0.89"/>
<stop offset="0.693541" stop-color="#F9FAFB" stop-opacity="0.452733"/>
<stop offset="1" stop-color="#F9FAFB" stop-opacity="0"/>
</linearGradient>
<clipPath id="clip0_2228_1246">
<rect width="2220" height="1500" fill="white"/>
</clipPath>
</defs>
</svg>
