<svg viewBox="0 0 2220 1500" fill="none" xmlns="http://www.w3.org/2000/svg">
<g clip-path="url(#clip0_2228_1246)">
<rect width="2220" height="1500" fill="#F9FAFB"/>
<mask id="mask0_2228_1246" style="mask-type:alpha" maskUnits="userSpaceOnUse" x="1563" y="-253" width="519" height="954">
<line y1="-0.426784" x2="631.641" y2="-0.426784" transform="matrix(-4.84939e-08 1 -0.865554 -0.532714 1563 -252.544)" stroke="white" stroke-width="0.853568"/>
<line y1="-0.426784" x2="631.641" y2="-0.426784" transform="matrix(-4.81944e-08 1 -0.865554 -0.532714 1637.01 -206.76)" stroke="white" stroke-width="0.853568"/>
<line y1="-0.426784" x2="631.641" y2="-0.426784" transform="matrix(-4.81944e-08 1 -0.865554 -0.532714 1711.02 -160.975)" stroke="white" stroke-width="0.853568"/>
<line y1="-0.426784" x2="631.641" y2="-0.426784" transform="matrix(-4.81944e-08 1 -0.865554 -0.532714 1785.03 -115.191)" stroke="white" stroke-width="0.853568"/>
<line y1="-0.426784" x2="631.641" y2="-0.426784" transform="matrix(-4.81944e-08 1 -0.865554 -0.532714 1859.04 -69.4062)" stroke="white" stroke-width="0.853568"/>
<line y1="-0.426784" x2="631.641" y2="-0.426784" transform="matrix(-4.81944e-08 1 -0.865554 -0.532714 1933.05 -23.6226)" stroke="white" stroke-width="0.853568"/>
<line y1="-0.426784" x2="631.641" y2="-0.426784" transform="matrix(-4.81944e-08 1 -0.865554 -0.532714 2007.06 22.1626)" stroke="white" stroke-width="0.853568"/>
<line y1="-0.426784" x2="631.641" y2="-0.426784" transform="matrix(-4.81944e-08 1 -0.865554 -0.532714 2081.06 67.9468)" stroke="white" stroke-width="0.853568"/>
<line y1="-0.426784" x2="575.519" y2="-0.426784" transform="matrix(-0.866025 -0.5 1.52389e-07 -1 2075.82 225.514)" stroke="white" stroke-width="0.853568"/>
<line y1="-0.426784" x2="575.519" y2="-0.426784" transform="matrix(-0.866025 -0.5 1.52389e-07 -1 2075.82 310.973)" stroke="white" stroke-width="0.853568"/>
<line y1="-0.426784" x2="575.519" y2="-0.426784" transform="matrix(-0.866025 -0.5 1.52389e-07 -1 2075.82 396.431)" stroke="white" stroke-width="0.853568"/>
<line y1="-0.426784" x2="575.519" y2="-0.426784" transform="matrix(-0.866025 -0.5 1.52389e-07 -1 2075.82 481.889)" stroke="white" stroke-width="0.853568"/>
<line y1="-0.426784" x2="575.519" y2="-0.426784" transform="matrix(-0.866025 -0.5 1.52389e-07 -1 2075.82 567.349)" stroke="white" stroke-width="0.853568"/>
<line y1="-0.426784" x2="575.519" y2="-0.426784" transform="matrix(-0.866025 -0.5 1.52389e-07 -1 2075.82 652.692)" stroke="white" stroke-width="0.853568"/>
</mask>
<g mask="url(#mask0_2228_1246)">
<g filter="url(#filter0_f_2228_1246)">
<path d="M2081.63 -375.021L2839.51 -365.878L2780.08 891.334L1596.52 236.568L2081.63 -375.021Z" fill="#D9D9D9"/>
</g>
</g>
<mask id="mask1_2228_1246" style="mask-type:alpha" maskUnits="userSpaceOnUse" x="259" y="204" width="2312" height="1335">
<line y1="-0.426784" x2="1166.82" y2="-0.426784" transform="matrix(-0.866025 0.5 -0.866025 -0.5 1271.03 204.945)" stroke="white" stroke-width="0.853568"/>
<line y1="-0.426784" x2="1166.82" y2="-0.426784" transform="matrix(-0.866025 0.5 -0.866025 -0.5 1343.21 246.617)" stroke="white" stroke-width="0.853568"/>
<line y1="-0.426784" x2="1166.82" y2="-0.426784" transform="matrix(-0.866025 0.5 -0.866025 -0.5 1415.38 288.29)" stroke="white" stroke-width="0.853568"/>
<line y1="-0.426784" x2="1166.82" y2="-0.426784" transform="matrix(-0.866025 0.5 -0.866025 -0.5 1487.56 329.962)" stroke="white" stroke-width="0.853568"/>
<line y1="-0.426784" x2="1166.82" y2="-0.426784" transform="matrix(-0.866025 0.5 -0.866025 -0.5 1559.74 371.634)" stroke="white" stroke-width="0.853568"/>
<line y1="-0.426784" x2="1166.82" y2="-0.426784" transform="matrix(-0.866025 0.5 -0.866025 -0.5 1631.92 413.306)" stroke="white" stroke-width="0.853568"/>
<line y1="-0.426784" x2="1166.82" y2="-0.426784" transform="matrix(-0.866025 0.5 -0.866025 -0.5 1704.1 454.978)" stroke="white" stroke-width="0.853568"/>
<line y1="-0.426784" x2="1166.82" y2="-0.426784" transform="matrix(-0.866025 0.5 -0.866025 -0.5 1776.28 496.65)" stroke="white" stroke-width="0.853568"/>
<line y1="-0.426784" x2="1166.82" y2="-0.426784" transform="matrix(-0.866025 0.5 -0.866025 -0.5 1848.45 538.322)" stroke="white" stroke-width="0.853568"/>
<line y1="-0.426784" x2="1166.82" y2="-0.426784" transform="matrix(-0.866025 0.5 -0.866025 -0.5 1920.63 579.994)" stroke="white" stroke-width="0.853568"/>
<line y1="-0.426784" x2="1166.82" y2="-0.426784" transform="matrix(-0.866025 0.5 -0.866025 -0.5 1992.81 621.667)" stroke="white" stroke-width="0.853568"/>
<line y1="-0.426784" x2="1166.82" y2="-0.426784" transform="matrix(-0.866025 0.5 -0.866025 -0.5 2064.99 663.339)" stroke="white" stroke-width="0.853568"/>
<line y1="-0.426784" x2="1166.82" y2="-0.426784" transform="matrix(-0.866025 0.5 -0.866025 -0.5 2137.17 705.011)" stroke="white" stroke-width="0.853568"/>
<line y1="-0.426784" x2="1166.82" y2="-0.426784" transform="matrix(-0.866025 0.5 -0.866025 -0.5 2209.35 746.684)" stroke="white" stroke-width="0.853568"/>
<line y1="-0.426784" x2="1166.82" y2="-0.426784" transform="matrix(-0.866025 0.5 -0.866025 -0.5 2281.52 788.355)" stroke="white" stroke-width="0.853568"/>
<line y1="-0.426784" x2="1166.82" y2="-0.426784" transform="matrix(-0.866025 0.5 -0.866025 -0.5 2353.7 830.028)" stroke="white" stroke-width="0.853568"/>
<line y1="-0.426784" x2="1166.82" y2="-0.426784" transform="matrix(-0.866025 0.5 -0.866025 -0.5 2425.88 871.699)" stroke="white" stroke-width="0.853568"/>
<line y1="-0.426784" x2="1166.82" y2="-0.426784" transform="matrix(-0.866025 0.5 -0.866025 -0.5 2498.06 913.371)" stroke="white" stroke-width="0.853568"/>
<line y1="-0.426784" x2="1058.73" y2="-0.426784" transform="matrix(-0.866025 0.5 -0.866025 -0.5 2523.99 981.74)" stroke="white" stroke-width="0.853568"/>
<line y1="-0.426784" x2="1500.2" y2="-0.426784" transform="matrix(-0.866025 -0.5 0.866026 -0.5 2570.24 955.043)" stroke="white" stroke-width="0.853568"/>
<line y1="-0.426784" x2="1500.2" y2="-0.426784" transform="matrix(-0.866025 -0.5 0.866026 -0.5 2498.06 996.715)" stroke="white" stroke-width="0.853568"/>
<line y1="-0.426784" x2="1500.2" y2="-0.426784" transform="matrix(-0.866025 -0.5 0.866026 -0.5 2425.88 1038.39)" stroke="white" stroke-width="0.853568"/>
<line y1="-0.426784" x2="1500.2" y2="-0.426784" transform="matrix(-0.866025 -0.5 0.866026 -0.5 2353.7 1080.06)" stroke="white" stroke-width="0.853568"/>
<line y1="-0.426784" x2="1500.2" y2="-0.426784" transform="matrix(-0.866025 -0.5 0.866026 -0.5 2281.52 1121.73)" stroke="white" stroke-width="0.853568"/>
<line y1="-0.426784" x2="1500.2" y2="-0.426784" transform="matrix(-0.866025 -0.5 0.866026 -0.5 2209.34 1163.4)" stroke="white" stroke-width="0.853568"/>
<line y1="-0.426784" x2="1500.2" y2="-0.426784" transform="matrix(-0.866025 -0.5 0.866026 -0.5 2137.16 1205.08)" stroke="white" stroke-width="0.853568"/>
<line y1="-0.426784" x2="1500.2" y2="-0.426784" transform="matrix(-0.866025 -0.5 0.866026 -0.5 2064.99 1246.75)" stroke="white" stroke-width="0.853568"/>
<line y1="-0.426784" x2="1500.2" y2="-0.426784" transform="matrix(-0.866025 -0.5 0.866026 -0.5 1992.81 1288.42)" stroke="white" stroke-width="0.853568"/>
<line y1="-0.426784" x2="1500.2" y2="-0.426784" transform="matrix(-0.866025 -0.5 0.866026 -0.5 1920.63 1330.09)" stroke="white" stroke-width="0.853568"/>
<line y1="-0.426784" x2="1500.2" y2="-0.426784" transform="matrix(-0.866025 -0.5 0.866026 -0.5 1848.46 1371.77)" stroke="white" stroke-width="0.853568"/>
<line y1="-0.426784" x2="1500.2" y2="-0.426784" transform="matrix(-0.866025 -0.5 0.866026 -0.5 1776.27 1413.44)" stroke="white" stroke-width="0.853568"/>
<line y1="-0.426784" x2="1500.2" y2="-0.426784" transform="matrix(-0.866025 -0.5 0.866026 -0.5 1704.1 1455.11)" stroke="white" stroke-width="0.853568"/>
<line y1="-0.426784" x2="1500.2" y2="-0.426784" transform="matrix(-0.866025 -0.5 0.866026 -0.5 1631.92 1496.78)" stroke="white" stroke-width="0.853568"/>
<line y1="-0.426784" x2="1500.2" y2="-0.426784" transform="matrix(-0.866025 -0.5 0.866026 -0.5 1559.74 1538.45)" stroke="white" stroke-width="0.853568"/>
</mask>
<g mask="url(#mask1_2228_1246)">
<path d="M1874.47 1185.03C1612.42 1336.32 1151.04 1315.33 843.925 1138.02C536.815 960.709 500.455 694.328 762.5 543.036C1024.55 391.744 1485.93 412.736 1793.04 590.046C2100.15 767.357 2136.51 1033.74 1874.47 1185.03Z" fill="url(#paint0_radial_2228_1246)" stroke="white" stroke-width="0.739869"/>
</g>
<g opacity="0.07" filter="url(#filter1_f_2228_1246)">
<path d="M1258.6 818.004L1738.4 1095.02L1468.06 1251.1C1461.1 1255.11 1449.82 1255.11 1442.87 1251.1L988.259 988.629C981.303 984.613 981.303 978.102 988.259 974.086L1258.6 818.004Z" fill="url(#paint1_linear_2228_1246)"/>
</g>
<g filter="url(#filter2_dd_2228_1246)">
<path d="M1261.84 397.267C1263.31 396.494 1265.27 396.72 1267.31 397.896L1728.91 664.404C1732.04 666.21 1734.58 670.602 1734.58 674.214L1734.58 1080.51C1734.58 1083.98 1733.25 1086.51 1730.95 1087.42L1706.25 1097.17L1271.91 819.349C1267.45 816.5 1263.86 810.393 1263.5 805.05L1236.66 410.452L1261.84 397.267Z" fill="#E5E7EB"/>
<path d="M1237.97 444.314L1236.27 443.333L1236.27 445.295L1236.27 813.665C1236.27 820.436 1241.03 828.669 1246.89 832.055L1699.5 1093.37C1705.36 1096.75 1710.11 1094.01 1710.11 1087.24L1710.11 718.868L1710.11 716.906L1708.42 715.925L1237.97 444.314Z" fill="url(#paint2_linear_2228_1246)" stroke="white" stroke-width="3.92409"/>
<path d="M1466.64 670.051L1466.15 671.029L1459.64 667.269L1460.05 666.247L1466.64 670.051ZM1465.69 671.876L1465.14 672.849L1459.64 669.677L1460.05 668.621L1465.69 671.876ZM1467.94 667.738L1467.06 669.388C1466.95 669.261 1466.82 669.094 1466.65 668.886C1466.49 668.676 1466.29 668.46 1466.06 668.239C1465.84 668.02 1465.58 667.828 1465.29 667.662C1464.88 667.425 1464.53 667.337 1464.23 667.4C1463.94 667.46 1463.71 667.696 1463.55 668.108C1463.39 668.523 1463.31 669.14 1463.31 669.962C1463.31 670.79 1463.39 671.501 1463.55 672.094C1463.71 672.685 1463.94 673.177 1464.23 673.571C1464.53 673.965 1464.88 674.281 1465.29 674.518C1465.58 674.682 1465.83 674.785 1466.05 674.828C1466.28 674.872 1466.47 674.887 1466.63 674.872C1466.8 674.856 1466.92 674.837 1467.02 674.817L1467.9 677.489C1467.55 677.608 1467.15 677.621 1466.7 677.528C1466.26 677.434 1465.79 677.242 1465.29 676.954C1464.44 676.458 1463.67 675.79 1463.01 674.95C1462.35 674.112 1461.84 673.151 1461.46 672.066C1461.09 670.977 1460.9 669.812 1460.9 668.571C1460.9 667.334 1461.09 666.384 1461.46 665.723C1461.84 665.061 1462.35 664.689 1463.01 664.605C1463.67 664.523 1464.44 664.73 1465.29 665.227C1465.81 665.526 1466.29 665.887 1466.73 666.311C1467.17 666.736 1467.57 667.212 1467.94 667.738ZM1473.96 670.384L1473.96 681.799L1471.57 680.423L1471.57 671.582L1471.51 671.549L1469.3 671.833L1469.3 669.447L1471.74 669.105L1473.96 670.384ZM1476.14 683.061L1476.14 681.077L1479.75 679.513C1480.02 679.387 1480.25 679.262 1480.44 679.137C1480.63 679.009 1480.77 678.855 1480.87 678.675C1480.97 678.491 1481.02 678.257 1481.02 677.975C1481.02 677.659 1480.96 677.355 1480.84 677.064C1480.73 676.768 1480.56 676.499 1480.35 676.255C1480.14 676.012 1479.9 675.812 1479.63 675.656C1479.36 675.498 1479.12 675.425 1478.91 675.436C1478.71 675.443 1478.55 675.534 1478.43 675.709C1478.32 675.886 1478.26 676.147 1478.26 676.492L1476 675.185C1476 674.409 1476.15 673.825 1476.45 673.435C1476.75 673.045 1477.18 672.855 1477.73 672.866C1478.28 672.876 1478.92 673.09 1479.64 673.51C1480.39 673.943 1481.04 674.464 1481.6 675.074C1482.15 675.683 1482.58 676.335 1482.88 677.03C1483.19 677.723 1483.34 678.412 1483.34 679.095C1483.34 679.53 1483.26 679.918 1483.11 680.258C1482.96 680.598 1482.69 680.912 1482.3 681.202C1481.91 681.494 1481.35 681.793 1480.64 682.1L1479.45 682.677L1479.45 682.749L1483.46 685.062L1483.46 687.286L1476.14 683.061ZM1487.24 687.907L1487.2 688.501C1487.16 688.991 1487.08 689.446 1486.96 689.864C1486.84 690.287 1486.72 690.656 1486.59 690.97C1486.46 691.284 1486.35 691.526 1486.27 691.697L1484.79 690.839C1484.84 690.653 1484.91 690.39 1484.99 690.05C1485.08 689.712 1485.17 689.32 1485.25 688.874C1485.32 688.428 1485.37 687.955 1485.38 687.456L1485.39 686.837L1487.24 687.907ZM1492.54 680.958C1493.08 681.27 1493.6 681.67 1494.09 682.159C1494.58 682.644 1495.02 683.219 1495.41 683.884C1495.8 684.546 1496.1 685.299 1496.32 686.144C1496.54 686.99 1496.65 687.929 1496.65 688.962C1496.66 689.915 1496.56 690.712 1496.37 691.353C1496.17 691.991 1495.89 692.467 1495.52 692.783C1495.16 693.101 1494.72 693.251 1494.21 693.234C1493.7 693.214 1493.12 693.022 1492.49 692.658C1491.8 692.256 1491.19 691.748 1490.65 691.133C1490.13 690.516 1489.7 689.852 1489.39 689.14C1489.07 688.431 1488.88 687.731 1488.82 687.042L1491.17 688.399C1491.25 688.821 1491.4 689.197 1491.64 689.528C1491.88 689.855 1492.16 690.114 1492.49 690.305C1493.1 690.655 1493.55 690.613 1493.85 690.18C1494.15 689.747 1494.3 689.01 1494.3 687.97L1494.24 687.936C1494.1 688.198 1493.91 688.379 1493.65 688.477C1493.4 688.577 1493.11 688.597 1492.78 688.536C1492.45 688.474 1492.1 688.338 1491.73 688.126C1491.14 687.784 1490.62 687.326 1490.16 686.752C1489.71 686.18 1489.36 685.546 1489.1 684.851C1488.85 684.158 1488.72 683.46 1488.71 682.755C1488.71 681.966 1488.87 681.363 1489.19 680.947C1489.51 680.527 1489.96 680.314 1490.54 680.308C1491.11 680.299 1491.78 680.516 1492.54 680.958ZM1492.56 683.084C1492.26 682.913 1492 682.841 1491.76 682.867C1491.54 682.895 1491.36 683.006 1491.22 683.201C1491.09 683.396 1491.03 683.664 1491.03 684.004C1491.03 684.344 1491.1 684.687 1491.23 685.032C1491.36 685.38 1491.54 685.698 1491.76 685.988C1491.99 686.28 1492.25 686.51 1492.55 686.679C1492.77 686.806 1492.97 686.876 1493.16 686.891C1493.34 686.906 1493.5 686.872 1493.64 686.788C1493.78 686.701 1493.89 686.57 1493.97 686.395C1494.05 686.222 1494.09 686.011 1494.08 685.76C1494.08 685.427 1494.01 685.087 1493.88 684.74C1493.75 684.392 1493.57 684.072 1493.33 683.778C1493.11 683.483 1492.85 683.251 1492.56 683.084ZM1501.69 686.238C1502.23 686.551 1502.75 686.951 1503.24 687.44C1503.73 687.925 1504.17 688.5 1504.56 689.165C1504.94 689.826 1505.25 690.58 1505.47 691.425C1505.69 692.27 1505.8 693.21 1505.8 694.243C1505.8 695.196 1505.71 695.993 1505.51 696.634C1505.32 697.271 1505.03 697.748 1504.67 698.064C1504.3 698.381 1503.87 698.532 1503.35 698.515C1502.84 698.495 1502.27 698.302 1501.64 697.938C1500.95 697.537 1500.33 697.029 1499.8 696.414C1499.27 695.797 1498.85 695.133 1498.53 694.421C1498.22 693.711 1498.03 693.012 1497.97 692.322L1500.32 693.68C1500.39 694.101 1500.55 694.478 1500.79 694.808C1501.02 695.135 1501.31 695.395 1501.64 695.586C1502.25 695.935 1502.7 695.893 1503 695.461C1503.3 695.028 1503.45 694.291 1503.45 693.25L1503.39 693.217C1503.25 693.479 1503.05 693.659 1502.8 693.758C1502.55 693.858 1502.26 693.878 1501.92 693.816C1501.59 693.755 1501.24 693.618 1500.88 693.407C1500.29 693.065 1499.76 692.607 1499.31 692.033C1498.86 691.46 1498.5 690.827 1498.25 690.132C1497.99 689.439 1497.86 688.74 1497.86 688.036C1497.86 687.246 1498.02 686.643 1498.34 686.227C1498.66 685.807 1499.11 685.595 1499.69 685.589C1500.26 685.58 1500.93 685.796 1501.69 686.238ZM1501.7 688.365C1501.41 688.194 1501.14 688.121 1500.91 688.147C1500.68 688.175 1500.5 688.287 1500.37 688.482C1500.24 688.677 1500.17 688.945 1500.18 689.285C1500.18 689.625 1500.25 689.967 1500.38 690.313C1500.51 690.66 1500.69 690.979 1500.91 691.269C1501.14 691.561 1501.4 691.791 1501.69 691.96C1501.91 692.086 1502.11 692.157 1502.3 692.172C1502.49 692.187 1502.65 692.152 1502.79 692.069C1502.93 691.981 1503.04 691.85 1503.11 691.676C1503.19 691.503 1503.23 691.291 1503.23 691.04C1503.23 690.708 1503.16 690.368 1503.03 690.02C1502.89 689.673 1502.71 689.352 1502.48 689.059C1502.25 688.763 1501.99 688.532 1501.7 688.365Z" fill="#4B5563"/>
<g filter="url(#filter3_i_2228_1246)">
<rect width="130.88" height="153.784" rx="9.35189" transform="matrix(0.866025 0.5 -2.20305e-08 1 1298.01 531.433)" fill="#E5E7EB"/>
</g>
<rect width="243.764" height="13.088" rx="5.79035" transform="matrix(0.866025 0.5 -2.20305e-08 1 1456.69 701.576)" fill="#E5E7EB"/>
<rect width="243.764" height="13.088" rx="5.79035" transform="matrix(0.866025 0.5 -2.20305e-08 1 1298.01 770.287)" fill="#E5E7EB"/>
<rect width="150.512" height="13.088" rx="5.79035" transform="matrix(0.866025 0.5 -2.20305e-08 1 1456.69 727.752)" fill="#E5E7EB"/>
<rect width="150.512" height="13.088" rx="5.79035" transform="matrix(0.866025 0.5 -2.20305e-08 1 1298.01 796.463)" fill="#E5E7EB"/>
<rect width="104.704" height="22.904" rx="11.452" transform="matrix(0.866025 0.5 -2.20305e-08 1 1456.69 753.927)" fill="#D1B6FF"/>
<rect width="55.6239" height="9.81599" rx="4.90799" transform="matrix(0.866025 0.5 -2.20305e-08 1 1477.94 772.741)" fill="#EBE6FF"/>
<rect width="86.7079" height="13.088" rx="5.79035" transform="matrix(0.866025 0.5 -2.20305e-08 1 1456.69 623.048)" fill="#6B7280"/>
<rect width="86.7079" height="13.088" rx="5.79035" transform="matrix(0.866025 0.5 -2.20305e-08 1 1298.01 744.112)" fill="#6B7280"/>
<g filter="url(#filter4_dd_2228_1246)">
<path d="M1325.4 582.371C1325.82 582.129 1326.38 582.183 1326.97 582.522L1391.1 619.457C1392.32 620.162 1393.31 621.878 1393.31 623.29L1393.31 698.448C1393.31 699.222 1393.01 699.778 1392.49 699.962L1387.78 701.619L1325.34 661.414C1324.21 660.681 1323.3 659.098 1323.26 657.757L1320.98 586.104C1320.95 585.383 1321.19 584.83 1321.62 584.577L1325.4 582.371Z" fill="#D1D5DB"/>
</g>
<g filter="url(#filter5_dd_2228_1246)">
<rect width="80.8029" height="79.7897" rx="4.41689" transform="matrix(0.866025 0.5 -2.20305e-08 1 1319.53 583.1)" fill="#E5E7EB"/>
<rect x="0.566393" y="0.981021" width="79.4949" height="78.4817" rx="3.76287" transform="matrix(0.866025 0.5 -2.20305e-08 1 1319.61 582.817)" stroke="white" stroke-width="1.30803"/>
</g>
<mask id="mask2_2228_1246" style="mask-type:alpha" maskUnits="userSpaceOnUse" x="1324" y="592" width="61" height="102">
<rect width="70.3133" height="69.4316" rx="4.41689" transform="matrix(0.866025 0.5 -2.20305e-08 1 1324.07 590.901)" fill="white"/>
</mask>
<g mask="url(#mask2_2228_1246)">
<path d="M1367.69 655.266C1368.6 654.41 1370.41 655.454 1371.33 657.37L1388.91 694.044C1390.06 696.454 1388.99 698.35 1387.09 697.252L1351.93 676.955C1350.03 675.857 1348.95 672.718 1350.11 671.642L1367.69 655.266Z" fill="#D1D5DB"/>
<path d="M1339.87 628.453C1340.79 627.597 1342.6 628.641 1343.52 630.558L1368.33 682.326C1369.49 684.737 1368.41 686.632 1366.51 685.534L1316.88 656.882C1314.98 655.785 1313.91 652.646 1315.06 651.569L1339.87 628.453Z" fill="#9CA3AF"/>
<ellipse cx="9.20372" cy="9.08832" rx="9.20372" ry="9.08832" transform="matrix(0.866025 0.5 -2.20305e-08 1 1353.29 619.022)" fill="#9CA3AF"/>
</g>
<rect width="54.9372" height="54.9372" transform="matrix(0.866025 0.5 -2.20305e-08 1 1331.03 599.491)" stroke="#4B5563"/>
<g filter="url(#filter6_d_2228_1246)">
<mask id="path-72-outside-1_2228_1246" maskUnits="userSpaceOnUse" x="1234.51" y="407.055" width="478.046" height="314" fill="black">
<rect fill="white" x="1234.51" y="407.055" width="478.046" height="314"/>
<path d="M1237.97 416.229C1237.97 414.476 1239.2 413.766 1240.72 414.642L1705.67 683.079C1707.19 683.955 1708.42 686.087 1708.42 687.839L1708.42 718.622L1237.97 447.012L1237.97 416.229Z"/>
</mask>
<path d="M1237.97 416.229C1237.97 414.476 1239.2 413.766 1240.72 414.642L1705.67 683.079C1707.19 683.955 1708.42 686.087 1708.42 687.839L1708.42 718.622L1237.97 447.012L1237.97 416.229Z" fill="#F9FAFB"/>
<path d="M1234.57 414.267C1234.57 410.347 1237.33 408.758 1240.72 410.718L1705.67 679.155C1709.06 681.115 1711.81 685.882 1711.81 689.801L1705.02 686.628L1241.37 418.942L1234.57 414.267ZM1708.42 718.622L1237.97 447.012L1708.42 718.622ZM1234.57 445.05L1234.57 414.267C1234.57 410.347 1237.33 408.758 1240.72 410.718L1241.37 418.942L1241.37 448.974L1234.57 445.05ZM1705.67 679.155C1709.06 681.115 1711.81 685.882 1711.81 689.801L1711.81 720.584L1705.02 716.66L1705.02 686.628L1705.67 679.155Z" fill="white" mask="url(#path-72-outside-1_2228_1246)"/>
</g>
<circle cx="3.80812" cy="3.80812" r="3.80812" transform="matrix(0.866025 0.5 -2.20305e-08 1 1249.26 431.195)" fill="#EF4444"/>
<circle cx="3.80812" cy="3.80812" r="3.80812" transform="matrix(0.866025 0.5 -2.20305e-08 1 1260.25 437.541)" fill="#F59E0B"/>
<circle cx="3.80812" cy="3.80812" r="3.80812" transform="matrix(0.866025 0.5 -2.20305e-08 1 1271.25 443.888)" fill="#10B981"/>
<rect width="275.472" height="15.5926" rx="3.11853" transform="matrix(0.866025 0.5 -2.20305e-08 1 1363.15 494.495)" fill="#E5E7EB"/>
</g>
<g opacity="0.06" filter="url(#filter7_f_2228_1246)">
<path d="M1003.74 803.004L1223.9 930.118L1084.04 1010.87C1078.71 1013.95 1070.06 1013.95 1064.73 1010.87L863.873 894.904C858.54 891.825 858.54 886.833 863.873 883.754L1003.74 803.004Z" fill="url(#paint3_linear_2228_1246)"/>
</g>
<g filter="url(#filter8_dd_2228_1246)">
<path d="M1021.29 519.534C1023.93 518.162 1027.43 518.558 1031.06 520.642L1235.62 637.793C1238.26 639.301 1240.4 642.996 1240.4 646.035L1240.4 871.043C1240.4 876.083 1238.54 879.813 1235.29 881.302L1220.03 888.287C1219.07 888.73 1217.78 888.491 1216.49 887.624L1029.39 762.504C1027.08 760.962 1025.25 757.802 1025.03 755.02L1007.87 529.395C1007.74 527.646 1008.28 526.306 1009.33 525.758L1021.29 519.534Z" fill="#E5E7EB"/>
</g>
<g filter="url(#filter9_d_2228_1246)">
<rect width="248.256" height="242.437" rx="5.48729" transform="matrix(0.866025 0.5 -2.20305e-08 1 1005.66 524.736)" fill="url(#paint4_linear_2228_1246)"/>
<rect x="1.09723" y="1.90046" width="245.722" height="239.903" rx="4.22031" transform="matrix(0.866025 0.5 -2.20305e-08 1 1005.81 524.187)" stroke="white" stroke-width="2.53395"/>
</g>
<rect width="195.889" height="29.0925" rx="5.48729" transform="matrix(0.866025 0.5 -2.20305e-08 1 1029.18 678.926)" fill="#E5E7EB"/>
<path d="M1046.74 706.822L1046.74 700.17L1047.61 700.672L1047.61 703.848L1047.68 703.889L1050.09 702.108L1051.19 702.739L1048.86 704.392L1051.2 709.395L1050.15 708.791L1048.29 704.745L1047.61 705.255L1047.61 707.323L1046.74 706.822ZM1053.43 710.787C1053.03 710.554 1052.67 710.242 1052.37 709.854C1052.07 709.465 1051.84 709.03 1051.67 708.548C1051.5 708.066 1051.42 707.568 1051.42 707.053C1051.42 706.535 1051.5 706.131 1051.67 705.84C1051.84 705.548 1052.07 705.383 1052.37 705.343C1052.67 705.303 1053.03 705.4 1053.43 705.633C1053.84 705.867 1054.19 706.178 1054.49 706.567C1054.8 706.956 1055.03 707.392 1055.2 707.876C1055.36 708.36 1055.45 708.86 1055.45 709.378C1055.45 709.893 1055.36 710.295 1055.2 710.584C1055.03 710.873 1054.8 711.038 1054.49 711.078C1054.19 711.118 1053.84 711.021 1053.43 710.787ZM1053.44 709.974C1053.7 710.125 1053.92 710.171 1054.09 710.11C1054.26 710.05 1054.39 709.91 1054.47 709.691C1054.56 709.474 1054.6 709.205 1054.6 708.884C1054.6 708.566 1054.56 708.249 1054.47 707.934C1054.39 707.618 1054.26 707.329 1054.09 707.067C1053.92 706.805 1053.7 706.598 1053.44 706.447C1053.17 706.294 1052.95 706.249 1052.78 706.31C1052.61 706.373 1052.48 706.515 1052.39 706.734C1052.31 706.953 1052.27 707.221 1052.27 707.54C1052.27 707.86 1052.31 708.177 1052.39 708.491C1052.48 708.806 1052.61 709.094 1052.78 709.354C1052.95 709.614 1053.17 709.821 1053.44 709.974ZM1056.39 712.391L1056.39 707.403L1057.2 707.872L1057.2 708.665L1057.24 708.691C1057.32 708.468 1057.46 708.337 1057.66 708.298C1057.86 708.258 1058.09 708.311 1058.34 708.457C1058.39 708.487 1058.45 708.525 1058.53 708.57C1058.6 708.617 1058.66 708.655 1058.7 708.686L1058.7 709.615C1058.66 709.584 1058.6 709.538 1058.52 709.475C1058.43 709.41 1058.35 709.353 1058.26 709.303C1058.06 709.188 1057.88 709.134 1057.73 709.142C1057.57 709.149 1057.45 709.211 1057.36 709.33C1057.27 709.447 1057.23 709.614 1057.23 709.831L1057.23 712.877L1056.39 712.391ZM1061.7 710.47L1061.7 711.249L1059.34 709.887L1059.34 709.107L1061.7 710.47ZM1059.97 708.277L1060.81 708.763L1060.81 713.482C1060.81 713.67 1060.84 713.826 1060.88 713.949C1060.93 714.071 1061 714.171 1061.07 714.25C1061.15 714.328 1061.24 714.393 1061.33 714.446C1061.4 714.485 1061.46 714.514 1061.51 714.532C1061.56 714.551 1061.6 714.565 1061.62 714.575L1061.78 715.464C1061.73 715.458 1061.66 715.44 1061.57 715.409C1061.48 715.381 1061.37 715.329 1061.23 715.253C1061.01 715.13 1060.8 714.965 1060.61 714.76C1060.42 714.554 1060.27 714.318 1060.15 714.05C1060.03 713.783 1059.97 713.499 1059.97 713.198L1059.97 708.277ZM1062.63 715.995L1062.63 711.007L1063.47 711.492L1063.47 716.481L1062.63 715.995ZM1063.05 710.482C1062.91 710.398 1062.78 710.269 1062.68 710.096C1062.57 709.921 1062.52 709.755 1062.52 709.597C1062.52 709.437 1062.57 709.33 1062.68 709.277C1062.78 709.223 1062.91 709.238 1063.05 709.323C1063.2 709.407 1063.32 709.537 1063.43 709.711C1063.53 709.884 1063.58 710.051 1063.58 710.211C1063.58 710.369 1063.53 710.475 1063.43 710.529C1063.32 710.582 1063.2 710.567 1063.05 710.482ZM1065.44 714.657L1065.44 717.619L1064.6 717.134L1064.6 712.145L1065.41 712.611L1065.41 713.423L1065.46 713.454C1065.56 713.247 1065.72 713.125 1065.93 713.087C1066.14 713.05 1066.41 713.126 1066.73 713.313C1067.03 713.483 1067.29 713.703 1067.51 713.974C1067.73 714.242 1067.9 714.551 1068.02 714.901C1068.14 715.251 1068.21 715.631 1068.21 716.043L1068.21 719.216L1067.36 718.73L1067.36 715.674C1067.36 715.312 1067.28 714.983 1067.12 714.685C1066.96 714.385 1066.73 714.153 1066.45 713.988C1066.25 713.876 1066.08 713.824 1065.93 713.834C1065.78 713.845 1065.66 713.919 1065.57 714.057C1065.48 714.193 1065.44 714.393 1065.44 714.657ZM1071.14 722.887C1070.8 722.689 1070.51 722.467 1070.26 722.22C1070.01 721.974 1069.81 721.721 1069.66 721.46C1069.5 721.199 1069.39 720.944 1069.31 720.697L1070.03 720.77C1070.08 720.894 1070.15 721.034 1070.23 721.189C1070.32 721.347 1070.44 721.506 1070.58 721.666C1070.73 721.827 1070.92 721.975 1071.15 722.109C1071.47 722.293 1071.74 722.356 1071.94 722.296C1072.15 722.239 1072.26 722.015 1072.26 721.625L1072.26 720.645L1072.2 720.614C1072.15 720.691 1072.08 720.766 1071.98 720.841C1071.89 720.917 1071.76 720.955 1071.59 720.955C1071.43 720.955 1071.22 720.878 1070.95 720.726C1070.61 720.529 1070.3 720.259 1070.03 719.917C1069.76 719.574 1069.54 719.176 1069.38 718.722C1069.22 718.267 1069.14 717.775 1069.14 717.244C1069.14 716.714 1069.22 716.304 1069.38 716.015C1069.54 715.727 1069.75 715.561 1070.03 715.518C1070.3 715.473 1070.61 715.55 1070.96 715.75C1071.22 715.905 1071.44 716.082 1071.61 716.281C1071.77 716.478 1071.9 716.672 1071.99 716.861C1072.09 717.052 1072.16 717.213 1072.21 717.347L1072.27 717.382L1072.27 716.574L1073.09 717.049L1073.09 722.148C1073.09 722.577 1073.01 722.879 1072.84 723.054C1072.66 723.23 1072.43 723.298 1072.13 723.261C1071.84 723.224 1071.51 723.099 1071.14 722.887ZM1071.14 720.027C1071.38 720.167 1071.58 720.22 1071.75 720.187C1071.92 720.152 1072.05 720.037 1072.13 719.842C1072.22 719.646 1072.26 719.376 1072.26 719.032C1072.26 718.696 1072.22 718.376 1072.13 718.071C1072.05 717.765 1071.92 717.493 1071.76 717.254C1071.59 717.013 1071.38 716.821 1071.14 716.679C1070.88 716.533 1070.67 716.487 1070.5 716.541C1070.33 716.593 1070.21 716.723 1070.12 716.931C1070.04 717.14 1069.99 717.403 1069.99 717.722C1069.99 718.049 1070.04 718.36 1070.12 718.657C1070.21 718.954 1070.34 719.22 1070.51 719.456C1070.68 719.693 1070.89 719.884 1071.14 720.027ZM1077.46 720.787L1076.7 720.503C1076.66 720.372 1076.61 720.236 1076.54 720.094C1076.48 719.953 1076.39 719.817 1076.27 719.685C1076.15 719.553 1076.01 719.436 1075.83 719.336C1075.6 719.198 1075.4 719.145 1075.24 719.177C1075.08 719.206 1075 719.317 1075 719.509C1075 719.676 1075.05 719.841 1075.16 720.005C1075.27 720.168 1075.44 720.351 1075.68 720.554L1076.36 721.132C1076.76 721.467 1077.06 721.802 1077.25 722.135C1077.45 722.469 1077.54 722.812 1077.54 723.165C1077.54 723.464 1077.47 723.687 1077.32 723.834C1077.17 723.98 1076.96 724.042 1076.7 724.021C1076.43 724 1076.13 723.889 1075.78 723.688C1075.29 723.408 1074.9 723.061 1074.59 722.647C1074.29 722.23 1074.1 721.781 1074.03 721.299L1074.84 721.625C1074.89 721.899 1075 722.144 1075.16 722.361C1075.31 722.575 1075.52 722.756 1075.77 722.902C1076.05 723.061 1076.27 723.122 1076.43 723.085C1076.6 723.046 1076.68 722.93 1076.68 722.738C1076.68 722.582 1076.63 722.422 1076.53 722.257C1076.43 722.094 1076.28 721.925 1076.07 721.752L1075.34 721.145C1074.94 720.806 1074.64 720.465 1074.44 720.122C1074.25 719.78 1074.16 719.431 1074.16 719.076C1074.16 718.781 1074.23 718.565 1074.37 718.426C1074.51 718.288 1074.71 718.229 1074.96 718.251C1075.21 718.27 1075.5 718.374 1075.82 718.561C1076.29 718.831 1076.66 719.16 1076.93 719.548C1077.2 719.935 1077.37 720.348 1077.46 720.787ZM1082.38 727.502C1081.97 727.261 1081.61 726.943 1081.3 726.55C1081 726.156 1080.77 725.719 1080.61 725.238C1080.45 724.758 1080.37 724.267 1080.37 723.767C1080.37 723.261 1080.45 722.861 1080.62 722.569C1080.78 722.274 1081.02 722.104 1081.32 722.059C1081.62 722.013 1081.97 722.108 1082.38 722.343C1082.7 722.533 1083 722.772 1083.25 723.061C1083.51 723.348 1083.72 723.662 1083.87 724.004C1084.03 724.347 1084.13 724.695 1084.16 725.048L1083.34 724.576C1083.3 724.316 1083.19 724.055 1083.03 723.793C1082.87 723.532 1082.66 723.324 1082.39 723.17C1082.16 723.034 1081.95 722.987 1081.77 723.028C1081.6 723.068 1081.46 723.191 1081.37 723.397C1081.27 723.6 1081.22 723.88 1081.22 724.235C1081.22 724.599 1081.27 724.94 1081.36 725.26C1081.46 725.579 1081.59 725.861 1081.77 726.107C1081.94 726.354 1082.15 726.546 1082.39 726.684C1082.55 726.776 1082.69 726.825 1082.82 726.833C1082.95 726.84 1083.06 726.804 1083.15 726.727C1083.24 726.652 1083.3 726.534 1083.34 726.375L1084.16 726.848C1084.13 727.153 1084.04 727.388 1083.89 727.554C1083.73 727.72 1083.53 727.801 1083.28 727.799C1083.02 727.798 1082.73 727.699 1082.38 727.502ZM1086.88 730.097C1086.47 729.863 1086.12 729.551 1085.82 729.163C1085.52 728.774 1085.28 728.339 1085.11 727.857C1084.95 727.376 1084.86 726.877 1084.86 726.362C1084.86 725.844 1084.95 725.44 1085.11 725.149C1085.28 724.857 1085.52 724.692 1085.82 724.652C1086.12 724.612 1086.47 724.709 1086.88 724.942C1087.28 725.176 1087.64 725.488 1087.94 725.876C1088.24 726.265 1088.47 726.701 1088.64 727.185C1088.81 727.669 1088.89 728.17 1088.89 728.687C1088.89 729.202 1088.81 729.605 1088.64 729.894C1088.47 730.183 1088.24 730.347 1087.94 730.387C1087.64 730.427 1087.28 730.33 1086.88 730.097ZM1086.88 729.283C1087.14 729.435 1087.36 729.48 1087.53 729.419C1087.71 729.359 1087.83 729.219 1087.92 729C1088 728.783 1088.04 728.514 1088.04 728.193C1088.04 727.875 1088 727.558 1087.92 727.243C1087.83 726.927 1087.71 726.638 1087.53 726.376C1087.36 726.114 1087.14 725.908 1086.88 725.756C1086.62 725.603 1086.4 725.558 1086.22 725.62C1086.05 725.682 1085.92 725.824 1085.84 726.043C1085.75 726.262 1085.71 726.531 1085.71 726.849C1085.71 727.169 1085.75 727.486 1085.84 727.8C1085.92 728.115 1086.05 728.403 1086.22 728.663C1086.4 728.924 1086.62 729.13 1086.88 729.283ZM1091.45 732.732C1091.1 732.53 1090.79 732.248 1090.51 731.884C1090.24 731.519 1090.03 731.1 1089.87 730.627C1089.72 730.153 1089.64 729.646 1089.64 729.107C1089.64 728.568 1089.72 728.152 1089.88 727.858C1090.03 727.566 1090.25 727.397 1090.52 727.352C1090.8 727.306 1091.11 727.384 1091.45 727.584C1091.72 727.739 1091.94 727.915 1092.1 728.113C1092.26 728.31 1092.39 728.503 1092.48 728.692C1092.57 728.881 1092.65 729.042 1092.7 729.175L1092.75 729.205L1092.75 726.733L1093.59 727.219L1093.59 733.87L1092.77 733.396L1092.77 732.62L1092.7 732.579C1092.65 732.656 1092.57 732.735 1092.48 732.816C1092.38 732.898 1092.25 732.943 1092.09 732.949C1091.92 732.956 1091.71 732.883 1091.45 732.732ZM1091.63 732.011C1091.87 732.15 1092.08 732.195 1092.25 732.144C1092.41 732.092 1092.54 731.959 1092.63 731.744C1092.72 731.531 1092.76 731.249 1092.76 730.898C1092.76 730.552 1092.72 730.224 1092.63 729.914C1092.55 729.605 1092.42 729.329 1092.25 729.088C1092.08 728.846 1091.88 728.655 1091.63 728.513C1091.38 728.367 1091.17 728.321 1091 728.375C1090.83 728.429 1090.7 728.562 1090.62 728.774C1090.53 728.988 1090.49 729.259 1090.49 729.588C1090.49 729.921 1090.53 730.246 1090.62 730.562C1090.71 730.878 1090.83 731.163 1091 731.416C1091.17 731.669 1091.38 731.867 1091.63 732.011ZM1096.65 735.739C1096.22 735.493 1095.86 735.176 1095.55 734.789C1095.24 734.4 1095.01 733.966 1094.84 733.486C1094.68 733.006 1094.59 732.507 1094.59 731.989C1094.59 731.478 1094.68 731.075 1094.84 730.781C1095.01 730.488 1095.24 730.318 1095.54 730.271C1095.84 730.226 1096.19 730.319 1096.59 730.55C1096.83 730.691 1097.07 730.874 1097.3 731.099C1097.53 731.324 1097.73 731.589 1097.92 731.893C1098.1 732.198 1098.24 732.539 1098.35 732.918C1098.45 733.295 1098.5 733.709 1098.5 734.162L1098.5 734.506L1095.07 732.523L1095.07 731.796L1097.68 733.303C1097.68 733.047 1097.63 732.795 1097.54 732.546C1097.45 732.295 1097.33 732.065 1097.16 731.856C1097 731.648 1096.81 731.481 1096.6 731.356C1096.36 731.219 1096.15 731.167 1095.98 731.2C1095.8 731.231 1095.67 731.327 1095.57 731.486C1095.48 731.644 1095.43 731.847 1095.43 732.096L1095.43 732.665C1095.43 732.998 1095.48 733.311 1095.58 733.603C1095.69 733.897 1095.83 734.158 1096.01 734.388C1096.2 734.615 1096.41 734.799 1096.66 734.941C1096.82 735.033 1096.96 735.091 1097.09 735.115C1097.23 735.137 1097.34 735.122 1097.43 735.071C1097.53 735.02 1097.6 734.932 1097.65 734.805L1098.45 735.43C1098.39 735.664 1098.27 735.835 1098.11 735.943C1097.94 736.05 1097.74 736.089 1097.49 736.058C1097.25 736.027 1096.96 735.92 1096.65 735.739Z" fill="#6B7280"/>
<path d="M1158.7 771.462L1158.7 764.811L1162.31 766.896L1162.31 767.76L1159.57 766.177L1159.57 768.203L1162.12 769.678L1162.12 770.538L1159.57 769.064L1159.57 771.1L1162.35 772.703L1162.35 773.567L1158.7 771.462ZM1168.12 770.251L1168.12 776.902L1167.32 776.441L1164.39 769.872L1164.34 769.841L1164.34 774.719L1163.47 774.218L1163.47 767.566L1164.28 768.031L1167.21 774.607L1167.26 774.638L1167.26 769.754L1168.12 770.251ZM1169.11 771.682L1169.11 770.818L1173.56 773.392L1173.56 774.256L1171.77 773.219L1171.77 779.006L1170.9 778.506L1170.9 772.718L1169.11 771.682ZM1174.55 780.612L1174.55 773.961L1178.16 776.046L1178.16 776.91L1175.42 775.327L1175.42 777.353L1177.97 778.828L1177.97 779.688L1175.42 778.214L1175.42 780.25L1178.19 781.853L1178.19 782.717L1174.55 780.612ZM1179.32 783.368L1179.32 776.716L1181.37 777.902C1181.82 778.159 1182.19 778.462 1182.48 778.809C1182.78 779.158 1183 779.531 1183.15 779.93C1183.29 780.326 1183.37 780.729 1183.37 781.138C1183.37 781.545 1183.29 781.861 1183.15 782.085C1183 782.308 1182.78 782.419 1182.48 782.419C1182.19 782.42 1181.82 782.292 1181.37 782.034L1179.82 781.136L1179.82 780.273L1181.29 781.125C1181.57 781.287 1181.8 781.373 1181.98 781.382C1182.16 781.391 1182.29 781.331 1182.37 781.201C1182.45 781.071 1182.49 780.882 1182.49 780.633C1182.49 780.382 1182.45 780.14 1182.37 779.907C1182.28 779.675 1182.15 779.459 1181.98 779.259C1181.8 779.058 1181.57 778.874 1181.28 778.709L1180.19 778.079L1180.19 783.869L1179.32 783.368ZM1182.16 782.008L1183.59 785.831L1182.6 785.259L1181.2 781.453L1182.16 782.008Z" fill="#10B981"/>
<rect width="195.889" height="29.0925" rx="5.48729" transform="matrix(0.866025 0.5 -2.20305e-08 1 1029.18 718.686)" fill="#6B7280"/>
<rect width="124.128" height="10.6672" rx="5.33362" transform="matrix(0.866025 0.5 -2.20305e-08 1 1073.69 754.083)" fill="#9CA3AF"/>
<path d="M1049.52 748.51C1049.2 748.322 1047.24 747.19 1046.91 747.002C1046.58 746.813 1046.26 746.244 1046.26 745.863C1046.26 745.482 1046.58 745.289 1046.91 745.478C1047.24 745.666 1049.2 746.798 1049.52 746.986C1049.85 747.175 1050.18 747.744 1050.18 748.125C1050.18 748.506 1049.85 748.699 1049.52 748.51Z" fill="white"/>
<path fill-rule="evenodd" clip-rule="evenodd" d="M1056.05 746.948C1056.05 745.265 1054.88 743.225 1053.44 742.392L1046.91 738.62C1045.47 737.787 1044.3 738.476 1044.3 740.16L1044.3 744.731C1044.3 746.415 1045.47 748.454 1046.91 749.288L1053.44 753.059C1054.88 753.892 1056.05 753.203 1056.05 751.52L1056.05 746.948ZM1054.75 747.717L1045.6 742.438L1045.6 745.18C1045.6 746.043 1045.6 746.474 1045.84 746.875C1046.07 747.277 1046.44 747.493 1047.19 747.924L1053.16 751.375C1053.91 751.806 1054.28 752.021 1054.52 751.887C1054.75 751.753 1054.75 751.322 1054.75 750.46L1054.75 747.717ZM1049.52 748.51L1046.91 747.002C1046.58 746.813 1046.26 746.244 1046.26 745.863C1046.26 745.482 1046.58 745.289 1046.91 745.478L1049.52 746.986C1049.85 747.175 1050.18 747.744 1050.18 748.125C1050.18 748.506 1049.85 748.699 1049.52 748.51ZM1054.75 746.194L1045.6 740.914V740.914C1045.6 740.344 1045.6 740.06 1045.71 739.909C1045.78 739.81 1045.88 739.752 1046 739.741C1046.18 739.725 1046.43 739.867 1046.92 740.152L1053.43 743.908C1053.92 744.193 1054.17 744.335 1054.35 744.563C1054.47 744.713 1054.57 744.887 1054.64 745.066C1054.75 745.339 1054.75 745.624 1054.75 746.194V746.194Z" fill="white"/>
<rect width="124.128" height="14.5462" rx="5.48729" transform="matrix(0.866025 0.5 -2.20305e-08 1 1032.54 568.375)" fill="#6B7280"/>
<rect width="124.128" height="11.637" rx="5.48729" transform="matrix(0.866025 0.5 -2.20305e-08 1 1032.54 594.558)" fill="#E5E7EB"/>
<rect width="124.128" height="11.637" rx="5.48729" transform="matrix(0.866025 0.5 -2.20305e-08 1 1032.54 612.014)" fill="#E5E7EB"/>
<rect width="44.6085" height="11.637" rx="5.48729" transform="matrix(0.866025 0.5 -2.20305e-08 1 1032.54 629.469)" fill="#E5E7EB"/>
<rect width="39.7597" height="11.637" rx="5.48729" transform="matrix(0.866025 0.5 -2.20305e-08 1 1160.19 703.17)" fill="#E5E7EB"/>
<rect width="22.3042" height="11.637" rx="5.48729" transform="matrix(0.866025 0.5 -2.20305e-08 1 1175.31 694.443)" fill="#10B981"/>
<rect width="22.3042" height="11.637" rx="5.48729" transform="matrix(0.866025 0.5 -2.20305e-08 1 1175.31 676.987)" fill="#E5E7EB"/>
<path d="M1103.86 964.459L1103.83 968.382C1103.83 969.113 1103.35 969.879 1102.33 970.454L1056.72 996.976C1054.74 998.123 1051.49 998.123 1049.48 996.976L970.995 951.645C969.975 951.071 969.465 950.305 969.465 949.541V945.651C969.465 946.417 969.975 947.181 970.995 947.756L1049.48 993.088C1051.49 994.235 1054.74 994.235 1056.72 993.088L1102.37 966.564C1103.35 965.991 1103.86 965.225 1103.86 964.459Z" fill="#7F7DE2"/>
<path d="M1102.33 962.355C1104.35 963.519 1104.36 965.398 1102.36 966.562L1056.72 993.084C1054.74 994.237 1051.49 994.236 1049.48 993.073L970.994 947.761C968.979 946.597 968.967 944.718 970.95 943.566L1016.59 917.043C1018.59 915.88 1021.84 915.88 1023.85 917.043L1102.33 962.355Z" fill="#9492FE"/>
<path d="M1074.32 982.912L1061.6 990.301L975.852 940.794L988.572 933.402L1074.32 982.912Z" fill="#DCE3E6"/>
<path d="M1090.84 960.548C1090.92 960.593 1090.97 960.65 1090.99 960.715C1091.52 961.701 1092.7 963.234 1095.49 965.196C1095.7 965.349 1095.7 965.577 1095.46 965.716C1092.22 967.643 1084.21 971.595 1075.7 969.574C1075.61 969.552 1075.53 969.52 1075.47 969.48C1075.4 969.441 1075.34 969.395 1075.3 969.346C1071.79 964.421 1078.57 959.765 1081.9 957.888C1082.15 957.753 1082.54 957.749 1082.8 957.87C1086.19 959.47 1088.84 960.155 1090.54 960.455C1090.66 960.471 1090.76 960.504 1090.84 960.548Z" fill="#60C3EF"/>
<path d="M997.152 932.894C997.15 933.029 997.338 933.138 997.57 933.137C997.739 933.138 997.99 933.062 997.991 932.894C998.005 930.417 1001.75 929.282 1004.25 929.281C1004.36 929.281 1004.47 929.254 1004.55 929.21C1004.62 929.166 1004.67 929.105 1004.67 929.038C1004.67 928.904 1004.48 928.795 1004.25 928.795C1001.4 928.794 997.165 930.092 997.152 932.894Z" fill="#8492FA"/>
<path d="M998.832 932.895C998.831 933.029 999.019 933.138 999.25 933.138C999.419 933.138 999.671 933.062 999.672 932.894C999.682 931.089 1002.41 930.254 1004.24 930.254C1004.36 930.254 1004.46 930.227 1004.54 930.183C1004.62 930.139 1004.66 930.078 1004.66 930.011C1004.67 929.877 1004.48 929.768 1004.25 929.769C1002.08 929.767 998.841 930.755 998.832 932.895Z" fill="#8492FA"/>
<path d="M1000.93 933.138C1001.04 933.138 1001.15 933.111 1001.23 933.066C1001.3 933.022 1001.35 932.961 1001.35 932.895C1001.36 931.753 1003.08 931.228 1004.24 931.228C1004.35 931.227 1004.46 931.2 1004.54 931.156C1004.61 931.112 1004.66 931.051 1004.66 930.984C1004.66 930.849 1004.47 930.74 1004.24 930.74C1000.93 930.741 999.759 933.138 1000.93 933.138Z" fill="#8492FA"/>
<path d="M1002.19 932.895C1002.19 933.029 1002.38 933.138 1002.61 933.138C1002.72 933.138 1002.83 933.111 1002.91 933.066C1002.98 933.023 1003.03 932.962 1003.03 932.894C1003.03 932.419 1003.75 932.2 1004.23 932.199C1004.35 932.199 1004.45 932.172 1004.53 932.128C1004.61 932.084 1004.65 932.023 1004.65 931.956C1004.65 931.822 1004.47 931.713 1004.24 931.713C1003.42 931.714 1002.2 932.085 1002.19 932.895ZM1003.93 932.717C1003.65 932.874 1003.65 933.129 1003.92 933.286C1004.19 933.443 1004.63 933.443 1004.9 933.286C1005.17 933.129 1005.18 932.875 1004.91 932.718C1004.64 932.561 1004.2 932.561 1003.93 932.717Z" fill="#8492FA"/>
<path d="M1016.44 928.709L1016.22 928.833L1014.24 929.986L1013.81 929.74L1015.79 928.586L1016.01 928.46L1016.44 928.709Z" fill="#485E69"/>
<path d="M1025.53 923.429L1023.53 924.585L1023.32 924.711L1022.89 924.462L1023.11 924.336L1025.09 923.182L1025.53 923.429Z" fill="#485E69"/>
<path d="M1023.32 924.71L1023.54 924.584L1026.93 926.541C1026.42 926.292 1025.83 926.125 1025.19 926.039L1018.26 922.038L1018.69 921.787L1023.11 924.336L1022.89 924.462L1023.32 924.71ZM1014.91 923.984L1020.15 927.009C1020.01 927.096 1019.88 927.185 1019.76 927.277L1014.48 924.232L1014.91 923.984Z" fill="#485E69"/>
<path d="M1027.16 926.667C1027.09 926.623 1027.01 926.581 1026.93 926.541L1023.54 924.585L1025.52 923.431L1032.75 927.603L1030.76 928.757L1027.38 926.802C1027.31 926.756 1027.24 926.71 1027.16 926.667Z" fill="#FDE081"/>
<path d="M1033.19 927.853L1031.2 929.006L1030.98 929.132L1030.55 928.883L1030.76 928.757L1032.75 927.604L1033.19 927.853Z" fill="#485E69"/>
<path d="M1011.38 926.037L1015.79 928.586L1013.81 929.739L1010.57 927.868C1009.91 927.486 1009.91 926.885 1010.54 926.517L1019.51 921.304C1020.15 920.933 1021.19 920.93 1021.85 921.312L1025.09 923.183L1023.11 924.336L1018.69 921.787L1018.26 922.038L1025.19 926.039C1023.56 925.819 1021.66 926.128 1020.27 926.936C1020.23 926.96 1020.19 926.985 1020.15 927.009L1014.91 923.984L1014.48 924.232L1019.76 927.277C1018.76 928.038 1018.41 928.972 1018.74 929.787L1011.81 925.786L1011.38 926.037Z" fill="#FDE081"/>
<path d="M1011.81 925.786L1018.74 929.787C1018.89 930.154 1019.18 930.498 1019.61 930.79L1016.22 928.834L1016.44 928.708L1016.01 928.46L1015.79 928.586L1011.38 926.036L1011.81 925.786Z" fill="#485E69"/>
<path d="M1028.25 927.806C1028.63 928.747 1028.1 929.846 1026.71 930.654C1026.67 930.678 1026.63 930.702 1026.59 930.725C1026.44 930.807 1026.28 930.883 1026.13 930.954C1024.82 931.537 1023.21 931.743 1021.8 931.553C1021.16 931.468 1020.57 931.301 1020.07 931.052C1019.98 931.012 1019.91 930.971 1019.83 930.927C1019.75 930.883 1019.68 930.837 1019.61 930.79C1019.18 930.498 1018.89 930.155 1018.74 929.787C1018.41 928.972 1018.76 928.038 1019.76 927.277C1019.88 927.185 1020.01 927.096 1020.15 927.009C1020.19 926.985 1020.23 926.96 1020.27 926.936C1021.66 926.128 1023.56 925.819 1025.19 926.039C1025.82 926.125 1026.42 926.292 1026.92 926.541C1027.01 926.581 1027.08 926.623 1027.16 926.666C1027.24 926.71 1027.31 926.756 1027.38 926.802C1027.81 927.095 1028.1 927.438 1028.25 927.806ZM1020.28 930.665C1021.8 931.543 1024.49 931.423 1026.26 930.393C1028.03 929.362 1028.23 927.806 1026.71 926.928C1025.18 926.047 1022.5 926.17 1020.73 927.2C1018.96 928.231 1018.75 929.784 1020.28 930.665Z" fill="#485E69"/>
<path d="M1026.71 926.928C1028.23 927.806 1028.03 929.362 1026.26 930.393C1024.49 931.423 1021.8 931.543 1020.28 930.665C1018.75 929.784 1018.96 928.231 1020.73 927.2C1022.5 926.17 1025.18 926.047 1026.71 926.928Z" fill="#FDE081"/>
<path d="M1031.2 929.007L1035.61 931.556L1035.18 931.807L1028.25 927.806C1028.1 927.438 1027.81 927.095 1027.38 926.802L1030.76 928.756L1030.55 928.882L1030.98 929.133L1031.2 929.007Z" fill="#485E69"/>
<path d="M1026.71 930.654C1028.11 929.846 1028.63 928.747 1028.25 927.806L1035.18 931.807L1031.83 933.753L1026.59 930.725C1026.63 930.702 1026.67 930.678 1026.71 930.654Z" fill="#FDE081"/>
<path d="M1026.59 930.725L1031.83 933.753L1031.41 934.001L1026.13 930.954C1026.29 930.883 1026.44 930.807 1026.59 930.725Z" fill="#485E69"/>
<path d="M1020.07 931.052L1023.45 933.006L1021.47 934.159L1014.24 929.987L1016.22 928.834L1019.61 930.791C1019.68 930.837 1019.75 930.883 1019.83 930.927C1019.91 930.971 1019.99 931.012 1020.07 931.052Z" fill="#FDE081"/>
<path d="M1024.1 933.131L1023.89 933.257L1021.9 934.41L1021.47 934.158L1023.45 933.005L1023.67 932.882L1024.1 933.131Z" fill="#485E69"/>
<path d="M1021.8 931.553C1023.21 931.743 1024.82 931.537 1026.13 930.954L1031.41 934.002L1028.73 935.555L1021.8 931.553Z" fill="#FDE081"/>
<path d="M1021.8 931.553L1028.73 935.555L1028.3 935.806L1023.89 933.257L1024.1 933.131L1023.67 932.881L1023.45 933.006L1020.07 931.052C1020.57 931.301 1021.17 931.468 1021.8 931.553Z" fill="#485E69"/>
<path d="M1021.9 934.41L1023.88 933.257L1028.3 935.806L1027.47 936.289C1026.83 936.658 1025.8 936.66 1025.14 936.279L1021.9 934.41Z" fill="#FDE081"/>
<path d="M1036.42 929.723C1037.08 930.104 1037.08 930.705 1036.44 931.076L1035.61 931.557L1031.2 929.007L1033.18 927.854L1036.42 929.723Z" fill="#FDE081"/>
<g style="mix-blend-mode:color-burn">
<path d="M503.477 741.317C486.162 731.057 482.504 707.551 495.884 692.515L1420.3 -346.357C1429.65 -356.861 1444.76 -360.033 1457.54 -354.176L2640.79 188.047C2658.21 196.03 2664.76 217.433 2654.78 233.796L1872.99 1516.07C1863.87 1531.02 1844.42 1535.87 1829.35 1526.94L503.477 741.317Z" fill="url(#paint5_linear_2228_1246)" fill-opacity="0.6"/>
<path d="M503.477 741.317C486.162 731.057 482.504 707.551 495.884 692.515L1420.3 -346.357C1429.65 -356.861 1444.76 -360.033 1457.54 -354.176L2640.79 188.047C2658.21 196.03 2664.76 217.433 2654.78 233.796L1872.99 1516.07C1863.87 1531.02 1844.42 1535.87 1829.35 1526.94L503.477 741.317Z" fill="url(#paint6_linear_2228_1246)"/>
</g>
<rect x="1795.02" width="424.98" height="1307.99" fill="url(#paint7_linear_2228_1246)"/>
<rect x="721.266" y="194.13" width="194.13" height="1497.53" transform="rotate(-90 721.266 194.13)" fill="url(#paint8_linear_2228_1246)"/>
</g>
<defs>
<filter id="filter0_f_2228_1246" x="1346.52" y="-625.021" width="1742.99" height="1766.35" filterUnits="userSpaceOnUse" color-interpolation-filters="sRGB">
<feFlood flood-opacity="0" result="BackgroundImageFix"/>
<feBlend mode="normal" in="SourceGraphic" in2="BackgroundImageFix" result="shape"/>
<feGaussianBlur stdDeviation="125" result="effect1_foregroundBlur_2228_1246"/>
</filter>
<filter id="filter1_f_2228_1246" x="966.897" y="801.858" width="787.649" height="468.398" filterUnits="userSpaceOnUse" color-interpolation-filters="sRGB">
<feFlood flood-opacity="0" result="BackgroundImageFix"/>
<feBlend mode="normal" in="SourceGraphic" in2="BackgroundImageFix" result="shape"/>
<feGaussianBlur stdDeviation="8.07299" result="effect1_foregroundBlur_2228_1246"/>
</filter>
<filter id="filter2_dd_2228_1246" x="1193.57" y="378.816" width="582.002" height="782.351" filterUnits="userSpaceOnUse" color-interpolation-filters="sRGB">
<feFlood flood-opacity="0" result="BackgroundImageFix"/>
<feColorMatrix in="SourceAlpha" type="matrix" values="0 0 0 0 0 0 0 0 0 0 0 0 0 0 0 0 0 0 127 0" result="hardAlpha"/>
<feMorphology radius="2" operator="erode" in="SourceAlpha" result="effect1_dropShadow_2228_1246"/>
<feOffset dy="12"/>
<feGaussianBlur stdDeviation="4"/>
<feColorMatrix type="matrix" values="0 0 0 0 0 0 0 0 0 0 0 0 0 0 0 0 0 0 0.04 0"/>
<feBlend mode="normal" in2="BackgroundImageFix" result="effect1_dropShadow_2228_1246"/>
<feColorMatrix in="SourceAlpha" type="matrix" values="0 0 0 0 0 0 0 0 0 0 0 0 0 0 0 0 0 0 127 0" result="hardAlpha"/>
<feMorphology radius="3" operator="erode" in="SourceAlpha" result="effect2_dropShadow_2228_1246"/>
<feOffset dy="23"/>
<feGaussianBlur stdDeviation="22"/>
<feColorMatrix type="matrix" values="0 0 0 0 0 0 0 0 0 0 0 0 0 0 0 0 0 0 0.1 0"/>
<feBlend mode="normal" in2="effect1_dropShadow_2228_1246" result="effect2_dropShadow_2228_1246"/>
<feBlend mode="normal" in="SourceGraphic" in2="effect2_dropShadow_2228_1246" result="shape"/>
</filter>
<filter id="filter3_i_2228_1246" x="1298.01" y="535.002" width="113.346" height="213.616" filterUnits="userSpaceOnUse" color-interpolation-filters="sRGB">
<feFlood flood-opacity="0" result="BackgroundImageFix"/>
<feBlend mode="normal" in="SourceGraphic" in2="BackgroundImageFix" result="shape"/>
<feColorMatrix in="SourceAlpha" type="matrix" values="0 0 0 0 0 0 0 0 0 0 0 0 0 0 0 0 0 0 127 0" result="hardAlpha"/>
<feOffset dy="1.53209"/>
<feGaussianBlur stdDeviation="1.53209"/>
<feComposite in2="hardAlpha" operator="arithmetic" k2="-1" k3="1"/>
<feColorMatrix type="matrix" values="0 0 0 0 0 0 0 0 0 0 0 0 0 0 0 0 0 0 0.06 0"/>
<feBlend mode="normal" in2="shape" result="effect1_innerShadow_2228_1246"/>
</filter>
<filter id="filter4_dd_2228_1246" x="1316.47" y="580.72" width="81.3468" height="128.408" filterUnits="userSpaceOnUse" color-interpolation-filters="sRGB">
<feFlood flood-opacity="0" result="BackgroundImageFix"/>
<feColorMatrix in="SourceAlpha" type="matrix" values="0 0 0 0 0 0 0 0 0 0 0 0 0 0 0 0 0 0 127 0" result="hardAlpha"/>
<feOffset dy="1.50181"/>
<feGaussianBlur stdDeviation="1.50181"/>
<feColorMatrix type="matrix" values="0 0 0 0 0 0 0 0 0 0 0 0 0 0 0 0 0 0 0.06 0"/>
<feBlend mode="normal" in2="BackgroundImageFix" result="effect1_dropShadow_2228_1246"/>
<feColorMatrix in="SourceAlpha" type="matrix" values="0 0 0 0 0 0 0 0 0 0 0 0 0 0 0 0 0 0 127 0" result="hardAlpha"/>
<feOffset dy="3.00361"/>
<feGaussianBlur stdDeviation="2.25271"/>
<feColorMatrix type="matrix" values="0 0 0 0 0 0 0 0 0 0 0 0 0 0 0 0 0 0 0.1 0"/>
<feBlend mode="normal" in2="effect1_dropShadow_2228_1246" result="effect2_dropShadow_2228_1246"/>
<feBlend mode="normal" in="SourceGraphic" in2="effect2_dropShadow_2228_1246" result="shape"/>
</filter>
<filter id="filter5_dd_2228_1246" x="1315.78" y="584.035" width="77.4856" height="124.328" filterUnits="userSpaceOnUse" color-interpolation-filters="sRGB">
<feFlood flood-opacity="0" result="BackgroundImageFix"/>
<feColorMatrix in="SourceAlpha" type="matrix" values="0 0 0 0 0 0 0 0 0 0 0 0 0 0 0 0 0 0 127 0" result="hardAlpha"/>
<feMorphology radius="0.750904" operator="erode" in="SourceAlpha" result="effect1_dropShadow_2228_1246"/>
<feOffset dy="1.50181"/>
<feGaussianBlur stdDeviation="1.50181"/>
<feColorMatrix type="matrix" values="0 0 0 0 0 0 0 0 0 0 0 0 0 0 0 0 0 0 0.06 0"/>
<feBlend mode="normal" in2="BackgroundImageFix" result="effect1_dropShadow_2228_1246"/>
<feColorMatrix in="SourceAlpha" type="matrix" values="0 0 0 0 0 0 0 0 0 0 0 0 0 0 0 0 0 0 127 0" result="hardAlpha"/>
<feMorphology radius="0.750904" operator="erode" in="SourceAlpha" result="effect2_dropShadow_2228_1246"/>
<feOffset dy="3.00361"/>
<feGaussianBlur stdDeviation="2.25271"/>
<feColorMatrix type="matrix" values="0 0 0 0 0 0 0 0 0 0 0 0 0 0 0 0 0 0 0.1 0"/>
<feBlend mode="normal" in2="effect1_dropShadow_2228_1246" result="effect2_dropShadow_2228_1246"/>
<feBlend mode="normal" in="SourceGraphic" in2="effect2_dropShadow_2228_1246" result="shape"/>
</filter>
<filter id="filter6_d_2228_1246" x="1231.46" y="408.319" width="483.477" height="316.943" filterUnits="userSpaceOnUse" color-interpolation-filters="sRGB">
<feFlood flood-opacity="0" result="BackgroundImageFix"/>
<feColorMatrix in="SourceAlpha" type="matrix" values="0 0 0 0 0 0 0 0 0 0 0 0 0 0 0 0 0 0 127 0" result="hardAlpha"/>
<feOffset dy="1.55926"/>
<feGaussianBlur stdDeviation="1.55926"/>
<feColorMatrix type="matrix" values="0 0 0 0 0 0 0 0 0 0 0 0 0 0 0 0 0 0 0.05 0"/>
<feBlend mode="normal" in2="BackgroundImageFix" result="effect1_dropShadow_2228_1246"/>
<feBlend mode="normal" in="SourceGraphic" in2="effect1_dropShadow_2228_1246" result="shape"/>
</filter>
<filter id="filter7_f_2228_1246" x="848.001" y="791.132" width="387.775" height="233.917" filterUnits="userSpaceOnUse" color-interpolation-filters="sRGB">
<feFlood flood-opacity="0" result="BackgroundImageFix"/>
<feBlend mode="normal" in="SourceGraphic" in2="BackgroundImageFix" result="shape"/>
<feGaussianBlur stdDeviation="5.93603" result="effect1_foregroundBlur_2228_1246"/>
</filter>
<filter id="filter8_dd_2228_1246" x="1005.38" y="517.081" width="237.491" height="374.722" filterUnits="userSpaceOnUse" color-interpolation-filters="sRGB">
<feFlood flood-opacity="0" result="BackgroundImageFix"/>
<feColorMatrix in="SourceAlpha" type="matrix" values="0 0 0 0 0 0 0 0 0 0 0 0 0 0 0 0 0 0 127 0" result="hardAlpha"/>
<feOffset dy="0.824709"/>
<feGaussianBlur stdDeviation="0.824709"/>
<feColorMatrix type="matrix" values="0 0 0 0 0 0 0 0 0 0 0 0 0 0 0 0 0 0 0.06 0"/>
<feBlend mode="normal" in2="BackgroundImageFix" result="effect1_dropShadow_2228_1246"/>
<feColorMatrix in="SourceAlpha" type="matrix" values="0 0 0 0 0 0 0 0 0 0 0 0 0 0 0 0 0 0 127 0" result="hardAlpha"/>
<feOffset dy="0.824709"/>
<feGaussianBlur stdDeviation="1.23706"/>
<feColorMatrix type="matrix" values="0 0 0 0 0 0 0 0 0 0 0 0 0 0 0 0 0 0 0.1 0"/>
<feBlend mode="normal" in2="effect1_dropShadow_2228_1246" result="effect2_dropShadow_2228_1246"/>
<feBlend mode="normal" in="SourceGraphic" in2="effect2_dropShadow_2228_1246" result="shape"/>
</filter>
<filter id="filter9_d_2228_1246" x="1002.37" y="526.831" width="221.594" height="368.974" filterUnits="userSpaceOnUse" color-interpolation-filters="sRGB">
<feFlood flood-opacity="0" result="BackgroundImageFix"/>
<feColorMatrix in="SourceAlpha" type="matrix" values="0 0 0 0 0 0 0 0 0 0 0 0 0 0 0 0 0 0 127 0" result="hardAlpha"/>
<feMorphology radius="1.64942" operator="erode" in="SourceAlpha" result="effect1_dropShadow_2228_1246"/>
<feOffset dy="3.29884"/>
<feGaussianBlur stdDeviation="2.47413"/>
<feColorMatrix type="matrix" values="0 0 0 0 0 0 0 0 0 0 0 0 0 0 0 0 0 0 0.05 0"/>
<feBlend mode="normal" in2="BackgroundImageFix" result="effect1_dropShadow_2228_1246"/>
<feBlend mode="normal" in="SourceGraphic" in2="effect1_dropShadow_2228_1246" result="shape"/>
</filter>
<radialGradient id="paint0_radial_2228_1246" cx="0" cy="0" r="1" gradientUnits="userSpaceOnUse" gradientTransform="translate(1354.57 843.842) rotate(150) scale(716.392 726.793)">
<stop stop-color="#F4F4F4"/>
<stop offset="0.72182" stop-color="#898989" stop-opacity="0"/>
</radialGradient>
<linearGradient id="paint1_linear_2228_1246" x1="1498.5" y1="956.51" x2="1351.12" y2="1261.76" gradientUnits="userSpaceOnUse">
<stop stop-color="#4B5563"/>
<stop offset="1" stop-color="#4B5563" stop-opacity="0"/>
</linearGradient>
<linearGradient id="paint2_linear_2228_1246" x1="1473.19" y1="582.082" x2="1309.23" y2="866.082" gradientUnits="userSpaceOnUse">
<stop stop-color="white"/>
<stop offset="0.0001" stop-color="#F9FAFB"/>
<stop offset="1" stop-color="#F3F4F6"/>
</linearGradient>
<linearGradient id="paint3_linear_2228_1246" x1="1113.82" y1="866.561" x2="1031.44" y2="1018.11" gradientUnits="userSpaceOnUse">
<stop stop-color="#4B5563"/>
<stop offset="1" stop-color="#4B5563" stop-opacity="0"/>
</linearGradient>
<linearGradient id="paint4_linear_2228_1246" x1="124.128" y1="0" x2="124.128" y2="242.437" gradientUnits="userSpaceOnUse">
<stop stop-color="white"/>
<stop offset="0.0001" stop-color="#F9FAFB"/>
<stop offset="1" stop-color="#F3F4F6"/>
</linearGradient>
<linearGradient id="paint5_linear_2228_1246" x1="1113.8" y1="44.5045" x2="2113.5" y2="795.082" gradientUnits="userSpaceOnUse">
<stop stop-color="#DED9FC"/>
<stop offset="0.136573" stop-color="#725CF6"/>
<stop offset="0.244792" stop-color="#5854FD"/>
<stop offset="0.388755" stop-color="#FFC368" stop-opacity="0.75"/>
<stop offset="0.457558" stop-color="#EF9AF3" stop-opacity="0.79"/>
<stop offset="0.552737" stop-color="#7C79FE"/>
<stop offset="0.694752" stop-color="#5854FD"/>
<stop offset="0.942708" stop-color="#9C4FFF"/>
<stop offset="1" stop-color="#E1D5FF"/>
</linearGradient>
<linearGradient id="paint6_linear_2228_1246" x1="1197.97" y1="1193.76" x2="1746.14" y2="282.339" gradientUnits="userSpaceOnUse">
<stop offset="0.0027083" stop-color="white"/>
<stop offset="0.176722" stop-color="white" stop-opacity="0"/>
</linearGradient>
<linearGradient id="paint7_linear_2228_1246" x1="2220" y1="798.977" x2="1813.4" y2="798.977" gradientUnits="userSpaceOnUse">
<stop stop-color="#F9FAFB"/>
<stop offset="0.394851" stop-color="#F9FAFB" stop-opacity="0.89"/>
<stop offset="0.693541" stop-color="#F9FAFB" stop-opacity="0.452733"/>
<stop offset="1" stop-color="#F9FAFB" stop-opacity="0"/>
</linearGradient>
<linearGradient id="paint8_linear_2228_1246" x1="915.396" y1="1108.89" x2="729.663" y2="1108.89" gradientUnits="userSpaceOnUse">
<stop stop-color="#F9FAFB"/>
<stop offset="0.394851" stop-color="#F9FAFB" stop-opacity="0.89"/>
<stop offset="0.693541" stop-color="#F9FAFB" stop-opacity="0.452733"/>
<stop offset="1" stop-color="#F9FAFB" stop-opacity="0"/>
</linearGradient>
<clipPath id="clip0_2228_1246">
<rect width="2220" height="1500" fill="white"/>
</clipPath>
</defs>
</svg>
