<svg viewBox="0 0 2220 1500" fill="none" xmlns="http://www.w3.org/2000/svg">
<g clip-path="url(#clip0_2228_1246)">
<rect width="2220" height="1500" fill="#F9FAFB"/>
<mask id="mask0_2228_1246" style="mask-type:alpha" maskUnits="userSpaceOnUse" x="1563" y="-253" width="519" height="954">
<line y1="-0.426784" x2="631.641" y2="-0.426784" transform="matrix(-4.84939e-08 1 -0.865554 -0.532714 1563 -252.544)" stroke="white" stroke-width="0.853568"/>
<line y1="-0.426784" x2="631.641" y2="-0.426784" transform="matrix(-4.81944e-08 1 -0.865554 -0.532714 1637.01 -206.76)" stroke="white" stroke-width="0.853568"/>
<line y1="-0.426784" x2="631.641" y2="-0.426784" transform="matrix(-4.81944e-08 1 -0.865554 -0.532714 1711.02 -160.975)" stroke="white" stroke-width="0.853568"/>
<line y1="-0.426784" x2="631.641" y2="-0.426784" transform="matrix(-4.81944e-08 1 -0.865554 -0.532714 1785.03 -115.191)" stroke="white" stroke-width="0.853568"/>
<line y1="-0.426784" x2="631.641" y2="-0.426784" transform="matrix(-4.81944e-08 1 -0.865554 -0.532714 1859.04 -69.4062)" stroke="white" stroke-width="0.853568"/>
<line y1="-0.426784" x2="631.641" y2="-0.426784" transform="matrix(-4.81944e-08 1 -0.865554 -0.532714 1933.05 -23.6226)" stroke="white" stroke-width="0.853568"/>
<line y1="-0.426784" x2="631.641" y2="-0.426784" transform="matrix(-4.81944e-08 1 -0.865554 -0.532714 2007.06 22.1626)" stroke="white" stroke-width="0.853568"/>
<line y1="-0.426784" x2="631.641" y2="-0.426784" transform="matrix(-4.81944e-08 1 -0.865554 -0.532714 2081.06 67.9468)" stroke="white" stroke-width="0.853568"/>
<line y1="-0.426784" x2="575.519" y2="-0.426784" transform="matrix(-0.866025 -0.5 1.52389e-07 -1 2075.82 225.514)" stroke="white" stroke-width="0.853568"/>
<line y1="-0.426784" x2="575.519" y2="-0.426784" transform="matrix(-0.866025 -0.5 1.52389e-07 -1 2075.82 310.973)" stroke="white" stroke-width="0.853568"/>
<line y1="-0.426784" x2="575.519" y2="-0.426784" transform="matrix(-0.866025 -0.5 1.52389e-07 -1 2075.82 396.431)" stroke="white" stroke-width="0.853568"/>
<line y1="-0.426784" x2="575.519" y2="-0.426784" transform="matrix(-0.866025 -0.5 1.52389e-07 -1 2075.82 481.889)" stroke="white" stroke-width="0.853568"/>
<line y1="-0.426784" x2="575.519" y2="-0.426784" transform="matrix(-0.866025 -0.5 1.52389e-07 -1 2075.82 567.349)" stroke="white" stroke-width="0.853568"/>
<line y1="-0.426784" x2="575.519" y2="-0.426784" transform="matrix(-0.866025 -0.5 1.52389e-07 -1 2075.82 652.692)" stroke="white" stroke-width="0.853568"/>
</mask>
<g mask="url(#mask0_2228_1246)">
<g filter="url(#filter0_f_2228_1246)">
<path d="M2081.63 -375.021L2839.51 -365.878L2780.08 891.334L1596.52 236.568L2081.63 -375.021Z" fill="#D9D9D9"/>
</g>
</g>
<mask id="mask1_2228_1246" style="mask-type:alpha" maskUnits="userSpaceOnUse" x="259" y="204" width="2312" height="1335">
<line y1="-0.426784" x2="1166.82" y2="-0.426784" transform="matrix(-0.866025 0.5 -0.866025 -0.5 1271.03 204.945)" stroke="white" stroke-width="0.853568"/>
<line y1="-0.426784" x2="1166.82" y2="-0.426784" transform="matrix(-0.866025 0.5 -0.866025 -0.5 1343.21 246.617)" stroke="white" stroke-width="0.853568"/>
<line y1="-0.426784" x2="1166.82" y2="-0.426784" transform="matrix(-0.866025 0.5 -0.866025 -0.5 1415.38 288.29)" stroke="white" stroke-width="0.853568"/>
<line y1="-0.426784" x2="1166.82" y2="-0.426784" transform="matrix(-0.866025 0.5 -0.866025 -0.5 1487.56 329.962)" stroke="white" stroke-width="0.853568"/>
<line y1="-0.426784" x2="1166.82" y2="-0.426784" transform="matrix(-0.866025 0.5 -0.866025 -0.5 1559.74 371.634)" stroke="white" stroke-width="0.853568"/>
<line y1="-0.426784" x2="1166.82" y2="-0.426784" transform="matrix(-0.866025 0.5 -0.866025 -0.5 1631.92 413.306)" stroke="white" stroke-width="0.853568"/>
<line y1="-0.426784" x2="1166.82" y2="-0.426784" transform="matrix(-0.866025 0.5 -0.866025 -0.5 1704.1 454.978)" stroke="white" stroke-width="0.853568"/>
<line y1="-0.426784" x2="1166.82" y2="-0.426784" transform="matrix(-0.866025 0.5 -0.866025 -0.5 1776.28 496.65)" stroke="white" stroke-width="0.853568"/>
<line y1="-0.426784" x2="1166.82" y2="-0.426784" transform="matrix(-0.866025 0.5 -0.866025 -0.5 1848.45 538.322)" stroke="white" stroke-width="0.853568"/>
<line y1="-0.426784" x2="1166.82" y2="-0.426784" transform="matrix(-0.866025 0.5 -0.866025 -0.5 1920.63 579.994)" stroke="white" stroke-width="0.853568"/>
<line y1="-0.426784" x2="1166.82" y2="-0.426784" transform="matrix(-0.866025 0.5 -0.866025 -0.5 1992.81 621.667)" stroke="white" stroke-width="0.853568"/>
<line y1="-0.426784" x2="1166.82" y2="-0.426784" transform="matrix(-0.866025 0.5 -0.866025 -0.5 2064.99 663.339)" stroke="white" stroke-width="0.853568"/>
<line y1="-0.426784" x2="1166.82" y2="-0.426784" transform="matrix(-0.866025 0.5 -0.866025 -0.5 2137.17 705.011)" stroke="white" stroke-width="0.853568"/>
<line y1="-0.426784" x2="1166.82" y2="-0.426784" transform="matrix(-0.866025 0.5 -0.866025 -0.5 2209.35 746.684)" stroke="white" stroke-width="0.853568"/>
<line y1="-0.426784" x2="1166.82" y2="-0.426784" transform="matrix(-0.866025 0.5 -0.866025 -0.5 2281.52 788.355)" stroke="white" stroke-width="0.853568"/>
<line y1="-0.426784" x2="1166.82" y2="-0.426784" transform="matrix(-0.866025 0.5 -0.866025 -0.5 2353.7 830.028)" stroke="white" stroke-width="0.853568"/>
<line y1="-0.426784" x2="1166.82" y2="-0.426784" transform="matrix(-0.866025 0.5 -0.866025 -0.5 2425.88 871.699)" stroke="white" stroke-width="0.853568"/>
<line y1="-0.426784" x2="1166.82" y2="-0.426784" transform="matrix(-0.866025 0.5 -0.866025 -0.5 2498.06 913.371)" stroke="white" stroke-width="0.853568"/>
<line y1="-0.426784" x2="1058.73" y2="-0.426784" transform="matrix(-0.866025 0.5 -0.866025 -0.5 2523.99 981.74)" stroke="white" stroke-width="0.853568"/>
<line y1="-0.426784" x2="1500.2" y2="-0.426784" transform="matrix(-0.866025 -0.5 0.866026 -0.5 2570.24 955.043)" stroke="white" stroke-width="0.853568"/>
<line y1="-0.426784" x2="1500.2" y2="-0.426784" transform="matrix(-0.866025 -0.5 0.866026 -0.5 2498.06 996.715)" stroke="white" stroke-width="0.853568"/>
<line y1="-0.426784" x2="1500.2" y2="-0.426784" transform="matrix(-0.866025 -0.5 0.866026 -0.5 2425.88 1038.39)" stroke="white" stroke-width="0.853568"/>
<line y1="-0.426784" x2="1500.2" y2="-0.426784" transform="matrix(-0.866025 -0.5 0.866026 -0.5 2353.7 1080.06)" stroke="white" stroke-width="0.853568"/>
<line y1="-0.426784" x2="1500.2" y2="-0.426784" transform="matrix(-0.866025 -0.5 0.866026 -0.5 2281.52 1121.73)" stroke="white" stroke-width="0.853568"/>
<line y1="-0.426784" x2="1500.2" y2="-0.426784" transform="matrix(-0.866025 -0.5 0.866026 -0.5 2209.34 1163.4)" stroke="white" stroke-width="0.853568"/>
<line y1="-0.426784" x2="1500.2" y2="-0.426784" transform="matrix(-0.866025 -0.5 0.866026 -0.5 2137.16 1205.08)" stroke="white" stroke-width="0.853568"/>
<line y1="-0.426784" x2="1500.2" y2="-0.426784" transform="matrix(-0.866025 -0.5 0.866026 -0.5 2064.99 1246.75)" stroke="white" stroke-width="0.853568"/>
<line y1="-0.426784" x2="1500.2" y2="-0.426784" transform="matrix(-0.866025 -0.5 0.866026 -0.5 1992.81 1288.42)" stroke="white" stroke-width="0.853568"/>
<line y1="-0.426784" x2="1500.2" y2="-0.426784" transform="matrix(-0.866025 -0.5 0.866026 -0.5 1920.63 1330.09)" stroke="white" stroke-width="0.853568"/>
<line y1="-0.426784" x2="1500.2" y2="-0.426784" transform="matrix(-0.866025 -0.5 0.866026 -0.5 1848.46 1371.77)" stroke="white" stroke-width="0.853568"/>
<line y1="-0.426784" x2="1500.2" y2="-0.426784" transform="matrix(-0.866025 -0.5 0.866026 -0.5 1776.27 1413.44)" stroke="white" stroke-width="0.853568"/>
<line y1="-0.426784" x2="1500.2" y2="-0.426784" transform="matrix(-0.866025 -0.5 0.866026 -0.5 1704.1 1455.11)" stroke="white" stroke-width="0.853568"/>
<line y1="-0.426784" x2="1500.2" y2="-0.426784" transform="matrix(-0.866025 -0.5 0.866026 -0.5 1631.92 1496.78)" stroke="white" stroke-width="0.853568"/>
<line y1="-0.426784" x2="1500.2" y2="-0.426784" transform="matrix(-0.866025 -0.5 0.866026 -0.5 1559.74 1538.45)" stroke="white" stroke-width="0.853568"/>
</mask>
<g mask="url(#mask1_2228_1246)">
<path d="M1874.47 1185.03C1612.42 1336.32 1151.04 1315.33 843.925 1138.02C536.815 960.709 500.455 694.328 762.5 543.036C1024.55 391.744 1485.93 412.736 1793.04 590.046C2100.15 767.357 2136.51 1033.74 1874.47 1185.03Z" fill="url(#paint0_radial_2228_1246)" stroke="white" stroke-width="0.739869"/>
</g>
<path d="M1092.54 1093.74L1098.83 1093.74L1098.83 1100.55L1092.54 1100.55L1092.54 1093.74Z" fill="#F8B545"/>
<path d="M1025.94 1033.42C1017.02 1033.42 1009.15 1035.52 1002.86 1039.2C997.093 1042.87 993.425 1048.11 992.9 1053.88L992.9 1061.33C992.9 1067.63 997.1 1073.39 1002.86 1077.06C1009.16 1080.73 1017.02 1082.83 1025.94 1082.83C1034.33 1082.83 1042.19 1080.73 1048.49 1077.06C1054.26 1073.39 1058.46 1067.63 1058.46 1061.33L1058.46 1053.99C1057.93 1048.22 1054.26 1042.98 1048.49 1039.3C1042.19 1035.64 1034.33 1033.54 1025.94 1033.54L1025.94 1033.42ZM1025.94 1046.54C1033.28 1046.54 1040.1 1048.64 1044.82 1051.26C1047.97 1053.36 1050.06 1055.45 1051.11 1058.07C1050.06 1060.7 1047.96 1062.8 1044.81 1064.89C1040.1 1067.51 1033.28 1069.61 1025.94 1069.61C1018.07 1069.61 1011.25 1067.51 1006.54 1064.89C1003.39 1062.79 1001.29 1060.7 1000.24 1058.07C1001.29 1055.45 1003.39 1053.35 1006.54 1051.26C1011.25 1048.64 1018.07 1046.54 1025.94 1046.54Z" fill="#4399C0"/>
<path d="M1048.5 1070.14L1047.45 1070.14L1047.45 1076.95L1091.49 1102.12C1092.54 1103.17 1094.11 1103.17 1095.69 1103.17C1097.26 1102.61 1098.31 1102.12 1098.83 1101.07C1099.36 1100.02 1098.83 1098.97 1097.78 1098.45L1048.5 1070.14Z" fill="#F8B545"/>
<path d="M1097.78 1091.64L1048.49 1063.32L1041.67 1066.99L1091.49 1095.83C1092.54 1096.39 1094.11 1096.88 1095.69 1096.39C1097.26 1096.39 1098.31 1095.35 1098.84 1094.29C1099.36 1093.73 1098.84 1092.72 1097.79 1091.67L1097.78 1091.64Z" fill="#FECB5B"/>
<path d="M1025.94 1033.42C1017.02 1033.42 1009.15 1035.52 1002.86 1039.2C997.093 1042.87 992.9 1048.11 992.9 1054.93C992.9 1061.22 997.1 1066.46 1002.86 1070.14C1009.16 1073.81 1017.02 1075.91 1025.94 1075.91C1034.33 1075.91 1042.19 1073.81 1048.49 1070.14C1054.26 1066.46 1058.46 1061.22 1058.46 1054.93C1058.46 1048.11 1054.26 1042.87 1048.49 1039.2C1042.19 1035.52 1034.33 1033.42 1025.94 1033.42ZM1025.94 1040.24C1033.28 1040.24 1040.1 1041.82 1044.82 1044.97C1049.54 1047.59 1052.16 1051.25 1052.16 1054.93C1052.16 1058.08 1049.54 1061.75 1044.81 1064.89C1040.1 1067.51 1033.28 1069.61 1025.94 1069.61C1018.07 1069.61 1011.25 1067.51 1006.54 1064.89C1001.82 1061.74 999.718 1058.07 999.718 1054.93C999.718 1051.25 1001.82 1047.59 1006.54 1044.97C1011.25 1041.82 1018.07 1040.24 1025.94 1040.24Z" fill="#6DB0CF"/>
<path d="M1174.29 776.872L1173.24 786.8L1109.09 815.359L1110.13 805.423L1174.29 776.872ZM1177.76 743.824L1176.72 753.752L1112.56 782.32L1113.61 772.392L1177.76 743.824ZM1181.38 709.43L1180.34 719.358L1116.18 747.917L1117.22 737.989L1181.38 709.43ZM1185.03 674.759L1183.98 684.687L1119.83 713.255L1120.87 703.327L1185.03 674.759ZM1170.63 811.263L1169.59 821.191L1105.43 849.75L1106.48 839.822L1170.63 811.263Z" fill="#FECB5B"/>
<path d="M1166.7 848.487L1158.56 842.874L1178.13 656.89L1186.24 662.779L1166.7 848.487ZM1149.44 846.671L1158.56 842.874L1178.13 656.89L1168.97 660.963L1149.44 846.671Z" fill="#ED4A4B"/>
<path d="M1168.97 660.997L1177.1 666.611L1157.54 852.586L1149.43 846.705L1168.97 660.997Z" fill="#FECB5B"/>
<path d="M1186.23 662.814L1177.1 666.611L1157.54 852.586L1166.7 848.522L1186.23 662.814Z" fill="#F8B545"/>
<path d="M1169.6 821.192L1168.56 831.12L1104.39 859.678L1105.43 849.75L1169.6 821.192Z" fill="#F8B545"/>
<path d="M1111.75 872.979L1103.62 867.366L1123.18 681.39L1131.29 687.279L1111.75 872.979ZM1094.49 871.163L1103.62 867.366L1123.18 681.39L1114.02 685.455L1094.49 871.163Z" fill="#ED4A4B"/>
<path d="M1114.02 685.498L1122.16 691.111L1102.6 877.078L1094.49 871.197L1114.02 685.498Z" fill="#FECB5B"/>
<path d="M1131.28 687.314L1122.16 691.111L1102.59 877.078L1111.75 873.013L1131.28 687.314Z" fill="#F8B545"/>
<path d="M1173.24 786.8L1172.2 796.728L1108.04 825.288L1109.09 815.359L1173.24 786.8ZM1176.72 753.752L1175.68 763.68L1111.52 792.248L1112.56 782.32L1176.72 753.752ZM1180.34 719.358L1179.29 729.286L1115.14 757.845L1116.18 747.917L1180.34 719.358ZM1183.98 684.687L1182.94 694.615L1118.78 723.183L1119.83 713.255L1183.98 684.687Z" fill="#F8B545"/>
<g opacity="0.07" filter="url(#filter1_f_2228_1246)">
<path d="M1165.7 892.283L1465.08 1058.77L1250.42 1187.35C1243.52 1191.48 1232.25 1191.66 1225.23 1187.75L951.271 1035.4C944.252 1031.5 944.147 1024.99 951.037 1020.86L1165.7 892.283Z" fill="url(#paint1_linear_2228_1246)"/>
</g>
<g opacity="0.07" filter="url(#filter2_f_2228_1246)">
<path d="M1199.53 791.779L1728.3 1085.83L1456.3 1248.76C1449.41 1252.89 1438.13 1253.07 1431.11 1249.17L927.76 969.25C920.74 965.347 920.636 958.836 927.526 954.709L1199.53 791.779Z" fill="url(#paint2_linear_2228_1246)"/>
</g>
<g filter="url(#filter3_dd_2228_1246)">
<path d="M1258.06 396.094C1259.53 395.325 1261.48 395.55 1263.51 396.72L1722.62 661.786C1725.73 663.582 1728.25 667.951 1728.25 671.543L1728.25 1075.64C1728.25 1079.1 1726.93 1081.61 1724.64 1082.51L1700.07 1092.21L1268.08 815.893C1263.65 813.06 1260.08 806.986 1259.72 801.672L1233.03 409.207L1258.06 396.094Z" fill="#E5E7EB"/>
</g>
<g filter="url(#filter4_dd_2228_1246)">
<path d="M1232.67 445.367L1700.45 715.441L1700.45 1081.73C1700.45 1087.38 1696.48 1089.67 1691.58 1086.85L1241.53 827.012C1236.64 824.184 1232.67 817.308 1232.67 811.652L1232.67 445.367Z" fill="url(#paint3_linear_2228_1246)"/>
<path d="M1232.67 443.416L1230.98 442.441L1230.98 444.392L1230.98 810.677C1230.98 817.41 1235.7 825.597 1241.53 828.963L1691.58 1088.8C1697.41 1092.16 1702.14 1089.43 1702.14 1082.7L1702.14 716.416L1702.14 714.465L1700.45 713.49L1232.67 443.416Z" stroke="white" stroke-width="3.90188"/>
</g>
<g filter="url(#filter5_d_2228_1246)">
<mask id="path-70-outside-1_2228_1246" maskUnits="userSpaceOnUse" x="1229.2" y="406.334" width="475.448" height="312.5" fill="black">
<rect fill="white" x="1229.2" y="406.334" width="475.448" height="312.5"/>
<path d="M1232.67 415.489C1232.67 413.747 1233.89 413.04 1235.4 413.911L1697.71 680.829C1699.22 681.701 1700.45 683.82 1700.45 685.563L1700.45 716.171L1232.67 446.098L1232.67 415.489Z"/>
</mask>
<path d="M1232.67 415.489C1232.67 413.747 1233.89 413.04 1235.4 413.911L1697.71 680.829C1699.22 681.701 1700.45 683.82 1700.45 685.563L1700.45 716.171L1232.67 446.098L1232.67 415.489Z" fill="#F9FAFB"/>
<path d="M1229.29 413.538C1229.29 409.641 1232.02 408.061 1235.4 410.01L1697.71 676.928C1701.09 678.876 1703.83 683.616 1703.83 687.514L1697.07 684.358L1236.05 418.187L1229.29 413.538ZM1700.45 716.171L1232.67 446.098L1700.45 716.171ZM1229.29 444.147L1229.29 413.538C1229.29 409.641 1232.02 408.061 1235.4 410.01L1236.05 418.187L1236.05 448.049L1229.29 444.147ZM1697.71 676.928C1701.09 678.876 1703.83 683.616 1703.83 687.514L1703.83 718.122L1697.07 714.22L1697.07 684.358L1697.71 676.928Z" fill="white" mask="url(#path-70-outside-1_2228_1246)"/>
</g>
<circle cx="3.78658" cy="3.78658" r="3.78658" transform="matrix(0.866025 0.5 -2.20305e-08 1 1243.89 430.37)" fill="#EF4444"/>
<circle cx="3.78658" cy="3.78658" r="3.78658" transform="matrix(0.866025 0.5 -2.20305e-08 1 1254.82 436.681)" fill="#F59E0B"/>
<circle cx="3.78658" cy="3.78658" r="3.78658" transform="matrix(0.866025 0.5 -2.20305e-08 1 1265.75 442.992)" fill="#10B981"/>
<rect width="273.913" height="15.5044" rx="3.10088" transform="matrix(0.866025 0.5 -2.20305e-08 1 1357.13 493.312)" fill="#E5E7EB"/>
<g filter="url(#filter6_i_2228_1246)">
<rect width="286.575" height="35.0274" rx="14.9711" transform="matrix(0.866025 0.5 -2.20305e-08 1 1336.66 606.6)" fill="#E5E7EB"/>
</g>
<path d="M1448.5 630.493C1448.41 630.084 1448.28 629.695 1448.12 629.327C1447.96 628.955 1447.76 628.605 1447.53 628.279C1447.3 627.951 1447.04 627.649 1446.74 627.374C1446.45 627.102 1446.12 626.863 1445.76 626.657C1445.1 626.272 1444.51 626.125 1444.01 626.216C1443.51 626.309 1443.11 626.64 1442.83 627.209C1442.55 627.773 1442.41 628.579 1442.41 629.629C1442.41 630.678 1442.55 631.65 1442.83 632.545C1443.1 633.44 1443.49 634.227 1444 634.906C1444.51 635.58 1445.1 636.116 1445.79 636.513C1446.41 636.874 1446.95 637.054 1447.39 637.054C1447.83 637.051 1448.17 636.882 1448.41 636.546C1448.65 636.213 1448.76 635.725 1448.76 635.083L1449.33 635.502L1445.96 633.56L1445.96 631.162L1451.42 634.314L1451.42 636.212C1451.42 637.536 1451.18 638.534 1450.69 639.205C1450.21 639.872 1449.54 640.218 1448.69 640.242C1447.85 640.262 1446.87 639.956 1445.78 639.323C1444.55 638.617 1443.48 637.685 1442.55 636.528C1441.63 635.366 1440.91 634.059 1440.39 632.608C1439.87 631.154 1439.62 629.632 1439.62 628.044C1439.62 626.823 1439.77 625.822 1440.08 625.043C1440.39 624.261 1440.82 623.697 1441.38 623.351C1441.93 623.005 1442.58 622.872 1443.32 622.95C1444.06 623.029 1444.86 623.317 1445.72 623.814C1446.46 624.241 1447.15 624.763 1447.78 625.381C1448.42 625.994 1448.99 626.668 1449.48 627.404C1449.97 628.142 1450.38 628.913 1450.69 629.717C1451.01 630.516 1451.21 631.314 1451.3 632.111L1448.5 630.493ZM1457.86 646.315C1456.87 645.744 1456.02 645.007 1455.3 644.105C1454.58 643.2 1454.02 642.199 1453.63 641.1C1453.24 639.997 1453.05 638.867 1453.05 637.709C1453.05 636.542 1453.24 635.635 1453.63 634.988C1454.02 634.336 1454.58 633.974 1455.3 633.903C1456.02 633.83 1456.87 634.078 1457.86 634.65C1458.85 635.221 1459.71 635.959 1460.42 636.864C1461.14 637.766 1461.7 638.769 1462.09 639.872C1462.48 640.97 1462.68 642.103 1462.68 643.27C1462.68 644.427 1462.48 645.332 1462.09 645.984C1461.7 646.631 1461.14 646.992 1460.42 647.065C1459.71 647.136 1458.85 646.886 1457.86 646.315ZM1457.88 643.895C1458.33 644.155 1458.7 644.225 1459 644.105C1459.3 643.98 1459.53 643.704 1459.68 643.277C1459.84 642.853 1459.92 642.313 1459.92 641.656C1459.92 640.998 1459.84 640.367 1459.68 639.762C1459.53 639.158 1459.3 638.62 1459 638.147C1458.7 637.674 1458.33 637.307 1457.88 637.047C1457.42 636.785 1457.04 636.714 1456.73 636.834C1456.42 636.957 1456.19 637.23 1456.03 637.654C1455.88 638.081 1455.8 638.623 1455.8 639.28C1455.8 639.937 1455.88 640.567 1456.03 641.17C1456.19 641.776 1456.42 642.316 1456.73 642.792C1457.04 643.265 1457.42 643.633 1457.88 643.895ZM1468.86 652.666C1467.87 652.095 1467.02 651.358 1466.3 650.456C1465.58 649.551 1465.02 648.55 1464.63 647.452C1464.24 646.348 1464.05 645.218 1464.05 644.061C1464.05 642.894 1464.24 641.987 1464.63 641.339C1465.02 640.687 1465.58 640.325 1466.3 640.254C1467.02 640.181 1467.87 640.43 1468.86 641.001C1469.85 641.572 1470.71 642.31 1471.42 643.215C1472.15 644.117 1472.7 645.12 1473.09 646.223C1473.48 647.322 1473.68 648.454 1473.68 649.621C1473.68 650.779 1473.48 651.683 1473.09 652.335C1472.7 652.983 1472.15 653.343 1471.42 653.417C1470.71 653.488 1469.85 653.238 1468.86 652.666ZM1468.88 650.247C1469.33 650.506 1469.7 650.576 1470 650.456C1470.3 650.331 1470.53 650.055 1470.68 649.629C1470.84 649.205 1470.92 648.664 1470.92 648.007C1470.92 647.35 1470.84 646.718 1470.68 646.113C1470.53 645.51 1470.3 644.972 1470 644.498C1469.7 644.025 1469.33 643.659 1468.88 643.399C1468.42 643.136 1468.04 643.065 1467.73 643.185C1467.42 643.308 1467.19 643.581 1467.03 644.006C1466.88 644.432 1466.81 644.974 1466.81 645.631C1466.81 646.288 1466.88 646.918 1467.03 647.521C1467.19 648.127 1467.42 648.668 1467.73 649.143C1468.04 649.616 1468.42 649.984 1468.88 650.247ZM1479.85 663.262C1478.97 662.754 1478.22 662.179 1477.59 661.537C1476.97 660.902 1476.47 660.24 1476.1 659.551C1475.73 658.862 1475.49 658.189 1475.38 657.532L1477.89 658.591C1477.97 658.861 1478.09 659.141 1478.25 659.433C1478.42 659.725 1478.64 660.008 1478.91 660.283C1479.18 660.565 1479.52 660.82 1479.91 661.048C1480.5 661.389 1480.99 661.503 1481.37 661.39C1481.76 661.284 1481.95 660.844 1481.95 660.069L1481.95 658.003L1481.84 657.936C1481.72 658.182 1481.54 658.375 1481.3 658.518C1481.07 658.66 1480.76 658.711 1480.39 658.672C1480.01 658.633 1479.57 658.464 1479.05 658.164C1478.31 657.74 1477.64 657.158 1477.04 656.418C1476.44 655.675 1475.97 654.793 1475.61 653.773C1475.26 652.751 1475.08 651.615 1475.08 650.364C1475.08 649.084 1475.26 648.12 1475.62 647.47C1475.98 646.82 1476.46 646.455 1477.06 646.374C1477.66 646.296 1478.32 646.463 1479.04 646.878C1479.59 647.194 1480.05 647.567 1480.42 647.996C1480.79 648.42 1481.08 648.856 1481.31 649.305C1481.54 649.751 1481.72 650.162 1481.84 650.537L1481.94 650.596L1481.94 648.698L1484.63 650.254L1484.63 661.662C1484.63 662.623 1484.43 663.309 1484.02 663.721C1483.62 664.133 1483.05 664.293 1482.33 664.199C1481.61 664.114 1480.79 663.801 1479.85 663.262ZM1479.91 656.307C1480.35 656.56 1480.72 656.648 1481.02 656.572C1481.32 656.494 1481.56 656.266 1481.72 655.888C1481.88 655.508 1481.97 654.987 1481.97 654.325C1481.97 653.663 1481.89 653.043 1481.72 652.464C1481.56 651.881 1481.33 651.366 1481.02 650.92C1480.72 650.473 1480.35 650.124 1479.91 649.871C1479.46 649.614 1479.09 649.537 1478.78 649.64C1478.48 649.738 1478.24 649.987 1478.09 650.386C1477.93 650.786 1477.85 651.307 1477.85 651.949C1477.85 652.601 1477.93 653.211 1478.09 653.777C1478.25 654.341 1478.48 654.84 1478.78 655.274C1479.09 655.705 1479.46 656.05 1479.91 656.307ZM1489.51 649.301L1489.51 664.365L1486.79 662.798L1486.79 647.735L1489.51 649.301ZM1496.14 668.415C1495.13 667.834 1494.27 667.098 1493.54 666.208C1492.82 665.316 1492.26 664.323 1491.87 663.229C1491.48 662.131 1491.29 660.986 1491.29 659.795C1491.29 658.632 1491.48 657.725 1491.87 657.073C1492.26 656.421 1492.81 656.054 1493.52 655.974C1494.24 655.895 1495.07 656.133 1496.03 656.687C1496.68 657.06 1497.28 657.527 1497.83 658.088C1498.4 658.647 1498.88 659.285 1499.3 660.001C1499.72 660.719 1500.05 661.506 1500.28 662.362C1500.51 663.212 1500.63 664.118 1500.63 665.079L1500.63 665.94L1492.37 661.17L1492.37 659.228L1498.08 662.523C1498.08 662.072 1497.99 661.624 1497.82 661.177C1497.65 660.731 1497.42 660.323 1497.11 659.953C1496.82 659.58 1496.47 659.28 1496.08 659.052C1495.66 658.814 1495.3 658.713 1494.98 658.75C1494.67 658.784 1494.42 658.934 1494.24 659.199C1494.06 659.459 1493.97 659.811 1493.97 660.254L1493.97 662.1C1493.97 662.659 1494.06 663.194 1494.24 663.704C1494.42 664.216 1494.68 664.678 1495.01 665.09C1495.34 665.502 1495.73 665.839 1496.18 666.102C1496.49 666.276 1496.76 666.386 1497.01 666.433C1497.26 666.479 1497.48 666.456 1497.66 666.363C1497.83 666.27 1497.97 666.108 1498.06 665.877L1500.57 667.518C1500.45 668.14 1500.19 668.598 1499.79 668.889C1499.4 669.179 1498.89 669.289 1498.27 669.22C1497.66 669.149 1496.95 668.881 1496.14 668.415Z" fill="#4B5563"/>
<g filter="url(#filter7_f_2228_1246)">
<rect width="420.663" height="103.82" rx="7.31462" transform="matrix(0.866025 0.5 -2.20305e-08 1 1179.94 598.705)" fill="#A78BFA" fill-opacity="0.15"/>
</g>
<g filter="url(#filter8_d_2228_1246)">
<g filter="url(#filter9_dd_2228_1246)">
<rect width="418.17" height="93.9474" rx="5.77829" transform="matrix(0.866789 0.498676 -2.21085e-08 1 1173.51 605.996)" fill="#D1D0FF"/>
</g>
<rect x="1157.97" y="617.183" width="19.5604" height="18.0501" transform="rotate(-27 1157.97 617.183)" fill="#D1D0FF"/>
<rect x="1511.13" y="897.563" width="16.6485" height="18.367" transform="rotate(-27 1511.13 897.563)" fill="#D1D0FF"/>
<rect width="16.6138" height="21.8839" transform="matrix(0.891654 -0.452718 0.455265 0.890356 1422.29 851.289)" fill="#D1D5DB"/>
<g filter="url(#filter10_dd_2228_1246)">
<rect width="333.103" height="88.2534" rx="5.77829" transform="matrix(0.866025 0.5 -2.20305e-08 1 1170.84 706.161)" fill="#D1D5DB"/>
</g>
<rect x="1156.94" y="720.79" width="19.5604" height="18.2844" transform="rotate(-27 1156.94 720.79)" fill="#D1D5DB"/>
<rect x="1433.2" y="946.212" width="16.8305" height="22.2155" transform="rotate(-27 1433.2 946.212)" fill="#D1D5DB"/>
<g filter="url(#filter11_dd_2228_1246)">
<rect width="333.514" height="88.2694" rx="5.77829" transform="matrix(0.866025 0.5 -2.20305e-08 1 1170.83 800.254)" fill="#D1D5DB"/>
</g>
<rect x="1157.16" y="815.313" width="19.5604" height="17.8016" transform="rotate(-27 1157.16 815.313)" fill="#D1D5DB"/>
<rect x="1432.47" y="1040.67" width="17.6383" height="22.4238" transform="rotate(-27 1432.47 1040.67)" fill="#D1D5DB"/>
<g filter="url(#filter12_dd_2228_1246)">
<rect width="333.103" height="79.1992" rx="6.67615" transform="matrix(0.866025 0.5 -2.20305e-08 1 1154.89 720.817)" fill="#F9FAFB"/>
<rect width="199.163" height="11.6469" rx="5.15584" transform="matrix(0.866025 0.5 -2.20305e-08 1 1178.01 755.134)" fill="#E5E7EB"/>
<rect width="132.775" height="11.6469" rx="5.15584" transform="matrix(0.866025 0.5 -2.20305e-08 1 1178.01 776.795)" fill="#E5E7EB"/>
<g filter="url(#filter13_dd_2228_1246)">
<rect width="71.9485" height="65.6305" rx="3.93288" transform="matrix(0.866025 0.5 -2.20305e-08 1 1373.77 853.863)" fill="#E5E7EB"/>
<rect x="0.504327" y="0.873521" width="70.7838" height="64.4658" rx="3.35054" transform="matrix(0.866025 0.5 -2.20305e-08 1 1373.83 853.61)" stroke="white" stroke-width="1.16469"/>
</g>
<mask id="mask2_2228_1246" style="mask-type:alpha" maskUnits="userSpaceOnUse" x="1377" y="861" width="56" height="87">
<rect width="62.6083" height="57.1105" rx="3.93288" transform="matrix(0.866025 0.5 -2.20305e-08 1 1377.81 860.458)" fill="white"/>
</mask>
<g mask="url(#mask2_2228_1246)">
<path d="M1416.69 915.07C1417.51 914.403 1419.02 915.276 1419.84 916.887L1435.28 947.329C1436.39 949.504 1435.44 951.284 1433.71 950.285L1402.82 932.454C1401.09 931.455 1400.15 928.581 1401.25 927.68L1416.69 915.07Z" fill="#D1D5DB"/>
<path d="M1391.93 891.926C1392.75 891.258 1394.26 892.132 1395.08 893.743L1416.96 936.884C1418.06 939.059 1417.12 940.839 1415.39 939.841L1371.62 914.57C1369.89 913.571 1368.94 910.698 1370.04 909.796L1391.93 891.926Z" fill="#9CA3AF"/>
<ellipse cx="8.19518" cy="7.47554" rx="8.19518" ry="7.47554" transform="matrix(0.866025 0.5 -2.20305e-08 1 1403.83 884.733)" fill="#9CA3AF"/>
</g>
<rect x="-1.00865" y="-1.74704" width="335.432" height="81.5286" rx="7.84084" transform="matrix(0.866025 0.5 -2.20305e-08 1 1154.75 721.321)" stroke="white" stroke-width="2.32939"/>
</g>
<g filter="url(#filter14_dd_2228_1246)">
<rect width="333.103" height="79.1992" rx="6.67615" transform="matrix(0.866025 0.5 -2.20305e-08 1 1154.89 815.152)" fill="#F9FAFB"/>
<rect width="199.163" height="11.6469" rx="5.15584" transform="matrix(0.866025 0.5 -2.20305e-08 1 1178.01 849.469)" fill="#E5E7EB"/>
<rect width="132.775" height="11.6469" rx="5.15584" transform="matrix(0.866025 0.5 -2.20305e-08 1 1178.01 871.13)" fill="#E5E7EB"/>
<g filter="url(#filter15_dd_2228_1246)">
<rect width="71.9485" height="65.6305" rx="3.93288" transform="matrix(0.866025 0.5 -2.20305e-08 1 1373.77 948.197)" fill="#E5E7EB"/>
<rect x="0.504327" y="0.873521" width="70.7838" height="64.4658" rx="3.35054" transform="matrix(0.866025 0.5 -2.20305e-08 1 1373.83 947.945)" stroke="white" stroke-width="1.16469"/>
</g>
<mask id="mask3_2228_1246" style="mask-type:alpha" maskUnits="userSpaceOnUse" x="1377" y="956" width="56" height="86">
<rect width="62.6083" height="57.1105" rx="3.93288" transform="matrix(0.866025 0.5 -2.20305e-08 1 1377.81 954.792)" fill="white"/>
</mask>
<g mask="url(#mask3_2228_1246)">
<path d="M1416.69 1009.4C1417.51 1008.74 1419.02 1009.61 1419.84 1011.22L1435.28 1041.66C1436.39 1043.84 1435.44 1045.62 1433.71 1044.62L1402.82 1026.79C1401.09 1025.79 1400.15 1022.92 1401.25 1022.01L1416.69 1009.4Z" fill="#D1D5DB"/>
<path d="M1391.93 986.26C1392.75 985.592 1394.26 986.466 1395.08 988.077L1416.96 1031.22C1418.06 1033.39 1417.12 1035.17 1415.39 1034.17L1371.62 1008.9C1369.89 1007.91 1368.94 1005.03 1370.04 1004.13L1391.93 986.26Z" fill="#9CA3AF"/>
<ellipse cx="8.19518" cy="7.47554" rx="8.19518" ry="7.47554" transform="matrix(0.866025 0.5 -2.20305e-08 1 1403.83 979.067)" fill="#9CA3AF"/>
</g>
<rect x="-1.00865" y="-1.74704" width="335.432" height="81.5286" rx="7.84084" transform="matrix(0.866025 0.5 -2.20305e-08 1 1154.75 815.656)" stroke="white" stroke-width="2.32939"/>
</g>
</g>
<rect x="-1.19507" y="-2.06992" width="420.857" height="89.6378" rx="7.53059" transform="matrix(0.866025 0.5 -2.20305e-08 1 1157.42 618.235)" fill="#F9FAFB"/>
<g filter="url(#filter16_d_2228_1246)">
<rect width="27.6181" height="27.6181" rx="13.8091" transform="matrix(0.866025 0.5 -2.20305e-08 1 1178.89 648.391)" fill="#E5E7EB"/>
<path d="M1187.75 666.721L1185.33 660.32C1185.05 659.583 1184.91 659.215 1184.94 658.993C1184.96 658.8 1185.05 658.668 1185.2 658.631C1185.37 658.589 1185.65 658.754 1186.22 659.083L1187.64 659.905C1187.86 660.027 1187.96 660.088 1188.06 660.179C1188.14 660.258 1188.22 660.354 1188.28 660.46C1188.36 660.58 1188.41 660.717 1188.52 660.99L1190.85 666.9L1193.18 663.68C1193.29 663.531 1193.34 663.456 1193.42 663.423C1193.48 663.393 1193.56 663.387 1193.64 663.404C1193.74 663.423 1193.84 663.485 1194.06 663.607L1195.48 664.428C1196.05 664.758 1196.34 664.923 1196.5 665.157C1196.65 665.362 1196.74 665.603 1196.76 665.82C1196.79 666.069 1196.65 666.276 1196.37 666.691L1193.95 670.296M1189.9 670.023L1190.85 669.84L1190.85 673.514M1190.05 673.055L1191.65 673.973M1193.78 669.988C1195.39 672.786 1195.39 675.811 1193.78 676.744C1192.16 677.676 1189.54 676.164 1187.92 673.366C1186.31 670.568 1186.31 667.543 1187.92 666.61C1189.54 665.678 1192.16 667.19 1193.78 669.988Z" stroke="#B7ACFF" stroke-width="1.75752" stroke-linecap="round" stroke-linejoin="round"/>
<rect x="-0.45429" y="-0.786853" width="28.6673" height="28.6673" rx="14.3336" transform="matrix(0.866025 0.5 -2.20305e-08 1 1178.83 648.618)" stroke="white" stroke-width="1.04914"/>
</g>
<rect width="199.163" height="11.6469" rx="5.15584" transform="matrix(0.866025 0.5 -2.20305e-08 1 1219.5 677.111)" fill="#E5E7EB"/>
<rect width="132.775" height="11.6469" rx="5.15584" transform="matrix(0.866025 0.5 -2.20305e-08 1 1219.5 698.772)" fill="#E5E7EB"/>
<g filter="url(#filter17_dd_2228_1246)">
<rect width="75.3454" height="74.5766" rx="3.62331" transform="matrix(0.866025 0.5 -2.20305e-08 1 1449.09 792.088)" fill="white"/>
</g>
<mask id="mask4_2228_1246" style="mask-type:alpha" maskUnits="userSpaceOnUse" x="1453" y="800" width="58" height="96">
<rect width="65.5643" height="64.8953" rx="3.62331" transform="matrix(0.866025 0.5 -2.20305e-08 1 1453.32 799.375)" fill="white"/>
</mask>
<g mask="url(#mask4_2228_1246)">
<path d="M1493.17 860.244C1494.44 859.058 1496.94 860.501 1498.21 863.151L1512.53 893.079C1514.12 896.404 1512.63 899.016 1510.01 897.502L1481.37 880.966C1478.75 879.452 1477.26 875.124 1478.85 873.636L1493.17 860.244Z" fill="#D4C9FE"/>
<path d="M1465.98 836.396C1467.88 834.618 1471.63 836.783 1473.53 840.757L1497.22 890.273L1451.89 864.099C1447.96 861.828 1445.73 855.336 1448.11 853.104L1465.98 836.396Z" fill="#AF8DFB"/>
<ellipse cx="8.5821" cy="8.49453" rx="8.5821" ry="8.49453" transform="matrix(0.866025 0.5 -2.20305e-08 1 1480.57 825.62)" fill="#D4C9FE"/>
</g>
<rect x="-1.19507" y="-2.06992" width="420.857" height="89.6378" rx="7.53059" transform="matrix(0.866025 0.5 -2.20305e-08 1 1157.42 618.235)" stroke="white" stroke-width="2.75989"/>
<g filter="url(#filter18_f_2228_1246)">
<rect width="435.535" height="14.2497" rx="7.12483" transform="matrix(0.866025 0.5 -2.20305e-08 1 1148.67 706.549)" fill="#A78BFA" fill-opacity="0.1"/>
</g>
<path d="M1438.49 1160.94C1438.28 1160.94 1438.06 1160.88 1437.87 1160.77L1432.14 1157.44C1431.76 1157.22 1431.52 1156.81 1431.52 1156.37L1431.49 1139.9C1431.49 1139.5 1431.68 1139.13 1432 1138.89C1435.25 1136.51 1438.65 1133.8 1442.12 1130.84C1442.52 1130.5 1443.1 1130.44 1443.56 1130.71L1449.26 1134.04C1449.64 1134.26 1449.88 1134.67 1449.88 1135.11L1449.93 1153.79C1449.94 1154.24 1449.7 1154.65 1449.31 1154.87L1439.12 1160.77C1438.93 1160.88 1438.71 1160.94 1438.49 1160.94Z" fill="#C6BDFF"/>
<path d="M1498.86 1125.03C1498.64 1125.03 1498.43 1124.97 1498.23 1124.86L1492.5 1121.54C1492.12 1121.31 1491.88 1120.9 1491.88 1120.46L1491.75 1073.04C1491.75 1072.79 1491.82 1072.54 1491.96 1072.34C1496.6 1065.53 1500.03 1060.07 1502.09 1056.68C1502.45 1056.1 1503.19 1055.91 1503.78 1056.25L1509.51 1059.55C1509.9 1059.77 1510.13 1060.18 1510.14 1060.63L1510.3 1117.88C1510.3 1118.33 1510.06 1118.74 1509.67 1118.97L1499.48 1124.86C1499.29 1124.97 1499.07 1125.03 1498.86 1125.03ZM1478.75 1136.63C1478.53 1136.63 1478.31 1136.57 1478.12 1136.46L1472.39 1133.13C1472.01 1132.91 1471.77 1132.5 1471.77 1132.06L1471.69 1099.81C1471.69 1099.52 1471.78 1099.24 1471.97 1099.01C1475.35 1094.9 1478.77 1090.56 1482.13 1086.1C1482.51 1085.6 1483.2 1085.46 1483.75 1085.77L1489.45 1089.07C1489.84 1089.29 1490.07 1089.7 1490.08 1090.15L1490.18 1129.48C1490.18 1129.93 1489.95 1130.34 1489.56 1130.57L1479.37 1136.46C1479.18 1136.57 1478.96 1136.63 1478.75 1136.63ZM1458.66 1148.22C1458.44 1148.22 1458.23 1148.17 1458.03 1148.06L1452.3 1144.73C1451.92 1144.51 1451.68 1144.1 1451.68 1143.66L1451.63 1121.68C1451.63 1121.34 1451.76 1121.02 1452 1120.78C1455.39 1117.47 1458.81 1113.95 1462.15 1110.34C1462.55 1109.91 1463.18 1109.82 1463.69 1110.1L1469.39 1113.4C1469.78 1113.62 1470.01 1114.03 1470.02 1114.48L1470.1 1141.08C1470.1 1141.53 1469.86 1141.94 1469.48 1142.16L1459.28 1148.06C1459.09 1148.17 1458.88 1148.22 1458.66 1148.22ZM1424.51 1120.87L1425.24 1120.31C1458.59 1095.95 1485.46 1053.45 1493.83 1039.32L1491.07 1037.73C1490.7 1037.52 1490.47 1037.13 1490.45 1036.71C1490.43 1036.28 1490.63 1035.88 1490.97 1035.63L1503.46 1026.77C1503.86 1026.48 1504.39 1026.46 1504.81 1026.7L1510.52 1030.03C1510.95 1030.29 1511.19 1030.78 1511.12 1031.29L1508.99 1046.05C1508.93 1046.45 1508.67 1046.81 1508.3 1046.99C1507.92 1047.17 1507.49 1047.15 1507.13 1046.95L1504.77 1045.59C1497.84 1057.3 1468.79 1104.11 1433.01 1130.22L1432.31 1130.74C1432.09 1130.89 1431.83 1130.98 1431.57 1130.98C1431.35 1130.98 1431.14 1130.92 1430.94 1130.81L1425.24 1127.48C1424.9 1127.29 1424.68 1126.95 1424.63 1126.57L1424.03 1122.02C1423.98 1121.58 1424.16 1121.15 1424.51 1120.87Z" fill="#C6BDFF"/>
<path d="M1449.68 1153.56C1449.69 1153.88 1449.52 1154.17 1449.24 1154.33L1439 1160.23C1438.86 1160.31 1438.7 1160.35 1438.55 1160.35C1438.39 1160.35 1438.24 1160.31 1438.1 1160.23L1438.1 1160.23L1432.36 1156.9C1432.08 1156.74 1431.92 1156.45 1431.91 1156.13L1431.87 1139.66C1431.87 1139.42 1432.07 1139.05 1432.23 1138.93C1435.56 1136.51 1438.99 1133.8 1442.42 1130.88C1442.71 1130.63 1443.12 1130.59 1443.45 1130.78L1449.19 1134.11C1449.31 1134.18 1449.4 1134.27 1449.48 1134.39L1449.49 1134.4C1449.57 1134.52 1449.62 1134.65 1449.63 1134.8C1449.63 1134.81 1449.62 1134.83 1449.62 1134.84C1449.62 1134.86 1449.63 1134.86 1449.63 1134.88L1449.68 1153.56ZM1447.85 1136.79C1446.19 1138.18 1442.66 1141.04 1439.4 1143.43C1439.4 1143.79 1439.44 1158.66 1439.44 1157.91L1447.89 1153.05L1447.85 1136.79ZM1437.65 1157.9C1437.65 1157.37 1437.61 1142.55 1437.61 1143.49L1433.66 1141.21L1433.7 1155.62L1437.65 1157.9ZM1443.1 1132.64C1440.17 1135.12 1437.25 1137.44 1434.39 1139.56L1438.43 1141.91C1441.09 1139.96 1443.43 1138.14 1447.18 1135.01L1443.1 1132.64ZM1469.93 1140.85C1469.93 1141.17 1469.76 1141.46 1469.48 1141.62L1459.23 1147.52C1459.1 1147.6 1458.94 1147.64 1458.79 1147.64C1458.63 1147.64 1458.48 1147.6 1458.34 1147.52L1452.6 1144.19C1452.32 1144.03 1452.16 1143.74 1452.15 1143.42L1452.09 1121.41C1452.09 1121.18 1452.19 1120.99 1452.34 1120.83C1452.35 1120.81 1452.34 1120.78 1452.36 1120.77C1455.76 1117.47 1459.19 1113.95 1462.56 1110.3C1462.84 1109.99 1463.3 1109.93 1463.66 1110.13L1469.4 1113.46C1469.44 1113.48 1469.43 1113.52 1469.46 1113.54C1469.62 1113.66 1469.73 1113.82 1469.78 1114.01C1469.79 1114.04 1469.83 1114.06 1469.84 1114.09C1469.84 1114.11 1469.82 1114.13 1469.82 1114.14C1469.83 1114.17 1469.85 1114.2 1469.85 1114.23L1469.93 1140.85ZM1468.07 1116.49C1466.05 1118.65 1462.63 1122.18 1459.62 1125.1L1459.68 1145.21L1468.14 1140.34L1468.07 1116.49ZM1457.89 1145.2L1457.83 1125.24L1453.88 1122.96L1453.94 1142.91L1457.89 1145.2ZM1463.39 1112.03C1460.43 1115.22 1457.43 1118.3 1454.45 1121.22L1458.58 1123.61C1461.53 1120.73 1463.98 1118.25 1467.53 1114.43L1463.39 1112.03ZM1510.29 1117.62C1510.29 1117.94 1510.12 1118.23 1509.84 1118.39L1499.6 1124.29C1499.46 1124.37 1499.31 1124.41 1499.15 1124.41C1499 1124.41 1498.85 1124.37 1498.71 1124.29L1498.71 1124.29L1492.97 1120.96C1492.69 1120.8 1492.52 1120.51 1492.52 1120.19L1492.39 1072.74C1492.38 1072.57 1492.44 1072.41 1492.53 1072.27C1492.54 1072.26 1492.53 1072.25 1492.54 1072.24C1497.26 1065.31 1500.69 1059.88 1502.73 1056.53C1502.98 1056.12 1503.53 1055.98 1503.94 1056.23L1509.68 1059.55C1509.73 1059.58 1509.73 1059.63 1509.77 1059.66C1509.88 1059.76 1509.96 1059.86 1510.02 1059.99C1510.04 1060.04 1510.09 1060.06 1510.1 1060.11C1510.11 1060.14 1510.08 1060.17 1510.09 1060.2C1510.09 1060.24 1510.13 1060.28 1510.13 1060.32L1510.29 1117.62ZM1508.35 1063.45C1506 1067.19 1502.91 1071.94 1499.92 1076.34L1500.04 1121.97L1508.5 1117.11L1508.35 1063.45ZM1498.26 1121.96C1498.22 1110.89 1498.16 1087.17 1498.13 1076.58L1494.18 1074.29L1494.31 1119.68L1498.26 1121.96ZM1503.8 1058.21C1501.8 1061.46 1498.69 1066.35 1494.56 1072.45L1498.74 1074.88C1501.94 1070.16 1505.02 1065.46 1507.99 1060.63L1503.8 1058.21ZM1490.1 1129.24C1490.1 1129.56 1489.93 1129.85 1489.65 1130.01L1479.41 1135.91C1479.27 1135.99 1479.12 1136.03 1478.96 1136.03C1478.81 1136.03 1478.66 1135.99 1478.52 1135.91L1472.77 1132.58C1472.5 1132.42 1472.33 1132.13 1472.33 1131.81L1472.24 1099.51C1472.23 1099.32 1472.31 1099.14 1472.43 1098.99C1472.44 1098.98 1472.43 1098.96 1472.44 1098.94C1475.84 1094.85 1479.27 1090.5 1482.64 1086.01C1482.91 1085.65 1483.42 1085.55 1483.8 1085.78L1489.54 1089.1C1489.58 1089.12 1489.58 1089.18 1489.61 1089.2C1489.75 1089.31 1489.84 1089.43 1489.9 1089.59C1489.91 1089.63 1489.96 1089.65 1489.97 1089.69C1489.98 1089.72 1489.95 1089.74 1489.95 1089.77C1489.96 1089.8 1489.99 1089.83 1489.99 1089.87L1490.1 1129.24ZM1488.21 1092.52C1486.9 1094.23 1482.94 1099.32 1479.77 1103.15C1479.77 1103.66 1479.86 1135.62 1479.85 1133.6L1488.31 1128.73L1488.21 1092.52ZM1478.06 1133.59C1478.06 1133.23 1477.97 1101.74 1477.98 1103.35L1474.03 1101.06L1474.11 1131.3L1478.06 1133.59ZM1483.59 1087.72C1480.58 1091.7 1477.52 1095.58 1474.49 1099.27L1478.66 1101.68C1481.51 1098.22 1484.1 1094.99 1487.76 1090.13L1483.59 1087.72ZM1424.38 1121.66C1424.36 1121.37 1424.49 1121.08 1424.73 1120.9L1425.45 1120.34C1459.32 1095.67 1486.42 1052.66 1494.58 1038.87L1491.51 1037.09C1491.25 1036.93 1491.08 1036.66 1491.07 1036.36C1491.05 1036.06 1491.19 1035.77 1491.44 1035.59L1503.98 1026.7C1504.27 1026.5 1504.65 1026.48 1504.95 1026.65L1510.69 1029.98L1510.7 1029.99L1510.71 1029.99C1510.73 1030 1510.74 1030.03 1510.76 1030.05C1510.87 1030.13 1510.96 1030.22 1511.02 1030.34C1511.05 1030.39 1511.05 1030.45 1511.07 1030.5C1511.09 1030.57 1511.13 1030.64 1511.13 1030.71C1511.14 1030.74 1511.12 1030.77 1511.12 1030.8C1511.11 1030.83 1511.13 1030.85 1511.13 1030.88L1508.98 1045.65C1508.94 1045.95 1508.75 1046.2 1508.49 1046.33C1508.22 1046.46 1507.91 1046.45 1507.65 1046.3L1504.98 1044.78C1467.9 1107.21 1432.98 1129.25 1432.14 1130.2C1432.13 1130.2 1432.12 1130.2 1432.11 1130.2C1432.1 1130.21 1432.1 1130.22 1432.1 1130.23C1431.94 1130.32 1431.77 1130.37 1431.6 1130.37C1431.48 1130.37 1431.36 1130.35 1431.25 1130.3C1431.23 1130.29 1431.23 1130.28 1431.21 1130.27C1431.19 1130.26 1431.17 1130.26 1431.15 1130.25L1425.41 1126.93C1425.17 1126.79 1425.01 1126.55 1424.98 1126.27L1424.39 1121.72L1424.39 1121.7C1424.39 1121.69 1424.38 1121.68 1424.38 1121.66ZM1426.89 1121.5C1427.24 1121.71 1431.31 1124.07 1430.96 1123.86C1431.31 1123.5 1465.67 1100.65 1500.35 1042.19L1497.25 1040.41L1497.25 1040.41L1496.13 1039.77C1487.91 1053.66 1460.79 1096.65 1426.89 1121.5ZM1504.55 1028.48L1493.61 1036.24L1496.21 1037.75C1496.23 1037.76 1496.25 1037.75 1496.27 1037.76L1497.67 1038.57L1500.52 1036.55L1508.59 1030.83L1504.55 1028.48ZM1503.88 1043.12C1504.05 1042.84 1504.35 1042.68 1504.65 1042.68C1504.8 1042.68 1504.96 1042.72 1505.1 1042.8L1507.4 1044.11L1509.06 1032.68L1499.37 1039.55L1502.03 1041.09C1502.24 1041.2 1502.39 1041.4 1502.45 1041.63C1502.51 1041.86 1502.47 1042.1 1502.35 1042.31C1467.54 1101.54 1432.4 1124.9 1431.97 1125.34L1432.29 1127.86C1468.71 1101.12 1498.3 1052.61 1503.88 1043.12ZM1430.48 1127.8L1430.18 1125.48C1429.83 1125.27 1426.04 1123.08 1426.39 1123.28L1426.69 1125.61L1430.48 1127.8Z" fill="#C2B3FF"/>
<g style="mix-blend-mode:color-burn">
<path d="M503.477 741.317C486.162 731.057 482.504 707.551 495.884 692.515L1420.3 -346.357C1429.65 -356.861 1444.76 -360.033 1457.54 -354.176L2640.79 188.047C2658.21 196.03 2664.76 217.433 2654.78 233.796L1872.99 1516.07C1863.87 1531.02 1844.42 1535.87 1829.35 1526.94L503.477 741.317Z" fill="url(#paint4_linear_2228_1246)" fill-opacity="0.6"/>
<path d="M503.477 741.317C486.162 731.057 482.504 707.551 495.884 692.515L1420.3 -346.357C1429.65 -356.861 1444.76 -360.033 1457.54 -354.176L2640.79 188.047C2658.21 196.03 2664.76 217.433 2654.78 233.796L1872.99 1516.07C1863.87 1531.02 1844.42 1535.87 1829.35 1526.94L503.477 741.317Z" fill="url(#paint5_linear_2228_1246)"/>
</g>
<rect x="1795.02" width="424.98" height="1307.99" fill="url(#paint6_linear_2228_1246)"/>
<rect x="721.266" y="194.13" width="194.13" height="1497.53" transform="rotate(-90 721.266 194.13)" fill="url(#paint7_linear_2228_1246)"/>
</g>
<defs>
<filter id="filter0_f_2228_1246" x="1346.52" y="-625.021" width="1742.99" height="1766.35" filterUnits="userSpaceOnUse" color-interpolation-filters="sRGB">
<feFlood flood-opacity="0" result="BackgroundImageFix"/>
<feBlend mode="normal" in="SourceGraphic" in2="BackgroundImageFix" result="shape"/>
<feGaussianBlur stdDeviation="125" result="effect1_foregroundBlur_2228_1246"/>
</filter>
<filter id="filter1_f_2228_1246" x="929.792" y="876.137" width="551.429" height="330.575" filterUnits="userSpaceOnUse" color-interpolation-filters="sRGB">
<feFlood flood-opacity="0" result="BackgroundImageFix"/>
<feBlend mode="normal" in="SourceGraphic" in2="BackgroundImageFix" result="shape"/>
<feGaussianBlur stdDeviation="8.07299" result="effect1_foregroundBlur_2228_1246"/>
</filter>
<filter id="filter2_f_2228_1246" x="906.28" y="775.633" width="838.169" height="492.491" filterUnits="userSpaceOnUse" color-interpolation-filters="sRGB">
<feFlood flood-opacity="0" result="BackgroundImageFix"/>
<feBlend mode="normal" in="SourceGraphic" in2="BackgroundImageFix" result="shape"/>
<feGaussianBlur stdDeviation="8.07299" result="effect1_foregroundBlur_2228_1246"/>
</filter>
<filter id="filter3_dd_2228_1246" x="1222.87" y="393.951" width="515.543" height="716.888" filterUnits="userSpaceOnUse" color-interpolation-filters="sRGB">
<feFlood flood-opacity="0" result="BackgroundImageFix"/>
<feColorMatrix in="SourceAlpha" type="matrix" values="0 0 0 0 0 0 0 0 0 0 0 0 0 0 0 0 0 0 127 0" result="hardAlpha"/>
<feMorphology radius="1.69365" operator="erode" in="SourceAlpha" result="effect1_dropShadow_2228_1246"/>
<feOffset dy="3.38731"/>
<feGaussianBlur stdDeviation="2.54048"/>
<feColorMatrix type="matrix" values="0 0 0 0 0 0 0 0 0 0 0 0 0 0 0 0 0 0 0.05 0"/>
<feBlend mode="normal" in2="BackgroundImageFix" result="effect1_dropShadow_2228_1246"/>
<feColorMatrix in="SourceAlpha" type="matrix" values="0 0 0 0 0 0 0 0 0 0 0 0 0 0 0 0 0 0 127 0" result="hardAlpha"/>
<feMorphology radius="2.54048" operator="erode" in="SourceAlpha" result="effect2_dropShadow_2228_1246"/>
<feOffset dy="8.46827"/>
<feGaussianBlur stdDeviation="6.3512"/>
<feColorMatrix type="matrix" values="0 0 0 0 0 0 0 0 0 0 0 0 0 0 0 0 0 0 0.1 0"/>
<feBlend mode="normal" in2="effect1_dropShadow_2228_1246" result="effect2_dropShadow_2228_1246"/>
<feBlend mode="normal" in="SourceGraphic" in2="effect2_dropShadow_2228_1246" result="shape"/>
</filter>
<filter id="filter4_dd_2228_1246" x="1194.17" y="430.41" width="544.773" height="723.139" filterUnits="userSpaceOnUse" color-interpolation-filters="sRGB">
<feFlood flood-opacity="0" result="BackgroundImageFix"/>
<feColorMatrix in="SourceAlpha" type="matrix" values="0 0 0 0 0 0 0 0 0 0 0 0 0 0 0 0 0 0 127 0" result="hardAlpha"/>
<feMorphology radius="6.50313" operator="erode" in="SourceAlpha" result="effect1_dropShadow_2228_1246"/>
<feOffset dy="13.0063"/>
<feGaussianBlur stdDeviation="10.405"/>
<feColorMatrix type="matrix" values="0 0 0 0 0 0 0 0 0 0 0 0 0 0 0 0 0 0 0.04 0"/>
<feBlend mode="normal" in2="BackgroundImageFix" result="effect1_dropShadow_2228_1246"/>
<feColorMatrix in="SourceAlpha" type="matrix" values="0 0 0 0 0 0 0 0 0 0 0 0 0 0 0 0 0 0 127 0" result="hardAlpha"/>
<feMorphology radius="6.50313" operator="erode" in="SourceAlpha" result="effect2_dropShadow_2228_1246"/>
<feOffset dy="26.0125"/>
<feGaussianBlur stdDeviation="20.81"/>
<feColorMatrix type="matrix" values="0 0 0 0 0 0 0 0 0 0 0 0 0 0 0 0 0 0 0.1 0"/>
<feBlend mode="normal" in2="effect1_dropShadow_2228_1246" result="effect2_dropShadow_2228_1246"/>
<feBlend mode="normal" in="SourceGraphic" in2="effect2_dropShadow_2228_1246" result="shape"/>
</filter>
<filter id="filter5_d_2228_1246" x="1226.19" y="407.624" width="480.741" height="315.149" filterUnits="userSpaceOnUse" color-interpolation-filters="sRGB">
<feFlood flood-opacity="0" result="BackgroundImageFix"/>
<feColorMatrix in="SourceAlpha" type="matrix" values="0 0 0 0 0 0 0 0 0 0 0 0 0 0 0 0 0 0 127 0" result="hardAlpha"/>
<feOffset dy="1.55044"/>
<feGaussianBlur stdDeviation="1.55044"/>
<feColorMatrix type="matrix" values="0 0 0 0 0 0 0 0 0 0 0 0 0 0 0 0 0 0 0.05 0"/>
<feBlend mode="normal" in2="BackgroundImageFix" result="effect1_dropShadow_2228_1246"/>
<feBlend mode="normal" in="SourceGraphic" in2="effect1_dropShadow_2228_1246" result="shape"/>
</filter>
<filter id="filter6_i_2228_1246" x="1336.66" y="612.315" width="248.182" height="168.571" filterUnits="userSpaceOnUse" color-interpolation-filters="sRGB">
<feFlood flood-opacity="0" result="BackgroundImageFix"/>
<feBlend mode="normal" in="SourceGraphic" in2="BackgroundImageFix" result="shape"/>
<feColorMatrix in="SourceAlpha" type="matrix" values="0 0 0 0 0 0 0 0 0 0 0 0 0 0 0 0 0 0 127 0" result="hardAlpha"/>
<feOffset dy="1.68501"/>
<feGaussianBlur stdDeviation="1.68501"/>
<feComposite in2="hardAlpha" operator="arithmetic" k2="-1" k3="1"/>
<feColorMatrix type="matrix" values="0 0 0 0 0 0 0 0 0 0 0 0 0 0 0 0 0 0 0.06 0"/>
<feBlend mode="normal" in2="shape" result="effect1_innerShadow_2228_1246"/>
</filter>
<filter id="filter7_f_2228_1246" x="1144.98" y="566.539" width="434.222" height="378.485" filterUnits="userSpaceOnUse" color-interpolation-filters="sRGB">
<feFlood flood-opacity="0" result="BackgroundImageFix"/>
<feBlend mode="normal" in="SourceGraphic" in2="BackgroundImageFix" result="shape"/>
<feGaussianBlur stdDeviation="17.4793" result="effect1_foregroundBlur_2228_1246"/>
</filter>
<filter id="filter8_d_2228_1246" x="1152.87" y="605.996" width="386.783" height="458.642" filterUnits="userSpaceOnUse" color-interpolation-filters="sRGB">
<feFlood flood-opacity="0" result="BackgroundImageFix"/>
<feColorMatrix in="SourceAlpha" type="matrix" values="0 0 0 0 0 0 0 0 0 0 0 0 0 0 0 0 0 0 127 0" result="hardAlpha"/>
<feOffset dx="1.83993" dy="1.83993"/>
<feGaussianBlur stdDeviation="0.919963"/>
<feComposite in2="hardAlpha" operator="out"/>
<feColorMatrix type="matrix" values="0 0 0 0 0 0 0 0 0 0 0 0 0 0 0 0 0 0 0.03 0"/>
<feBlend mode="normal" in2="BackgroundImageFix" result="effect1_dropShadow_2228_1246"/>
<feBlend mode="normal" in="SourceGraphic" in2="effect1_dropShadow_2228_1246" result="shape"/>
</filter>
<filter id="filter9_dd_2228_1246" x="1159.06" y="605.996" width="391.356" height="331.37" filterUnits="userSpaceOnUse" color-interpolation-filters="sRGB">
<feFlood flood-opacity="0" result="BackgroundImageFix"/>
<feColorMatrix in="SourceAlpha" type="matrix" values="0 0 0 0 0 0 0 0 0 0 0 0 0 0 0 0 0 0 127 0" result="hardAlpha"/>
<feMorphology radius="3.61143" operator="erode" in="SourceAlpha" result="effect1_dropShadow_2228_1246"/>
<feOffset dy="7.22286"/>
<feGaussianBlur stdDeviation="3.61143"/>
<feColorMatrix type="matrix" values="0 0 0 0 0 0 0 0 0 0 0 0 0 0 0 0 0 0 0.04 0"/>
<feBlend mode="normal" in2="BackgroundImageFix" result="effect1_dropShadow_2228_1246"/>
<feColorMatrix in="SourceAlpha" type="matrix" values="0 0 0 0 0 0 0 0 0 0 0 0 0 0 0 0 0 0 127 0" result="hardAlpha"/>
<feMorphology radius="3.61143" operator="erode" in="SourceAlpha" result="effect2_dropShadow_2228_1246"/>
<feOffset dy="14.4457"/>
<feGaussianBlur stdDeviation="9.02858"/>
<feColorMatrix type="matrix" values="0 0 0 0 0.654902 0 0 0 0 0.545098 0 0 0 0 0.980392 0 0 0 0.1 0"/>
<feBlend mode="normal" in2="effect1_dropShadow_2228_1246" result="effect2_dropShadow_2228_1246"/>
<feBlend mode="normal" in="SourceGraphic" in2="effect2_dropShadow_2228_1246" result="shape"/>
</filter>
<filter id="filter10_dd_2228_1246" x="1156.39" y="706.161" width="317.366" height="283.696" filterUnits="userSpaceOnUse" color-interpolation-filters="sRGB">
<feFlood flood-opacity="0" result="BackgroundImageFix"/>
<feColorMatrix in="SourceAlpha" type="matrix" values="0 0 0 0 0 0 0 0 0 0 0 0 0 0 0 0 0 0 127 0" result="hardAlpha"/>
<feMorphology radius="3.61143" operator="erode" in="SourceAlpha" result="effect1_dropShadow_2228_1246"/>
<feOffset dy="7.22286"/>
<feGaussianBlur stdDeviation="3.61143"/>
<feColorMatrix type="matrix" values="0 0 0 0 0 0 0 0 0 0 0 0 0 0 0 0 0 0 0.04 0"/>
<feBlend mode="normal" in2="BackgroundImageFix" result="effect1_dropShadow_2228_1246"/>
<feColorMatrix in="SourceAlpha" type="matrix" values="0 0 0 0 0 0 0 0 0 0 0 0 0 0 0 0 0 0 127 0" result="hardAlpha"/>
<feMorphology radius="3.61143" operator="erode" in="SourceAlpha" result="effect2_dropShadow_2228_1246"/>
<feOffset dy="14.4457"/>
<feGaussianBlur stdDeviation="9.02858"/>
<feColorMatrix type="matrix" values="0 0 0 0 0.654902 0 0 0 0 0.545098 0 0 0 0 0.980392 0 0 0 0.1 0"/>
<feBlend mode="normal" in2="effect1_dropShadow_2228_1246" result="effect2_dropShadow_2228_1246"/>
<feBlend mode="normal" in="SourceGraphic" in2="effect2_dropShadow_2228_1246" result="shape"/>
</filter>
<filter id="filter11_dd_2228_1246" x="1156.39" y="800.254" width="317.723" height="283.918" filterUnits="userSpaceOnUse" color-interpolation-filters="sRGB">
<feFlood flood-opacity="0" result="BackgroundImageFix"/>
<feColorMatrix in="SourceAlpha" type="matrix" values="0 0 0 0 0 0 0 0 0 0 0 0 0 0 0 0 0 0 127 0" result="hardAlpha"/>
<feMorphology radius="3.61143" operator="erode" in="SourceAlpha" result="effect1_dropShadow_2228_1246"/>
<feOffset dy="7.22286"/>
<feGaussianBlur stdDeviation="3.61143"/>
<feColorMatrix type="matrix" values="0 0 0 0 0 0 0 0 0 0 0 0 0 0 0 0 0 0 0.04 0"/>
<feBlend mode="normal" in2="BackgroundImageFix" result="effect1_dropShadow_2228_1246"/>
<feColorMatrix in="SourceAlpha" type="matrix" values="0 0 0 0 0 0 0 0 0 0 0 0 0 0 0 0 0 0 127 0" result="hardAlpha"/>
<feMorphology radius="3.61143" operator="erode" in="SourceAlpha" result="effect2_dropShadow_2228_1246"/>
<feOffset dy="14.4457"/>
<feGaussianBlur stdDeviation="9.02858"/>
<feColorMatrix type="matrix" values="0 0 0 0 0.654902 0 0 0 0 0.545098 0 0 0 0 0.980392 0 0 0 0.1 0"/>
<feBlend mode="normal" in2="effect1_dropShadow_2228_1246" result="effect2_dropShadow_2228_1246"/>
<feBlend mode="normal" in="SourceGraphic" in2="effect2_dropShadow_2228_1246" result="shape"/>
</filter>
<filter id="filter12_dd_2228_1246" x="1149.93" y="718.802" width="298.386" height="251.739" filterUnits="userSpaceOnUse" color-interpolation-filters="sRGB">
<feFlood flood-opacity="0" result="BackgroundImageFix"/>
<feColorMatrix in="SourceAlpha" type="matrix" values="0 0 0 0 0 0 0 0 0 0 0 0 0 0 0 0 0 0 127 0" result="hardAlpha"/>
<feOffset dy="0.979357"/>
<feGaussianBlur stdDeviation="0.979357"/>
<feColorMatrix type="matrix" values="0 0 0 0 0 0 0 0 0 0 0 0 0 0 0 0 0 0 0.06 0"/>
<feBlend mode="normal" in2="BackgroundImageFix" result="effect1_dropShadow_2228_1246"/>
<feColorMatrix in="SourceAlpha" type="matrix" values="0 0 0 0 0 0 0 0 0 0 0 0 0 0 0 0 0 0 127 0" result="hardAlpha"/>
<feOffset dy="0.979357"/>
<feGaussianBlur stdDeviation="1.46904"/>
<feColorMatrix type="matrix" values="0 0 0 0 0 0 0 0 0 0 0 0 0 0 0 0 0 0 0.1 0"/>
<feBlend mode="normal" in2="effect1_dropShadow_2228_1246" result="effect2_dropShadow_2228_1246"/>
<feBlend mode="normal" in="SourceGraphic" in2="effect2_dropShadow_2228_1246" result="shape"/>
</filter>
<filter id="filter13_dd_2228_1246" x="1370.42" y="854.695" width="68.9948" height="105.288" filterUnits="userSpaceOnUse" color-interpolation-filters="sRGB">
<feFlood flood-opacity="0" result="BackgroundImageFix"/>
<feColorMatrix in="SourceAlpha" type="matrix" values="0 0 0 0 0 0 0 0 0 0 0 0 0 0 0 0 0 0 127 0" result="hardAlpha"/>
<feMorphology radius="0.668619" operator="erode" in="SourceAlpha" result="effect1_dropShadow_2228_1246"/>
<feOffset dy="1.33724"/>
<feGaussianBlur stdDeviation="1.33724"/>
<feColorMatrix type="matrix" values="0 0 0 0 0 0 0 0 0 0 0 0 0 0 0 0 0 0 0.06 0"/>
<feBlend mode="normal" in2="BackgroundImageFix" result="effect1_dropShadow_2228_1246"/>
<feColorMatrix in="SourceAlpha" type="matrix" values="0 0 0 0 0 0 0 0 0 0 0 0 0 0 0 0 0 0 127 0" result="hardAlpha"/>
<feMorphology radius="0.668619" operator="erode" in="SourceAlpha" result="effect2_dropShadow_2228_1246"/>
<feOffset dy="2.67448"/>
<feGaussianBlur stdDeviation="2.00586"/>
<feColorMatrix type="matrix" values="0 0 0 0 0 0 0 0 0 0 0 0 0 0 0 0 0 0 0.1 0"/>
<feBlend mode="normal" in2="effect1_dropShadow_2228_1246" result="effect2_dropShadow_2228_1246"/>
<feBlend mode="normal" in="SourceGraphic" in2="effect2_dropShadow_2228_1246" result="shape"/>
</filter>
<filter id="filter14_dd_2228_1246" x="1147.87" y="813.095" width="302.51" height="255.863" filterUnits="userSpaceOnUse" color-interpolation-filters="sRGB">
<feFlood flood-opacity="0" result="BackgroundImageFix"/>
<feColorMatrix in="SourceAlpha" type="matrix" values="0 0 0 0 0 0 0 0 0 0 0 0 0 0 0 0 0 0 127 0" result="hardAlpha"/>
<feOffset dy="0.979357"/>
<feGaussianBlur stdDeviation="0.979357"/>
<feColorMatrix type="matrix" values="0 0 0 0 0 0 0 0 0 0 0 0 0 0 0 0 0 0 0.06 0"/>
<feBlend mode="normal" in2="BackgroundImageFix" result="effect1_dropShadow_2228_1246"/>
<feColorMatrix in="SourceAlpha" type="matrix" values="0 0 0 0 0 0 0 0 0 0 0 0 0 0 0 0 0 0 127 0" result="hardAlpha"/>
<feOffset dy="3"/>
<feGaussianBlur stdDeviation="2.5"/>
<feColorMatrix type="matrix" values="0 0 0 0 0 0 0 0 0 0 0 0 0 0 0 0 0 0 0.1 0"/>
<feBlend mode="normal" in2="effect1_dropShadow_2228_1246" result="effect2_dropShadow_2228_1246"/>
<feBlend mode="normal" in="SourceGraphic" in2="effect2_dropShadow_2228_1246" result="shape"/>
</filter>
<filter id="filter15_dd_2228_1246" x="1370.42" y="949.029" width="68.9948" height="105.288" filterUnits="userSpaceOnUse" color-interpolation-filters="sRGB">
<feFlood flood-opacity="0" result="BackgroundImageFix"/>
<feColorMatrix in="SourceAlpha" type="matrix" values="0 0 0 0 0 0 0 0 0 0 0 0 0 0 0 0 0 0 127 0" result="hardAlpha"/>
<feMorphology radius="0.668619" operator="erode" in="SourceAlpha" result="effect1_dropShadow_2228_1246"/>
<feOffset dy="1.33724"/>
<feGaussianBlur stdDeviation="1.33724"/>
<feColorMatrix type="matrix" values="0 0 0 0 0 0 0 0 0 0 0 0 0 0 0 0 0 0 0.06 0"/>
<feBlend mode="normal" in2="BackgroundImageFix" result="effect1_dropShadow_2228_1246"/>
<feColorMatrix in="SourceAlpha" type="matrix" values="0 0 0 0 0 0 0 0 0 0 0 0 0 0 0 0 0 0 127 0" result="hardAlpha"/>
<feMorphology radius="0.668619" operator="erode" in="SourceAlpha" result="effect2_dropShadow_2228_1246"/>
<feOffset dy="2.67448"/>
<feGaussianBlur stdDeviation="2.00586"/>
<feColorMatrix type="matrix" values="0 0 0 0 0 0 0 0 0 0 0 0 0 0 0 0 0 0 0.1 0"/>
<feBlend mode="normal" in2="effect1_dropShadow_2228_1246" result="effect2_dropShadow_2228_1246"/>
<feBlend mode="normal" in="SourceGraphic" in2="effect2_dropShadow_2228_1246" result="shape"/>
</filter>
<filter id="filter16_d_2228_1246" x="1175.88" y="647.342" width="29.9309" height="45.6238" filterUnits="userSpaceOnUse" color-interpolation-filters="sRGB">
<feFlood flood-opacity="0" result="BackgroundImageFix"/>
<feColorMatrix in="SourceAlpha" type="matrix" values="0 0 0 0 0 0 0 0 0 0 0 0 0 0 0 0 0 0 127 0" result="hardAlpha"/>
<feOffset dy="1.04914"/>
<feGaussianBlur stdDeviation="1.04914"/>
<feColorMatrix type="matrix" values="0 0 0 0 0 0 0 0 0 0 0 0 0 0 0 0 0 0 0.05 0"/>
<feBlend mode="normal" in2="BackgroundImageFix" result="effect1_dropShadow_2228_1246"/>
<feBlend mode="normal" in="SourceGraphic" in2="effect1_dropShadow_2228_1246" result="shape"/>
</filter>
<filter id="filter17_dd_2228_1246" x="1446.01" y="792.855" width="71.4119" height="115.643" filterUnits="userSpaceOnUse" color-interpolation-filters="sRGB">
<feFlood flood-opacity="0" result="BackgroundImageFix"/>
<feColorMatrix in="SourceAlpha" type="matrix" values="0 0 0 0 0 0 0 0 0 0 0 0 0 0 0 0 0 0 127 0" result="hardAlpha"/>
<feMorphology radius="0.61599" operator="erode" in="SourceAlpha" result="effect1_dropShadow_2228_1246"/>
<feOffset dy="1.23198"/>
<feGaussianBlur stdDeviation="1.23198"/>
<feColorMatrix type="matrix" values="0 0 0 0 0 0 0 0 0 0 0 0 0 0 0 0 0 0 0.06 0"/>
<feBlend mode="normal" in2="BackgroundImageFix" result="effect1_dropShadow_2228_1246"/>
<feColorMatrix in="SourceAlpha" type="matrix" values="0 0 0 0 0 0 0 0 0 0 0 0 0 0 0 0 0 0 127 0" result="hardAlpha"/>
<feMorphology radius="0.61599" operator="erode" in="SourceAlpha" result="effect2_dropShadow_2228_1246"/>
<feOffset dy="2.46396"/>
<feGaussianBlur stdDeviation="1.84797"/>
<feColorMatrix type="matrix" values="0 0 0 0 0 0 0 0 0 0 0 0 0 0 0 0 0 0 0.1 0"/>
<feBlend mode="normal" in2="effect1_dropShadow_2228_1246" result="effect2_dropShadow_2228_1246"/>
<feBlend mode="normal" in="SourceGraphic" in2="effect2_dropShadow_2228_1246" result="shape"/>
</filter>
<filter id="filter18_f_2228_1246" x="1117.39" y="677.99" width="439.743" height="289.135" filterUnits="userSpaceOnUse" color-interpolation-filters="sRGB">
<feFlood flood-opacity="0" result="BackgroundImageFix"/>
<feBlend mode="normal" in="SourceGraphic" in2="BackgroundImageFix" result="shape"/>
<feGaussianBlur stdDeviation="15.6394" result="effect1_foregroundBlur_2228_1246"/>
</filter>
<radialGradient id="paint0_radial_2228_1246" cx="0" cy="0" r="1" gradientUnits="userSpaceOnUse" gradientTransform="translate(1354.57 843.842) rotate(150) scale(716.392 726.793)">
<stop stop-color="#F4F4F4"/>
<stop offset="0.72182" stop-color="#898989" stop-opacity="0"/>
</radialGradient>
<linearGradient id="paint1_linear_2228_1246" x1="1315.39" y1="975.526" x2="1177.47" y2="1203.61" gradientUnits="userSpaceOnUse">
<stop stop-color="#4B5563"/>
<stop offset="1" stop-color="#4B5563" stop-opacity="0"/>
</linearGradient>
<linearGradient id="paint2_linear_2228_1246" x1="1463.92" y1="938.805" x2="1295.23" y2="1224.67" gradientUnits="userSpaceOnUse">
<stop stop-color="#4B5563"/>
<stop offset="1" stop-color="#4B5563" stop-opacity="0"/>
</linearGradient>
<linearGradient id="paint3_linear_2228_1246" x1="1466.56" y1="580.404" x2="1303.52" y2="862.798" gradientUnits="userSpaceOnUse">
<stop stop-color="white"/>
<stop offset="0.0001" stop-color="#F9FAFB"/>
<stop offset="1" stop-color="#F3F4F6"/>
</linearGradient>
<linearGradient id="paint4_linear_2228_1246" x1="1113.8" y1="44.5045" x2="2113.5" y2="795.082" gradientUnits="userSpaceOnUse">
<stop stop-color="#DED9FC"/>
<stop offset="0.136573" stop-color="#725CF6"/>
<stop offset="0.244792" stop-color="#5854FD"/>
<stop offset="0.369792" stop-color="#FFC368" stop-opacity="0.75"/>
<stop offset="0.4375" stop-color="#EF9AF3" stop-opacity="0.79"/>
<stop offset="0.530697" stop-color="#7C79FE"/>
<stop offset="0.694752" stop-color="#5854FD"/>
<stop offset="0.942708" stop-color="#9C4FFF"/>
<stop offset="1" stop-color="#E1D5FF"/>
</linearGradient>
<linearGradient id="paint5_linear_2228_1246" x1="1197.97" y1="1193.76" x2="1746.14" y2="282.339" gradientUnits="userSpaceOnUse">
<stop offset="0.0027083" stop-color="white"/>
<stop offset="0.176722" stop-color="white" stop-opacity="0"/>
</linearGradient>
<linearGradient id="paint6_linear_2228_1246" x1="2220" y1="798.977" x2="1813.4" y2="798.977" gradientUnits="userSpaceOnUse">
<stop stop-color="#F9FAFB"/>
<stop offset="0.394851" stop-color="#F9FAFB" stop-opacity="0.89"/>
<stop offset="0.693541" stop-color="#F9FAFB" stop-opacity="0.452733"/>
<stop offset="1" stop-color="#F9FAFB" stop-opacity="0"/>
</linearGradient>
<linearGradient id="paint7_linear_2228_1246" x1="915.396" y1="1108.89" x2="729.663" y2="1108.89" gradientUnits="userSpaceOnUse">
<stop stop-color="#F9FAFB"/>
<stop offset="0.394851" stop-color="#F9FAFB" stop-opacity="0.89"/>
<stop offset="0.693541" stop-color="#F9FAFB" stop-opacity="0.452733"/>
<stop offset="1" stop-color="#F9FAFB" stop-opacity="0"/>
</linearGradient>
<clipPath id="clip0_2228_1246">
<rect width="2220" height="1500" fill="white"/>
</clipPath>
</defs>
</svg>
