<svg viewBox="0 0 2220 1500" fill="none" xmlns="http://www.w3.org/2000/svg">
<g clip-path="url(#clip0_2228_1246)">
<rect width="2220" height="1500" fill="#F9FAFB"/>
<mask id="mask0_2228_1246" style="mask-type:alpha" maskUnits="userSpaceOnUse" x="1563" y="-253" width="519" height="954">
<line y1="-0.426784" x2="631.641" y2="-0.426784" transform="matrix(-4.84939e-08 1 -0.865554 -0.532714 1563 -252.544)" stroke="white" stroke-width="0.853568"/>
<line y1="-0.426784" x2="631.641" y2="-0.426784" transform="matrix(-4.81944e-08 1 -0.865554 -0.532714 1637.01 -206.76)" stroke="white" stroke-width="0.853568"/>
<line y1="-0.426784" x2="631.641" y2="-0.426784" transform="matrix(-4.81944e-08 1 -0.865554 -0.532714 1711.02 -160.975)" stroke="white" stroke-width="0.853568"/>
<line y1="-0.426784" x2="631.641" y2="-0.426784" transform="matrix(-4.81944e-08 1 -0.865554 -0.532714 1785.03 -115.191)" stroke="white" stroke-width="0.853568"/>
<line y1="-0.426784" x2="631.641" y2="-0.426784" transform="matrix(-4.81944e-08 1 -0.865554 -0.532714 1859.04 -69.4062)" stroke="white" stroke-width="0.853568"/>
<line y1="-0.426784" x2="631.641" y2="-0.426784" transform="matrix(-4.81944e-08 1 -0.865554 -0.532714 1933.05 -23.6226)" stroke="white" stroke-width="0.853568"/>
<line y1="-0.426784" x2="631.641" y2="-0.426784" transform="matrix(-4.81944e-08 1 -0.865554 -0.532714 2007.06 22.1626)" stroke="white" stroke-width="0.853568"/>
<line y1="-0.426784" x2="631.641" y2="-0.426784" transform="matrix(-4.81944e-08 1 -0.865554 -0.532714 2081.06 67.9468)" stroke="white" stroke-width="0.853568"/>
<line y1="-0.426784" x2="575.519" y2="-0.426784" transform="matrix(-0.866025 -0.5 1.52389e-07 -1 2075.82 225.514)" stroke="white" stroke-width="0.853568"/>
<line y1="-0.426784" x2="575.519" y2="-0.426784" transform="matrix(-0.866025 -0.5 1.52389e-07 -1 2075.82 310.973)" stroke="white" stroke-width="0.853568"/>
<line y1="-0.426784" x2="575.519" y2="-0.426784" transform="matrix(-0.866025 -0.5 1.52389e-07 -1 2075.82 396.431)" stroke="white" stroke-width="0.853568"/>
<line y1="-0.426784" x2="575.519" y2="-0.426784" transform="matrix(-0.866025 -0.5 1.52389e-07 -1 2075.82 481.889)" stroke="white" stroke-width="0.853568"/>
<line y1="-0.426784" x2="575.519" y2="-0.426784" transform="matrix(-0.866025 -0.5 1.52389e-07 -1 2075.82 567.349)" stroke="white" stroke-width="0.853568"/>
<line y1="-0.426784" x2="575.519" y2="-0.426784" transform="matrix(-0.866025 -0.5 1.52389e-07 -1 2075.82 652.692)" stroke="white" stroke-width="0.853568"/>
</mask>
<g mask="url(#mask0_2228_1246)">
<g filter="url(#filter0_f_2228_1246)">
<path d="M2081.63 -375.021L2839.51 -365.878L2780.08 891.334L1596.52 236.568L2081.63 -375.021Z" fill="#D9D9D9"/>
</g>
</g>
<mask id="mask1_2228_1246" style="mask-type:alpha" maskUnits="userSpaceOnUse" x="259" y="204" width="2312" height="1335">
<line y1="-0.426784" x2="1166.82" y2="-0.426784" transform="matrix(-0.866025 0.5 -0.866025 -0.5 1271.03 204.945)" stroke="white" stroke-width="0.853568"/>
<line y1="-0.426784" x2="1166.82" y2="-0.426784" transform="matrix(-0.866025 0.5 -0.866025 -0.5 1343.21 246.617)" stroke="white" stroke-width="0.853568"/>
<line y1="-0.426784" x2="1166.82" y2="-0.426784" transform="matrix(-0.866025 0.5 -0.866025 -0.5 1415.38 288.29)" stroke="white" stroke-width="0.853568"/>
<line y1="-0.426784" x2="1166.82" y2="-0.426784" transform="matrix(-0.866025 0.5 -0.866025 -0.5 1487.56 329.962)" stroke="white" stroke-width="0.853568"/>
<line y1="-0.426784" x2="1166.82" y2="-0.426784" transform="matrix(-0.866025 0.5 -0.866025 -0.5 1559.74 371.634)" stroke="white" stroke-width="0.853568"/>
<line y1="-0.426784" x2="1166.82" y2="-0.426784" transform="matrix(-0.866025 0.5 -0.866025 -0.5 1631.92 413.306)" stroke="white" stroke-width="0.853568"/>
<line y1="-0.426784" x2="1166.82" y2="-0.426784" transform="matrix(-0.866025 0.5 -0.866025 -0.5 1704.1 454.978)" stroke="white" stroke-width="0.853568"/>
<line y1="-0.426784" x2="1166.82" y2="-0.426784" transform="matrix(-0.866025 0.5 -0.866025 -0.5 1776.28 496.65)" stroke="white" stroke-width="0.853568"/>
<line y1="-0.426784" x2="1166.82" y2="-0.426784" transform="matrix(-0.866025 0.5 -0.866025 -0.5 1848.45 538.322)" stroke="white" stroke-width="0.853568"/>
<line y1="-0.426784" x2="1166.82" y2="-0.426784" transform="matrix(-0.866025 0.5 -0.866025 -0.5 1920.63 579.994)" stroke="white" stroke-width="0.853568"/>
<line y1="-0.426784" x2="1166.82" y2="-0.426784" transform="matrix(-0.866025 0.5 -0.866025 -0.5 1992.81 621.667)" stroke="white" stroke-width="0.853568"/>
<line y1="-0.426784" x2="1166.82" y2="-0.426784" transform="matrix(-0.866025 0.5 -0.866025 -0.5 2064.99 663.339)" stroke="white" stroke-width="0.853568"/>
<line y1="-0.426784" x2="1166.82" y2="-0.426784" transform="matrix(-0.866025 0.5 -0.866025 -0.5 2137.17 705.011)" stroke="white" stroke-width="0.853568"/>
<line y1="-0.426784" x2="1166.82" y2="-0.426784" transform="matrix(-0.866025 0.5 -0.866025 -0.5 2209.35 746.684)" stroke="white" stroke-width="0.853568"/>
<line y1="-0.426784" x2="1166.82" y2="-0.426784" transform="matrix(-0.866025 0.5 -0.866025 -0.5 2281.52 788.355)" stroke="white" stroke-width="0.853568"/>
<line y1="-0.426784" x2="1166.82" y2="-0.426784" transform="matrix(-0.866025 0.5 -0.866025 -0.5 2353.7 830.028)" stroke="white" stroke-width="0.853568"/>
<line y1="-0.426784" x2="1166.82" y2="-0.426784" transform="matrix(-0.866025 0.5 -0.866025 -0.5 2425.88 871.699)" stroke="white" stroke-width="0.853568"/>
<line y1="-0.426784" x2="1166.82" y2="-0.426784" transform="matrix(-0.866025 0.5 -0.866025 -0.5 2498.06 913.371)" stroke="white" stroke-width="0.853568"/>
<line y1="-0.426784" x2="1058.73" y2="-0.426784" transform="matrix(-0.866025 0.5 -0.866025 -0.5 2523.99 981.74)" stroke="white" stroke-width="0.853568"/>
<line y1="-0.426784" x2="1500.2" y2="-0.426784" transform="matrix(-0.866025 -0.5 0.866026 -0.5 2570.24 955.043)" stroke="white" stroke-width="0.853568"/>
<line y1="-0.426784" x2="1500.2" y2="-0.426784" transform="matrix(-0.866025 -0.5 0.866026 -0.5 2498.06 996.715)" stroke="white" stroke-width="0.853568"/>
<line y1="-0.426784" x2="1500.2" y2="-0.426784" transform="matrix(-0.866025 -0.5 0.866026 -0.5 2425.88 1038.39)" stroke="white" stroke-width="0.853568"/>
<line y1="-0.426784" x2="1500.2" y2="-0.426784" transform="matrix(-0.866025 -0.5 0.866026 -0.5 2353.7 1080.06)" stroke="white" stroke-width="0.853568"/>
<line y1="-0.426784" x2="1500.2" y2="-0.426784" transform="matrix(-0.866025 -0.5 0.866026 -0.5 2281.52 1121.73)" stroke="white" stroke-width="0.853568"/>
<line y1="-0.426784" x2="1500.2" y2="-0.426784" transform="matrix(-0.866025 -0.5 0.866026 -0.5 2209.34 1163.4)" stroke="white" stroke-width="0.853568"/>
<line y1="-0.426784" x2="1500.2" y2="-0.426784" transform="matrix(-0.866025 -0.5 0.866026 -0.5 2137.16 1205.08)" stroke="white" stroke-width="0.853568"/>
<line y1="-0.426784" x2="1500.2" y2="-0.426784" transform="matrix(-0.866025 -0.5 0.866026 -0.5 2064.99 1246.75)" stroke="white" stroke-width="0.853568"/>
<line y1="-0.426784" x2="1500.2" y2="-0.426784" transform="matrix(-0.866025 -0.5 0.866026 -0.5 1992.81 1288.42)" stroke="white" stroke-width="0.853568"/>
<line y1="-0.426784" x2="1500.2" y2="-0.426784" transform="matrix(-0.866025 -0.5 0.866026 -0.5 1920.63 1330.09)" stroke="white" stroke-width="0.853568"/>
<line y1="-0.426784" x2="1500.2" y2="-0.426784" transform="matrix(-0.866025 -0.5 0.866026 -0.5 1848.46 1371.77)" stroke="white" stroke-width="0.853568"/>
<line y1="-0.426784" x2="1500.2" y2="-0.426784" transform="matrix(-0.866025 -0.5 0.866026 -0.5 1776.27 1413.44)" stroke="white" stroke-width="0.853568"/>
<line y1="-0.426784" x2="1500.2" y2="-0.426784" transform="matrix(-0.866025 -0.5 0.866026 -0.5 1704.1 1455.11)" stroke="white" stroke-width="0.853568"/>
<line y1="-0.426784" x2="1500.2" y2="-0.426784" transform="matrix(-0.866025 -0.5 0.866026 -0.5 1631.92 1496.78)" stroke="white" stroke-width="0.853568"/>
<line y1="-0.426784" x2="1500.2" y2="-0.426784" transform="matrix(-0.866025 -0.5 0.866026 -0.5 1559.74 1538.45)" stroke="white" stroke-width="0.853568"/>
</mask>
<g mask="url(#mask1_2228_1246)">
<path d="M1874.47 1185.03C1612.42 1336.32 1151.04 1315.33 843.925 1138.02C536.815 960.709 500.455 694.328 762.5 543.036C1024.55 391.744 1485.93 412.736 1793.04 590.046C2100.15 767.357 2136.51 1033.74 1874.47 1185.03Z" fill="url(#paint0_radial_2228_1246)" stroke="white" stroke-width="0.739869"/>
</g>
<g filter="url(#filter1_dd_2228_1246)">
<path d="M1256.96 397.419C1258.43 396.651 1260.38 396.875 1262.4 398.044L1721.27 662.971C1724.38 664.766 1726.9 669.132 1726.9 672.723L1726.9 1076.61C1726.9 1080.06 1725.58 1082.57 1723.29 1083.48L1698.74 1093.17L1266.98 816.996C1262.55 814.164 1258.98 808.093 1258.62 802.782L1231.94 410.525L1256.96 397.419Z" fill="#E5E7EB"/>
</g>
<g filter="url(#filter2_dd_2228_1246)">
<path d="M1231.58 446.666L1699.11 716.597L1699.11 1082.69C1699.11 1088.34 1695.14 1090.63 1690.25 1087.81L1240.44 828.109C1235.55 825.283 1231.58 818.41 1231.58 812.758L1231.58 446.666Z" fill="url(#paint1_linear_2228_1246)"/>
<path d="M1231.58 444.716L1229.89 443.741L1229.89 445.691L1229.89 811.783C1229.89 818.512 1234.61 826.694 1240.44 830.059L1690.25 1089.76C1696.08 1093.12 1700.8 1090.39 1700.8 1083.66L1700.8 717.572L1700.8 715.622L1699.11 714.647L1231.58 444.716Z" stroke="white" stroke-width="3.89982"/>
</g>
<g filter="url(#filter3_d_2228_1246)">
<mask id="path-54-outside-1_2228_1246" maskUnits="userSpaceOnUse" x="1228.11" y="407.65" width="474.582" height="312" fill="black">
<rect fill="white" x="1228.11" y="407.65" width="474.582" height="312"/>
<path d="M1231.58 416.804C1231.58 415.062 1232.8 414.356 1234.31 415.227L1696.38 682.004C1697.89 682.875 1699.11 684.993 1699.11 686.735L1699.11 717.327L1231.58 447.396L1231.58 416.804Z"/>
</mask>
<path d="M1231.58 416.804C1231.58 415.062 1232.8 414.356 1234.31 415.227L1696.38 682.004C1697.89 682.875 1699.11 684.993 1699.11 686.735L1699.11 717.327L1231.58 447.396L1231.58 416.804Z" fill="#F9FAFB"/>
<path d="M1228.2 414.854C1228.2 410.958 1230.94 409.379 1234.31 411.327L1696.38 678.104C1699.75 680.052 1702.49 684.789 1702.49 688.684L1695.73 685.531L1234.96 419.5L1228.2 414.854ZM1699.11 717.327L1231.58 447.396L1699.11 717.327ZM1228.2 445.446L1228.2 414.854C1228.2 410.958 1230.94 409.379 1234.31 411.327L1234.96 419.5L1234.96 449.346L1228.2 445.446ZM1696.38 678.104C1699.75 680.052 1702.49 684.789 1702.49 688.684L1702.49 719.277L1695.73 715.377L1695.73 685.531L1696.38 678.104Z" fill="white" mask="url(#path-54-outside-1_2228_1246)"/>
</g>
<circle cx="3.78458" cy="3.78458" r="3.78458" transform="matrix(0.866025 0.5 -2.20305e-08 1 1242.8 431.677)" fill="#EF4444"/>
<circle cx="3.78458" cy="3.78458" r="3.78458" transform="matrix(0.866025 0.5 -2.20305e-08 1 1253.72 437.985)" fill="#F59E0B"/>
<circle cx="3.78458" cy="3.78458" r="3.78458" transform="matrix(0.866025 0.5 -2.20305e-08 1 1264.65 444.292)" fill="#10B981"/>
<rect width="273.769" height="15.4962" rx="3.09924" transform="matrix(0.866025 0.5 -2.20305e-08 1 1355.98 494.586)" fill="#E5E7EB"/>
<g filter="url(#filter4_dd_2228_1246)">
<path d="M1345.34 611.765C1347.7 610.844 1350.67 611.305 1353.74 613.068L1576.18 740.729C1584.23 745.348 1590.6 756.896 1590.04 765.844L1589.82 769.463C1589.55 773.773 1587.67 776.82 1584.64 777.864L1577.18 780.436L1351.51 642.822L1339.3 614.129L1345.34 611.765Z" fill="#D1D5DB"/>
</g>
<g filter="url(#filter5_i_2228_1246)">
<rect width="286.424" height="35.0089" rx="14.9632" transform="matrix(0.866025 0.5 -2.20305e-08 1 1335.51 607.814)" fill="#E5E7EB"/>
</g>
<path d="M1447.29 631.702C1447.21 631.292 1447.08 630.904 1446.92 630.537C1446.76 630.164 1446.56 629.815 1446.33 629.489C1446.1 629.161 1445.83 628.859 1445.54 628.585C1445.24 628.313 1444.92 628.074 1444.56 627.868C1443.9 627.483 1443.31 627.336 1442.81 627.427C1442.31 627.52 1441.91 627.851 1441.63 628.419C1441.35 628.983 1441.21 629.789 1441.21 630.838C1441.21 631.887 1441.35 632.858 1441.63 633.753C1441.9 634.647 1442.29 635.434 1442.8 636.113C1443.3 636.786 1443.9 637.322 1444.59 637.719C1445.21 638.079 1445.75 638.259 1446.19 638.259C1446.63 638.257 1446.97 638.088 1447.21 637.752C1447.44 637.419 1447.56 636.931 1447.56 636.289L1448.12 636.708L1444.76 634.767L1444.76 632.371L1450.22 635.521L1450.22 637.417C1450.22 638.741 1449.97 639.738 1449.49 640.409C1449.01 641.076 1448.34 641.421 1447.49 641.446C1446.64 641.466 1445.67 641.159 1444.58 640.527C1443.35 639.821 1442.28 638.89 1441.35 637.734C1440.43 636.572 1439.71 635.266 1439.19 633.815C1438.68 632.362 1438.42 630.842 1438.42 629.254C1438.42 628.033 1438.57 627.034 1438.88 626.254C1439.19 625.473 1439.62 624.909 1440.18 624.564C1440.73 624.218 1441.38 624.084 1442.12 624.163C1442.86 624.241 1443.66 624.529 1444.52 625.027C1445.26 625.453 1445.94 625.975 1446.58 626.592C1447.22 627.205 1447.78 627.879 1448.27 628.614C1448.77 629.352 1449.18 630.122 1449.49 630.926C1449.81 631.725 1450.01 632.523 1450.1 633.319L1447.29 631.702ZM1456.65 647.515C1455.67 646.945 1454.81 646.208 1454.09 645.306C1453.37 644.402 1452.82 643.401 1452.43 642.303C1452.04 641.201 1451.84 640.071 1451.84 638.914C1451.84 637.748 1452.04 636.841 1452.43 636.194C1452.82 635.543 1453.37 635.181 1454.09 635.11C1454.81 635.036 1455.67 635.285 1456.65 635.856C1457.64 636.427 1458.5 637.165 1459.21 638.069C1459.94 638.971 1460.49 639.973 1460.88 641.076C1461.27 642.173 1461.47 643.306 1461.47 644.472C1461.47 645.629 1461.27 646.533 1460.88 647.185C1460.49 647.832 1459.94 648.192 1459.21 648.265C1458.5 648.336 1457.64 648.086 1456.65 647.515ZM1456.67 645.097C1457.12 645.357 1457.49 645.426 1457.79 645.306C1458.1 645.181 1458.32 644.906 1458.48 644.479C1458.63 644.055 1458.71 643.515 1458.71 642.858C1458.71 642.202 1458.63 641.571 1458.48 640.965C1458.32 640.363 1458.1 639.825 1457.79 639.352C1457.49 638.879 1457.12 638.512 1456.67 638.253C1456.21 637.991 1455.83 637.919 1455.52 638.04C1455.22 638.162 1454.98 638.435 1454.83 638.859C1454.67 639.286 1454.6 639.827 1454.6 640.484C1454.6 641.141 1454.67 641.77 1454.83 642.373C1454.98 642.978 1455.22 643.519 1455.52 643.994C1455.83 644.467 1456.21 644.835 1456.67 645.097ZM1467.65 653.863C1466.66 653.292 1465.81 652.556 1465.08 651.654C1464.37 650.75 1463.81 649.749 1463.42 648.651C1463.03 647.549 1462.84 646.419 1462.84 645.262C1462.84 644.096 1463.03 643.189 1463.42 642.542C1463.81 641.89 1464.37 641.529 1465.08 641.458C1465.81 641.384 1466.66 641.633 1467.65 642.204C1468.64 642.775 1469.49 643.513 1470.21 644.417C1470.93 645.319 1471.49 646.321 1471.88 647.424C1472.27 648.521 1472.46 649.653 1472.46 650.82C1472.46 651.977 1472.27 652.881 1471.88 653.533C1471.49 654.18 1470.93 654.54 1470.21 654.613C1469.49 654.684 1468.64 654.434 1467.65 653.863ZM1467.66 651.445C1468.11 651.705 1468.49 651.774 1468.79 651.654C1469.09 651.529 1469.32 651.254 1469.47 650.827C1469.63 650.403 1469.71 649.863 1469.71 649.206C1469.71 648.55 1469.63 647.919 1469.47 647.313C1469.32 646.71 1469.09 646.173 1468.79 645.7C1468.49 645.227 1468.11 644.86 1467.66 644.601C1467.21 644.338 1466.83 644.267 1466.52 644.387C1466.21 644.51 1465.98 644.783 1465.82 645.207C1465.67 645.634 1465.59 646.175 1465.59 646.832C1465.59 647.489 1465.67 648.118 1465.82 648.721C1465.98 649.326 1466.21 649.867 1466.52 650.342C1466.83 650.815 1467.21 651.183 1467.66 651.445ZM1478.63 664.453C1477.75 663.946 1477 663.371 1476.37 662.729C1475.75 662.094 1475.25 661.433 1474.88 660.744C1474.51 660.056 1474.27 659.383 1474.16 658.726L1476.67 659.785C1476.75 660.054 1476.87 660.335 1477.03 660.627C1477.2 660.918 1477.42 661.201 1477.69 661.476C1477.97 661.758 1478.3 662.012 1478.7 662.24C1479.29 662.581 1479.77 662.695 1480.15 662.582C1480.54 662.477 1480.73 662.037 1480.73 661.263L1480.73 659.197L1480.62 659.131C1480.5 659.376 1480.32 659.569 1480.08 659.711C1479.85 659.854 1479.54 659.905 1479.17 659.866C1478.79 659.827 1478.35 659.658 1477.83 659.359C1477.1 658.935 1476.43 658.353 1475.82 657.613C1475.23 656.87 1474.75 655.989 1474.39 654.97C1474.04 653.948 1473.86 652.812 1473.86 651.562C1473.86 650.283 1474.04 649.319 1474.4 648.67C1474.77 648.02 1475.25 647.655 1475.84 647.574C1476.45 647.496 1477.11 647.664 1477.82 648.078C1478.37 648.394 1478.83 648.766 1479.2 649.195C1479.57 649.619 1479.86 650.055 1480.09 650.504C1480.32 650.95 1480.5 651.36 1480.62 651.735L1480.72 651.794L1480.72 649.897L1483.41 651.452L1483.41 662.854C1483.41 663.815 1483.21 664.501 1482.8 664.913C1482.39 665.324 1481.83 665.483 1481.11 665.39C1480.39 665.305 1479.57 664.992 1478.63 664.453ZM1478.69 657.502C1479.13 657.755 1479.5 657.843 1479.8 657.767C1480.1 657.689 1480.34 657.461 1480.5 657.083C1480.66 656.703 1480.75 656.183 1480.75 655.521C1480.75 654.86 1480.67 654.24 1480.5 653.661C1480.34 653.078 1480.11 652.563 1479.8 652.117C1479.5 651.671 1479.13 651.322 1478.69 651.07C1478.24 650.813 1477.87 650.735 1477.56 650.838C1477.26 650.936 1477.03 651.185 1476.87 651.584C1476.71 651.984 1476.63 652.505 1476.63 653.147C1476.63 653.798 1476.71 654.407 1476.87 654.973C1477.03 655.537 1477.26 656.036 1477.56 656.469C1477.87 656.901 1478.24 657.245 1478.69 657.502ZM1488.28 650.5L1488.28 665.556L1485.57 663.99L1485.57 648.934L1488.28 650.5ZM1494.91 669.604C1493.91 669.023 1493.04 668.288 1492.32 667.398C1491.59 666.506 1491.04 665.514 1490.65 664.421C1490.26 663.323 1490.06 662.179 1490.06 660.988C1490.06 659.826 1490.26 658.92 1490.65 658.268C1491.04 657.616 1491.59 657.25 1492.3 657.169C1493.01 657.09 1493.85 657.328 1494.8 657.882C1495.45 658.254 1496.05 658.721 1496.61 659.282C1497.17 659.841 1497.65 660.478 1498.07 661.194C1498.49 661.912 1498.82 662.698 1499.05 663.553C1499.28 664.404 1499.4 665.309 1499.4 666.27L1499.4 667.13L1491.14 662.363L1491.14 660.422L1496.85 663.715C1496.85 663.264 1496.76 662.816 1496.59 662.37C1496.42 661.924 1496.19 661.516 1495.89 661.146C1495.59 660.773 1495.24 660.473 1494.85 660.245C1494.44 660.008 1494.07 659.907 1493.75 659.944C1493.44 659.978 1493.19 660.128 1493.02 660.392C1492.84 660.652 1492.75 661.004 1492.74 661.447L1492.74 663.292C1492.74 663.851 1492.83 664.385 1493.01 664.895C1493.19 665.407 1493.45 665.869 1493.78 666.281C1494.11 666.692 1494.5 667.029 1494.96 667.292C1495.26 667.466 1495.53 667.576 1495.78 667.622C1496.04 667.669 1496.25 667.646 1496.43 667.553C1496.61 667.459 1496.74 667.298 1496.84 667.067L1499.34 668.707C1499.22 669.329 1498.96 669.786 1498.56 670.078C1498.17 670.367 1497.67 670.477 1497.05 670.409C1496.43 670.338 1495.72 670.069 1494.91 669.604Z" fill="#4B5563"/>
<path d="M1349.44 858.391L1337.11 825.198L1418.67 803.674L1480.35 863.814L1560.11 848.635L1562.63 854.008L1483.19 897.347L1423.13 834.458L1349.44 858.391Z" fill="#D1D5DB"/>
<path d="M1558.69 897.098L1522.89 816.72L1578.67 838.927L1558.69 897.098Z" fill="#D1D5DB"/>
<g opacity="0.05" filter="url(#filter6_f_2228_1246)">
<path d="M1066.88 845.475L1382.31 1027.59L1191.43 1137.79C1184.85 1141.59 1174.18 1141.59 1167.6 1137.79L876.004 969.441C869.422 965.641 869.422 959.479 876.004 955.679L1066.88 845.475Z" fill="url(#paint2_linear_2228_1246)"/>
</g>
<g filter="url(#filter7_d_2228_1246)">
<g filter="url(#filter8_dd_2228_1246)">
<rect width="361.891" height="95.8808" rx="6.27769" transform="matrix(0.866025 0.5 -2.20305e-08 1 1068 545.387)" fill="#D1D5DB"/>
</g>
<rect x="1050.96" y="557.475" width="21.2509" height="24.1355" transform="rotate(-27 1050.96 557.475)" fill="#D1D5DB"/>
<rect x="1353.03" y="806.185" width="18.2851" height="24.1355" transform="rotate(-27 1353.03 806.185)" fill="#D1D5DB"/>
<g filter="url(#filter9_dd_2228_1246)">
<rect width="361.891" height="95.8808" rx="6.27769" transform="matrix(0.866025 0.5 -2.20305e-08 1 1068.01 645.724)" fill="#D1D5DB"/>
</g>
<rect x="1052.91" y="661.617" width="21.2509" height="19.8647" transform="rotate(-27 1052.91 661.617)" fill="#D1D5DB"/>
<rect x="1353.04" y="906.522" width="18.2851" height="24.1355" transform="rotate(-27 1353.04 906.522)" fill="#D1D5DB"/>
<g filter="url(#filter10_dd_2228_1246)">
<rect width="361.891" height="95.8808" rx="6.27769" transform="matrix(0.866025 0.5 -2.20305e-08 1 1068 747.954)" fill="#D1D5DB"/>
</g>
<rect x="1053.14" y="764.314" width="21.2509" height="19.3401" transform="rotate(-27 1053.14 764.314)" fill="#D1D5DB"/>
<rect x="1353.03" y="1008.75" width="18.2851" height="24.1355" transform="rotate(-27 1353.03 1008.75)" fill="#D1D5DB"/>
<g filter="url(#filter11_dd_2228_1246)">
<rect width="361.891" height="88.6115" rx="6.27769" transform="matrix(0.866025 0.5 -2.20305e-08 1 1050.68 557.888)" fill="#F9FAFB"/>
<rect width="160.563" height="9.38964" rx="4.15659" transform="matrix(0.866025 0.5 -2.20305e-08 1 1072.63 614.694)" fill="#E5E7EB"/>
<rect width="107.042" height="9.38964" rx="4.15659" transform="matrix(0.866025 0.5 -2.20305e-08 1 1072.63 630.657)" fill="#E5E7EB"/>
<path d="M1077.47 600.446C1077.44 600.079 1077.31 599.733 1077.09 599.408C1076.86 599.083 1076.55 598.808 1076.16 598.582C1075.89 598.429 1075.67 598.343 1075.49 598.324C1075.3 598.303 1075.16 598.339 1075.07 598.433C1074.97 598.528 1074.92 598.671 1074.92 598.862C1074.92 599.018 1074.95 599.173 1075.01 599.328C1075.07 599.484 1075.16 599.638 1075.28 599.789C1075.39 599.938 1075.52 600.087 1075.67 600.236C1075.81 600.382 1075.97 600.525 1076.14 600.665L1076.83 601.255C1077.17 601.535 1077.47 601.828 1077.75 602.135C1078.03 602.441 1078.28 602.759 1078.48 603.088C1078.69 603.418 1078.85 603.758 1078.96 604.109C1079.07 604.462 1079.13 604.824 1079.13 605.195C1079.13 605.737 1079.01 606.138 1078.77 606.4C1078.54 606.66 1078.2 606.771 1077.75 606.734C1077.31 606.695 1076.78 606.495 1076.15 606.133C1075.53 605.775 1074.99 605.353 1074.53 604.868C1074.07 604.384 1073.71 603.852 1073.45 603.272C1073.2 602.692 1073.07 602.078 1073.05 601.432L1074.63 602.34C1074.64 602.648 1074.72 602.939 1074.85 603.214C1074.98 603.487 1075.16 603.738 1075.38 603.966C1075.6 604.193 1075.85 604.387 1076.13 604.549C1076.41 604.708 1076.65 604.8 1076.85 604.824C1077.05 604.85 1077.21 604.813 1077.33 604.714C1077.44 604.614 1077.49 604.457 1077.49 604.243C1077.49 604.044 1077.44 603.847 1077.34 603.652C1077.24 603.458 1077.09 603.257 1076.9 603.049C1076.7 602.843 1076.47 602.619 1076.19 602.379L1075.35 601.653C1074.7 601.097 1074.19 600.517 1073.82 599.913C1073.44 599.309 1073.25 598.68 1073.26 598.025C1073.25 597.486 1073.38 597.088 1073.63 596.831C1073.88 596.575 1074.23 596.462 1074.67 596.491C1075.11 596.52 1075.61 596.696 1076.17 597.02C1076.74 597.349 1077.24 597.749 1077.66 598.22C1078.09 598.693 1078.42 599.199 1078.66 599.737C1078.9 600.276 1079.02 600.812 1079.03 601.346L1077.47 600.446ZM1080.2 610.841L1080.2 601.686L1081.77 602.597L1081.77 603.715L1081.85 603.756C1081.92 603.618 1082.02 603.494 1082.15 603.386C1082.29 603.276 1082.46 603.221 1082.68 603.221C1082.89 603.219 1083.16 603.312 1083.49 603.498C1083.91 603.741 1084.29 604.092 1084.65 604.552C1085.01 605.008 1085.29 605.552 1085.5 606.184C1085.72 606.812 1085.82 607.508 1085.82 608.271C1085.82 609.014 1085.72 609.581 1085.51 609.972C1085.3 610.362 1085.02 610.586 1084.67 610.644C1084.32 610.7 1083.92 610.602 1083.48 610.349C1083.17 610.17 1082.91 609.959 1082.69 609.714C1082.48 609.472 1082.3 609.221 1082.16 608.962C1082.02 608.701 1081.92 608.457 1081.85 608.23L1081.8 608.202L1081.8 611.765L1080.2 610.841ZM1081.76 605.919C1081.76 606.315 1081.81 606.688 1081.91 607.038C1082 607.387 1082.14 607.697 1082.32 607.965C1082.5 608.231 1082.72 608.438 1082.98 608.587C1083.24 608.738 1083.46 608.782 1083.64 608.722C1083.82 608.658 1083.95 608.506 1084.05 608.264C1084.14 608.022 1084.19 607.707 1084.19 607.319C1084.19 606.935 1084.14 606.57 1084.05 606.225C1083.96 605.88 1083.82 605.573 1083.64 605.304C1083.46 605.035 1083.24 604.825 1082.98 604.673C1082.72 604.523 1082.5 604.475 1082.32 604.53C1082.14 604.586 1082 604.733 1081.91 604.97C1081.81 605.207 1081.76 605.523 1081.76 605.919ZM1089.49 613.841C1088.91 613.504 1088.41 613.07 1087.98 612.538C1087.56 612.005 1087.23 611.415 1087 610.768C1086.77 610.117 1086.65 609.451 1086.65 608.769C1086.65 608.082 1086.77 607.547 1087 607.166C1087.23 606.781 1087.56 606.568 1087.98 606.526C1088.41 606.483 1088.91 606.629 1089.49 606.966C1090.08 607.303 1090.58 607.738 1091 608.271C1091.43 608.803 1091.76 609.394 1091.99 610.044C1092.22 610.691 1092.33 611.359 1092.33 612.046C1092.33 612.728 1092.22 613.262 1091.99 613.646C1091.76 614.027 1091.43 614.24 1091 614.283C1090.58 614.325 1090.08 614.178 1089.49 613.841ZM1089.5 612.415C1089.77 612.568 1089.99 612.609 1090.16 612.538C1090.34 612.465 1090.48 612.302 1090.57 612.051C1090.66 611.801 1090.71 611.482 1090.71 611.095C1090.71 610.708 1090.66 610.336 1090.57 609.979C1090.48 609.623 1090.34 609.306 1090.16 609.027C1089.99 608.748 1089.77 608.532 1089.5 608.379C1089.23 608.225 1089.01 608.183 1088.82 608.254C1088.64 608.326 1088.51 608.487 1088.42 608.737C1088.33 608.988 1088.28 609.308 1088.28 609.695C1088.28 610.082 1088.33 610.453 1088.42 610.809C1088.51 611.166 1088.64 611.484 1088.82 611.765C1089.01 612.044 1089.23 612.26 1089.5 612.415ZM1094.97 613.024L1094.97 616.873L1093.37 615.95L1093.37 609.292L1094.89 610.172L1094.89 611.346L1094.96 611.385C1095.09 611.072 1095.3 610.889 1095.6 610.837C1095.9 610.782 1096.27 610.878 1096.7 611.125C1097.1 611.356 1097.45 611.659 1097.74 612.033C1098.04 612.408 1098.27 612.83 1098.44 613.301C1098.6 613.769 1098.69 614.262 1098.69 614.779L1098.69 619.019L1097.09 618.095L1097.09 614.186C1097.09 613.78 1097 613.41 1096.82 613.076C1096.63 612.739 1096.38 612.478 1096.06 612.293C1095.85 612.169 1095.66 612.113 1095.49 612.124C1095.33 612.137 1095.2 612.22 1095.11 612.372C1095.02 612.522 1094.97 612.739 1094.97 613.024ZM1104.74 617.757L1103.28 617.016C1103.26 616.857 1103.2 616.696 1103.12 616.532C1103.04 616.366 1102.93 616.209 1102.79 616.062C1102.66 615.913 1102.5 615.785 1102.32 615.678C1102.07 615.535 1101.86 615.475 1101.69 615.498C1101.52 615.519 1101.43 615.628 1101.43 615.828C1101.43 615.987 1101.49 616.153 1101.6 616.326C1101.71 616.5 1101.9 616.697 1102.17 616.918L1103.21 617.763C1103.77 618.22 1104.19 618.675 1104.46 619.129C1104.74 619.582 1104.88 620.049 1104.88 620.529C1104.88 620.965 1104.76 621.284 1104.54 621.485C1104.32 621.687 1104.02 621.769 1103.63 621.732C1103.25 621.693 1102.81 621.529 1102.31 621.24C1101.54 620.799 1100.94 620.264 1100.48 619.636C1100.03 619.006 1099.77 618.351 1099.69 617.67L1101.26 618.483C1101.31 618.779 1101.43 619.051 1101.61 619.298C1101.79 619.542 1102.03 619.746 1102.31 619.911C1102.59 620.073 1102.82 620.141 1102.99 620.115C1103.16 620.087 1103.25 619.975 1103.25 619.777C1103.25 619.608 1103.19 619.435 1103.07 619.259C1102.95 619.08 1102.76 618.889 1102.51 618.687L1101.51 617.88C1100.95 617.425 1100.53 616.958 1100.25 616.478C1099.98 616 1099.85 615.512 1099.85 615.015C1099.85 614.587 1099.95 614.277 1100.15 614.083C1100.35 613.891 1100.63 613.817 1101 613.86C1101.37 613.905 1101.8 614.069 1102.29 614.354C1103.02 614.775 1103.59 615.283 1104.01 615.88C1104.43 616.478 1104.67 617.104 1104.74 617.757ZM1108.49 624.808C1107.9 624.471 1107.4 624.037 1106.98 623.505C1106.55 622.972 1106.23 622.382 1106 621.734C1105.76 621.084 1105.65 620.418 1105.65 619.736C1105.65 619.048 1105.76 618.514 1106 618.132C1106.23 617.748 1106.55 617.535 1106.98 617.493C1107.4 617.45 1107.9 617.596 1108.49 617.933C1109.07 618.27 1109.57 618.705 1110 619.238C1110.42 619.769 1110.75 620.36 1110.98 621.011C1111.21 621.658 1111.33 622.325 1111.33 623.013C1111.33 623.695 1111.21 624.228 1110.98 624.613C1110.75 624.994 1110.42 625.207 1110 625.25C1109.57 625.292 1109.07 625.144 1108.49 624.808ZM1108.5 623.382C1108.76 623.535 1108.98 623.576 1109.16 623.505C1109.34 623.432 1109.47 623.269 1109.56 623.018C1109.65 622.768 1109.7 622.449 1109.7 622.062C1109.7 621.675 1109.65 621.302 1109.56 620.946C1109.47 620.59 1109.34 620.273 1109.16 619.994C1108.98 619.715 1108.76 619.499 1108.5 619.346C1108.23 619.191 1108 619.15 1107.82 619.22C1107.64 619.293 1107.5 619.454 1107.41 619.704C1107.32 619.955 1107.28 620.274 1107.28 620.662C1107.28 621.049 1107.32 621.42 1107.41 621.776C1107.5 622.133 1107.64 622.451 1107.82 622.731C1108 623.01 1108.23 623.227 1108.5 623.382ZM1112.37 626.917L1112.37 620.259L1113.92 621.154L1113.92 622.315L1113.98 622.35C1114.08 621.997 1114.26 621.787 1114.51 621.719C1114.75 621.648 1115.04 621.706 1115.36 621.893C1115.44 621.939 1115.53 621.995 1115.62 622.06C1115.71 622.125 1115.79 622.187 1115.86 622.248L1115.86 623.887C1115.79 623.817 1115.69 623.734 1115.55 623.637C1115.42 623.541 1115.3 623.46 1115.19 623.397C1114.95 623.261 1114.74 623.199 1114.56 623.21C1114.38 623.221 1114.23 623.299 1114.12 623.445C1114.02 623.592 1113.96 623.801 1113.96 624.073L1113.96 627.84L1112.37 626.917ZM1119.05 630.906C1118.46 630.564 1117.95 630.13 1117.52 629.606C1117.09 629.08 1116.77 628.495 1116.54 627.85C1116.31 627.203 1116.19 626.528 1116.19 625.826C1116.19 625.141 1116.31 624.606 1116.54 624.222C1116.77 623.838 1117.09 623.622 1117.51 623.574C1117.93 623.528 1118.42 623.668 1118.99 623.994C1119.37 624.214 1119.72 624.489 1120.05 624.82C1120.38 625.15 1120.67 625.525 1120.91 625.947C1121.16 626.371 1121.35 626.834 1121.49 627.339C1121.63 627.84 1121.7 628.374 1121.7 628.94L1121.7 629.448L1116.83 626.636L1116.83 625.492L1120.19 627.434C1120.19 627.168 1120.14 626.904 1120.04 626.641C1119.94 626.378 1119.8 626.137 1119.62 625.919C1119.45 625.699 1119.25 625.522 1119.01 625.388C1118.77 625.248 1118.56 625.189 1118.37 625.21C1118.18 625.231 1118.04 625.319 1117.93 625.475C1117.83 625.628 1117.77 625.835 1117.77 626.097L1117.77 627.185C1117.77 627.514 1117.82 627.829 1117.93 628.13C1118.04 628.432 1118.19 628.704 1118.38 628.947C1118.58 629.19 1118.81 629.388 1119.08 629.543C1119.25 629.645 1119.42 629.711 1119.56 629.738C1119.71 629.765 1119.84 629.752 1119.94 629.697C1120.05 629.642 1120.13 629.547 1120.18 629.411L1121.66 630.377C1121.59 630.744 1121.43 631.014 1121.2 631.186C1120.97 631.356 1120.67 631.421 1120.31 631.381C1119.95 631.339 1119.53 631.181 1119.05 630.906ZM1124.87 634.242C1124.43 633.989 1124.03 633.63 1123.68 633.165C1123.32 632.698 1123.04 632.15 1122.83 631.522C1122.63 630.892 1122.53 630.205 1122.53 629.463C1122.53 628.7 1122.63 628.127 1122.85 627.744C1123.06 627.358 1123.34 627.141 1123.69 627.094C1124.05 627.045 1124.44 627.142 1124.86 627.386C1125.18 627.573 1125.45 627.792 1125.67 628.043C1125.89 628.293 1126.06 628.55 1126.19 628.815C1126.33 629.078 1126.43 629.319 1126.5 629.539L1126.55 629.567L1126.55 626.229L1128.15 627.15L1128.15 636.028L1126.57 635.117L1126.57 634.051L1126.5 634.012C1126.43 634.154 1126.32 634.276 1126.18 634.378C1126.05 634.479 1125.87 634.526 1125.65 634.519C1125.44 634.513 1125.18 634.421 1124.87 634.242ZM1125.37 633.065C1125.63 633.214 1125.85 633.258 1126.03 633.199C1126.21 633.139 1126.34 632.988 1126.44 632.748C1126.54 632.51 1126.58 632.193 1126.58 631.797C1126.58 631.401 1126.54 631.03 1126.44 630.683C1126.35 630.336 1126.21 630.031 1126.03 629.768C1125.85 629.505 1125.63 629.299 1125.37 629.151C1125.11 628.999 1124.89 628.953 1124.71 629.014C1124.53 629.075 1124.39 629.224 1124.3 629.463C1124.21 629.701 1124.16 630.012 1124.16 630.397C1124.16 630.784 1124.21 631.153 1124.3 631.504C1124.39 631.854 1124.53 632.164 1124.71 632.434C1124.89 632.703 1125.11 632.913 1125.37 633.065Z" fill="#4B5563"/>
<g filter="url(#filter12_dd_2228_1246)">
<rect width="76.9017" height="76.0561" rx="3.69815" transform="matrix(0.866025 0.5 -2.20305e-08 1 1290.66 702.721)" fill="white"/>
</g>
<mask id="mask2_2228_1246" style="mask-type:alpha" maskUnits="userSpaceOnUse" x="1294" y="711" width="59" height="98">
<rect width="66.9185" height="66.1827" rx="3.69815" transform="matrix(0.866025 0.5 -2.20305e-08 1 1294.99 710.153)" fill="white"/>
</mask>
<g mask="url(#mask2_2228_1246)">
<path d="M1335.66 772.248C1336.95 771.039 1339.5 772.512 1340.8 775.214L1355.41 805.736C1357.04 809.131 1355.52 811.797 1352.84 810.252L1323.62 793.378C1320.94 791.832 1319.42 787.414 1321.05 785.896L1335.66 772.248Z" fill="#C4B5FD"/>
<path d="M1307.9 747.914C1309.85 746.101 1313.67 748.309 1315.61 752.363L1339.8 802.876L1293.53 776.163C1289.51 773.845 1287.24 767.217 1289.67 764.94L1307.9 747.914Z" fill="#7A2CFF"/>
<ellipse cx="8.75936" cy="8.66304" rx="8.75936" ry="8.66304" transform="matrix(0.866025 0.5 -2.20305e-08 1 1322.79 736.932)" fill="#C4B5FD"/>
</g>
<rect x="-1.21975" y="-2.11267" width="364.708" height="91.4284" rx="7.68613" transform="matrix(0.866025 0.5 -2.20305e-08 1 1050.51 558.498)" stroke="white" stroke-width="2.81689"/>
</g>
<g filter="url(#filter13_dd_2228_1246)">
<rect width="361.891" height="86.0441" rx="7.25315" transform="matrix(0.866025 0.5 -2.20305e-08 1 1050.68 661.646)" fill="#F9FAFB"/>
<rect width="216.376" height="12.6535" rx="5.60144" transform="matrix(0.866025 0.5 -2.20305e-08 1 1075.8 698.929)" fill="#E5E7EB"/>
<rect width="144.25" height="12.6535" rx="5.60144" transform="matrix(0.866025 0.5 -2.20305e-08 1 1075.8 722.462)" fill="#E5E7EB"/>
<g filter="url(#filter14_dd_2228_1246)">
<rect width="78.1668" height="71.3027" rx="4.27279" transform="matrix(0.866025 0.5 -2.20305e-08 1 1288.47 806.19)" fill="#E5E7EB"/>
<rect x="0.547915" y="0.949016" width="76.9014" height="70.0374" rx="3.64011" transform="matrix(0.866025 0.5 -2.20305e-08 1 1288.54 805.916)" stroke="white" stroke-width="1.26535"/>
</g>
<mask id="mask3_2228_1246" style="mask-type:alpha" maskUnits="userSpaceOnUse" x="1292" y="814" width="60" height="94">
<rect width="68.0193" height="62.0464" rx="4.27279" transform="matrix(0.866025 0.5 -2.20305e-08 1 1292.87 813.356)" fill="white"/>
</mask>
<g mask="url(#mask3_2228_1246)">
<path d="M1335.11 872.688C1336 871.963 1337.64 872.912 1338.53 874.662L1355.31 907.735C1356.5 910.098 1355.48 912.032 1353.6 910.946L1320.04 891.574C1318.16 890.489 1317.13 887.367 1318.33 886.388L1335.11 872.688Z" fill="#D1D5DB"/>
<path d="M1308.2 847.543C1309.09 846.818 1310.73 847.767 1311.62 849.517L1335.4 896.387C1336.6 898.751 1335.57 900.684 1333.69 899.599L1286.14 872.145C1284.26 871.06 1283.23 867.938 1284.43 866.959L1308.2 847.543Z" fill="#9CA3AF"/>
<ellipse cx="8.90346" cy="8.12162" rx="8.90346" ry="8.12162" transform="matrix(0.866025 0.5 -2.20305e-08 1 1321.13 839.729)" fill="#9CA3AF"/>
</g>
<rect x="-1.09583" y="-1.89803" width="364.422" height="88.5748" rx="8.5185" transform="matrix(0.866025 0.5 -2.20305e-08 1 1050.53 662.194)" stroke="white" stroke-width="2.53071"/>
</g>
<g filter="url(#filter15_d_2228_1246)">
<rect width="361.891" height="86.0441" rx="7.25315" transform="matrix(0.866025 0.5 -2.20305e-08 1 1050.68 764.14)" fill="#F9FAFB"/>
<rect width="216.376" height="12.6535" rx="5.60144" transform="matrix(0.866025 0.5 -2.20305e-08 1 1075.8 801.423)" fill="#E5E7EB"/>
<rect width="144.25" height="12.6535" rx="5.60144" transform="matrix(0.866025 0.5 -2.20305e-08 1 1075.8 824.957)" fill="#E5E7EB"/>
<g filter="url(#filter16_dd_2228_1246)">
<rect width="78.1668" height="71.3027" rx="4.27279" transform="matrix(0.866025 0.5 -2.20305e-08 1 1288.47 908.684)" fill="#E5E7EB"/>
<rect x="0.547915" y="0.949016" width="76.9014" height="70.0374" rx="3.64011" transform="matrix(0.866025 0.5 -2.20305e-08 1 1288.54 908.41)" stroke="white" stroke-width="1.26535"/>
</g>
<mask id="mask4_2228_1246" style="mask-type:alpha" maskUnits="userSpaceOnUse" x="1292" y="917" width="60" height="94">
<rect width="68.0193" height="62.0464" rx="4.27279" transform="matrix(0.866025 0.5 -2.20305e-08 1 1292.87 915.849)" fill="white"/>
</mask>
<g mask="url(#mask4_2228_1246)">
<path d="M1335.11 975.181C1336 974.456 1337.64 975.405 1338.53 977.155L1355.31 1010.23C1356.5 1012.59 1355.48 1014.52 1353.6 1013.44L1320.04 994.067C1318.16 992.982 1317.13 989.86 1318.33 988.881L1335.11 975.181Z" fill="#D1D5DB"/>
<path d="M1308.2 950.036C1309.09 949.311 1310.73 950.26 1311.62 952.01L1335.4 998.88C1336.6 1001.24 1335.57 1003.18 1333.69 1002.09L1286.14 974.637C1284.26 973.552 1283.23 970.43 1284.43 969.451L1308.2 950.036Z" fill="#9CA3AF"/>
<ellipse cx="8.90346" cy="8.12162" rx="8.90346" ry="8.12162" transform="matrix(0.866025 0.5 -2.20305e-08 1 1321.13 942.222)" fill="#9CA3AF"/>
</g>
<rect x="-1.09583" y="-1.89803" width="364.422" height="88.5748" rx="8.5185" transform="matrix(0.866025 0.5 -2.20305e-08 1 1050.53 764.688)" stroke="white" stroke-width="2.53071"/>
</g>
</g>
<g style="mix-blend-mode:color-burn">
<path d="M503.477 741.317C486.162 731.057 482.504 707.551 495.884 692.515L1420.3 -346.357C1429.65 -356.861 1444.76 -360.033 1457.54 -354.176L2640.79 188.047C2658.21 196.03 2664.76 217.433 2654.78 233.796L1872.99 1516.07C1863.87 1531.02 1844.42 1535.87 1829.35 1526.94L503.477 741.317Z" fill="url(#paint3_linear_2228_1246)" fill-opacity="0.6"/>
<path d="M503.477 741.317C486.162 731.057 482.504 707.551 495.884 692.515L1420.3 -346.357C1429.65 -356.861 1444.76 -360.033 1457.54 -354.176L2640.79 188.047C2658.21 196.03 2664.76 217.433 2654.78 233.796L1872.99 1516.07C1863.87 1531.02 1844.42 1535.87 1829.35 1526.94L503.477 741.317Z" fill="url(#paint4_linear_2228_1246)"/>
</g>
<rect x="1795.02" width="424.98" height="1307.99" fill="url(#paint5_linear_2228_1246)"/>
<rect x="721.266" y="194.13" width="194.13" height="1497.53" transform="rotate(-90 721.266 194.13)" fill="url(#paint6_linear_2228_1246)"/>
</g>
<defs>
<filter id="filter0_f_2228_1246" x="1346.52" y="-625.021" width="1742.99" height="1766.35" filterUnits="userSpaceOnUse" color-interpolation-filters="sRGB">
<feFlood flood-opacity="0" result="BackgroundImageFix"/>
<feBlend mode="normal" in="SourceGraphic" in2="BackgroundImageFix" result="shape"/>
<feGaussianBlur stdDeviation="125" result="effect1_foregroundBlur_2228_1246"/>
</filter>
<filter id="filter1_dd_2228_1246" x="1221.78" y="395.277" width="515.27" height="716.509" filterUnits="userSpaceOnUse" color-interpolation-filters="sRGB">
<feFlood flood-opacity="0" result="BackgroundImageFix"/>
<feColorMatrix in="SourceAlpha" type="matrix" values="0 0 0 0 0 0 0 0 0 0 0 0 0 0 0 0 0 0 127 0" result="hardAlpha"/>
<feMorphology radius="1.69276" operator="erode" in="SourceAlpha" result="effect1_dropShadow_2228_1246"/>
<feOffset dy="3.38552"/>
<feGaussianBlur stdDeviation="2.53914"/>
<feColorMatrix type="matrix" values="0 0 0 0 0 0 0 0 0 0 0 0 0 0 0 0 0 0 0.05 0"/>
<feBlend mode="normal" in2="BackgroundImageFix" result="effect1_dropShadow_2228_1246"/>
<feColorMatrix in="SourceAlpha" type="matrix" values="0 0 0 0 0 0 0 0 0 0 0 0 0 0 0 0 0 0 127 0" result="hardAlpha"/>
<feMorphology radius="2.53914" operator="erode" in="SourceAlpha" result="effect2_dropShadow_2228_1246"/>
<feOffset dy="8.4638"/>
<feGaussianBlur stdDeviation="6.34785"/>
<feColorMatrix type="matrix" values="0 0 0 0 0 0 0 0 0 0 0 0 0 0 0 0 0 0 0.1 0"/>
<feBlend mode="normal" in2="effect1_dropShadow_2228_1246" result="effect2_dropShadow_2228_1246"/>
<feBlend mode="normal" in="SourceGraphic" in2="effect2_dropShadow_2228_1246" result="shape"/>
</filter>
<filter id="filter2_dd_2228_1246" x="1193.1" y="431.717" width="544.486" height="722.758" filterUnits="userSpaceOnUse" color-interpolation-filters="sRGB">
<feFlood flood-opacity="0" result="BackgroundImageFix"/>
<feColorMatrix in="SourceAlpha" type="matrix" values="0 0 0 0 0 0 0 0 0 0 0 0 0 0 0 0 0 0 127 0" result="hardAlpha"/>
<feMorphology radius="6.4997" operator="erode" in="SourceAlpha" result="effect1_dropShadow_2228_1246"/>
<feOffset dy="12.9994"/>
<feGaussianBlur stdDeviation="10.3995"/>
<feColorMatrix type="matrix" values="0 0 0 0 0 0 0 0 0 0 0 0 0 0 0 0 0 0 0.04 0"/>
<feBlend mode="normal" in2="BackgroundImageFix" result="effect1_dropShadow_2228_1246"/>
<feColorMatrix in="SourceAlpha" type="matrix" values="0 0 0 0 0 0 0 0 0 0 0 0 0 0 0 0 0 0 127 0" result="hardAlpha"/>
<feMorphology radius="6.4997" operator="erode" in="SourceAlpha" result="effect2_dropShadow_2228_1246"/>
<feOffset dy="25.9988"/>
<feGaussianBlur stdDeviation="20.799"/>
<feColorMatrix type="matrix" values="0 0 0 0 0 0 0 0 0 0 0 0 0 0 0 0 0 0 0.1 0"/>
<feBlend mode="normal" in2="effect1_dropShadow_2228_1246" result="effect2_dropShadow_2228_1246"/>
<feBlend mode="normal" in="SourceGraphic" in2="effect2_dropShadow_2228_1246" result="shape"/>
</filter>
<filter id="filter3_d_2228_1246" x="1225.1" y="408.943" width="480.488" height="314.983" filterUnits="userSpaceOnUse" color-interpolation-filters="sRGB">
<feFlood flood-opacity="0" result="BackgroundImageFix"/>
<feColorMatrix in="SourceAlpha" type="matrix" values="0 0 0 0 0 0 0 0 0 0 0 0 0 0 0 0 0 0 127 0" result="hardAlpha"/>
<feOffset dy="1.54962"/>
<feGaussianBlur stdDeviation="1.54962"/>
<feColorMatrix type="matrix" values="0 0 0 0 0 0 0 0 0 0 0 0 0 0 0 0 0 0 0.05 0"/>
<feBlend mode="normal" in2="BackgroundImageFix" result="effect1_dropShadow_2228_1246"/>
<feBlend mode="normal" in="SourceGraphic" in2="effect1_dropShadow_2228_1246" result="shape"/>
</filter>
<filter id="filter4_dd_2228_1246" x="1335.09" y="610.46" width="259.196" height="177.554" filterUnits="userSpaceOnUse" color-interpolation-filters="sRGB">
<feFlood flood-opacity="0" result="BackgroundImageFix"/>
<feColorMatrix in="SourceAlpha" type="matrix" values="0 0 0 0 0 0 0 0 0 0 0 0 0 0 0 0 0 0 127 0" result="hardAlpha"/>
<feMorphology radius="0.84206" operator="erode" in="SourceAlpha" result="effect1_dropShadow_2228_1246"/>
<feOffset dy="1.68412"/>
<feGaussianBlur stdDeviation="1.68412"/>
<feColorMatrix type="matrix" values="0 0 0 0 0 0 0 0 0 0 0 0 0 0 0 0 0 0 0.06 0"/>
<feBlend mode="normal" in2="BackgroundImageFix" result="effect1_dropShadow_2228_1246"/>
<feColorMatrix in="SourceAlpha" type="matrix" values="0 0 0 0 0 0 0 0 0 0 0 0 0 0 0 0 0 0 127 0" result="hardAlpha"/>
<feMorphology radius="0.84206" operator="erode" in="SourceAlpha" result="effect2_dropShadow_2228_1246"/>
<feOffset dy="3.36824"/>
<feGaussianBlur stdDeviation="2.52618"/>
<feColorMatrix type="matrix" values="0 0 0 0 0 0 0 0 0 0 0 0 0 0 0 0 0 0 0.1 0"/>
<feBlend mode="normal" in2="effect1_dropShadow_2228_1246" result="effect2_dropShadow_2228_1246"/>
<feBlend mode="normal" in="SourceGraphic" in2="effect2_dropShadow_2228_1246" result="shape"/>
</filter>
<filter id="filter5_i_2228_1246" x="1335.51" y="613.525" width="248.051" height="168.482" filterUnits="userSpaceOnUse" color-interpolation-filters="sRGB">
<feFlood flood-opacity="0" result="BackgroundImageFix"/>
<feBlend mode="normal" in="SourceGraphic" in2="BackgroundImageFix" result="shape"/>
<feColorMatrix in="SourceAlpha" type="matrix" values="0 0 0 0 0 0 0 0 0 0 0 0 0 0 0 0 0 0 127 0" result="hardAlpha"/>
<feOffset dy="1.68412"/>
<feGaussianBlur stdDeviation="1.68412"/>
<feComposite in2="hardAlpha" operator="arithmetic" k2="-1" k3="1"/>
<feColorMatrix type="matrix" values="0 0 0 0 0 0 0 0 0 0 0 0 0 0 0 0 0 0 0.06 0"/>
<feBlend mode="normal" in2="shape" result="effect1_innerShadow_2228_1246"/>
</filter>
<filter id="filter6_f_2228_1246" x="856.413" y="830.821" width="540.553" height="324.474" filterUnits="userSpaceOnUse" color-interpolation-filters="sRGB">
<feFlood flood-opacity="0" result="BackgroundImageFix"/>
<feBlend mode="normal" in="SourceGraphic" in2="BackgroundImageFix" result="shape"/>
<feGaussianBlur stdDeviation="7.3268" result="effect1_foregroundBlur_2228_1246"/>
</filter>
<filter id="filter7_d_2228_1246" x="1048.24" y="545.387" width="337.174" height="489.802" filterUnits="userSpaceOnUse" color-interpolation-filters="sRGB">
<feFlood flood-opacity="0" result="BackgroundImageFix"/>
<feColorMatrix in="SourceAlpha" type="matrix" values="0 0 0 0 0 0 0 0 0 0 0 0 0 0 0 0 0 0 127 0" result="hardAlpha"/>
<feOffset dx="1.99894" dy="1.99894"/>
<feGaussianBlur stdDeviation="0.999472"/>
<feComposite in2="hardAlpha" operator="out"/>
<feColorMatrix type="matrix" values="0 0 0 0 0 0 0 0 0 0 0 0 0 0 0 0 0 0 0.03 0"/>
<feBlend mode="normal" in2="BackgroundImageFix" result="effect1_dropShadow_2228_1246"/>
<feBlend mode="normal" in="SourceGraphic" in2="effect1_dropShadow_2228_1246" result="shape"/>
</filter>
<filter id="filter8_dd_2228_1246" x="1052.31" y="545.387" width="344.795" height="308.215" filterUnits="userSpaceOnUse" color-interpolation-filters="sRGB">
<feFlood flood-opacity="0" result="BackgroundImageFix"/>
<feColorMatrix in="SourceAlpha" type="matrix" values="0 0 0 0 0 0 0 0 0 0 0 0 0 0 0 0 0 0 127 0" result="hardAlpha"/>
<feMorphology radius="3.92355" operator="erode" in="SourceAlpha" result="effect1_dropShadow_2228_1246"/>
<feOffset dy="7.84711"/>
<feGaussianBlur stdDeviation="3.92355"/>
<feColorMatrix type="matrix" values="0 0 0 0 0 0 0 0 0 0 0 0 0 0 0 0 0 0 0.04 0"/>
<feBlend mode="normal" in2="BackgroundImageFix" result="effect1_dropShadow_2228_1246"/>
<feColorMatrix in="SourceAlpha" type="matrix" values="0 0 0 0 0 0 0 0 0 0 0 0 0 0 0 0 0 0 127 0" result="hardAlpha"/>
<feMorphology radius="3.92355" operator="erode" in="SourceAlpha" result="effect2_dropShadow_2228_1246"/>
<feOffset dy="15.6942"/>
<feGaussianBlur stdDeviation="9.80889"/>
<feColorMatrix type="matrix" values="0 0 0 0 0.654902 0 0 0 0 0.545098 0 0 0 0 0.980392 0 0 0 0.1 0"/>
<feBlend mode="normal" in2="effect1_dropShadow_2228_1246" result="effect2_dropShadow_2228_1246"/>
<feBlend mode="normal" in="SourceGraphic" in2="effect2_dropShadow_2228_1246" result="shape"/>
</filter>
<filter id="filter9_dd_2228_1246" x="1052.31" y="645.724" width="344.795" height="308.215" filterUnits="userSpaceOnUse" color-interpolation-filters="sRGB">
<feFlood flood-opacity="0" result="BackgroundImageFix"/>
<feColorMatrix in="SourceAlpha" type="matrix" values="0 0 0 0 0 0 0 0 0 0 0 0 0 0 0 0 0 0 127 0" result="hardAlpha"/>
<feMorphology radius="3.92355" operator="erode" in="SourceAlpha" result="effect1_dropShadow_2228_1246"/>
<feOffset dy="7.84711"/>
<feGaussianBlur stdDeviation="3.92355"/>
<feColorMatrix type="matrix" values="0 0 0 0 0 0 0 0 0 0 0 0 0 0 0 0 0 0 0.04 0"/>
<feBlend mode="normal" in2="BackgroundImageFix" result="effect1_dropShadow_2228_1246"/>
<feColorMatrix in="SourceAlpha" type="matrix" values="0 0 0 0 0 0 0 0 0 0 0 0 0 0 0 0 0 0 127 0" result="hardAlpha"/>
<feMorphology radius="3.92355" operator="erode" in="SourceAlpha" result="effect2_dropShadow_2228_1246"/>
<feOffset dy="15.6942"/>
<feGaussianBlur stdDeviation="9.80889"/>
<feColorMatrix type="matrix" values="0 0 0 0 0.654902 0 0 0 0 0.545098 0 0 0 0 0.980392 0 0 0 0.1 0"/>
<feBlend mode="normal" in2="effect1_dropShadow_2228_1246" result="effect2_dropShadow_2228_1246"/>
<feBlend mode="normal" in="SourceGraphic" in2="effect2_dropShadow_2228_1246" result="shape"/>
</filter>
<filter id="filter10_dd_2228_1246" x="1052.31" y="747.954" width="344.795" height="308.215" filterUnits="userSpaceOnUse" color-interpolation-filters="sRGB">
<feFlood flood-opacity="0" result="BackgroundImageFix"/>
<feColorMatrix in="SourceAlpha" type="matrix" values="0 0 0 0 0 0 0 0 0 0 0 0 0 0 0 0 0 0 127 0" result="hardAlpha"/>
<feMorphology radius="3.92355" operator="erode" in="SourceAlpha" result="effect1_dropShadow_2228_1246"/>
<feOffset dy="7.84711"/>
<feGaussianBlur stdDeviation="3.92355"/>
<feColorMatrix type="matrix" values="0 0 0 0 0 0 0 0 0 0 0 0 0 0 0 0 0 0 0.04 0"/>
<feBlend mode="normal" in2="BackgroundImageFix" result="effect1_dropShadow_2228_1246"/>
<feColorMatrix in="SourceAlpha" type="matrix" values="0 0 0 0 0 0 0 0 0 0 0 0 0 0 0 0 0 0 127 0" result="hardAlpha"/>
<feMorphology radius="3.92355" operator="erode" in="SourceAlpha" result="effect2_dropShadow_2228_1246"/>
<feOffset dy="15.6942"/>
<feGaussianBlur stdDeviation="9.80889"/>
<feColorMatrix type="matrix" values="0 0 0 0 0.654902 0 0 0 0 0.545098 0 0 0 0 0.980392 0 0 0 0.1 0"/>
<feBlend mode="normal" in2="effect1_dropShadow_2228_1246" result="effect2_dropShadow_2228_1246"/>
<feBlend mode="normal" in="SourceGraphic" in2="effect2_dropShadow_2228_1246" result="shape"/>
</filter>
<filter id="filter11_dd_2228_1246" x="1032.54" y="557.134" width="349.674" height="302.453" filterUnits="userSpaceOnUse" color-interpolation-filters="sRGB">
<feFlood flood-opacity="0" result="BackgroundImageFix"/>
<feColorMatrix in="SourceAlpha" type="matrix" values="0 0 0 0 0 0 0 0 0 0 0 0 0 0 0 0 0 0 127 0" result="hardAlpha"/>
<feMorphology radius="3.92355" operator="erode" in="SourceAlpha" result="effect1_dropShadow_2228_1246"/>
<feOffset dy="7.84711"/>
<feGaussianBlur stdDeviation="3.92355"/>
<feColorMatrix type="matrix" values="0 0 0 0 0 0 0 0 0 0 0 0 0 0 0 0 0 0 0.04 0"/>
<feBlend mode="normal" in2="BackgroundImageFix" result="effect1_dropShadow_2228_1246"/>
<feColorMatrix in="SourceAlpha" type="matrix" values="0 0 0 0 0 0 0 0 0 0 0 0 0 0 0 0 0 0 127 0" result="hardAlpha"/>
<feMorphology radius="3.92355" operator="erode" in="SourceAlpha" result="effect2_dropShadow_2228_1246"/>
<feOffset dy="15.6942"/>
<feGaussianBlur stdDeviation="9.80889"/>
<feColorMatrix type="matrix" values="0 0 0 0 0.654902 0 0 0 0 0.545098 0 0 0 0 0.980392 0 0 0 0.1 0"/>
<feBlend mode="normal" in2="effect1_dropShadow_2228_1246" result="effect2_dropShadow_2228_1246"/>
<feBlend mode="normal" in="SourceGraphic" in2="effect2_dropShadow_2228_1246" result="shape"/>
</filter>
<filter id="filter12_dd_2228_1246" x="1287.52" y="703.504" width="72.8867" height="117.971" filterUnits="userSpaceOnUse" color-interpolation-filters="sRGB">
<feFlood flood-opacity="0" result="BackgroundImageFix"/>
<feColorMatrix in="SourceAlpha" type="matrix" values="0 0 0 0 0 0 0 0 0 0 0 0 0 0 0 0 0 0 127 0" result="hardAlpha"/>
<feMorphology radius="0.628713" operator="erode" in="SourceAlpha" result="effect1_dropShadow_2228_1246"/>
<feOffset dy="1.25743"/>
<feGaussianBlur stdDeviation="1.25743"/>
<feColorMatrix type="matrix" values="0 0 0 0 0 0 0 0 0 0 0 0 0 0 0 0 0 0 0.06 0"/>
<feBlend mode="normal" in2="BackgroundImageFix" result="effect1_dropShadow_2228_1246"/>
<feColorMatrix in="SourceAlpha" type="matrix" values="0 0 0 0 0 0 0 0 0 0 0 0 0 0 0 0 0 0 127 0" result="hardAlpha"/>
<feMorphology radius="0.628713" operator="erode" in="SourceAlpha" result="effect2_dropShadow_2228_1246"/>
<feOffset dy="2.51485"/>
<feGaussianBlur stdDeviation="1.88614"/>
<feColorMatrix type="matrix" values="0 0 0 0 0 0 0 0 0 0 0 0 0 0 0 0 0 0 0.1 0"/>
<feBlend mode="normal" in2="effect1_dropShadow_2228_1246" result="effect2_dropShadow_2228_1246"/>
<feBlend mode="normal" in="SourceGraphic" in2="effect2_dropShadow_2228_1246" result="shape"/>
</filter>
<filter id="filter13_dd_2228_1246" x="1045.29" y="659.457" width="324.175" height="273.497" filterUnits="userSpaceOnUse" color-interpolation-filters="sRGB">
<feFlood flood-opacity="0" result="BackgroundImageFix"/>
<feColorMatrix in="SourceAlpha" type="matrix" values="0 0 0 0 0 0 0 0 0 0 0 0 0 0 0 0 0 0 127 0" result="hardAlpha"/>
<feOffset dy="1.064"/>
<feGaussianBlur stdDeviation="1.064"/>
<feColorMatrix type="matrix" values="0 0 0 0 0 0 0 0 0 0 0 0 0 0 0 0 0 0 0.06 0"/>
<feBlend mode="normal" in2="BackgroundImageFix" result="effect1_dropShadow_2228_1246"/>
<feColorMatrix in="SourceAlpha" type="matrix" values="0 0 0 0 0 0 0 0 0 0 0 0 0 0 0 0 0 0 127 0" result="hardAlpha"/>
<feOffset dy="1.064"/>
<feGaussianBlur stdDeviation="1.596"/>
<feColorMatrix type="matrix" values="0 0 0 0 0 0 0 0 0 0 0 0 0 0 0 0 0 0 0.1 0"/>
<feBlend mode="normal" in2="effect1_dropShadow_2228_1246" result="effect2_dropShadow_2228_1246"/>
<feBlend mode="normal" in="SourceGraphic" in2="effect2_dropShadow_2228_1246" result="shape"/>
</filter>
<filter id="filter14_dd_2228_1246" x="1284.84" y="807.095" width="74.9594" height="114.388" filterUnits="userSpaceOnUse" color-interpolation-filters="sRGB">
<feFlood flood-opacity="0" result="BackgroundImageFix"/>
<feColorMatrix in="SourceAlpha" type="matrix" values="0 0 0 0 0 0 0 0 0 0 0 0 0 0 0 0 0 0 127 0" result="hardAlpha"/>
<feMorphology radius="0.726406" operator="erode" in="SourceAlpha" result="effect1_dropShadow_2228_1246"/>
<feOffset dy="1.45281"/>
<feGaussianBlur stdDeviation="1.45281"/>
<feColorMatrix type="matrix" values="0 0 0 0 0 0 0 0 0 0 0 0 0 0 0 0 0 0 0.06 0"/>
<feBlend mode="normal" in2="BackgroundImageFix" result="effect1_dropShadow_2228_1246"/>
<feColorMatrix in="SourceAlpha" type="matrix" values="0 0 0 0 0 0 0 0 0 0 0 0 0 0 0 0 0 0 127 0" result="hardAlpha"/>
<feMorphology radius="0.726406" operator="erode" in="SourceAlpha" result="effect2_dropShadow_2228_1246"/>
<feOffset dy="2.90562"/>
<feGaussianBlur stdDeviation="2.17922"/>
<feColorMatrix type="matrix" values="0 0 0 0 0 0 0 0 0 0 0 0 0 0 0 0 0 0 0.1 0"/>
<feBlend mode="normal" in2="effect1_dropShadow_2228_1246" result="effect2_dropShadow_2228_1246"/>
<feBlend mode="normal" in="SourceGraphic" in2="effect2_dropShadow_2228_1246" result="shape"/>
</filter>
<filter id="filter15_d_2228_1246" x="1046.36" y="763.015" width="322.047" height="271.369" filterUnits="userSpaceOnUse" color-interpolation-filters="sRGB">
<feFlood flood-opacity="0" result="BackgroundImageFix"/>
<feColorMatrix in="SourceAlpha" type="matrix" values="0 0 0 0 0 0 0 0 0 0 0 0 0 0 0 0 0 0 127 0" result="hardAlpha"/>
<feOffset dy="1.064"/>
<feGaussianBlur stdDeviation="1.064"/>
<feColorMatrix type="matrix" values="0 0 0 0 0 0 0 0 0 0 0 0 0 0 0 0 0 0 0.06 0"/>
<feBlend mode="normal" in2="BackgroundImageFix" result="effect1_dropShadow_2228_1246"/>
<feBlend mode="normal" in="SourceGraphic" in2="effect1_dropShadow_2228_1246" result="shape"/>
</filter>
<filter id="filter16_dd_2228_1246" x="1284.84" y="909.588" width="74.9594" height="114.388" filterUnits="userSpaceOnUse" color-interpolation-filters="sRGB">
<feFlood flood-opacity="0" result="BackgroundImageFix"/>
<feColorMatrix in="SourceAlpha" type="matrix" values="0 0 0 0 0 0 0 0 0 0 0 0 0 0 0 0 0 0 127 0" result="hardAlpha"/>
<feMorphology radius="0.726406" operator="erode" in="SourceAlpha" result="effect1_dropShadow_2228_1246"/>
<feOffset dy="1.45281"/>
<feGaussianBlur stdDeviation="1.45281"/>
<feColorMatrix type="matrix" values="0 0 0 0 0 0 0 0 0 0 0 0 0 0 0 0 0 0 0.06 0"/>
<feBlend mode="normal" in2="BackgroundImageFix" result="effect1_dropShadow_2228_1246"/>
<feColorMatrix in="SourceAlpha" type="matrix" values="0 0 0 0 0 0 0 0 0 0 0 0 0 0 0 0 0 0 127 0" result="hardAlpha"/>
<feMorphology radius="0.726406" operator="erode" in="SourceAlpha" result="effect2_dropShadow_2228_1246"/>
<feOffset dy="2.90562"/>
<feGaussianBlur stdDeviation="2.17922"/>
<feColorMatrix type="matrix" values="0 0 0 0 0 0 0 0 0 0 0 0 0 0 0 0 0 0 0.1 0"/>
<feBlend mode="normal" in2="effect1_dropShadow_2228_1246" result="effect2_dropShadow_2228_1246"/>
<feBlend mode="normal" in="SourceGraphic" in2="effect2_dropShadow_2228_1246" result="shape"/>
</filter>
<radialGradient id="paint0_radial_2228_1246" cx="0" cy="0" r="1" gradientUnits="userSpaceOnUse" gradientTransform="translate(1354.57 843.842) rotate(150) scale(716.392 726.793)">
<stop stop-color="#F4F4F4"/>
<stop offset="0.72182" stop-color="#898989" stop-opacity="0"/>
</radialGradient>
<linearGradient id="paint1_linear_2228_1246" x1="1465.35" y1="581.631" x2="1302.39" y2="863.876" gradientUnits="userSpaceOnUse">
<stop stop-color="white"/>
<stop offset="0.0001" stop-color="#F9FAFB"/>
<stop offset="1" stop-color="#F3F4F6"/>
</linearGradient>
<linearGradient id="paint2_linear_2228_1246" x1="1224.6" y1="936.532" x2="1126.01" y2="1169.23" gradientUnits="userSpaceOnUse">
<stop offset="0.188658" stop-color="#4B5563"/>
<stop offset="0.676201" stop-color="#4B5563" stop-opacity="0"/>
</linearGradient>
<linearGradient id="paint3_linear_2228_1246" x1="1113.8" y1="44.5045" x2="2113.5" y2="795.082" gradientUnits="userSpaceOnUse">
<stop stop-color="#DED9FC"/>
<stop offset="0.136573" stop-color="#725CF6"/>
<stop offset="0.244792" stop-color="#5854FD"/>
<stop offset="0.388755" stop-color="#FFC368" stop-opacity="0.75"/>
<stop offset="0.457558" stop-color="#EF9AF3" stop-opacity="0.79"/>
<stop offset="0.552737" stop-color="#7C79FE"/>
<stop offset="0.694752" stop-color="#5854FD"/>
<stop offset="0.942708" stop-color="#9C4FFF"/>
<stop offset="1" stop-color="#E1D5FF"/>
</linearGradient>
<linearGradient id="paint4_linear_2228_1246" x1="1197.97" y1="1193.76" x2="1746.14" y2="282.339" gradientUnits="userSpaceOnUse">
<stop offset="0.0027083" stop-color="white"/>
<stop offset="0.176722" stop-color="white" stop-opacity="0"/>
</linearGradient>
<linearGradient id="paint5_linear_2228_1246" x1="2220" y1="798.977" x2="1813.4" y2="798.977" gradientUnits="userSpaceOnUse">
<stop stop-color="#F9FAFB"/>
<stop offset="0.394851" stop-color="#F9FAFB" stop-opacity="0.89"/>
<stop offset="0.693541" stop-color="#F9FAFB" stop-opacity="0.452733"/>
<stop offset="1" stop-color="#F9FAFB" stop-opacity="0"/>
</linearGradient>
<linearGradient id="paint6_linear_2228_1246" x1="915.396" y1="1108.89" x2="729.663" y2="1108.89" gradientUnits="userSpaceOnUse">
<stop stop-color="#F9FAFB"/>
<stop offset="0.394851" stop-color="#F9FAFB" stop-opacity="0.89"/>
<stop offset="0.693541" stop-color="#F9FAFB" stop-opacity="0.452733"/>
<stop offset="1" stop-color="#F9FAFB" stop-opacity="0"/>
</linearGradient>
<clipPath id="clip0_2228_1246">
<rect width="2220" height="1500" fill="white"/>
</clipPath>
</defs>
</svg>
