<svg width="48" height="53" viewBox="0 0 48 53" fill="none" xmlns="http://www.w3.org/2000/svg">
<g clip-path="url(#clip0_2452_52967)">
<path d="M21.8135 4.80795C23.2467 4.39519 24.8026 4.4112 26.2307 4.8372C27.6435 5.25603 28.9268 6.08265 29.8689 7.19235C30.5557 7.98035 30.9937 8.93113 31.5238 9.81845C32.69 11.8387 33.8838 13.8434 35.0748 15.8498C38.4702 21.6058 41.89 27.3491 45.2571 33.1217C45.7516 33.9869 46.3191 34.8273 46.6133 35.7847C47.2221 37.6322 47.0167 39.7049 46.0979 41.4216C45.3906 42.7608 44.2618 43.8893 42.8914 44.589C40.9202 45.6038 38.4866 45.7268 36.4237 44.8986C34.8287 44.2673 33.4945 43.0781 32.6311 41.6335C29.7614 36.7786 26.9035 31.9165 24.023 27.0677C23.4396 26.0121 22.8104 24.9807 22.2005 23.94C20.6406 21.2896 19.0654 18.6475 17.493 16.0043C16.8044 14.8781 16.3704 13.594 16.3172 12.279C16.2635 11.3939 16.4423 10.5154 16.6686 9.66284C16.9408 8.951 17.2944 8.26564 17.7408 7.64153C18.723 6.29013 20.1811 5.27038 21.8135 4.80795Z" fill="#3C8BD9"/>
<path d="M16.2792 10.2938C16.4077 10.083 16.5231 9.86395 16.6685 9.66309C16.4422 10.5156 16.2634 11.3941 16.3172 12.2793C16.3703 13.5942 16.8043 14.8783 17.4929 16.0046C19.0653 18.6478 20.6405 21.2899 22.2004 23.9402C22.8103 24.981 23.4395 26.0123 24.0229 27.0679C22.8958 28.9645 21.767 30.86 20.6314 32.7517C19.0466 35.4357 17.4425 38.1104 15.8555 40.7927C15.834 40.6597 15.8945 40.5406 15.9488 40.4236C16.6323 38.4194 16.462 36.1282 15.3858 34.2829C14.3951 32.5508 12.6468 31.27 10.6863 30.7646C9.01996 30.322 7.19919 30.4495 5.62173 31.1404C4.50652 31.6133 3.57012 32.3996 2.74121 33.2516C2.74461 33.0706 2.89341 32.9542 2.97659 32.8079C7.3944 25.2939 11.8314 17.7908 16.2792 10.2938Z" fill="#FABC04"/>
<path d="M5.62159 31.1397C7.19905 30.4489 9.01982 30.3214 10.6861 30.7639C12.6466 31.2694 14.395 32.5502 15.3857 34.2823C16.4619 36.1276 16.6322 38.4187 15.9487 40.4229C15.8944 40.5399 15.8338 40.6591 15.8553 40.7921C15.0807 42.324 13.9452 43.7421 12.3892 44.5759C11.1846 45.2337 9.78252 45.4947 8.41101 45.4434C6.51386 45.391 4.64614 44.6184 3.30518 43.3056C1.82503 41.8814 1.00631 39.8502 1.038 37.8278C1.05044 36.6949 1.35541 35.5703 1.89745 34.5698C2.1515 34.1151 2.42365 33.6648 2.74107 33.251C3.56998 32.399 4.50638 31.6126 5.62159 31.1397Z" fill="#34A852"/>
</g>
<defs>
<clipPath id="clip0_2452_52967">
<rect width="46" height="41" fill="white" transform="translate(1 4.5)"/>
</clipPath>
</defs>
</svg>
