<svg width="48" height="53" viewBox="0 0 48 53" fill="none" xmlns="http://www.w3.org/2000/svg">
<g clip-path="url(#clip0_2452_52906)">
<path d="M43.875 23.2855V45.7873C43.875 47.2859 42.6859 48.5 41.2159 48.5H6.53412C5.06516 48.5 3.875 47.2858 3.875 45.7873V23.2855C4.70316 23.7854 5.66947 24.072 6.70087 24.072C8.10581 24.072 9.39888 23.5372 10.3846 22.6469C11.3703 21.7579 12.0465 20.5111 12.2167 19.0894L12.4062 17.5C12.3788 17.7389 12.364 17.9777 12.364 18.212C12.364 21.4013 14.9054 24.072 18.1197 24.072C21.2985 24.072 23.8754 21.4432 23.8754 18.2015C23.8754 21.4433 26.4511 24.072 29.63 24.072C32.8465 24.072 35.3868 21.4013 35.3868 18.2097C35.3868 17.9778 35.3732 17.7436 35.3446 17.5059L35.5341 19.0895C35.7043 20.5111 36.3805 21.7579 37.3652 22.647C38.3509 23.5372 39.6451 24.0721 41.0489 24.0721C42.0806 24.0721 43.0469 23.7854 43.875 23.2855Z" fill="#518EF8"/>
<path d="M43.875 28.1046V30.7381C43.0468 31.2224 42.0805 31.5 41.0491 31.5C39.6453 31.5 38.3512 30.9819 37.3654 30.1195C36.3808 29.2582 35.7046 28.0504 35.5343 26.6732L35.3448 25.1392C35.3734 25.3694 35.387 25.5963 35.387 25.8209C35.387 28.9127 32.8467 31.4999 29.6301 31.4999C26.4513 31.4999 23.8755 28.9533 23.8755 25.8131C23.8755 28.9534 21.2986 31.4999 18.1198 31.4999C14.9055 31.4999 12.364 28.9127 12.364 25.8231C12.364 25.5962 12.3789 25.3648 12.4063 25.1335L12.2167 26.6731C12.0465 28.0502 11.3704 29.2581 10.3846 30.1194C9.39883 30.9818 8.10584 31.4999 6.70089 31.4999C5.66948 31.4999 4.70307 31.2222 3.875 30.738V28.1046C4.70316 28.5888 5.66948 28.8665 6.70089 28.8665C8.10584 28.8665 9.39892 28.3483 10.3846 27.4859C11.3704 26.6247 12.0466 25.4169 12.2167 24.0397L12.4063 22.5C12.3789 22.7314 12.364 22.9628 12.364 23.1897C12.364 26.2792 14.9055 28.8665 18.1198 28.8665C21.2986 28.8665 23.8755 26.3199 23.8755 23.1796C23.8755 26.32 26.4513 28.8665 29.6301 28.8665C32.8467 28.8665 35.387 26.2792 35.387 23.1875C35.387 22.9629 35.3734 22.736 35.3448 22.5057L35.5343 24.0398C35.7046 25.4169 36.3807 26.6247 37.3654 27.486C38.3512 28.3484 39.6453 28.8665 41.0491 28.8665C42.0806 28.8666 43.0469 28.5889 43.875 28.1046Z" fill="#4786E2"/>
<path d="M35.4172 22.4691C35.446 22.7035 35.4598 22.9346 35.4598 23.1634C35.4598 26.3119 32.9033 28.9465 29.6662 28.9465C26.4672 28.9465 23.875 26.3532 23.875 23.1553L21.1162 16.4222L23.8749 8.5H33.7148L36.6729 16.4313L35.4161 22.4541C35.4172 22.4587 35.4172 22.4645 35.4172 22.4691Z" fill="#ACD1FC"/>
<path d="M14.0344 8.5L16.5952 17.2048L12.3343 22.454L12.1424 24.0311C11.9711 25.4335 11.2906 26.6635 10.2986 27.5406C9.30653 28.4188 8.00531 28.9465 6.59142 28.9465C5.55345 28.9465 4.58089 28.6636 3.74755 28.1706V28.1694C2.1024 27.1968 1 25.4047 1 23.3551V22.9402L4.80848 9.89709C5.05019 9.06911 5.80937 8.5 6.67193 8.5H14.0344Z" fill="#ACD1FC"/>
<path d="M44.0028 28.1706C43.1693 28.6637 42.1969 28.9465 41.1589 28.9465C39.7462 28.9465 38.4438 28.4188 37.4517 27.5406C36.4609 26.6636 35.7803 25.4336 35.609 24.0311L35.4182 22.4689C35.4182 22.4643 35.4182 22.4585 35.4171 22.454L33.7158 8.5H41.0784C41.9409 8.5 42.7 9.06911 42.9418 9.897L46.7513 22.9402V23.3552C46.7513 25.4048 45.6477 27.1969 44.0028 28.1706Z" fill="#3A5BBC"/>
<path d="M23.8758 8.50009V23.1552C23.8758 26.3532 21.2825 28.9465 18.0834 28.9465C14.8487 28.9465 12.291 26.3118 12.291 23.1655C12.291 22.9344 12.3059 22.6988 12.3335 22.4632C12.3335 22.4597 12.3347 22.4575 12.3347 22.454L14.0348 8.5L23.8758 8.50009Z" fill="#3A5BBC"/>
<path d="M35.375 45.5C32.3423 45.5 29.875 42.8084 29.875 39.5C29.875 36.1916 32.3423 33.5 35.375 33.5C36.8446 33.5 38.2261 34.124 39.2646 35.2568L38.0984 36.529C37.3713 35.7359 36.4042 35.2992 35.3751 35.2992C33.2518 35.2992 31.5244 37.1835 31.5244 39.4999C31.5244 41.8163 33.2518 43.7007 35.3751 43.7007C37.2153 43.7007 38.7582 42.285 39.1368 40.3995H35.375V38.6003H40.875V39.4999C40.875 42.8083 38.4077 45.5 35.375 45.5Z" fill="white"/>
</g>
<defs>
<clipPath id="clip0_2452_52906">
<rect width="47" height="52" fill="white" transform="translate(0.5 0.5)"/>
</clipPath>
</defs>
</svg>
