<svg width="56" height="34" viewBox="0 0 56 34" fill="none" xmlns="http://www.w3.org/2000/svg">
  <path fill-rule="evenodd" clip-rule="evenodd" d="M33.6285 10.7808C33.6322 10.746 33.634 10.7109 33.634 10.6756V1.06222C33.634 0.509934 33.1863 0.0622183 32.634 0.0622183L23.0206 0.0622181C22.7554 0.0622181 22.5011 0.167576 22.3135 0.355112L0.844126 21.8245C0.656589 22.0121 0.551232 22.2664 0.551232 22.5316L0.551232 32.145C0.551232 32.6973 0.998949 33.145 1.55123 33.145H11.1646C11.4298 33.145 11.6842 33.0397 11.8717 32.8521L22.2974 22.4265C22.2937 22.4612 22.2918 22.4963 22.2918 22.5316L22.2918 32.145C22.2918 32.6973 22.7395 33.145 23.2918 33.145H32.9052C33.1704 33.145 33.4248 33.0397 33.6123 32.8521L55.0817 11.3827C55.2693 11.1952 55.3746 10.9408 55.3746 10.6756V1.06222C55.3746 0.509934 54.9269 0.0622183 54.3746 0.0622183L44.7612 0.0622181C44.496 0.0622181 44.2417 0.167576 44.0541 0.355112L33.6285 10.7808Z" fill="#1F2937" />
  <path d="M55.2458 31.8789C55.2458 32.4312 54.7981 32.8789 54.2458 32.8789L42.3456 32.8789C41.4547 32.8789 41.0085 31.8018 41.6385 31.1718L53.5387 19.2715C54.1687 18.6416 55.2458 19.0877 55.2458 19.9787L55.2458 31.8789Z" fill="#8B5CF6" />
</svg>