<svg width="188" height="188" viewBox="0 0 188 188" fill="none" xmlns="http://www.w3.org/2000/svg">
    <rect x="0.0791016" width="187.842" height="187.842" rx="13.1819" fill="#DADAFF" fill-opacity="0.8"/>
    <rect x="20.9512" y="44.3945" width="75.3228" height="91.6825" rx="8.17985" transform="rotate(-14.7117 20.9512 44.3945)" fill="white"/>
    <rect x="38.7871" y="56.3633" width="7.19974" height="7.11962" rx="3.55981" transform="rotate(-14.7117 38.7871 56.3633)" fill="#7857FF"/>
    <path fill-rule="evenodd" clip-rule="evenodd" d="M44.8224 57.7581C44.9338 57.5674 44.8695 57.3224 44.6787 57.211C44.488 57.0996 44.243 57.1639 44.1316 57.3547L42.9665 59.3494L41.7435 58.6351C41.5527 58.5237 41.3078 58.588 41.1964 58.7787C41.085 58.9695 41.1493 59.2144 41.34 59.3259L42.8538 60.21C42.87 60.2233 42.8874 60.2354 42.9059 60.2462C43.0967 60.3577 43.3417 60.2933 43.4531 60.1026L44.8224 57.7581Z" fill="#F9FAFB"/>
    <rect x="48.042" y="54.25" width="38.5652" height="6.42754" rx="3.21377" transform="rotate(-14.7117 48.042 54.25)" fill="#D9D9D9"/>
    <rect x="42.2402" y="69.5176" width="7.19974" height="7.11962" rx="3.55981" transform="rotate(-14.7117 42.2402 69.5176)" fill="#7857FF"/>
    <path fill-rule="evenodd" clip-rule="evenodd" d="M48.2755 70.9126C48.3869 70.7218 48.3226 70.4768 48.1318 70.3654C47.9411 70.254 47.6961 70.3183 47.5847 70.5091L46.4198 72.5036L45.1968 71.7893C45.0061 71.6779 44.7611 71.7422 44.6497 71.9329C44.5383 72.1237 44.6026 72.3686 44.7934 72.48L46.3053 73.3631C46.3219 73.3769 46.3398 73.3894 46.359 73.4007C46.5498 73.5121 46.7947 73.4478 46.9062 73.257L48.2755 70.9126Z" fill="#F9FAFB"/>
    <rect x="51.5391" y="67.5723" width="28.1587" height="6.42754" rx="3.21377" transform="rotate(-14.7117 51.5391 67.5723)" fill="#D9D9D9"/>
    <rect x="45.6924" y="82.6719" width="7.19974" height="7.11962" rx="3.55981" transform="rotate(-14.7117 45.6924 82.6719)" fill="#7857FF"/>
    <path fill-rule="evenodd" clip-rule="evenodd" d="M51.7279 84.067C51.8393 83.8762 51.775 83.6313 51.5842 83.5199C51.3935 83.4084 51.1485 83.4728 51.0371 83.6635L49.872 85.6583L48.649 84.9439C48.4582 84.8325 48.2133 84.8968 48.1019 85.0876C47.9905 85.2783 48.0548 85.5233 48.2455 85.6347L49.7593 86.5189C49.7755 86.5321 49.7929 86.5442 49.8115 86.5551C50.0022 86.6665 50.2472 86.6022 50.3586 86.4114L51.7279 84.067Z" fill="#F9FAFB"/>
    <rect x="54.959" y="80.5996" width="35.1984" height="6.42754" rx="3.21377" transform="rotate(-14.7117 54.959 80.5996)" fill="#D9D9D9"/>
    <rect x="49.1465" y="95.8242" width="7.19974" height="7.11962" rx="3.55981" transform="rotate(-14.7117 49.1465 95.8242)" fill="#7857FF"/>
    <path fill-rule="evenodd" clip-rule="evenodd" d="M55.1817 97.2191C55.2932 97.0283 55.2288 96.7834 55.0381 96.672C54.8473 96.5605 54.6024 96.6249 54.491 96.8156L53.3259 98.8103L52.1029 98.096C51.9121 97.9845 51.6672 98.0489 51.5557 98.2396C51.4443 98.4304 51.5086 98.6753 51.6994 98.7867L53.2129 99.6708C53.2291 99.6841 53.2466 99.6963 53.2653 99.7072C53.4561 99.8186 53.701 99.7543 53.8124 99.5635L55.1817 97.2191Z" fill="#F9FAFB"/>
    <rect x="58.4561" y="93.9199" width="35.1984" height="6.42754" rx="3.21377" transform="rotate(-14.7117 58.4561 93.9199)" fill="#D9D9D9"/>
    <rect x="50.8467" y="109.525" width="7.19974" height="7.11962" rx="3.55981" transform="rotate(-14.7117 50.8467 109.525)" fill="#7857FF"/>
    <path fill-rule="evenodd" clip-rule="evenodd" d="M56.8815 110.92C56.9929 110.73 56.9285 110.485 56.7378 110.373C56.547 110.262 56.3021 110.326 56.1907 110.517L55.0259 112.511L53.8039 111.798C53.6131 111.686 53.3682 111.75 53.2568 111.941C53.1453 112.132 53.2097 112.377 53.4004 112.488L54.9102 113.37C54.9271 113.384 54.9454 113.397 54.965 113.409C55.1471 113.515 55.3785 113.461 55.4961 113.29C55.5029 113.281 55.5093 113.271 55.5153 113.26C55.5186 113.255 55.5216 113.249 55.5246 113.244L56.8815 110.92Z" fill="#F9FAFB"/>
    <rect x="60.1016" y="107.412" width="37.0349" height="6.42754" rx="3.21377" transform="rotate(-14.7117 60.1016 107.412)" fill="#D9D9D9"/>
    <g filter="url(#filter0_d_3095_1951)">
        <rect x="81.3667" y="57.123" width="82.5418" height="100.469" rx="8.96382" fill="white"/>
        <path d="M122.642 135.327V125.789C122.642 121.884 119.477 118.719 115.573 118.719H111.167C107.263 118.719 104.098 115.554 104.098 111.65V111.434C104.098 107.53 107.263 104.365 111.167 104.365H129.346C133.25 104.365 136.415 101.2 136.415 97.2953L136.415 94.0112C136.415 90.1068 133.25 86.9417 129.345 86.9419L126.882 86.942C122.977 86.9422 119.812 83.7771 119.812 79.8727V74.7324" stroke="#6A6A6A" stroke-width="2.61445"/>
        <path d="M114.345 71.4078C116.618 67.8001 121.877 67.8001 124.149 71.4078C126.579 75.2656 123.806 80.2884 119.247 80.2884C114.688 80.2884 111.916 75.2656 114.345 71.4078Z" fill="#5F64EF"/>
        <path d="M118.137 124.748C120.447 123.07 123.575 123.07 125.885 124.748L132.763 129.745C135.073 131.424 136.04 134.399 135.158 137.114L132.53 145.2C131.648 147.916 129.117 149.754 126.262 149.754H117.76C114.905 149.754 112.374 147.916 111.492 145.2L108.865 137.114C107.982 134.399 108.949 131.424 111.259 129.745L118.137 124.748Z" fill="#8B5CF6"/>
    </g>
    <defs>
        <filter id="filter0_d_3095_1951" x="60.4954" y="40.6457" width="124.285" height="142.211" filterUnits="userSpaceOnUse" color-interpolation-filters="sRGB">
            <feFlood flood-opacity="0" result="BackgroundImageFix"/>
            <feColorMatrix in="SourceAlpha" type="matrix" values="0 0 0 0 0 0 0 0 0 0 0 0 0 0 0 0 0 0 127 0" result="hardAlpha"/>
            <feOffset dy="4.39396"/>
            <feGaussianBlur stdDeviation="10.4356"/>
            <feComposite in2="hardAlpha" operator="out"/>
            <feColorMatrix type="matrix" values="0 0 0 0 0 0 0 0 0 0 0 0 0 0 0 0 0 0 0.25 0"/>
            <feBlend mode="normal" in2="BackgroundImageFix" result="effect1_dropShadow_3095_1951"/>
            <feBlend mode="normal" in="SourceGraphic" in2="effect1_dropShadow_3095_1951" result="shape"/>
        </filter>
    </defs>
</svg>